<svg width="164" height="200" viewBox="0 0 164 200" fill="none" xmlns="http://www.w3.org/2000/svg">
<path d="M148.087 144.463L144.207 144.71H144.162L143.823 144.753V144.998C144.035 147.925 144.163 151.266 144.036 154.813C144.036 155.101 144.035 155.431 143.994 155.761C143.994 155.966 143.994 156.214 143.95 156.419C143.95 157.122 143.95 157.822 143.865 158.563C143.865 159.101 143.824 159.636 143.736 160.214C143.695 160.915 143.654 161.615 143.568 162.356C143.524 162.728 143.482 163.099 143.438 163.471C143.268 164.707 143.096 165.944 142.884 167.182C141.989 172.253 140.539 177.365 138.238 182.066C136.49 185.694 134.443 188.455 132.056 190.434C130.307 191.92 128.346 192.991 126.299 193.569C125.148 193.899 123.996 194.064 122.845 194.064C122.845 194.064 122.845 194.064 122.804 194.064C121.14 194.064 119.48 193.692 117.943 192.991C117.56 192.826 117.177 192.661 116.836 192.456C117.39 191.796 117.857 191.055 118.326 190.312C119.776 187.755 120.672 184.869 120.842 181.9C121.14 178.23 120.331 174.437 118.413 171.222C116.836 168.5 113.808 165.821 110.14 166.522C106.816 167.14 104.6 170.44 104.343 175.056C104.173 178.148 104.428 182.27 106.133 186.311C106.689 187.632 107.369 188.951 108.264 190.229C108.903 191.177 109.628 192.003 110.397 192.786C108.223 194.31 105.665 195.301 102.979 195.671C100.08 196.126 97.0956 195.836 94.4081 194.805C91.2108 193.527 88.5688 191.217 86.8202 188.415C85.5835 186.436 84.7739 184.21 84.5598 181.941C84.474 181.283 84.475 180.582 84.5185 179.879C84.5185 179.839 84.5185 179.839 84.5185 179.799H84.474L80.2551 179.551C80.2116 180.044 80.2116 180.54 80.2551 181.035C80.2551 182.026 80.3823 182.972 80.5529 183.922C80.5963 184.292 80.6811 184.623 80.8083 184.993C80.7669 185.033 80.7659 185.076 80.8497 185.118C80.8931 185.446 80.9789 185.736 81.1082 186.064C81.3625 186.889 81.6614 187.715 82.0864 188.538V188.58L82.1308 188.621C84.3065 193.034 88.0983 196.744 92.8322 198.598C95.2177 199.548 97.776 200.001 100.377 200.001C104.386 200.001 108.435 198.888 111.847 196.826C112.528 196.413 113.168 195.961 113.809 195.466C114.789 196.084 115.811 196.579 116.836 196.992C118.753 197.775 120.758 198.145 122.804 198.187H122.845C127.067 198.187 131.286 196.536 134.869 193.569C137.725 191.177 140.07 188.002 142.116 183.839C144.845 178.23 146.465 172.088 147.318 166.109C147.53 164.79 147.702 163.511 147.831 162.233C148 160.79 148.087 159.348 148.17 157.945C148.214 157.409 148.214 156.875 148.214 156.337C148.257 155.926 148.257 155.513 148.257 155.141C148.299 154.318 148.3 153.492 148.3 152.709C148.385 149.742 148.257 146.98 148.087 144.463ZM113.468 189.941C112.87 189.321 112.316 188.663 111.804 187.962C108.862 183.674 108.436 178.685 108.607 175.263C108.734 173.119 109.502 170.85 110.953 170.562C111.08 170.562 111.165 170.522 111.292 170.522C112.529 170.522 113.935 171.881 114.703 173.284C117.73 178.396 117.178 185.24 113.468 189.941Z" fill="#095DA4"/>
<path d="M148.258 155.14C148.215 158.645 147.917 162.355 147.319 166.108C146.466 164.789 145.017 163.799 143.44 163.471C143.781 160.502 143.995 157.574 144.036 154.812C144.163 154.729 144.334 154.73 144.505 154.688C145.741 154.44 147.063 154.687 148.258 155.14Z" fill="black"/>
<path d="M84.5184 181.9C84.0479 182.353 83.7088 182.971 83.4523 183.591C83.0253 184.787 82.8991 186.063 82.5992 187.301C82.4721 187.754 82.3004 188.167 82.0864 188.58C80.7225 185.735 80.0431 182.643 80.2116 179.508L84.475 179.756C84.4336 180.499 84.4326 181.199 84.5184 181.9Z" fill="black"/>
<path d="M120.799 181.859C120.628 181.817 120.501 181.735 120.331 181.652C119.392 181.116 118.754 180.169 118.327 179.178C117.902 178.147 117.688 177.117 117.39 176.086C116.792 173.859 115.685 171.675 113.765 170.356C112.87 169.736 111.76 169.283 110.653 169.448C109.331 169.613 108.223 170.521 107.54 171.592C106.474 173.323 106.218 175.427 106.304 177.446C106.39 179.467 106.731 181.487 106.602 183.466C106.56 184.414 106.431 185.362 106.092 186.27C104.387 182.229 104.131 178.107 104.3 175.015C104.558 170.397 106.772 167.098 110.099 166.478C113.764 165.777 116.792 168.459 118.37 171.179C120.287 174.396 121.099 178.189 120.799 181.859Z" fill="#28B6F4"/>
<path d="M143.142 171.428C142.93 173.614 142.288 175.716 141.649 177.778C140.71 180.87 139.773 183.962 138.195 186.807C136.617 189.652 134.358 192.209 131.373 193.652C130.052 194.27 128.517 194.683 127.153 194.105C126.812 193.982 126.557 193.774 126.3 193.569C128.347 192.991 130.307 191.921 132.056 190.435C134.443 188.456 136.49 185.694 138.238 182.066C140.539 177.365 141.99 172.253 142.885 167.182C143.226 168.541 143.269 170.027 143.142 171.428Z" fill="#28B6F4"/>
<path d="M102.979 195.669C102.893 195.794 102.765 195.876 102.679 195.959C101.486 196.782 99.9526 196.99 98.5453 196.99C95.3894 196.948 92.2355 195.877 89.9327 193.815C88.3982 192.372 87.2463 190.433 86.8213 188.414C88.5698 191.216 91.2118 193.526 94.4091 194.804C97.0966 195.835 100.08 196.124 102.979 195.669Z" fill="#28B6F4"/>
<path d="M116.836 192.455C117.177 192.66 117.56 192.826 117.943 192.991C117.218 194.064 116.836 195.3 116.836 196.536V196.991C115.811 196.578 114.789 196.083 113.809 195.465" fill="black"/>
<path d="M131.722 75.6365C132.275 85.5586 127.207 96.3787 120.4 103.817C114.54 110.128 105.12 116.065 103.221 121.4C102.904 122.38 102.189 123.881 101.32 125.609C99.4987 129.366 96.8856 134.254 96.2518 136.356C94.1175 143.195 83.7429 144.773 76.2243 144.923C68.7016 145.073 62.1344 141.316 56.6684 136.429C55.2456 128.39 53.1072 124.031 47.7229 117.643C41.7854 110.58 35.8479 103.293 31.812 95.0257C24.2893 79.5456 26.6624 64.4425 36.4042 50.4624C43.2889 40.4714 54.4525 33.5543 66.6449 30.7763C75.1148 28.8203 84.14 28.8213 92.5323 31.2243C112.958 37.0143 130.531 55.4224 131.722 75.6365Z" fill="#FFD880"/>
<path d="M101.338 125.608C99.509 129.371 96.8784 134.254 96.2683 136.353C96.2683 136.425 96.2683 136.426 96.1938 136.498C93.9437 143.192 83.6529 144.784 76.2191 144.929C69.7015 145.039 63.9067 142.252 58.9133 138.307C58.1502 137.692 57.3891 137.078 56.6653 136.426C56.3975 134.944 56.1307 133.532 55.7491 132.265C55.5206 131.216 55.1783 130.239 54.8361 129.299C53.4256 125.174 51.2903 121.846 47.7073 117.648C41.7978 110.594 35.853 103.284 31.812 95.0337C24.3017 79.5486 26.6665 64.4246 36.4249 50.4585C43.2858 40.4714 54.4535 33.5614 66.6521 30.7754C63.4114 33.1264 60.8563 36.2024 57.6177 38.4464C54.3387 40.7604 51.3275 43.2225 48.699 46.1885C43.3612 52.1585 39.6252 59.4315 38.0638 67.1026C35.5087 79.4397 38.4443 92.6457 45.7251 103.14C56.018 118.01 74.1986 127.018 92.9149 125.97C95.621 125.825 98.5556 125.463 101.338 125.608Z" fill="#FFCA28"/>
<path d="M83.1101 137.43C78.0008 139.781 71.3395 139.937 65.6605 139.395C63.3732 139.178 61.1614 138.815 58.9134 138.308C58.1502 137.693 57.3892 137.079 56.6653 136.427C56.3975 134.945 56.1307 133.533 55.7492 132.266C59.3714 134.617 63.641 135.994 67.9851 136.644C72.7127 137.404 78.3452 137.683 83.1101 137.43Z" fill="black"/>
<path d="M100.292 127.566C103.031 119.724 109.687 113.88 115.842 108.127C121.083 103.229 125.088 98.1174 128.579 91.9774C131.962 86.0274 132.847 79.0513 131.995 72.3753C131.094 65.3233 127.341 59.0652 123.462 53.1172" stroke="black" stroke-width="0.825" stroke-linecap="round" stroke-linejoin="round"/>
<path d="M83.7615 61.0587C84.566 61.5867 85.5535 62.0697 86.4728 61.7657C87.5234 61.4187 87.967 60.2257 88.1293 59.1637C88.9276 53.9397 85.8906 48.3796 80.9789 46.0726C80.3843 45.7936 79.7422 45.5546 79.0835 45.5966C75.4033 45.8326 76.7021 51.0706 77.3628 53.1847C78.3855 56.4567 80.8713 59.1627 83.7615 61.0587Z" fill="#FFCA28"/>
<path d="M100.197 63.8084C100.66 64.1124 101.229 64.3904 101.759 64.2154C102.365 64.0154 102.62 63.3273 102.714 62.7153C103.174 59.7043 101.424 56.5003 98.5929 55.1703C98.2506 55.0093 97.8794 54.8713 97.4999 54.8953C95.378 55.0313 96.1277 58.0503 96.5082 59.2693C97.0976 61.1553 98.5308 62.7153 100.197 63.8084Z" fill="#FFCA28"/>
<path d="M33.9835 54.3473C37.9429 48.0013 43.3499 42.5053 49.7072 38.3652" stroke="black" stroke-width="0.825" stroke-linecap="round" stroke-linejoin="round"/>
<path d="M131.722 75.6365C132.275 85.5586 127.207 96.3787 120.4 103.817C114.54 110.128 105.12 116.065 103.221 121.4C102.904 122.38 102.189 123.881 101.32 125.609C99.4987 129.366 96.8856 134.254 96.2518 136.356C94.1175 143.195 83.7429 144.773 76.2243 144.923C68.7016 145.073 62.1344 141.316 56.6684 136.429C55.2456 128.39 53.1072 124.031 47.7229 117.643C41.7854 110.58 35.8479 103.293 31.812 95.0257C24.2893 79.5456 26.6624 64.4425 36.4042 50.4624C43.2889 40.4714 54.4525 33.5543 66.6449 30.7763C75.1148 28.8203 84.14 28.8213 92.5323 31.2243C112.958 37.0143 130.531 55.4224 131.722 75.6365Z" fill="#D0DCEE"/>
<path d="M101.338 125.608C99.509 129.371 96.8784 134.254 96.2683 136.353C96.2683 136.425 96.2683 136.426 96.1939 136.498C93.9438 143.192 83.6529 144.784 76.2192 144.929C69.7016 145.039 63.9068 142.252 58.9133 138.307C58.1502 137.692 57.3892 137.078 56.6653 136.426C56.3975 134.944 56.1307 133.532 55.7492 132.265C55.5206 131.216 55.1784 130.239 54.8361 129.299C53.4257 125.174 51.2903 121.846 47.7074 117.648C41.7978 110.594 35.8531 103.284 31.812 95.0337C24.3017 79.5486 26.6666 64.4246 36.4249 50.4585C43.2858 40.4714 54.4535 33.5614 66.6522 30.7754C63.4115 33.1264 60.8563 36.2024 57.6177 38.4464C54.3387 40.7604 51.3276 43.2225 48.699 46.1885C43.3613 52.1585 39.6253 59.4315 38.0638 67.1026C35.5087 79.4397 38.4444 92.6457 45.7251 103.14C56.018 118.01 74.1986 127.018 92.9149 125.97C95.621 125.825 98.5556 125.463 101.338 125.608Z" fill="#729BBF"/>
<path d="M87.2628 141.067C84.7067 131.066 83.1618 120.77 83.6437 110.489C84.1255 100.207 86.691 89.9204 91.9626 80.9274C93.2841 78.6734 95.439 76.2053 98.1121 76.6693C99.8813 76.9763 101.166 78.6134 101.383 80.3074C101.6 82.0014 100.923 83.7024 99.9413 85.1324C97.7688 88.2964 93.888 89.7814 90.0351 90.7214C83.2466 92.3774 75.606 92.4514 68.3501 89.9434C64.612 88.6514 60.8191 86.9974 58.8917 83.6944C58.02 82.2014 57.474 80.4584 57.8183 78.7834C58.1627 77.1083 59.5669 75.5623 61.3548 75.3763C64.0557 75.0953 66.0194 77.7044 67.1671 80.0424C71.7469 89.3704 73.5276 99.8065 73.2318 110.094C72.9361 120.381 70.6178 130.546 67.3129 140.348" stroke="#095DA4" stroke-width="4.123" stroke-miterlimit="10"/>
<path d="M88.6443 175.539C88.6443 175.576 88.6071 175.611 88.6071 175.648C87.9598 177.24 86.6641 178.577 85.1771 179.519C83.7274 180.424 82.0895 181.003 80.3729 181.038C78.6585 181.075 76.9058 180.531 75.6473 179.411C75.3423 179.121 75.0373 178.832 74.847 178.507C73.7416 177.131 73.3228 175.286 73.1698 173.549L88.2648 170.654C89.1417 172.103 89.2544 173.947 88.6443 175.539Z" fill="#F72F43"/>
<path d="M88.6443 175.538C86.7013 175.358 84.719 175.358 82.774 175.648C79.9542 176.008 77.1715 176.95 74.847 178.506C73.7416 177.13 73.3228 175.286 73.1698 173.549L88.2648 170.654C89.1417 172.103 89.2544 173.946 88.6443 175.538Z" fill="#E2212E"/>
<path d="M101.139 163.731C99.9785 166.554 97.4585 168.66 94.7348 170.287C93.8776 170.766 93.0214 171.198 92.1125 171.532C84.1451 175.409 74.5637 175.935 66.1434 172.871C63.4714 171.962 60.9515 170.67 59.2866 168.564C57.5701 166.412 56.9156 163.298 58.326 160.954C55.2508 158.273 54.3935 153.44 56.0583 149.752C56.5113 148.7 57.1689 147.646 58.0747 146.882C57.1172 146.162 56.26 145.398 55.654 144.585C54.8981 143.818 54.3449 142.956 53.9406 142.096C53.133 140.133 53.2126 135.676 55.7998 135.856C69.6323 136.821 83.0842 139.279 97.0583 135.633C99.1947 135.075 100.431 139.653 99.8285 141.759C99.4242 143.196 98.5163 144.536 97.2062 145.349C97.8608 145.59 98.416 145.924 98.9207 146.354C99.9795 147.265 100.735 148.556 100.937 149.993C101.09 150.806 101.037 151.619 100.786 152.386C100.483 153.487 99.8296 154.539 98.9724 155.306L98.7697 155.497C99.3239 155.784 99.8296 156.215 100.181 156.694C100.836 157.461 101.24 158.416 101.39 159.47C101.794 160.858 101.745 162.389 101.139 163.731Z" fill="#28B6F4"/>
<path d="M92.1373 171.55C84.1524 175.399 74.5575 175.949 66.1259 172.893C63.4849 171.977 60.9722 170.694 59.3001 168.554C57.5619 166.414 56.9177 163.3 58.3353 160.978C55.2415 158.289 54.406 153.461 56.0811 149.734C56.5309 148.693 57.1751 147.654 58.0779 146.86C57.11 146.189 56.2734 145.392 55.6323 144.598C54.9219 143.804 54.3429 142.947 53.9561 142.094C54.4721 142.58 54.9209 143.071 55.4369 143.56C59.0426 146.92 64.8995 148.447 69.7947 148.51C72.7562 148.57 75.7839 148.08 78.5499 147.042C79.5178 146.678 80.9955 146.371 81.4484 147.287C81.7689 147.839 81.4484 148.57 80.8703 148.937C80.3543 149.304 79.644 149.426 79.0028 149.489C73.206 150.283 67.4112 150.772 61.6174 151.076C60.2659 151.136 58.9144 151.199 57.7542 151.87C56.6602 152.544 55.9529 154.01 56.6602 155.111C57.2413 156.149 58.8513 156.454 59.1719 157.615C59.3632 158.594 58.4615 159.51 58.4615 160.548C58.4615 161.404 59.2339 162.199 60.0705 162.506C60.9732 162.81 61.938 162.75 62.8407 162.75C70.5019 162.32 78.1663 160.978 85.4408 158.716C86.0189 158.534 86.5979 158.349 87.1791 158.471C87.7571 158.593 88.3362 159.02 88.2731 159.572C88.2731 160.121 87.7581 160.488 87.3083 160.733C81.0616 164.278 73.2049 162.932 65.9966 163.911C64.5789 164.093 63.0351 164.523 62.4539 165.743C61.7467 167.334 63.2895 169.044 64.8364 169.96C69.6654 172.893 75.6536 173.627 81.3191 173.26C84.9879 173.015 88.5316 172.344 92.1373 171.55Z" fill="#095DA4"/>
<path d="M97.0604 145.353C97.6436 145.567 98.1369 145.864 98.5856 146.247C95.9385 146.673 88.087 148.265 90.6421 147.483C96.0895 145.816 95.2198 145.609 97.1938 144.161C97.6426 143.82 98.6756 142.67 99.3943 142.158C99.0344 143.437 98.2258 144.629 97.0604 145.353Z" fill="#095DA4"/>
<path d="M98.7697 155.497C99.3239 155.784 99.8296 156.215 100.181 156.694C98.3664 156.36 91.0164 158.654 94.5322 157.269C96.1174 156.645 97.5588 155.785 98.8193 154.731C99.6269 154.109 100.33 153.296 100.786 152.387C100.483 153.488 99.8296 154.539 98.9724 155.306L98.7697 155.497Z" fill="#095DA4"/>
<path d="M153.344 125.483L154.671 111.92C154.728 111.328 155.646 110.818 156.633 110.909C157.494 110.988 158.297 111.655 158.239 112.247L156.912 125.809C156.846 126.483 155.935 126.912 155.075 126.833C154.088 126.742 153.278 126.157 153.344 125.483Z" fill="#E2212E"/>
<path d="M154.235 116.413L154.688 111.782C154.746 111.189 155.663 110.679 156.65 110.77C157.511 110.849 158.313 111.516 158.255 112.109L158.083 113.877C157.387 114.66 156.572 115.353 155.525 115.938C155.127 116.155 154.739 116.289 154.235 116.413Z" fill="#F72F43"/>
<path d="M143.215 155.58L149.341 156.141C150.327 156.231 151.052 157.077 150.958 158.031L150.666 161.024C150.572 161.978 149.697 162.678 148.711 162.587L142.585 162.027C141.599 161.936 140.874 161.09 140.968 160.136L141.26 157.143C141.354 156.189 142.229 155.489 143.215 155.58Z" fill="#F72F43"/>
<path d="M142.234 124.465L143.561 110.903C143.619 110.31 144.536 109.801 145.524 109.891C146.384 109.97 147.187 110.637 147.129 111.23L145.802 124.791C145.737 125.466 144.826 125.894 143.965 125.815C142.978 125.724 142.168 125.14 142.234 124.465Z" fill="#E2212E"/>
<path d="M135.359 124.718C135.377 123.611 135.745 122.541 136.423 121.923C137.02 121.214 137.942 120.788 138.975 120.97L159.321 123.254C161.41 123.445 162.526 125.503 161.963 127.663L155.533 152.064C154.432 156.126 149.693 158.755 144.832 158.136C142.828 157.952 141.057 157.197 139.578 156.128C137.349 154.65 135.901 152.393 135.889 149.839L135.359 124.718Z" fill="#00C6C5"/>
<path d="M136.422 121.923C137.019 121.214 137.942 120.789 138.975 120.97L159.321 123.254C161.41 123.446 162.525 125.503 161.962 127.664L155.532 152.064C154.43 156.126 149.693 158.756 144.832 158.136C142.828 157.953 141.057 157.197 139.578 156.128C144.896 155.681 149.982 153.083 153.035 148.86C156.49 144.075 156.967 137.404 153.856 132.358C150.915 127.416 145.293 124.69 139.657 122.987C138.551 122.629 137.435 122.355 136.422 121.923Z" fill="#018E9A"/>
<path d="M143.126 115.397L143.579 110.766C143.637 110.174 144.554 109.664 145.542 109.754C146.402 109.834 147.204 110.501 147.146 111.093L146.974 112.861C146.278 113.644 145.463 114.338 144.416 114.922C144.018 115.139 143.63 115.273 143.126 115.397Z" fill="#F72F43"/>
<path d="M144.471 142.368C144.615 142.735 144.805 143.132 145.181 143.28C145.694 143.482 146.261 143.103 146.57 142.659C147.157 141.817 147.234 140.706 146.931 139.732C146.629 138.759 145.984 137.913 145.233 137.205C144.931 136.919 144.555 136.636 144.136 136.682C143.738 136.725 143.431 137.068 143.316 137.439C142.899 138.793 143.974 141.106 144.471 142.368Z" fill="#018E9A"/>
<path d="M145.327 134.17C145.416 134.395 145.533 134.64 145.763 134.731C146.079 134.855 146.43 134.622 146.619 134.349C146.98 133.831 147.027 133.148 146.841 132.549C146.656 131.95 146.259 131.431 145.797 130.996C145.611 130.82 145.379 130.646 145.121 130.673C144.876 130.7 144.689 130.911 144.618 131.14C144.361 131.972 145.022 133.394 145.327 134.17Z" fill="#018E9A"/>
<path d="M135.341 124.828L135.888 149.839" stroke="black" stroke-width="0.907014" stroke-linecap="round" stroke-linejoin="round"/>
<path d="M85.4853 24.5501C85.3405 24.5501 85.1927 24.5431 85.0458 24.5271C82.954 24.2991 81.4525 22.5041 81.6924 20.5201C82.3676 14.9361 82.7006 9.25205 82.682 3.62902C82.6768 1.63101 84.3778 0.00499919 86.4832 0C86.4873 0 86.4904 0 86.4945 0C88.5936 0 90.3009 1.61301 90.306 3.60802C90.3246 9.51205 89.9751 15.4791 89.2678 21.3431C89.0445 23.1891 87.3952 24.5501 85.4853 24.5501Z" fill="#FFD880"/>
<path d="M121.201 37.8381C120.206 37.8381 119.212 37.4701 118.463 36.7371C116.998 35.3021 117.037 33.0111 118.549 31.6211L129.111 21.9061C130.624 20.516 133.036 20.552 134.501 21.9871C135.966 23.4221 135.927 25.7131 134.415 27.1031L123.854 36.8181C123.113 37.4981 122.156 37.8381 121.201 37.8381Z" fill="#FFD880"/>
<path d="M141.446 71.6531C139.389 71.6531 137.693 70.0971 137.637 68.1341C137.58 66.1361 139.24 64.471 141.343 64.418L152.87 64.123C155.076 64.029 156.726 65.6441 156.782 67.6421C156.838 69.6401 155.178 71.3031 153.075 71.3561L141.551 71.6511C141.516 71.6531 141.481 71.6531 141.446 71.6531Z" fill="#FFD880"/>
<path d="M45.235 30.0893C43.837 30.0893 42.4917 29.3573 41.8237 28.0923L35.972 17.0142C35.0279 15.2282 35.789 13.0532 37.6709 12.1572C39.556 11.2632 41.8423 11.9842 42.7874 13.7702L48.6391 24.8492C49.5832 26.6373 48.8221 28.8093 46.9401 29.7053C46.3911 29.9653 45.8079 30.0893 45.235 30.0893Z" fill="#FFD880"/>
<path d="M18.9247 59.5825C18.4077 59.5825 17.8824 59.4815 17.3798 59.2695C12.6377 57.2715 7.7094 55.5484 2.73253 54.1514C0.713032 53.5844 -0.439931 51.5724 0.157747 49.6554C0.757496 47.7384 2.87936 46.6464 4.89472 47.2114C10.188 48.6994 15.4296 50.5304 20.4737 52.6554C22.398 53.4664 23.2646 55.6034 22.4104 57.4305C21.7797 58.7805 20.3858 59.5825 18.9247 59.5825Z" fill="#FFD880"/>
<path d="M6.34134 95.3566C4.91229 95.3566 3.54011 94.5906 2.89073 93.2796C1.99317 91.4706 2.81317 89.3145 4.71686 88.4645C8.4932 86.7775 12.4495 85.3985 16.4791 84.3595C18.5214 83.8415 20.606 84.9785 21.1572 86.9045C21.7083 88.8315 20.5078 90.8195 18.4749 91.3446C14.8753 92.2706 11.3368 93.5056 7.96273 95.0126C7.43743 95.2476 6.88525 95.3566 6.34134 95.3566Z" fill="#FFD880"/>
<path d="M150.714 103.477C150.102 103.477 149.482 103.337 148.905 103.042C145.283 101.183 141.475 99.5639 137.591 98.2299C135.611 97.5499 134.587 95.4738 135.304 93.5958C136.022 91.7158 138.212 90.7478 140.185 91.4248C144.423 92.8828 148.576 94.6468 152.531 96.6748C154.383 97.6249 155.071 99.8199 154.072 101.58C153.381 102.79 152.069 103.477 150.714 103.477Z" fill="#FFD880"/>
</svg>
