<svg width="180" height="217" viewBox="0 0 180 217" fill="none" xmlns="http://www.w3.org/2000/svg">
<path d="M113.412 79.5586C113.983 80.5208 114.554 81.4831 114.981 82.5803C113.468 83.1603 113.195 84.2256 113.044 85.5138C112.462 90.4474 114.174 94.9107 115.789 99.3953C117.181 103.262 118.643 107.103 120.054 110.962C122.237 116.928 124.393 122.903 126.579 128.867C127.973 132.67 129.424 136.452 130.808 140.258C132.975 146.213 135.072 152.194 137.265 158.139C139.238 163.491 141.238 168.835 143.349 174.134C144.463 176.93 145.84 179.622 147.005 182.459C146.092 182.799 145.283 183.161 144.446 183.249C143.488 183.35 142.503 183.207 141.53 183.17C140.769 181.255 139.989 179.346 139.256 177.42C138.944 176.599 138.751 175.735 138.471 174.901C137.193 171.093 135.961 167.267 134.59 163.492C133.964 161.765 133.029 160.151 132.287 158.462C131.997 157.8 131.864 157.071 131.641 156.378C131.017 154.442 130.41 152.501 129.745 150.579C129.203 149.011 128.578 147.472 128.006 145.914C127.305 144.006 126.846 141.966 125.865 140.215C124.961 138.603 125.365 136.487 123.638 135.19C123.097 134.783 123.037 133.71 122.807 132.927C122.091 130.492 121.476 128.025 120.679 125.617C119.715 122.702 118.664 119.812 117.54 116.955C116.591 114.544 115.371 112.236 114.476 109.807C113.529 107.234 112.878 104.554 111.993 101.956C111.392 100.191 110.61 98.4874 109.583 96.7907C109.583 99.0342 109.583 101.278 109.435 103.701C109.05 104.113 108.666 104.309 108.601 104.582C108.032 106.963 107.328 109.334 107.029 111.753C106.375 117.041 105.737 122.345 105.465 127.661C105.204 132.776 105.403 137.916 105.425 143.045C105.428 143.785 105.568 144.525 105.644 145.266C106.037 149.087 106.429 152.908 106.666 156.781C104.751 156.702 102.991 156.571 101.231 156.441C101.233 149.764 101.782 143.031 101.111 136.422C100.064 126.117 100.948 115.832 100.515 105.552C100.451 104.037 100.066 102.536 99.9123 100.786C100.701 99.6443 101.466 98.7845 102.106 97.8409C103.903 95.1894 105.697 92.5322 107.375 89.8055C107.69 89.2933 107.587 88.4248 107.457 87.7633C107.187 86.3822 106.77 85.0296 106.413 83.6653C107.56 82.6158 108.708 81.5664 110.093 80.5389C110.545 80.3608 110.759 80.1607 110.973 79.9605C111.459 79.8071 111.944 79.6536 112.594 79.5854C112.976 79.6333 113.194 79.5959 113.412 79.5586Z" fill="#A6C1DD"/>
<path d="M85.2596 33.2174C89.679 31.6959 94.2336 30.4718 98.4758 28.5602C101.968 26.9868 105.722 26.2892 109.156 24.7477C112.015 23.4641 115.109 22.9122 117.896 21.6423C121.358 20.0644 125.144 19.4244 128.484 17.7736C130.399 16.8271 132.578 16.7599 134.486 15.5996C134.66 15.6846 134.745 15.8329 134.713 15.9682C134.474 18.9909 134.267 21.8785 133.944 24.8385C133.643 25.3904 133.421 25.8592 133.277 26.3509C132.288 29.7458 130.452 32.6723 127.884 35.0338C123.037 39.49 117.292 42.3981 110.844 43.7195C102.878 45.3523 95.3816 44.3162 89.0866 38.7357C87.4254 37.263 85.5101 35.7552 85.2596 33.2174ZM108.785 33.7522C108.096 33.7274 107.407 33.7026 106.718 33.6778C106.769 34.4335 106.643 35.2625 106.921 35.9241C107.19 36.5678 107.799 37.1507 108.401 37.5474C108.784 37.8001 109.637 37.8918 109.898 37.6489C110.261 37.312 110.526 36.5008 110.367 36.0584C110.088 35.2798 109.456 34.6267 108.785 33.7522ZM115.249 35.7915C114.73 35.5722 114.211 35.3529 113.692 35.1336C113.699 35.4873 113.565 35.9505 113.741 36.1716C114.096 36.6205 114.618 36.9385 115.072 37.3105C115.179 36.8798 115.287 36.4491 115.249 35.7915Z" fill="#27B3F1"/>
<path d="M140.171 11.0558C141.287 9.85326 142.861 9.69912 144.312 9.26366C145.878 8.794 147.745 8.69443 148.923 7.74639C150.144 6.76396 151.437 6.56534 152.751 6.14643C154.242 5.67146 155.766 5.28619 157.227 4.73385C158.823 4.13039 160.353 3.35688 161.933 2.7078C162.435 2.50147 163.004 2.45619 163.811 2.36523C164.274 2.89012 164.648 3.39426 164.628 3.88248C164.568 5.36795 164.247 6.84554 164.223 8.32934C164.159 12.2507 164.201 16.1737 164.194 20.0961C164.193 20.614 164.247 21.1577 164.114 21.6457C163.186 25.0532 161.786 28.283 159.485 30.9694C156.718 34.1995 153.683 37.0734 148.836 36.6592C145.703 36.3913 141.937 33.3064 141.74 30.3268C141.464 26.1553 141.455 21.9662 141.183 17.7943C141.066 15.9852 140.578 14.2 140.226 12.2715C140.187 11.778 140.179 11.4169 140.171 11.0558ZM152.8 20.5079C152.1 20.1817 151.401 19.8554 150.701 19.5291C150.615 20.3349 150.19 21.3365 150.52 21.9008C151.026 22.7662 152.051 23.3306 152.856 24.0227C152.887 22.9261 152.918 21.8295 152.8 20.5079ZM155.676 25.1477C156.13 25.9244 156.487 26.9927 157.675 26.2747C157.889 26.1454 157.8 25.1772 157.568 24.7494C157.301 24.2597 156.718 23.9408 156.273 23.5478C156.045 23.9975 155.817 24.4473 155.676 25.1477Z" fill="#CDDAED"/>
<path d="M85.1204 33.1937C85.5101 35.7554 87.4254 37.2632 89.0867 38.7359C95.3817 44.3163 102.878 45.3525 110.844 43.7197C117.292 42.3983 123.037 39.4902 127.884 35.034C130.452 32.6725 132.288 29.746 133.277 26.3511C133.421 25.8594 133.643 25.3906 134.032 24.9434C134.411 25.5197 134.67 26.0519 134.751 26.6098C135.419 31.2004 137.234 35.3155 139.863 39.2224C139.988 40.0795 138.602 41.2653 140.479 41.4762C139.429 42.0457 138.436 42.795 137.316 43.1488C134.64 43.9949 131.878 44.5729 129.199 45.4123C126.388 46.2929 123.641 47.371 120.849 48.3149C120.377 48.4747 119.822 48.393 119.03 48.4165C118.078 47.0919 117.401 45.7739 116.73 44.4675C114.031 45.2268 111.339 45.9708 108.655 46.7415C104.731 47.8683 100.815 49.0229 96.8903 50.1464C95.8585 50.4417 95.529 50.9352 95.8775 52.0443C96.2847 53.3407 96.4422 54.7149 96.708 56.0553C95.4808 56.4959 94.2136 56.8506 93.0351 57.3955C90.7928 58.4321 87.9816 57.3344 86.654 54.6885C85.8861 53.1582 85.1862 51.5728 84.6661 49.9455C83.798 47.2295 83.0974 44.4604 82.3293 41.7128C82.2067 41.274 82.0994 40.831 81.8987 40.1759C81.8784 39.8533 81.9445 39.7448 82.0105 39.6362C80.9982 37.8764 81.6137 36.0456 82.1821 34.428C82.4151 33.7647 84.0072 33.5749 85.1204 33.1937Z" fill="#0B5EA4"/>
<path d="M54.927 174.853C56.0104 172.553 56.3946 169.985 57.9205 167.827C58.7268 166.686 58.9646 165.154 59.4982 163.814C60.3732 161.617 61.2787 159.431 62.1742 157.242C62.7858 155.747 63.4128 154.258 64.0139 152.759C64.6386 151.201 65.2065 149.62 65.862 148.076C66.4873 146.602 67.2205 145.174 67.8566 143.705C68.5665 142.065 69.2238 140.403 69.8977 138.748C70.843 136.426 71.7539 134.091 72.7344 131.784C73.408 130.199 74.3185 128.702 74.8635 127.079C75.53 125.094 76.4689 123.236 77.2356 121.301C77.8567 119.734 78.5103 118.179 79.1585 116.622C79.7876 115.111 80.4319 113.607 81.0627 112.096C81.7199 110.523 82.3628 108.944 83.0241 107.373C83.3992 106.481 83.8235 105.61 84.182 104.712C84.8259 103.099 85.405 101.461 86.0712 99.8575C86.6753 98.4038 87.3814 96.9924 88.0026 95.5453C88.7102 93.8968 89.3968 92.2383 90.0494 90.5675C90.6753 88.9654 91.2079 87.3263 91.8628 85.7367C92.0729 85.2267 92.542 84.8224 93.0388 84.2598C93.4935 84.6015 93.9231 85.0128 94.0913 85.5115C95.2874 89.0591 94.8564 92.6964 93.6834 96.0317C91.4115 102.491 88.7144 108.806 86.0836 115.135C83.8893 120.415 81.5504 125.635 79.253 130.871C75.7345 138.891 72.2007 146.905 68.6657 154.918C65.34 162.456 62.0043 169.99 58.5429 177.517C57.134 176.775 55.3533 176.696 54.927 174.853Z" fill="#CDDAED"/>
<path d="M147.097 182.361C145.84 179.623 144.463 176.931 143.349 174.135C141.238 168.836 139.238 163.492 137.265 158.14C135.072 152.195 132.975 146.214 130.808 140.259C129.424 136.453 127.973 132.671 126.579 128.868C124.393 122.904 122.237 116.929 120.054 110.963C118.643 107.104 117.181 103.263 115.789 99.3963C114.174 94.9117 112.462 90.4484 113.044 85.5148C113.195 84.2266 113.468 83.1612 114.964 82.7148C115.878 84.6218 115.801 86.8477 117.483 88.4573C117.957 88.9106 117.764 89.948 118.146 90.7886C119.201 93.1063 119.276 95.8998 120.474 98.1103C121.718 100.408 122.147 102.918 123.212 105.239C124.347 107.714 124.983 110.412 125.948 112.972C126.621 114.755 127.551 116.442 128.236 118.221C128.833 119.772 129.187 121.414 129.766 122.973C130.202 124.149 130.861 125.241 131.349 126.4C131.677 127.178 131.886 128.006 132.134 128.815C132.851 131.148 133.494 133.507 134.295 135.811C134.938 137.661 135.784 139.439 136.508 141.262C136.771 141.924 136.918 142.631 137.153 143.305C137.808 145.182 138.423 147.075 139.16 148.92C140.115 151.312 141.235 153.639 142.162 156.041C142.773 157.621 143.195 159.275 143.647 160.911C143.816 161.521 144.811 163.397 145.239 164.222C145.666 165.044 145.802 166.014 146.077 166.917C146.78 169.221 147.409 171.553 148.222 173.819C148.886 175.669 149.808 177.427 150.54 179.256C150.722 179.709 150.613 180.278 150.57 181.036C149.367 181.639 148.232 182 147.097 182.361Z" fill="#CDDAED"/>
<path d="M58.6729 177.526C62.0043 169.989 65.34 162.455 68.6657 154.917C72.2007 146.904 75.7345 138.891 79.253 130.871C81.5504 125.634 83.8893 120.414 86.0837 115.134C88.7144 108.805 91.4115 102.49 93.6834 96.0309C94.8564 92.6956 95.2874 89.0583 94.0913 85.5107C93.9231 85.012 93.4935 84.6007 93.0645 84.1265C93.609 82.5338 94.2339 80.9443 94.975 79.4106C95.1119 79.1273 95.7841 78.8493 96.0983 78.942C98.6022 79.6808 100.783 80.883 101.894 83.6939C101.224 86.5435 100.529 89.1454 99.8332 91.7473C99.0203 93.9687 98.2661 96.2137 97.3733 98.4027C96.8052 99.7955 96.0188 101.099 95.3547 102.454C94.9801 103.219 94.6339 103.999 94.3121 104.787C93.6422 106.429 92.9766 108.072 92.3469 109.729C91.4633 112.054 90.6346 114.399 89.7377 116.719C89.4584 117.442 88.9822 118.087 88.6866 118.805C87.9688 120.547 87.3449 122.329 86.6057 124.062C85.9749 125.541 85.2365 126.974 84.5449 128.427C84.1987 129.154 83.8169 129.867 83.51 130.611C82.5455 132.948 81.6028 135.294 80.6633 137.64C79.7424 139.941 78.8754 142.263 77.9125 144.546C76.7909 147.205 75.5551 149.817 74.4386 152.478C73.7906 154.022 73.3293 155.644 72.693 157.194C72.0682 158.715 71.3227 160.187 70.641 161.686C70.2857 162.467 69.9373 163.253 69.6145 164.048C68.7129 166.268 67.8506 168.505 66.9269 170.717C65.9845 172.973 64.9811 175.204 64.0186 177.452C63.7565 178.064 63.5459 178.698 63.1639 179.489C61.5684 178.946 60.1207 178.236 58.6729 177.526Z" fill="#A6C1DD"/>
<path d="M140.258 12.4043C140.578 14.2003 141.066 15.9855 141.183 17.7947C141.455 21.9666 141.464 26.1556 141.74 30.3272C141.937 33.3068 145.703 36.3917 148.836 36.6595C153.683 37.0738 156.718 34.1999 159.485 30.9698C161.786 28.2834 163.186 25.0536 164.114 21.646C164.247 21.158 164.193 20.6144 164.194 20.0964C164.201 16.1741 164.159 12.2511 164.223 8.32969C164.247 6.84589 164.568 5.36831 164.628 3.88284C164.648 3.39461 164.274 2.89048 163.955 2.36455C164.427 2.10249 165.023 1.86952 165.856 1.67969C165.958 3.06936 165.526 4.46576 165.745 5.75284C166.347 9.30456 167.148 12.8283 168.005 16.3304C169.209 21.2475 170.815 26.0167 173.886 30.155C174.513 30.9995 174.303 31.4298 173.3 31.7672C170.647 32.6592 168.028 33.6525 165.391 34.5926C162.164 35.7432 158.927 36.8652 155.705 38.0285C153.236 38.9196 150.784 39.8556 148.212 40.7175C146.731 39.3199 145.361 37.9766 143.984 36.5122C139.058 29.4025 138.905 21.5607 139.866 13.5253C139.912 13.1416 140.123 12.7775 140.258 12.4043Z" fill="#A6C1DD"/>
<path d="M52.7891 47.7223C52.913 47.4962 52.9968 47.1111 53.167 47.0685C55.1763 46.5663 57.1985 46.1153 59.352 45.8142C59.8159 46.1939 60.1866 46.6362 60.4667 46.5851C61.413 46.4129 62.3296 46.0733 63.2531 45.7837C66.2878 44.8321 69.3175 43.8646 72.3551 42.9225C74.4183 42.2825 76.4808 41.635 78.5668 41.0774C79.1765 40.9144 80.1747 40.7924 80.4414 41.111C80.7785 41.5136 80.7456 42.4587 80.5279 43.0425C79.8714 44.8028 79.0896 46.5211 78.2807 48.2199C76.8835 51.1545 75.5896 51.767 72.3341 51.2771C71.1864 51.1044 69.9348 50.9271 69.4707 52.6072C68.1878 54.03 67.0092 55.3949 65.6833 56.7464C62.7947 57.6358 60.0012 57.9176 57.3602 56.6133C55.8006 55.8431 54.4635 54.6261 52.9819 53.4521C52.888 51.4369 52.8386 49.5796 52.7891 47.7223Z" fill="#CDDAED"/>
<path d="M116.598 60.8359C117.138 61.1759 117.678 61.5158 118.273 61.89C118.273 66.6483 118.294 71.4809 118.239 76.3127C118.234 76.7925 117.76 77.267 117.267 77.7154C112.467 77.645 107.903 77.5659 103.34 77.5863C102.142 77.5916 101.464 77.2669 101.453 75.8628C101.508 71.6438 101.534 67.5775 101.674 63.5695C103.446 64.3615 105.038 65.437 106.771 65.7622C111.185 66.5902 114.262 64.3455 116.598 60.8359Z" fill="#CDDAED"/>
<path d="M106.822 156.728C106.429 152.907 106.037 149.086 105.644 145.265C105.568 144.525 105.428 143.785 105.425 143.044C105.403 137.915 105.204 132.776 105.465 127.66C105.737 122.344 106.375 117.04 107.029 111.752C107.328 109.333 108.032 106.962 108.601 104.581C108.666 104.309 109.05 104.113 109.407 103.861C109.546 108.032 109.565 112.221 109.572 116.731C109.506 120.676 109.414 124.302 109.409 127.928C109.406 130.363 109.466 132.801 109.608 135.231C109.772 138.063 110.056 140.888 110.29 143.717C110.384 144.851 110.484 145.984 110.581 147.118C110.821 149.216 111.103 151.311 111.285 153.415C111.364 154.335 111.242 155.273 111.121 156.367C109.628 156.597 108.225 156.662 106.822 156.728Z" fill="#CDDAED"/>
<path d="M43.1501 42.0938C44.2273 42.5395 44.8298 43.1383 44.9448 44.4956C45.1044 46.3795 45.8212 48.2101 46.1751 50.0867C46.3531 51.0304 46.2567 52.0255 46.2932 53.2244C46.3019 53.4515 46.2192 53.5944 46.0983 53.6329C45.5432 54.7528 44.7786 55.1988 43.5936 55.0196C41.8984 54.7632 40.1661 54.6965 38.497 54.3328C33.8758 53.3259 30.0915 50.7794 26.58 47.7344C25.7328 46.9997 25.9075 46.4384 26.6281 45.7292C27.349 45.6634 27.9268 45.6163 28.5754 45.6573C28.9608 45.5941 29.2752 45.4427 29.7288 45.2764C30.4219 45.2153 30.9761 45.1692 31.6581 45.1658C32.212 44.9934 32.6379 44.7784 33.2055 44.5512C35.4782 44.0771 37.6175 43.6491 39.7371 43.1399C40.8921 42.8624 42.0136 42.447 43.1501 42.0938Z" fill="#CDDAED"/>
<path d="M148.324 40.7721C150.784 39.856 153.236 38.9201 155.705 38.0289C158.927 36.8656 162.164 35.7436 165.391 34.5931C168.028 33.653 170.647 32.6596 173.3 31.7676C174.303 31.4302 174.513 31 173.886 30.1555C170.815 26.0172 169.209 21.2479 168.005 16.3308C167.148 12.8287 166.347 9.30499 165.745 5.75327C165.526 4.46619 165.958 3.06979 165.986 1.64791C166.812 1.03233 167.724 0.446338 168.701 0.00417471C168.838 -0.0578888 169.297 0.58449 169.554 1.10291C169.254 1.59485 168.772 1.90521 168.795 2.17121C168.964 4.0704 169.235 5.96054 169.468 7.97951C169.508 8.59859 169.553 9.0917 169.558 9.69821C170.291 12.8941 170.897 16.03 171.877 19.0457C173.131 22.9032 174.586 26.7195 177.313 29.8565C177.679 30.2767 178.319 30.4596 178.832 30.7524C177.527 31.1571 176.206 31.5153 174.921 31.9754C171.55 33.1824 168.208 34.4662 164.833 35.6601C159.449 37.5649 154.048 39.4217 148.496 41.2142C148.334 41.0105 148.329 40.8913 148.324 40.7721Z" fill="#7598B8"/>
<path d="M147.005 182.458C148.232 181.998 149.367 181.637 150.591 181.183C151.552 180.74 152.397 180.226 153.302 180.082C154.545 179.883 156.584 181.448 156.871 182.652C157.358 184.688 157.812 186.731 158.266 188.774C158.314 188.992 158.272 189.231 158.104 189.604C156.83 189.98 155.734 190.326 154.615 190.421C151.375 190.697 148.154 190.467 145.21 188.988C142.974 187.865 140.671 186.711 139.501 184.262C140.106 183.928 140.71 183.594 141.422 183.215C142.503 183.207 143.488 183.35 144.446 183.249C145.283 183.161 146.092 182.798 147.005 182.458Z" fill="#F62F44"/>
<path d="M58.5429 177.517C60.1207 178.236 61.5684 178.946 63.1455 179.624C64.1928 180.094 65.1445 180.544 66.02 181.111C67.0959 181.808 67.1724 184.04 66.2153 185.564C65.3164 186.996 64.3613 188.393 63.4926 189.842C63.1999 190.331 63.0962 190.931 62.7481 191.384C62.0433 190.816 61.5485 190.262 60.942 189.887C55.0911 186.27 52.2157 181.153 52.8847 174.219C53.4768 174.432 54.0689 174.646 54.794 174.856C55.3533 176.696 57.134 176.775 58.5429 177.517Z" fill="#F62F44"/>
<path d="M52.7434 174.193C52.2157 181.153 55.0911 186.27 60.942 189.887C61.5485 190.262 62.0433 190.816 62.6119 191.412C62.2656 192.871 60.1632 193.794 58.9277 193.087C55.9857 191.402 53.1245 189.57 50.1314 187.984C48.6312 187.189 46.9106 186.706 45.9678 185.224C45.5909 184.632 45.4972 183.527 45.7953 182.902C46.8861 180.614 48.0506 178.329 49.4883 176.25C50.1538 175.287 50.8974 173.849 52.7434 174.193Z" fill="#E52230"/>
<path d="M139.362 184.244C140.671 186.713 142.974 187.866 145.21 188.989C148.154 190.468 151.375 190.698 154.615 190.423C155.734 190.328 156.83 189.981 158.081 189.747C158.225 190.83 158.225 191.915 158.225 193.102C156.935 193.377 155.454 193.326 154.439 193.986C152.487 195.255 150.343 195.314 148.216 195.714C146.599 196.019 145.056 196.802 143.437 196.977C141.319 197.206 140.099 195.756 139.795 193.606C139.567 191.991 139.011 190.413 138.505 188.85C138.188 187.871 138.563 184.891 139.362 184.244Z" fill="#E52230"/>
<path d="M26.4849 45.7478C25.9075 46.4382 25.7328 46.9996 26.58 47.7342C30.0915 50.7792 33.8759 53.3257 38.497 54.3326C40.1661 54.6963 41.8984 54.763 43.5936 55.0194C44.7786 55.1987 45.5432 54.7526 46.1355 53.7731C46.6265 55.0393 46.9594 56.2036 47.2737 57.501C47.5055 58.2422 47.756 58.8503 48.0064 59.4584C48.2391 60.431 48.5252 61.3946 48.6925 62.3782C48.9691 64.0051 47.9806 64.5506 46.4037 64.5399C45.7789 63.9876 45.368 63.5008 44.8583 63.1612C38.1714 58.7057 31.4701 54.2719 24.7737 49.8306C22.493 48.3181 22.4628 48.1645 23.9412 46.0328C24.0025 45.9444 24.0001 45.8122 24.0274 45.7004C24.1719 45.6833 24.3164 45.6663 24.72 45.6504C25.481 45.6836 25.983 45.7157 26.4849 45.7478Z" fill="#A6C1DD"/>
<path d="M140.226 12.2718C140.123 12.7774 139.912 13.1415 139.866 13.5252C138.905 21.5606 139.058 29.4024 143.865 36.4943C143.245 36.2426 142.691 35.9371 142.236 35.5237C140.801 34.2207 139.083 33.0852 138.052 31.5098C135.138 27.0553 134.708 21.9821 135.037 16.8023C135.057 16.4861 134.847 16.1555 134.745 15.8316C134.745 15.8316 134.66 15.6833 134.624 15.6062C134.978 13.4912 136.296 12.1279 138.227 11.6708C138.806 11.5336 139.347 11.2325 140.038 11.0312C140.179 11.4171 140.187 11.7783 140.226 12.2718Z" fill="#F62F44"/>
<path d="M101.424 76.0155C101.464 77.2669 102.141 77.5916 103.34 77.5863C107.903 77.5659 112.467 77.645 117.142 77.7795C116.179 78.2528 115.102 78.6281 114.03 79.0189C113.827 79.0931 113.646 79.2286 113.433 79.4474C113.194 79.5963 112.976 79.6337 112.723 79.5784C112.867 78.3293 112.098 78.3599 111.306 78.3634C107.438 78.3809 103.569 78.3841 99.7003 78.3915C99.2961 78.3923 98.8917 78.3941 98.4877 78.3851C95.2575 78.3134 94.9755 78.0316 94.9765 74.8773C94.9773 72.2894 94.9805 69.7015 95.1139 66.9338C95.7719 66.3503 96.2987 65.9466 96.8255 65.543C97.7527 64.8139 98.6799 64.0848 99.8277 63.3122C100.335 63.136 100.622 63.0034 100.953 62.8965C100.998 62.9222 101.093 62.9655 101.052 63.1221C100.978 67.1936 100.933 71.1085 100.936 75.0233C100.936 75.3541 101.254 75.6848 101.424 76.0155Z" fill="#7598B8"/>
<path d="M96.7115 56.1971C96.4422 54.7142 96.2847 53.34 95.8774 52.0436C95.529 50.9345 95.8585 50.441 96.8903 50.1457C100.815 49.0222 104.731 47.8676 108.655 46.7408C111.339 45.9701 114.03 45.2261 116.73 44.4668C117.401 45.7732 118.078 47.0912 118.885 48.4358C119.182 49.3743 119.349 50.2862 119.543 51.3465C118.676 51.6214 117.734 51.9202 116.525 52.2233C115.669 51.8208 115.028 51.472 114.501 50.9973C112.196 48.9205 109.535 47.7332 106.454 48.5073C103.399 49.2748 100.842 50.8617 99.9121 54.3006C99.4915 55.3738 99.1792 56.388 98.867 57.4022C97.7998 57.7507 96.5744 58.4169 96.7115 56.1971Z" fill="#19365E"/>
<path d="M100.021 54.2419C100.842 50.8621 103.399 49.2752 106.454 48.5076C109.535 47.7335 112.196 48.9209 114.501 50.9977C115.028 51.4724 115.669 51.8212 116.384 52.2265C117.847 53.8836 117.613 55.838 117.412 57.9205C116.672 58.26 116.066 58.397 115.496 58.6229C114.547 58.9991 113.62 59.4324 112.699 59.6957C112.792 59.3341 112.873 59.1197 112.946 58.9026C113.653 56.7834 112.969 54.1618 111.394 52.9509C109.659 51.6171 106.925 51.6032 105.072 52.8753C103.334 54.068 103.195 55.9202 102.851 57.7189C101.832 56.5425 100.926 55.3922 100.021 54.2419Z" fill="#27B3F1"/>
<path d="M69.5749 52.5495C69.9348 50.9274 71.1864 51.1047 72.3341 51.2774C75.5896 51.7674 76.8835 51.1548 78.2807 48.2202C79.0896 46.5214 79.8714 44.8032 80.5279 43.0428C80.7456 42.4591 80.7785 41.5139 80.4414 41.1113C80.1747 40.7927 79.1765 40.9148 78.5668 41.0777C76.4808 41.6353 74.4183 42.2829 72.3551 42.9228C69.3175 43.865 66.2878 44.8325 63.2531 45.7841C62.3296 46.0736 61.413 46.4132 60.4667 46.5855C60.1866 46.6365 59.8159 46.1942 59.4875 45.8511C61.864 45.1401 64.2486 44.5887 66.6125 43.9604C68.1696 43.5465 69.7056 43.0468 71.2298 42.524C71.4983 42.4319 71.6621 42.0369 71.7234 41.9631C71.8035 41.9697 72.2029 42.1108 72.5291 42.0121C74.9927 41.2661 77.4351 40.4504 79.9006 39.7115C80.4833 39.5368 81.129 39.5706 81.8781 39.5716C81.9444 39.7433 81.8784 39.8518 81.8492 40.0207C81.8741 42.8675 81.8362 45.6542 81.8639 48.4403C81.8741 49.467 82 50.4977 82.1443 51.5166C82.2827 52.4944 82.5133 53.4592 82.7213 54.521C81.5975 54.7688 80.1505 55.0879 78.5118 55.4649C78.1395 55.4587 77.9588 55.3946 77.7766 55.2145C77.625 54.8041 77.5302 54.46 77.316 54.2229C75.1446 51.8196 72.3848 52.0589 69.5749 52.5495Z" fill="#A6C1DD"/>
<path d="M99.9122 54.3008C100.926 55.392 101.832 56.5423 102.871 57.8481C103.424 60.2758 104.933 61.6617 107.032 62.1666C109.345 62.7232 111.263 61.7381 112.684 59.8414C113.62 59.4322 114.547 58.9989 115.496 58.6227C116.066 58.3968 116.672 58.2598 117.398 58.0776C117.325 58.9438 118.352 60.1774 116.686 60.7426C114.262 64.3455 111.185 66.5902 106.771 65.7622C105.038 65.437 103.446 64.3615 101.637 63.5007C101.355 63.2376 101.224 63.1016 101.093 62.9655C101.093 62.9655 100.998 62.9223 100.931 62.8069C100.842 62.6337 100.82 62.576 100.798 62.5182C99.278 61.2614 98.7451 59.6021 98.8409 57.5497C99.1792 56.3882 99.4915 55.374 99.9122 54.3008Z" fill="#0B5EA4"/>
<path d="M99.8293 91.907C100.529 89.1451 101.224 86.5432 101.947 83.7953C102.726 82.568 103.477 81.4868 104.3 80.3027C104.932 81.3861 105.568 82.475 106.308 83.6143C106.77 85.0288 107.187 86.3814 107.457 87.7625C107.587 88.424 107.69 89.2925 107.375 89.8047C105.697 92.5314 103.903 95.1886 102.106 97.8401C101.466 98.7836 100.701 99.6435 99.9255 100.637C99.8464 97.8436 99.836 94.9553 99.8293 91.907Z" fill="#7598B8"/>
<path d="M178.947 30.7166C178.319 30.4595 177.679 30.2766 177.313 29.8564C174.586 26.7194 173.131 22.9031 171.877 19.0455C170.897 16.0299 170.291 12.894 169.68 9.76278C170.058 10.1644 170.415 10.5989 170.468 11.0679C170.742 13.4476 171.549 15.6135 172.879 17.5991C174.572 20.1269 176.258 22.659 177.947 25.1893C178.573 21.025 173.373 3.78515 169.758 1.96754C169.679 2.87832 169.581 3.67247 169.546 4.46936C169.497 5.59633 169.495 6.72531 169.473 7.85343C169.235 5.96041 168.964 4.07027 168.795 2.17108C168.772 1.90509 169.254 1.59472 169.59 1.23047C170.886 2.61875 172.549 3.90213 173.215 5.57826C175.108 10.3351 176.696 15.221 178.196 20.1194C178.974 22.6616 179.233 25.3573 179.884 27.9444C180.18 29.1245 179.924 29.9429 178.947 30.7166Z" fill="#A6C1DD"/>
<path d="M134.713 15.9668C134.847 16.1554 135.057 16.4861 135.037 16.8022C134.708 21.982 135.138 27.0553 138.052 31.5097C139.083 33.0852 140.801 34.2206 142.236 35.5237C142.691 35.937 143.245 36.2426 143.873 36.6152C145.361 37.9764 146.731 39.3197 148.212 40.7173C148.329 40.8907 148.334 41.0099 148.355 41.1894C148.016 41.5234 147.621 41.7598 147.31 42.0769C145.61 43.8073 143.321 43.605 141.822 41.3937C141.103 40.5011 140.494 39.7961 139.886 39.0912C137.234 35.3139 135.419 31.1989 134.751 26.6082C134.67 26.0503 134.411 25.5181 134.147 24.8693C134.267 21.8771 134.474 18.9896 134.713 15.9668Z" fill="#E52230"/>
<path d="M106.666 156.78C108.225 156.663 109.628 156.597 111.173 156.487C112.87 156.438 113.436 157.24 113.433 158.748C113.429 160.431 113.621 162.115 113.624 163.905C113.153 164.139 112.735 164.451 112.427 164.366C110.601 163.864 108.746 163.401 107.004 162.679C103.978 161.423 101.272 159.706 99.8487 156.552C100.218 156.53 100.587 156.508 101.094 156.463C102.991 156.571 104.751 156.702 106.666 156.78Z" fill="#F62F44"/>
<path d="M99.7139 156.529C101.272 159.706 103.978 161.423 107.004 162.678C108.746 163.401 110.601 163.864 112.427 164.366C112.735 164.45 113.153 164.139 113.614 164.049C113.573 164.742 113.437 165.396 113.271 166.193C109.085 166.193 104.878 166.256 100.675 166.149C99.6464 166.122 98.7146 165.518 98.7785 164.138C98.8448 162.704 99.2974 160.959 98.6588 159.903C97.8043 158.49 98.9813 157.787 98.9992 156.76C99.0007 156.673 99.3769 156.591 99.7139 156.529Z" fill="#E52230"/>
<path d="M69.4707 52.6079C72.3848 52.0593 75.1446 51.8199 77.3161 54.2233C77.5303 54.4603 77.625 54.8045 77.6671 55.1909C77.2785 55.1039 76.9641 54.9615 76.7225 54.7403C73.9086 52.1636 70.6987 52.2274 68.0473 54.9267C66.0944 56.9148 66.4055 58.4293 69.0722 59.7793C70.6311 62.9756 73.3162 63.2635 75.584 60.5494C76.3541 60.3245 76.971 60.0185 77.6228 59.8947C78.1682 59.791 78.7543 59.9003 79.3223 59.9153C79.2541 62.3556 76.3938 65.399 74.1577 65.4049C73.4094 65.4069 72.661 65.384 71.9127 65.389C68.0583 65.415 65.7662 63.1882 65.6678 59.0985C65.6978 58.1509 65.7642 57.4556 65.8306 56.7604C67.0092 55.3956 68.1879 54.0307 69.4707 52.6079Z" fill="#0B5EA4"/>
<path d="M23.8832 45.6699C24.0001 45.8123 24.0026 45.9445 23.9413 46.0329C22.4628 48.1646 22.4931 48.3182 24.7737 49.8308C31.4701 54.272 38.1715 58.7058 44.8583 63.1613C45.3681 63.501 45.779 63.9878 46.2608 64.5214C43.6798 65.2272 42.2681 63.0509 40.452 61.9829C36.1531 59.4547 31.9827 56.7 27.8488 53.907C25.1344 52.073 22.5742 50.0127 20.0001 48.0949C20.9862 46.3037 22.007 45.3657 23.8832 45.6699Z" fill="#7598B8"/>
<path d="M27.8026 44.5514C27.795 42.7679 27.4033 41.1583 26.3197 39.6357C25.8255 38.9413 25.9885 37.7828 25.9742 36.6835C26.4381 36.5938 26.7813 36.6555 27.1486 36.8301C28.8227 38.8084 30.9756 39.8081 33.3254 40.4437C34.8387 40.853 36.3333 41.7378 37.9445 40.7486C38.1731 41.2334 38.4017 41.7182 38.5242 42.4018C36.6391 43.1549 34.8601 43.7091 32.9389 44.2517C32.4274 44.3047 32.058 44.3695 31.5652 44.3988C30.8324 44.5823 30.2229 44.8011 29.477 44.9972C29.0645 44.9796 28.7886 44.9847 28.4259 44.9311C28.1603 44.7654 27.9815 44.6584 27.8026 44.5514Z" fill="#E52230"/>
<path d="M69.0255 59.6892C66.4055 58.4289 66.0944 56.9145 68.0472 54.9264C70.6987 52.2271 73.9086 52.1632 76.7225 54.7399C76.9641 54.9611 77.2785 55.1035 77.6686 55.3065C77.9588 55.3946 78.1395 55.4587 78.4048 55.5659C78.5962 57.0464 80.3527 58.0641 79.4347 59.8242C78.7542 59.8999 78.1681 59.7907 77.6228 59.8943C76.971 60.0182 76.354 60.3241 75.6011 60.4099C76.3073 58.5071 75.5901 57.0927 74.259 56.0391C73.132 55.1471 71.7872 55.2323 70.5586 56.0584C69.2555 56.9348 69.0315 58.2674 69.0255 59.6892Z" fill="#27B3F1"/>
<path d="M65.6833 56.7477C65.7642 57.4562 65.6978 58.1514 65.6109 58.976C65.131 59.8439 64.5836 60.1821 63.5993 60.2672C62.4261 60.3686 61.3182 61.0829 60.1484 61.4136C59.5159 61.5925 58.8133 61.5253 57.9432 61.4554C57.2138 60.8226 56.6835 60.3034 56.0977 59.6766C54.5556 57.8247 53.1363 56.0467 53.0264 53.6113C54.4635 54.6274 55.8006 55.8444 57.3602 56.6146C60.0012 57.9189 62.7947 57.6371 65.6833 56.7477Z" fill="#A6C1DD"/>
<path d="M37.9352 40.5998C36.3333 41.7375 34.8387 40.8528 33.3254 40.4434C30.9756 39.8078 28.8227 38.8081 27.3022 36.7916C28.6497 36.4315 29.9139 36.362 31.0747 35.9807C32.7806 35.4204 34.4127 34.6373 36.0762 33.9492C36.6451 35.4447 37.2664 36.9234 37.7574 38.4439C37.9585 39.0666 37.8782 39.7794 37.9352 40.5998Z" fill="#F62F44"/>
<path d="M56.1533 59.7833C56.6836 60.3025 57.2138 60.8217 57.7934 61.4496C55.0556 63.9668 52.25 63.0242 50.8997 59.0688C50.4325 57.0674 50.1605 55.2617 49.7546 53.4863C49.672 53.1252 49.0855 52.8784 48.7314 52.579C48.9563 51.6289 49.1812 50.6788 49.5558 49.5938C49.9184 49.7259 50.3475 50.0272 50.3113 50.2552C49.8902 52.9097 51.169 55.0897 52.5351 57.0678C53.3468 58.2431 54.9216 58.8957 56.1533 59.7833Z" fill="#E52230"/>
<path d="M110.609 146.96C110.484 145.984 110.384 144.85 110.29 143.716C110.056 140.888 109.772 138.062 109.608 135.23C109.466 132.8 109.406 130.362 109.409 127.928C109.414 124.302 109.506 120.676 109.577 116.898C111.143 119.523 110.595 122.563 110.625 125.504C110.698 132.603 110.642 139.703 110.609 146.96Z" fill="#A6C1DD"/>
<path d="M56.0977 59.6756C54.9216 58.8956 53.3468 58.243 52.5351 57.0677C51.169 55.0897 49.8902 52.9097 50.3113 50.2551C50.3475 50.0271 49.9184 49.7259 49.5822 49.4506C49.9809 47.9983 51.1487 47.6862 52.6502 47.7191C52.8386 49.5799 52.888 51.4372 52.9819 53.4524C53.1363 56.0457 54.5557 57.8237 56.0977 59.6756Z" fill="#F62F44"/>
<path d="M36.0784 33.8503C34.4126 34.6375 32.7806 35.4205 31.0747 35.9809C29.9138 36.3622 28.6497 36.4317 27.2781 36.6789C26.7812 36.6554 26.4381 36.5937 25.9629 36.5401C26.8019 35.7556 27.6568 34.6282 28.7698 34.2457C30.656 33.5975 32.6976 33.3661 34.6918 33.087C35.1151 33.0277 35.6156 33.5154 36.0784 33.8503Z" fill="#A6C1DD"/>
<path d="M48.7178 52.6504C49.0855 52.8781 49.672 53.1249 49.7546 53.4859C50.1605 55.2613 50.4325 57.067 50.7921 59.0095C49.957 59.1924 49.0816 59.2278 48.1064 59.3602C47.756 58.8491 47.5055 58.241 47.3643 57.4395C48.0813 57.4098 48.689 57.5736 49.4175 57.77C49.1716 56.1066 48.9323 54.4872 48.693 52.8679C48.693 52.8679 48.7042 52.7222 48.7178 52.6504Z" fill="#19365E"/>
<path d="M48.5717 52.9258C48.9323 54.4882 49.1717 56.1076 49.4175 57.771C48.689 57.5746 48.0814 57.4108 47.383 57.3074C46.9594 56.2034 46.6265 55.0391 46.2564 53.7344C46.2192 53.594 46.302 53.4511 46.3399 53.3781C47.0687 53.1977 47.7595 53.0902 48.5717 52.9258Z" fill="#0B5EA4"/>
<path d="M33.081 44.2638C34.86 43.7096 36.6391 43.1554 38.5337 42.5374C40.0305 41.5348 41.4624 40.9348 43.1325 41.9533C42.0136 42.4465 40.8921 42.8619 39.7372 43.1394C37.6176 43.6487 35.4783 44.0766 33.209 44.476C33.0709 44.4135 33.081 44.2638 33.081 44.2638Z" fill="#7598B8"/>
<path d="M96.691 65.4864C96.2987 65.9456 95.7719 66.3492 95.127 66.7722C95.2284 65.5082 94.2697 63.9645 95.7835 62.9355C96.0545 63.8104 96.3055 64.6206 96.691 65.4864Z" fill="#19365E"/>
<path d="M139.863 39.2207C140.494 39.796 141.103 40.5009 141.707 41.3095C141.377 41.4179 141.051 41.4227 140.603 41.451C138.602 41.2636 139.988 40.0778 139.863 39.2207Z" fill="#19365E"/>
<path d="M27.6562 44.5586C27.9814 44.6596 28.1603 44.7666 28.4295 45.029C28.5147 45.3127 28.5096 45.4411 28.5045 45.5694C27.9268 45.6165 27.349 45.6636 26.6281 45.7295C25.983 45.7162 25.481 45.6841 24.8287 45.639C25.2588 44.3109 26.4612 44.6411 27.6562 44.5586Z" fill="#7598B8"/>
<path d="M100.691 62.5469C100.82 62.5762 100.842 62.634 100.886 62.7814C100.622 63.0036 100.335 63.1363 99.9321 63.249C100.072 63.0112 100.328 62.7933 100.691 62.5469Z" fill="#19365E"/>
<path d="M110.862 79.9414C110.759 80.161 110.545 80.3611 110.211 80.5235C110.311 80.2978 110.531 80.1099 110.862 79.9414Z" fill="#7598B8"/>
<path d="M108.878 33.8365C109.456 34.6266 110.088 35.2797 110.367 36.0584C110.526 36.5007 110.261 37.3119 109.898 37.6488C109.637 37.8917 108.784 37.8 108.401 37.5474C107.799 37.1506 107.19 36.5677 106.921 35.924C106.643 35.2625 106.769 34.4335 106.718 33.6777C107.407 33.7025 108.096 33.7274 108.878 33.8365Z" fill="#0B5EA4"/>
<path d="M115.322 35.9041C115.287 36.4483 115.179 36.879 115.072 37.3097C114.618 36.9377 114.096 36.6197 113.741 36.1707C113.565 35.9496 113.699 35.4865 113.692 35.1328C114.211 35.3521 114.73 35.5714 115.322 35.9041Z" fill="#0B5EA4"/>
<path d="M152.875 20.6206C152.919 21.8297 152.887 22.9263 152.856 24.0229C152.051 23.3307 151.026 22.7663 150.52 21.9009C150.19 21.3367 150.615 20.335 150.701 19.5293C151.401 19.8556 152.1 20.1818 152.875 20.6206Z" fill="#A6C1DD"/>
<path d="M155.633 25.0234C155.817 24.4483 156.045 23.9986 156.273 23.5488C156.718 23.9419 157.301 24.2608 157.568 24.7505C157.8 25.1783 157.889 26.1465 157.675 26.2757C156.487 26.9938 156.13 25.9255 155.633 25.0234Z" fill="#A6C1DD"/>
<path d="M101.052 63.1212C101.224 63.1006 101.355 63.2366 101.522 63.4415C101.534 67.5766 101.508 71.6429 101.453 75.8618C101.254 75.6838 100.936 75.3532 100.936 75.0223C100.933 71.1075 100.978 67.1927 101.052 63.1212Z" fill="#19365E"/>
<path d="M29.6135 45.0202C30.2229 44.8014 30.8324 44.5826 31.5562 44.4883C31.6238 44.7827 31.577 44.9526 31.5302 45.1225C30.9761 45.1686 30.422 45.2147 29.7312 45.2078C29.5945 45.1549 29.6135 45.0202 29.6135 45.0202Z" fill="#7598B8"/>
<path d="M31.6581 45.1651C31.577 44.9525 31.6238 44.7826 31.6796 44.5236C32.058 44.3697 32.4274 44.305 32.9389 44.252C33.081 44.2636 33.0709 44.4133 33.0674 44.488C32.6379 44.7777 32.212 44.9927 31.6581 45.1651Z" fill="#A6C1DD"/>
<path d="M29.477 44.9981C29.6135 45.0207 29.5944 45.1554 29.592 45.2233C29.2752 45.4426 28.9608 45.594 28.5754 45.6572C28.5096 45.4407 28.5147 45.3123 28.5162 45.0873C28.7886 44.9856 29.0645 44.9805 29.477 44.9981Z" fill="#A6C1DD"/>
<path d="M169.468 7.97864C169.495 6.72456 169.497 5.59558 169.546 4.46861C169.581 3.67173 169.679 2.87758 169.758 1.9668C173.373 3.78441 178.573 21.0242 177.947 25.1885C176.258 22.6583 174.572 20.1261 172.879 17.5984C171.549 15.6128 170.742 13.4468 170.468 11.0671C170.415 10.5982 170.058 10.1637 169.72 9.64864C169.553 9.09083 169.508 8.59771 169.468 7.97864Z" fill="#CDDAED"/>
<path d="M112.699 59.6956C111.263 61.7382 109.345 62.7234 107.032 62.1668C104.933 61.6618 103.424 60.276 102.984 57.8745C103.195 55.9202 103.334 54.068 105.072 52.8753C106.925 51.6031 109.659 51.6171 111.394 52.9509C112.969 54.1618 113.653 56.7833 112.946 58.9025C112.873 59.1197 112.792 59.334 112.699 59.6956Z" fill="#19365E"/>
<path d="M69.0721 59.7793C69.0315 58.2678 69.2555 56.9352 70.5586 56.0589C71.7872 55.2327 73.132 55.1476 74.259 56.0395C75.5901 57.0931 76.3073 58.5075 75.4632 60.4082C73.3162 63.2635 70.6311 62.9757 69.0721 59.7793Z" fill="#19365E"/>
</svg>
