<svg width="149" height="191" viewBox="0 0 149 191" fill="none" xmlns="http://www.w3.org/2000/svg">
<path d="M54.1794 48.5113C55.6106 48.0775 57.0256 47.5762 58.4777 47.2292C59.8737 46.8957 61.2999 46.5887 62.7269 46.5026C67.4608 46.2167 72.2001 46.0138 76.9392 45.8258C78.704 45.7559 80.4916 45.6579 82.2374 45.8528C84.7208 46.1302 87.1749 46.6677 89.6425 47.0887C89.8577 47.1254 90.0849 47.0976 90.2975 47.1425C92.3407 47.5733 94.401 47.941 96.4193 48.4683C99.1293 49.1763 101.855 49.8767 104.481 50.8335C106.395 51.5305 108.09 52.8273 110.005 53.5169C112.977 54.5873 115.408 56.5285 118.072 58.0889C119.411 58.8731 120.629 59.8631 121.907 61.016C122.672 62.3078 123.433 63.3437 124.223 64.4823C124.588 65.053 124.922 65.5211 125.262 66.1005C125.576 66.4823 125.885 66.7527 126.204 67.0972C126.215 67.1712 126.24 67.3189 126.249 67.4352C127.228 68.813 128.198 70.0745 129.192 71.4478C129.668 72.3501 130.121 73.1406 130.575 74.0496C131.098 74.8835 131.619 75.5989 132.149 76.4158C132.174 76.652 132.191 76.7868 132.216 77.025C132.424 77.2925 132.623 77.4566 132.829 77.7246C132.85 77.9663 132.864 78.1043 132.884 78.3603C133.4 79.2014 133.912 79.9246 134.429 80.7473C134.445 80.9793 134.456 81.1117 134.406 81.324C134.827 82.2445 135.309 83.0851 135.797 84.0433C135.823 84.3951 135.843 84.6294 135.864 84.9754C136.081 85.4603 136.298 85.8336 136.518 86.3123C136.533 86.5581 136.544 86.6984 136.549 86.9474C136.756 87.3242 136.97 87.5921 137.189 87.9655C137.206 88.2113 137.22 88.3515 137.213 88.6102C137.486 89.1246 137.779 89.5206 138.077 90.0328C138.095 90.3817 138.107 90.6143 138.058 90.9219C138.25 91.4029 138.505 91.8087 138.763 92.3177C138.774 92.5582 138.781 92.6956 138.718 92.9197C138.929 93.9412 139.211 94.876 139.494 95.9174C139.505 96.1662 139.514 96.3083 139.507 96.576C139.711 97.2877 139.932 97.8737 140.163 98.5722C140.255 99.0514 140.336 99.4181 140.347 99.8833C140.462 100.798 140.647 101.613 140.833 102.55C140.917 103.144 141.001 103.616 141.012 104.198C141.204 106.017 141.469 107.728 141.736 109.591C141.736 112.259 141.735 114.774 141.622 117.347C141.369 119.039 141.227 120.673 141.07 122.432C140.978 123.136 140.901 123.716 140.731 124.372C140.497 125.069 140.355 125.691 140.202 126.448C140.177 127.034 140.164 127.485 140.062 128.01C139.824 128.595 139.677 129.107 139.518 129.739C139.498 130.101 139.489 130.342 139.399 130.663C139.164 131.25 139.009 131.757 138.843 132.395C138.804 132.965 138.777 133.404 138.654 133.879C138.409 134.349 138.26 134.785 138.104 135.32C138.092 135.556 138.087 135.69 137.974 135.864C137.655 136.349 137.443 136.796 137.221 137.348C137.202 137.593 137.195 137.734 137.089 137.924C136.847 138.281 136.703 138.589 136.545 139.027C136.279 140.036 136.028 140.916 135.666 141.828C134.668 143.519 133.78 145.178 132.879 146.938C132.85 147.177 132.834 147.313 132.719 147.477C132.48 147.719 132.34 147.933 132.187 148.248C132.16 148.482 132.146 148.616 132.024 148.783C131.472 149.481 131.027 150.147 130.547 150.925C130.216 151.563 129.967 152.124 129.615 152.611C124.281 159.995 118.062 166.416 110.258 171.304C101.374 176.868 91.6754 179.743 81.3449 180.512C75.1256 180.974 68.9514 180.233 62.8612 178.701C55.0457 176.736 48.0466 173.272 41.713 168.297C32.6744 161.197 26.1634 152.131 21.0846 141.994C17.0695 133.979 14.1484 125.526 11.9264 116.837C11.5956 115.543 11.1028 114.29 10.6916 112.883C10.6901 112.115 10.6819 111.484 10.7583 110.763C10.9799 109.025 11.1167 107.376 11.2875 105.603C11.3661 104.793 11.4107 104.108 11.5255 103.326C11.7144 102.513 11.8332 101.797 11.9979 100.955C12.5387 98.8377 12.9303 96.8121 13.5538 94.8604C14.4075 92.1882 15.3581 89.5402 16.4069 86.938C19.4112 79.4836 23.9255 72.9829 29.1928 66.9621C29.5288 66.5781 29.538 65.9087 29.8029 65.3259C34.2428 61.6964 38.583 58.1179 42.91 54.5235C43.4241 54.0965 43.8661 53.5831 44.3416 53.1097C44.3416 53.1097 44.3194 53.1076 44.4477 53.1142C46.751 52.2284 48.954 51.3967 51.0897 50.4185C52.1818 49.9182 53.1534 49.1555 54.1794 48.5113ZM65.6704 64.4474C65.3672 64.613 65.0641 64.7786 64.4988 64.9509C64.0813 65.0602 63.6636 65.1695 63.0513 65.2351C62.6998 65.429 62.3483 65.623 61.7935 65.8012C61.6031 65.8666 61.4126 65.9319 60.9979 65.9869C60.6778 66.1712 60.3577 66.3555 59.8708 66.5258C59.7682 66.5665 59.6656 66.6071 59.3389 66.6375C59.0343 66.8389 58.7297 67.0403 58.2037 67.2518C58.0006 67.3326 57.7974 67.4135 57.4111 67.4871C57.2277 67.6412 57.0444 67.7953 56.6498 67.9626C56.5211 68.0176 56.3925 68.0726 56.0724 68.1151C55.8907 68.2802 55.709 68.4453 55.3175 68.6463C55.1925 68.7115 55.0675 68.7768 54.7602 68.8257C54.588 68.9814 54.4158 69.1371 54.0328 69.3371C53.7811 69.47 53.5295 69.6029 53.0874 69.7578C52.8943 69.9208 52.7012 70.0837 52.2822 70.285C48.8222 73.0283 45.3623 75.7716 41.7046 78.6066C40.8209 79.5279 39.9372 80.4493 38.8692 81.359C38.7502 81.5538 38.6311 81.7487 38.3365 82.033C38.2115 82.1799 38.0866 82.3269 37.7537 82.5522C37.1199 83.3423 36.4861 84.1324 35.7231 85.0154C35.7231 85.0154 35.671 85.1656 35.4767 85.2234C35.3377 85.4425 35.1987 85.6615 34.9082 86.01C34.7217 86.2824 34.5353 86.5548 34.1481 86.908C33.8257 87.4582 33.5033 88.0084 33.0505 88.6258C33.0505 88.6258 32.9851 88.757 32.776 88.8363C30.9899 92.253 29.0466 95.5996 27.475 99.1122C26.4936 101.306 26.0728 103.749 25.3249 106.278C25.3167 106.487 25.3084 106.697 25.1384 107.079C24.9898 107.975 24.8411 108.871 24.6042 110.029C24.5864 110.488 24.5687 110.947 24.4048 111.606C23.7135 115.612 23.4802 119.613 24.5106 123.875C24.5654 124.331 24.6203 124.788 24.5804 125.497C24.8144 126.37 25.0484 127.243 25.2586 128.321C25.3017 128.522 25.3448 128.723 25.2986 129.127C26.6582 132.928 27.845 136.803 29.4415 140.502C30.4178 142.764 32.0234 144.755 33.3715 147.012C33.3715 147.012 33.4682 147.122 33.4641 147.348C34.1168 148.13 34.7696 148.913 35.4205 149.747C35.4205 149.747 35.4725 149.746 35.4839 149.954C35.7731 150.238 36.0624 150.522 36.4172 151.013C36.8773 151.48 37.3375 151.947 37.8008 152.632C38.8809 153.634 39.961 154.636 41.1778 155.804C41.5544 156.123 41.9309 156.443 42.3531 156.979C43.1306 157.526 43.9082 158.073 44.8119 158.762C44.9622 158.876 45.1126 158.989 45.335 159.308C45.8952 159.616 46.4555 159.925 47.1293 160.409C47.3661 160.544 47.6029 160.68 47.935 161.019C50.0481 162.141 52.1613 163.262 54.419 164.474C54.5304 164.487 54.6419 164.5 54.8779 164.701C55.7974 165.061 56.7168 165.422 57.8275 165.9C57.9751 165.917 58.1226 165.934 58.4296 166.117C59.9188 166.539 61.408 166.961 63.0552 167.455C63.1698 167.456 63.2844 167.458 63.5533 167.634C64.3421 167.784 65.1308 167.934 66.1583 168.163C66.4081 168.171 66.6578 168.179 67.0918 168.349C68.2474 168.491 69.4029 168.634 70.84 168.856C71.6245 168.87 72.409 168.884 73.424 169.026C74.9866 168.981 76.5492 168.937 78.4058 168.934C79.1881 168.878 79.9703 168.822 81.0183 168.873C82.0364 168.653 83.0546 168.432 84.3398 168.235C84.6908 168.177 85.0418 168.12 85.628 168.154C86.3812 167.915 87.1343 167.676 88.0687 167.461C88.1852 167.429 88.3018 167.397 88.6123 167.454C90.6372 166.719 92.6622 165.984 94.9147 165.245C95.0541 165.189 95.1935 165.133 95.5544 165.139C97.8588 163.916 100.163 162.693 102.693 161.44C103.002 161.225 103.311 161.01 103.822 160.83C104.357 160.456 104.893 160.081 105.582 159.625C105.776 159.497 105.969 159.369 106.401 159.223C114.509 154.253 120.866 147.602 125.319 139.215C128.326 133.552 130.511 127.588 131.077 120.937C131.089 120.512 131.101 120.087 131.298 119.415C131.324 118.49 131.351 117.565 131.459 116.349C131.428 115.037 131.398 113.726 131.413 112.11C131.336 111.205 131.259 110.3 131.282 109.205C131.169 108.881 131.056 108.558 130.977 107.971C130.816 106.893 130.656 105.816 130.584 104.615C130.472 104.408 130.361 104.2 130.257 103.858C130.257 103.858 130.175 103.75 130.222 103.571C130.147 103.407 130.073 103.243 130.018 102.833C129.971 102.592 129.925 102.352 129.936 101.936C129.736 101.483 129.536 101.03 129.333 100.317C129.008 99.1599 128.766 97.971 128.344 96.8504C124.6 86.9319 118.426 78.8219 109.873 72.5764C105.7 69.529 101.21 67.0007 96.0743 65.4368C95.7332 65.4066 95.3921 65.3765 94.8309 65.3226C94.6839 65.3297 94.537 65.3367 94.2607 65.1483C93.2288 64.7618 92.2261 64.2134 91.1591 64.0214C88.7148 63.5817 86.2391 63.3159 83.4684 62.9277C80.5884 62.9416 77.7083 62.9554 74.6002 62.8664C72.1898 63.3217 69.7793 63.777 67.1163 64.2311C66.705 64.3165 66.2937 64.402 65.6704 64.4474ZM97.6743 54.4318C96.0142 55.031 95.4927 56.2055 96.3015 57.72C96.6333 58.3413 97.1111 58.8983 97.586 59.4277C101.182 63.4369 105.649 65.8491 111.018 66.3694C112.029 66.4674 113.469 66.0919 114.064 65.3887C114.617 64.7336 114.504 63.3134 114.312 62.3005C114.173 61.5687 113.556 60.7725 112.926 60.3135C108.46 57.0564 103.53 54.9107 97.6743 54.4318ZM83.4664 52.6611C83.6613 53.2106 83.757 53.8254 84.0687 54.298C85.2662 56.1137 87.1914 56.7764 89.1554 57.3668C90.0749 57.6432 91.0456 58.0421 91.5797 56.8716C92.0598 55.8194 91.6658 54.8031 90.6867 54.3351C88.7665 53.4171 86.7696 52.6496 84.7673 51.922C84.4555 51.8088 83.9472 52.2354 83.4664 52.6611Z" fill="#FDD67E"/>
<path d="M44.2069 53.1035C43.8661 53.5836 43.4241 54.097 42.91 54.524C38.583 58.1184 34.2428 61.6969 29.6899 65.3431C29.1458 65.5928 28.7415 65.7105 28.5019 65.9763C21.3145 73.9477 15.8212 82.9117 12.7043 93.23C12.1064 95.2095 11.9405 97.3212 11.3184 99.291C10.2066 102.812 9.6664 106.378 9.81648 110.212C9.80655 112.799 9.8216 115.232 9.79117 117.786C9.83519 124.855 11.3756 131.551 13.6327 138.057C17.1186 148.106 22.5576 157.004 30.0931 164.577C39.2945 173.823 50.1898 180.191 62.8153 183.458C66.1911 184.331 69.7409 184.534 73.3539 185.073C74.2774 185.111 75.0577 185.121 75.9536 185.198C78.2997 185.219 80.5303 185.172 82.9044 185.139C83.7149 185.105 84.3819 185.058 85.1916 185.064C88.477 184.633 91.6216 184.16 94.7577 183.637C94.9695 183.602 95.1166 183.181 95.4388 182.928C96.0223 182.894 96.4962 182.971 96.894 182.832C100.529 181.561 104.159 180.276 107.772 178.944C109.752 178.214 111.695 177.387 113.655 176.603C111.44 178.143 109.292 179.793 106.992 181.194C104.464 182.733 101.842 184.141 99.1703 185.416C97.7216 186.107 96.0711 186.366 94.5342 186.886C93.25 187.321 92.0123 187.892 90.7284 188.328C89.7144 188.672 88.6759 188.99 87.6224 189.161C85.8021 189.457 83.9378 189.512 82.1344 189.877C76.7577 190.965 71.3265 190.498 65.9241 190.448C63.6016 190.427 61.2865 189.655 58.9667 189.231C58.7518 189.191 58.525 189.221 58.3076 189.191C56.7241 188.972 55.0922 188.917 53.5716 188.478C51.7406 187.949 50.0082 187.083 48.2257 186.382C47.4727 186.086 46.6821 185.881 45.9407 185.56C43.1069 184.335 40.1194 183.353 37.5004 181.768C33.7708 179.51 30.1415 177.01 26.7911 174.226C23.4009 171.41 20.2678 168.247 17.2821 164.997C15.4363 162.988 13.9685 160.587 12.3352 158.399C10.4149 155.827 9.30582 152.849 7.38749 150.302C6.25328 148.797 5.91308 146.695 5.21335 144.862C4.48143 142.945 3.69898 141.045 3.03184 139.105C2.66525 138.04 2.50258 136.905 2.22693 135.807C1.71627 133.772 1.18946 131.742 0.671838 129.709C0.631758 129.551 0.591182 129.39 0.584212 129.229C0.354563 123.924 -0.178662 118.605 0.0602627 113.321C0.150823 111.318 0.412438 109.222 0.594662 107.166C0.708246 105.884 0.738261 104.478 1.29746 103.377C2.59559 100.82 2.72056 97.9657 3.67715 95.3589C4.6546 92.6953 6.13552 90.2177 7.1425 87.5627C8.30397 84.5004 10.1498 81.8696 11.8544 79.1318C14.7927 74.4125 18.3847 70.22 22.5048 66.5454C25.6131 63.7732 28.9797 61.2461 32.4489 58.9359C35.1108 57.1634 38.1014 55.8787 40.9682 54.4208C41.9685 53.9121 43.0357 53.5343 44.2069 53.1035Z" fill="#FD9E1B"/>
<path d="M113.723 176.597C111.695 177.386 109.752 178.213 107.772 178.943C104.159 180.275 100.529 181.56 96.894 182.831C96.4962 182.97 96.0223 182.892 95.3447 182.858C94.8148 182.645 94.5003 182.321 94.2368 182.359C91.0546 182.808 87.8799 183.311 84.6145 183.732C83.9521 183.822 83.3784 183.978 82.6546 184.183C80.2695 184.2 78.0345 184.168 75.7633 184.025C74.8941 183.88 74.0611 183.846 73.0864 183.835C71.1377 183.582 69.3307 183.305 67.5034 182.957C67.2902 182.887 67.0973 182.888 66.7625 182.902C65.17 182.659 63.6753 182.549 62.2765 182.123C54.8944 179.879 47.8955 176.807 41.4964 172.43C30.6442 165.008 22.4925 155.363 17.1255 143.35C14.6686 137.85 13.0476 132.115 11.895 126.156C11.8306 125.804 11.719 125.533 11.6078 125.122C11.4616 123.732 11.3151 122.482 11.2177 121.15C11.1655 120.584 11.0642 120.099 10.9168 119.595C10.8706 119.576 10.8225 119.664 10.8521 119.529C10.849 119.123 10.8163 118.851 10.8644 118.512C10.8558 117.845 10.7665 117.245 10.6878 116.495C10.6939 115.236 10.6894 114.127 10.6849 113.018C11.1028 114.29 11.5956 115.542 11.9264 116.836C14.1484 125.525 17.0695 133.979 21.0846 141.993C26.1634 152.131 32.6744 161.196 41.713 168.296C48.0466 173.272 55.0457 176.735 62.8612 178.7C68.9514 180.232 75.1256 180.973 81.3449 180.511C91.6754 179.743 101.374 176.867 110.258 171.303C118.062 166.415 124.281 159.994 129.615 152.61C129.967 152.123 130.216 151.562 130.652 150.895C131.238 150.085 131.684 149.417 132.131 148.75C132.146 148.615 132.16 148.481 132.287 148.221C132.539 147.879 132.679 147.664 132.819 147.448C132.834 147.312 132.85 147.176 132.988 146.909C134 145.117 134.889 143.456 135.777 141.795C136.028 140.915 136.279 140.036 136.638 139.001C136.893 138.522 137.04 138.198 137.187 137.874C137.195 137.733 137.202 137.593 137.327 137.312C137.656 136.723 137.868 136.274 138.081 135.824C138.087 135.69 138.092 135.555 138.207 135.262C138.46 134.683 138.605 134.263 138.75 133.843C138.777 133.404 138.804 132.965 138.943 132.361C139.196 131.659 139.338 131.121 139.479 130.583C139.489 130.342 139.498 130.1 139.618 129.703C139.87 129.011 140.011 128.473 140.152 127.936C140.164 127.485 140.177 127.033 140.302 126.407C140.552 125.586 140.688 124.941 140.825 124.296C140.901 123.716 140.978 123.136 141.16 122.34C141.423 120.513 141.578 118.901 141.734 117.289C141.735 114.773 141.736 112.258 141.754 109.434C141.541 107.447 141.313 105.768 141.085 104.089C141.001 103.616 140.917 103.143 140.905 102.456C140.79 101.422 140.603 100.603 140.416 99.7842C140.336 99.4175 140.255 99.0507 140.236 98.4856C140.039 97.6747 139.781 97.0622 139.522 96.4497C139.514 96.3076 139.505 96.1655 139.565 95.8304C139.352 94.7023 139.07 93.7673 138.789 92.8322C138.781 92.6949 138.774 92.5575 138.775 92.1982C138.562 91.5995 138.341 91.2229 138.12 90.8462C138.107 90.6136 138.095 90.3811 138.094 89.9108C137.815 89.2791 137.524 88.8851 137.233 88.491C137.22 88.3508 137.206 88.2106 137.248 87.8934C137.054 87.4235 136.805 87.1307 136.556 86.838C136.544 86.6977 136.533 86.5574 136.585 86.2327C136.387 85.6531 136.125 85.2581 135.864 84.8631C135.843 84.6288 135.823 84.3944 135.791 83.9207C135.342 82.8687 134.904 82.0561 134.466 81.2435C134.456 81.1111 134.445 80.9786 134.433 80.6245C133.914 79.6825 133.396 78.9621 132.878 78.2417C132.864 78.1037 132.85 77.9657 132.817 77.6209C132.601 77.2497 132.404 77.0853 132.207 76.9209C132.191 76.7861 132.174 76.6514 132.143 76.2954C131.61 75.3596 131.092 74.6451 130.574 73.9305C130.121 73.14 129.668 72.3495 129.183 71.3296C128.18 69.8396 127.21 68.5789 126.24 67.3182C126.24 67.3182 126.215 67.1706 126.193 66.9861C125.866 66.5306 125.562 66.2595 125.257 65.9885C124.922 65.5204 124.588 65.0524 124.251 64.3878C124.699 64.3767 125.26 64.4502 125.581 64.7665C127.346 66.5032 129.024 68.3281 130.792 70.0613C131.518 70.7728 132.395 71.3306 133.204 71.9583C133.204 71.9583 133.18 71.9619 133.179 72.075C133.413 72.7322 133.571 73.3268 133.894 73.812C135.728 76.5677 137.578 79.3141 139.479 82.0244C139.979 82.7371 140.679 83.3101 141.286 83.9473C141.286 83.9473 141.376 83.97 141.324 84.1428C141.6 86.004 141.859 87.7241 143.389 88.8528C143.389 88.8528 143.441 88.9972 143.402 89.1842C143.326 89.6872 143.176 90.0427 143.271 90.3124C143.762 91.7109 144.276 93.1048 144.862 94.4661C145.303 95.4916 145.865 96.4655 146.373 97.4624C146.624 98.5883 146.511 100.085 147.202 100.762C148.599 102.13 147.857 103.638 148.008 105.329C147.874 106.814 147.742 108.042 147.811 109.258C147.833 109.646 148.384 110.005 148.693 110.377C148.71 114.255 148.727 118.134 148.611 122.223C147.106 124.157 147.787 126.053 148.022 127.911C147.734 129.164 147.445 130.416 146.972 131.801C145.632 132.704 145.826 133.493 146.755 134.292C146.65 134.436 146.544 134.58 146.28 134.818C145.779 135.739 145.344 136.541 145.115 137.398C144.719 138.873 144.452 140.382 144.131 141.876C144.131 141.876 144.122 141.849 144.008 141.858C142.887 142.627 142.541 143.626 142.809 144.848C142.809 144.848 142.779 145.007 142.639 145.107C141.597 146.507 140.547 147.749 140.807 149.506C140.469 149.964 140.131 150.421 139.657 151.018C138.899 151.942 138.272 152.725 137.656 153.515C135.58 156.181 133.689 159.02 131.386 161.472C128.555 164.488 125.411 167.216 122.334 169.993C121.429 170.809 120.262 171.326 119.269 172.053C117.686 173.211 116.148 174.431 114.487 175.648C114.229 175.963 114.075 176.256 113.92 176.548C113.92 176.548 113.791 176.592 113.723 176.597Z" fill="#FDC92A"/>
<path d="M38.0296 0.174486C39.8478 0.1571 41.7603 -0.228837 43.4627 0.206014C46.2315 0.913272 49.017 1.45678 51.7053 2.79891C55.1352 4.5113 57.8071 6.86864 60.2902 9.5827C62.2772 11.7544 63.7363 14.2612 64.5728 17.1248C64.9711 18.4885 65.6124 19.7799 66.0982 21.1204C66.2231 21.4652 66.2022 21.8722 66.2034 22.2507C66.2121 24.8384 66.4995 27.4712 66.1058 29.9976C65.8493 31.6441 66.0324 33.6193 64.4087 35.1025C63.8146 35.7666 63.303 36.2414 62.9038 36.7969C61.6699 38.5139 60.6454 40.4128 59.234 41.9636C56.8289 44.6064 55.0465 44.7791 51.9883 42.9809C51.9653 41.9562 51.9561 41.0758 52.0449 40.1434C56.5117 36.2179 58.657 31.4312 58.6097 25.5292C58.5395 16.7976 51.4083 8.60617 41.8245 7.82836C40.6847 7.73585 39.4857 8.37112 38.1696 8.69088C36.116 8.40787 34.6134 9.4464 33.0156 10.1983C32.5158 10.4335 31.8184 10.3748 31.4335 10.7072C29.5736 12.313 27.6825 13.9065 26.0068 15.6953C24.1376 17.6905 23.1447 20.3309 22.9059 22.9132C22.6684 25.4809 22.4657 28.1299 23.317 30.8243C23.9387 32.7921 24.6072 34.6514 25.7921 36.2666C28.8988 40.5017 32.9273 43.2615 38.3898 43.6698C38.8004 43.9805 39.1614 44.3131 39.5549 44.3574C41.2564 44.5487 41.144 45.541 40.6687 46.7101C39.8315 48.769 37.0156 50.0919 34.69 49.2217C32.7607 48.4998 30.9404 47.4414 29.1558 46.3899C25.9018 44.4727 22.71 42.4502 19.4312 40.3787C15.1095 34.1487 14.0736 27.4427 15.6602 20.2028C17.7593 10.6247 26.3774 2.40128 36.3883 1.0306C36.9638 0.951807 37.4838 0.469175 38.0296 0.174486Z" fill="#FFD77E"/>
<path d="M37.8784 0.146484C37.4838 0.469053 36.9638 0.951686 36.3883 1.03047C26.3774 2.40116 17.7593 10.6246 15.6602 20.2027C14.0736 27.4425 15.1095 34.1486 19.4382 40.4981C19.5638 40.8639 19.5899 41.0406 19.6838 41.1672C23.7927 46.7063 29.249 50.1063 36.0117 51.4514C36.3809 51.5248 36.701 51.8445 37.044 52.0496C34.6783 51.6579 32.3193 51.2182 29.9452 50.8864C26.9147 50.4628 24.4486 48.8459 22.0894 47.1195C19.5662 45.2731 17.1918 43.1802 15.5378 40.4826C14.3979 38.6236 13.4007 36.6484 12.5963 34.6235C12.0976 33.3679 12.1204 31.9131 11.8286 30.5651C11.6572 29.7729 11.2393 29.0315 11.0897 28.2376C10.832 26.8699 10.4001 25.4933 11.3702 24.1477C11.7171 23.6665 11.7827 22.927 11.8291 22.2946C12.1847 17.444 14.1472 13.3467 17.2673 9.63632C19.5826 6.88299 22.284 4.78604 25.4031 3.03894C27.6466 1.78226 29.8691 0.854152 32.4663 0.752353C34.2255 0.683396 35.974 0.339526 37.8784 0.146484Z" fill="#FFA11E"/>
<path d="M54.1249 48.4658C53.1534 49.1549 52.1818 49.9177 51.0897 50.4179C48.954 51.3962 46.751 52.2279 44.4481 53.1026C44.2066 52.7313 44.0929 52.3776 43.997 51.8261C44.0248 51.5672 44.0346 51.5063 44.1185 51.3598C43.5353 49.4071 42.9492 47.5102 42.1879 45.6863C41.852 44.8816 41.1604 44.225 40.6337 43.3833C40.4436 42.6553 40.2501 42.0451 40.0735 41.4882C40.7756 41.0185 41.4607 40.5603 42.1457 40.1021C41.9204 39.8234 41.695 39.5448 41.4696 39.2662C40.9546 39.5219 40.3654 39.6895 39.9379 40.049C38.3507 41.3835 35.9407 41.9822 34.7114 40.1194C33.9891 39.0249 33.9586 37.4408 33.7408 36.0574C33.5115 34.6017 34.3495 33.9898 35.7156 34.0817C35.7567 35.9985 36.4815 37.0925 37.8495 37.168C38.9318 37.2277 40.0399 37.1566 41.1129 36.9908C45.053 36.3821 48.3034 34.3608 51.4237 31.9434C52.5516 32.9069 52.2485 34.1095 52.2808 35.2224C52.2837 35.2093 52.3102 35.2134 52.1804 35.2112C51.115 35.7669 50.1793 36.3248 49.1314 36.9012C45.5758 38.4254 45.2827 44.267 46.4856 46.7731C47.6573 49.2143 50.7018 49.6841 53.3773 48.1185C53.4504 48.1098 53.5905 48.065 53.6799 48.0931C53.8286 48.1407 53.888 48.1602 53.9474 48.1797C53.9394 48.285 53.9804 48.3654 54.1249 48.4658Z" fill="#E12531"/>
<path d="M40.6303 43.5022C41.1604 44.2261 41.852 44.8826 42.1879 45.6874C42.9492 47.5113 43.5353 49.4082 43.9763 51.3557C43.3301 51.3646 42.8845 51.1828 42.4731 51.2412C40.8766 51.4677 39.291 51.7706 37.7014 52.0451C37.5549 52.0617 37.4084 52.0782 37.1529 52.0726C36.701 51.8453 36.3809 51.5255 36.0117 51.4521C29.249 50.1071 23.7926 46.7071 19.6838 41.1679C19.5899 41.0414 19.5638 40.8647 19.4991 40.5918C22.71 42.4508 25.9018 44.4733 29.1557 46.3905C30.9404 47.442 32.7607 48.5004 34.6899 49.2223C37.0155 50.0925 39.8314 48.7696 40.6687 46.7107C41.144 45.5417 41.2564 44.5493 39.5549 44.358C39.1614 44.3138 38.8003 43.9811 38.5309 43.6443C39.3017 43.5057 39.966 43.5039 40.6303 43.5022Z" fill="#FDC92A"/>
<path d="M54.0585 48.1344C53.888 48.1612 53.8286 48.1417 53.6576 48.0454C53.5095 47.905 53.4586 47.8565 53.3436 47.7113C53.0444 46.9284 52.7947 46.2572 52.5508 45.4748C52.3581 45.1845 52.1597 45.0054 51.9337 44.7022C51.8442 44.1677 51.7824 43.7573 51.791 43.2917C51.9083 43.1996 51.9552 43.1627 52.002 43.1258C55.0465 44.7796 56.8289 44.607 59.234 41.9642C60.6453 40.4133 61.6699 38.5144 62.9038 36.7974C63.303 36.242 63.8145 35.7672 64.3849 35.2305C63.8477 36.77 63.4874 38.5549 62.4906 39.8516C60.637 42.2626 58.4437 44.4193 56.322 46.6145C55.7302 47.2269 54.8938 47.6034 54.0585 48.1344Z" fill="#FDC92A"/>
<path d="M114.591 175.625C116.148 174.432 117.686 173.212 119.269 172.054C120.262 171.327 121.429 170.81 122.334 169.994C125.411 167.217 128.555 164.488 131.386 161.473C133.689 159.021 135.58 156.182 137.656 153.516C138.272 152.726 138.899 151.943 139.632 151.137C139.498 151.869 139.427 152.752 138.978 153.353C135.641 157.815 132.459 162.439 128.219 166.115C124.794 169.085 121.461 172.212 117.358 174.311C116.485 174.758 115.71 175.394 114.75 175.869C114.604 175.738 114.597 175.682 114.591 175.625Z" fill="#FFCE4C"/>
<path d="M133.187 71.8376C132.395 71.3312 131.518 70.7734 130.792 70.0619C129.024 68.3287 127.346 66.5038 125.581 64.7671C125.26 64.4508 124.699 64.3773 124.221 64.2857C123.433 63.3437 122.672 62.3078 121.918 61.1445C123.229 62.0155 124.652 62.8929 125.813 64.0368C128.336 66.5245 130.726 69.1482 133.187 71.8376Z" fill="#FFCE4C"/>
<path d="M141.225 83.8598C140.679 83.3114 139.979 82.7384 139.479 82.0257C137.578 79.3154 135.728 76.569 133.894 73.8133C133.571 73.3281 133.413 72.7335 133.181 72.0645C134.395 73.3904 135.708 74.7698 136.79 76.3103C138.116 78.197 139.264 80.2102 140.458 82.1874C140.754 82.6784 140.931 83.2412 141.225 83.8598Z" fill="#FFCE4C"/>
<path d="M146.397 97.3221C145.865 96.4668 145.303 95.4929 144.862 94.4674C144.276 93.1061 143.762 91.7122 143.271 90.3137C143.176 90.044 143.326 89.6885 143.41 89.2617C143.999 89.9387 144.696 90.6647 145.041 91.5306C145.442 92.5395 145.519 93.6748 145.769 94.7476C145.96 95.5647 146.201 96.37 146.397 97.3221Z" fill="#FFCE4C"/>
<path d="M144.249 141.821C144.452 140.383 144.719 138.874 145.115 137.399C145.344 136.542 145.779 135.74 146.247 134.904C146.338 137.37 145.432 139.59 144.249 141.821Z" fill="#FFCE4C"/>
<path d="M148.716 110.224C148.384 110.005 147.833 109.646 147.811 109.258C147.742 108.041 147.874 106.814 148.012 105.479C148.315 105.695 148.703 106.015 148.723 106.355C148.795 107.59 148.744 108.833 148.716 110.224Z" fill="#FFCE4C"/>
<path d="M148.049 127.774C147.787 126.053 147.106 124.158 148.587 122.375C148.712 123.508 148.804 124.705 148.715 125.888C148.671 126.484 148.299 127.055 148.049 127.774Z" fill="#FFCE4C"/>
<path d="M37.8547 52.0679C39.2911 51.7693 40.8767 51.4664 42.4731 51.2399C42.8845 51.1815 43.3301 51.3632 43.9022 51.4398C44.0346 51.506 44.0248 51.567 43.9756 51.7118C41.9602 51.8945 39.9841 51.9933 37.8547 52.0679Z" fill="#FFCE4C"/>
<path d="M143.413 88.7152C141.859 87.7226 141.6 86.0025 141.336 84.1855C141.744 84.6625 142.14 85.2448 142.418 85.8789C142.804 86.7586 143.102 87.6771 143.413 88.7152Z" fill="#FFCE4C"/>
<path d="M140.92 149.45C140.547 147.75 141.597 146.507 142.612 145.184C142.161 146.571 141.597 147.982 140.92 149.45Z" fill="#FFCE4C"/>
<path d="M142.939 144.833C142.541 143.625 142.887 142.625 144.02 141.863C143.788 142.847 143.428 143.833 142.939 144.833Z" fill="#FFCE4C"/>
<path d="M146.877 134.219C145.826 133.493 145.632 132.704 146.911 131.924C147.023 132.659 147.011 133.403 146.877 134.219Z" fill="#FFCE4C"/>
<path d="M114.487 175.648C114.597 175.682 114.604 175.738 114.621 175.879C114.472 176.176 114.313 176.388 114.037 176.575C114.075 176.257 114.229 175.964 114.487 175.648Z" fill="#FD9E1B"/>
<path d="M33.4682 147.121C33.4682 147.121 33.3715 147.011 33.3699 146.82C30.4842 142.074 28.1028 137.285 26.5329 132.11C26.2056 131.032 25.7723 129.985 25.3879 128.924C25.3448 128.722 25.3017 128.521 25.3218 128.082C25.1483 126.977 24.9117 126.11 24.6751 125.244C24.6203 124.787 24.5654 124.331 24.5996 123.627C24.7118 119.593 24.7383 115.805 24.7492 112.018C24.7498 111.814 24.62 111.61 24.5509 111.405C24.5687 110.946 24.5865 110.487 24.7455 109.838C25.0246 108.734 25.1624 107.82 25.3002 106.905C25.3084 106.696 25.3167 106.487 25.4609 106.105C25.749 105.644 25.931 105.366 26.0488 105.064C27.5671 101.163 29.0259 97.2384 30.612 93.3655C31.2644 91.7725 32.186 90.2894 32.9851 88.7563C32.9851 88.7563 33.0505 88.6251 33.2197 88.5661C33.7088 87.9469 34.0288 87.3867 34.3488 86.8265C34.5353 86.5541 34.7217 86.2817 35.0928 85.9327C35.4086 85.6257 35.5398 85.3953 35.6711 85.1649C35.6711 85.1649 35.7231 85.0146 35.8952 84.9578C36.6987 84.0917 37.3302 83.2824 37.9616 82.4731C38.0866 82.3262 38.2115 82.1792 38.5112 81.9768C38.8084 81.7375 38.931 81.5537 39.0535 81.3699C39.9372 80.4486 40.8209 79.5272 41.9211 78.6016C42.3273 78.838 42.517 79.0787 42.6581 79.4142C42.2546 79.8572 41.8996 80.2055 41.4369 80.5674C41.0141 81.0423 40.6991 81.5036 40.3296 82.0543C39.8631 82.6209 39.4513 83.0981 38.9243 83.5813C38.4584 84.1587 38.1077 84.7301 37.7311 85.4044C37.4495 85.8455 37.1938 86.1837 36.8254 86.5323C36.3162 87.2681 35.9197 87.9935 35.5046 88.8262C35.2755 89.2284 35.0651 89.5233 34.7531 89.8525C34.0467 90.9713 33.3836 92.0285 32.8563 93.1495C32.4627 93.9863 32.2444 94.9055 31.952 95.9012C31.9033 96.1544 31.8509 96.2943 31.6959 96.4737C31.4697 96.896 31.3459 97.2786 31.2336 97.7423C31.2401 97.9367 31.2016 98.0372 31.028 98.1931C30.5147 99.8691 30.1029 101.477 29.7022 103.195C29.6743 103.448 29.6353 103.59 29.4892 103.767C29.248 104.664 29.1139 105.526 28.9957 106.52C28.9645 107 28.9174 107.349 28.77 107.753C28.5396 109.761 28.4097 111.712 28.3096 113.811C28.3195 114.654 28.2996 115.351 28.2076 116.159C28.2273 118.093 27.5406 120.018 28.8942 121.806C28.9538 122.284 28.9658 122.637 28.9067 123.086C29.0891 124.002 29.3426 124.823 29.6385 125.747C29.6803 125.999 29.6798 126.147 29.6065 126.386C30.0605 128.067 30.5872 129.657 31.1561 131.32C31.2014 131.505 31.2046 131.616 31.1614 131.857C31.5147 133.052 31.8477 134.149 32.334 135.174C32.7832 136.12 33.3967 136.989 34.0021 137.963C34.0903 138.159 34.1141 138.283 34.11 138.53C34.6877 139.615 35.2934 140.578 35.993 141.594C36.2022 141.903 36.3175 142.159 36.4152 142.533C36.8312 143.151 37.2648 143.651 37.7436 144.192C37.7889 144.232 37.7952 144.352 37.7712 144.464C38.0346 144.885 38.322 145.193 38.6841 145.557C38.8655 145.763 38.972 145.914 39.0685 146.177C39.4444 146.699 39.8303 147.108 40.3155 147.561C40.7348 147.988 41.0551 148.371 41.3649 148.871C42.8423 150.371 44.3301 151.755 45.911 153.202C46.4437 153.647 46.8832 154.031 47.3287 154.527C48.0707 155.134 48.8068 155.628 49.5693 156.123C49.5957 156.123 49.5898 156.176 49.6139 156.28C49.8854 156.484 50.1328 156.585 50.4521 156.72C50.524 156.754 50.5935 156.898 50.6153 156.998C51.0545 157.319 51.4718 157.539 51.9876 157.781C52.1408 157.842 52.1955 157.881 52.2804 158.023C52.8864 158.416 53.4623 158.706 54.136 159.034C54.3434 159.159 54.4529 159.247 54.6013 159.428C56.0567 160.177 57.4733 160.832 59.0036 161.488C59.2569 161.545 59.3965 161.601 59.577 161.756C59.9894 161.988 60.3609 162.121 60.821 162.245C61.0192 162.277 61.1289 162.319 61.2901 162.466C62.6275 162.963 63.9134 163.355 65.3103 163.736C65.5638 163.763 65.7064 163.8 65.8827 163.938C66.5581 164.179 67.1999 164.319 67.9662 164.446C68.3348 164.481 68.5789 164.528 68.8804 164.676C69.8596 164.917 70.7814 165.058 71.8249 165.183C72.353 165.211 72.7593 165.257 73.2552 165.394C76.9889 165.615 80.6325 165.762 84.2775 165.847C84.6593 165.856 85.0496 165.496 85.5555 165.273C86.0871 165.229 86.4992 165.219 87.0484 165.263C88.0517 165.076 88.9178 164.837 89.9006 164.551C90.2669 164.494 90.5164 164.482 90.8501 164.538C91.5426 164.357 92.1508 164.108 92.8616 163.815C93.112 163.766 93.2597 163.762 93.4923 163.829C94.4167 163.688 95.3023 163.581 96.0862 163.24C97.6631 162.555 99.1845 161.742 100.827 160.914C101.159 160.788 101.392 160.731 101.742 160.688C102.437 160.891 103.108 159.352 103.62 160.795C103.311 161.01 103.002 161.224 102.456 161.433C101.723 161.649 101.209 161.84 100.731 162.099C98.9253 163.08 97.1313 164.082 95.3329 165.077C95.1935 165.133 95.0541 165.189 94.7161 165.186C92.4844 165.874 90.4513 166.619 88.4183 167.365C88.3018 167.397 88.1852 167.428 87.8489 167.404C86.8836 167.586 86.1382 167.824 85.3928 168.062C85.0418 168.119 84.6908 168.177 84.1053 168.154C82.8314 168.304 81.792 168.535 80.7527 168.765C79.9704 168.821 79.1881 168.877 78.1487 168.838C76.3256 168.794 74.7595 168.846 73.1935 168.897C72.409 168.883 71.6245 168.869 70.6407 168.719C69.2635 168.45 68.0856 168.318 66.9077 168.186C66.6579 168.178 66.4081 168.17 65.9767 168.03C64.9964 167.751 64.1977 167.604 63.399 167.458C63.2844 167.457 63.1698 167.456 62.9026 167.323C61.2567 166.778 59.7634 166.364 58.2701 165.95C58.1226 165.933 57.9751 165.916 57.7017 165.735C56.635 165.218 55.6942 164.865 54.7533 164.512C54.6419 164.499 54.5304 164.486 54.299 164.322C52.066 163.052 49.9528 161.933 47.8397 160.815C47.6029 160.679 47.3661 160.544 47.0428 160.219C46.3919 159.72 45.8274 159.411 45.263 159.102C45.1126 158.989 44.9622 158.875 44.7288 158.585C43.8662 157.859 43.0868 157.311 42.3074 156.763C41.9309 156.443 41.5544 156.123 41.0959 155.612C39.9419 154.419 38.8698 153.416 37.7978 152.413C37.3376 151.946 36.8774 151.479 36.3919 150.8C36.0686 150.307 35.7706 150.026 35.4726 149.745C35.4726 149.745 35.4205 149.747 35.4121 149.608C34.7586 148.687 34.1134 147.904 33.4682 147.121Z" fill="#0B0B0A"/>
<path d="M97.8177 54.4238C103.53 54.9109 108.46 57.0565 112.926 60.3137C113.556 60.7727 114.173 61.5689 114.312 62.3007C114.504 63.3136 114.617 64.7338 114.064 65.3889C113.469 66.0921 112.029 66.4676 111.018 66.3696C105.649 65.8493 101.182 63.4371 97.586 59.4279C97.1112 58.8985 96.6333 58.3415 96.3015 57.7202C95.4927 56.2057 96.0142 55.0312 97.8177 54.4238Z" fill="#FDC92A"/>
<path d="M130.175 103.748C130.175 103.748 130.257 103.856 130.237 104.028C130.31 104.378 130.403 104.557 130.496 104.736C130.656 105.813 130.816 106.891 130.93 108.207C130.983 108.761 131.082 109.077 131.181 109.393C131.259 110.298 131.336 111.203 131.331 112.374C131.291 113.973 131.334 115.305 131.377 116.637C131.351 117.562 131.324 118.488 131.13 119.605C130.949 120.231 130.936 120.665 130.922 121.098C130.511 127.585 128.326 133.55 125.319 139.213C120.866 147.599 114.509 154.251 106.188 159.118C105.721 158.89 105.466 158.764 105.271 158.544C105.928 158.062 106.523 157.67 107.12 157.283C116.471 151.231 122.941 142.86 127.132 132.536C127.301 132.24 127.374 131.987 127.439 131.684C127.431 131.634 127.503 131.563 127.576 131.562C127.731 131.522 127.813 131.485 127.895 131.448C127.792 131.378 127.69 131.309 127.585 131.112C127.657 130.745 127.73 130.506 127.884 130.218C128.024 129.943 128.083 129.715 128.147 129.382C128.253 128.944 128.356 128.611 128.561 128.198C128.803 127.437 128.943 126.756 129.072 125.947C129.157 125.313 129.255 124.807 129.461 124.249C129.631 123.722 129.693 123.248 129.738 122.636C129.816 121.553 129.911 120.609 130.116 119.607C130.317 119.357 130.485 119.166 130.486 118.974C130.506 116.083 130.52 113.192 130.484 110.302C130.48 109.992 130.159 109.686 129.943 109.242C129.853 108.27 129.804 107.435 129.784 106.463C129.635 105.8 129.457 105.273 129.231 104.624C129.211 104.252 129.238 104.002 129.379 103.76C129.72 103.761 129.948 103.755 130.175 103.748Z" fill="#3C382F"/>
<path d="M9.84149 110.059C9.66642 106.378 10.2066 102.811 11.3185 99.2903C11.9405 97.3205 12.1064 95.2088 12.7044 93.2293C15.8212 82.911 21.3145 73.947 28.5019 65.9756C28.7416 65.7099 29.1458 65.5921 29.5863 65.3887C29.538 65.9086 29.5288 66.5779 29.1928 66.962C23.9255 72.9828 19.4113 79.4834 16.4069 86.9379C15.3581 89.5401 14.4075 92.188 13.5538 94.8603C12.9303 96.8119 12.5387 98.8376 11.908 101.009C11.6666 101.932 11.561 102.677 11.4554 103.422C11.4107 104.107 11.3661 104.793 11.1946 105.687C10.8789 106.738 10.69 107.58 10.4217 108.504C10.1754 109.076 10.0084 109.567 9.84149 110.059Z" fill="#412E09"/>
<path d="M96.1694 65.6053C101.21 67.0007 105.7 69.5289 109.873 72.5763C118.426 78.8219 124.6 86.9319 128.344 96.8504C128.766 97.9709 129.008 99.1599 129.288 100.569C128.995 101.028 128.748 101.234 128.456 101.352C128.399 101.069 128.387 100.873 128.408 100.56C128.231 99.9964 128.02 99.551 127.746 98.9929C127.62 98.5437 127.556 98.207 127.506 97.7788C127.389 97.4983 127.259 97.3094 127.058 97.021C126.922 96.6025 126.858 96.2835 126.807 95.8571C126.651 95.5475 126.484 95.3451 126.262 95.0516C126.177 94.7528 126.146 94.5451 126.129 94.2253C125.967 93.906 125.79 93.6988 125.547 93.39C123.553 89.1422 121.089 85.3436 118.119 81.8643C114.781 77.9547 110.9 74.668 106.628 71.6785C106.229 71.4042 105.869 71.2294 105.4 71.0438C104.862 70.7691 104.433 70.5052 103.973 70.1413C103.709 69.9298 103.475 69.8184 103.141 69.6995C102.922 69.6355 102.802 69.579 102.647 69.4284C102.379 69.2374 102.147 69.1405 101.804 69.031C101.031 68.7067 100.37 68.3951 99.6361 67.9835C99.1095 67.7283 98.6549 67.5732 98.0908 67.4202C97.7814 67.3433 97.5812 67.2643 97.3448 67.0884C97.0631 66.9091 96.8177 66.8267 96.4501 66.7461C96.0165 66.6649 95.7049 66.5818 95.3534 66.4045C95.0678 66.2349 94.8222 66.1595 94.5208 66.0922C94.465 66.1002 94.3761 66.031 94.3776 65.9164C94.3828 65.6492 94.3864 65.4964 94.3901 65.3437C94.537 65.3367 94.6839 65.3296 95.0299 65.4154C95.5423 65.5406 95.8559 65.5729 96.1694 65.6053Z" fill="#3C382F"/>
<path d="M83.4981 52.5377C83.9472 52.2363 84.4556 51.8097 84.7673 51.923C86.7697 52.6505 88.7665 53.4181 90.6867 54.3361C91.6658 54.8041 92.0598 55.8203 91.5797 56.8726C91.0456 58.043 90.075 57.6441 89.1554 57.3677C87.1914 56.7774 85.2662 56.1147 84.0687 54.2989C83.757 53.8263 83.6613 53.2115 83.4981 52.5377Z" fill="#FDC92A"/>
<path d="M42.7066 79.318C42.5169 79.0773 42.3273 78.8366 42.02 78.5543C45.3623 75.7695 48.8222 73.0262 52.5 70.2697C52.9045 70.0822 53.0912 69.9079 53.2778 69.7337C53.5295 69.6008 53.7811 69.4679 54.2296 69.3144C54.5984 69.1425 54.7704 68.9912 54.9424 68.8398C55.0675 68.7746 55.1925 68.7094 55.5207 68.6297C55.9038 68.452 56.0838 68.2887 56.2638 68.1254C56.3924 68.0704 56.5211 68.0155 56.8521 67.9604C57.2343 67.8042 57.4143 67.6482 57.5942 67.4921C57.7974 67.4113 58.0005 67.3305 58.4311 67.2587C58.96 67.0604 59.2614 66.853 59.5629 66.6456C59.6656 66.6049 59.7682 66.5643 60.0735 66.5547C60.5915 66.3888 60.9068 66.192 61.2221 65.9951C61.4126 65.9298 61.6031 65.8644 62.0387 65.8496C62.5786 65.9174 62.8732 65.9347 63.1904 65.9777C63.2129 66.0034 63.257 66.0557 63.2117 66.126C63.0768 66.3379 62.9872 66.4796 62.8094 66.6636C62.5923 66.7142 62.4632 66.7223 62.214 66.7128C61.6987 66.9077 61.3035 67.1203 60.8326 67.3739C60.6436 67.4185 60.5303 67.4222 60.2973 67.4096C59.8688 67.6035 59.5599 67.8138 59.1665 68.0803C58.823 68.2113 58.5641 68.2861 58.2126 68.3547C57.9377 68.4917 57.7554 68.6348 57.4651 68.8406C54.6505 70.55 51.8478 72.0612 49.2658 73.8841C46.9531 75.5169 44.8835 77.4932 42.7066 79.318Z" fill="#3C382F"/>
<path d="M94.3254 65.247C94.3864 65.4975 94.3828 65.6502 94.2392 65.9281C90.8072 65.4548 87.5137 64.8639 84.2244 64.2501C83.703 64.1528 83.2008 63.9525 82.8049 63.7429C83.2055 63.4508 83.4908 63.2156 83.7761 62.9805C86.2391 63.3169 88.7148 63.5826 91.1592 64.0224C92.2261 64.2144 93.2288 64.7628 94.3254 65.247Z" fill="#4F4C42"/>
<path d="M25.3433 129.025C25.7723 129.985 26.2056 131.032 26.5329 132.111C28.1029 137.285 30.4842 142.074 33.3574 146.748C32.0234 144.755 30.4178 142.764 29.4415 140.502C27.845 136.803 26.6583 132.928 25.3433 129.025Z" fill="#3C382F"/>
<path d="M67.3689 64.2334C69.7793 63.7782 72.1898 63.3229 74.6796 63.0215C75.3623 63.3798 75.9656 63.5843 76.4867 63.8765C73.7768 64.3312 71.1492 64.6982 68.4942 64.9385C68.1009 64.619 67.7349 64.4262 67.3689 64.2334ZM69.1455 64.1288C69.201 64.1283 69.1732 64.1285 69.1455 64.1288Z" fill="#4F4C42"/>
<path d="M32.8806 88.7969C32.186 90.2903 31.2644 91.7734 30.612 93.3665C29.0259 97.2393 27.5671 101.164 26.0487 105.065C25.931 105.367 25.7489 105.645 25.4985 106.008C26.0727 103.75 26.4936 101.306 27.475 99.1124C29.0466 95.5999 30.9898 92.2533 32.8806 88.7969Z" fill="#3C382F"/>
<path d="M24.4779 111.506C24.62 111.61 24.7498 111.814 24.7492 112.018C24.7383 115.806 24.7118 119.593 24.6149 123.489C23.4802 119.613 23.7136 115.612 24.4779 111.506Z" fill="#3C382F"/>
<path d="M9.81649 110.212C10.0084 109.568 10.1754 109.077 10.4231 108.656C10.5605 109.435 10.6171 110.144 10.6737 110.853C10.6819 111.484 10.6902 112.116 10.6916 112.884C10.6894 114.129 10.6939 115.238 10.6324 116.612C10.6388 117.445 10.7112 118.013 10.7836 118.58C10.8163 118.852 10.849 119.124 10.7461 119.479C10.3526 118.93 10.0946 118.297 9.83666 117.665C9.82161 115.232 9.80655 112.799 9.81649 110.212Z" fill="#0B0B0A"/>
<path d="M95.4437 165.107C97.1313 164.081 98.9253 163.079 100.731 162.098C101.209 161.839 101.723 161.648 102.344 161.447C100.163 162.692 97.8588 163.915 95.4437 165.107Z" fill="#3C382F"/>
<path d="M76.569 63.7867C75.9657 63.5823 75.3624 63.3778 74.7937 63.0709C77.7084 62.9546 80.5884 62.9407 83.6223 62.9527C83.4908 63.2138 83.2055 63.449 82.681 63.7541C82.1122 63.8012 81.7825 63.7783 81.3497 63.6711C79.9919 63.6447 78.7374 63.7028 77.3701 63.7829C77.0279 63.799 76.7984 63.7928 76.569 63.7867Z" fill="#0B0B0A"/>
<path d="M47.8873 160.918C49.9528 161.935 52.0659 163.054 54.2267 164.279C52.1612 163.263 50.0481 162.142 47.8873 160.918Z" fill="#3C382F"/>
<path d="M88.5153 167.408C90.4513 166.618 92.4844 165.873 94.6023 165.188C92.6622 165.983 90.6372 166.717 88.5153 167.408Z" fill="#3C382F"/>
<path d="M141.012 104.195C141.313 105.766 141.541 107.445 141.752 109.281C141.469 107.726 141.204 106.015 141.012 104.195Z" fill="#FFCE4C"/>
<path d="M103.721 160.811C103.108 159.351 102.437 160.89 101.777 160.58C102.793 159.887 103.891 159.312 104.979 158.842C104.725 159.233 104.48 159.52 104.112 159.952C104.702 159.841 105.065 159.773 105.428 159.705C104.893 160.079 104.357 160.454 103.721 160.811Z" fill="#3C382F"/>
<path d="M141.622 117.348C141.578 118.902 141.423 120.514 141.177 122.217C141.228 120.674 141.369 119.04 141.622 117.348Z" fill="#FFCE4C"/>
<path d="M10.7584 110.764C10.6171 110.144 10.5605 109.435 10.5025 108.575C10.69 107.581 10.8789 106.739 11.1607 105.812C11.1167 107.377 10.9799 109.026 10.7584 110.764Z" fill="#4F4C42"/>
<path d="M58.3499 166.035C59.7634 166.366 61.2567 166.78 62.8236 167.289C61.4081 166.962 59.9188 166.54 58.3499 166.035Z" fill="#3C382F"/>
<path d="M135.666 141.828C134.889 143.457 134 145.118 133.002 146.808C133.78 145.178 134.668 143.519 135.666 141.828Z" fill="#FFCE4C"/>
<path d="M73.3088 168.962C74.7596 168.847 76.3256 168.795 78.0018 168.818C76.5493 168.937 74.9867 168.982 73.3088 168.962Z" fill="#3C382F"/>
<path d="M128.501 101.439C128.748 101.232 128.995 101.026 129.289 100.697C129.536 101.028 129.736 101.481 129.817 101.989C129.545 102.113 129.391 102.182 129.238 102.252C129.492 102.527 129.745 102.802 129.999 103.077C130.073 103.241 130.147 103.406 130.198 103.659C129.948 103.755 129.72 103.762 129.303 103.682C128.91 102.876 128.705 102.157 128.501 101.439Z" fill="#4F4C42"/>
<path d="M126.249 67.4336C127.21 68.578 128.18 69.8387 129.159 71.2168C128.198 70.0729 127.228 68.8114 126.249 67.4336Z" fill="#FFCE4C"/>
<path d="M37.7993 152.523C38.8698 153.418 39.9419 154.42 41.0275 155.531C39.961 154.636 38.8809 153.634 37.7993 152.523Z" fill="#3C382F"/>
<path d="M66.9998 168.27C68.0856 168.321 69.2635 168.453 70.4999 168.681C69.4029 168.635 68.2474 168.493 66.9998 168.27Z" fill="#3C382F"/>
<path d="M63.2461 65.2786C63.6637 65.1693 64.0813 65.06 64.7627 64.9707C65.2948 64.9851 65.5632 64.9795 65.8554 64.9988C65.8793 65.0237 65.9271 65.0735 65.9126 65.1545C65.881 65.4019 65.8639 65.5682 65.7296 65.7999C65.1704 65.928 64.7283 65.9907 64.158 66.0358C63.7722 66.0313 63.5146 66.0445 63.257 66.0577C63.257 66.0577 63.2129 66.0054 63.2048 65.897C63.2131 65.6185 63.2296 65.4486 63.2461 65.2786Z" fill="#3C382F"/>
<path d="M80.8855 168.82C81.7921 168.537 82.8314 168.306 83.9718 168.145C83.0547 168.434 82.0365 168.654 80.8855 168.82Z" fill="#3C382F"/>
<path d="M25.2193 106.994C25.1624 107.822 25.0246 108.737 24.7897 109.71C24.8411 108.872 24.9898 107.976 25.2193 106.994Z" fill="#3C382F"/>
<path d="M24.6277 125.371C24.9117 126.111 25.1483 126.978 25.3336 127.98C25.0484 127.243 24.8144 126.37 24.6277 125.371Z" fill="#3C382F"/>
<path d="M37.8577 82.5137C37.3302 83.2838 36.6987 84.0931 35.9598 84.9128C36.4861 84.1331 37.1199 83.343 37.8577 82.5137Z" fill="#3C382F"/>
<path d="M140.347 99.8809C140.603 100.602 140.79 101.421 140.904 102.333C140.647 101.611 140.462 100.795 140.347 99.8809Z" fill="#FFCE4C"/>
<path d="M138.718 92.918C139.07 93.7662 139.352 94.7012 139.563 95.7226C139.211 94.8742 138.929 93.9395 138.718 92.918Z" fill="#FFCE4C"/>
<path d="M33.4661 147.234C34.1134 147.904 34.7585 148.687 35.413 149.583C34.7696 148.913 34.1168 148.13 33.4661 147.234Z" fill="#3C382F"/>
<path d="M54.8156 164.607C55.6941 164.866 56.635 165.22 57.606 165.678C56.7168 165.423 55.7974 165.062 54.8156 164.607Z" fill="#3C382F"/>
<path d="M42.3303 156.871C43.0868 157.311 43.8663 157.86 44.6657 158.514C43.9082 158.073 43.1307 157.526 42.3303 156.871Z" fill="#3C382F"/>
<path d="M63.4761 167.547C64.1976 167.606 64.9963 167.752 65.8573 167.992C65.1308 167.935 64.3421 167.785 63.4761 167.547Z" fill="#3C382F"/>
<path d="M85.5104 168.11C86.1382 167.826 86.8836 167.588 87.7583 167.395C87.1343 167.678 86.3811 167.917 85.5104 168.11Z" fill="#3C382F"/>
<path d="M134.406 81.3242C134.904 82.057 135.342 82.8695 135.785 83.8041C135.309 83.0854 134.827 82.2447 134.406 81.3242Z" fill="#FFCE4C"/>
<path d="M67.2426 64.2305C67.7349 64.4238 68.1009 64.6166 68.3932 64.9812C68.0275 65.1698 67.7356 65.1867 67.2947 65.1612C66.7396 65.1034 66.3333 65.0879 65.9271 65.0724C65.9271 65.0724 65.8794 65.0226 65.8701 64.9178C65.8832 64.705 65.8904 64.5961 65.8824 64.4862C66.2937 64.4008 66.705 64.3153 67.2426 64.2305Z" fill="#3C382F"/>
<path d="M11.5255 103.326C11.561 102.678 11.6666 101.933 11.8621 101.135C11.8332 101.797 11.7144 102.514 11.5255 103.326Z" fill="#4F4C42"/>
<path d="M132.884 78.3594C133.396 78.9618 133.914 79.6822 134.428 80.5247C133.912 79.9237 133.401 79.2005 132.884 78.3594Z" fill="#FFCE4C"/>
<path d="M130.575 74.0469C131.092 74.643 131.61 75.3575 132.134 76.1919C131.619 75.5962 131.098 74.8808 130.575 74.0469Z" fill="#FFCE4C"/>
<path d="M140.731 124.371C140.688 124.941 140.552 125.586 140.315 126.272C140.355 125.69 140.497 125.068 140.731 124.371Z" fill="#FFCE4C"/>
<path d="M132.024 148.783C131.684 149.419 131.238 150.086 130.686 150.784C131.027 150.148 131.472 149.482 132.024 148.783Z" fill="#FFCE4C"/>
<path d="M139.507 96.5762C139.781 97.063 140.039 97.6755 140.225 98.374C139.932 97.8739 139.711 97.2879 139.507 96.5762Z" fill="#FFCE4C"/>
<path d="M131.418 116.495C131.334 115.308 131.291 113.976 131.308 112.529C131.398 113.726 131.428 115.038 131.418 116.495Z" fill="#4F4C42"/>
<path d="M105.505 159.665C105.065 159.774 104.702 159.842 104.112 159.953C104.48 159.521 104.725 159.233 105.025 158.796C105.08 158.646 105.211 158.639 105.211 158.639C105.466 158.765 105.721 158.891 106.07 159.129C105.969 159.368 105.776 159.496 105.505 159.665Z" fill="#0B0B0A"/>
<path d="M140.062 128.012C140.011 128.475 139.87 129.013 139.629 129.585C139.677 129.108 139.824 128.597 140.062 128.012Z" fill="#FFCE4C"/>
<path d="M45.299 159.207C45.8274 159.413 46.3919 159.722 46.986 160.133C46.4555 159.926 45.8952 159.618 45.299 159.207Z" fill="#3C382F"/>
<path d="M34.2485 86.8672C34.0288 87.387 33.7088 87.9472 33.2849 88.5328C33.5033 88.008 33.8257 87.4578 34.2485 86.8672Z" fill="#3C382F"/>
<path d="M137.973 135.863C137.868 136.274 137.656 136.723 137.337 137.207C137.443 136.795 137.655 136.349 137.973 135.863Z" fill="#FFCE4C"/>
<path d="M137.213 88.6113C137.524 88.8869 137.815 89.2809 138.089 89.7963C137.779 89.5217 137.486 89.1258 137.213 88.6113Z" fill="#FFCE4C"/>
<path d="M138.058 90.9219C138.341 91.2235 138.562 91.6001 138.772 92.0957C138.505 91.8087 138.25 91.4028 138.058 90.9219Z" fill="#FFCE4C"/>
<path d="M139.399 130.662C139.338 131.121 139.196 131.658 138.955 132.229C139.01 131.755 139.164 131.248 139.399 130.662Z" fill="#FFCE4C"/>
<path d="M135.864 84.9766C136.125 85.2599 136.387 85.655 136.582 86.129C136.298 85.8348 136.081 85.4615 135.864 84.9766Z" fill="#FFCE4C"/>
<path d="M138.654 133.879C138.605 134.264 138.46 134.684 138.213 135.162C138.26 134.785 138.409 134.349 138.654 133.879Z" fill="#FFCE4C"/>
<path d="M63.1487 65.2559C63.2296 65.4477 63.2131 65.6177 63.1823 65.8703C62.8733 65.9358 62.5786 65.9185 62.1404 65.8586C62.3483 65.622 62.6998 65.428 63.1487 65.2559Z" fill="#4F4C42"/>
<path d="M131 121.019C130.936 120.667 130.949 120.233 131.038 119.73C131.101 120.087 131.089 120.512 131 121.019Z" fill="#4F4C42"/>
<path d="M125.262 66.0996C125.562 66.2593 125.867 66.5304 126.182 66.9118C125.885 66.7518 125.576 66.4814 125.262 66.0996Z" fill="#FFCE4C"/>
<path d="M137.089 137.922C137.04 138.196 136.893 138.52 136.652 138.87C136.703 138.587 136.847 138.279 137.089 137.922Z" fill="#FFCE4C"/>
<path d="M136.549 86.9453C136.805 87.1293 137.054 87.422 137.244 87.7864C136.97 87.59 136.756 87.322 136.549 86.9453Z" fill="#FFCE4C"/>
<path d="M35.4782 149.85C35.7706 150.026 36.0686 150.308 36.3591 150.697C36.0624 150.522 35.7731 150.238 35.4782 149.85Z" fill="#3C382F"/>
<path d="M65.7764 64.4688C65.8904 64.5987 65.8832 64.7076 65.8462 64.8955C65.5632 64.9811 65.2948 64.9866 64.8937 64.9689C65.064 64.78 65.3672 64.6144 65.7764 64.4688Z" fill="#4F4C42"/>
<path d="M96.1219 65.5218C95.8558 65.5738 95.5423 65.5414 95.1399 65.4281C95.3921 65.3773 95.7332 65.4074 96.1219 65.5218Z" fill="#4F4C42"/>
<path d="M131.232 109.301C131.082 109.08 130.983 108.764 130.913 108.342C131.056 108.559 131.169 108.882 131.232 109.301Z" fill="#4F4C42"/>
<path d="M130.008 102.955C129.745 102.802 129.492 102.527 129.238 102.252C129.391 102.182 129.545 102.113 129.788 102.076C129.925 102.35 129.971 102.591 130.008 102.955Z" fill="#3C382F"/>
<path d="M61.11 65.9941C60.9068 66.1962 60.5915 66.393 60.1569 66.5658C60.3577 66.3575 60.6778 66.1732 61.11 65.9941Z" fill="#4F4C42"/>
<path d="M59.4509 66.6426C59.2614 66.8551 58.96 67.0625 58.5417 67.2558C58.7296 67.0403 59.0343 66.8389 59.4509 66.6426Z" fill="#4F4C42"/>
<path d="M132.719 147.477C132.679 147.664 132.539 147.879 132.3 148.121C132.34 147.933 132.48 147.719 132.719 147.477Z" fill="#FFCE4C"/>
<path d="M35.5739 85.1934C35.5398 85.3949 35.4085 85.6253 35.1685 85.8675C35.1987 85.6603 35.3377 85.4413 35.5739 85.1934Z" fill="#3C382F"/>
<path d="M38.9614 81.3652C38.931 81.5548 38.8084 81.7386 38.5989 81.9332C38.6311 81.7491 38.7502 81.5543 38.9614 81.3652Z" fill="#3C382F"/>
<path d="M130.54 104.677C130.403 104.56 130.31 104.381 130.233 104.098C130.361 104.201 130.472 104.408 130.54 104.677Z" fill="#4F4C42"/>
<path d="M132.216 77.0234C132.404 77.0844 132.601 77.2488 132.809 77.5162C132.623 77.4551 132.424 77.291 132.216 77.0234Z" fill="#FFCE4C"/>
<path d="M53.1826 69.7461C53.0912 69.9094 52.9045 70.0837 52.613 70.252C52.7013 70.083 52.8943 69.9201 53.1826 69.7461Z" fill="#4F4C42"/>
<path d="M54.8514 68.832C54.7704 68.9915 54.5984 69.1428 54.335 69.2926C54.4159 69.1353 54.588 68.9796 54.8514 68.832Z" fill="#4F4C42"/>
<path d="M56.1681 68.1211C56.0838 68.2906 55.9038 68.4539 55.6255 68.6136C55.709 68.445 55.8907 68.2799 56.1681 68.1211Z" fill="#4F4C42"/>
<path d="M57.5027 67.4902C57.4143 67.6498 57.2344 67.8059 56.9578 67.9554C57.0444 67.7948 57.2278 67.6407 57.5027 67.4902Z" fill="#4F4C42"/>
<path d="M9.7912 117.785C10.0946 118.297 10.3526 118.929 10.7165 119.613C10.8225 119.664 10.8706 119.576 10.8816 119.718C10.9846 120.317 11.0766 120.775 11.1686 121.234C11.3151 122.483 11.4617 123.732 11.5817 125.21C11.6528 125.706 11.7504 125.973 11.8479 126.239C13.0476 132.115 14.6686 137.851 17.1255 143.35C22.4925 155.364 30.6443 165.009 41.4964 172.431C47.8956 176.808 54.8944 179.88 62.2765 182.124C63.6753 182.549 65.1701 182.66 66.8206 182.97C67.1883 183.026 67.356 183.027 67.5237 183.029C69.3307 183.306 71.1377 183.582 73.0727 183.937C73.194 184.082 73.1872 184.149 73.1879 184.32C73.2004 184.631 73.2056 184.837 73.2108 185.044C69.7409 184.533 66.1911 184.331 62.8153 183.457C50.1898 180.19 39.2945 173.823 30.0931 164.576C22.5577 157.003 17.1186 148.105 13.6327 138.057C11.3757 131.551 9.83521 124.855 9.7912 117.785Z" fill="#412E09"/>
<path d="M84.7032 183.801C87.8799 183.312 91.0546 182.81 94.2368 182.36C94.5003 182.323 94.8148 182.646 95.1997 182.871C95.1166 183.181 94.9694 183.602 94.7577 183.638C91.6216 184.161 88.477 184.633 85.1676 184.983C84.9201 184.637 84.8395 184.426 84.7466 184.111C84.724 183.939 84.7136 183.87 84.7032 183.801Z" fill="#412E09"/>
<path d="M84.7588 184.214C84.8395 184.424 84.9201 184.635 85.0249 184.928C84.3819 185.057 83.7149 185.104 82.7931 185.062C80.3049 185.025 78.0715 185.077 75.8381 185.13C75.0577 185.12 74.2774 185.11 73.3539 185.072C73.2056 184.837 73.2004 184.63 73.3336 184.305C74.2478 184.17 75.0236 184.153 75.7995 184.137C78.0345 184.168 80.2695 184.2 82.7877 184.225C83.6336 184.217 84.1962 184.215 84.7588 184.214Z" fill="black"/>
<path d="M75.9536 185.197C78.0715 185.077 80.3049 185.025 82.6496 185.049C80.5302 185.171 78.2997 185.217 75.9536 185.197Z" fill="#412E09"/>
<path d="M75.7633 184.024C75.0236 184.153 74.2478 184.169 73.3262 184.201C73.1872 184.148 73.1939 184.08 73.2144 183.912C74.0611 183.845 74.8941 183.879 75.7633 184.024Z" fill="#FD9E1B"/>
<path d="M10.8644 118.513C10.7112 118.012 10.6389 117.445 10.6218 116.762C10.7665 117.246 10.8559 117.846 10.8644 118.513Z" fill="#4F4C42"/>
<path d="M84.7466 184.112C84.1962 184.217 83.6336 184.219 82.9378 184.179C83.3784 183.98 83.9521 183.824 84.6145 183.734C84.7137 183.871 84.7241 183.939 84.7466 184.112Z" fill="#FD9E1B"/>
<path d="M11.2177 121.152C11.0766 120.776 10.9846 120.318 10.9278 119.738C11.0642 120.101 11.1655 120.585 11.2177 121.152Z" fill="#4F4C42"/>
<path d="M11.8951 126.157C11.7504 125.973 11.6528 125.706 11.5813 125.352C11.7191 125.534 11.8306 125.804 11.8951 126.157Z" fill="#4F4C42"/>
<path d="M67.5034 182.956C67.356 183.027 67.1883 183.025 66.9625 182.956C67.0973 182.887 67.2902 182.886 67.5034 182.956Z" fill="#FD9E1B"/>
<path d="M52.2809 35.2239C52.9161 34.0691 53.8309 32.9678 54.1323 31.7188C54.6975 29.3766 55.5764 26.8171 55.1352 24.5823C53.9906 18.7849 51.5458 13.5343 45.9202 10.5634C45.0607 10.1094 43.7172 10.2743 43.1347 9.65163C41.7548 8.17663 40.1306 8.94737 38.4695 8.69559C39.4857 8.37218 40.6847 7.73691 41.8246 7.82942C51.4084 8.60722 58.5395 16.7987 58.6097 25.5303C58.6571 31.4323 56.5117 36.219 51.9315 40.1675C51.4385 40.6944 51.1571 41.1463 50.767 41.5436C50.4262 40.4882 50.1942 39.4874 50.0755 38.4678C50.8959 37.371 51.603 36.293 52.3102 35.2149C52.3102 35.2149 52.2837 35.2107 52.2809 35.2239Z" fill="#FFA11E"/>
<path d="M50.8757 41.5975C51.1571 41.1456 51.4385 40.6937 51.8334 40.2188C51.9561 41.0761 51.9653 41.9566 51.9883 42.9813C51.9552 43.1625 51.9083 43.1994 51.7096 43.2191C51.3304 42.6671 51.1031 42.1323 50.8757 41.5975Z" fill="#FDC92A"/>
<path d="M35.7156 34.0812C36.3619 33.6702 36.9921 33.3515 37.6535 33.1228C39.2124 32.5839 40.7855 32.0857 42.3542 31.575C44.2638 30.9533 46.1952 30.3911 48.0791 29.6998C49.8031 29.0672 50.9721 29.7137 51.3013 31.7481C48.3034 34.3602 45.053 36.3816 41.1129 36.9903C40.0399 37.156 38.9319 37.2271 37.8495 37.1674C36.4815 37.0919 35.7567 35.998 35.7156 34.0812Z" fill="#F52D40"/>
<path d="M50.7669 41.5425C51.1031 42.132 51.3304 42.6668 51.6392 43.274C51.7824 43.7568 51.8442 44.1672 51.939 44.8054C52.1629 45.2173 52.354 45.4014 52.5451 45.5855C52.7947 46.2567 53.0444 46.9279 53.3134 47.7846C53.3328 47.9702 53.3042 48.1276 53.3042 48.1276C50.7018 49.6845 47.6572 49.2148 46.4855 46.7735C45.2827 44.2675 45.5758 38.4259 49.1932 37.0078C49.5655 37.5589 49.7638 38.0222 49.9622 38.4856C50.1942 39.4863 50.4261 40.4871 50.7669 41.5425Z" fill="#F52D40"/>
<path d="M50.0754 38.4661C49.7639 38.0215 49.5655 37.5582 49.3054 36.9887C50.1793 36.3246 51.115 35.7666 52.1804 35.2109C51.603 36.2912 50.8959 37.3693 50.0754 38.4661Z" fill="black"/>
<path d="M53.3773 48.1195C53.3042 48.1282 53.3328 47.9708 53.363 47.8969C53.4586 47.8565 53.5095 47.905 53.5682 48.0174C53.5905 48.066 53.4503 48.1108 53.3773 48.1195Z" fill="#FFA11E"/>
<path d="M52.5509 45.4745C52.354 45.4016 52.163 45.2175 51.9666 44.9297C52.1597 45.0051 52.3582 45.1842 52.5509 45.4745Z" fill="#FFA11E"/>
<path d="M105.271 158.546C105.211 158.639 105.08 158.646 105.034 158.693C103.891 159.314 102.793 159.888 101.66 160.568C101.392 160.732 101.159 160.789 100.714 160.893C98.1377 161.879 95.7726 162.818 93.4075 163.758C93.2597 163.762 93.1119 163.767 92.7439 163.78C91.9378 164.017 91.3518 164.244 90.7658 164.471C90.5163 164.483 90.2669 164.494 89.7759 164.507C88.6599 164.743 87.7856 164.976 86.9112 165.21C86.4991 165.219 86.0871 165.229 85.4379 165.223C81.189 165.239 77.1773 165.271 73.1655 165.303C72.7592 165.257 72.3529 165.212 71.738 165.102C70.6273 164.884 69.7251 164.73 68.823 164.576C68.5789 164.529 68.3348 164.481 67.8822 164.364C67.0655 164.142 66.4573 163.99 65.849 163.837C65.7064 163.8 65.5637 163.763 65.2243 163.659C63.7644 163.182 62.5015 162.771 61.2385 162.36C61.1288 162.319 61.0191 162.278 60.7669 162.157C60.2616 161.937 59.8988 161.797 59.536 161.657C59.3965 161.601 59.2569 161.545 58.9434 161.39C57.3671 160.638 55.9647 159.986 54.5624 159.334C54.4529 159.247 54.3433 159.16 54.1063 158.928C53.4026 158.495 52.8264 158.208 52.2502 157.92C52.1955 157.881 52.1408 157.842 51.9624 157.681C51.4236 157.338 51.0086 157.118 50.5935 156.898C50.5935 156.898 50.524 156.755 50.4245 156.622C50.0799 156.385 49.8348 156.281 49.5897 156.176C49.5897 156.176 49.5957 156.124 49.5545 156.015C48.7831 155.409 48.0529 154.912 47.3227 154.414C46.8832 154.031 46.4436 153.648 45.8982 153.098C44.32 151.539 42.8476 150.147 41.3752 148.755C41.055 148.371 40.7348 147.988 40.3042 147.456C39.8221 146.893 39.4503 146.479 39.0786 146.065C38.972 145.914 38.8654 145.764 38.6968 145.45C38.3549 144.976 38.075 144.664 37.7952 144.352C37.7952 144.352 37.7888 144.232 37.7406 144.078C37.2725 143.422 36.8526 142.919 36.4327 142.415C36.3175 142.159 36.2022 141.903 35.9863 141.479C35.303 140.343 34.7205 139.375 34.138 138.407C34.1141 138.283 34.0902 138.159 34.0043 137.845C33.0308 135.679 32.1193 133.703 31.2078 131.728C31.2046 131.616 31.2014 131.505 31.1975 131.224C30.6909 129.468 30.1851 127.882 29.6792 126.295C29.6797 126.147 29.6803 125.999 29.6736 125.62C29.4369 124.59 29.2073 123.791 28.9777 122.991C28.9657 122.638 28.9538 122.284 28.9437 121.664C28.7236 119.615 28.5016 117.831 28.2797 116.048C28.2996 115.351 28.3195 114.654 28.3777 113.7C28.5675 111.528 28.7189 109.613 28.8703 107.698C28.9174 107.349 28.9644 107.001 29.0671 106.423C29.2806 105.373 29.4385 104.553 29.5964 103.732C29.6353 103.59 29.6742 103.448 29.7683 103.098C30.2588 101.302 30.6942 99.7134 31.1295 98.1251C31.2016 98.0375 31.2401 97.9369 31.321 97.6846C31.5307 97.1751 31.6645 96.8048 31.7983 96.4345C31.8508 96.2945 31.9033 96.1546 32.0425 95.8278C33.0377 93.7001 33.9462 91.7593 34.8547 89.8185C35.0651 89.5236 35.2755 89.2287 35.5956 88.7629C36.1162 87.9021 36.5271 87.2121 36.938 86.5221C37.1938 86.1839 37.4495 85.8458 37.8298 85.3579C38.316 84.6641 38.6777 84.1199 39.0394 83.5756C39.4513 83.0984 39.8631 82.6211 40.4365 82.0371C40.9136 81.4715 41.2291 81.0127 41.5446 80.5539C41.8996 80.2057 42.2546 79.8575 42.658 79.4145C44.8835 77.495 46.9531 75.5187 49.2658 73.8858C51.8478 72.0629 54.6505 70.5518 57.5571 68.8573C57.9398 68.6606 58.1224 68.5116 58.3051 68.3625C58.5641 68.2878 58.823 68.213 59.2791 68.0849C59.7898 67.8302 60.1034 67.6289 60.4169 67.4275C60.5302 67.4239 60.6436 67.4202 60.9476 67.3892C61.537 67.152 61.9355 66.9421 62.334 66.7322C62.4631 66.724 62.5922 66.7159 62.9222 66.681C63.5107 66.4539 63.8985 66.2535 64.2862 66.0532C64.7282 65.9904 65.1703 65.9277 65.8332 65.827C66.5171 65.5941 66.9803 65.3991 67.4435 65.2042C67.7355 65.1874 68.0275 65.1706 68.4205 65.1086C71.1492 64.6965 73.7768 64.3295 76.4866 63.8748C76.7984 63.7932 77.0278 63.7993 77.4846 63.8466C78.9588 63.8438 80.2058 63.7998 81.4528 63.7559C81.7824 63.7787 82.1121 63.8016 82.5657 63.8114C83.2008 63.9511 83.703 64.1514 84.2244 64.2487C87.5136 64.8625 90.8071 65.4534 94.2376 66.0412C94.376 66.0306 94.4649 66.0998 94.5728 66.1771C94.9182 66.3357 95.1558 66.417 95.3933 66.4984C95.7049 66.5814 96.0164 66.6645 96.51 66.8226C96.9217 66.9934 97.1514 67.0891 97.3811 67.1848C97.5812 67.2639 97.7813 67.3429 98.1587 67.4919C98.7934 67.7356 99.2507 67.9093 99.708 68.0831C100.37 68.3947 101.031 68.7063 101.846 69.1196C102.227 69.3216 102.455 69.4219 102.682 69.5221C102.802 69.5786 102.922 69.6351 103.188 69.7872C103.557 70.0022 103.78 70.1216 104.003 70.241C104.433 70.5048 104.862 70.7687 105.463 71.1242C105.978 71.4031 106.322 71.5903 106.666 71.7775C110.9 74.6676 114.781 77.9542 118.119 81.8638C121.089 85.3432 123.553 89.1418 125.547 93.4922C125.78 93.9099 125.947 94.1234 126.115 94.3369C126.146 94.5446 126.177 94.7524 126.255 95.1523C126.466 95.5511 126.63 95.7576 126.794 95.964C126.858 96.2831 126.922 96.6021 127.034 97.1085C127.218 97.4873 127.355 97.6786 127.493 97.87C127.556 98.2066 127.62 98.5433 127.723 99.0963C127.967 99.7677 128.171 100.223 128.375 100.678C128.387 100.873 128.399 101.068 128.456 101.352C128.705 102.159 128.91 102.877 129.19 103.675C129.238 104.004 129.211 104.254 129.207 104.749C129.405 105.529 129.58 106.066 129.755 106.602C129.804 107.437 129.853 108.272 129.909 109.396C129.946 113.012 129.976 116.339 130.005 119.667C129.911 120.611 129.816 121.555 129.662 122.726C129.519 123.403 129.436 123.853 129.353 124.304C129.255 124.809 129.157 125.315 128.998 126.031C128.777 126.922 128.618 127.601 128.459 128.28C128.356 128.613 128.253 128.946 128.063 129.428C127.918 129.807 127.861 130.037 127.804 130.267C127.73 130.507 127.657 130.747 127.536 131.188C127.494 131.447 127.498 131.506 127.503 131.565C127.503 131.565 127.431 131.636 127.351 131.738C127.193 132.087 127.114 132.334 127.036 132.581C122.941 142.862 116.471 151.232 107.12 157.285C106.522 157.672 105.928 158.064 105.271 158.546ZM73.6794 87.8504C73.702 87.648 73.7246 87.4456 73.7162 87.0043C73.5584 86.8686 73.3534 86.5858 73.2498 86.6189C71.0999 87.3068 68.9512 88.0029 66.835 88.7855C66.5968 88.8736 66.5547 89.4908 66.4216 89.8626C66.8388 90.0063 67.2618 90.2769 67.6713 90.2577C68.0735 90.2389 68.4618 89.9257 69.0448 89.757C69.1891 89.6475 69.3334 89.5381 69.7179 89.4332C69.8739 89.399 70.0299 89.3647 70.3723 89.3771C70.5328 89.2056 70.6934 89.0341 71.0966 88.8577C71.5674 88.7453 72.0382 88.6328 72.6492 88.6362C72.9388 88.3835 73.2284 88.1308 73.5011 87.8674C73.5011 87.8674 73.5114 87.8845 73.6794 87.8504ZM103.224 97.9437C103.035 97.8006 102.846 97.6575 102.577 97.3027C102.074 96.7227 101.573 96.1413 101.068 95.563C100.112 94.4687 99.6477 94.5414 98.8557 95.8489C100.054 97.4518 101.254 99.0181 102.407 100.618C102.902 101.305 103.396 101.417 104.213 100.765C104.154 100.411 104.095 100.056 104.019 99.477C103.753 99.0296 103.487 98.5821 103.224 97.9437ZM90.8242 87.9831C89.8881 87.8174 89.0673 87.977 89.3175 89.1448C89.5246 90.111 94.9193 92.5672 95.9277 92.2898C95.9732 92.2772 96.005 92.2149 96.2385 92.1266C96.1705 91.8164 96.1026 91.5063 95.913 91.0098C94.497 90.1895 93.081 89.3691 91.6443 88.3604C91.4528 88.2617 91.2613 88.163 90.8242 87.9831ZM55.3949 104.904C59.6208 110.314 63.8276 115.74 68.0878 121.123C68.9897 122.263 70.0865 123.248 71.2607 124.51C72.3642 125.07 73.4147 125.801 74.5801 126.162C80.8154 128.089 87.0732 129.945 93.3359 131.782C96.5786 132.734 99.8474 133.597 103.259 134.67C106.174 135.595 109.084 136.537 112.009 137.43C112.525 137.588 113.104 137.542 113.654 137.591C113.526 137.005 113.575 136.282 113.244 135.853C105.551 125.897 97.8348 115.96 90.0725 106.059C89.0075 104.7 87.6774 103.549 86.3215 102.138C82.3894 100.849 78.4584 99.5568 74.5248 98.2723C72.5137 97.6155 70.4981 96.9724 68.4746 96.1941C68.3136 96.1625 68.1526 96.1309 67.7167 96.1085C67.1989 95.9622 66.6812 95.8158 66.1582 95.5368C65.9927 95.4916 65.8272 95.4464 65.3864 95.4059C64.8538 95.2865 64.3211 95.1671 63.7761 94.8742C63.5844 94.8095 63.3926 94.7449 62.9176 94.6575C62.6397 94.6013 62.3618 94.5452 62.1722 94.256C62.2836 94.0704 62.4422 93.8977 62.4976 93.6967C62.6654 93.0873 62.7933 92.4669 62.9368 91.8508C62.3045 91.9383 61.6372 91.9276 61.0482 92.1369C60.2028 92.4374 59.4145 92.8983 58.3268 93.2519C56.0179 92.5964 53.7042 91.9571 51.4015 91.2802C49.4659 90.7112 47.553 90.0622 45.6068 89.534C45.1951 89.4222 44.6825 89.6809 44.2164 89.7689C44.3363 90.2683 44.3325 90.8503 44.6006 91.2507C45.2395 92.205 45.9914 93.0863 46.7252 93.9743C48.5362 96.1656 50.3627 98.3442 52.2436 100.739C52.5917 101.289 52.9398 101.84 53.0955 102.53C52.5693 103.791 51.9717 105.028 51.5625 106.325C51.4465 106.692 51.8803 107.233 52.062 107.694C52.5114 107.487 53.0655 107.38 53.3809 107.047C53.6963 106.714 53.6841 106.084 53.9785 105.715C54.2962 105.316 54.8029 105.067 55.3949 104.904ZM88.082 155.552C88.5972 155.958 89.0736 156.431 89.6357 156.756C90.8468 157.457 93.2785 157.234 94.282 156.188C95.3435 155.082 96.3403 153.826 95.8437 152.092C95.3024 150.202 94.1114 148.66 92.1479 148.6C90.8329 148.559 89.1739 149.181 88.2273 150.089C86.7135 151.54 86.6642 153.515 88.082 155.552ZM117.958 107.04C118.568 106.795 119.228 106.631 119.777 106.29C121.908 104.966 122.498 102.664 121.3 100.578C120.04 98.3825 117.724 97.678 115.532 98.8232C113.87 99.6909 112.929 101.678 113.299 103.535C113.705 105.575 115.356 106.897 117.958 107.04ZM71.5538 76.1865C71.1391 73.6069 69.4186 72.1821 66.8939 72.3273C64.8049 72.4475 62.9767 74.3183 62.8959 76.4186C62.8011 78.8819 64.6068 80.7969 67.1332 80.912C69.6353 81.026 71.4514 79.2026 71.5538 76.1865ZM41.9752 131.184C42.4287 130.988 42.9061 130.834 43.3315 130.589C45.5796 129.296 46.2482 126.397 44.7919 124.34C43.3798 122.346 40.2514 121.951 38.3764 123.53C37.1373 124.574 36.581 126.763 37.1485 128.362C37.7795 130.141 39.4745 131.203 41.9752 131.184ZM50.4514 118.496C50.9388 118.845 51.4263 119.193 51.9137 119.542C52.1408 118.981 52.531 118.43 52.5633 117.859C52.6468 116.38 52.6691 114.882 52.5128 113.414C52.4516 112.839 51.8485 112.321 51.4922 111.777C51.0943 112.334 50.4062 112.864 50.3545 113.451C50.2154 115.03 50.348 116.632 50.4514 118.496ZM55.5641 127.418C54.9713 126.062 54.4532 124.666 53.7454 123.373C53.4961 122.918 52.7821 122.717 52.2803 122.4C52.1048 122.967 51.6452 123.635 51.805 124.082C52.3734 125.673 53.081 127.228 53.8993 128.706C54.1228 129.11 55.0176 129.502 55.4329 129.368C56.407 129.055 56.0674 128.291 55.5641 127.418ZM78.7471 143.468C80.883 143.378 83.0244 143.347 85.1499 143.147C85.5527 143.109 85.8921 142.4 86.2607 142.001C85.7701 141.729 85.2754 141.219 84.7896 141.227C83.1579 141.255 81.5232 141.42 79.9022 141.629C79.0436 141.74 78.2711 142.099 78.7471 143.468ZM73.1784 140.936C71.7143 140.48 70.2683 139.943 68.7763 139.614C68.252 139.499 67.6147 139.895 67.029 140.058C67.3584 140.56 67.5766 141.317 68.0377 141.518C69.4938 142.153 71.0185 142.676 72.565 143.034C73.1101 143.16 73.7946 142.686 74.4154 142.486C74.0871 141.994 73.7588 141.503 73.1784 140.936ZM92.3817 138.367C91.9426 138.593 91.3957 138.724 91.0908 139.068C90.68 139.532 90.4556 140.161 90.1512 140.719C90.7428 140.819 91.4699 141.187 91.9015 140.969C93.4572 140.185 94.9539 139.261 96.3755 138.253C96.6878 138.032 96.5997 137.247 96.696 136.722C96.1617 136.707 95.5511 136.52 95.1091 136.714C94.2177 137.107 93.4179 137.707 92.3817 138.367ZM106.273 111.22C106.707 111.576 107.142 111.931 107.576 112.286C107.798 111.789 108.272 111.251 108.197 110.804C107.92 109.137 107.538 107.475 107.023 105.866C106.882 105.428 106.134 105.183 105.665 104.85C105.472 105.401 105.044 105.993 105.13 106.497C105.385 108.001 105.843 109.472 106.273 111.22ZM108.243 117.101C107.025 116.174 106.562 116.33 106.299 117.71C106.012 119.219 105.622 120.712 105.406 122.23C105.33 122.762 105.639 123.348 105.772 123.909C106.293 123.56 107.157 123.301 107.276 122.847C107.744 121.053 107.98 119.198 108.243 117.101ZM62.8621 136.091C61.7639 135.091 60.7174 134.023 59.5388 133.129C59.1408 132.827 58.4082 132.965 57.8286 132.902C57.9099 133.444 57.7974 134.171 58.1073 134.497C59.2408 135.69 60.4604 136.822 61.7696 137.816C62.1624 138.115 62.9526 137.891 63.5607 137.907C63.3888 137.353 63.2168 136.799 62.8621 136.091ZM82.4167 87.7569C82.9606 87.8113 83.5226 87.9742 84.0429 87.8874C84.501 87.811 84.9124 87.4553 85.3444 87.223C85.0104 86.9105 84.7072 86.3745 84.3371 86.3235C82.6121 86.0857 80.8704 85.9334 79.1303 85.8736C78.804 85.8624 78.4584 86.4129 78.1216 86.7042C78.4709 86.9893 78.7903 87.4613 79.1754 87.5228C80.1423 87.6771 81.1388 87.6458 82.4167 87.7569Z" fill="#CEDAEC"/>
<path d="M73.2552 165.394C77.1773 165.271 81.189 165.239 85.3184 165.257C85.0496 165.496 84.6593 165.856 84.2775 165.847C80.6325 165.762 76.9889 165.615 73.2552 165.394Z" fill="#3C382F"/>
<path d="M93.4923 163.829C95.7726 162.818 98.1377 161.879 100.616 160.961C99.1844 161.742 97.663 162.555 96.0862 163.24C95.3023 163.581 94.4167 163.688 93.4923 163.829Z" fill="#3C382F"/>
<path d="M28.77 107.754C28.719 109.613 28.5675 111.528 28.348 113.554C28.4097 111.713 28.5396 109.761 28.77 107.754Z" fill="#3C382F"/>
<path d="M28.2076 116.16C28.5016 117.832 28.7236 119.616 28.8961 121.541C27.5406 120.019 28.2273 118.094 28.2076 116.16Z" fill="#3C382F"/>
<path d="M31.1613 131.857C32.1193 133.703 33.0308 135.679 33.9401 137.773C33.3967 136.989 32.7832 136.12 32.334 135.174C31.8477 134.15 31.5147 133.053 31.1613 131.857Z" fill="#3C382F"/>
<path d="M41.3649 148.871C42.8476 150.147 44.32 151.539 45.8051 153.035C44.3301 151.756 42.8423 150.372 41.3649 148.871Z" fill="#3C382F"/>
<path d="M34.7531 89.8535C33.9462 91.76 33.0378 93.7008 32.0387 95.7153C32.2444 94.9065 32.4627 93.9873 32.8563 93.1505C33.3836 92.0295 34.0467 90.9723 34.7531 89.8535Z" fill="#3C382F"/>
<path d="M29.6065 126.385C30.1851 127.88 30.6909 129.466 31.1553 131.149C30.5872 129.655 30.0605 128.066 29.6065 126.385Z" fill="#3C382F"/>
<path d="M31.028 98.1934C30.6942 99.7135 30.2588 101.302 29.7573 102.988C30.1029 101.477 30.5146 99.8693 31.028 98.1934Z" fill="#3C382F"/>
<path d="M54.6013 159.43C55.9647 159.987 57.3671 160.639 58.8296 161.39C57.4732 160.834 56.0567 160.179 54.6013 159.43Z" fill="#3C382F"/>
<path d="M61.29 162.467C62.5015 162.772 63.7645 163.182 65.1134 163.67C63.9134 163.356 62.6275 162.964 61.29 162.467Z" fill="#3C382F"/>
<path d="M87.0484 165.264C87.7856 164.978 88.66 164.744 89.6591 164.555C88.9178 164.839 88.0517 165.078 87.0484 165.264Z" fill="#3C382F"/>
<path d="M68.8804 164.678C69.7252 164.732 70.6273 164.885 71.6163 165.12C70.7814 165.06 69.8596 164.919 68.8804 164.678Z" fill="#3C382F"/>
<path d="M28.9067 123.086C29.2073 123.791 29.4369 124.59 29.6313 125.516C29.3426 124.822 29.0891 124.002 28.9067 123.086Z" fill="#3C382F"/>
<path d="M34.11 138.529C34.7205 139.375 35.303 140.343 35.8923 141.426C35.2934 140.578 34.6877 139.615 34.11 138.529Z" fill="#3C382F"/>
<path d="M29.4892 103.768C29.4385 104.553 29.2806 105.374 29.0513 106.292C29.1139 105.527 29.2479 104.665 29.4892 103.768Z" fill="#3C382F"/>
<path d="M47.3287 154.525C48.053 154.91 48.7832 155.407 49.5282 156.013C48.8068 155.626 48.0707 155.132 47.3287 154.525Z" fill="#3C382F"/>
<path d="M90.8501 164.54C91.3518 164.246 91.9378 164.018 92.6414 163.826C92.1508 164.11 91.5426 164.359 90.8501 164.54Z" fill="#3C382F"/>
<path d="M65.8827 163.939C66.4573 163.991 67.0655 164.144 67.7577 164.378C67.1999 164.32 66.5581 164.18 65.8827 163.939Z" fill="#3C382F"/>
<path d="M36.8254 86.5332C36.5271 87.2128 36.1162 87.9028 35.6142 88.6563C35.9197 87.9944 36.3162 87.269 36.8254 86.5332Z" fill="#3C382F"/>
<path d="M52.2804 158.021C52.8264 158.206 53.4026 158.493 54.0085 158.887C53.4623 158.704 52.8864 158.414 52.2804 158.021Z" fill="#3C382F"/>
<path d="M36.4152 142.533C36.8527 142.919 37.2726 143.422 37.6954 144.038C37.2648 143.652 36.8312 143.151 36.4152 142.533Z" fill="#3C382F"/>
<path d="M38.9243 83.582C38.6778 84.1203 38.316 84.6645 37.8557 85.2555C38.1077 84.7308 38.4584 84.1594 38.9243 83.582Z" fill="#3C382F"/>
<path d="M39.0685 146.18C39.4503 146.482 39.8221 146.895 40.2051 147.415C39.8303 147.111 39.4443 146.701 39.0685 146.18Z" fill="#3C382F"/>
<path d="M41.4368 80.5684C41.2291 81.0135 40.9136 81.4722 40.4911 81.9485C40.6991 81.5046 41.0141 81.0433 41.4368 80.5684Z" fill="#3C382F"/>
<path d="M50.6153 156.998C51.0086 157.118 51.4237 157.338 51.8639 157.659C51.4718 157.539 51.0544 157.319 50.6153 156.998Z" fill="#3C382F"/>
<path d="M31.6959 96.4727C31.6645 96.8035 31.5307 97.1738 31.3095 97.6022C31.3459 97.2776 31.4697 96.8949 31.6959 96.4727Z" fill="#3C382F"/>
<path d="M37.7712 144.467C38.075 144.666 38.3549 144.978 38.622 145.396C38.322 145.195 38.0346 144.887 37.7712 144.467Z" fill="#3C382F"/>
<path d="M59.577 161.756C59.8988 161.797 60.2616 161.937 60.6784 162.165C60.3609 162.121 59.9894 161.988 59.577 161.756Z" fill="#3C382F"/>
<path d="M49.6139 156.281C49.8348 156.282 50.0799 156.386 50.3526 156.589C50.1328 156.586 49.8854 156.486 49.6139 156.281Z" fill="#3C382F"/>
<path d="M130.116 119.61C129.976 116.341 129.946 113.013 129.951 109.533C130.159 109.689 130.48 109.995 130.484 110.305C130.52 113.195 130.506 116.086 130.486 118.977C130.485 119.169 130.317 119.36 130.116 119.61Z" fill="#4F4C42"/>
<path d="M128.561 128.198C128.618 127.599 128.777 126.92 129.01 126.158C128.943 126.756 128.803 127.437 128.561 128.198Z" fill="#4F4C42"/>
<path d="M129.784 106.464C129.58 106.064 129.405 105.528 129.255 104.869C129.457 105.273 129.635 105.8 129.784 106.464Z" fill="#4F4C42"/>
<path d="M129.461 124.252C129.436 123.854 129.519 123.404 129.679 122.865C129.693 123.251 129.631 123.725 129.461 124.252Z" fill="#4F4C42"/>
<path d="M127.884 130.221C127.861 130.038 127.918 129.808 128.059 129.533C128.083 129.717 128.024 129.945 127.884 130.221Z" fill="#4F4C42"/>
<path d="M127.132 132.54C127.114 132.336 127.193 132.088 127.359 131.789C127.374 131.99 127.301 132.243 127.132 132.54Z" fill="#4F4C42"/>
<path d="M127.576 131.563C127.498 131.506 127.494 131.447 127.538 131.315C127.69 131.31 127.792 131.38 127.895 131.449C127.813 131.487 127.731 131.524 127.576 131.563Z" fill="#4F4C42"/>
<path d="M128.408 100.558C128.171 100.221 127.967 99.7659 127.786 99.207C128.02 99.5487 128.231 99.9942 128.408 100.558Z" fill="#4F4C42"/>
<path d="M99.6361 67.9817C99.2507 67.9079 98.7934 67.7342 98.2681 67.4883C98.6549 67.5714 99.1095 67.7265 99.6361 67.9817Z" fill="#4F4C42"/>
<path d="M106.628 71.6797C106.322 71.592 105.978 71.4047 105.571 71.1367C105.869 71.2307 106.229 71.4055 106.628 71.6797Z" fill="#4F4C42"/>
<path d="M126.129 94.2268C125.947 94.1254 125.78 93.9119 125.613 93.5957C125.79 93.7003 125.967 93.9075 126.129 94.2268Z" fill="#4F4C42"/>
<path d="M126.807 95.8573C126.63 95.7582 126.466 95.5517 126.309 95.2441C126.484 95.3454 126.651 95.5477 126.807 95.8573Z" fill="#4F4C42"/>
<path d="M127.506 97.7793C127.355 97.6796 127.218 97.4883 127.105 97.209C127.259 97.3099 127.389 97.4988 127.506 97.7793Z" fill="#4F4C42"/>
<path d="M103.973 70.1431C103.78 70.1238 103.557 70.0044 103.288 69.7969C103.475 69.8201 103.709 69.9316 103.973 70.1431Z" fill="#4F4C42"/>
<path d="M102.647 69.4265C102.455 69.4204 102.227 69.3202 101.957 69.1309C102.147 69.1387 102.379 69.2355 102.647 69.4265Z" fill="#4F4C42"/>
<path d="M97.3448 67.0875C97.1514 67.0887 96.9218 66.9929 96.6322 66.8203C96.8177 66.8259 97.0631 66.9082 97.3448 67.0875Z" fill="#4F4C42"/>
<path d="M95.3534 66.4039C95.1559 66.4168 94.9183 66.3355 94.6287 66.1688C94.8222 66.1589 95.0678 66.2342 95.3534 66.4039Z" fill="#4F4C42"/>
<path d="M64.158 66.0359C63.8985 66.2539 63.5108 66.4543 63.0103 66.639C62.9872 66.4817 63.0769 66.34 63.2118 66.1281C63.5146 66.0446 63.7722 66.0315 64.158 66.0359Z" fill="#4F4C42"/>
<path d="M62.2141 66.7148C61.9355 66.9424 61.537 67.1523 61.0234 67.3486C61.3035 67.1224 61.6988 66.9098 62.2141 66.7148Z" fill="#4F4C42"/>
<path d="M60.2973 67.4121C60.1034 67.6297 59.7899 67.8311 59.3636 68.0295C59.5599 67.8163 59.8688 67.6061 60.2973 67.4121Z" fill="#4F4C42"/>
<path d="M58.2126 68.3574C58.1225 68.5126 57.9398 68.6616 57.6651 68.7956C57.7554 68.6375 57.9377 68.4944 58.2126 68.3574Z" fill="#4F4C42"/>
<path d="M81.3496 63.6723C80.2058 63.8006 78.9588 63.8446 77.5973 63.8253C78.7373 63.7039 79.9919 63.6459 81.3496 63.6723Z" fill="#4F4C42"/>
<path d="M67.2947 65.1599C66.9804 65.3971 66.5172 65.592 65.9503 65.7596C65.8638 65.5659 65.881 65.3996 65.9126 65.1522C66.3333 65.0866 66.7395 65.1021 67.2947 65.1599Z" fill="#4F4C42"/>
<path d="M63.7885 95.0491C64.3212 95.1685 64.8538 95.2879 65.5512 95.4822C65.8652 95.5949 66.0143 95.6329 66.1635 95.6709C66.6813 95.8172 67.199 95.9636 67.8842 96.1767C68.1959 96.2705 68.3402 96.2975 68.4845 96.3246C70.4981 96.9738 72.5137 97.6169 74.5249 98.2737C78.4584 99.5582 82.3895 100.85 86.3338 102.328C84.859 104.632 83.372 106.749 81.7715 108.831C77.6217 107.337 75.2379 108.173 73.7275 111.534C72.4745 114.321 73.8596 116.256 75.6906 118.162C75.2189 118.742 74.815 119.205 74.2958 119.659C72.8979 118.063 71.3988 116.605 70.3754 114.867C67.7839 110.466 64.6618 106.547 60.466 103.632C58.017 101.931 55.3745 100.41 52.183 100.529C50.3628 98.3456 48.5363 96.167 46.7253 93.9757C45.9914 93.0877 45.2395 92.2064 44.6006 91.2521C44.3326 90.8517 44.3363 90.2697 44.2165 89.7703C44.6826 89.6823 45.1951 89.4236 45.6069 89.5354C47.553 90.0636 49.4659 90.7126 51.4016 91.2816C53.7042 91.9585 56.018 92.5978 58.5031 93.3725C59.8141 93.8245 60.949 94.1575 62.0839 94.4904C62.3618 94.5466 62.6398 94.6027 63.0848 94.7415C63.4308 94.8991 63.6097 94.9741 63.7885 95.0491Z" fill="#E12531"/>
<path d="M81.885 108.864C83.372 106.748 84.859 104.631 86.408 102.408C87.6774 103.549 89.0075 104.7 90.0725 106.059C97.8348 115.96 105.551 125.897 113.244 135.853C113.575 136.282 113.526 137.005 113.654 137.59C113.104 137.542 112.525 137.587 112.009 137.43C109.084 136.537 106.174 135.595 103.148 134.472C102.436 133.427 101.923 132.498 101.219 131.747C98.569 128.92 96.0763 125.888 93.1129 123.427C89.5077 120.434 85.0525 119.12 80.4446 118.56C81.5149 117.517 82.8043 116.743 83.4733 115.604C85.0097 112.99 83.6952 110.816 81.885 108.864Z" fill="#0E61A6"/>
<path d="M80.3821 118.663C85.0525 119.12 89.5077 120.434 93.1129 123.427C96.0763 125.887 98.569 128.919 101.219 131.746C101.923 132.498 102.436 133.427 103.071 134.387C99.8474 133.596 96.5786 132.733 93.3359 131.782C87.0733 129.944 80.8154 128.088 74.5801 126.161C73.4147 125.801 72.3642 125.069 71.2853 124.318C72.3436 122.64 73.3774 121.154 74.4112 119.667C74.815 119.203 75.2189 118.74 75.7918 118.207C77.4346 118.313 78.9083 118.488 80.3821 118.663Z" fill="#2BB4F1"/>
<path d="M74.2958 119.659C73.3774 121.156 72.3436 122.643 71.2017 124.219C70.0865 123.251 68.9897 122.265 68.0878 121.125C63.8276 115.742 59.6208 110.316 55.2852 104.725C54.5463 103.827 53.9171 103.11 53.2879 102.392C52.9398 101.842 52.5917 101.291 52.2133 100.635C55.3744 100.411 58.0169 101.931 60.466 103.633C64.6618 106.548 67.7838 110.467 70.3753 114.868C71.3987 116.605 72.8979 118.063 74.2958 119.659Z" fill="#F33347"/>
<path d="M88.0064 155.451C86.6643 153.515 86.7136 151.539 88.2274 150.089C89.174 149.181 90.833 148.559 92.1479 148.6C94.1115 148.66 95.3025 150.202 95.8438 152.092C96.3404 153.826 95.3435 155.082 94.282 156.188C93.2785 157.234 90.8469 157.457 89.6357 156.756C89.0736 156.431 88.5973 155.958 88.0064 155.451Z" fill="#779EC2"/>
<path d="M117.825 107.045C115.356 106.896 113.705 105.574 113.299 103.534C112.929 101.677 113.871 99.69 115.532 98.8222C117.724 97.677 120.04 98.3815 121.3 100.577C122.498 102.663 121.908 104.965 119.777 106.289C119.228 106.63 118.568 106.794 117.825 107.045Z" fill="#779EC2"/>
<path d="M71.5558 76.3272C71.4514 79.2018 69.6354 81.0252 67.1333 80.9112C64.6069 80.7961 62.8011 78.8811 62.8959 76.4178C62.9767 74.3175 64.8049 72.4467 66.8939 72.3265C69.4186 72.1813 71.1391 73.6061 71.5558 76.3272Z" fill="#779EC2"/>
<path d="M41.8431 131.205C39.4745 131.205 37.7795 130.142 37.1485 128.364C36.581 126.765 37.1373 124.576 38.3764 123.532C40.2514 121.952 43.3798 122.347 44.7919 124.342C46.2482 126.399 45.5796 129.298 43.3315 130.59C42.9061 130.835 42.4287 130.989 41.8431 131.205Z" fill="#779EC2"/>
<path d="M50.4121 118.363C50.3481 116.634 50.2154 115.032 50.3546 113.453C50.4063 112.866 51.0944 112.336 51.4923 111.779C51.8486 112.323 52.4517 112.841 52.5128 113.416C52.6691 114.884 52.6468 116.382 52.5633 117.861C52.5311 118.432 52.1409 118.983 51.9138 119.544C51.4263 119.195 50.9389 118.847 50.4121 118.363Z" fill="#7EA3C5"/>
<path d="M55.6039 127.531C56.0674 128.291 56.4071 129.055 55.433 129.369C55.0176 129.502 54.1229 129.11 53.8993 128.706C53.081 127.228 52.3735 125.673 51.8051 124.082C51.6452 123.635 52.1048 122.967 52.2803 122.4C52.7821 122.717 53.4962 122.918 53.7454 123.374C54.4533 124.666 54.9714 126.062 55.6039 127.531Z" fill="#7EA3C5"/>
<path d="M78.6703 143.357C78.2711 142.098 79.0437 141.739 79.9022 141.628C81.5232 141.419 83.158 141.255 84.7896 141.227C85.2754 141.218 85.7701 141.728 86.2608 142.001C85.8921 142.4 85.5527 143.109 85.1499 143.147C83.0244 143.347 80.883 143.378 78.6703 143.357Z" fill="#7EA3C5"/>
<path d="M73.3045 140.974C73.7588 141.503 74.0871 141.995 74.4154 142.486C73.7946 142.686 73.1101 143.16 72.565 143.034C71.0185 142.676 69.4938 142.153 68.0377 141.519C67.5766 141.318 67.3584 140.561 67.029 140.058C67.6147 139.895 68.252 139.499 68.7763 139.615C70.2683 139.943 71.7143 140.481 73.3045 140.974Z" fill="#7EA3C5"/>
<path d="M92.481 138.295C93.4179 137.708 94.2177 137.107 95.1092 136.715C95.5512 136.52 96.1617 136.707 96.696 136.722C96.5997 137.247 96.6878 138.032 96.3756 138.253C94.9539 139.262 93.4573 140.186 91.9015 140.97C91.47 141.187 90.7428 140.819 90.1512 140.72C90.4556 140.161 90.68 139.533 91.0908 139.069C91.3958 138.724 91.9426 138.593 92.481 138.295Z" fill="#7EA3C5"/>
<path d="M106.247 111.088C105.843 109.472 105.385 108.001 105.13 106.497C105.044 105.993 105.472 105.401 105.665 104.85C106.134 105.183 106.882 105.428 107.023 105.866C107.538 107.475 107.92 109.137 108.197 110.804C108.272 111.251 107.798 111.789 107.576 112.286C107.142 111.93 106.707 111.575 106.247 111.088Z" fill="#7EA3C5"/>
<path d="M108.272 117.235C107.98 119.199 107.744 121.054 107.276 122.849C107.157 123.302 106.293 123.561 105.772 123.91C105.639 123.349 105.33 122.763 105.406 122.231C105.622 120.713 106.012 119.22 106.299 117.711C106.562 116.331 107.026 116.176 108.272 117.235Z" fill="#7EA3C5"/>
<path d="M62.9535 136.166C63.2169 136.797 63.3888 137.351 63.5607 137.905C62.9526 137.89 62.1624 138.113 61.7696 137.815C60.4605 136.82 59.2409 135.689 58.1073 134.496C57.7974 134.17 57.9099 133.443 57.8286 132.9C58.4083 132.963 59.1409 132.826 59.5389 133.127C60.7174 134.022 61.764 135.089 62.9535 136.166Z" fill="#7EA3C5"/>
<path d="M96.0432 92.1749C96.005 92.214 95.9732 92.2763 95.9277 92.2888C94.9193 92.5662 89.5246 90.11 89.3176 89.1439C89.0673 87.9761 89.8881 87.8164 90.9772 88.0954C91.3084 88.3216 91.4867 88.4347 91.665 88.5477C93.081 89.3681 94.497 90.1885 95.9744 91.2243C96.0383 91.6847 96.0407 91.9298 96.0432 92.1749Z" fill="#779EC2"/>
<path d="M104.031 100.856C103.396 101.418 102.902 101.306 102.407 100.619C101.254 99.0187 100.054 97.4523 98.8557 95.8494C99.6478 94.5419 100.112 94.4692 101.068 95.5635C101.573 96.1418 102.074 96.7232 102.639 97.498C102.874 97.8402 103.047 97.9876 103.221 98.1351C103.487 98.5826 103.753 99.0301 104.016 99.7347C104.018 100.28 104.025 100.568 104.031 100.856Z" fill="#779EC2"/>
<path d="M72.5091 88.5212C72.0383 88.6337 71.5675 88.7462 70.8854 88.8724C70.5114 89.0346 70.3487 89.1829 70.1859 89.3313C70.0299 89.3656 69.8739 89.3999 69.5365 89.3883C69.1888 89.4758 69.0225 89.6092 68.8562 89.7426C68.4618 89.9266 68.0735 90.2398 67.6714 90.2586C67.2619 90.2777 66.8388 90.0072 66.4216 89.8635C66.5547 89.4916 66.5968 88.8745 66.835 88.7864C68.9512 88.0038 71.0999 87.3077 73.2498 86.6198C73.3534 86.5867 73.5584 86.8695 73.6742 87.19C73.5919 87.545 73.5517 87.7152 73.5114 87.8854C73.5114 87.8854 73.5011 87.8683 73.4033 87.8823C73.04 88.1046 72.7745 88.3129 72.5091 88.5212Z" fill="#779EC2"/>
<path d="M82.2701 87.7245C81.1389 87.6474 80.1423 87.6787 79.1754 87.5244C78.7904 87.4629 78.4709 86.9909 78.1216 86.7058C78.4584 86.4145 78.804 85.864 79.1303 85.8752C80.8704 85.935 82.6121 86.0873 84.3371 86.3251C84.7073 86.3761 85.0104 86.9121 85.3445 87.2246C84.9124 87.4569 84.501 87.8126 84.0429 87.889C83.5226 87.9758 82.9606 87.8129 82.2701 87.7245Z" fill="#779EC2"/>
<path d="M53.1917 102.461C53.9172 103.108 54.5464 103.826 55.2014 104.648C54.8029 105.068 54.2962 105.316 53.9786 105.715C53.6841 106.085 53.6963 106.714 53.3809 107.047C53.0655 107.381 52.5115 107.488 52.062 107.694C51.8804 107.233 51.4466 106.693 51.5625 106.326C51.9718 105.029 52.5693 103.791 53.1917 102.461Z" fill="#7EA3C5"/>
<path d="M62.1281 94.3714C60.949 94.1549 59.8141 93.822 58.6406 93.3893C59.4146 92.8972 60.2029 92.4363 61.0483 92.1358C61.6372 91.9265 62.3045 91.9372 62.9368 91.8496C62.7934 92.4657 62.6655 93.0862 62.4976 93.6956C62.4422 93.8966 62.2836 94.0692 62.1281 94.3714Z" fill="#7EA3C5"/>
<path d="M72.5791 88.5782C72.7745 88.312 73.04 88.1037 73.4117 87.8867C73.2284 88.1308 72.9388 88.3834 72.5791 88.5782Z" fill="#7EA3C5"/>
<path d="M96.1408 92.1493C96.0407 91.9288 96.0383 91.6837 96.0353 91.3164C96.1026 91.5044 96.1706 91.8145 96.1408 92.1493Z" fill="#7EA3C5"/>
<path d="M104.122 100.811C104.025 100.568 104.018 100.28 104.024 99.8477C104.095 100.057 104.154 100.411 104.122 100.811Z" fill="#7EA3C5"/>
<path d="M73.5954 87.8675C73.5517 87.7144 73.5919 87.5442 73.6898 87.3086C73.7247 87.4456 73.702 87.648 73.5954 87.8675Z" fill="#7EA3C5"/>
<path d="M91.6547 88.4544C91.4868 88.4354 91.3085 88.3224 91.1 88.1367C91.2614 88.1628 91.4529 88.2615 91.6547 88.4544Z" fill="#7EA3C5"/>
<path d="M70.2791 89.3529C70.3487 89.1812 70.5115 89.0328 70.7641 88.873C70.6934 89.0332 70.5329 89.2047 70.2791 89.3529Z" fill="#7EA3C5"/>
<path d="M68.9505 89.751C69.0225 89.6099 69.1888 89.4766 69.4164 89.3867C69.3334 89.5397 69.1891 89.6492 68.9505 89.751Z" fill="#7EA3C5"/>
<path d="M63.7823 94.9619C63.6096 94.9736 63.4308 94.8987 63.2264 94.7524C63.3926 94.7458 63.5843 94.8105 63.7823 94.9619Z" fill="#7EA3C5"/>
<path d="M66.1608 95.6036C66.0143 95.6319 65.8652 95.5939 65.6889 95.4788C65.8272 95.4468 65.9927 95.492 66.1608 95.6036Z" fill="#7EA3C5"/>
<path d="M68.4796 96.2571C68.3402 96.2946 68.1959 96.2676 68.0217 96.1691C68.1527 96.1293 68.3137 96.161 68.4796 96.2571Z" fill="#7EA3C5"/>
<path d="M103.222 98.0394C103.047 97.9874 102.874 97.8399 102.679 97.6035C102.846 97.6577 103.035 97.8008 103.222 98.0394Z" fill="#7EA3C5"/>
<path d="M80.4446 118.562C78.9083 118.49 77.4346 118.315 75.8596 118.093C73.8595 116.256 72.4745 114.321 73.7274 111.534C75.2379 108.174 77.6217 107.337 81.7714 108.831C83.6952 110.818 85.0097 112.992 83.4733 115.606C82.8043 116.744 81.5148 117.519 80.4446 118.562ZM76.9451 112.08C76.151 113.139 76.2625 114.293 77.188 115.03C77.7345 115.465 78.8897 115.597 79.5551 115.329C81.0659 114.722 81.3447 113.414 80.5051 112.133C79.7238 110.941 78.6167 110.863 76.9451 112.08Z" fill="#FDC92A"/>
<path d="M77.0333 111.988C78.6168 110.863 79.7239 110.941 80.5052 112.133C81.3447 113.414 81.066 114.722 79.5551 115.33C78.8897 115.597 77.7345 115.465 77.1881 115.03C76.2626 114.293 76.151 113.139 77.0333 111.988Z" fill="#FFA11E"/>
</svg>
