<svg width="100" height="110" viewBox="0 0 100 110" fill="none" xmlns="http://www.w3.org/2000/svg">
<path d="M60.499 80.4871C59.9405 81.0955 59.4167 81.7474 58.8171 82.3041C56.8935 84.0897 54.9418 85.8401 53.001 87.6042C50.1266 90.2167 47.2499 92.8261 44.3787 95.4426C41.6554 97.9243 38.9422 100.419 36.2163 102.897C34.145 104.781 32.0679 106.657 29.9738 108.51C29.6945 108.758 29.3126 108.9 28.9568 109.011C27.831 109.36 26.8394 110.126 25.5491 109.982C24.2731 109.84 22.9713 109.989 21.6823 109.952C21.0562 109.934 20.4407 110.093 19.8509 109.425C19.4752 108.999 18.6128 109.11 17.9968 108.889C16.6049 108.389 15.1225 108.033 13.8739 107.251C11.9235 106.031 10.02 104.654 8.30884 103.075C6.05614 100.996 4.32045 98.3868 2.80127 95.6393C2.38267 94.8823 2.10972 94.0275 1.80333 93.203C1.33055 91.9309 0.657807 90.6822 0.48013 89.3593C0.155503 86.9424 -0.134049 84.453 0.0657103 82.0424C0.224037 80.1318 0.697159 78.1005 1.82764 76.4746C3.10093 74.6434 4.52347 72.9339 5.83404 71.1317C7.82257 68.3971 9.74831 65.6093 11.7417 62.8789C13.8761 59.9555 16.0563 57.0709 18.2196 54.1721C20.3809 51.2762 22.553 48.3898 24.7002 45.4819C24.9627 45.1263 25.1005 44.6636 25.411 44.2656C25.6696 44.4052 25.8132 44.5296 25.9723 44.7415C25.9554 45.557 25.9231 46.2848 25.8777 47.1112C26.0409 47.9732 26.2173 48.7367 26.4019 49.5803C26.4134 49.8209 26.4169 49.9815 26.3806 50.2039C26.5008 50.7421 26.6606 51.2186 26.8263 51.7654C26.8356 51.9298 26.8391 52.0238 26.8065 52.1729C26.9385 52.7032 27.1066 53.1785 27.2796 53.7226C27.2883 53.8833 27.292 53.9752 27.2896 54.1461C27.4236 54.4746 27.5637 54.7242 27.7088 55.0391C27.7176 55.1917 27.7213 55.279 27.721 55.4407C27.8864 55.7109 28.0559 55.9067 28.2336 56.1717C28.2487 56.3336 28.2555 56.4263 28.2283 56.5676C28.3479 56.8092 28.5015 57.0024 28.6643 57.2639C28.6832 57.4239 28.6929 57.5155 28.7112 57.6872C29.309 58.8229 29.8983 59.8786 30.5258 60.9988C30.8324 61.5906 31.1008 62.1178 31.3725 62.7189C31.5572 62.979 31.7387 63.1652 31.9583 63.4094C32.1939 63.7808 32.3912 64.0942 32.5934 64.4819C32.7853 64.7387 32.9724 64.9211 33.1807 65.1749C34.6171 66.8162 36.0323 68.386 37.463 70.0257C37.6794 70.2575 37.8801 70.4193 38.1339 70.6141C38.3497 70.7792 38.5125 70.9113 38.6896 71.1153C38.9094 71.3459 39.115 71.5047 39.3804 71.701C40.0651 72.1745 40.69 72.6104 41.3322 73.1169C41.7643 73.4804 42.1791 73.7734 42.6596 74.084C42.9321 74.1976 43.1389 74.2935 43.368 74.4578C43.8668 74.819 44.3434 75.1119 44.891 75.4105C45.1028 75.4389 45.2435 75.4615 45.4041 75.5533C45.8925 75.8612 46.361 76.1001 46.8938 76.3441C47.0431 76.3615 47.1282 76.374 47.2357 76.4513C47.4688 76.6533 47.6795 76.7904 47.9523 76.9315C48.0969 76.9457 48.1794 76.9559 48.2951 77.0279C48.5196 77.1853 48.7108 77.2808 48.9653 77.3796C49.1127 77.3913 49.1969 77.3998 49.325 77.4614C49.7463 77.632 50.1235 77.7495 50.5654 77.87C50.7159 77.8825 50.8018 77.892 50.9063 77.9675C51.1905 78.126 51.4561 78.2183 51.7957 78.3111C52.017 78.3246 52.1644 78.3377 52.3321 78.4154C52.6172 78.5725 52.8819 78.665 53.2203 78.7654C53.5864 78.8285 53.8788 78.8838 54.21 79.007C54.573 79.1666 54.8972 79.2584 55.2939 79.353C55.5113 79.3638 55.6562 79.3717 55.8557 79.4352C56.4241 79.5952 56.9378 79.6996 57.5164 79.8051C57.6676 79.8102 57.754 79.8143 57.9004 79.8723C58.8067 80.1132 59.6528 80.3001 60.499 80.4871ZM18.9499 78.8683C18.0541 80.1503 17.0735 81.3746 16.2825 82.728C15.1258 84.7071 14.135 86.7986 14.1285 89.2304C14.1221 91.6457 15.7863 92.9282 17.9676 92.315C20.1443 91.7031 22.0397 90.5326 23.7488 89.0139C27.3919 85.7766 30.3186 81.9867 31.6179 76.9472C32.3227 74.2137 31.0575 72.0345 28.7443 72.2232C28.0481 72.2799 27.3437 72.4916 26.684 72.7528C23.6147 73.9678 21.2396 76.2291 18.9499 78.8683ZM27.2592 98.1999C27.9025 97.5543 28.5442 96.9069 29.1893 96.2634C31.2737 94.184 33.3636 92.1109 35.441 90.0233C35.8516 89.6106 36.0437 89.1245 35.5644 88.6012C35.1203 88.1162 34.723 88.1733 34.256 88.633C32.4349 90.4255 30.5779 92.1756 28.7517 93.9622C27.6249 95.0645 26.5051 96.1784 25.44 97.3484C25.2176 97.5927 25.0729 98.2223 25.2102 98.4654C25.3685 98.7459 25.8873 98.9301 26.2339 98.9049C26.5512 98.8819 26.8476 98.524 27.2592 98.1999ZM35.0389 93.0764C34.8733 93.0841 34.6364 93.0173 34.5528 93.1106C33.3603 94.4398 32.1521 95.7575 31.0493 97.1704C30.8758 97.3927 31.0984 98.1572 31.3444 98.4969C31.4568 98.6522 32.2017 98.5292 32.4346 98.2837C33.4463 97.2168 34.3835 96.0664 35.3309 94.93C35.863 94.2918 35.987 93.6604 35.0389 93.0764Z" fill="#6F6ECF"/>
<path d="M82.225 69.4134C79.803 71.4053 77.4517 73.5105 74.9294 75.3415C73.6564 76.2657 72.372 77.2047 70.7847 77.7114C68.2886 78.5082 65.8046 78.5084 63.1862 78.4098C62.8555 78.2279 62.6191 78.127 62.301 77.9871C57.8787 77.5816 53.658 76.6555 49.5743 74.979C43.7872 72.6031 38.8603 68.9567 34.9373 63.7599C31.8297 59.6433 29.7004 55.0061 28.5457 49.7886C28.4593 49.3013 28.3448 48.8826 28.246 48.3564C28.1966 47.4632 28.1313 46.6775 28.1036 45.8227C28.0898 45.4192 28.0384 45.0848 28.0109 44.646C27.9992 44.2566 27.9634 43.9716 27.9597 43.6004C27.8569 42.8298 28.4916 41.9307 27.5055 41.4839C27.4952 39.5434 27.3699 37.5927 27.5151 35.6658C27.6116 34.3845 28.0714 33.1298 28.412 31.8769C28.6692 30.931 28.9103 29.962 29.3095 29.0831C30.0043 27.5537 30.7511 26.0419 31.5942 24.6033C32.6893 22.735 33.8999 20.9455 35.1695 19.1836C35.9722 21.5194 36.4858 23.8826 37.4015 26.0476C38.8392 29.4467 40.3838 32.8198 42.1793 36.0098C45.1253 41.2437 48.7444 45.9635 52.8042 50.2295C55.4649 53.0253 58.3909 55.5333 61.2554 58.0955C64.5021 60.9996 68.1003 63.3678 71.9274 65.222C75.2678 66.8405 78.7856 68.0328 82.225 69.4134ZM37.2393 52.7566C39.6726 53.0988 41.6619 51.0495 42.1229 48.5156C42.7487 45.0761 41.6195 42.0687 39.5194 39.5765C38.3848 38.2301 36.7344 37.7936 35.0515 38.538C32.7134 39.5723 31.1344 42.2719 31.3852 45.0065C31.7372 48.8447 33.4245 51.8331 37.2393 52.7566ZM41.3814 56.9875C39.91 57.5939 39.1505 58.8748 39.1498 60.4456C39.149 62.0988 39.801 63.5634 41.2506 64.4484C42.9146 65.4644 44.6907 64.6235 45.0021 62.5756C45.1243 61.7717 45.0748 60.9137 44.9741 60.099C44.7364 58.1762 43.3282 56.9258 41.3814 56.9875Z" fill="#F46357"/>
<path d="M37.4856 15.3061C37.3485 14.7681 37.0499 14.2101 37.1043 13.6956C37.2717 12.1099 37.6549 10.5495 37.8017 8.9629C37.9544 7.31315 38.7181 6.00248 39.6372 4.82093C40.4751 3.74368 41.4558 2.75092 42.5123 1.92849C43.664 1.03194 45.0596 0.726965 46.4549 0.342266C48.1431 -0.123158 49.7842 0.0132785 51.4329 0.0362518C52.8583 0.0561176 54.3107 0.241675 55.6771 0.847865C56.2111 1.08473 56.8262 1.0988 57.3803 1.29414C59.2107 1.93955 61.0928 2.47219 62.8375 3.32752C64.952 4.36411 67.0086 5.57862 68.9773 6.91049C71.3684 8.52813 73.6843 10.2868 75.9514 12.1026C77.5063 13.348 78.9958 14.7137 80.3841 16.1704C82.5956 18.491 84.7763 20.8576 86.821 23.3473C88.2948 25.1417 89.5448 27.1533 90.8598 29.0955C91.8505 30.5589 92.8139 32.0459 93.7373 33.5595C94.5103 34.8267 95.2588 36.118 95.9244 37.4531C96.5796 38.7672 97.1812 40.1225 97.6856 41.5108C98.0839 42.6073 98.2612 43.7948 98.6081 44.9162C98.8646 45.7456 99.2403 46.5317 99.5519 47.3421C99.6016 47.4714 99.602 47.6261 99.6101 47.77C99.7484 50.2319 99.9481 52.6926 99.994 55.1566C100.017 56.3873 99.9951 57.7313 99.5682 58.8319C98.9827 60.3412 98.1179 61.7809 97.1392 63.0388C96.2752 64.1492 95.1944 65.1791 94.0173 65.8556C92.9628 66.4616 91.6578 66.6106 90.4428 66.8275C89.1414 67.0599 87.818 67.1765 86.4997 67.2549C86.12 67.2775 85.7246 66.9938 85.1884 66.809C84.8496 66.6927 84.6632 66.5982 84.4672 66.5463C82.5597 66.0416 80.6083 65.6819 78.7506 65.0166C74.5262 63.5038 70.5741 61.33 66.8692 58.6794C57.4981 51.975 49.7441 43.5485 43.8599 33.1755C41.5178 29.0467 39.6254 24.6961 38.5365 19.9744C38.1781 18.4205 37.8354 16.8623 37.4856 15.3061ZM49.6862 35.7279C51.9004 38.629 54.0004 41.6445 56.365 44.395C58.2451 46.582 60.3685 48.5523 62.525 50.4301C67.4088 54.6826 72.6331 58.3124 78.7022 60.367C81.3728 61.2711 84.0576 61.9702 86.8536 61.7622C89.8044 61.5426 92.4274 60.4074 94.1329 57.6365C95.8119 54.9086 96.0346 51.799 95.6358 48.661C95.1419 44.7743 93.8773 41.1336 92.237 37.6437C89.4102 31.6294 85.7002 26.2766 81.2962 21.5473C78.4997 18.5442 75.4414 15.7794 72.2711 13.2415C69.6557 11.1479 66.763 9.42446 63.8817 7.76191C61.576 6.43147 59.1066 5.47785 56.4983 4.92441C53.6423 4.31845 50.8425 4.07879 48.0091 4.9961C44.8267 6.02637 43.0127 8.42481 42.3814 11.7982C41.8691 14.5354 42.0818 17.2903 42.6806 20.0519C43.3396 23.0905 44.3518 25.9694 45.6721 28.7C46.8263 31.0874 48.2786 33.307 49.6862 35.7279Z" fill="#C7BEDF"/>
<path d="M37.4132 15.3457C37.8354 16.8632 38.1781 18.4213 38.5365 19.9752C39.6254 24.697 41.5178 29.0476 43.8599 33.1763C49.7441 43.5493 57.498 51.9758 66.8692 58.6802C70.574 61.3308 74.5262 63.5047 78.7505 65.0175C80.6082 65.6828 82.5597 66.0425 84.4672 66.5471C84.6632 66.599 84.8496 66.6936 85.1076 66.8083C84.2235 67.6819 83.2722 68.5155 82.273 69.3816C78.7857 68.0335 75.2679 66.8412 71.9274 65.2227C68.1004 63.3685 64.5021 61.0003 61.2555 58.0962C58.391 55.534 55.465 53.026 52.8043 50.2302C48.7445 45.9641 45.1253 41.2443 42.1793 36.0105C40.3838 32.8205 38.8393 29.4474 37.4016 26.0483C36.4858 23.8833 35.9722 21.5201 35.2454 19.1719C35.3409 18.7744 35.4295 18.4229 35.6051 18.1326C36.1663 17.2043 36.7598 16.2987 37.4132 15.3457Z" fill="#F2443B"/>
<path d="M62.3827 78.0254C62.6191 78.1263 62.8555 78.2271 63.0884 78.3928C62.2755 79.1288 61.4661 79.8 60.5779 80.4782C59.6528 80.2983 58.8066 80.1113 57.9626 79.8208C58.3603 79.7425 58.7593 79.7403 59.1509 79.7975C60.9737 80.0639 61.8197 79.6066 62.3827 78.0254Z" fill="#5B5CB9"/>
<path d="M27.4466 41.5176C28.4916 41.9306 27.8569 42.8296 27.9098 43.5678C27.738 43.1977 27.6482 42.7737 27.5236 42.1852C26.9282 43.1229 26.4425 43.8878 25.9569 44.6527C25.8132 44.5283 25.6696 44.4039 25.4852 44.2397C26.0922 43.3171 26.74 42.4342 27.4466 41.5176Z" fill="#5B5CB9"/>
<path d="M19.0001 78.812C21.2396 76.2283 23.6148 73.967 26.6841 72.7519C27.3438 72.4908 28.0481 72.2791 28.7444 72.2223C31.0576 72.0337 32.3228 74.2129 31.618 76.9464C30.3186 81.9859 27.392 85.7758 23.7488 89.0131C22.0398 90.5318 20.1444 91.7023 17.9676 92.3142C15.7863 92.9274 14.1222 91.6448 14.1286 89.2296C14.135 86.7978 15.1258 84.7063 16.2826 82.7271C17.0735 81.3738 18.0541 80.1495 19.0001 78.812ZM22.2251 87.244C22.2251 87.244 22.2454 87.1663 22.3658 87.0979C22.9445 86.4358 23.4931 85.7389 24.1076 85.118C25.9681 83.2379 24.8103 81.6806 23.0626 80.7408C22.6443 80.516 21.7974 80.6924 21.411 81.0326C20.533 81.8056 19.8187 82.7951 18.9234 83.7377C18.8358 83.8755 18.7482 84.0132 18.5339 84.2056C17.8564 84.9665 17.1512 85.7014 16.5088 86.4953C15.7847 87.3902 15.8275 88.2334 16.5808 89.1163C16.8548 89.4376 17.1454 89.7474 17.4562 90.0263C18.2862 90.7711 19.0132 90.7862 19.8029 89.9749C20.6296 89.1255 21.3867 88.1971 22.2251 87.244Z" fill="#F7E27C"/>
<path d="M25.9722 44.7406C26.4425 43.8882 26.9282 43.1233 27.5236 42.1855C27.6482 42.7741 27.7379 43.1981 27.8776 43.6545C27.9634 43.9718 27.9991 44.2568 27.9878 44.7002C27.9824 45.203 28.0242 45.5475 28.066 45.892C28.1313 46.6777 28.1966 47.4634 28.2155 48.4083C28.2853 48.9974 28.4015 49.4273 28.5176 49.8573C29.7004 55.0064 31.8297 59.6435 34.9373 63.7601C38.8603 68.957 43.7872 72.6033 49.5743 74.9792C53.658 76.6557 57.8787 77.5818 62.301 77.9873C61.8197 79.6076 60.9736 80.0648 59.1509 79.7985C58.7593 79.7413 58.3603 79.7434 57.9025 79.7678C57.7539 79.8134 57.6676 79.8093 57.4883 79.7334C56.864 79.5673 56.3325 79.473 55.801 79.3787C55.6561 79.3708 55.5112 79.3629 55.2678 79.2866C54.8365 79.1249 54.5038 79.0316 54.1711 78.9382C53.8788 78.8829 53.5864 78.8276 53.1869 78.6955C52.8238 78.5292 52.5678 78.4395 52.3117 78.3499C52.1644 78.3368 52.017 78.3237 51.7606 78.2432C51.3969 78.084 51.1422 77.9923 50.8876 77.9005C50.8018 77.891 50.7159 77.8816 50.523 77.813C50.0377 77.6383 49.6593 77.5229 49.281 77.4074C49.1968 77.3989 49.1127 77.3904 48.9477 77.3153C48.6651 77.1542 48.4635 77.0597 48.2618 76.9651C48.1793 76.955 48.0969 76.9448 47.9287 76.8633C47.633 76.6564 47.4232 76.521 47.2133 76.3855C47.1282 76.3731 47.0431 76.3606 46.8607 76.2749C46.3037 75.9621 45.844 75.7227 45.3843 75.4833C45.2435 75.4606 45.1027 75.438 44.8714 75.337C44.3025 74.9686 43.8241 74.6785 43.3457 74.3884C43.1389 74.2925 42.932 74.1967 42.6358 74.0147C42.1359 73.6342 41.7253 73.3398 41.3148 73.0454C40.6899 72.6095 40.065 72.1736 39.3616 71.6308C39.0806 71.3634 38.8779 71.203 38.6753 71.0425C38.5125 70.9104 38.3496 70.7783 38.1194 70.5418C37.8505 70.2766 37.6489 70.1157 37.4474 69.9549C36.0322 68.3851 34.6171 66.8153 33.176 65.1009C32.9628 64.7731 32.7757 64.5898 32.5885 64.4066C32.3912 64.0933 32.1939 63.7799 31.9586 63.3346C31.7367 63.0164 31.5529 62.8303 31.3691 62.6441C31.1008 62.1169 30.8324 61.5897 30.5266 60.9185C29.8936 59.7184 29.2981 58.6623 28.7026 57.6062C28.6929 57.5146 28.6832 57.423 28.6676 57.1905C28.5286 56.8725 28.3954 56.6953 28.2622 56.5181C28.2554 56.4254 28.2486 56.3327 28.2414 56.0975C28.0691 55.7584 27.8971 55.5619 27.725 55.3653C27.7213 55.2781 27.7175 55.1908 27.7463 54.9837C27.6178 54.598 27.4567 54.3321 27.2957 54.0662C27.2919 53.9743 27.2882 53.8824 27.3214 53.6667C27.1864 53.0676 27.0145 52.5923 26.8425 52.117C26.839 52.0229 26.8355 51.9289 26.8384 51.6784C26.7033 51.0618 26.5618 50.6015 26.4203 50.1413C26.4168 49.9806 26.4134 49.82 26.419 49.4832C26.249 48.542 26.0699 47.7769 25.8908 47.0118C25.9231 46.2839 25.9553 45.556 25.9722 44.7406Z" fill="#46418B"/>
<path d="M27.2062 98.2564C26.8476 98.5237 26.5512 98.8816 26.2339 98.9046C25.8873 98.9298 25.3685 98.7456 25.2101 98.465C25.0729 98.2219 25.2176 97.5923 25.44 97.348C26.5051 96.1781 27.6249 95.0642 28.7517 93.9619C30.5779 92.1753 32.4349 90.4252 34.256 88.6326C34.723 88.1729 35.1203 88.1159 35.5644 88.6009C36.0437 89.1242 35.8516 89.6103 35.441 90.023C33.3636 92.1106 31.2737 94.1837 29.1893 96.2631C28.5442 96.9066 27.9025 97.5539 27.2062 98.2564Z" fill="#5B5CB9"/>
<path d="M35.1071 93.109C35.9871 93.6604 35.863 94.2918 35.3309 94.93C34.3835 96.0664 33.4464 97.2168 32.4346 98.2837C32.2017 98.5292 31.4568 98.6522 31.3444 98.497C31.0985 98.1572 30.8759 97.3927 31.0494 97.1704C32.1521 95.7575 33.3603 94.4398 34.5528 93.1106C34.6365 93.0173 34.8733 93.0841 35.1071 93.109Z" fill="#5B5CB9"/>
<path d="M28.7112 57.6855C29.2982 58.6615 29.8937 59.7177 30.4884 60.8532C29.8983 59.8769 29.3091 58.8213 28.7112 57.6855Z" fill="#5B5CB9"/>
<path d="M25.8776 47.1094C26.0699 47.776 26.249 48.5411 26.4109 49.4023C26.2173 48.735 26.0409 47.9714 25.8776 47.1094Z" fill="#5B5CB9"/>
<path d="M55.8557 79.4336C56.3325 79.4723 56.864 79.5666 57.4235 79.7316C56.9378 79.698 56.424 79.5936 55.8557 79.4336Z" fill="#5B5CB9"/>
<path d="M26.3807 50.2031C26.5619 50.6017 26.7034 51.062 26.8327 51.6083C26.6607 51.2178 26.5008 50.7413 26.3807 50.2031Z" fill="#5B5CB9"/>
<path d="M45.4041 75.5527C45.844 75.723 46.3037 75.9625 46.7964 76.2702C46.361 76.0996 45.8924 75.8607 45.4041 75.5527Z" fill="#5B5CB9"/>
<path d="M43.368 74.457C43.8242 74.6787 44.3026 74.9688 44.8006 75.3314C44.3435 75.1111 43.8669 74.8183 43.368 74.457Z" fill="#5B5CB9"/>
<path d="M26.8065 52.1719C27.0145 52.5922 27.1864 53.0675 27.3165 53.5978C27.1066 53.1775 26.9385 52.7022 26.8065 52.1719Z" fill="#5B5CB9"/>
<path d="M41.3322 73.1152C41.7253 73.3391 42.1359 73.6335 42.5702 73.9963C42.1791 73.7718 41.7643 73.4788 41.3322 73.1152Z" fill="#5B5CB9"/>
<path d="M54.21 79.0059C54.5039 79.0313 54.8366 79.1246 55.1953 79.2835C54.8972 79.2572 54.573 79.1655 54.21 79.0059Z" fill="#5B5CB9"/>
<path d="M49.3251 77.4609C49.6594 77.5233 50.0377 77.6388 50.4584 77.8103C50.1235 77.749 49.7463 77.6315 49.3251 77.4609Z" fill="#5B5CB9"/>
<path d="M50.9063 77.9668C51.1423 77.9924 51.397 78.0842 51.6867 78.243C51.4561 78.2176 51.1905 78.1253 50.9063 77.9668Z" fill="#5B5CB9"/>
<path d="M27.2896 54.1445C27.4568 54.3315 27.6179 54.5973 27.7414 54.9177C27.5637 54.7227 27.4236 54.4731 27.2896 54.1445Z" fill="#5B5CB9"/>
<path d="M52.3322 78.4141C52.5678 78.4391 52.8239 78.5288 53.1132 78.6873C52.8819 78.6637 52.6172 78.5712 52.3322 78.4141Z" fill="#5B5CB9"/>
<path d="M48.2951 77.0273C48.4635 77.06 48.6652 77.1546 48.8844 77.3124C48.7108 77.2802 48.5196 77.1847 48.2951 77.0273Z" fill="#5B5CB9"/>
<path d="M27.721 55.4395C27.8971 55.5616 28.0691 55.7581 28.2333 56.0279C28.0559 55.9054 27.8864 55.7097 27.721 55.4395Z" fill="#5B5CB9"/>
<path d="M47.2357 76.4512C47.4232 76.5217 47.6331 76.6572 47.8666 76.86C47.6795 76.7902 47.4688 76.6532 47.2357 76.4512Z" fill="#5B5CB9"/>
<path d="M38.6896 71.1133C38.878 71.2019 39.0806 71.3624 39.3019 71.5921C39.115 71.5027 38.9095 71.3439 38.6896 71.1133Z" fill="#5B5CB9"/>
<path d="M37.463 70.0254C37.649 70.1163 37.8505 70.2771 38.0665 70.5094C37.8801 70.419 37.6794 70.2571 37.463 70.0254Z" fill="#5B5CB9"/>
<path d="M32.5934 64.4805C32.7757 64.5893 32.9629 64.7726 33.1548 65.0289C32.9724 64.9197 32.7853 64.7372 32.5934 64.4805Z" fill="#5B5CB9"/>
<path d="M31.3725 62.7188C31.553 62.831 31.7368 63.0172 31.9204 63.2773C31.7387 63.165 31.5572 62.9788 31.3725 62.7188Z" fill="#5B5CB9"/>
<path d="M28.2283 56.5664C28.3955 56.695 28.5286 56.8722 28.6584 57.1219C28.5015 57.0012 28.3479 56.8081 28.2283 56.5664Z" fill="#5B5CB9"/>
<path d="M37.1533 52.7425C33.4246 51.8337 31.7373 48.8453 31.3853 45.0071C31.1345 42.2725 32.7135 39.5729 35.0516 38.5387C36.7345 37.7942 38.3849 38.2307 39.5195 39.5771C41.6196 42.0693 42.7488 45.0768 42.123 48.5162C41.662 51.0502 39.6727 53.0995 37.1533 52.7425Z" fill="#F7847B"/>
<path d="M41.4636 56.9739C43.3282 56.9268 44.7365 58.1771 44.9742 60.0999C45.0749 60.9146 45.1244 61.7727 45.0022 62.5765C44.6908 64.6245 42.9147 65.4654 41.2507 64.4494C39.8011 63.5643 39.1491 62.0997 39.1498 60.4465C39.1506 58.8758 39.9101 57.5948 41.4636 56.9739Z" fill="#F7847B"/>
<path d="M28.5458 49.7886C28.4015 49.4272 28.2853 48.9972 28.1997 48.5156C28.3448 48.8827 28.4593 49.3014 28.5458 49.7886Z" fill="#5B5CB9"/>
<path d="M28.1036 45.8229C28.0242 45.5476 27.9824 45.2031 27.9638 44.8047C28.0384 45.0851 28.0898 45.4195 28.1036 45.8229Z" fill="#5B5CB9"/>
<path d="M49.6427 35.6637C48.2786 33.3064 46.8263 31.0868 45.672 28.6995C44.3518 25.9688 43.3395 23.0899 42.6806 20.0513C42.0818 17.2897 41.8691 14.5348 42.3814 11.7976C43.0127 8.42422 44.8266 6.02578 48.009 4.99551C50.8425 4.0782 53.6423 4.31786 56.4982 4.92382C59.1066 5.47726 61.576 6.43088 63.8817 7.76132C66.7629 9.42387 69.6557 11.1473 72.271 13.2409C75.4413 15.7788 78.4997 18.5436 81.2961 21.5467C85.7001 26.2761 89.4102 31.6288 92.2369 37.6431C93.8772 41.133 95.1419 44.7737 95.6358 48.6604C96.0346 51.7984 95.8119 54.908 94.1328 57.636C92.4274 60.4068 89.8044 61.5421 86.8535 61.7616C84.0576 61.9696 81.3727 61.2706 78.7022 60.3665C72.6331 58.3118 67.4088 54.682 62.525 50.4295C60.3685 48.5517 58.2451 46.5814 56.365 44.3945C54.0004 41.6439 51.9004 38.6284 49.6427 35.6637ZM48.9694 29.6845C49.0527 29.9204 49.0939 30.1888 49.2256 30.3872C50.9333 32.9605 52.5566 35.6083 54.3916 38.072C58.1839 43.1633 62.6519 47.5084 67.5435 51.3441C68.1595 51.8272 68.8729 52.1655 69.6259 52.7027C73.8955 55.7108 78.3754 58.2043 83.4834 59.0641C86.0104 59.4895 88.4714 59.3083 90.7805 57.5654C92.529 56.2233 93.1283 54.2223 93.3211 52.0774C93.5878 49.1103 92.8554 46.2731 91.9186 43.5391C90.2753 38.7427 87.7847 34.4347 84.8919 30.412C79.4333 22.8211 73.0094 16.367 65.2418 11.5916C60.683 8.78888 55.9549 6.53604 50.4823 6.9849C47.9166 7.19532 45.1784 9.3935 44.6224 12.268C43.6573 18.7348 45.983 24.2374 48.9694 29.6845Z" fill="#DBD8E5"/>
<path d="M19.0378 83.6968C19.8186 82.7954 20.533 81.8059 21.4109 81.0329C21.7973 80.6927 22.6442 80.5163 23.0625 80.7411C24.8103 81.6809 25.968 83.2382 24.1075 85.1183C23.493 85.7392 22.9444 86.4361 22.2857 87.0474C21.5751 85.4209 20.2448 84.6278 19.0378 83.6968Z" fill="#777482"/>
<path d="M22.1742 87.3028C21.3867 88.1967 20.6296 89.1251 19.8028 89.9745C19.0131 90.7857 18.2861 90.7706 17.4562 90.0259C17.1453 89.747 16.8548 89.4372 16.5807 89.1159C15.8275 88.233 15.7846 87.3898 16.5087 86.4949C17.1512 85.701 17.8563 84.9661 18.6221 84.2559C19.6047 85.2614 20.4841 86.2337 21.4074 87.1547C21.568 87.3149 21.9139 87.2589 22.1742 87.3028Z" fill="#777482"/>
<path d="M22.1997 87.2733C21.9139 87.259 21.568 87.315 21.4074 87.1548C20.4841 86.2338 19.6048 85.2615 18.6855 84.2287C18.7482 84.0129 18.8357 83.8751 18.9806 83.7168C20.2448 84.6272 21.5752 85.4203 22.2255 87.081C22.2454 87.166 22.2251 87.2437 22.1997 87.2733Z" fill="#575665"/>
<path d="M90.6501 57.6158C88.4714 59.308 86.0103 59.4892 83.4833 59.0638C78.3753 58.204 73.8955 55.7105 69.6336 52.5691C69.8351 51.8962 70.0289 51.3565 70.263 50.7463C70.8061 48.7124 71.4061 46.7709 71.7906 44.7808C72.5086 41.0636 71.8623 37.4878 70.3507 34.126C68.6329 30.3055 65.892 27.6996 61.9553 26.8668C58.1464 26.0611 54.5994 27.334 51.0174 28.7546C50.2824 29.0226 49.6257 29.2844 48.9691 29.5463C45.983 24.2371 43.6573 18.7345 44.72 12.1587C45.6597 11.6978 46.4765 11.2212 47.3482 11.0166C50.2804 10.3284 53.1378 11.0153 55.8874 12.0001C59.228 13.1964 62.3867 14.9087 65.2635 17.1043C67.9392 19.1464 70.5459 21.3099 73.0608 23.5777C76.8681 27.0109 80.1869 30.9759 83.1334 35.2748C85.3048 38.4429 87.2187 41.7977 88.6497 45.4513C89.6215 47.9326 90.5763 50.4137 90.6531 53.1545C90.6947 54.6402 90.6538 56.1286 90.6501 57.6158Z" fill="#F7C73C"/>
<path d="M90.7153 57.5928C90.6538 56.1309 90.6948 54.6425 90.6531 53.1569C90.5763 50.416 89.6216 47.9349 88.6497 45.4536C87.2188 41.8 85.3049 38.4452 83.1334 35.2771C80.1869 30.9782 76.8681 27.0133 73.0608 23.58C70.5459 21.3122 67.9392 19.1488 65.2635 17.1066C62.3867 14.911 59.228 13.1988 55.8874 12.0024C53.1378 11.0176 50.2805 10.3307 47.3482 11.0189C46.4766 11.2235 45.6597 11.7001 44.7529 12.0693C45.1784 9.39552 47.9166 7.19734 50.4823 6.98692C55.9549 6.53806 60.683 8.7909 65.2418 11.5936C73.0094 16.3691 79.4333 22.8231 84.8919 30.414C87.7847 34.4367 90.2753 38.7447 91.9186 43.5411C92.8554 46.2751 93.5878 49.1123 93.3211 52.0794C93.1283 54.2243 92.529 56.2253 90.7153 57.5928Z" fill="#F9B144"/>
<path d="M70.2228 50.8184C70.029 51.3581 69.8352 51.8978 69.5913 52.5047C68.8729 52.1667 68.1595 51.8284 67.5435 51.3454C62.6519 47.5096 58.1839 43.1646 54.3916 38.0732C52.5566 35.6095 50.9333 32.9617 49.2256 30.3885C49.0939 30.19 49.0527 29.9217 48.9692 29.6168C49.6257 29.286 50.2824 29.0242 51.0494 28.8281C54.1349 33.9407 57.5242 38.6291 61.5191 42.7895C62.9094 44.2373 64.2705 45.7249 65.7368 47.0783C67.1711 48.402 68.7227 49.5777 70.2228 50.8184Z" fill="#51BC35"/>
<path d="M70.2631 50.7486C68.7227 49.5785 67.1712 48.4027 65.7369 47.079C64.2705 45.7257 62.9094 44.238 61.5192 42.7903C57.5242 38.6299 54.135 33.9415 51.1277 28.8226C54.5995 27.3363 58.1465 26.0634 61.9553 26.8691C65.892 27.7019 68.633 30.3078 70.3507 34.1282C71.8623 37.4901 72.5087 41.0659 71.7906 44.7831C71.4062 46.7731 70.8062 48.7147 70.2631 50.7486Z" fill="#6ED355"/>
</svg>
