<svg width="140" height="140" viewBox="0 0 140 140" fill="none" xmlns="http://www.w3.org/2000/svg">
<path d="M84.6986 102.438C83.9167 103.212 83.1834 104.042 82.3439 104.75C79.6509 107.023 76.9185 109.251 74.2014 111.496C70.1773 114.821 66.1499 118.142 62.1302 121.472C58.3176 124.631 54.5191 127.806 50.7029 130.96C47.803 133.357 44.8951 135.745 41.9633 138.104C41.5723 138.419 41.0377 138.6 40.5395 138.741C38.9634 139.185 37.5751 140.16 35.7688 139.977C33.9824 139.796 32.1599 139.986 30.3552 139.939C29.4786 139.916 28.617 140.118 27.7913 139.268C27.2653 138.726 26.0579 138.867 25.1956 138.586C23.2469 137.949 21.1715 137.496 19.4235 136.502C16.693 134.948 14.028 133.195 11.6324 131.186C8.4786 128.54 6.04863 125.219 3.92178 121.723C3.33573 120.759 2.9536 119.671 2.52466 118.622C1.86278 117.003 0.92093 115.414 0.672182 113.73C0.217705 110.654 -0.187669 107.485 0.0919945 104.417C0.313652 101.986 0.976023 99.4004 2.55869 97.3312C4.3413 95.0005 6.33286 92.8248 8.16766 90.531C10.9516 87.0507 13.6476 83.5025 16.4384 80.0276C19.4266 76.3068 22.4788 72.6355 25.5075 68.9462C28.5332 65.2605 31.5742 61.5868 34.5803 57.8858C34.9478 57.4334 35.1408 56.8444 35.5754 56.3379C35.9374 56.5155 36.1385 56.6738 36.3612 56.9436C36.3375 57.9814 36.2924 58.9078 36.2287 59.9595C36.4573 61.0566 36.7043 62.0284 36.9626 63.102C36.9788 63.4082 36.9836 63.6127 36.9329 63.8957C37.1011 64.5806 37.3249 65.1871 37.5568 65.883C37.5698 66.0923 37.5747 66.212 37.529 66.4016C37.7138 67.0766 37.9492 67.6815 38.1915 68.374C38.2036 68.5786 38.2088 68.6955 38.2055 68.913C38.3931 69.3312 38.5892 69.6488 38.7923 70.0496C38.8046 70.2438 38.8099 70.3549 38.8094 70.5607C39.0409 70.9046 39.2782 71.1538 39.5271 71.491C39.5481 71.6971 39.5577 71.8151 39.5196 71.9949C39.687 72.3025 39.902 72.5483 40.13 72.8812C40.1565 73.0848 40.1701 73.2014 40.1957 73.4199C41.0326 74.8654 41.8576 76.2089 42.7362 77.6347C43.1654 78.3879 43.5411 79.0589 43.9215 79.8239C44.1801 80.1549 44.4341 80.3919 44.7417 80.7027C45.0715 81.1754 45.3477 81.5742 45.6307 82.0677C45.8994 82.3945 46.1613 82.6267 46.453 82.9497C48.464 85.0386 50.4452 87.0366 52.4482 89.1235C52.7511 89.4185 53.0322 89.6244 53.3874 89.8724C53.6896 90.0824 53.9175 90.2505 54.1654 90.5102C54.4732 90.8037 54.761 91.0058 55.1325 91.2557C56.0911 91.8583 56.9659 92.4131 57.8651 93.0577C58.4701 93.5204 59.0508 93.8933 59.7234 94.2886C60.1049 94.4331 60.3945 94.5551 60.7152 94.7643C61.4135 95.2241 62.0808 95.5967 62.8474 95.9768C63.1439 96.0129 63.341 96.0418 63.5658 96.1585C64.2495 96.5505 64.9054 96.8545 65.6513 97.165C65.8604 97.1872 65.9795 97.2031 66.13 97.3015C66.4563 97.5586 66.7513 97.733 67.1332 97.9126C67.3357 97.9307 67.4511 97.9437 67.6131 98.0353C67.9274 98.2356 68.1951 98.3572 68.5514 98.4829C68.7578 98.4978 68.8756 98.5087 69.055 98.5871C69.6448 98.8042 70.1729 98.9537 70.7916 99.1071C71.0023 99.123 71.1225 99.135 71.2688 99.2312C71.6667 99.4329 72.0385 99.5504 72.514 99.6685C72.8239 99.6856 73.0302 99.7023 73.265 99.8012C73.6641 100.001 74.0346 100.119 74.5084 100.247C75.021 100.327 75.4303 100.397 75.894 100.554C76.4022 100.757 76.8561 100.874 77.4115 100.995C77.7158 101.008 77.9187 101.018 78.198 101.099C78.9937 101.303 79.713 101.436 80.523 101.57C80.7346 101.576 80.8556 101.582 81.0606 101.655C82.3293 101.962 83.514 102.2 84.6986 102.438ZM26.5298 100.378C25.2757 102.009 23.9029 103.567 22.7955 105.29C21.1761 107.809 19.7889 110.471 19.7799 113.566C19.771 116.64 22.1008 118.272 25.1546 117.492C28.2021 116.713 30.8556 115.223 33.2483 113.29C38.3487 109.17 42.446 104.347 44.2651 97.9326C45.2518 94.4536 43.4805 91.6801 40.242 91.9202C39.2673 91.9925 38.2812 92.2619 37.3577 92.5943C33.0606 94.1407 29.7354 97.0187 26.5298 100.378ZM38.1629 124.981C39.0635 124.16 39.9619 123.336 40.865 122.517C43.7832 119.87 46.7091 117.232 49.6174 114.575C50.1923 114.05 50.4612 113.431 49.7902 112.765C49.1684 112.148 48.6122 112.22 47.9584 112.805C45.4089 115.087 42.8091 117.314 40.2524 119.588C38.6749 120.991 37.1072 122.409 35.616 123.898C35.3047 124.209 35.1021 125.01 35.2942 125.319C35.5159 125.676 36.2422 125.911 36.7275 125.879C37.1717 125.85 37.5867 125.394 38.1629 124.981ZM49.0545 118.461C48.8226 118.47 48.491 118.385 48.3739 118.504C46.7044 120.196 45.0129 121.873 43.4691 123.671C43.2262 123.954 43.5378 124.927 43.8821 125.36C44.0395 125.557 45.0824 125.401 45.4084 125.088C46.8249 123.73 48.1369 122.266 49.4633 120.82C50.2082 120.008 50.3819 119.204 49.0545 118.461Z" fill="#6F6ECF"/>
<path d="M115.115 88.3448C111.724 90.88 108.432 93.5593 104.901 95.8898C103.119 97.066 101.321 98.2611 99.0985 98.906C95.6041 99.92 92.1264 99.9203 88.4607 99.7949C87.9977 99.5633 87.6668 99.4349 87.2214 99.2568C81.0302 98.7407 75.1213 97.5621 69.4041 95.4284C61.3021 92.4045 54.4044 87.7637 48.9122 81.1495C44.5616 75.9101 41.5805 70.0084 39.9641 63.3678C39.8431 62.7477 39.6827 62.2148 39.5445 61.5451C39.4752 60.4082 39.3838 59.4082 39.3451 58.3203C39.3257 57.8068 39.2537 57.3812 39.2154 56.8227C39.1988 56.3271 39.1488 55.9644 39.1436 55.492C38.9997 54.5112 39.8883 53.3669 38.5077 52.7983C38.4933 50.3285 38.3179 47.8459 38.5211 45.3934C38.6563 43.7627 39.2999 42.1657 39.7769 40.5712C40.1369 39.3673 40.4744 38.1339 41.0334 37.0154C42.0061 35.0689 43.0516 33.1447 44.232 31.3139C45.765 28.936 47.4598 26.6585 49.2373 24.416C50.3611 27.3889 51.0801 30.3966 52.3622 33.1521C54.3749 37.4781 56.5373 41.7712 59.051 45.8311C63.1754 52.4925 68.2423 58.4995 73.926 63.929C77.651 67.4873 81.7473 70.6793 85.7576 73.9403C90.3029 77.6364 95.3405 80.6505 100.698 83.0104C105.375 85.0703 110.3 86.5877 115.115 88.3448ZM52.135 67.1453C55.5416 67.5809 58.3266 64.9727 58.9721 61.7477C59.8482 57.3702 58.2674 53.5425 55.3272 50.3706C53.7387 48.657 51.4282 48.1015 49.0721 49.049C45.7988 50.3653 43.5883 53.8011 43.9394 57.2815C44.4322 62.1665 46.7944 65.9699 52.135 67.1453ZM57.9339 72.5301C55.874 73.3018 54.8107 74.9321 54.8097 76.9312C54.8087 79.0353 55.7215 80.8994 57.7509 82.0258C60.0805 83.3189 62.5671 82.2487 63.003 79.6422C63.1741 78.6191 63.1048 77.5271 62.9638 76.4901C62.6311 74.043 60.6595 72.4516 57.9339 72.5301Z" fill="#F46357"/>
<path d="M52.4798 19.4805C52.2878 18.7957 51.8698 18.0856 51.9459 17.4307C52.1804 15.4126 52.7168 13.4267 52.9224 11.4073C53.1361 9.30765 54.2052 7.63952 55.492 6.13573C56.6651 4.76468 58.038 3.50117 59.5171 2.45444C61.1296 1.31338 63.0833 0.925229 65.0369 0.435611C67.4003 -0.156747 69.6978 0.0168999 72.006 0.0461386C74.0016 0.0714224 76.0349 0.307587 77.9479 1.0791C78.6954 1.38057 79.5567 1.39847 80.3323 1.64709C82.8949 2.46851 85.5299 3.14642 87.9725 4.23502C90.9327 5.55432 93.812 7.10006 96.5682 8.79517C99.9158 10.854 103.158 13.0923 106.332 15.4034C108.509 16.9884 110.594 18.7266 112.538 20.5806C115.634 23.5339 118.687 26.5461 121.549 29.7147C123.613 31.9986 125.363 34.5587 127.204 37.0307C128.591 38.8931 129.939 40.7857 131.232 42.7121C132.314 44.3249 133.362 45.9684 134.294 47.6675C135.211 49.34 136.054 51.065 136.76 52.832C137.317 54.2274 137.566 55.7389 138.051 57.1661C138.41 58.2217 138.936 59.2222 139.373 60.2536C139.442 60.4181 139.443 60.615 139.454 60.7982C139.648 63.9315 139.927 67.0633 139.992 70.1993C140.024 71.7656 139.993 73.4763 139.395 74.877C138.576 76.7979 137.365 78.6303 135.995 80.2312C134.785 81.6445 133.272 82.9552 131.624 83.8162C130.148 84.5875 128.321 84.7771 126.62 85.0532C124.798 85.3489 122.945 85.4973 121.1 85.5971C120.568 85.6259 120.014 85.2649 119.264 85.0296C118.789 84.8816 118.528 84.7613 118.254 84.6953C115.584 84.053 112.852 83.5952 110.251 82.7485C104.337 80.8231 98.8036 78.0564 93.6168 74.6828C80.4972 66.15 69.6417 55.4254 61.4038 42.2233C58.1249 36.9686 55.4755 31.4314 53.951 25.422C53.4493 23.4443 52.9696 21.4612 52.4798 19.4805ZM69.5607 45.4718C72.6605 49.1642 75.6005 53.0021 78.911 56.5028C81.5432 59.2861 84.5159 61.7938 87.535 64.1837C94.3723 69.5961 101.686 74.2157 110.183 76.8308C113.922 77.9815 117.681 78.8711 121.595 78.6064C125.726 78.327 129.398 76.8821 131.786 73.3556C134.137 69.8836 134.448 65.926 133.89 61.9321C133.199 56.9854 131.428 52.3519 129.132 47.9101C125.174 40.2556 119.98 33.443 113.815 27.4238C109.9 23.6017 105.618 20.0829 101.179 16.8529C97.518 14.1883 93.4681 11.9948 89.4344 9.87879C86.2064 8.18551 82.7492 6.97181 79.0975 6.26744C75.0992 5.49621 71.1795 5.19118 67.2127 6.35867C62.7573 7.66993 60.2178 10.7225 59.3339 15.0159C58.6168 18.4996 58.9145 22.0059 59.7529 25.5206C60.6754 29.3879 62.0925 33.0519 63.9409 36.5273C65.5568 39.5658 67.59 42.3907 69.5607 45.4718Z" fill="#C7BEDF"/>
<path d="M52.3786 19.5312C52.9696 21.4626 53.4494 23.4457 53.9511 25.4234C55.4756 31.4328 58.1249 36.97 61.4039 42.2248C69.6418 55.4268 80.4973 66.1514 93.6169 74.6843C98.8037 78.0578 104.337 80.8245 110.251 82.7499C112.852 83.5966 115.584 84.0544 118.254 84.6967C118.529 84.7627 118.789 84.8831 119.151 85.0291C117.913 86.141 116.581 87.2019 115.182 88.3042C110.3 86.5884 105.375 85.071 100.698 83.0111C95.3406 80.6512 90.303 77.6371 85.7577 73.941C81.7474 70.68 77.651 67.488 73.9261 63.9296C68.2423 58.5002 63.1755 52.4931 59.0511 45.8318C56.5374 41.7719 54.375 37.4788 52.3623 33.1528C51.0802 30.3972 50.3612 27.3896 49.3436 24.4009C49.4773 23.8951 49.6014 23.4477 49.8471 23.0782C50.6329 21.8967 51.4638 20.7442 52.3786 19.5312Z" fill="#F2443B"/>
<path d="M87.3357 99.3047C87.6667 99.4331 87.9977 99.5615 88.3237 99.7723C87.1857 100.709 86.0526 101.563 84.809 102.427C83.5139 102.197 82.3292 101.959 81.1476 101.59C81.7044 101.49 82.263 101.487 82.8112 101.56C85.3631 101.899 86.5475 101.317 87.3357 99.3047Z" fill="#5B5CB9"/>
<path d="M38.4253 52.8398C39.8883 53.3655 38.9997 54.5097 39.0737 55.4492C38.8332 54.9782 38.7075 54.4386 38.5331 53.6895C37.6995 54.883 37.0196 55.8565 36.3396 56.83C36.1385 56.6717 35.9374 56.5133 35.6793 56.3043C36.5291 55.1301 37.436 54.0065 38.4253 52.8398Z" fill="#5B5CB9"/>
<path d="M26.6001 100.306C29.7355 97.0173 33.0607 94.1393 37.3577 92.5928C38.2813 92.2604 39.2674 91.9911 40.2421 91.9188C43.4806 91.6787 45.2519 94.4522 44.2652 97.9312C42.4461 104.345 38.3487 109.169 33.2484 113.289C30.8557 115.222 28.2022 116.711 25.1547 117.49C22.1008 118.271 19.771 116.638 19.78 113.564C19.789 110.469 21.1761 107.807 22.7956 105.289C23.9029 103.566 25.2758 102.008 26.6001 100.306ZM31.1152 111.037C31.1152 111.037 31.1436 110.938 31.3121 110.851C32.1223 110.009 32.8903 109.122 33.7506 108.331C36.3553 105.939 34.7345 103.957 32.2876 102.761C31.702 102.474 30.5164 102.699 29.9754 103.132C28.7462 104.116 27.7462 105.375 26.4927 106.575C26.3701 106.75 26.2475 106.925 25.9474 107.17C24.9989 108.139 24.0117 109.074 23.1123 110.084C22.0985 111.223 22.1585 112.296 23.2131 113.42C23.5968 113.829 24.0035 114.223 24.4387 114.578C25.6007 115.526 26.6185 115.545 27.724 114.513C28.8815 113.432 29.9414 112.25 31.1152 111.037Z" fill="#F7E27C"/>
<path d="M36.3611 56.9414C37.0195 55.8565 37.6994 54.883 38.533 53.6895C38.7075 54.4386 38.8331 54.9781 39.0287 55.559C39.1487 55.9629 39.1988 56.3256 39.1829 56.8899C39.1753 57.5299 39.2339 57.9683 39.2924 58.4067C39.3838 59.4067 39.4752 60.4067 39.5017 61.6093C39.5994 62.359 39.7621 62.9063 39.9247 63.4535C41.5805 70.0068 44.5616 75.9086 48.9122 81.148C54.4044 87.7622 61.3021 92.403 69.4041 95.4269C75.1213 97.5606 81.0302 98.7392 87.2213 99.2553C86.5475 101.317 85.3631 101.899 82.8112 101.56C82.263 101.488 81.7044 101.49 81.0635 101.521C80.8555 101.579 80.7346 101.574 80.4837 101.478C79.6096 101.266 78.8655 101.146 78.1215 101.026C77.9186 101.016 77.7157 101.006 77.3749 100.909C76.7711 100.703 76.3054 100.584 75.8396 100.466C75.4303 100.395 75.021 100.325 74.4617 100.157C73.9534 99.945 73.5949 99.8309 73.2364 99.7168C73.0301 99.7001 72.8238 99.6834 72.4648 99.581C71.9557 99.3785 71.5992 99.2616 71.2427 99.1448C71.1225 99.1328 71.0023 99.1208 70.7322 99.0334C70.0527 98.8112 69.523 98.6642 68.9934 98.5172C68.8756 98.5064 68.7578 98.4956 68.5267 98.4001C68.1312 98.195 67.8489 98.0747 67.5665 97.9544C67.4511 97.9414 67.3356 97.9285 67.1001 97.8247C66.6863 97.5615 66.3924 97.3891 66.0986 97.2166C65.9795 97.2008 65.8603 97.185 65.6049 97.0758C64.8251 96.6778 64.1816 96.3731 63.538 96.0684C63.3409 96.0395 63.1438 96.0107 62.82 95.8822C62.0235 95.4134 61.3538 95.0442 60.684 94.6749C60.3944 94.5529 60.1048 94.4309 59.6901 94.1993C58.9902 93.715 58.4155 93.3403 57.8407 92.9656C56.9659 92.4109 56.091 91.8561 55.1063 91.1652C54.7128 90.8249 54.4291 90.6207 54.1454 90.4165C53.9175 90.2483 53.6895 90.0802 53.3672 89.7792C52.9907 89.4417 52.7085 89.237 52.4263 89.0323C50.4451 87.0343 48.4639 85.0364 46.4464 82.8544C46.148 82.4372 45.8859 82.204 45.6239 81.9709C45.3476 81.572 45.0714 81.1732 44.742 80.6064C44.4315 80.2015 44.1741 79.9645 43.9168 79.7276C43.5411 79.0566 43.1654 78.3856 42.7372 77.5314C41.8511 76.004 41.0174 74.6598 40.1837 73.3157C40.17 73.1991 40.1564 73.0826 40.1346 72.7867C39.94 72.3819 39.7536 72.1564 39.5671 71.9309C39.5576 71.8129 39.5481 71.6949 39.538 71.3955C39.2967 70.964 39.0559 70.7139 38.8151 70.4637C38.8098 70.3526 38.8045 70.2416 38.8449 69.978C38.665 69.4871 38.4394 69.1487 38.2139 68.8103C38.2087 68.6933 38.2035 68.5763 38.25 68.3018C38.061 67.5393 37.8203 66.9344 37.5796 66.3294C37.5746 66.2097 37.5697 66.09 37.5738 65.7713C37.3846 64.9865 37.1865 64.4007 36.9884 63.8149C36.9836 63.6105 36.9787 63.406 36.9866 62.9773C36.7486 61.7794 36.4978 60.8057 36.2471 59.8319C36.2923 58.9055 36.3375 57.9792 36.3611 56.9414Z" fill="#46418B"/>
<path d="M38.0887 125.053C37.5866 125.393 37.1716 125.848 36.7274 125.878C36.2422 125.91 35.5159 125.675 35.2942 125.318C35.102 125.009 35.3046 124.207 35.616 123.896C37.1071 122.407 38.6748 120.99 40.2523 119.587C42.8091 117.313 45.4088 115.086 47.9583 112.804C48.6121 112.219 49.1683 112.146 49.7902 112.764C50.4611 113.43 50.1923 114.048 49.6173 114.574C46.709 117.231 43.7832 119.869 40.8649 122.516C39.9619 123.335 39.0634 124.159 38.0887 125.053Z" fill="#5B5CB9"/>
<path d="M49.1499 118.502C50.3819 119.204 50.2081 120.008 49.4633 120.82C48.1369 122.267 46.8249 123.731 45.4084 125.089C45.0824 125.401 44.0394 125.558 43.8821 125.36C43.5378 124.928 43.2261 123.955 43.469 123.672C45.0129 121.873 46.7044 120.196 48.3738 118.505C48.491 118.386 48.8226 118.471 49.1499 118.502Z" fill="#5B5CB9"/>
<path d="M40.1957 73.418C41.0175 74.6601 41.8511 76.0043 42.6837 77.4495C41.8576 76.207 41.0327 74.8635 40.1957 73.418Z" fill="#5B5CB9"/>
<path d="M36.2287 59.959C36.4979 60.8074 36.7486 61.7812 36.9753 62.8773C36.7042 62.0279 36.4572 61.0561 36.2287 59.959Z" fill="#5B5CB9"/>
<path d="M78.1979 101.098C78.8655 101.147 79.6096 101.267 80.3929 101.477C79.7129 101.434 78.9936 101.301 78.1979 101.098Z" fill="#5B5CB9"/>
<path d="M36.9329 63.8945C37.1866 64.4018 37.3847 64.9876 37.5658 65.6829C37.3249 65.1859 37.1011 64.5795 36.9329 63.8945Z" fill="#5B5CB9"/>
<path d="M63.5658 96.1562C64.1816 96.373 64.8252 96.6777 65.5151 97.0693C64.9054 96.8522 64.2495 96.5482 63.5658 96.1562Z" fill="#5B5CB9"/>
<path d="M60.7152 94.7637C61.3539 95.0458 62.0236 95.415 62.7207 95.8765C62.0808 95.5961 61.4136 95.2235 60.7152 94.7637Z" fill="#5B5CB9"/>
<path d="M37.529 66.4004C37.8203 66.9353 38.061 67.5403 38.2431 68.2152C37.9491 67.6803 37.7138 67.0753 37.529 66.4004Z" fill="#5B5CB9"/>
<path d="M57.8651 93.0566C58.4155 93.3415 58.9903 93.7162 59.5983 94.178C59.0508 93.8923 58.4701 93.5193 57.8651 93.0566Z" fill="#5B5CB9"/>
<path d="M75.894 100.553C76.3055 100.585 76.7712 100.704 77.2735 100.906C76.8561 100.873 76.4023 100.756 75.894 100.553Z" fill="#5B5CB9"/>
<path d="M69.0551 98.5859C69.5232 98.6653 70.0528 98.8122 70.6418 99.0306C70.173 98.9526 69.6449 98.8031 69.0551 98.5859Z" fill="#5B5CB9"/>
<path d="M71.2688 99.2305C71.5992 99.2631 71.9557 99.3799 72.3613 99.582C72.0386 99.5497 71.6667 99.4322 71.2688 99.2305Z" fill="#5B5CB9"/>
<path d="M38.2055 68.9121C38.4395 69.15 38.6651 69.4884 38.8379 69.8962C38.5892 69.6479 38.3931 69.3303 38.2055 68.9121Z" fill="#5B5CB9"/>
<path d="M73.265 99.8008C73.5949 99.8327 73.9534 99.9468 74.3585 100.149C74.0346 100.119 73.6641 100.001 73.265 99.8008Z" fill="#5B5CB9"/>
<path d="M67.6132 98.0332C67.8489 98.0748 68.1312 98.1951 68.4382 98.3961C68.1951 98.3551 67.9274 98.2335 67.6132 98.0332Z" fill="#5B5CB9"/>
<path d="M38.8094 70.5586C39.056 70.714 39.2968 70.9641 39.5266 71.3076C39.2783 71.1517 39.041 70.9025 38.8094 70.5586Z" fill="#5B5CB9"/>
<path d="M66.13 97.3008C66.3925 97.3906 66.6863 97.563 67.0132 97.8211C66.7513 97.7323 66.4563 97.5579 66.13 97.3008Z" fill="#5B5CB9"/>
<path d="M54.1655 90.5098C54.4292 90.6225 54.7129 90.8268 55.0227 91.1192C54.761 91.0054 54.4732 90.8033 54.1655 90.5098Z" fill="#5B5CB9"/>
<path d="M52.4482 89.123C52.7086 89.2388 52.9907 89.4435 53.2931 89.739C53.0322 89.624 52.7511 89.418 52.4482 89.123Z" fill="#5B5CB9"/>
<path d="M45.6307 82.0664C45.886 82.205 46.148 82.4381 46.4167 82.7644C46.1614 82.6254 45.8994 82.3932 45.6307 82.0664Z" fill="#5B5CB9"/>
<path d="M43.9214 79.8223C44.1741 79.9652 44.4315 80.2021 44.6885 80.5331C44.4341 80.3903 44.1801 80.1533 43.9214 79.8223Z" fill="#5B5CB9"/>
<path d="M39.5195 71.9941C39.7536 72.1579 39.94 72.3834 40.1218 72.7011C39.902 72.5475 39.6869 72.3017 39.5195 71.9941Z" fill="#5B5CB9"/>
<path d="M52.0146 67.1268C46.7944 65.9702 44.4322 62.1667 43.9394 57.2818C43.5883 53.8014 45.7989 50.3655 49.0722 49.0492C51.4283 48.1018 53.7388 48.6573 55.3272 50.3709C58.2674 53.5428 59.8483 57.3704 58.9722 61.7479C58.3267 64.973 55.5417 67.5812 52.0146 67.1268Z" fill="#F7847B"/>
<path d="M58.049 72.5114C60.6595 72.4513 62.6311 74.0427 62.9638 76.4899C63.1048 77.5268 63.1741 78.6189 63.003 79.6419C62.5671 82.2484 60.0805 83.3187 57.7509 82.0256C55.7215 80.8992 54.8087 79.0351 54.8098 76.931C54.8108 74.9319 55.8741 73.3016 58.049 72.5114Z" fill="#F7847B"/>
<path d="M39.9641 63.3682C39.7621 62.9082 39.5995 62.361 39.4796 61.748C39.6827 62.2152 39.8431 62.7481 39.9641 63.3682Z" fill="#5B5CB9"/>
<path d="M39.3451 58.3194C39.2339 57.9689 39.1753 57.5305 39.1493 57.0234C39.2537 57.3803 39.3257 57.8059 39.3451 58.3194Z" fill="#5B5CB9"/>
<path d="M69.4998 45.391C67.59 42.3908 65.5568 39.5659 63.9409 36.5275C62.0925 33.052 60.6754 29.3881 59.7529 25.5207C58.9145 22.006 58.6168 18.4998 59.3339 15.016C60.2178 10.7226 62.7573 7.67006 67.2127 6.35881C71.1795 5.19132 75.0992 5.49635 79.0975 6.26757C82.7492 6.97195 86.2064 8.18565 89.4344 9.87893C93.4681 11.9949 97.518 14.1884 101.179 16.853C105.618 20.083 109.9 23.6018 113.815 27.4239C119.98 33.4431 125.174 40.2558 129.132 47.9103C131.428 52.352 133.199 56.9856 133.89 61.9323C134.448 65.9261 134.137 69.8838 131.786 73.3558C129.398 76.8823 125.726 78.3272 121.595 78.6065C117.681 78.8713 113.922 77.9816 110.183 76.8309C101.686 74.2159 94.3723 69.5962 87.535 64.1839C84.5159 61.794 81.5432 59.2863 78.911 56.5029C75.6005 53.0023 72.6605 49.1643 69.4998 45.391ZM68.5571 37.7812C68.6737 38.0814 68.7314 38.423 68.9158 38.6755C71.3067 41.9506 73.5792 45.3205 76.1483 48.4561C81.4574 54.936 87.7127 60.4661 94.5609 65.348C95.4233 65.9627 96.4221 66.3933 97.4762 67.0771C103.454 70.9055 109.726 74.0791 116.877 75.1734C120.415 75.7148 123.86 75.4841 127.093 73.2659C129.541 71.5578 130.38 69.0111 130.649 66.2812C131.023 62.5049 129.998 58.894 128.686 55.4142C126.385 49.3097 122.899 43.8269 118.849 38.707C111.207 29.046 102.213 20.8317 91.3386 14.7538C84.9563 11.1867 78.3368 8.31948 70.6753 8.89076C67.0833 9.15857 63.2498 11.9563 62.4714 15.6147C61.1202 23.8452 64.3762 30.8485 68.5571 37.7812Z" fill="#DBD8E5"/>
<path d="M26.6529 106.523C27.7461 105.375 28.7461 104.116 29.9753 103.132C30.5163 102.699 31.7019 102.475 32.2875 102.761C34.7344 103.957 36.3552 105.939 33.7505 108.332C32.8902 109.122 32.1222 110.009 31.1999 110.787C30.2052 108.717 28.3427 107.707 26.6529 106.523Z" fill="#777482"/>
<path d="M31.0439 111.112C29.9413 112.25 28.8814 113.432 27.7239 114.513C26.6184 115.545 25.6006 115.526 24.4386 114.578C24.0035 114.223 23.5967 113.829 23.213 113.42C22.1584 112.296 22.0984 111.223 23.1122 110.084C24.0116 109.074 24.9988 108.138 26.071 107.234C27.4466 108.514 28.6777 109.752 29.9703 110.924C30.1952 111.128 30.6794 111.056 31.0439 111.112Z" fill="#777482"/>
<path d="M31.0796 111.073C30.6795 111.055 30.1953 111.126 29.9703 110.922C28.6778 109.75 27.4467 108.513 26.1598 107.198C26.2475 106.924 26.3701 106.748 26.5728 106.547C28.3428 107.706 30.2052 108.715 31.1157 110.829C31.1436 110.937 31.1152 111.036 31.0796 111.073Z" fill="#575665"/>
<path d="M126.91 73.3303C123.86 75.4839 120.415 75.7146 116.877 75.1732C109.725 74.0789 103.454 70.9053 97.4871 66.9072C97.7692 66.0508 98.0405 65.3639 98.3683 64.5873C99.1286 61.9987 99.9686 59.5276 100.507 56.9948C101.512 52.2638 100.607 47.7129 98.491 43.4341C96.0862 38.5717 92.2488 35.2552 86.7374 34.1952C81.405 33.1697 76.4392 34.7898 71.4244 36.5978C70.3954 36.939 69.476 37.2722 68.5567 37.6054C64.3762 30.8483 61.1202 23.845 62.6081 15.4758C63.9236 14.8891 65.0672 14.2826 66.2875 14.0222C70.3927 13.1463 74.3929 14.0206 78.2424 15.2739C82.9192 16.7965 87.3414 18.9758 91.3689 21.7702C95.1149 24.3693 98.7643 27.1228 102.285 30.0091C107.615 34.3786 112.262 39.4249 116.387 44.8962C119.427 48.9284 122.106 53.1981 124.11 57.8482C125.47 61.0062 126.807 64.1639 126.914 67.6523C126.973 69.5432 126.915 71.4375 126.91 73.3303Z" fill="#F7C73C"/>
<path d="M127.001 73.2986C126.915 71.4381 126.973 69.5438 126.914 67.6529C126.807 64.1645 125.47 61.0068 124.11 57.8488C122.106 53.1988 119.427 48.929 116.387 44.8969C112.262 39.4256 107.615 34.3793 102.285 30.0097C98.7643 27.1234 95.1149 24.3699 91.3689 21.7708C87.3414 18.9764 82.9192 16.7972 78.2424 15.2745C74.393 14.0212 70.3927 13.1469 66.2875 14.0228C65.0672 14.2832 63.9236 14.8897 62.6541 15.3597C63.2498 11.9567 67.0833 9.15901 70.6753 8.8912C78.3368 8.31992 84.9563 11.1872 91.3386 14.7542C102.213 20.8321 111.207 29.0464 118.849 38.7075C122.899 43.8273 126.385 49.3102 128.686 55.4147C129.998 58.8944 131.023 62.5053 130.649 66.2817C130.38 69.0115 129.541 71.5582 127.001 73.2986Z" fill="#F9B144"/>
<path d="M98.3119 64.6771C98.0406 65.364 97.7692 66.0508 97.4278 66.8233C96.4221 66.3931 95.4233 65.9626 94.5609 65.3478C87.7127 60.4659 81.4574 54.9358 76.1483 48.4559C73.5792 45.3203 71.3067 41.9504 68.9158 38.6754C68.7314 38.4228 68.6737 38.0812 68.5569 37.6932C69.4761 37.2722 70.3954 36.939 71.4691 36.6895C75.7889 43.1964 80.5338 49.1635 86.1268 54.4585C88.0731 56.3012 89.9786 58.1945 92.0316 59.9169C94.0396 61.6016 96.2118 63.098 98.3119 64.6771Z" fill="#51BC35"/>
<path d="M98.3684 64.5892C96.2118 63.0999 94.0397 61.6034 92.0316 59.9187C89.9787 58.1963 88.0732 56.303 86.1269 54.4603C80.5339 49.1653 75.789 43.1982 71.5789 36.6833C76.4393 34.7917 81.4051 33.1716 86.7375 34.1971C92.2489 35.257 96.0862 38.5736 98.4911 43.4359C100.607 47.7147 101.512 52.2656 100.507 56.9967C99.9687 59.5295 99.1286 62.0005 98.3684 64.5892Z" fill="#6ED355"/>
</svg>
