<svg width="171" height="175" viewBox="0 0 171 175" fill="none" xmlns="http://www.w3.org/2000/svg">
<path d="M62.8903 64.1392C63.101 62.2145 63.2118 60.271 63.5584 58.3718C63.7799 57.1579 64.3678 56.0157 64.7575 54.8298C65.0565 53.92 65.3443 53.0024 65.563 52.0702C65.9991 50.2114 66.3435 48.3297 66.8117 46.4798C66.9844 45.7975 67.46 45.2002 67.6917 44.5265C68.3256 42.6839 68.8633 40.8064 69.526 38.9753C69.739 38.3868 70.2229 37.8997 70.7493 37.2102C71.2805 36.923 71.6454 36.6774 72.01 36.6777C78.6222 36.6842 85.2343 36.7202 91.8514 36.8932C92.1066 39.3316 92.3609 41.6262 92.6061 43.9218C92.9792 47.4145 93.3169 50.9115 93.7299 54.3992C93.8908 55.7573 94.2154 57.0954 94.4731 58.5803C94.4862 66.972 94.4916 75.226 94.3999 83.5073C93.9957 83.652 93.6885 83.7693 93.2487 83.8739C92.4103 83.9092 91.7046 83.9571 90.8642 83.9594C90.1849 83.8999 89.6403 83.8741 89.0958 83.874C80.3229 83.8714 71.55 83.8912 62.7775 83.8338C62.1125 83.8294 61.4508 83.2816 60.7876 82.9865C60.7974 82.4617 60.8073 81.9369 60.915 81.207C61.2402 80.6247 61.6546 80.2524 61.6641 79.8696C61.7212 77.5792 61.6851 75.2864 61.6802 72.9943C61.6924 72.7568 61.7046 72.5193 61.8432 72.1303C63.0542 70.7667 62.656 69.4261 62.2956 68.0888C62.3018 67.9549 62.308 67.8209 62.4399 67.5548C63.5271 66.4153 63.3611 65.2929 62.8903 64.1392Z" fill="#FFD77F"/>
<path d="M69.6785 135.571C69.0096 133.511 68.605 131.305 67.6013 129.43C66.4765 127.329 66.0928 125.106 65.589 122.868C65.1964 121.125 65.2829 118.945 64.2597 117.758C63.0967 116.41 64.2552 114.684 62.9316 113.681C62.9063 113.662 62.9275 113.584 62.9217 113.533C62.7187 111.759 62.5042 109.985 62.3142 108.208C62.0968 106.175 62.4449 103.844 61.5683 102.173C60.2573 99.6736 61.1881 97.2513 60.8284 94.8364C60.5674 93.0838 60.4132 91.3142 60.2424 89.549C60.216 89.2766 60.3564 88.9875 60.5596 88.5201C61.3327 88.2461 61.9657 88.0825 62.5989 88.0815C72.5835 88.0659 82.5682 88.069 92.5528 88.0764C93.1962 88.0769 93.8394 88.1469 94.4748 88.2654C94.4646 88.4544 94.4624 88.5624 94.3684 88.7376C94.1795 89.1332 94.0385 89.4554 93.9919 89.7911C93.3137 94.6813 92.7413 99.589 91.9476 104.46C91.3975 107.836 90.6704 111.195 89.799 114.501C88.688 118.716 87.417 122.892 86.0904 127.043C85.1442 130.004 83.9929 132.898 82.8509 135.839C82.6344 135.942 82.5001 136.029 82.2235 136.125C78.6469 136.162 75.2121 136.225 71.7784 136.186C71.0763 136.178 70.3784 135.786 69.6785 135.571ZM72.9286 97.5679C72.5067 97.1391 72.0963 96.6977 71.6608 96.2837C69.984 94.69 68.3827 95.197 67.8662 97.4781C67.1815 100.502 69.1467 105.482 71.7312 107.272C72.957 108.121 74.9195 107.348 75.0963 105.814C75.4338 102.886 75.0866 100.076 72.9286 97.5679ZM79.923 104.237C79.6636 106.467 80.4646 108.309 82.0109 109.82C82.9499 110.737 84.1891 110.372 84.3799 109.137C84.7268 106.889 84.0775 104.922 82.4357 103.373C81.3783 102.376 80.6099 102.606 79.923 104.237Z" fill="#FFD87E"/>
<path d="M110.143 153.797C110.143 153.797 110.112 153.941 109.978 154.01C109.369 154.386 108.705 154.578 108.449 155.017C106.04 159.139 103.593 163.224 100.197 166.621C99.9625 166.856 99.8612 167.222 99.6552 167.494C99.1231 168.195 98.529 168.851 98.0298 169.575C97.3469 170.565 96.7289 171.602 95.9949 172.676C95.2292 173.293 94.6515 173.511 94.5126 172.163C94.547 161.595 94.5601 151.168 94.6194 140.646C97.4836 138.46 100.329 136.406 103.108 134.262C104.432 133.241 105.629 132.049 106.961 130.961C107.169 131.078 107.3 131.17 107.47 131.358C108.344 132.25 109.179 133.045 109.976 133.967C109.972 134.481 109.913 134.908 110.054 135.25C110.688 136.772 111.344 138.287 112.057 139.771C112.852 141.425 113.718 143.043 114.561 144.771C114.568 144.993 114.567 145.12 114.458 145.26C114.14 145.451 113.86 145.589 113.731 145.815C112.957 147.178 112.154 148.531 111.485 149.948C110.907 151.173 109.715 152.202 110.143 153.797Z" fill="#F58111"/>
<path d="M91.8465 36.7501C85.2344 36.7203 78.6222 36.6843 72.01 36.6778C71.6454 36.6775 71.2805 36.9231 70.7987 37.1099C69.9361 37.149 69.1906 37.1179 68.4451 37.1178C46.4862 37.1153 24.5272 37.1158 2.5683 37.116C0.531339 37.116 -0.15015 36.4126 0.0268478 34.1987C1.92193 34.0717 3.66003 34.04 5.39638 34.0824C8.3159 34.1537 11.234 34.334 14.1533 34.3492C16.1276 34.3595 18.1241 34.3086 20.0706 34.0125C21.384 33.8128 22.7883 33.3538 23.1625 31.6842C24.9645 31.671 26.7664 31.6577 28.7096 31.7754C29.6319 34.0567 31.5124 34.5708 33.3767 34.6398C39.2281 34.8565 45.086 34.9452 50.9417 34.9634C54.9577 34.976 58.9756 34.8237 62.9905 34.6817C67.7425 34.5136 72.4925 34.2858 77.2422 34.0573C77.6974 34.0354 78.1439 33.825 78.5944 33.7021C78.5682 33.5509 78.5419 33.3998 78.5157 33.2487C77.9994 33.2183 77.4832 33.1631 76.9668 33.1617C73.8851 33.1533 70.8033 33.1732 67.7218 33.1414C67.2128 33.1361 66.7059 32.9223 66.198 32.8049C68.3229 32.7639 70.4477 32.6875 72.5726 32.6884C79.3096 32.691 86.0466 32.7329 92.7835 32.7212C93.2673 32.7204 93.7506 32.4104 94.252 32.0965C94.3561 31.9253 94.4417 31.8995 94.6239 31.9154C96.1611 33.0931 97.6011 34.2271 99.0663 35.4577C99.963 36.8088 100.799 38.0911 101.715 39.3104C102.753 40.6908 103.314 40.7487 104.87 39.829C105.016 39.9062 105.069 39.9784 105.043 40.179C104.448 40.5772 103.906 40.8771 103.356 41.1608C102.831 41.4318 102.297 41.6859 101.661 41.9416C101.092 41.652 100.61 41.3955 100.168 41.0797C98.3073 39.749 96.4587 38.4006 94.5587 36.9511C93.6233 36.8125 92.7349 36.7813 91.8465 36.7501Z" fill="#E12531"/>
<path d="M99.0411 35.3615C97.6011 34.2275 96.1611 33.0935 94.6327 31.7797C94.533 21.6919 94.5218 11.7839 94.5328 1.80117C94.5638 1.67531 94.5726 1.62407 94.7045 1.56993C95.1565 1.56421 95.4855 1.56142 95.8145 1.55862C95.9156 1.55729 95.9926 1.60043 96.0741 1.87215C96.5428 4.9333 99.4252 6.00264 100.626 8.40738C101.623 10.4041 103.405 11.989 104.789 13.7956C105.54 14.7759 106.316 15.7744 106.846 16.881C107.402 18.0412 108.737 18.889 108.295 20.4981C107.823 22.2185 107.396 23.9542 107.025 25.7001C106.102 30.0546 105.223 34.4186 104.227 38.748C103.584 38.3983 103.022 38.1065 102.499 37.7548C101.336 36.9729 100.192 36.1611 99.0411 35.3615Z" fill="#F58111"/>
<path d="M106.884 130.935C105.629 132.05 104.432 133.241 103.108 134.262C100.329 136.406 97.4836 138.46 94.4807 140.626C89.6251 140.719 84.9543 140.737 80.1426 140.726C78.5823 140.688 77.1608 140.625 75.744 140.682C74.5424 140.73 73.3462 140.916 72.1475 141.041C53.1256 141.031 34.1036 141.022 15.0817 141.013C11.1478 141.011 7.21383 141.013 3.27991 141.014C1.38219 141.014 0.459332 140.094 0.62418 138.09C4.296 138.174 7.81103 138.379 11.3263 138.581C13.0094 138.678 14.692 138.81 16.3766 138.852C18.9095 138.916 21.3081 138.593 22.9563 136.256C23.1368 136 23.6331 135.893 23.9934 135.867C24.7861 135.809 25.5879 135.888 26.3813 135.837C27.2591 135.78 27.7421 136.053 28.2505 136.901C28.9935 138.141 29.8128 139.532 31.6233 139.492C41.2622 139.276 50.9019 139.093 60.5404 138.86C62.5711 138.811 64.6052 138.674 66.6252 138.457C70.5522 138.036 74.4733 137.553 78.3906 137.046C79.8193 136.86 81.2301 136.533 82.7165 136.23C82.8266 136.158 82.8692 136.128 83.0523 136.106C86.4455 136.118 89.6991 136.161 92.9502 136.09C93.531 136.077 94.1018 135.593 94.7854 135.323C95.3582 135.064 95.8416 134.839 96.2839 134.549C97.3057 133.878 98.3076 133.177 99.4503 132.494C100.971 132.209 102.358 131.918 103.865 131.624C104.454 131.355 104.897 130.978 105.4 130.853C105.861 130.739 106.387 130.897 106.884 130.935Z" fill="#E42330"/>
<path d="M94.4827 88.1844C93.8394 88.1467 93.1961 88.0767 92.5528 88.0762C82.5682 88.0689 72.5835 88.0657 62.5989 88.0814C61.9657 88.0824 61.3327 88.246 60.5869 88.3971C41.3675 88.4579 22.2609 88.4549 3.15439 88.4538C0.684957 88.4537 -0.22967 86.9448 1.00446 84.5505C1.79833 84.7612 2.35528 85.0596 2.92435 85.0858C6.0921 85.2316 9.26326 85.2985 12.4323 85.4187C14.2616 85.488 16.0887 85.6677 17.9176 85.6807C19.0457 85.6887 20.2159 85.6251 21.2928 85.321C22.3602 85.0197 23.5088 84.5436 23.4621 83.0336C24.5694 83.0188 25.6767 83.004 26.9396 83.1149C27.8194 84.6418 28.5423 86.0074 30.4196 86.0273C38.4717 86.1128 46.5233 86.2774 54.5755 86.3097C64.8987 86.3511 75.2337 86.5784 85.5166 85.3722C87.3711 85.1546 89.1728 84.4718 90.9989 84.0038C91.7046 83.9559 92.4103 83.908 93.3138 83.9434C93.8561 84.001 94.2005 83.9754 94.6863 83.9355C97.0342 83.9033 99.2408 83.8853 101.557 83.9071C101.737 83.9791 101.808 84.0114 101.862 84.1448C100.635 85.4344 99.4244 86.6229 98.058 87.8361C96.7621 87.9687 95.6224 88.0765 94.4827 88.1844Z" fill="#E42330"/>
<path d="M82.6491 136.271C81.2301 136.534 79.8193 136.861 78.3906 137.046C74.4733 137.553 70.5522 138.036 66.6252 138.457C64.6052 138.674 62.5711 138.812 60.5404 138.86C50.9019 139.093 41.2622 139.276 31.6233 139.492C29.8128 139.532 28.9935 138.141 28.2505 136.901C27.7421 136.053 27.2591 135.78 26.3813 135.837C25.5879 135.888 24.7861 135.809 23.9934 135.867C23.6331 135.893 23.1368 136 22.9563 136.256C21.3081 138.593 18.9095 138.916 16.3766 138.853C14.692 138.811 13.0094 138.678 11.3263 138.582C7.81104 138.38 4.296 138.174 0.644684 137.969C0.651974 136.893 2.06084 135.542 3.0315 135.543C24.1161 135.555 45.2008 135.565 66.2855 135.581C67.3533 135.581 68.421 135.633 69.5836 135.617C70.3784 135.788 71.0762 136.179 71.7784 136.187C75.212 136.227 78.6468 136.164 82.2948 136.164C82.5552 136.218 82.6021 136.245 82.6491 136.271Z" fill="#F33343"/>
<path d="M104.326 38.7783C105.223 34.4182 106.102 30.0542 107.025 25.6997C107.396 23.9538 107.823 22.2181 108.295 20.4977C108.737 18.8886 107.402 18.0408 106.846 16.8806C106.316 15.7739 105.54 14.7755 104.789 13.7952C103.405 11.9886 101.623 10.4037 100.626 8.40697C99.4252 6.00223 96.5428 4.9329 96.0903 1.93945C97.3924 3.21037 98.7774 4.53655 100.003 6.00074C101.468 7.75117 102.874 9.56526 104.165 11.4505C105.83 13.8796 107.856 16.0725 108.928 18.9069C109.182 19.5804 109.715 20.1454 110.062 20.9486C110.363 22.2056 110.721 23.2744 111.08 24.3457C111.411 24.2139 111.633 24.1254 111.855 24.0369C112.17 24.4675 112.484 24.8982 112.742 25.5186C112.656 25.9483 112.527 26.2363 112.612 26.421C113.871 29.1336 115.15 31.8371 116.465 34.5221C116.536 34.6654 116.969 34.6248 117.234 34.6699C117.25 34.7179 117.266 34.7659 117.247 34.9951C117.256 35.7393 117.181 36.3471 117.366 36.8575C118.112 38.9159 118.986 40.9263 119.72 42.9886C120.428 44.9763 121.021 47.0058 121.664 49.0173C122.085 50.3361 122.505 51.6556 122.822 52.9526C121.076 51.7986 119.431 50.6666 117.736 49.448C115.835 45.7899 113.986 42.2185 112.125 38.5392C110.874 36.9664 108.989 36.9582 107.847 38.4433C107.423 38.9947 107.08 39.6107 106.569 40.161C105.989 40.1076 105.541 40.0906 105.093 40.0736C105.069 39.9784 105.016 39.9061 104.836 39.7396C104.601 39.3411 104.464 39.0597 104.326 38.7783Z" fill="#FD9E1D"/>
<path d="M91.1988 31.9272C85.2004 31.9272 79.2021 31.9272 72.9715 31.9272C76.5323 24.0028 80.9927 16.8997 86.1063 10.2051C86.5147 11.016 86.8193 11.7538 87.1196 12.6193C87.1504 13.1698 87.1855 13.5927 87.2058 14.1137C87.3718 14.5481 87.5527 14.8844 87.7289 15.3386C87.8261 15.9908 87.928 16.5251 88.0256 17.1625C88.2007 17.5249 88.38 17.7841 88.5554 18.1716C88.5842 18.8989 88.6169 19.498 88.6379 20.2128C88.8209 20.9577 89.0155 21.5869 89.2062 22.3312C89.2208 22.6756 89.2394 22.905 89.2437 23.2465C89.4228 23.8889 89.6162 24.4191 89.805 25.0767C89.8318 25.6271 89.8632 26.0499 89.8747 26.5822C90.0456 27.2214 90.2363 27.7511 90.4208 28.4094C90.4447 28.9646 90.4748 29.3913 90.4824 29.928C90.7188 30.6042 90.9777 31.1703 91.221 31.7829C91.2054 31.8293 91.1988 31.9272 91.1988 31.9272Z" fill="#FFD87E"/>
<path d="M90.8642 83.9583C89.1728 84.472 87.3711 85.1549 85.5167 85.3724C75.2337 86.5786 64.8987 86.3513 54.5755 86.3099C46.5233 86.2776 38.4717 86.113 30.4196 86.0275C28.5423 86.0076 27.8195 84.6421 27.0761 83.1385C35.3705 83.0168 43.684 82.9941 51.9976 82.9795C54.8355 82.9745 57.6733 82.9898 60.6494 82.9906C61.4509 83.2806 62.1125 83.8284 62.7775 83.8328C71.55 83.8902 80.323 83.8704 89.0958 83.873C89.6404 83.8731 90.1849 83.8989 90.8642 83.9583Z" fill="#F72E43"/>
<path d="M160.612 89.6752C160.135 90.2155 159.728 90.852 159.168 91.2793C156.892 93.0141 154.544 94.6496 152.272 96.3893C150.224 97.958 148.253 99.631 146.226 101.23C142.136 104.456 138.034 107.667 133.931 110.878C130.952 113.21 127.964 115.531 124.773 117.889C123.941 118.279 123.288 118.595 122.698 119.005C121.246 120.01 119.822 121.059 118.369 121.965C118.137 121.306 117.923 120.773 117.694 120.141C117.243 119.696 116.808 119.349 116.425 118.906C116.913 118.573 117.349 118.336 117.878 118.193C118.851 118.198 119.966 118.43 120.575 117.97C124.948 114.67 129.239 111.257 133.515 107.826C139.19 103.274 144.889 98.7479 150.442 94.046C152.139 92.6096 154.063 91.164 154.616 88.7277C154.622 88.7431 154.591 88.7534 154.674 88.6996C154.842 88.5439 154.927 88.4418 155.069 88.2564C156.652 87.1432 158.178 86.1133 159.753 85.2012C159.87 86.1526 159.883 86.9964 160.026 87.8166C160.137 88.4514 160.41 89.0567 160.612 89.6752Z" fill="#E42330"/>
<path d="M157.957 79.021C158.582 79.417 159.207 79.8129 159.92 80.4113C160.009 81.6654 160.01 82.7169 159.884 83.8204C158.355 83.8303 156.954 83.7883 155.541 83.6302C155.343 83.2337 155.157 82.9533 154.917 82.581C152.765 80.8795 150.703 79.2168 148.558 77.6734C145.567 75.5213 142.453 73.5427 139.503 71.3359C135.861 68.6116 132.351 65.7053 128.745 62.9302C127.704 62.129 126.528 61.5087 125.398 60.6947C125.015 60.0787 124.736 59.4568 124.265 59.0888C122.473 57.6897 120.6 56.3998 118.797 55.0148C117.714 54.1824 116.705 53.2496 115.766 52.3115C116.296 51.8681 116.724 51.475 117.256 51.082C117.758 51.2571 118.2 51.3674 118.546 51.617C121.981 54.0997 125.424 56.5723 128.816 59.1152C131.528 61.1486 134.201 63.2394 136.839 65.371C139.402 67.4417 141.8 69.7371 144.45 71.679C147.737 74.0871 151.169 76.3023 154.63 78.4458C155.552 79.0161 156.689 79.8277 157.957 79.021Z" fill="#E42330"/>
<path d="M91.3395 31.972C91.1988 31.9278 91.2054 31.8299 91.2354 31.6599C91.012 30.9328 90.7585 30.3757 90.505 29.8185C90.4748 29.3919 90.4447 28.9653 90.4844 28.3286C90.3344 27.5702 90.1146 27.0218 89.8947 26.4734C89.8632 26.0506 89.8318 25.6277 89.8697 25.0025C89.7119 24.2451 89.485 23.69 89.258 23.1349C89.2394 22.9056 89.2208 22.6763 89.2653 22.2538C89.1022 21.4063 88.8759 20.752 88.6496 20.0977C88.6169 19.4986 88.5842 18.8995 88.5645 18.0619C88.395 17.569 88.2125 17.3145 88.0299 17.06C87.928 16.5257 87.8261 15.9914 87.789 15.27C87.6428 14.7274 87.4317 14.3718 87.2206 14.0162C87.1855 13.5933 87.1505 13.1705 87.1787 12.5368C86.8792 10.5642 87.2693 9.09843 88.7189 7.93103C89.2861 7.47425 89.6278 6.73985 90.1476 6.20811C91.5806 4.74221 93.0534 3.31656 94.5105 1.875C94.5218 11.7831 94.533 21.6911 94.5354 31.7352C94.4417 31.8991 94.3561 31.9248 94.2139 31.9826C93.2654 32.0165 92.3728 32.0164 91.3395 31.972Z" fill="#FFC928"/>
<path d="M118.387 122.091C119.822 121.06 121.246 120.011 122.698 119.005C123.288 118.596 123.941 118.28 124.678 117.932C124.971 119.888 123.9 121.469 123.149 123.307C122.779 123.764 122.512 124.083 122.38 124.452C122.006 125.502 121.861 126.681 121.296 127.6C120.779 128.44 120.781 128.932 121.488 129.504C121.433 129.587 121.379 129.669 121.14 129.776C120.782 129.881 120.502 129.918 120.449 130.049C119.479 132.452 118.549 134.873 117.582 137.279C116.588 139.751 115.564 142.211 114.553 144.676C113.718 143.043 112.852 141.425 112.057 139.771C111.344 138.287 110.688 136.772 110.054 135.25C109.913 134.909 109.972 134.481 110.059 133.932C111.692 133.675 112.338 132.507 112.996 131.382C114.804 128.292 116.592 125.189 118.387 122.091Z" fill="#FD9E1D"/>
<path d="M66.0618 32.7662C66.7059 32.9211 67.2128 33.1349 67.7218 33.1402C70.8032 33.172 73.8851 33.1521 76.9668 33.1605C77.4832 33.1619 77.9994 33.2171 78.5157 33.2475C78.5419 33.3986 78.5682 33.5497 78.5944 33.7009C78.1439 33.8238 77.6974 34.0342 77.2422 34.0561C72.4925 34.2846 67.7425 34.5124 62.9905 34.6805C58.9756 34.8225 54.9577 34.9748 50.9417 34.9622C45.086 34.944 39.228 34.8553 33.3767 34.6386C31.5124 34.5696 29.6319 34.0555 28.8483 31.7956C33.8308 31.6726 38.8161 31.6591 43.9438 31.7632C44.2554 32.1132 44.4246 32.3457 44.5937 32.5782C48.9687 32.6161 53.3437 32.6582 57.7188 32.6906C60.4543 32.7108 63.19 32.7165 66.0618 32.7662Z" fill="#F72E43"/>
<path d="M157.913 78.9265C156.689 79.828 155.552 79.0164 154.63 78.4461C151.169 76.3026 147.737 74.0873 144.45 71.6793C141.8 69.7374 139.402 67.4419 136.839 65.3713C134.201 63.2396 131.528 61.1488 128.816 59.1154C125.424 56.5725 121.981 54.1 118.546 51.6172C118.2 51.3676 117.758 51.2573 117.226 51.0531C117.092 51.0238 117.018 51.0608 117.075 50.9842C117.351 50.4501 117.569 49.9926 117.787 49.5352C119.431 50.6671 121.076 51.7991 122.854 53.0429C123.293 53.1708 123.596 53.1868 123.9 53.2028C126.018 54.8253 128.133 56.4516 130.255 58.0692C133.453 60.5073 136.644 62.954 139.859 65.3687C142.022 66.9935 144.237 68.5478 146.399 70.1736C148.517 71.7661 150.587 73.4251 152.699 75.0249C154.406 76.317 156.145 77.5644 157.913 78.9265Z" fill="#F72E43"/>
<path d="M23.0238 31.6642C22.7883 33.3526 21.384 33.8115 20.0706 34.0113C18.1241 34.3073 16.1276 34.3582 14.1533 34.348C11.234 34.3328 8.31589 34.1525 5.39637 34.0812C3.66003 34.0388 1.92193 34.0704 0.0478535 34.0667C-0.159795 32.3908 0.520427 31.6432 2.13511 31.6429C9.05175 31.6415 15.9684 31.6442 23.0238 31.6642Z" fill="#F72E43"/>
<path d="M23.3235 83.0134C23.5088 84.5441 22.3602 85.0202 21.2928 85.3215C20.2159 85.6255 19.0457 85.6892 17.9176 85.6812C16.0887 85.6682 14.2616 85.4885 12.4323 85.4191C9.26327 85.299 6.09211 85.232 2.92436 85.0862C2.35529 85.06 1.79834 84.7616 1.12984 84.5378C1.59711 83.5499 2.3323 82.9715 3.50885 82.9766C10.0674 83.0051 16.6261 82.9918 23.3235 83.0134Z" fill="#F72E43"/>
<path d="M162.12 80.3147C163.61 80.2951 165.1 80.2238 166.588 80.2683C168.712 80.3318 170.53 82.3083 170.437 84.5433C170.386 85.7626 170.059 86.97 169.728 88.3062C168.497 87.9812 167.364 87.5986 166.3 87.0714C163.549 85.7081 162.078 83.485 162.12 80.3147Z" fill="#FD9E1D"/>
<path d="M72.1514 141.155C73.3462 140.915 74.5424 140.729 75.744 140.681C77.1608 140.624 78.5823 140.687 80.1115 140.833C79.2196 143.193 78.2181 145.418 77.117 147.669C76.6901 148.111 76.3628 148.526 76.0356 148.941C75.6454 148.297 75.2023 147.678 74.8772 147.001C74.3539 145.911 74.0985 144.625 73.3721 143.718C72.7537 142.946 72.5206 142.103 72.1514 141.155Z" fill="#FFD87E"/>
<path d="M161.991 80.2873C162.078 83.4856 163.549 85.7087 166.3 87.072C167.364 87.5991 168.497 87.9817 169.709 88.4325C169.011 88.8459 168.225 89.544 167.389 89.6111C165.318 89.7776 163.224 89.6557 161.013 89.4831C160.864 86.323 160.842 83.3294 160.819 80.3359C161.167 80.3103 161.515 80.2848 161.991 80.2873Z" fill="#F58111"/>
<path d="M76.0794 149.043C76.3628 148.528 76.6901 148.112 77.126 147.805C77.0596 150.222 78.6439 151.756 79.674 153.515C80.566 155.038 81.6147 156.467 82.5973 157.935C84.0259 160.069 85.4144 162.234 86.9013 164.325C88.1072 166.022 89.3651 167.691 90.7271 169.259C91.7902 170.482 92.4193 172.343 94.4912 172.305C94.6515 173.512 95.2292 173.293 96.098 172.676C96.427 172.621 96.5647 172.624 96.7024 172.628C96.1226 173.251 95.6022 173.956 94.9332 174.455C94.676 174.647 93.9222 174.533 93.6674 174.277C92.7296 173.337 91.8467 172.325 91.0504 171.257C88.2775 167.538 85.1443 164.112 82.7847 160.048C81.7688 158.299 80.7028 156.479 79.4729 154.917C78.0521 153.111 77.336 151.002 76.0794 149.043Z" fill="#FEC234"/>
<path d="M96.6937 172.62C96.5647 172.624 96.427 172.62 96.1862 172.618C96.7289 171.602 97.3469 170.565 98.0298 169.575C98.529 168.851 99.1231 168.195 99.6552 167.493C99.8612 167.222 99.9625 166.856 100.197 166.621C103.593 163.224 106.04 159.139 108.449 155.016C108.705 154.578 109.369 154.386 109.955 154.08C109.647 154.883 109.297 155.733 108.797 156.477C107.528 158.365 106.221 160.242 104.95 162.111C102.622 165.536 100.158 168.796 97.2089 171.913C97.0594 172.138 97.021 172.229 96.9827 172.321C96.9827 172.321 96.9661 172.304 96.8996 172.333C96.7806 172.452 96.7282 172.543 96.6758 172.634C96.6758 172.634 96.6849 172.613 96.6937 172.62Z" fill="#FD9E1D"/>
<path d="M123.878 53.0837C123.596 53.1866 123.293 53.1706 122.957 53.0647C122.505 51.6557 122.085 50.3363 121.664 49.0175C121.021 47.006 120.428 44.9765 119.72 42.9888C118.986 40.9265 118.112 38.9161 117.366 36.8577C117.181 36.3473 117.256 35.7394 117.26 35.0703C117.996 36.3309 118.733 37.6748 119.36 39.0702C120.048 40.6032 120.672 42.1691 121.25 43.7487C121.595 44.69 121.763 45.6964 122.072 46.6531C122.401 47.6736 122.864 48.6519 123.156 49.6818C123.46 50.7555 123.629 51.8688 123.878 53.0837Z" fill="#FEC234"/>
<path d="M114.561 144.77C115.564 142.21 116.588 139.75 117.582 137.278C118.549 134.872 119.479 132.451 120.449 130.048C120.502 129.917 120.782 129.88 121.068 129.799C121.478 130.431 121.709 130.909 120.91 131.521C120.382 131.925 120.214 132.873 119.986 133.609C119.543 135.041 119.485 136.725 118.674 137.87C117.966 138.871 117.514 139.883 117.106 140.978C116.561 142.439 116.034 143.906 115.457 145.353C115.403 145.489 115.052 145.504 114.716 145.495C114.584 145.359 114.575 145.303 114.566 145.246C114.567 145.119 114.568 144.992 114.561 144.77Z" fill="#FEC234"/>
<path d="M94.5328 1.80062C93.0534 3.31682 91.5806 4.74247 90.1476 6.20837C89.6278 6.74011 89.2861 7.47451 88.7189 7.93128C87.2693 9.09869 86.8791 10.5645 87.1829 12.4094C86.8193 11.7547 86.5147 11.0169 86.2005 10.1638C88.0442 7.63828 89.8928 5.22416 91.7538 2.81996C92.3026 2.11088 92.9647 1.48006 93.435 0.723497C94.0443 -0.256497 94.6913 -0.166158 95.3428 0.547708C95.0054 0.976357 94.7934 1.27432 94.5813 1.57229C94.5726 1.62352 94.5638 1.67475 94.5328 1.80062Z" fill="#FEC234"/>
<path d="M114.458 145.26C114.575 145.303 114.584 145.36 114.602 145.502C114.19 146.728 113.89 147.936 113.32 148.994C112.436 150.639 111.367 152.182 110.26 153.782C109.715 152.202 110.907 151.173 111.485 149.948C112.154 148.531 112.957 147.178 113.731 145.815C113.86 145.589 114.14 145.451 114.458 145.26Z" fill="#FD9E1D"/>
<path d="M117.254 34.5522C116.969 34.6246 116.536 34.6652 116.465 34.5218C115.15 31.8369 113.871 29.1334 112.612 26.4208C112.526 26.2361 112.656 25.9481 112.757 25.627C113.364 26.3686 113.998 27.1434 114.418 28.0239C115.424 30.1344 116.329 32.2947 117.254 34.5522Z" fill="#FEC234"/>
<path d="M160.719 80.3203C160.842 83.3298 160.864 86.3233 160.873 89.4529C160.858 89.589 160.738 89.641 160.675 89.6587C160.41 89.058 160.137 88.4527 160.026 87.8179C159.883 86.9976 159.87 86.1539 159.808 85.1167C159.88 84.5317 159.946 84.1503 160.012 83.7688C160.01 82.7172 160.009 81.6656 160.007 80.4828C160.211 80.3358 160.415 80.3201 160.719 80.3203Z" fill="#E12531"/>
<path d="M61.5855 73.0547C61.6851 75.2855 61.7212 77.5783 61.6641 79.8688C61.6546 80.2515 61.2402 80.6238 60.9384 81.077C60.8455 78.9585 60.7861 76.7629 60.8404 74.5701C60.8525 74.0802 61.2634 73.6004 61.5855 73.0547Z" fill="#FFD87E"/>
<path d="M121.613 129.486C120.781 128.931 120.779 128.439 121.296 127.6C121.861 126.681 122.006 125.501 122.38 124.452C122.512 124.083 122.779 123.764 123.096 123.414C122.868 124.754 122.522 126.099 122.19 127.449C122.026 128.118 121.888 128.795 121.613 129.486Z" fill="#FEC234"/>
<path d="M62.1897 68.1465C62.656 69.4259 63.0543 70.7664 61.8663 72.0133C61.8698 70.7668 61.9768 69.4856 62.1897 68.1465Z" fill="#FFD87E"/>
<path d="M111.876 23.916C111.633 24.1255 111.411 24.2141 111.08 24.3458C110.721 23.2745 110.363 22.2057 110.075 21.0645C110.728 21.9263 111.313 22.8606 111.876 23.916Z" fill="#FEC234"/>
<path d="M62.7661 64.1621C63.3611 65.2935 63.5271 66.4159 62.4627 67.4575C62.4538 66.3893 62.5478 65.2869 62.7661 64.1621Z" fill="#FFD87E"/>
<path d="M94.7045 1.56883C94.7934 1.27378 95.0055 0.975813 95.3224 0.673828C95.5422 0.900122 95.6572 1.13043 95.7933 1.45913C95.4855 1.56032 95.1565 1.56312 94.7045 1.56883Z" fill="#FD9E1D"/>
<path d="M44.5945 32.4789C44.4246 32.3468 44.2554 32.1143 44.0823 31.7852C44.2506 31.9185 44.4229 32.1486 44.5945 32.4789Z" fill="#E12531"/>
<path d="M97.0698 172.301C97.021 172.229 97.0594 172.137 97.1603 172.002C97.2008 172.066 97.1788 172.174 97.0698 172.301Z" fill="#FEC234"/>
<path d="M96.7576 172.618C96.7282 172.543 96.7806 172.453 96.9094 172.34C96.9369 172.413 96.8881 172.508 96.7576 172.618Z" fill="#FEC234"/>
<path d="M101.447 83.8687C99.2408 83.8866 97.0342 83.9046 94.6771 83.8186C94.5167 83.6364 94.5068 83.5582 94.497 83.48C94.4916 75.226 94.4862 66.9721 94.5076 58.4354C94.5454 57.3942 94.5644 56.6358 94.5662 55.8774C94.5811 49.6045 94.5929 43.3315 94.6057 37.0586C96.4587 38.4005 98.3073 39.749 100.168 41.0797C100.61 41.3955 101.092 41.652 101.753 41.9899C102.693 42.5759 103.435 43.1076 104.165 43.739C103.735 44.5701 103.354 45.3272 102.891 46.0286C101.294 48.448 101.505 49.3859 103.909 50.8007C103.439 51.5259 102.795 52.1398 102.718 52.8201C102.317 56.3603 101.901 59.912 101.787 63.4696C101.568 70.2658 101.549 77.0686 101.447 83.8687Z" fill="#F58111"/>
<path d="M94.5587 36.9501C94.5929 43.3305 94.5811 49.6034 94.5662 55.8763C94.5644 56.6348 94.5454 57.3932 94.4999 58.2966C94.2155 57.0944 93.8908 55.7563 93.73 54.3982C93.3169 50.9105 92.9792 47.4136 92.6061 43.9209C92.3609 41.6252 92.1066 39.3306 91.8514 36.8923C92.7349 36.7802 93.6233 36.8114 94.5587 36.9501Z" fill="#FEC234"/>
<path d="M94.3999 83.5078C94.5068 83.5587 94.5166 83.6369 94.5358 83.8334C94.2005 83.9772 93.8561 84.0028 93.4465 83.9578C93.6885 83.7698 93.9957 83.6525 94.3999 83.5078Z" fill="#F72E43"/>
<path d="M94.4748 88.2652C95.6224 88.0765 96.7621 87.9686 98.1414 87.8652C99.307 87.9561 100.233 88.0425 101.164 88.2582C101.361 91.4443 101.501 94.5056 101.756 97.5571C102.186 102.706 102.618 107.857 103.189 112.991C103.46 115.424 104.054 117.819 104.441 120.288C104.173 120.415 103.966 120.485 103.648 120.538C102.617 120.957 102.133 121.771 102.451 122.687C102.89 123.951 103.603 125.117 104.117 126.457C103.978 127.094 103.921 127.599 103.79 128.158C103.325 128.701 102.985 129.246 102.533 129.667C101.49 130.639 100.393 131.551 99.3176 132.487C98.3076 133.176 97.3057 133.877 96.2839 134.547C95.8416 134.837 95.3582 135.063 94.7494 135.174C94.5894 134.527 94.5596 134.023 94.5596 133.518C94.5583 119.223 94.5613 104.927 94.5569 90.6315C94.5567 89.9778 94.4939 89.324 94.4602 88.6703C94.4624 88.5622 94.4646 88.4542 94.4748 88.2652Z" fill="#F58111"/>
<path d="M94.3684 88.7383C94.4939 89.3249 94.5567 89.9786 94.5569 90.6324C94.5613 104.928 94.5583 119.223 94.5596 133.519C94.5597 134.024 94.5894 134.528 94.6413 135.179C94.1018 135.593 93.531 136.076 92.9503 136.089C89.6991 136.16 86.4455 136.118 83.0611 136.037C82.9293 135.96 82.9331 135.822 82.9331 135.822C83.9929 132.898 85.1442 130.005 86.0904 127.044C87.417 122.892 88.688 118.717 89.799 114.501C90.6704 111.195 91.3975 107.836 91.9476 104.46C92.7413 99.5897 93.3137 94.682 93.9919 89.7918C94.0385 89.4561 94.1795 89.1339 94.3684 88.7383Z" fill="#FFC928"/>
<path d="M73.0034 97.6479C75.0866 100.077 75.4338 102.887 75.0963 105.815C74.9195 107.349 72.957 108.122 71.7312 107.273C69.1467 105.483 67.1815 100.503 67.8661 97.4792C68.3826 95.1981 69.984 94.6911 71.6607 96.2849C72.0963 96.6989 72.5067 97.1402 73.0034 97.6479Z" fill="#FFC928"/>
<path d="M79.9323 104.109C80.6099 102.607 81.3783 102.377 82.4357 103.374C84.0775 104.923 84.7268 106.89 84.3798 109.138C84.1891 110.374 82.9499 110.739 82.0109 109.821C80.4646 108.31 79.6636 106.468 79.9323 104.109Z" fill="#FFC928"/>
<path d="M82.8509 135.839C82.9331 135.822 82.9293 135.96 82.9206 136.028C82.8692 136.127 82.8266 136.158 82.7165 136.23C82.6021 136.244 82.5552 136.218 82.437 136.154C82.5001 136.029 82.6344 135.943 82.8509 135.839Z" fill="#F58111"/>
<path d="M94.5126 172.163C92.4193 172.343 91.7902 170.481 90.7271 169.258C89.3651 167.691 88.1072 166.021 86.9013 164.325C85.4144 162.233 84.0259 160.069 82.5973 157.934C81.6147 156.466 80.566 155.037 79.674 153.514C78.6439 151.755 77.0596 150.221 77.2256 147.777C78.2181 145.418 79.2196 143.194 80.2523 140.862C84.9543 140.736 89.6251 140.719 94.4345 140.721C94.5601 151.168 94.547 161.595 94.5126 172.163Z" fill="#FFC928"/>
<path d="M104.199 126.326C103.603 125.118 102.89 123.953 102.451 122.688C102.133 121.772 102.617 120.958 103.701 120.636C106.295 124.37 108.911 125.577 112.882 124.551C115.111 123.975 117.203 122.948 117.71 120.24C117.923 120.773 118.137 121.307 118.369 121.965C116.592 125.189 114.804 128.292 112.996 131.382C112.338 132.507 111.692 133.675 110.097 133.806C109.179 133.046 108.344 132.251 107.441 131.258C106.315 129.482 105.257 127.904 104.199 126.326Z" fill="#088A92"/>
<path d="M104.117 126.457C105.257 127.903 106.315 129.481 107.402 131.16C107.3 131.169 107.169 131.078 106.961 130.96C106.387 130.896 105.861 130.738 105.4 130.852C104.897 130.977 104.454 131.354 103.902 131.498C103.834 130.285 103.849 129.195 103.864 128.104C103.921 127.599 103.978 127.094 104.117 126.457Z" fill="black"/>
<path d="M104.227 38.747C104.464 39.0591 104.601 39.3404 104.773 39.7112C103.314 40.7481 102.753 40.6901 101.715 39.3098C100.799 38.0904 99.963 36.8081 99.0663 35.457C100.192 36.1601 101.336 36.9719 102.499 37.7538C103.022 38.1054 103.584 38.3972 104.227 38.747Z" fill="#F33343"/>
<path d="M104.177 43.6386C103.435 43.1068 102.693 42.5751 101.858 41.995C102.297 41.6851 102.831 41.431 103.356 41.1601C103.906 40.8763 104.448 40.5765 105.043 40.1782C105.541 40.0899 105.989 40.1069 106.524 40.2643C105.8 41.4826 104.989 42.5606 104.177 43.6386Z" fill="black"/>
<path d="M103.79 128.16C103.849 129.196 103.834 130.287 103.783 131.502C102.358 131.918 100.971 132.209 99.4503 132.495C100.393 131.553 101.49 130.641 102.533 129.669C102.985 129.248 103.325 128.703 103.79 128.16Z" fill="#F33343"/>
<path d="M101.557 83.9083C101.549 77.0686 101.568 70.2657 101.787 63.4695C101.901 59.912 102.317 56.3602 102.718 52.82C102.795 52.1397 103.439 51.5258 104.017 50.7871C108.029 51.2492 111.846 51.8053 115.663 52.3615C116.705 53.2492 117.714 54.1821 118.797 55.0145C120.6 56.3995 122.473 57.6894 124.265 59.0885C124.736 59.4565 125.015 60.0784 125.372 60.7986C125.34 61.1543 125.319 61.295 125.203 61.4675C125.018 61.7577 124.775 62.1636 124.859 62.2521C125.732 63.1779 125.652 64.3118 125.705 65.4533C125.718 65.7341 126.218 65.9916 126.518 66.354C126.546 66.5776 126.55 66.7071 126.507 66.9563C126.391 67.9244 126.356 68.7773 126.247 69.6202C126.123 70.5732 126.468 71.1667 127.411 71.5209C127.446 71.8617 127.456 72.0908 127.369 72.39C127.075 74.2446 126.879 76.0293 126.664 77.9924C127.341 77.8939 127.664 77.8469 128.011 77.9294C128.042 78.6714 128.048 79.284 127.979 79.9995C127.856 81.3445 127.808 82.5866 127.622 83.8577C124.029 83.9303 120.574 83.9738 117.021 83.9936C113.348 82.1671 109.773 80.3644 106.158 78.4695C104.632 77.7972 103.456 78.5891 102.813 80.5769C102.603 81.6744 102.502 82.7259 102.353 83.8352C102.162 83.9437 102.02 83.9944 101.879 84.0451C101.808 84.0127 101.737 83.9803 101.557 83.9083ZM112.264 69.5391C112.505 69.0242 113.084 68.2328 112.931 68.0395C111.982 66.8384 110.888 65.7496 109.772 64.7006C109.681 64.6152 108.766 65.0781 108.743 65.3326C108.581 67.1819 110.159 69.1395 112.264 69.5391ZM117.642 69.9545C118.019 70.275 118.355 70.6865 118.787 70.8834C119.066 71.0111 119.555 70.9304 119.819 70.7477C120.036 70.5975 120.197 70.135 120.147 69.8538C119.962 68.8014 118.349 67.515 116.83 67.3619C117.08 68.2457 117.295 69.0062 117.642 69.9545Z" fill="#FD9E1D"/>
<path d="M101.862 84.1456C102.02 83.9939 102.162 83.9432 102.443 83.8563C102.705 83.8002 102.828 83.7803 102.977 83.8712C102.992 85.3233 102.98 86.6646 102.859 88.0065C102.611 88.0399 102.472 88.0726 102.218 88.0696C101.788 88.0658 101.474 88.0978 101.159 88.1297C100.233 88.0433 99.307 87.9569 98.2976 87.8414C99.4245 86.6237 100.635 85.4351 101.862 84.1456Z" fill="black"/>
<path d="M115.766 52.3099C111.846 51.8041 108.029 51.2479 104.104 50.7052C101.505 49.3845 101.294 48.4466 102.891 46.0272C103.354 45.3259 103.735 44.5688 104.165 43.7376C104.989 42.56 105.8 41.482 106.656 40.3C107.08 39.6094 107.423 38.9933 107.847 38.4419C108.989 36.9568 110.874 36.965 112.063 38.6126C111.677 39.2303 111.325 39.6528 111.01 40.1023C109.251 42.6128 109.211 45.3876 110.612 47.8982C111.923 50.2459 114.197 51.44 117.018 51.059C117.018 51.059 117.092 51.022 117.122 51.0511C116.724 51.4734 116.296 51.8664 115.766 52.3099Z" fill="#088A92"/>
<path d="M117.075 50.9825C114.197 51.4402 111.923 50.2461 110.612 47.8984C109.211 45.3878 109.251 42.613 111.01 40.1025C111.325 39.653 111.677 39.2305 112.074 38.7207C113.986 42.2173 115.835 45.7887 117.736 49.4468C117.569 49.9909 117.351 50.4484 117.075 50.9825Z" fill="#06C3C0"/>
<path d="M89.8747 26.582C90.1146 27.021 90.3344 27.5694 90.4907 28.1992C90.2363 27.7509 90.0456 27.2212 89.8747 26.582Z" fill="#FEC234"/>
<path d="M90.4824 29.9277C90.7585 30.3748 91.012 30.9319 91.2511 31.6126C90.9777 31.1701 90.7188 30.604 90.4824 29.9277Z" fill="#FEC234"/>
<path d="M88.6379 20.2129C88.8759 20.7515 89.1022 21.4058 89.2693 22.1381C89.0155 21.587 88.8209 20.9578 88.6379 20.2129Z" fill="#FEC234"/>
<path d="M89.2437 23.248C89.485 23.6909 89.712 24.246 89.8743 24.8759C89.6162 24.4206 89.4228 23.8904 89.2437 23.248Z" fill="#FEC234"/>
<path d="M87.2058 14.1152C87.4317 14.3727 87.6428 14.7283 87.7938 15.1531C87.5527 14.8859 87.3718 14.5497 87.2058 14.1152Z" fill="#FEC234"/>
<path d="M88.0256 17.1641C88.2125 17.3154 88.395 17.5699 88.5685 17.9346C88.38 17.7857 88.2007 17.5264 88.0256 17.1641Z" fill="#FEC234"/>
<path d="M101.164 88.2588C101.474 88.0976 101.788 88.0656 102.276 88.1448C102.621 88.3236 102.793 88.3911 103.01 88.5908C103.065 89.376 103.069 90.0295 103.089 90.6824C103.16 92.9596 104.669 93.9616 106.659 92.9941C109.972 91.3833 113.262 89.7229 116.698 88.0893C119.252 88.0292 121.669 87.9269 124.087 87.9124C125.305 87.905 126.524 88.057 127.743 88.2802C127.844 90.5766 127.946 92.7297 128.046 95.007C128.025 95.5442 128.007 95.9571 127.869 96.3703C127.462 96.5749 126.918 96.793 126.927 96.9814C127.032 98.998 127.224 101.01 127.411 103.11C127.416 103.254 127.401 103.312 127.288 103.418C126.88 103.886 126.325 104.294 126.306 104.727C126.259 105.79 126.458 106.863 126.555 108.065C126.563 108.906 126.576 109.614 126.561 110.424C125.265 111.698 124.026 112.907 122.718 114.034C121.104 115.425 119.433 116.747 117.786 118.099C117.349 118.336 116.913 118.573 116.302 118.935C112.252 119.451 108.377 119.842 104.502 120.232C104.054 117.82 103.46 115.424 103.189 112.991C102.618 107.858 102.186 102.707 101.756 97.5577C101.501 94.5062 101.361 91.4449 101.164 88.2588Z" fill="#FD9E1D"/>
<path d="M126.561 110.424C128.235 109.065 129.89 107.817 131.527 106.547C135.792 103.24 140.058 99.9341 144.306 96.6042C147.051 94.4527 149.759 92.2534 152.494 90.0904C153.101 89.6108 153.756 89.1939 154.499 88.7305C154.063 91.1646 152.139 92.6102 150.442 94.0466C144.889 98.7485 139.19 103.274 133.515 107.827C129.239 111.258 124.948 114.671 120.575 117.971C119.966 118.431 118.851 118.199 117.878 118.193C119.433 116.748 121.104 115.425 122.718 114.034C124.026 112.908 125.265 111.699 126.561 110.424Z" fill="#F72E43"/>
<path d="M104.441 120.289C108.377 119.842 112.252 119.451 116.25 119.031C116.808 119.349 117.243 119.696 117.694 120.141C117.203 122.948 115.111 123.975 112.882 124.55C108.911 125.576 106.295 124.369 103.813 120.653C103.966 120.486 104.173 120.415 104.441 120.289Z" fill="#06C3C0"/>
<path d="M154.674 88.7006C154.66 88.6302 154.729 88.5061 154.905 88.3613C154.927 88.4427 154.842 88.5448 154.674 88.7006Z" fill="#F72E43"/>
<path d="M152.537 83.0266C153.303 82.9813 154.07 82.936 154.903 82.7812C155.157 82.9522 155.343 83.2327 155.541 83.6291C155.554 83.7452 155.536 83.7558 155.387 83.7149C154.573 83.7939 153.711 83.685 153.277 84.072C150.994 86.1119 148.224 86.6253 145.399 86.5912C139.01 86.5139 132.623 86.2601 126.238 86.0059C123.425 85.8939 120.619 85.6063 117.756 85.3002C117.509 84.8068 117.314 84.4117 117.119 84.0165C120.574 83.973 124.029 83.9295 127.716 83.8672C128.16 83.7142 128.37 83.58 128.581 83.4458C128.731 83.4116 128.882 83.3775 129.256 83.3143C136.689 83.2886 143.898 83.2971 151.108 83.2838C151.584 83.283 152.061 83.1162 152.537 83.0266Z" fill="#F72E43"/>
<path d="M116.561 88.0833C113.262 89.7228 109.972 91.3832 106.659 92.9939C104.669 93.9614 103.16 92.9594 103.089 90.6822C103.069 90.0293 103.065 89.3759 103.024 88.4774C102.986 88.1566 102.977 88.0811 102.968 88.0055C102.98 86.6642 102.992 85.323 102.99 83.7212C102.958 82.4837 102.94 81.5069 102.923 80.53C103.456 78.5883 104.632 77.7964 106.167 78.6004C106.212 79.634 106.176 80.4455 106.212 81.2537C106.441 86.4602 111.591 89.6576 116.136 87.4352C116.393 87.3094 116.706 87.3011 116.989 87.3355C116.843 87.6496 116.702 87.8665 116.561 88.0833Z" fill="#088A92"/>
<path d="M116.993 87.239C116.706 87.302 116.393 87.3103 116.136 87.4361C111.591 89.6585 106.441 86.4611 106.212 81.2546C106.176 80.4464 106.212 79.6349 106.206 78.6934C109.773 80.3645 113.348 82.1672 117.021 83.9937C117.314 84.4125 117.509 84.8077 117.715 85.4168C117.656 85.9464 117.585 86.262 117.423 86.6018C117.216 86.8337 117.101 87.0412 116.984 87.2435C116.982 87.2381 116.993 87.239 116.993 87.239Z" fill="#06C3C0"/>
<path d="M112.153 69.5602C110.159 69.1387 108.581 67.1811 108.743 65.3318C108.766 65.0773 109.681 64.6144 109.772 64.6998C110.888 65.7488 111.982 66.8376 112.931 68.0388C113.084 68.232 112.505 69.0234 112.153 69.5602Z" fill="#F58111"/>
<path d="M117.576 69.86C117.295 69.0056 117.08 68.2451 116.83 67.3613C118.349 67.5144 119.962 68.8008 120.147 69.8532C120.197 70.1344 120.036 70.5969 119.819 70.7471C119.555 70.9298 119.066 71.0105 118.787 70.8828C118.355 70.6859 118.019 70.2744 117.576 69.86Z" fill="#F58111"/>
<path d="M127.369 72.3887C127.658 72.6382 128.002 72.9516 128.015 73.2786C128.072 74.6906 128.032 76.1066 128.007 77.6599C127.664 77.8456 127.341 77.8926 126.664 77.9911C126.879 76.028 127.075 74.2434 127.369 72.3887Z" fill="#FEC234"/>
<path d="M126.506 66.9551C126.85 67.3126 127.329 67.7625 127.402 68.2729C127.537 69.208 127.433 70.1789 127.407 71.2713C126.468 71.1655 126.123 70.572 126.247 69.6189C126.356 68.7761 126.391 67.9232 126.506 66.9551Z" fill="#FEC234"/>
<path d="M125.203 61.4668C126.075 62.8508 126.905 64.2513 126.514 66.124C126.218 65.991 125.718 65.7335 125.705 65.4526C125.652 64.3112 125.732 63.1773 124.859 62.2515C124.775 62.1629 125.018 61.757 125.203 61.4668Z" fill="#FEC234"/>
<path d="M128.603 83.323C128.37 83.5813 128.16 83.7155 127.855 83.8395C127.808 82.5871 127.856 81.3451 127.979 80C128.251 80.1528 128.594 80.3961 128.616 80.6667C128.685 81.5052 128.631 82.3541 128.603 83.323Z" fill="#FEC234"/>
<path d="M102.813 80.5762C102.94 81.507 102.958 82.4839 102.963 83.6105C102.827 83.7801 102.705 83.7999 102.493 83.7983C102.502 82.7252 102.603 81.6737 102.813 80.5762Z" fill="#F58111"/>
<path d="M102.859 88.0059C102.977 88.0807 102.986 88.1563 102.98 88.345C102.793 88.3907 102.621 88.3231 102.391 88.1801C102.472 88.072 102.611 88.0392 102.859 88.0059Z" fill="#F58111"/>
<path d="M117.515 86.5762C117.585 86.2606 117.656 85.945 117.768 85.5137C120.619 85.6058 123.425 85.8935 126.238 86.0054C132.623 86.2596 139.01 86.5135 145.399 86.5907C148.224 86.6248 150.994 86.1114 153.277 84.0715C153.711 83.6845 154.573 83.7934 155.377 83.7168C155.073 85.1808 154.695 86.6297 154.133 88C154.011 88.2965 153.223 88.4344 152.742 88.4358C144.81 88.4587 136.878 88.4481 128.732 88.3797C128.26 88.255 128.001 88.1956 127.743 88.1363C126.524 88.0563 125.305 87.9044 124.087 87.9117C121.669 87.9263 119.252 88.0285 116.698 88.0887C116.702 87.866 116.843 87.6492 116.989 87.335C116.993 87.2376 116.982 87.2368 117.077 87.2252C117.286 87.0011 117.401 86.7886 117.515 86.5762Z" fill="#E42330"/>
<path d="M127.869 96.3711C128.006 98.0651 128.065 99.7607 128.013 101.453C127.999 101.9 127.642 102.336 127.417 102.901C127.224 101.011 127.032 98.9988 126.927 96.9821C126.918 96.7937 127.462 96.5757 127.869 96.3711Z" fill="#FEC234"/>
<path d="M127.743 88.2811C128.001 88.1972 128.26 88.2565 128.594 88.3868C128.66 90.2027 128.67 91.9481 128.626 93.6921C128.617 94.0774 128.42 94.4579 128.179 94.8621C127.946 92.7306 127.844 90.5775 127.743 88.2811Z" fill="#FEC234"/>
<path d="M127.288 103.418C127.404 104.48 127.48 105.595 127.408 106.7C127.383 107.088 126.998 107.452 126.668 107.88C126.458 106.864 126.259 105.79 126.306 104.727C126.325 104.294 126.88 103.886 127.288 103.418Z" fill="#FEC234"/>
<path d="M152.399 83.0063C152.061 83.1159 151.584 83.2827 151.108 83.2836C143.898 83.2968 136.689 83.2883 129.336 83.2786C129.65 83.174 130.106 82.991 130.563 82.99C137.795 82.975 145.028 82.9833 152.399 83.0063Z" fill="#E42330"/>
<path d="M117.423 86.6016C117.401 86.7897 117.286 87.0022 117.079 87.2316C117.101 87.041 117.216 86.8334 117.423 86.6016Z" fill="#088A92"/>
</svg>
