<svg width="119" height="176" viewBox="0 0 119 176" fill="none" xmlns="http://www.w3.org/2000/svg">
<path d="M86.0482 161.237C83.9279 159.696 81.8978 158.261 79.8452 156.863C73.4211 152.489 66.9884 148.13 60.5602 143.764C60.4438 143.685 60.3319 143.59 60.2368 143.483C58.4967 141.528 56.9008 142.327 55.1864 143.637C51.2823 146.621 47.1422 149.227 43.1006 151.981C40.6226 153.67 38.0559 155.271 35.5746 156.963C33.2969 158.515 30.9677 160.005 28.6564 161.694C27.4839 162.528 26.3989 161.915 25.2183 161.656C24.9464 161.344 24.8785 161.085 24.9055 160.673C26.6414 158.303 29.1076 157.183 31.2889 155.648C34.1138 153.661 36.9868 151.753 39.8355 149.804C43.475 147.314 47.1503 144.886 50.6207 142.542C43.3302 142.56 35.8082 142.57 28.2862 142.537C27.854 142.535 27.4547 142.39 26.9482 142.173C26.0644 140.73 26.1129 140.278 27.2753 139.102C27.9498 138.979 28.4905 138.793 29.0641 138.793C36.742 138.79 44.4199 138.788 52.0301 138.797C49.0731 136.914 46.203 134.727 43.1968 132.768C38.8152 129.913 34.5953 126.781 30.2147 123.922C29.7689 123.631 29.4329 123.195 29.0404 122.652C28.9366 122.469 28.9042 122.388 28.8542 122.175C28.8468 121.952 28.8568 121.863 28.9142 121.645C30.3167 120.344 31.8179 120.931 33.3931 121.143C40.2115 125.551 46.7578 130.2 53.4292 134.634C54.549 135.378 55.6597 136.143 56.7387 136.948C57.5801 137.576 58.1947 137.465 59.0235 136.898C63.2244 134.024 67.4138 131.129 71.6503 128.317C74.0108 126.751 76.3347 125.126 78.6272 123.453C79.7627 122.625 81.1413 122.308 82.2803 121.265C83.2293 120.861 84.0858 120.71 85.0609 121.165C85.8311 122.664 85.5925 123.697 84.3315 124.756C82.5502 126.253 80.5081 127.307 78.6262 128.635C73.965 131.927 69.1441 134.949 64.5145 138.295C64.2962 138.453 63.9857 138.454 63.819 138.791C70.5699 138.794 77.2891 138.79 84.0082 138.793C84.8063 138.794 85.6098 138.752 86.4722 139.177C87.2714 140.044 87.2373 140.918 86.7277 141.933C85.907 142.603 85.0497 142.55 84.2056 142.551C77.9012 142.558 71.5968 142.55 65.2138 142.556C72.8981 148.122 80.8969 152.992 88.4761 158.796C88.9364 159.668 89.1778 160.458 88.7036 161.436C87.744 162.183 86.9045 162.235 86.0482 161.237Z" fill="#18345C"/>
<path d="M110.756 67.5648C112.243 67.5974 113.612 67.7102 114.956 67.564C116.431 67.4035 117.16 68.4298 117.567 69.5266C117.983 70.6497 117.334 71.6918 116.429 72.4285C116.318 72.5189 116.221 72.6299 116.029 72.7923C114.452 73.4219 112.888 73.3514 111.349 73.4493C108.95 73.6018 106.557 73.2316 104.163 73.2488C99.7425 73.2806 95.3251 73.5197 90.9012 73.4701C73.7333 73.2778 56.5649 73.5966 39.3972 73.4418C35.6834 73.4083 31.9656 73.0256 28.2557 73.2816C24.4907 73.5414 20.7318 73.5053 16.9723 73.361C14.8098 73.2781 12.6622 73.1735 10.498 73.4203C8.34089 73.6664 6.17479 73.3804 4.02131 73.197C2.35225 73.0548 1.55824 71.225 2.2149 68.9871C2.76216 67.7223 3.58707 67.4232 4.69229 67.5747C5.47415 67.6818 6.27826 67.6006 7.2014 67.6001C8.7844 67.1683 10.285 67.2181 11.8933 67.1348C12.0986 67.2098 12.1795 67.2455 12.3686 67.3623C14.161 68.9562 16.1919 69.3178 18.2742 69.329C27.0728 69.376 35.8747 69.2516 44.6694 69.4112C50.9225 69.5247 57.1832 69.4113 63.4276 69.7081C73.6354 70.1934 83.8416 69.8892 94.0472 69.8916C97.2712 69.8923 100.51 69.3037 103.661 68.4453C104.603 68.1885 105.665 68.5274 106.599 67.6806C108.001 66.9302 109.314 67.2736 110.756 67.5648Z" fill="#FEA11C"/>
<path d="M80.2032 18.4065C82.5638 18.1848 83.7002 19.3033 83.6993 21.6619C83.6987 23.3728 83.6884 25.0836 83.6709 26.9352C83.2382 27.6338 82.6687 27.5192 82.101 27.5117C77.5402 27.4519 72.9672 27.2518 68.4213 27.5593C63.3064 27.9052 58.1958 28.2421 53.0783 28.04C50.1385 27.9239 47.155 27.8263 44.3613 26.5582C43.1725 26.0185 42.1467 25.2675 41.2805 24.2261C40.0195 22.71 39.7918 21.0346 40.5625 19.0695C41.2727 18.5826 41.9469 18.7317 42.5954 18.7312C54.4949 18.7225 66.3945 18.7269 78.2941 18.7193C78.8962 18.7189 79.5229 18.8553 80.2032 18.4065Z" fill="#27B4F2"/>
<path d="M112.421 115.026C113.445 115.071 114.339 115.076 115.233 115.093C117.076 115.128 118.054 117.099 117.215 118.87C116.89 119.556 117.011 120.535 115.769 120.291C113.848 120.995 111.956 121.095 110.095 120.923C107.784 120.709 105.496 120.916 103.197 120.927C98.6824 120.947 94.1649 121.13 89.6494 120.754C86.9733 120.531 84.2925 120.953 81.6122 120.955C65.8412 120.968 50.0702 120.965 34.2992 120.958C31.4771 120.957 28.6585 120.668 25.8371 120.742C22.4519 120.832 19.0587 121.198 15.6841 120.92C12.0195 120.619 8.35912 121.193 4.70212 120.742C2.45318 120.464 1.77141 119.664 1.96288 117.03C3.01087 115.154 4.54119 114.856 6.39298 115.076C7.75604 114.758 8.99156 114.476 10.3613 114.948C11.6906 116.432 13.1739 117.184 14.9806 117.145C24.6341 116.939 34.2789 117.588 43.9328 117.47C50.5267 117.39 57.1255 117.309 63.716 117.487C75.3453 117.802 86.9742 117.76 98.6039 117.751C102.162 117.748 105.623 117.068 108.969 115.748C109.108 115.694 109.192 115.568 109.373 115.345C110.352 114.474 111.325 114.785 112.421 115.026Z" fill="#FEA11C"/>
<path d="M40.7964 19.0751C40.4026 23.1443 42.3937 25.734 46.5454 26.5946C48.8537 27.0731 51.1967 27.2867 53.5508 27.3653C61.742 27.6385 69.8993 26.4569 78.0897 26.7202C79.8726 26.7775 81.6681 26.6153 83.5428 27.0814C83.7168 28.3207 83.8672 29.5676 83.5247 30.9168C83.2274 31.766 82.6696 31.9556 82.0202 32.0005C81.3148 32.0492 80.6089 32.0506 79.9029 32.0507C65.687 32.0526 51.4711 32.0547 37.2552 32.0457C36.3191 32.0452 35.3702 32.1464 34.3335 31.7431C33.636 31.0881 33.6227 30.321 33.6148 29.5618C33.5873 26.9382 33.6361 24.3137 33.5961 21.6911C33.5724 20.1338 34.1256 19.0767 35.5593 18.3893C37.2738 18.2903 38.8772 18.2782 40.6121 18.2879C40.9034 18.508 40.9382 18.7321 40.7964 19.0751Z" fill="#0B5FA5"/>
<path d="M27.6995 32.6919C28.0178 31.521 28.6419 31.0131 29.6608 31.0478C30.534 31.0775 31.4087 31.0567 32.4133 31.0783C32.6975 31.1655 32.8564 31.1875 33.1325 31.2228C33.3008 31.3459 33.3573 31.4117 33.4731 31.5969C33.9454 32.3164 34.4831 32.7307 35.1839 32.7514C36.3631 32.7862 37.5176 33.091 38.6947 33.1023C52.1555 33.2318 65.6149 33.5756 79.0779 33.4256C80.5736 33.409 81.9601 33.0263 83.2919 32.3374C84.0108 31.9655 84.7121 31.5527 85.5709 31.1845C86.643 31.2908 87.7478 30.4784 88.5944 31.5662C89.8413 33.1686 89.6941 34.6908 88.0099 36.4972C84.9215 37.0995 81.955 36.1666 78.9748 36.3786C78.3664 36.4219 77.753 36.3769 77.0304 36.4766C76.7142 36.61 76.505 36.7032 76.2201 36.8949C76.0671 37.0031 76.0042 37.044 75.8362 37.1217C75.5828 37.1843 75.4348 37.1824 75.1803 37.1151C74.7663 36.7969 74.3974 36.7233 73.8858 36.7022C62.5141 36.6751 51.2675 36.7039 39.8865 36.6744C36.9046 36.1411 34.0386 36.2784 31.1907 36.5454C28.2587 36.8202 27.412 36.0148 27.6995 32.6919Z" fill="#FEA11C"/>
<path d="M1.91136 116.945C2.9567 120.107 3.17426 120.276 6.37759 120.277C41.9552 120.277 77.5328 120.278 113.11 120.273C113.904 120.273 114.697 120.212 115.572 120.242C115.637 120.425 115.621 120.546 115.591 120.758C114.9 121.797 113.999 122.04 112.839 121.783C111.557 121.754 110.384 121.755 109.087 121.753C107.135 121.788 105.335 122.086 103.416 122.395C100.157 122.462 97.0212 122.51 93.8844 122.474C93.0424 122.464 92.1951 122.511 91.2481 122.23C89.1984 121.61 87.1823 122.112 85.1326 121.605C84.1202 121.045 83.306 121.626 82.3414 121.813C81.0645 122.303 79.8672 122.488 78.6313 122.488C64.7917 122.482 50.9521 122.48 37.1125 122.494C36.0122 122.495 34.9714 122.238 33.7914 121.907C32.1741 121.489 30.6988 120.901 29.0884 121.719C26.9819 121.841 24.9683 121.775 22.9332 122.239C20.6949 122.749 18.3763 122.523 16.0927 122.361C15.5808 122.325 15.0734 122.247 14.4418 122.316C12.6622 122.169 11.0222 121.78 9.2313 121.748C8.15986 121.759 7.2027 121.772 6.11654 121.788C5.18276 122.006 4.37286 121.944 3.46994 121.819C1.29674 121.514 0.606326 119.387 1.91136 116.945Z" fill="#EF8412"/>
<path d="M2.17402 68.873C1.96668 71.3634 3.30946 72.8352 5.93528 72.8292C42.1875 72.746 78.4399 72.7694 114.692 72.769C115.021 72.769 115.35 72.8008 115.81 72.8353C115.846 72.9541 115.752 73.0553 115.608 73.2138C114.817 74.2259 113.842 74.5189 112.627 74.3801C110.474 74.2942 108.426 74.2568 106.252 74.2293C103.911 74.1973 101.707 74.3414 99.5253 74.7494C98.8351 74.8785 98.1472 74.9426 97.3267 74.9761C95.8009 74.4444 94.4044 74.9938 93.0064 74.9965C91.1344 75 89.2505 74.7709 87.2734 75.2283C86.9999 75.3085 86.8404 75.3316 86.5629 75.3491C86.2939 75.3596 86.1417 75.3667 85.8796 75.3855C85.1865 75.3229 84.7257 75.9541 84.0268 75.6708C83.9752 74.4032 83.3235 74.2211 82.3821 74.3186C81.8197 74.3768 81.2921 74.539 80.6471 74.6878C79.4303 74.3819 78.3539 75.0339 77.1235 74.8254C64.1475 75.0962 51.295 75.0936 38.3127 74.8376C36.8035 75.088 35.5613 74.3117 34.103 74.2163C33.0546 74.0899 32.1215 74.089 31.1913 74.035C29.8128 73.9549 28.5094 74.1339 27.1982 74.9582C24.4981 75.0869 21.9273 74.8464 19.2299 74.8764C16.6257 74.8638 14.1997 74.1979 11.6004 74.1895C9.74199 74.2522 8.00204 74.2751 6.13227 74.3048C5.19297 74.4176 4.38286 74.3845 3.47949 74.3107C2.91553 73.5388 1.87915 73.8232 1.40558 72.8923C0.588159 71.2856 1.31537 70.121 2.17402 68.873Z" fill="#EC7F11"/>
<path d="M85.5532 31.0805C84.3735 33.2912 82.2351 34.0067 80.1127 34.0372C70.8002 34.1711 61.4812 34.2606 52.1728 34.0098C48.1342 33.901 44.0952 33.8577 40.0574 33.8269C38.2648 33.8132 36.5073 33.4691 34.7195 33.4561C33.6662 33.4485 33.1283 32.7103 33.0895 31.4536C33.3717 31.0276 33.7005 30.9938 34.1762 31.2189C34.9476 31.3267 35.6028 31.4005 36.2581 31.4008C51.2286 31.4073 66.199 31.4063 81.1695 31.4045C81.873 31.4044 82.5862 31.477 83.3667 31.0902C84.1288 31.0396 84.7804 31.0493 85.5532 31.0805Z" fill="#F3C32D"/>
<path d="M85.6625 73.4922C85.872 73.3958 85.985 73.3896 86.1828 73.3809C86.4828 73.6099 86.7709 73.6552 87.1211 73.8407C87.8663 74.611 87.9424 75.4893 87.7939 76.5522C87.7063 77.6132 87.3716 78.5135 87.405 79.5891C87.8359 82.3821 87.9676 85.0861 87.9981 87.8196C88.0103 88.9142 89.0437 89.8526 88.7752 91.1596C88.7038 91.5071 88.7459 91.8846 88.6143 92.3005C88.5439 94.1191 89.337 95.5597 89.7187 97.2538C89.8065 101.035 90.6404 104.608 90.5101 108.281C90.4604 109.683 91.2044 110.986 91.0211 112.44C90.9372 113.105 91.0554 113.809 90.6005 114.526C89.4788 115.315 88.3998 115.162 87.199 114.801C86.1973 113.66 86.6478 112.286 86.4022 110.934C86.2778 110.453 86.2238 110.095 86.0793 109.624C85.9033 107.761 85.9691 106.023 85.9112 104.154C85.9362 103.567 85.813 103.165 85.5552 102.663C84.818 94.9781 84.311 87.3999 83.5316 79.853C83.4886 79.4362 83.5044 79.0121 83.4702 78.5953C83.2934 76.4375 83.4599 74.479 85.6625 73.4922Z" fill="#FEC928"/>
<path d="M94.9266 160.967C97.1043 160.767 98.747 161.429 99.7876 163.51C99.8908 163.716 100.07 163.887 100.07 164.141C100.072 166.877 100.069 169.612 100.063 172.348C100.062 172.388 100.009 172.461 99.9797 172.462C99.9052 172.463 99.8301 172.432 99.655 172.385C98.03 173.316 96.3374 173.457 94.6655 173.247C91.8533 172.895 89.274 171.954 87.6503 169.156C86.0538 166.405 86.764 163.082 90.0496 161.903C90.6284 161.696 91.2035 161.485 91.7857 160.983C92.8681 160.708 93.8446 160.502 94.9266 160.967Z" fill="#F62E41"/>
<path d="M28.7812 162.235C29.8956 162.763 30.1562 163.883 30.2187 164.777C30.3804 167.088 30.2654 169.422 30.2444 171.746C30.2435 171.84 30.0745 171.932 29.8621 172.038C29.1764 172.79 28.3079 172.88 27.5621 173.004C25.0141 173.426 22.4224 173.839 19.972 172.526C18.1233 171.535 17.11 169.774 17.0868 167.638C17.0646 165.593 18.3529 164.276 19.9901 163.321C22.2426 162.008 24.6474 161.817 27.1173 162.046C27.6302 162.093 28.1505 162.099 28.7812 162.235Z" fill="#F62E41"/>
<path d="M28.8721 162.189C27.9232 162.795 26.8688 162.612 25.8507 162.578C23.7753 162.51 21.8305 162.99 20.0456 164.091C16.9199 166.018 17.07 168.72 19.2508 171.153C20.1812 172.191 21.4948 172.629 22.9542 172.695C25.177 172.796 27.3156 172.283 29.6158 172.049C29.6846 173.608 28.2874 175.048 26.6608 175.071C23.4185 175.117 20.1751 175.095 16.9323 175.079C16.1902 175.076 14.1366 173.156 13.8565 172.437C12.9464 170.101 13.2727 167.656 13.353 165.27C13.4527 162.309 15.1554 161.084 18.8185 161.059C19.3876 160.72 19.8801 160.765 20.4995 160.819C22.0647 160.736 23.5118 160.451 25.0433 161.061C26.2091 161.318 27.2604 161.512 28.4317 161.703C28.6486 161.837 28.7453 161.972 28.8721 162.189Z" fill="#E52330"/>
<path d="M95.0067 160.766C94.0928 161.414 93.11 161.188 92.031 161.281C91.245 161.665 90.5537 161.799 89.7109 161.575C88.9844 160.82 89.0882 159.917 89.0497 159.069C88.9866 157.675 88.6981 156.247 88.7055 154.926C88.7283 150.863 87.5178 146.961 87.7468 142.905C87.7746 142.412 87.7783 141.941 87.6501 141.468C87.2416 139.963 87.2132 138.398 87.0608 136.846C86.6953 133.123 86.7144 129.354 86.0469 125.667C85.9136 124.93 85.9335 124.162 86.134 123.274C86.973 120.594 89.3553 119.055 91.4143 119.893C91.7115 120.331 91.7525 120.705 91.6481 121.234C91.479 121.52 91.6908 121.391 91.5342 121.499C88.7172 123.433 88.8433 126.513 89.2569 129.618C89.7384 133.234 89.8246 136.895 90.2881 140.508C90.8856 145.164 91.8312 149.693 94.3146 153.723C94.0983 156.148 95.0434 158.325 95.0067 160.766Z" fill="#FDA01C"/>
<path d="M89.5545 161.192C90.3279 161.291 90.9902 161.33 91.7762 161.39C91.5595 162.251 90.7195 162.141 90.116 162.439C87.5897 163.688 86.439 166.223 88.3862 169.071C90.5033 172.168 93.5426 172.829 96.8763 172.511C97.7054 172.432 98.5139 172.109 99.4596 172.311C99.4337 174.127 97.8347 174.982 96.3518 175.045C93.3075 175.173 90.255 175.105 87.2063 175.074C85.3343 175.056 83.6998 173.181 83.7 171.14C83.7001 169.372 83.8228 167.591 83.6691 165.838C83.4842 163.731 84.1699 162.263 85.9236 161.206C86.7353 161.143 87.4861 161.442 88.3837 161.271C88.7953 161.056 89.104 160.971 89.5545 161.192Z" fill="#E52330"/>
<path d="M94.3852 154.372C93.4733 154.423 93.0018 153.85 92.6005 152.883C90.7951 148.53 89.8769 143.97 89.4404 139.144C89.0406 134.726 88.7096 130.293 88.2486 125.88C88.0279 123.768 89.2816 121.515 91.1048 120.882C92.0859 120.846 92.3468 121.519 92.4114 122.371C92.5 123.539 92.5081 124.707 92.2895 126.001C92.3494 127.304 91.9914 128.466 92.3186 129.739C92.0272 134.115 92.8227 138.33 93.1469 142.529C93.3629 145.326 93.0771 148.253 93.8438 150.993C94.1402 152.053 94.6051 153.052 94.3852 154.372Z" fill="#FEC928"/>
<path d="M83.5568 39.4904C83.9549 42.4833 84.5131 45.3595 84.2897 48.315C84.2258 49.1602 85.1556 49.8491 84.7955 50.9409C84.8416 52.1536 85.2565 53.1651 85.3546 54.3674C86.6535 56.6607 86.1786 59.1172 86.3473 61.4743C86.4322 62.6606 86.9984 63.7713 86.8672 65.0081C86.7991 65.65 86.912 66.3175 86.534 67.0404C85.372 68.2307 84.1107 68.0283 82.7221 67.6596C82.545 67.5083 82.4833 67.4369 82.3654 67.2342C81.6181 61.5383 81.169 55.9498 80.7599 50.3537C80.5906 48.0381 80.1462 45.7518 80.2417 43.403C80.2826 42.3952 80.5278 41.4945 81.0174 40.689C81.5742 39.773 82.2774 39.0191 83.5568 39.4904Z" fill="#FEC928"/>
<path d="M89.334 97.7852C88.463 96.3972 87.9282 95.0276 88.6347 93.3574C91.9639 96.1879 95.2238 99.0787 98.4492 102.013C102.22 105.445 105.955 108.921 109.718 112.362C110.633 113.199 111.668 113.885 112.501 114.974C111.719 115.399 110.844 115.365 109.858 115.437C109.411 115.722 109.056 115.753 108.582 115.57C107.079 114.37 105.668 113.234 104.309 112.011C99.7786 107.939 95.2787 103.827 90.7251 99.7856C90.1203 99.2488 89.7669 98.5624 89.334 97.7852Z" fill="#18345C"/>
<path d="M84.9144 54.3065C84.6403 53.2083 83.9549 52.2553 84.6925 51.1172C87.4453 52.2492 89.7695 54.0793 92.2711 55.5655C95.5646 57.5223 98.8147 59.5771 102.039 61.6529C104.978 63.5444 108.018 65.2742 110.863 67.489C109.667 68.178 108.39 67.8362 107.007 67.8874C106.622 68.0782 106.336 68.0799 105.944 68.0443C99.1707 64.459 92.9778 60.0016 86.4882 56.1031C85.812 55.6969 85.2488 55.2031 84.9144 54.3065Z" fill="#18345C"/>
<path d="M12.0434 67.5205C10.491 67.9643 9.02527 68.0952 7.43683 67.6596C7.99826 66.6465 8.99086 66.0925 9.87651 65.4949C13.8997 62.7802 17.8573 59.9631 21.7984 57.114C24.3406 55.2762 26.9559 53.5559 29.6313 51.7324C30.7467 52.5815 30.8549 53.5563 30.0597 55.4316C24.8521 59.5445 19.4035 63.0501 14.1165 66.8194C13.5262 67.2402 12.8863 67.5682 12.0434 67.5205Z" fill="#18345C"/>
<path d="M10.415 115.106C9.06165 115.241 7.89989 115.55 6.63013 115.101C10.4906 110.747 14.4579 106.433 18.4296 102.124C20.6483 99.7166 22.8742 97.317 25.1563 94.8381C26.0619 94.6384 26.2254 95.2741 26.2959 95.9431C26.4136 97.0601 26.183 98.1196 25.6741 99.2371C25.4872 99.5525 25.331 99.7324 25.0956 99.9931C24.9612 100.121 24.9043 100.167 24.754 100.261C22.4943 102.747 20.2618 105.112 18.0476 107.498C15.9921 109.712 13.9221 111.911 11.8945 114.156C11.5248 114.565 10.9978 114.701 10.415 115.106Z" fill="#18345C"/>
<path d="M20.8293 161.225C20.2238 161.458 19.7479 161.419 19.175 161.149C19.0689 160.99 19.0875 160.881 19.0761 160.776C18.6608 156.914 19.5441 153.108 19.9274 149.324C20.1721 146.91 20.2437 144.37 20.814 142.04C21.3622 139.801 20.7506 137.511 21.4317 135.495C22.1898 133.252 21.732 131.085 21.9889 128.76C22.5563 127.461 22.2159 126.278 22.114 124.974C22.1063 124.369 21.9242 123.913 21.9355 123.433C21.954 122.649 21.8047 121.76 22.652 121.316C23.4683 120.889 23.9991 121.604 24.6828 122.112C24.9223 124.592 25.7855 126.986 24.4889 129.295C24.3856 129.479 24.3329 129.71 24.3503 129.921C24.6036 133.001 23.9028 136.014 23.5615 139.033C23.1842 142.371 23.302 145.766 22.4962 149.056C22.29 149.898 22.3663 150.769 22.3613 151.629C22.3532 153.028 22.322 154.385 21.6715 155.711C21.1437 156.787 21.3895 158.041 21.4658 159.217C21.5125 159.938 21.5641 160.619 20.8293 161.225Z" fill="#F2810F"/>
<path d="M24.8516 99.34C25.6763 97.8756 26.1567 96.4387 25.3162 94.8007C25.1377 93.9665 25.0034 93.1912 25.7118 92.5526C25.9427 92.3444 26.042 91.8105 26.01 91.445C25.7108 88.0263 26.9911 84.7157 26.6013 81.1547C26.8029 80.0843 26.8275 79.1474 26.7353 78.0853C26.7787 77.7068 26.8464 77.464 27.0928 77.1618C27.6041 76.8174 28.0299 76.8044 28.5785 77.0781C29.5064 78.3471 29.2161 79.6506 28.9799 80.9304C28.9083 81.3183 28.6679 81.6884 28.698 82.0939C28.9316 85.2396 28.0823 88.2882 27.9994 91.4196C27.936 93.8141 27.7684 96.2841 27.3213 98.6051C26.9552 100.506 27.1126 102.453 26.7042 104.205C25.9223 107.559 26.561 111.097 25.248 114.463C24.7009 115.337 24.1104 115.187 23.3869 114.718C22.6481 113.487 22.7969 112.288 23.123 111.113C23.2872 110.521 23.4603 109.932 23.4004 109.33C23.1309 106.624 24.1287 104.04 24.0351 101.353C24.0189 100.887 24.1928 100.461 24.5477 99.9817C24.6357 99.8746 24.6204 99.871 24.6225 99.8792C24.7358 99.7494 24.7596 99.5747 24.8516 99.34Z" fill="#F2810F"/>
<path d="M92.5163 131.996C90.9234 131.47 91.6206 130.306 91.8663 129.167C92.2661 128.239 92.8619 127.74 93.5699 127.274C95.975 125.69 98.561 124.45 100.894 122.731C101.606 122.207 102.496 122.192 103.398 121.895C105.246 121.378 107 120.913 108.884 121.659C108.88 122.6 108.103 122.399 107.67 122.692C103.04 125.826 98.067 128.329 93.5178 131.617C93.2608 131.802 92.9075 131.834 92.5163 131.996Z" fill="#18345C"/>
<path d="M83.6765 39.4546C81.9475 40.0569 80.9673 41.1407 80.9069 42.9152C80.8488 44.622 80.8723 46.3252 81.0933 48.0459C81.5154 51.3314 81.7133 54.6503 82.013 57.9544C82.2401 60.4589 82.4712 62.9632 82.7241 65.4648C82.7698 65.917 82.9025 66.3555 82.6415 66.8922C81.4182 67.5749 80.9526 67.4109 80.4987 66.267C80.3291 65.8395 80.2764 65.3932 80.2598 64.935C80.1873 62.923 79.9333 60.905 79.8435 58.9242C79.6926 55.5972 78.9337 52.3303 79.0996 48.9863C79.1504 47.9634 78.9067 47.0043 78.5702 46.0346C78.0484 44.5314 78.2164 42.9514 78.4387 41.2616C78.9451 39.1132 80.2934 38.1045 82.1583 37.5625C82.6793 37.6565 83.1175 37.6366 83.568 37.9652C83.6623 38.4698 83.6799 38.8987 83.6765 39.4546Z" fill="#FEA11C"/>
<path d="M87.5003 81.0087C86.8032 80.1797 86.657 79.3292 87.3836 78.3627C87.7045 77.5868 88.1281 77.1698 88.8287 76.927C91.5326 75.99 94.1641 74.7894 97.12 74.3937C99.6733 74.0874 102.091 73.374 104.588 73.6185C105.083 73.6669 105.636 73.4876 106.072 74.1255C103.076 75.617 99.8921 76.578 96.7807 77.7521C94.1361 78.75 91.4927 79.7676 88.8463 80.7704C88.4284 80.9288 88.0315 80.9595 87.5003 81.0087Z" fill="#18345C"/>
<path d="M74.0821 17.5691C74.1148 17.8092 74.1069 17.937 74.1105 18.1602C74.056 18.4496 73.9584 18.6946 73.787 18.7123C72.3178 18.8641 70.8344 19.2239 69.3404 18.3602C69.2788 12.8085 69.2786 7.38291 69.2835 1.95737C69.285 0.250297 69.5234 -0.00207332 71.1405 1.27449e-05C72.0809 0.0012301 73.0212 0.0307148 74.0315 0.154841C74.051 1.44607 72.9961 2.01944 72.6707 3.0893C71.8052 5.93482 71.7473 8.82601 71.9994 11.745C72.0639 12.4924 72.0629 13.2602 72.222 13.9919C72.5127 15.3288 73.0047 16.5644 74.0821 17.5691Z" fill="#F78812"/>
<path d="M74.2246 17.6065C72.7335 17.4804 71.764 16.1464 71.5585 14.0947C71.2468 10.9825 70.9864 7.85381 71.5796 4.7597C71.9048 3.06334 72.1888 1.23285 74.0338 0.337891C74.3923 0.36626 74.3652 0.628824 74.3647 0.876971C74.3521 6.42846 74.3393 11.98 74.2246 17.6065Z" fill="#FEA11C"/>
<path d="M27.0736 78.099C27.4935 79.1801 27.9137 80.1682 26.7237 80.9929C24.3663 80.0395 22.1209 79.0573 19.8688 78.0934C18.0871 77.3308 16.2851 76.6218 14.5156 75.8284C13.5475 75.3944 12.628 74.8346 11.5843 74.2808C11.7599 73.477 12.386 73.6713 12.9216 73.614C14.9057 73.4016 16.8003 74.055 18.8562 74.3291C21.1846 74.6106 23.1351 75.7451 25.1976 76.497C25.9417 76.7682 26.7091 77.0835 27.0736 78.099Z" fill="#18345C"/>
<path d="M29.3485 55.5227C30.0717 54.3137 30.3148 53.156 29.7932 51.7913C29.9362 48.9092 30.4666 46.1709 30.3535 43.3539C30.3316 42.8073 30.9578 42.1371 30.8627 41.2482C31.3027 40.5623 31.846 40.4015 32.5932 40.6644C33.2403 41.4575 33.2311 42.2726 32.8725 43.0186C32.3519 44.1013 32.4377 45.2564 32.2876 46.3965C31.8504 49.7168 31.9903 53.1014 31.2894 56.388C31.1945 56.8328 31.2047 57.2902 31.191 57.7441C31.138 59.4967 31.1932 61.2295 30.7519 62.9823C30.4573 64.1523 30.2447 65.5902 31.3633 66.7772C31.4762 66.9721 31.5017 67.0634 31.5008 67.2968C30.7288 68.6261 29.7011 68.1573 28.6039 67.9131C27.0751 65.9616 27.5146 63.7751 27.9576 61.7965C28.2319 60.5716 28.5311 59.3904 28.5095 58.1375C28.4932 57.1941 28.6537 56.3417 29.3485 55.5227Z" fill="#F2810F"/>
<path d="M22.0176 127.174C22.5722 128.374 22.889 129.466 21.6614 130.413C18.8305 128.229 15.8342 126.49 12.9511 124.557C11.6931 123.714 10.4817 122.79 9.18304 121.824C10.7435 120.849 12.3592 121.277 14.0861 121.818C16.8494 122.181 18.6362 124.346 20.8874 125.531C21.457 125.831 21.7303 126.462 22.0176 127.174Z" fill="#18345C"/>
<path d="M69.1467 18.2465C70.8116 18.8598 72.3783 18.6298 74.0327 18.3466C76.0997 18.2623 78.0775 18.2686 80.1866 18.299C80.0774 19.3834 79.272 19.1679 78.6004 19.1689C71.1826 19.1798 63.7648 19.1757 56.347 19.1759C51.2296 19.176 46.1122 19.1764 40.8619 19.1736C40.7291 18.9551 40.7291 18.7397 40.7364 18.4168C47.2454 18.2929 53.7473 18.2766 60.3807 18.2488C62.0378 17.48 63.5869 18.154 65.2387 18.1996C66.5739 18.2531 67.7952 18.2559 69.1467 18.2465Z" fill="#2A93C6"/>
<path d="M65.3432 18.1497C63.8211 18.8715 62.2729 18.6522 60.6177 18.2966C60.5143 15.8803 60.5927 13.5201 60.4895 11.1692C60.4281 9.77206 60.8149 9.21019 62.1263 9.42541C62.6269 9.50757 63.1483 9.44217 63.7893 9.4657C64.35 10.0229 64.1183 10.5728 63.8489 11.028C63.2266 12.0798 63.3317 13.2735 63.2468 14.4072C63.1352 15.8971 64.0612 16.7856 65.2146 17.5751C65.3003 17.7862 65.317 17.9181 65.3432 18.1497Z" fill="#F78812"/>
<path d="M8.15456 128.442C9.19494 129.738 8.93423 130.701 7.72932 131.262C5.57184 132.265 3.48553 131.973 1.37107 131.217C0.178949 130.791 0.0311577 129.782 1.0544 128.628C1.20624 128.368 1.34642 128.177 1.52699 128.176C3.71023 128.169 5.90005 127.875 8.15456 128.442Z" fill="#0B5FA5"/>
<path d="M0.981283 81.9986C0.798303 81.3736 -0.264057 81.8297 0.061633 81.1078C0.309657 80.5581 0.483121 79.6705 1.42669 79.6001C1.67838 79.1109 2.00075 78.8518 2.38678 78.8914C4.01758 79.0586 5.64376 78.9554 7.27242 78.8873C7.55807 78.8753 7.80441 79.0557 8.08744 79.4068C9.17326 80.0545 8.71957 80.9931 8.62692 81.855C8.4456 82.093 8.38002 82.3001 8.23502 82.4231C6.86684 83.5834 2.38717 83.3814 0.981283 81.9986Z" fill="#27B4F2"/>
<path d="M0.877847 81.9945C3.36218 82.6096 5.82762 82.7088 8.41132 81.916C9.23321 84.1648 8.51922 85.2442 6.30943 85.2549C5.36828 85.2594 4.42674 85.2363 3.48603 85.2583C2.64925 85.2779 2.02037 85.0354 1.26088 84.4804C0.140987 83.662 -0.0218492 83.1042 0.877847 81.9945Z" fill="#0B5FA5"/>
<path d="M118.061 81.8032C118.243 84.7626 117.805 85.2505 115.141 85.2543C114.395 85.2554 113.649 85.2542 112.903 85.2537C110.594 85.2523 110.032 84.6673 110 82.0876C110.43 81.3773 110.999 81.4237 111.566 81.5279C113.296 81.8455 115.022 81.9538 116.752 81.5235C117.169 81.4197 117.597 81.4043 118.061 81.8032Z" fill="#0B5FA5"/>
<path d="M118.172 81.7627C115.523 82.6496 112.886 82.6074 110.132 81.9562C110.319 81.2291 109.213 79.9719 110.82 79.611C111.149 79.011 111.577 78.8033 112.069 78.8708C113.469 79.0629 114.863 79.012 116.262 78.864C116.748 78.8125 117.188 78.9868 117.54 79.6044C118.722 80.0481 117.956 81.0129 118.172 81.7627Z" fill="#27B4F2"/>
<path d="M8.33623 128.505C5.93726 128.902 3.6401 129.033 1.22344 128.533C-0.364537 127.214 -0.356402 127.06 1.32546 126.042C1.52001 125.886 1.60314 125.707 1.72995 125.695C3.83154 125.499 5.93551 125.261 8.10948 125.946C8.95596 126.785 9.07024 127.575 8.33623 128.505Z" fill="#27B4F2"/>
<path d="M117.976 128.433C118.444 131.333 118.056 131.835 115.481 131.84C114.634 131.842 113.787 131.841 112.94 131.84C110.345 131.837 110.025 131.495 110.004 128.544C110.65 127.861 111.337 128.188 112.111 128.3C113.845 129.593 114.245 129.61 115.818 128.434C116.571 128.136 117.233 128.001 117.976 128.433Z" fill="#0B5FA5"/>
<path d="M112.351 128.918C111.554 128.797 110.871 128.787 110.127 128.441C110.275 127.701 109.272 126.481 110.827 126.178C111.323 125.34 111.97 125.337 112.613 125.584C113.622 125.97 114.599 125.954 115.6 125.57C116.149 125.359 116.699 125.378 117.241 125.957C118.274 126.513 118.267 127.381 118.109 128.408C117.426 128.63 116.802 128.733 116.066 128.848C114.81 129.401 113.646 129.354 112.351 128.918Z" fill="#27B4F2"/>
<path d="M8.25215 125.969C6.02465 126.054 3.85456 126.037 1.55238 126.006C0.56653 125.736 0.515262 124.81 0.112244 124.177C0.842772 124.052 0.863269 122.706 1.84977 123.011C2.43984 123.194 2.71243 122.512 3.31087 122.4C4.0782 122.645 4.08872 123.272 4.13647 123.864C4.17196 124.304 4.269 124.676 4.76693 124.638C5.19853 124.605 5.23213 124.247 5.23862 123.875C5.24822 123.326 5.24557 122.765 5.86555 122.412C8.27321 122.947 8.97531 123.663 8.78761 125.215C8.74391 125.577 8.56125 125.729 8.25215 125.969Z" fill="#0B5FA5"/>
<path d="M34.2845 31.1496C33.9715 31.3053 33.6507 31.3233 33.2085 31.3375C33.087 31.3338 33.0605 31.2923 33.04 31.3044C32.9422 31.307 32.865 31.2976 32.8013 31.1633C32.8161 27.7507 32.8133 24.4628 32.82 21.1749C32.8238 19.3271 33.6927 18.376 35.5555 18.291C33.8538 20.1248 34.2808 22.515 34.2681 24.7884C34.2564 26.8628 34.2727 28.9374 34.2845 31.1496Z" fill="#18345C"/>
<path d="M65.3021 17.5147C63.267 17.9823 62.5053 15.9136 62.5908 14.0258C62.6608 12.4829 62.8962 10.949 63.8954 9.59187C65.1155 9.14181 65.4068 9.68666 65.3521 10.9288C65.2576 13.0728 65.3226 15.2248 65.3021 17.5147Z" fill="#FDA01C"/>
<path d="M117.414 126.031C115.254 126.286 113.192 126.327 111.008 126.088C110.031 125.842 109.734 125.135 110.045 124.39C110.439 123.445 111.156 122.769 112.387 122.987C113.136 122.592 113.407 123.002 113.653 123.552C113.813 123.91 113.49 124.618 114.124 124.597C114.616 124.581 114.393 123.961 114.509 123.621C114.681 123.113 114.914 122.724 115.584 122.919C117.5 123.075 118.166 123.61 118.201 124.869C118.217 125.485 117.933 125.75 117.414 126.031Z" fill="#0B5FA5"/>
<path d="M117.631 79.6109C115.478 79.2484 113.306 79.6523 111.021 79.5099C110.029 79.1565 109.728 78.353 110.048 77.5682C110.43 76.6286 111.314 76.3118 112.396 76.4105C113.498 76.0138 113.595 76.7253 113.654 77.475C113.679 77.7912 113.709 78.1102 114.106 78.0645C114.386 78.0324 114.45 77.7884 114.479 77.52C114.55 76.8534 114.605 76.1588 115.585 76.3371C117.746 76.4831 118.271 76.9483 118.212 78.4236C118.19 78.9737 117.792 79.1208 117.631 79.6109Z" fill="#0B5FA5"/>
<path d="M8.21554 79.4233C6.02711 79.5227 3.88671 79.5111 1.61665 79.5002C1.02709 79.0759 -0.0491292 78.9902 0.189734 78.2357C0.458211 77.3876 1.11572 76.5402 2.15844 76.4323C2.51812 76.3951 2.90505 76.5087 3.31674 76.1575C3.95443 76.3181 4.03658 76.8211 4.0795 77.3278C4.11698 77.7701 4.20522 78.1277 4.71135 78.1245C5.23016 78.1211 5.29606 77.7474 5.30611 77.3086C5.31665 76.8492 5.3644 76.3988 5.87331 76.0957C6.38748 76.4404 6.89092 76.4016 7.39207 76.4493C8.0061 76.5078 8.57228 76.8856 8.72363 77.4927C8.87586 78.1033 9.02791 78.8908 8.21554 79.4233Z" fill="#0B5FA5"/>
<path d="M27.6166 32.5879C27.7592 32.5964 27.7976 32.6346 27.8098 32.6808C28.6794 35.9738 28.6797 35.9218 31.9527 35.9544C34.4292 35.9791 36.9157 35.6857 39.4912 36.1937C39.7101 36.3831 39.757 36.544 39.6931 36.8475C39.2135 37.484 38.6583 37.4955 37.9669 37.3828C37.4782 37.2822 37.0997 37.2724 36.6047 37.3008C35.0049 37.5795 33.5066 37.5106 31.8907 37.5142C31.607 37.4993 31.4558 37.4445 31.2184 37.2743C30.2634 36.992 29.3475 37.4151 28.52 36.9304C27.1127 36.1062 26.7037 34.3583 27.6166 32.5879Z" fill="#EC7F11"/>
<path d="M115.654 76.2567C115.019 76.5714 114.788 76.8746 115.232 77.5715C115.506 78.0026 115.38 78.5184 114.903 78.7047C114.277 78.9493 113.596 79.0144 113.008 78.5683C112.585 78.2475 112.557 77.8267 112.955 77.4185C113.45 76.9122 113.188 76.6438 112.601 76.4264C112.52 75.7965 112.526 75.1935 112.527 74.4612C113.353 73.6476 114.314 73.376 115.448 73.2832C115.587 74.2201 115.614 75.169 115.654 76.2567Z" fill="#18345C"/>
<path d="M5.96853 75.9424C5.81397 76.4282 5.54387 76.8072 5.84361 77.1867C6.27029 77.7269 6.26402 78.2171 5.71357 78.5749C5.07492 78.9901 4.36006 78.9861 3.70989 78.5972C3.2137 78.3004 3.15746 77.8418 3.51103 77.3271C3.73968 76.9942 3.53351 76.6507 3.43787 76.2137C3.41609 75.592 3.41281 75.0731 3.39795 74.4253C4.16016 73.3696 4.98045 73.3357 5.92362 74.2294C5.99146 74.8129 5.98045 75.3149 5.96853 75.9424Z" fill="#18345C"/>
<path d="M115.659 122.842C115.099 123.16 114.707 123.423 115.147 124.141C115.399 124.551 115.513 125.055 115.039 125.308C114.446 125.624 113.75 125.614 113.151 125.326C112.665 125.092 112.751 124.577 113.017 124.171C113.384 123.611 113.266 123.257 112.596 123.003C112.577 122.636 112.651 122.298 112.727 121.857C113.523 121.169 114.489 121.168 115.47 120.85C115.602 121.469 115.627 122.089 115.659 122.842Z" fill="#18345C"/>
<path d="M83.6603 37.908C83.3248 38.0726 83.0317 38.3487 82.6322 38.1012C82.2755 37.3361 81.6906 37.2285 81.068 37.2159C79.7734 37.1897 78.4785 37.1643 77.0728 37.3166C76.5267 37.4276 76.155 37.3114 75.8021 36.8405C75.7556 36.7154 75.7705 36.6178 75.7922 36.5742C75.9225 36.3878 76.0874 36.3904 76.2915 36.2877C78.1013 35.6224 79.904 35.9548 81.6771 35.9651C83.6901 35.9768 85.7019 36.2244 87.8096 36.4331C86.9785 37.4329 85.8237 37.0678 84.7434 37.1687C84.3497 37.2055 83.6247 36.762 83.6603 37.908Z" fill="#EC7F11"/>
<path d="M5.95677 122.289C5.7451 122.894 5.48903 123.406 5.88234 123.936C6.20559 124.371 6.22932 124.748 5.75764 125.06C5.1151 125.487 4.45893 125.598 3.7953 125.107C3.43469 124.841 3.06474 124.559 3.45476 124.033C3.81428 123.547 3.57717 123.082 3.4409 122.499C3.41637 122.258 3.4121 122.126 3.39273 121.895C4.16216 121.059 4.99878 121.16 5.92255 121.704C5.97611 121.923 5.96473 122.056 5.95677 122.289Z" fill="#18345C"/>
<path d="M32.7459 31.0469C32.8547 31.0801 32.8945 31.1214 32.9768 31.2397C32.9082 31.2803 32.797 31.2438 32.6149 31.153C32.544 31.0985 32.6768 31.0549 32.7459 31.0469Z" fill="#F3C32D"/>
<path d="M25.9032 152.476C25.6491 154.513 25.7013 156.497 25.7902 158.465C25.8242 159.219 25.0403 159.491 25.2057 160.318C25.1957 160.612 25.1721 160.783 25.1532 161.04C23.6723 161.568 22.1609 161.271 20.5324 161.279C20.4488 160.603 20.4705 159.962 20.4452 159.304C20.3863 157.769 20.0497 156.161 21.0172 154.759C21.1219 154.607 21.1794 154.377 21.1755 154.185C21.1258 151.765 21.583 149.387 21.724 146.997C21.9423 143.296 22.3061 139.633 22.8563 135.979C22.9901 135.091 22.9226 134.165 22.9254 133.256C22.9292 132.048 22.8482 130.856 23.5548 129.762C23.9377 129.169 23.8134 128.389 23.6508 127.693C23.4149 126.683 23.4509 125.692 23.7522 124.576C25.2014 123.043 26.6252 121.605 28.8997 121.934C29.014 122.067 29.0306 122.148 29.1094 122.336C29.1717 122.443 29.1127 122.472 29.0949 122.443C28.9685 122.997 28.9942 123.638 28.3336 123.926C26.6981 124.641 26.3078 126.2 26.1089 127.857C25.4593 133.27 25.0809 138.714 24.4972 144.136C24.195 146.942 24.7116 149.767 25.9032 152.476Z" fill="#FDA01C"/>
<path d="M26.0417 152.458C25.3781 153.271 25.1831 153.201 24.862 152.194C23.149 146.82 24.1258 141.449 24.6982 136.068C24.9693 133.52 25.1152 130.961 25.4311 128.413C25.7223 126.064 25.965 123.864 28.5559 123.163C28.722 123.118 28.8179 122.772 29.0117 122.49C29.0787 124.477 29.6024 126.6 28.4271 128.528C28.2905 128.752 28.28 129.11 28.3051 129.396C28.5956 132.709 27.4258 135.908 27.6898 139.322C26.3582 139.804 26.8906 140.863 27.083 141.847C27.3506 145.334 26.1609 148.654 26.6029 152.08C26.6766 152.652 26.3255 152.397 26.0417 152.458Z" fill="#FEC928"/>
<path d="M88.2049 158.879C87.1604 156.924 87.5922 154.802 87.3294 152.822C86.8881 149.497 86.8806 146.17 86.7466 142.833C86.708 141.872 86.1679 140.87 86.2491 139.63C87.0054 138.677 86.6542 137.765 86.3367 136.766C85.7923 133.752 85.8322 130.778 85.5754 127.857C85.4441 126.364 84.897 124.86 84.8362 123.213C84.7802 121.697 85.199 121.06 86.4287 120.881C87.1065 124.663 86.888 128.543 87.5669 132.324C87.9345 134.37 87.3271 136.616 87.9606 138.606C88.7223 140.998 87.8302 143.499 88.4949 145.827C89.2071 148.321 88.7203 150.962 89.1359 153.42C89.5687 155.98 89.543 158.501 89.6368 161.197C89.3373 161.361 89.0294 161.378 88.608 161.378C88.6265 160.541 88.2843 159.801 88.2049 158.879Z" fill="#F2810F"/>
<path d="M105.84 67.5001C106.223 67.6216 106.475 67.6918 106.802 67.831C106.666 68.7165 106.014 68.6595 105.421 68.8256C97.0645 71.1662 88.533 70.6034 80.0378 70.6325C75.8961 70.6467 71.7482 70.787 67.6142 70.594C61.6437 70.3153 55.6667 70.5624 49.7064 70.2855C39.1229 69.7939 28.5408 70.192 17.9595 70.0334C16.2795 70.0082 14.726 69.5556 13.1869 68.8787C12.6752 68.6537 12.4529 68.3087 12.2292 67.7392C12.8176 67.145 13.5919 67.0004 14.3092 66.979C17.1176 66.8954 19.9311 66.7469 22.8629 67.1415C23.5449 68.0965 24.3821 68.0597 25.2452 68.0598C42.3338 68.0617 59.4232 67.942 76.5106 68.1066C82.563 68.1648 88.6163 68.0002 94.6677 68.1964C95.3053 68.2171 96.0244 68.3754 96.4952 67.4325C97.0172 66.9309 97.5453 66.9452 98.0546 66.9362C100.618 66.8912 103.188 66.7344 105.84 67.5001Z" fill="#FCC627"/>
<path d="M61.9917 22.7463C61.6305 22.9559 61.3367 23.1061 60.9484 23.2839C60.5284 23.4243 60.2006 23.4629 59.7537 23.2912C59.6392 23.2358 59.6098 23.2097 59.5972 23.1944C59.5138 23.0336 59.4771 22.8788 59.4979 22.5961C59.7954 21.856 60.2197 21.4184 60.942 21.1977C61.3603 21.0315 61.687 20.993 62.1403 21.1409C62.355 21.371 62.4525 21.553 62.5645 21.8408C62.4819 22.2555 62.2708 22.4715 61.9917 22.7463Z" fill="#0B5FA5"/>
<path d="M66.3714 23.0056C65.8281 23.3433 65.3544 23.4458 65.1624 22.7725C64.9561 22.0492 65.4922 21.6672 65.9527 21.3369C66.3279 21.0678 66.8034 21.0217 67.0596 21.5032C67.4418 22.2216 66.9415 22.6008 66.3714 23.0056Z" fill="#0B5FA5"/>
<path d="M59.6786 23.3178C59.9657 23.2335 60.2921 23.2317 60.7362 23.2705C60.5065 23.8006 60.1309 23.8755 59.6786 23.3178Z" fill="#2A93C6"/>
<path d="M62.213 21.1116C61.9315 21.2068 61.6054 21.2242 61.1599 21.2059C61.3674 20.6547 61.7413 20.5892 62.213 21.1116Z" fill="#2A93C6"/>
<path d="M62.008 22.7978C61.9751 22.4649 62.1335 22.2024 62.495 21.9863C62.8049 22.4876 62.4619 22.648 62.008 22.7978Z" fill="#2A93C6"/>
<path d="M59.4677 22.5156C59.5489 22.6319 59.5763 22.7867 59.5941 23.06C59.2943 23.0444 59.1276 22.8712 59.4677 22.5156Z" fill="#2A93C6"/>
<path d="M108.491 114.974C108.938 115.132 109.251 115.242 109.651 115.407C109.686 115.998 109.525 116.398 108.97 116.59C105.915 117.646 102.795 118.406 99.5867 118.425C90.1699 118.482 80.7457 118.688 71.3372 118.381C58.1114 117.949 44.8853 118.453 31.6681 118.061C25.8335 117.888 20.002 118.014 14.1733 117.809C12.5332 117.751 11.0289 117.151 10.239 115.248C10.2232 115.147 10.2487 115.082 10.2202 115.064C10.7453 114.757 11.3294 114.501 11.9368 114.487C15.5475 114.405 19.1601 114.242 22.8949 114.65C23.4456 115.146 23.9142 115.462 24.5302 115.392C27.212 115.085 29.8783 115.572 32.5567 115.567C47.8862 115.537 63.2158 115.547 78.5454 115.558C81.0357 115.56 83.523 115.524 86.0087 115.352C88.9235 115.15 91.8239 115.721 94.7394 115.556C95.3449 115.522 95.9835 115.643 96.4921 114.869C96.9973 114.444 97.4743 114.449 97.9362 114.439C100.732 114.38 103.528 114.391 106.324 114.429C107.03 114.439 107.705 114.638 108.491 114.974Z" fill="#FEC928"/>
<path d="M75.6795 36.761C76.1496 36.7351 76.5436 36.7548 77.0489 36.8173C77.9514 37.5093 77.7146 38.3003 77.3687 39.2093C73.4319 42.773 69.0161 45.3875 64.7379 48.6626C68.522 48.6706 72.1144 48.6603 75.7066 48.6696C76.5492 48.6718 77.4078 48.5899 78.2775 49.1532C79.1242 50.3063 79.0906 51.4298 78.4802 52.6839C77.7276 53.3758 76.916 53.327 76.119 53.3299C72.36 53.3432 68.6008 53.3231 64.5693 53.3424C66.1179 54.5341 67.5627 55.413 68.9199 56.4278C71.271 58.1859 73.6701 59.8693 76.0734 61.5438C77.2989 62.3978 78.4577 63.3345 79.5902 64.4993C79.9735 64.9219 80.0954 65.3679 80.2705 65.9102C80.3333 66.3192 80.4102 66.6051 80.5577 66.9896C80.5887 67.2629 80.569 67.4184 80.4694 67.6764C79.9436 68.314 79.3905 68.4063 78.6693 68.098C74.8057 66.153 71.5476 63.3738 68.0763 60.9647C64.9548 58.7985 61.8771 56.5564 58.823 54.2803C58.094 53.737 57.5303 53.7214 56.7952 54.2922C52.6747 57.4922 48.319 60.3168 44.1313 63.4075C41.7976 65.1298 39.4479 66.7846 36.7658 68.0915C35.7464 68.2149 34.7999 68.4413 34.1424 67.2566C34.0479 66.6729 34.0372 66.2241 34.318 65.699C37.733 62.5513 41.5422 60.2233 45.1552 57.59C47.0472 56.211 48.8932 54.7604 51.1317 53.3458C46.5269 53.323 42.2466 53.3479 37.9665 53.3294C37.2197 53.3262 36.4473 53.4144 35.7169 52.7699C35.157 51.5011 35.1835 50.3814 36.035 49.2542C36.8273 48.6552 37.6324 48.6734 38.4339 48.6725C42.4844 48.6681 46.535 48.6706 50.9661 48.6716C48.9703 47.277 47.2342 46.0853 45.5423 44.8273C42.8793 42.8472 40.1061 41.0393 37.4741 38.798C37.3577 38.6352 37.3209 38.5609 37.2559 38.3621C37.1767 37.7956 37.1532 37.358 37.4973 36.8771C38.1791 36.7806 38.7662 36.7711 39.4791 36.7652C40.0055 36.4472 40.4343 36.7209 40.9518 36.7198C46.454 40.0432 51.4248 44.0584 56.6422 47.6652C57.5045 48.2612 58.238 48.3916 59.0813 47.6907C61.878 45.3663 64.9258 43.4394 67.8487 41.3144C69.2128 40.3227 70.5406 39.2757 71.9425 38.3403C72.7022 37.8334 73.4437 37.3142 74.3688 36.9156C74.6534 36.7699 74.8543 36.7606 75.1598 36.8498C75.3752 36.8504 75.4893 36.8285 75.6795 36.761Z" fill="#18345C"/>
<path d="M41.1978 37.2531C40.6497 37.0808 40.2277 36.9735 39.7053 36.8172C39.604 36.6517 39.6031 36.5351 39.6007 36.3313C51.1023 36.2393 62.6054 36.2344 74.2411 36.2324C74.6482 36.6625 74.4397 36.9755 74.0361 37.3343C72.5037 37.9307 71.0416 37.8348 69.5891 37.8352C61.5569 37.8371 53.5248 37.8282 45.4927 37.8435C44.0786 37.8462 42.6792 37.8104 41.1978 37.2531Z" fill="#F2810F"/>
<path d="M74.1566 37.1853C74.1756 36.8762 74.2619 36.6476 74.3609 36.3273C74.711 36.244 75.0342 36.2837 75.2289 36.7727C75.1038 36.9641 74.9466 37.0562 74.699 37.1734C74.4879 37.2706 74.3593 37.2908 74.1566 37.1853Z" fill="#EC7F11"/>
<path d="M76.2723 36.2441C76.2216 36.3195 76.093 36.4079 75.8892 36.5126C75.9407 36.4383 76.0675 36.3477 76.2723 36.2441Z" fill="#F2810F"/>
<path d="M77.3832 74.3907C78.4778 74.3111 79.3583 73.248 80.5101 74.0051C81.2148 75.3093 81.1395 75.8876 80.0249 76.9264C78.6428 78.2145 77.1227 79.3185 75.6724 80.5145C72.027 83.5206 68.3293 86.4544 64.6701 89.4423C64.1464 89.87 63.6195 90.2928 62.9498 90.6855C68.5478 90.6801 74.0495 90.6836 79.5512 90.6828C80.3028 90.6827 81.0558 90.6626 81.8915 90.9911C82.9666 91.8909 83.1116 92.8631 82.2774 94.0433C81.3426 94.648 80.4312 94.7527 79.4733 94.7502C74.4925 94.7372 69.5117 94.7341 64.3243 94.7482C70.8062 100.464 77.8129 105.143 84.0234 111.126C84.366 111.567 84.4806 111.97 84.4438 112.549C84.347 113.342 84.5257 114.04 84.1416 114.765C83.0235 115.249 82.231 114.56 81.5251 113.992C77.1208 110.442 72.6887 106.933 68.3071 103.351C65.1595 100.777 61.944 98.301 58.7818 95.7485C57.9927 95.1116 57.4047 95.2116 56.6533 95.83C50.5237 100.875 44.3384 105.841 38.1818 110.848C36.09 112.55 34.0173 114.303 31.5401 115.6C29.3546 115.787 29.2236 115.698 29.2161 113.998C29.2339 113.414 29.4102 113.032 29.7385 112.589C35.2733 107.694 40.9979 103.268 46.5826 98.6454C48.1092 97.3817 49.8272 96.3916 51.2642 94.7999C50.6815 94.6938 50.1476 94.7457 49.6215 94.745C44.5387 94.7385 39.4559 94.7446 34.373 94.7409C33.5687 94.7404 32.7674 94.7487 31.9718 94.1428C30.9088 93.1621 30.9922 92.2 31.8599 91.1326C32.9078 90.7371 33.8852 90.6789 34.8765 90.6805C40.6553 90.6901 46.4342 90.6862 52.4591 90.6847C51.0182 89.3957 49.662 88.3538 48.3278 87.3247C44.1704 84.1181 40.2043 80.6367 36.0111 77.4853C35.2758 76.9327 34.5857 76.3333 33.983 75.4536C33.8576 75.3055 33.808 75.245 33.702 75.0781C33.5412 74.6435 33.5453 74.3229 33.7806 73.9198C35.2185 73.2228 36.4428 73.9406 37.8193 74.3144C41.1197 75.6499 43.4497 78.3293 46.1922 80.3488C49.7246 82.95 53.0016 85.9234 56.4679 88.6241C57.4775 89.4108 58.1874 89.3987 59.184 88.5573C64.437 84.1224 69.881 79.958 75.17 75.5728C75.8158 75.0374 76.5027 74.635 77.3832 74.3907Z" fill="#18345C"/>
<path d="M83.3559 73.2124C83.5117 73.0609 83.5838 72.9894 83.7293 72.9188C84.4499 73.1724 84.8867 72.3958 85.6075 72.4721C85.6588 72.7348 85.6657 73.1477 85.5294 73.2237C83.091 74.5834 83.9397 77.1052 84.1253 79.1458C84.5984 84.3478 85.006 89.5552 85.4223 94.7628C85.6178 97.2075 86.0648 99.6261 85.9919 102.248C86.2223 102.622 86.245 102.977 86.4677 103.314C86.534 105.32 86.5453 107.252 86.563 109.335C86.6986 109.654 86.8285 109.82 87.0234 110.07C87.089 111.466 87.0917 112.776 87.0928 114.24C86.7442 114.826 86.3154 114.886 85.7234 114.692C84.754 113.342 84.5502 111.836 84.6438 110.302C84.6938 109.482 84.7764 108.662 84.491 107.927C83.8963 106.395 84.147 104.751 83.898 103.197C83.3161 99.5639 83.7056 95.8325 82.9245 92.233C82.8005 91.6617 82.8571 91.0536 82.8687 90.4658C82.9377 86.9768 82.0501 83.5785 82.1795 80.0708C82.2374 78.5019 81.1155 77.0633 81.5322 75.2394C81.7739 74.0749 82.7642 73.9879 83.3559 73.2124Z" fill="#FEA11C"/>
<path d="M86.6751 74.8984C86.7786 75.0336 86.7927 75.1706 86.7861 75.4087C86.6019 75.3725 86.4384 75.2352 86.2523 75.0138C86.3483 74.92 86.4671 74.9101 86.6751 74.8984Z" fill="#FEA11C"/>
<path d="M90.3153 114.489C90.4519 115.159 90.8632 115.245 91.3916 115.233C93.0809 115.193 94.7707 115.179 96.5946 115.151C96.5955 116.216 95.8235 115.994 95.1985 115.995C89.8759 116.006 84.5532 116.001 79.2306 116.001C62.7917 116.003 46.3529 116.006 29.914 116.004C28.0304 116.004 26.1467 115.984 24.2632 115.962C23.7611 115.956 23.1884 116.087 22.9297 115.258C22.9414 114.825 23.1213 114.636 23.4937 114.523C23.9952 114.505 24.3617 114.859 24.856 114.598C25.3046 113.947 25.8496 113.808 26.5969 113.901C27.6532 113.996 28.5584 113.5 29.5876 113.829C29.4613 115.483 29.4905 115.509 31.2876 115.234C32.4973 114.608 33.6887 114.409 34.9156 114.409C50.1712 114.403 65.4268 114.407 80.6824 114.402C81.6853 114.401 82.6479 114.582 83.7274 114.859C84.222 114.2 83.9463 113.519 84.0822 112.762C84.8041 112.392 84.9159 112.909 84.9578 113.425C84.9956 113.891 85.0108 114.329 85.6058 114.536C86.0865 114.567 86.4712 114.566 86.9713 114.562C88.121 114.545 89.1552 114.53 90.3153 114.489Z" fill="#A57F1A"/>
<path d="M86.5138 104.055C86.1742 104.053 85.9946 103.812 85.9872 103.324C86.3425 103.315 86.5032 103.57 86.5138 104.055Z" fill="#FCC627"/>
<path d="M87.0652 110.462C86.8554 110.482 86.6646 110.365 86.5758 110.012C86.7943 109.983 86.9748 110.11 87.0652 110.462Z" fill="#FCC627"/>
<path d="M86.0886 66.9989C86.1132 67.7502 86.6294 67.6995 87.1009 67.6965C90.2202 67.6762 93.3396 67.6525 96.593 67.6332C96.6129 68.4471 96.1432 68.7017 95.4264 68.6768C89.6496 68.4753 83.8676 68.8823 78.0912 68.5061C77.1065 68.442 76.1158 68.4808 75.1279 68.4807C63.2247 68.4795 51.3202 68.3695 39.4189 68.5333C34.5279 68.6006 29.6458 68.5206 24.76 68.431C24.1252 68.4193 23.408 68.6279 22.942 67.7426C24.7355 67.6498 26.5705 67.6601 28.5422 67.6409C29.5038 67.4609 30.3589 67.7013 31.2723 67.3402C32.1781 66.4501 33.1256 66.4533 34.2129 66.8451C34.7923 68.2477 35.7026 67.7894 36.5915 67.4376C37.0887 67.5467 37.5587 67.439 38.0001 67.2752C39.0002 66.9041 40.0289 66.9027 41.0643 66.9029C51.6853 66.905 62.3064 66.9173 72.9273 66.8923C74.8135 66.8879 76.6798 66.9468 78.6379 67.5471C79.2034 67.9091 79.6369 67.8778 80.1528 67.5746C80.9411 67.3097 81.6853 67.4861 82.4944 67.3211C83.7285 67.321 84.8885 67.6497 86.0886 66.9989Z" fill="#997818"/>
<path d="M82.591 67.2439C81.9339 67.9022 81.2119 68.0013 80.3352 67.6082C80.2118 67.4575 80.1853 67.3591 80.1487 67.1845C80.1356 66.9057 80.0477 66.7238 80.0022 66.4295C79.7708 65.939 79.4033 65.6229 79.4252 64.9834C78.4119 63.323 77.9547 61.6231 77.9754 59.7342C77.9936 58.0767 78.139 56.4057 77.5431 54.7833C77.3298 54.2023 77.3531 53.4725 77.93 52.8346C78.6483 51.6949 78.5202 50.6211 78.0647 49.4221C77.1374 48.632 76.8189 47.712 76.8516 46.5601C76.8946 45.0462 76.8185 43.5289 76.9295 41.8715C77.245 40.9083 77.7061 40.371 78.7302 40.6254C78.5084 44.5855 79.7351 48.3103 79.882 52.1855C80.0474 56.5501 80.8415 60.9079 80.871 65.3168C80.8781 66.3808 81.1983 67.1022 82.4622 66.9877C82.5823 67.0428 82.5854 67.1002 82.591 67.2439Z" fill="#F2810F"/>
<path d="M24.8257 99.3184C24.8652 99.4539 24.8264 99.6346 24.7061 99.8512C24.6655 99.7126 24.7065 99.5381 24.8257 99.3184Z" fill="black"/>
<path d="M26.9439 114.435C26.2963 114.54 25.7322 114.544 25.0483 114.548C25.5448 111.417 25.0962 108.144 26.0237 105.054C26.1842 104.52 26.13 103.975 26.1058 103.414C26.0394 101.872 25.7252 100.271 26.6996 98.8725C26.8038 98.7231 26.8678 98.4827 26.8463 98.2987C26.4963 95.3033 27.2853 92.3916 27.5331 89.4539C27.7911 86.3944 27.7005 83.2673 28.4871 80.2506C28.7078 79.4041 28.5513 78.4435 28.5569 77.3894C30.0961 75.9811 31.7601 74.996 33.8384 74.834C33.9404 74.8962 33.9432 74.9181 33.9534 74.9175C33.9883 74.9978 34.0129 75.0787 34.0025 75.2813C33.511 76.0494 32.9914 76.6448 32.358 77.0727C31.2552 77.8175 30.7353 79.0043 30.6893 80.2447C30.48 85.8919 29.5673 91.4583 29.1244 97.2017C28.9752 97.6236 28.8633 97.9268 28.8817 98.3845C28.9113 99.8961 28.5238 101.253 28.5893 102.766C28.5243 103.247 28.32 103.581 28.4083 104.082C28.4184 104.344 28.4025 104.492 28.3438 104.747C28.162 105.18 27.9628 105.493 28.0822 106.009C28.0409 107.569 28.132 109.013 27.9689 110.576C27.7946 111.164 27.3644 111.51 27.475 112.198C27.4575 113.027 27.5895 113.775 26.9439 114.435Z" fill="#FDA01C"/>
<path d="M34.3371 66.8353C33.4568 67.4504 32.5359 67.3459 31.4988 67.3042C31.3736 67.2924 31.3748 67.1514 31.3698 67.0812C30.5777 65.8319 31.139 64.5529 31.1685 63.3291C31.2391 60.3977 31.7403 57.5037 32.001 54.5877C32.2966 51.2807 32.4866 47.9367 33.1669 44.6738C33.5581 42.7975 34.5087 41.2359 35.5868 39.7469C36.0628 39.0896 36.7014 38.8544 37.5675 38.8575C38.3837 39.1619 38.4314 39.8172 38.1931 40.3653C37.5687 41.8017 37.7092 43.3092 37.6775 44.8044C37.6453 46.3241 37.239 47.738 36.6032 49.2158C36.0146 50.2717 35.5741 51.2401 36.0465 52.5049C36.99 54.7071 36.6469 56.9031 36.3635 58.9999C36.2029 60.1878 35.9698 61.3647 36.0055 62.565C36.0405 63.7426 35.7904 64.7533 34.8604 65.6541C34.6468 66.0919 34.5092 66.4125 34.3371 66.8353Z" fill="#FEC928"/>
<path d="M37.6978 38.8785C35.0888 40.6422 34.0376 43.2234 33.6065 46.3315C32.7412 52.5694 32.2943 58.8512 31.6763 65.1152C31.6219 65.6659 31.4953 66.2083 31.3835 66.8833C30.3565 67.1172 29.862 66.6793 29.9818 65.5389C30.3507 62.0283 30.3218 58.4706 31.0582 55.0033C31.0894 54.8565 31.1282 54.6996 31.111 54.5547C30.721 51.2692 31.957 48.0966 31.6919 44.8219C31.5791 43.4283 32.9201 42.3867 32.473 40.7823C32.4781 40.5473 32.5095 40.4553 32.5548 40.2928C32.7636 39.0118 33.7001 38.8004 34.6863 38.4942C35.6817 38.3782 36.4572 37.4882 37.5374 38.1273C37.6478 38.259 37.653 38.3391 37.6766 38.5381C37.717 38.7115 37.7387 38.766 37.6978 38.8785Z" fill="#FDA01C"/>
<path d="M112.278 128.938C113.385 128.835 114.537 128.826 115.823 128.838C114.791 130.041 113.572 129.886 112.278 128.938Z" fill="#2A93C6"/>
<path d="M34.8517 38.8017C34.9533 38.2745 35.3588 38.0997 35.8266 38.0019C36.3461 37.8934 36.8006 37.6891 36.7873 36.8653C37.0053 36.5375 37.2448 36.6036 37.5386 36.734C37.6128 37.1768 37.6337 37.565 37.6487 38.0652C36.6501 37.9212 35.8354 38.5219 34.8517 38.8017Z" fill="#53420D"/>
<path d="M79.9358 66.4062C80.2096 66.4741 80.2555 66.6928 80.1786 67.0283C79.9111 66.9669 79.8387 66.7514 79.9358 66.4062Z" fill="#997818"/>
<path d="M33.8114 75.2305C33.9983 77.9989 33.4471 80.7539 33.217 83.5071C33.058 85.4086 32.8661 87.3441 32.8724 89.2581C32.875 90.0476 32.2357 90.3923 32.2569 91.1995C31.61 92.0745 31.5592 92.8872 32.1142 93.8091C31.8103 94.1921 32.342 94.4871 32.2458 94.7783C32.0285 95.4354 32.6743 96.2174 31.7722 96.8713C31.4261 97.1222 31.3293 98.2937 31.3904 99.123C31.622 102.267 30.7267 105.324 30.6985 108.481C30.6868 109.791 30.32 111.26 30.286 112.824C30.1163 113.226 29.9468 113.488 29.7253 113.832C28.9292 114.639 28.0278 114.641 26.9847 114.548C26.873 113.797 26.8856 113.059 26.9036 112.184C27.2199 111.762 27.101 111.288 27.3778 110.885C27.4485 109.185 27.4599 107.561 27.4782 105.795C27.6979 105.434 27.7225 105.104 27.9484 104.792C28.0036 104.594 28.0022 104.463 28.0029 104.235C28.0121 103.894 28.0129 103.65 28.0175 103.315C27.9358 101.673 28.0935 100.139 28.3102 98.4777C28.5057 98.1529 28.5755 97.9082 28.58 97.5359C28.7045 93.4049 29.3461 89.4271 29.6808 85.4168C29.7727 84.3154 30.0962 83.2319 29.9842 82.1124C29.6554 78.8251 31.0106 76.6158 33.8114 75.2305Z" fill="#FEC928"/>
<path d="M83.7087 111.296C82.4847 108.177 83.681 104.836 82.6679 101.75C82.2843 100.582 82.583 99.1076 82.5618 97.773C82.5431 96.5976 82.6322 95.4665 81.8034 94.4421C81.3844 93.9241 81.714 92.8913 81.8087 92.0082C82.7035 91.0721 82.2847 90.1455 81.7797 89.148C81.1172 86.1895 81.4418 83.1724 80.9939 80.3438C80.6745 78.3266 80.7221 76.3725 80.5912 74.2401C80.8526 73.6749 81.1445 73.3515 81.678 73.383C82.2007 76.495 82.6946 79.5061 82.9832 82.5911C83.2933 85.9069 82.9105 89.3482 83.9149 92.575C83.9626 92.728 83.988 92.9076 83.9725 93.0681C83.5903 97.0185 84.7909 100.858 84.5675 104.798C84.5265 105.523 84.6285 106.203 84.912 106.892C85.3041 107.845 85.5843 108.919 85.3535 109.966C85.0145 111.505 85.363 112.931 85.6794 114.518C85.0996 115.06 84.7684 114.746 84.6209 114.017C84.5268 113.553 84.6394 113.022 84.2108 112.584C83.9993 112.157 83.8737 111.782 83.7087 111.296Z" fill="#F2810F"/>
<path d="M81.8631 77.0433C81.4525 77.2492 81.1319 77.4262 80.7238 77.6234C80.5991 77.2868 80.5278 76.8547 80.9955 76.819C81.9123 76.749 82.4858 76.0095 83.3202 75.582C83.2585 76.4381 82.505 76.6077 81.8631 77.0433Z" fill="#EC7F11"/>
<path d="M27.3466 110.852C27.4224 111.233 27.5251 111.696 26.9991 112.01C26.9056 111.621 26.8259 111.169 27.3466 110.852Z" fill="#FCC627"/>
<path d="M27.963 103.289C28.2347 103.46 28.3039 103.716 28.0618 104.074C27.7967 103.903 27.7261 103.646 27.963 103.289Z" fill="#FCC627"/>
<path d="M27.9176 104.76C27.9988 105.064 27.9937 105.404 27.5703 105.62C27.4675 105.305 27.4904 104.976 27.9176 104.76Z" fill="#FCC627"/>
<path d="M28.5223 97.5117C28.8497 97.7675 28.8938 98.0652 28.3956 98.3212C28.3646 98.093 28.4133 97.8395 28.5223 97.5117Z" fill="#FCC627"/>
</svg>
