<svg width="100" height="100" viewBox="0 0 100 100" fill="none" xmlns="http://www.w3.org/2000/svg">
<path d="M71.2287 66.8389C71.9132 67.1868 72.7109 66.8244 73.0104 66.0295L73.5874 64.4985C73.8869 63.7037 73.5752 62.777 72.8907 62.4291C72.2067 62.0812 71.409 62.4436 71.109 63.2385L70.532 64.7694C70.2325 65.5643 70.5447 66.4906 71.2287 66.8389Z" fill="#B080E2"/>
<path d="M72.3492 62.3002C72.53 62.3002 72.7145 62.3424 72.891 62.4321C73.575 62.78 73.8873 63.7068 73.5877 64.5016L73.0103 66.0326C72.7882 66.6227 72.2915 66.9744 71.7708 66.9744C71.5896 66.9744 71.4056 66.9316 71.229 66.842C70.5445 66.4941 70.2323 65.5673 70.5323 64.7725L71.1093 63.2415C71.3314 62.6518 71.8281 62.3002 72.3492 62.3002ZM72.3492 61.6875C71.6018 61.6875 70.9253 62.2011 70.6258 62.996L70.0488 64.5269C69.6333 65.6298 70.0675 66.9204 71.0173 67.4035C71.2572 67.5251 71.5103 67.587 71.7704 67.587C72.5178 67.587 73.1943 67.0734 73.4938 66.2786L74.0708 64.7476C74.4863 63.6443 74.052 62.3537 73.1023 61.8711C72.8628 61.749 72.6093 61.6875 72.3492 61.6875Z" fill="#8C46D4"/>
<path d="M68.4845 65.4706C69.1901 65.7552 69.961 65.3218 70.2061 64.5021L70.6784 62.9232C70.9235 62.1035 70.5502 61.2082 69.8446 60.9232C69.1385 60.6387 68.3681 61.0725 68.123 61.8922L67.6507 63.4706C67.4056 64.2908 67.7789 65.1857 68.4845 65.4706Z" fill="#B080E2"/>
<path d="M69.4005 60.8392C69.5479 60.8392 69.6977 60.8674 69.8446 60.927C70.5502 61.2115 70.9235 62.1068 70.6784 62.9266L70.2061 64.5054C70.0122 65.1547 69.4887 65.5613 68.9286 65.5613C68.7812 65.5613 68.6315 65.5331 68.4845 65.474C67.7789 65.1895 67.4056 64.2942 67.6507 63.4744L68.1225 61.8956C68.3169 61.2463 68.8404 60.8392 69.4005 60.8392ZM69.4005 60.2266C68.6009 60.2266 67.8869 60.8167 67.6244 61.6946L67.1521 63.273C66.9873 63.8242 67.0174 64.4172 67.2362 64.9421C67.4554 65.4669 67.8371 65.8613 68.3117 66.0529C68.5113 66.1331 68.7188 66.174 68.9286 66.174C69.7286 66.174 70.4423 65.5843 70.7047 64.7064L71.177 63.1275C71.5169 61.9904 70.9967 60.7435 70.0174 60.3482C69.8178 60.2674 69.6103 60.2266 69.4005 60.2266Z" fill="#8C46D4"/>
<path d="M65.5887 64.2287C66.2943 64.5132 67.0652 64.0794 67.3103 63.2597L67.7826 61.6808C68.0276 60.8611 67.6544 59.9658 66.9488 59.6813C66.2427 59.3963 65.4718 59.8301 65.2267 60.6498L64.7544 62.2287C64.5093 63.0484 64.883 63.9437 65.5887 64.2287Z" fill="#B080E2"/>
<path d="M66.5047 59.5892C66.6517 59.5892 66.8019 59.6174 66.9489 59.6766C67.6545 59.9615 68.0277 60.8568 67.7827 61.6766L67.3104 63.2554C67.1165 63.9043 66.5925 64.3113 66.0324 64.3113C65.8855 64.3113 65.7357 64.2831 65.5888 64.224C64.8831 63.9395 64.5094 63.0437 64.7545 62.2244L65.2268 60.6456C65.4212 59.9963 65.9446 59.5892 66.5047 59.5892ZM66.5047 58.9766C65.7047 58.9766 64.9911 59.5662 64.7287 60.4442L64.2564 62.023C64.0916 62.5742 64.1216 63.1667 64.3404 63.6921C64.5592 64.2169 64.9413 64.6113 65.4155 64.8029C65.6151 64.8831 65.8226 64.924 66.0324 64.924C66.8324 64.924 67.546 64.3343 67.8089 63.4564L68.2808 61.8775C68.4456 61.3263 68.416 60.7338 68.1967 60.209C67.978 59.6841 67.5963 59.2892 67.1216 59.0982C66.9221 59.0174 66.7146 58.9766 66.5047 58.9766Z" fill="#8C46D4"/>
<path d="M62.5367 63.2521C63.2423 63.5366 64.0132 63.1028 64.2583 62.2831L64.7306 60.7042C64.9756 59.8845 64.6019 58.9892 63.8963 58.7047C63.1907 58.4197 62.4198 58.8535 62.1747 59.6733L61.7024 61.2521C61.4573 62.0719 61.831 62.9672 62.5367 63.2521Z" fill="#B080E2"/>
<path d="M63.4525 58.6127C63.5995 58.6127 63.7492 58.6408 63.8962 58.7C64.6018 58.985 64.9755 59.8803 64.7305 60.7L64.2582 62.2784C64.0638 62.9277 63.5403 63.3347 62.9802 63.3347C62.8333 63.3347 62.683 63.3066 62.5366 63.2474C61.8305 62.9624 61.4572 62.0671 61.7023 61.2474L62.1746 59.669C62.3685 59.0197 62.8924 58.6127 63.4525 58.6127ZM63.4525 58C62.6525 58 61.9389 58.5897 61.6765 59.4681L61.2042 61.0465C60.8638 62.184 61.384 63.431 62.3633 63.8263C62.5628 63.9066 62.7704 63.9474 62.9802 63.9474C63.7802 63.9474 64.4938 63.3577 64.7563 62.4798L65.2286 60.9009C65.569 59.7634 65.0488 58.5164 64.0694 58.1211C63.8699 58.0408 63.6624 58 63.4525 58Z" fill="#8C46D4"/>
<path d="M59.4601 62.3689C60.1662 62.6538 60.9366 62.22 61.1821 61.4003L61.654 59.8214C61.899 59.0017 61.5258 58.1064 60.8202 57.8219C60.1145 57.5369 59.3436 57.9707 59.0986 58.7904L58.6263 60.3693C58.3812 61.189 58.7544 62.0843 59.4601 62.3689Z" fill="#B080E2"/>
<path d="M60.3761 57.7378C60.5235 57.7378 60.6732 57.7659 60.8202 57.8251C61.5258 58.1096 61.8991 59.0054 61.654 59.8251L61.1822 61.404C60.9878 62.0528 60.4643 62.4598 59.9042 62.4598C59.7568 62.4598 59.607 62.4317 59.4601 62.3725C58.7545 62.0875 58.3812 61.1922 58.6263 60.3725L59.0986 58.7936C59.2925 58.1448 59.816 57.7378 60.3761 57.7378ZM60.3761 57.125C59.5765 57.125 58.8624 57.7148 58.6 58.5927L58.1277 60.1716C57.9629 60.7227 57.993 61.3152 58.2117 61.8401C58.431 62.3655 58.8127 62.7598 59.2873 62.9514C59.4869 63.0317 59.6944 63.0725 59.9042 63.0725C60.7038 63.0725 61.4178 62.4828 61.6803 61.6049L62.1526 60.026C62.3174 59.4749 62.2873 58.8824 62.0685 58.357C61.8493 57.8321 61.4676 57.4378 60.9934 57.2463C60.7934 57.1658 60.5859 57.125 60.3761 57.125Z" fill="#8C46D4"/>
<path d="M56.4564 61.3922C57.162 61.6772 57.9329 61.2434 58.178 60.4237L58.6503 58.8448C58.8954 58.0251 58.5216 57.13 57.816 56.8452C57.1104 56.5606 56.3395 56.9941 56.0944 57.8138L55.6221 59.3927C55.377 60.2124 55.7503 61.1077 56.4564 61.3922Z" fill="#B080E2"/>
<path d="M57.3723 56.7533C57.5192 56.7533 57.669 56.7815 57.8159 56.8407C58.5216 57.1255 58.8953 58.021 58.6502 58.8402L58.1779 60.4191C57.9835 61.0684 57.4601 61.4754 56.9 61.4754C56.753 61.4754 56.6032 61.4472 56.4563 61.3881C55.7502 61.1031 55.377 60.2078 55.622 59.3881L56.0943 57.8097C56.2882 57.1603 56.8122 56.7533 57.3723 56.7533ZM57.3723 56.1406C56.5723 56.1406 55.8586 56.7305 55.5962 57.6087L55.1239 59.1871C54.784 60.3247 55.3037 61.5717 56.2831 61.967C56.4826 62.0472 56.6906 62.0881 56.9004 62.0881C57.7 62.0881 58.4136 61.4984 58.676 60.6205L59.1483 59.0416C59.4887 57.9041 58.9685 56.6572 57.9892 56.262C57.7896 56.1814 57.5821 56.1406 57.3723 56.1406Z" fill="#8C46D4"/>
<path d="M53.5093 60.3536C54.215 60.6381 54.9858 60.2043 55.2309 59.3845L55.7032 57.8057C55.9483 56.9862 55.5746 56.0908 54.8689 55.8062C54.1633 55.5214 53.3924 55.9552 53.1473 56.7749L52.675 58.3536C52.43 59.1733 52.8037 60.0686 53.5093 60.3536Z" fill="#B080E2"/>
<path d="M54.4254 55.7143C54.5724 55.7143 54.7221 55.7425 54.8691 55.8017C55.5747 56.0864 55.9484 56.9818 55.7034 57.8015L55.2311 59.3804C55.0367 60.0292 54.5132 60.4363 53.9531 60.4363C53.8062 60.4363 53.6559 60.4081 53.5095 60.3489C52.8038 60.064 52.4301 59.1687 52.6752 58.3494L53.1475 56.7704C53.3419 56.1213 53.8653 55.7143 54.4254 55.7143ZM54.4254 55.1016C53.6254 55.1016 52.9118 55.6914 52.6494 56.5694L52.1771 58.148C51.8367 59.2856 52.3569 60.5325 53.3362 60.9278C53.5358 61.0081 53.7433 61.0489 53.9531 61.0489C54.7531 61.0489 55.4667 60.4593 55.7292 59.5813L56.2015 58.0025C56.3663 57.4513 56.3367 56.8588 56.1174 56.3339C55.8987 55.8088 55.5165 55.4143 55.0423 55.223C54.8428 55.1425 54.6353 55.1016 54.4254 55.1016Z" fill="#8C46D4"/>
<path d="M50.5253 58.8809C51.2159 59.2123 52.0065 58.8306 52.2919 58.0288L52.8412 56.4839C53.1267 55.682 52.798 54.7633 52.1079 54.4319C51.4173 54.1007 50.6262 54.4822 50.3407 55.2842L49.7915 56.8289C49.5065 57.6306 49.8346 58.5494 50.5253 58.8809Z" fill="#B080E2"/>
<path d="M51.5921 54.3158C51.764 54.3158 51.9391 54.3542 52.1081 54.4352C52.7982 54.7666 53.1269 55.6854 52.8414 56.4873L52.2921 58.0319C52.0766 58.638 51.5729 59.0037 51.0414 59.0037C50.8691 59.0037 50.6945 58.9652 50.5255 58.8845C49.8348 58.553 49.5067 57.6342 49.7917 56.8322L50.3409 55.2875C50.5564 54.6817 51.0607 54.3158 51.5921 54.3158ZM51.5921 53.7031C50.8278 53.7031 50.1452 54.2332 49.8536 55.0536L49.3043 56.5983C48.9086 57.7112 49.3658 58.9906 50.324 59.4507C50.5536 59.5605 50.7949 59.6164 51.0414 59.6164C51.8057 59.6164 52.4879 59.0864 52.7799 58.2662L53.3292 56.7212C53.5208 56.1822 53.5203 55.5886 53.3278 55.0498C53.1353 54.5111 52.7733 54.0918 52.3095 53.8689C52.0799 53.7589 51.8386 53.7031 51.5921 53.7031Z" fill="#8C46D4"/>
<path d="M47.5071 57.3302C48.1832 57.7002 49.0132 57.3044 49.3616 56.446L50.0329 54.7925C50.3813 53.9344 50.1156 52.9384 49.44 52.5684C48.7644 52.1984 47.9339 52.5941 47.5855 53.4526L46.9146 55.106C46.5662 55.9644 46.8315 56.96 47.5071 57.3302Z" fill="#B080E2"/>
<path d="M48.9047 52.4253C49.0859 52.4253 49.2681 52.4698 49.4399 52.5639C50.1155 52.934 50.3812 53.9299 50.0329 54.7881L49.3615 56.4415C49.1019 57.0816 48.5742 57.4645 48.0423 57.4645C47.8611 57.4645 47.6789 57.4199 47.5071 57.3256C46.8314 56.9556 46.5661 55.96 46.9145 55.1015L47.5855 53.4482C47.8456 52.808 48.3728 52.4253 48.9047 52.4253ZM48.9047 51.8125C48.1521 51.8125 47.447 52.352 47.1085 53.187L46.4373 54.8402C45.9655 56.0027 46.3445 57.3664 47.2822 57.88C47.5211 58.0105 47.777 58.0772 48.0423 58.0772C48.7949 58.0772 49.5 57.5378 49.8385 56.7028L50.5099 55.0494C50.7348 54.4956 50.7751 53.8785 50.6244 53.3118C50.4681 52.7254 50.1273 52.263 49.6648 52.0098C49.4258 51.8788 49.17 51.8125 48.9047 51.8125Z" fill="#8C46D4"/>
<path d="M44.7445 55.4395C45.3896 55.8771 46.2544 55.5525 46.6762 54.714L47.4882 53.0993C47.9103 52.2608 47.729 51.2263 47.084 50.7885C46.439 50.3509 45.5741 50.6755 45.1525 51.5141L44.3401 53.1287C43.9185 53.9672 44.0995 55.0017 44.7445 55.4395Z" fill="#B080E2"/>
<path d="M46.4579 50.5971C46.6744 50.5971 46.8892 50.6598 47.0839 50.7919C47.729 51.2296 47.9102 52.2641 47.4881 53.1026L46.6762 54.7173C46.3817 55.3027 45.8714 55.6376 45.3706 55.6376C45.154 55.6376 44.9392 55.5749 44.7445 55.4428C44.0995 55.005 43.9185 53.9705 44.3401 53.1321L45.1524 51.5175C45.4468 50.9321 45.9571 50.5971 46.4579 50.5971ZM46.4579 49.9844C45.7513 49.9844 45.0765 50.4534 44.6969 51.2085L43.8845 52.8229C43.317 53.9519 43.5834 55.3644 44.4783 55.9718C44.7468 56.154 45.0553 56.2503 45.3706 56.2503C46.0772 56.2503 46.7519 55.7814 47.1318 55.0264L47.944 53.4117C48.2135 52.8759 48.3055 52.2592 48.2032 51.675C48.0966 51.0653 47.7938 50.5638 47.3501 50.2629C47.0816 50.0807 46.7731 49.9844 46.4579 49.9844Z" fill="#8C46D4"/>
<path d="M42.1518 53.8522C42.8017 54.2801 43.7005 53.865 44.1594 52.9248L45.0431 51.1143C45.5021 50.1743 45.3472 49.0653 44.6973 48.6374C44.0475 48.2093 43.1486 48.6244 42.6897 49.5645L41.8058 51.3751C41.347 52.3153 41.5019 53.4241 42.1518 53.8522Z" fill="#B080E2"/>
<path d="M44.1362 48.4642C44.3323 48.4642 44.5238 48.5184 44.6975 48.6328C45.3473 49.0608 45.5023 50.1698 45.0433 51.1098L44.1595 52.9203C43.8233 53.6092 43.2509 54.0162 42.7132 54.0162C42.5171 54.0162 42.3256 53.962 42.152 53.8477C41.502 53.4196 41.3472 52.3108 41.806 51.3706L42.6899 49.56C43.0262 48.8712 43.5985 48.4642 44.1362 48.4642ZM44.1362 47.8516C43.3844 47.8516 42.6544 48.3904 42.231 49.2578L41.3471 51.0684C40.7457 52.3008 40.99 53.7867 41.8918 54.3807C42.142 54.5454 42.4184 54.6289 42.7132 54.6289C43.4651 54.6289 44.1951 54.09 44.6185 53.2225L45.5023 51.412C45.7832 50.8365 45.8915 50.1864 45.807 49.5812C45.7169 48.9359 45.4073 48.396 44.9578 48.0999C44.7076 47.9351 44.4311 47.8516 44.1362 47.8516Z" fill="#8C46D4"/>
<path d="M39.3795 51.8238C39.9964 52.3131 40.9588 51.924 41.5286 50.9543L42.6263 49.087C43.1962 48.1177 43.158 46.9349 42.541 46.4457C41.924 45.9564 40.9617 46.3457 40.3919 47.3152L39.2942 49.1825C38.7244 50.1519 38.7625 51.3345 39.3795 51.8238Z" fill="#B080E2"/>
<path d="M41.9281 46.2377C42.1496 46.2377 42.3602 46.3057 42.5409 46.449C43.1579 46.9383 43.1961 48.1211 42.6261 49.0904L41.5285 50.9577C41.1256 51.6432 40.5267 52.0385 39.9923 52.0385C39.7707 52.0385 39.5601 51.9705 39.3794 51.8272C38.7624 51.3378 38.7243 50.1553 39.2941 49.1858L40.3918 47.3185C40.7947 46.6331 41.3936 46.2377 41.9281 46.2377ZM41.9281 45.625C41.2005 45.625 40.4448 46.1416 39.9561 46.9732L38.8584 48.8404C38.113 50.1085 38.2112 51.6427 39.0819 52.3332C39.3442 52.5413 39.6591 52.6513 39.9923 52.6513C40.7199 52.6513 41.4755 52.1347 41.9642 51.3031L43.0618 49.4358C43.4006 48.8596 43.5761 48.1958 43.5558 47.5667C43.5336 46.8788 43.2721 46.2869 42.8384 45.943C42.576 45.735 42.2613 45.625 41.9281 45.625Z" fill="#8C46D4"/>
<path d="M37.2496 49.5827C37.9034 50.0025 38.8376 49.4939 39.3361 48.4463L40.2963 46.4289C40.795 45.3816 40.6689 44.1921 40.0152 43.7723C39.3614 43.3523 38.4273 43.8611 37.9287 44.9087L36.9684 46.9262C36.47 47.9734 36.596 49.163 37.2496 49.5827Z" fill="#B080E2"/>
<path d="M39.5104 43.6205C39.688 43.6205 39.8596 43.6678 40.0151 43.7678C40.6688 44.1876 40.7949 45.377 40.2962 46.4244L39.336 48.4419C38.9561 49.2402 38.3233 49.7255 37.7542 49.7255C37.5766 49.7255 37.405 49.6781 37.2496 49.5782C36.5959 49.1584 36.4699 47.9689 36.9683 46.9216L37.9286 44.9042C38.3085 44.1059 38.9413 43.6205 39.5104 43.6205ZM39.5104 43.0078C38.7316 43.0078 37.9295 43.6358 37.4668 44.6078L36.5066 46.6252C35.8574 47.9893 36.0716 49.5219 36.9942 50.1144C37.2255 50.2629 37.4811 50.3381 37.7542 50.3381C38.533 50.3381 39.3351 49.7101 39.7976 48.7381L40.7579 46.7207C41.0524 46.1021 41.1779 45.4149 41.1113 44.7859C41.0381 44.0943 40.7316 43.5277 40.2704 43.2315C40.0392 43.0831 39.7835 43.0078 39.5104 43.0078Z" fill="#8C46D4"/>
<path d="M19.7135 25.2734H31.7C32.5184 25.2734 33.2748 25.7807 33.6842 26.604L39.6773 38.6609C40.0867 39.4843 40.0867 40.4986 39.6773 41.322L33.6842 53.3788C33.2748 54.2023 32.5184 54.7094 31.7 54.7094H19.7135C18.8951 54.7094 18.1386 54.2023 17.7295 53.3788L11.736 41.322C11.3269 40.4986 11.3269 39.4842 11.736 38.6609L17.7294 26.604C18.1385 25.7806 18.895 25.2734 19.7135 25.2734Z" fill="#FF9A24"/>
<path d="M25.2773 49.4944C29.5963 49.4944 33.0975 45.4277 33.0975 40.4113C33.0975 35.3948 29.5963 31.3281 25.2773 31.3281C20.9583 31.3281 17.457 35.3948 17.457 40.4113C17.457 45.4277 20.9583 49.4944 25.2773 49.4944Z" fill="url(#paint0_radial_119_397)"/>
<path opacity="0.3" d="M19.1836 27.6813C19.9207 27.4252 20.6578 27.2617 21.3949 27.1193C22.132 26.9796 22.8691 26.8817 23.6063 26.8046C24.3434 26.7304 25.0804 26.6847 25.8176 26.661C26.5547 26.634 27.2918 26.6472 28.0289 26.734C28.3974 26.7768 28.766 26.8307 29.1346 26.8971L29.7089 27.0001C29.9561 27.0422 30.1946 27.125 30.4151 27.2413C30.8566 27.4752 31.2251 27.8394 31.4863 28.2724C31.5504 28.3817 31.6119 28.4917 31.6636 28.6075C31.7209 28.7311 31.75 28.8184 31.791 28.9184C31.8701 29.1125 31.9504 29.3059 32.035 29.4963C32.2033 29.8778 32.3813 30.2527 32.572 30.6192C32.6655 30.8036 32.761 30.9867 32.8603 31.1672C32.9568 31.3495 33.0587 31.5284 33.1606 31.7071C33.5658 32.4238 34.0184 33.1086 34.4744 33.7909C34.7035 34.1315 34.9359 34.4696 35.1615 34.8124C35.3896 35.1536 35.6158 35.496 35.8326 35.8448C36.2705 36.5394 36.6717 37.2588 37.0788 37.9743L37.3837 38.5111L37.4599 38.6453L37.4981 38.7124C37.5106 38.7345 37.5219 38.7535 37.5426 38.7947C37.6169 38.9367 37.6844 39.0846 37.7407 39.2387C37.9685 39.8536 38.0481 40.5514 37.9497 41.2235C37.9019 41.5592 37.8144 41.8898 37.6845 42.1968L37.634 42.3107L37.5884 42.4099L37.5217 42.5505L37.3859 42.8302C37.2045 43.2028 37.0175 43.5717 36.8252 43.937C36.4405 44.6676 36.0384 45.3863 35.6211 46.0948C35.2072 46.8056 34.7779 47.5061 34.3352 48.1975C33.8927 48.889 33.4361 49.571 32.9589 50.239C32.4799 50.9059 31.9897 51.5652 31.4502 52.1912L31.2583 52.0616C31.4597 51.2073 31.7104 50.3863 31.9723 49.5728C32.2361 48.7606 32.5204 47.9623 32.8188 47.1735C33.1171 46.3846 33.4287 45.6047 33.7557 44.8352C34.0792 44.0633 34.4181 43.3018 34.7743 42.5521C34.9524 42.1772 35.1359 41.806 35.3249 41.4384L35.467 41.163L35.5753 40.9573C35.6125 40.8828 35.6457 40.8041 35.6654 40.719C35.7046 40.5498 35.7132 40.3624 35.6714 40.1803C35.6613 40.1349 35.6482 40.0897 35.6329 40.0447C35.6323 40.0385 35.6202 40.0114 35.6096 39.9873L35.5782 39.9156L35.5156 39.7723L35.2649 39.1988C34.931 38.434 34.5912 37.6731 34.2882 36.8874C34.1346 36.496 33.9904 36.0982 33.8479 35.6992C33.703 35.3019 33.565 34.8999 33.4237 34.5002C33.1388 33.7024 32.8504 32.9067 32.5147 32.1431C32.4314 31.9517 32.348 31.7605 32.2594 31.5728C32.1735 31.3832 32.0837 31.1963 31.9919 31.0106C31.8121 30.6369 31.6197 30.2717 31.4175 29.913C31.3169 29.7334 31.212 29.5567 31.1059 29.3808C30.9895 29.1891 30.9105 29.071 30.7977 28.9608C30.58 28.7423 30.3079 28.6194 30.046 28.5976C29.9151 28.5852 29.7869 28.5958 29.6659 28.6249L29.6183 28.6354L29.5492 28.648L29.411 28.673L29.1346 28.7232C28.766 28.7896 28.3975 28.8435 28.0289 28.8863C27.2919 28.9731 26.5547 28.9863 25.8176 28.9593C25.0805 28.9355 24.3434 28.8899 23.6063 28.8157C22.8692 28.7386 22.1321 28.6407 21.395 28.501C20.6579 28.3586 19.9207 28.1951 19.1836 27.9389L19.1836 27.6813Z" fill="white"/>
<path d="M29.4327 41.0202C29.6064 38.2411 27.8075 35.8246 25.4148 35.6228C23.0221 35.4211 20.9416 37.5105 20.7679 40.2897C20.5943 43.0688 22.3931 45.4853 24.7858 45.687C27.1785 45.8888 29.259 43.7994 29.4327 41.0202Z" fill="#EC3238"/>
<path d="M24.7265 44.4448C26.8896 44.4448 28.7288 42.8571 29.4412 40.6328C29.4412 40.6419 29.4423 40.6506 29.4423 40.6598C29.4423 43.4462 27.4976 45.7051 25.0985 45.7051C23.3126 45.7051 21.7799 44.4523 21.1123 42.663C22.0276 43.7602 23.3072 44.4448 24.7265 44.4448Z" fill="#E3E3E3"/>
<path d="M21.8895 38.8954C22.1459 39.3726 22.9945 39.295 23.7848 38.722C24.575 38.149 25.0079 37.2977 24.7514 36.8205C24.495 36.3433 23.6464 36.421 22.8562 36.994C22.0659 37.5669 21.6331 38.4182 21.8895 38.8954Z" fill="#969696"/>
<path d="M19.1785 27.002C19.1087 26.9508 19.0582 26.9103 19.0015 26.8643C18.9455 26.8199 18.8926 26.774 18.8388 26.7286C18.7324 26.6366 18.6271 26.5447 18.5254 26.4474C18.3196 26.2572 18.1239 26.052 17.9324 25.8414C17.554 25.4138 17.2023 24.9427 16.9154 24.4026C16.8802 24.3344 16.8423 24.2696 16.8099 24.1989L16.7156 23.9842C16.649 23.8451 16.6015 23.6895 16.5507 23.5385L16.5131 23.4251C16.5023 23.3861 16.494 23.3454 16.4846 23.3058L16.4306 23.0667C16.4105 22.9833 16.4014 22.9168 16.3896 22.8461L16.3549 22.6346C16.262 22.0685 16.1731 21.4887 16.1225 20.9019C16.0148 19.7319 16.0614 18.5165 16.372 17.3924C16.6767 16.2663 17.2443 15.2682 17.9497 14.4688C17.3186 15.3501 16.8608 16.3882 16.6695 17.4837C16.4729 18.5798 16.5316 19.7058 16.7308 20.7929C16.8279 21.3389 16.9608 21.8766 17.1023 22.4226L17.1555 22.6283C17.1734 22.6966 17.1908 22.77 17.2106 22.8222L17.2667 22.9932C17.2762 23.0216 17.2841 23.0502 17.2947 23.0783L17.3322 23.1611C17.3824 23.2712 17.4255 23.3829 17.4901 23.4872L17.5785 23.6459C17.6087 23.6984 17.6456 23.7479 17.6785 23.799C17.9483 24.2051 18.2814 24.5704 18.6417 24.8998C18.8245 25.0619 19.0105 25.2201 19.2052 25.364C19.301 25.4379 19.4001 25.5066 19.4982 25.5744C19.5475 25.6074 19.5968 25.6416 19.6459 25.6721C19.6932 25.7028 19.7479 25.7368 19.7848 25.7575L19.1785 27.002Z" fill="#FF9A24"/>
<path d="M18.5028 16.4922C18.2857 16.6294 18.078 16.7843 17.877 16.9476C17.6765 17.1116 17.483 17.2861 17.3052 17.477C17.1285 17.6678 16.9585 17.8674 16.8248 18.0897C16.69 18.3097 16.5831 18.5458 16.5334 18.784L16.1416 18.6423C16.247 18.334 16.4103 18.0806 16.5889 17.8602C16.7676 17.638 16.9714 17.4581 17.1779 17.2901C17.3852 17.1228 17.6026 16.9779 17.8239 16.8456C18.0457 16.7142 18.2713 16.5934 18.5028 16.4922Z" fill="#FF9A24"/>
<path d="M17.7389 26.7384C17.7384 26.7437 17.7382 26.7491 17.7382 26.7545C17.7382 26.7614 17.7385 26.7517 17.7385 26.7517L17.7398 26.7366C17.7412 26.7276 17.7399 26.7059 17.7404 26.6911C17.7419 26.6605 17.738 26.6193 17.7363 26.5813C17.7356 26.5439 17.7297 26.5016 17.7251 26.4602C17.7198 26.4184 17.7177 26.3778 17.7089 26.334C17.6819 26.1624 17.6445 25.9844 17.5949 25.8062C17.5489 25.6273 17.4868 25.4492 17.4262 25.2701C17.3944 25.1809 17.357 25.0928 17.3227 25.0038C17.288 24.915 17.254 24.8257 17.2124 24.7389C16.9032 24.0351 16.5126 23.3589 16.0854 22.7099L15.7555 22.2291C15.6444 22.0694 15.5247 21.9169 15.4096 21.7602L14.6901 20.8015C14.2173 20.1423 13.7662 19.4596 13.3635 18.7358C12.9612 18.0125 12.6083 17.2459 12.338 16.4404C12.2047 16.0368 12.0938 15.624 12.0004 15.211C11.9527 15.0047 11.9114 14.7981 11.8671 14.5965C11.846 14.494 11.8214 14.3977 11.7987 14.298L11.7565 14.1681L11.7356 14.1031C11.7273 14.0819 11.7159 14.0619 11.7063 14.0412C11.5524 13.7071 11.2949 13.4227 11.0045 13.2007C10.7125 12.9777 10.3842 12.8117 10.0432 12.6949C9.70162 12.5789 9.34613 12.5091 8.98669 12.4892C8.62716 12.4739 8.26561 12.5054 7.90796 12.5774C8.25998 12.4763 8.62162 12.4143 8.9874 12.3999C9.35308 12.3901 9.72087 12.4309 10.0816 12.5218C10.4419 12.6138 10.7959 12.758 11.1243 12.9716C11.4504 13.1859 11.7581 13.4695 11.9732 13.8634C11.9866 13.8879 12.0014 13.9113 12.0135 13.937L12.0459 14.0171C12.067 14.0705 12.0898 14.1253 12.1089 14.1783C12.139 14.2799 12.1721 14.3833 12.1994 14.4837C12.2572 14.6861 12.3102 14.8861 12.3688 15.0823C12.4838 15.4757 12.6131 15.8583 12.7626 16.2303C13.0654 16.9722 13.4432 17.6699 13.8689 18.328C14.2948 18.9863 14.7673 19.6054 15.2603 20.2017L16.0266 21.0875C16.1566 21.2409 16.2906 21.3895 16.4175 21.5474L16.7957 22.025C17.2897 22.6752 17.7558 23.3658 18.1544 24.1325C18.2065 24.2262 18.2526 24.3258 18.2991 24.425C18.3452 24.5247 18.3938 24.6222 18.4377 24.7242C18.5233 24.9303 18.6096 25.1364 18.6817 25.356C18.7568 25.5728 18.8211 25.8001 18.8739 26.0389C18.8888 26.0969 18.8981 26.161 18.9096 26.2226C18.9206 26.2848 18.9322 26.3459 18.9393 26.4135C18.9471 26.4802 18.9563 26.5433 18.9601 26.6181C18.9621 26.6558 18.9654 26.6866 18.9659 26.7302L18.9665 26.7941C18.9664 26.8068 18.967 26.8107 18.9661 26.8308L18.9632 26.8863L17.7389 26.7384Z" fill="#FF9A24"/>
<path d="M10.7803 10.6094C11.1645 10.8839 11.4822 11.2742 11.7487 11.7005C12.0145 12.1301 12.2187 12.6102 12.3744 13.1106L12.4793 13.4911C12.5138 13.6183 12.5333 13.7496 12.561 13.8792C12.6207 14.138 12.6424 14.4033 12.6775 14.6677C12.6983 14.7999 12.6974 14.9332 12.7068 15.0663L12.7283 15.4665C12.728 15.7328 12.7223 15.9997 12.7192 16.2675L12.3106 16.2249L12.3693 15.4619L12.3737 15.0793C12.3729 14.9518 12.3825 14.8229 12.3708 14.6963C12.3535 14.4424 12.35 14.1848 12.3088 13.9337C12.2905 13.8079 12.2803 13.6794 12.2552 13.5551L12.1785 13.1815C12.0606 12.6886 11.8945 12.2075 11.6631 11.7664C11.431 11.3285 11.1448 10.9166 10.7803 10.6094Z" fill="#FF9A24"/>
<path d="M8.34009 14.767C8.58422 14.5334 8.83708 14.3106 9.10398 14.1092C9.37093 13.9083 9.6515 13.7272 9.95159 13.5878C10.251 13.4496 10.5732 13.3506 10.9108 13.3516C11.2468 13.3495 11.5962 13.4705 11.8788 13.7071L11.6912 13.9905C11.4731 13.7756 11.1968 13.6467 10.901 13.6194C10.6052 13.59 10.298 13.6509 10.0029 13.7563C9.70685 13.8624 9.41995 14.0129 9.14328 14.1861C8.86638 14.3596 8.59967 14.5571 8.34009 14.767Z" fill="#FF9A24"/>
<path d="M18.3119 27.3648C18.2923 27.3206 18.2585 27.2531 18.2294 27.1959L18.1352 27.0165C18.071 26.8966 18.0028 26.7781 17.934 26.66C17.7949 26.4248 17.6478 26.1946 17.4935 25.9716C17.1851 25.5252 16.8466 25.1078 16.4776 24.7369C16.2938 24.55 16.1004 24.3789 15.9002 24.2212C15.7003 24.0626 15.4919 23.9209 15.2754 23.8018C15.0595 23.6812 14.8364 23.5782 14.6063 23.5069L14.5203 23.478L14.4331 23.4561C14.3748 23.4425 14.3168 23.4238 14.258 23.414L14.0811 23.3834L13.8864 23.354C13.3584 23.2849 12.8329 23.174 12.3165 23.0239C11.8003 22.8729 11.2922 22.6777 10.8087 22.4172C10.3259 22.1572 9.86783 21.8299 9.46938 21.4242C9.07079 21.0199 8.7353 20.5362 8.49365 20C8.7799 20.5063 9.14835 20.939 9.56497 21.2842C9.98173 21.6305 10.4445 21.8915 10.9249 22.0862C11.4058 22.2811 11.9044 22.411 12.4076 22.4984C12.9112 22.5846 13.4197 22.633 13.9301 22.641L14.1243 22.6479L14.3359 22.6599C14.4066 22.6638 14.4761 22.677 14.5465 22.6854L14.6519 22.6998L14.756 22.7216C15.0352 22.7751 15.3075 22.8654 15.5714 22.9771C15.8364 23.0873 16.0916 23.2237 16.3363 23.3789C16.5814 23.5331 16.8186 23.7033 17.0439 23.89C17.4964 24.261 17.9126 24.6828 18.2966 25.1381C18.4889 25.3657 18.6735 25.6017 18.8508 25.8461C18.939 25.969 19.0264 26.0926 19.1111 26.2206L19.2374 26.4149C19.2805 26.4834 19.3178 26.5424 19.3662 26.6269L18.3119 27.3648Z" fill="#FF9A24"/>
<path d="M10.2363 19.8203C10.3422 20.088 10.4628 20.3469 10.5902 20.5996C10.7186 20.8514 10.8543 21.0977 11.0046 21.329C11.1554 21.5589 11.3118 21.7839 11.4896 21.9758C11.6658 22.1682 11.8562 22.3371 12.0576 22.45L11.8571 22.8658C11.6192 22.6826 11.4291 22.4552 11.2621 22.2165C11.0941 21.9779 10.9593 21.7184 10.8321 21.4579C10.7058 21.1964 10.5978 20.926 10.4984 20.6529C10.4002 20.3793 10.3104 20.1024 10.2363 19.8203Z" fill="#FF9A24"/>
<path d="M8.18677 22.75C8.57973 22.9199 8.98395 23.0501 9.39146 23.1528C9.7994 23.253 10.212 23.3241 10.6245 23.3483C11.0366 23.3736 11.4493 23.3523 11.8463 23.2648C12.0441 23.2188 12.2382 23.1587 12.4238 23.0774C12.6085 22.9939 12.7844 22.8917 12.9486 22.7713L13.1567 23.1821C12.957 23.3037 12.7489 23.4001 12.5367 23.4733C12.3239 23.5441 12.1076 23.5892 11.8916 23.6183C11.4587 23.6716 11.0273 23.6516 10.6055 23.5855C10.1832 23.5204 9.76991 23.4081 9.36588 23.2681C8.9625 23.1258 8.56677 22.9567 8.18677 22.75Z" fill="#FF9A24"/>
<path d="M20.3383 53.9461C20.3082 53.9784 20.2644 54.0294 20.2268 54.0747C20.1875 54.1206 20.1489 54.17 20.11 54.2183C20.0332 54.3163 19.9557 54.4156 19.8825 54.5187C19.7324 54.7223 19.5942 54.9365 19.46 55.1534C19.1981 55.5906 18.9711 56.0528 18.815 56.5326C18.7963 56.5925 18.7734 56.6524 18.7576 56.7128L18.7129 56.8946C18.6774 57.0163 18.6641 57.1377 18.6436 57.26L18.6287 57.3522C18.6256 57.3822 18.6252 57.4123 18.6232 57.4428L18.6124 57.6254C18.6066 57.6817 18.6085 57.7583 18.6085 57.8296L18.6091 58.0442C18.6107 58.6146 18.6185 59.1738 18.6626 59.7292C18.7448 60.8362 18.9712 61.9334 19.4343 62.9155C19.892 63.8986 20.5905 64.7367 21.4153 65.3658C20.54 64.84 19.7466 64.0775 19.1726 63.1033C18.5934 62.1334 18.244 60.9864 18.0534 59.8306C17.9545 59.2522 17.8942 58.6677 17.841 58.0944L17.8212 57.8803C17.8147 57.809 17.8067 57.7423 17.8051 57.6554L17.7967 57.4085C17.7958 57.3677 17.7935 57.3259 17.794 57.285L17.8015 57.1636C17.8123 57.002 17.8187 56.8371 17.8474 56.6815L17.8837 56.4442C17.897 56.3656 17.917 56.2907 17.9336 56.2136C18.0724 55.5998 18.2907 55.03 18.5453 54.4929C18.6757 54.2267 18.8114 53.9642 18.9606 53.7125C19.0335 53.585 19.1111 53.4615 19.1898 53.3374C19.2299 53.2758 19.269 53.214 19.3114 53.1527C19.3541 53.0894 19.3923 53.0336 19.4461 52.9609L20.3383 53.9461Z" fill="#FF9A24"/>
<path d="M21.4362 63.2368C21.1893 63.218 20.9432 63.179 20.6982 63.1283C20.4532 63.0767 20.2089 63.0119 19.9686 62.9217C19.7289 62.8311 19.4887 62.7278 19.2621 62.5757C19.036 62.4255 18.8161 62.2386 18.6379 61.979L18.9772 61.7109C19.0845 61.9222 19.246 62.1114 19.4301 62.2767C19.6139 62.4438 19.8265 62.5771 20.0435 62.7001C20.2615 62.8222 20.4904 62.9241 20.7233 63.0128C20.9566 63.1011 21.1942 63.179 21.4362 63.2368Z" fill="#FF9A24"/>
<path d="M19.2687 53.1406L19.2854 53.1927C19.2912 53.2116 19.2916 53.2155 19.2949 53.2277L19.3104 53.289C19.3208 53.3309 19.3254 53.3615 19.3329 53.3983C19.3481 53.4711 19.3552 53.5345 19.3644 53.601C19.3746 53.668 19.3788 53.7304 19.3839 53.7936C19.3883 53.8564 19.3955 53.921 19.3958 53.9814C19.4052 54.2278 19.4007 54.4669 19.3834 54.6997C19.3694 54.9342 19.3387 55.1606 19.3085 55.3867C19.292 55.4991 19.2701 55.6088 19.251 55.7198C19.2313 55.8305 19.2123 55.9414 19.1859 56.0486C18.997 56.917 18.7244 57.7352 18.4149 58.5244L18.173 59.1094C18.0913 59.3033 18.0003 59.4906 17.9145 59.6817L17.4037 60.7883C17.0817 61.5258 16.785 62.2779 16.5428 63.0517C16.3007 63.8254 16.1143 64.6207 16.0108 65.4329C15.9611 65.839 15.9334 66.2488 15.9221 66.6643C15.9153 66.8718 15.9148 67.0808 15.9103 67.2939C15.9094 67.3991 15.9036 67.5094 15.9003 67.6169C15.8954 67.6742 15.8873 67.7343 15.8805 67.7925L15.8696 67.8798C15.8645 67.9085 15.8561 67.9362 15.8495 67.9639C15.7425 68.4136 15.5195 68.7892 15.2613 69.1047C15.0008 69.4202 14.6982 69.6779 14.3766 69.8878C14.0544 70.0967 13.7128 70.2606 13.3606 70.3747C13.0071 70.485 12.6456 70.5479 12.2834 70.5704C12.6436 70.5183 12.9974 70.4258 13.3375 70.2897C13.6763 70.1488 13.9989 69.9615 14.2965 69.7352C14.5934 69.508 14.8658 69.238 15.0892 68.9258C15.3112 68.6155 15.4862 68.2559 15.5496 67.8845C15.5535 67.861 15.5595 67.8385 15.562 67.815L15.5657 67.746L15.5734 67.6075C15.5703 67.5042 15.5696 67.4038 15.5641 67.2986C15.5558 67.0911 15.5435 66.8794 15.5374 66.6657C15.5231 66.239 15.5256 65.8066 15.5518 65.3756C15.6083 64.5136 15.7535 63.6606 15.957 62.8329C16.1605 62.0038 16.4208 61.1981 16.7077 60.4075L17.1554 59.247C17.2262 59.0582 17.3024 58.8718 17.3686 58.6812L17.5636 58.1099C17.8094 57.3446 18.0133 56.5653 18.1326 55.7874C18.1505 55.6903 18.1607 55.5933 18.1716 55.4966C18.1821 55.3999 18.1957 55.303 18.2038 55.2069C18.2169 55.015 18.2316 54.8235 18.2306 54.6369C18.2334 54.4497 18.2245 54.2668 18.2073 54.0935C18.2048 54.0486 18.1965 54.0091 18.1911 53.9673C18.1852 53.9261 18.1802 53.8837 18.1715 53.8477C18.1636 53.8108 18.157 53.77 18.1479 53.7413C18.1437 53.7273 18.1395 53.7061 18.1359 53.6979L18.131 53.684C18.131 53.684 18.1283 53.6748 18.1299 53.6814C18.1313 53.6865 18.1328 53.6916 18.1347 53.6965L19.2687 53.1406Z" fill="#FF9A24"/>
<path d="M15.5266 71.4904C15.7983 71.0731 15.9686 70.5824 16.0809 70.0848C16.1915 69.5848 16.2297 69.0679 16.2188 68.5566L16.1984 68.1735C16.1912 68.0458 16.1687 67.9195 16.1547 67.7932C16.1311 67.5388 16.0699 67.2914 16.0227 67.0425C16.0021 66.9176 15.9605 66.7975 15.9293 66.6754L15.8291 66.3106L15.5815 65.6007L15.9618 65.4219C16.032 65.6768 16.1043 65.9303 16.1714 66.1848L16.2513 66.5749C16.2756 66.7054 16.3099 66.8327 16.3232 66.966C16.356 67.2308 16.4018 67.4918 16.4095 67.7599C16.4156 67.8932 16.4299 68.0252 16.4289 68.159L16.4239 68.5585C16.4005 69.0895 16.3257 69.6181 16.1792 70.1191C16.0314 70.6167 15.8253 71.0979 15.5266 71.4904Z" fill="#FF9A24"/>
<path d="M12.1482 68.329C12.4492 68.4417 12.7539 68.5403 13.0623 68.6126C13.3704 68.6849 13.6826 68.7314 13.9924 68.7328C14.3012 68.7337 14.6103 68.6882 14.8859 68.56C15.1619 68.4337 15.3939 68.2168 15.5486 67.9375L15.7992 68.145C15.5882 68.4671 15.2844 68.7009 14.9624 68.8126C14.6397 68.9276 14.3067 68.9422 13.9856 68.9117C13.6636 68.8798 13.3497 68.8014 13.044 68.6995C12.7381 68.5971 12.4403 68.4699 12.1482 68.329Z" fill="#FF9A24"/>
<path d="M19.7206 53.2551C19.6956 53.3524 19.6746 53.4215 19.6506 53.5016L19.5785 53.7302C19.5296 53.8813 19.477 54.0292 19.4235 54.1766C19.3151 54.4703 19.1978 54.7586 19.071 55.0414C18.8178 55.6069 18.5256 56.1513 18.1858 56.6594C18.0171 56.9142 17.8329 57.1572 17.6371 57.3878C17.442 57.6192 17.232 57.8361 17.0063 58.0309C16.7818 58.2272 16.544 58.4056 16.2903 58.5516L16.1963 58.6075L16.0991 58.6572C16.0338 58.6887 15.9706 58.7248 15.904 58.7525L15.7046 58.8356L15.5206 58.9079C15.0344 59.0887 14.56 59.307 14.0999 59.5601C13.6405 59.8136 13.1961 60.107 12.785 60.4558C12.3744 60.8047 11.9971 61.2112 11.6853 61.6835C11.3734 62.1549 11.1295 62.6934 10.9827 63.2746C11.0793 62.6798 11.2789 62.1037 11.5588 61.5821C11.8382 61.0591 12.1942 60.591 12.5908 60.1788C12.988 59.7662 13.425 59.407 13.8809 59.0882C14.3373 58.7694 14.8121 58.4859 15.2999 58.2408L15.4788 58.1469L15.6403 58.0577C15.6941 58.0286 15.7449 57.991 15.7972 57.9582L15.8751 57.9079L15.9502 57.8511C16.1524 57.7051 16.3399 57.5309 16.5162 57.3422C16.6934 57.1553 16.8572 56.9491 17.0086 56.7298C17.1606 56.5112 17.3027 56.2821 17.4316 56.0411C17.6915 55.5614 17.9106 55.0474 18.0936 54.516C18.1853 54.2505 18.2683 53.9805 18.3423 53.7084C18.3785 53.5722 18.414 53.4357 18.4453 53.2994L18.4904 53.0958C18.5039 53.0312 18.5193 52.9552 18.527 52.9062L19.7206 53.2551Z" fill="#FF9A24"/>
<path d="M12.6946 62.8526C12.6946 62.5578 12.7111 62.2625 12.7364 61.9672C12.7629 61.6723 12.7983 61.377 12.8536 61.084C12.91 60.792 12.9738 60.4981 13.0746 60.2132C13.1746 59.9282 13.2993 59.6465 13.4809 59.3906L13.7771 59.7202C13.6127 59.8967 13.4729 60.1225 13.3527 60.3662C13.2307 60.6099 13.1376 60.8779 13.051 61.1493C12.9653 61.4211 12.8973 61.7028 12.8375 61.9873C12.779 62.2718 12.7287 62.5606 12.6946 62.8526Z" fill="#FF9A24"/>
<path d="M9.99829 60.7504C10.31 60.4241 10.6461 60.1283 10.9963 59.8555C11.3476 59.5846 11.7148 59.3377 12.1024 59.1321C12.4893 58.9264 12.8971 58.7612 13.3245 58.6654C13.5385 58.6203 13.7567 58.5903 13.9781 58.586C14.1993 58.5842 14.4226 58.6058 14.6442 58.6546L14.5482 59.118C14.3609 59.0584 14.1669 59.0199 13.9693 59.0025C13.7714 58.9879 13.5707 58.9959 13.3699 59.0189C12.9682 59.0696 12.5681 59.1889 12.1802 59.3527C11.7916 59.5152 11.4148 59.7231 11.0497 59.9569C10.6856 60.1931 10.3316 60.4546 9.99829 60.7504Z" fill="#FF9A24"/>
<path d="M39.0327 38.5982C39.0693 38.6204 39.1255 38.6511 39.1751 38.677C39.2258 38.7045 39.2787 38.7303 39.3312 38.7566C39.4365 38.808 39.5434 38.8593 39.6517 38.9051C39.8674 39.0017 40.0878 39.0808 40.3088 39.1566C40.7515 39.299 41.2027 39.3951 41.6441 39.409L41.8097 39.4134C41.8642 39.412 41.9174 39.4055 41.9717 39.4021C42.0255 39.3974 42.0805 39.3958 42.1339 39.389L42.2907 39.3582C42.3985 39.3446 42.4957 39.3057 42.5962 39.2724L42.6718 39.2477C42.6981 39.2384 42.7291 39.2235 42.7575 39.2117L42.9312 39.1367C43.3918 38.9382 43.841 38.7372 44.2738 38.4977C45.1389 38.0261 45.9426 37.3934 46.5608 36.5357C47.1821 35.6833 47.5906 34.616 47.785 33.4922C47.6929 34.6317 47.3817 35.774 46.8096 36.7525C46.2427 37.735 45.4388 38.5243 44.5703 39.1331C44.1367 39.4416 43.6847 39.7097 43.2403 39.9656L43.0744 40.0612C43.046 40.0772 43.0212 40.093 42.9898 40.1089L42.8914 40.1567C42.7599 40.2203 42.6273 40.2873 42.4914 40.3242L42.2877 40.3895C42.2197 40.4069 42.1517 40.4184 42.0834 40.4328C42.0152 40.4459 41.9465 40.4617 41.8782 40.4718L41.6743 40.4925C41.1293 40.5422 40.5946 40.4919 40.0743 40.3917C39.8153 40.337 39.5568 40.2772 39.3029 40.1983C39.1752 40.1612 39.0491 40.1183 38.9222 40.0738C38.8589 40.051 38.7956 40.0289 38.7316 40.0034C38.6661 39.9781 38.6079 39.9552 38.5312 39.9212L39.0327 38.5982Z" fill="#FF9A24"/>
<path d="M46.0689 34.1953C46.1462 34.4724 46.207 34.7562 46.2584 35.0432C46.3093 35.3302 46.3484 35.6217 46.3671 35.9179C46.3855 36.214 46.3925 36.5152 46.3563 36.8204C46.321 37.1243 46.2543 37.4365 46.1084 37.7298L45.7659 37.4581C45.8967 37.2642 45.9882 37.0152 46.0509 36.7515C46.1158 36.4871 46.1437 36.2043 46.1597 35.9205C46.1757 35.6359 46.1718 35.3474 46.1555 35.0592C46.139 34.7709 46.1126 34.4818 46.0689 34.1953Z" fill="#FF9A24"/>
<path d="M38.7703 40.0727L38.8079 40.0342L38.8332 40.011L38.8785 39.9711C38.9089 39.9448 38.9328 39.9283 38.9604 39.9067C39.0151 39.8633 39.0643 39.8338 39.1159 39.7994C39.1675 39.764 39.217 39.7384 39.2672 39.7098C39.3173 39.682 39.3676 39.6527 39.4171 39.631C39.5164 39.5841 39.6158 39.5357 39.7144 39.5007C39.8132 39.4619 39.9119 39.4238 40.0102 39.3962C40.2071 39.33 40.4028 39.289 40.5984 39.2433L40.8906 39.1943L41.0365 39.1703L41.1817 39.1553C41.9565 39.0697 42.7176 39.0957 43.4671 39.1721L44.0271 39.241C44.2128 39.2687 44.3971 39.3032 44.582 39.3341L45.6581 39.5219C46.3696 39.6279 47.0845 39.6973 47.7986 39.7001C48.5122 39.7014 49.2249 39.6368 49.9206 39.4648C50.2695 39.3816 50.6112 39.2641 50.9535 39.1317L51.4718 38.9248L51.6061 38.8748L51.6732 38.8499L51.7483 38.8302L51.9004 38.7933L52.0516 38.7828C52.4554 38.7649 52.831 38.9017 53.1723 39.087C53.515 39.2741 53.8267 39.5214 54.1056 39.8066C54.385 40.0914 54.6338 40.4119 54.8526 40.7558C55.0666 41.1047 55.2469 41.4775 55.3976 41.8641C55.2235 41.4905 55.022 41.1365 54.7915 40.8113C54.5554 40.4912 54.2939 40.1992 54.0075 39.947C53.722 39.6942 53.4098 39.4836 53.0803 39.336C52.7535 39.1888 52.4014 39.0991 52.0732 39.1433L51.9521 39.1611L51.8375 39.2L51.7803 39.2191L51.7183 39.2479L51.5948 39.3054L51.0901 39.5545C50.7483 39.719 50.3962 39.8725 50.0347 39.9904C49.3127 40.2323 48.5657 40.3622 47.8202 40.4224C47.0737 40.4811 46.3266 40.4702 45.5834 40.4211L44.4819 40.321C44.3036 40.3062 44.1255 40.2875 43.9475 40.2757L43.4144 40.2544C42.7058 40.2405 42 40.2774 41.3249 40.4091L41.1982 40.4325L41.0743 40.4638L40.827 40.5261C40.6672 40.5784 40.5052 40.6254 40.3545 40.691C40.2764 40.7193 40.204 40.7552 40.1316 40.7904C40.0569 40.8232 39.9905 40.8641 39.9225 40.9024C39.8872 40.9207 39.8574 40.9426 39.8263 40.9632C39.7958 40.9841 39.7625 41.0039 39.7371 41.0257C39.711 41.0469 39.6798 41.0682 39.6609 41.0878C39.6513 41.097 39.6363 41.1087 39.6311 41.1153L39.6226 41.1248C39.6226 41.1248 39.6166 41.1306 39.6212 41.1265C39.6254 41.1227 39.6294 41.1187 39.6332 41.1144L38.7703 40.0727Z" fill="#FF9A24"/>
<path d="M54.9174 37.9449C54.4887 37.7888 54.0347 37.7644 53.5944 37.8081C53.1521 37.8539 52.7216 37.9852 52.3127 38.1703L52.0108 38.3244C51.9094 38.3731 51.8164 38.4438 51.7192 38.5022C51.523 38.616 51.3446 38.7671 51.1615 38.9062C51.0685 38.9723 50.9859 39.0584 50.8995 39.136L50.6422 39.3731C50.4793 39.5442 50.3211 39.7207 50.161 39.8931L49.8779 39.5411C50.0582 39.3743 50.2357 39.2051 50.4169 39.0424L50.7028 38.8178C50.7991 38.7449 50.8901 38.6639 50.993 38.6026C51.1944 38.4735 51.3897 38.3342 51.6033 38.2329C51.7089 38.1808 51.8094 38.1171 51.9188 38.0752L52.2432 37.9432C52.6812 37.7887 53.1343 37.694 53.5892 37.6877C54.0418 37.6833 54.4995 37.7505 54.9174 37.9449Z" fill="#FF9A24"/>
<path d="M53.6497 42.7848C53.6271 42.4092 53.5919 42.0349 53.5337 41.6666C53.4755 41.2986 53.3952 40.9356 53.2792 40.5919C53.1637 40.2493 53.0107 39.9236 52.8046 39.6621C52.5994 39.3995 52.3379 39.2142 52.052 39.1367L52.137 38.7891C52.4769 38.9144 52.7745 39.1712 52.983 39.4875C53.1943 39.8037 53.3304 40.1661 53.4262 40.5328C53.522 40.9008 53.5774 41.2772 53.6107 41.6538C53.6436 42.0307 53.6529 42.4083 53.6497 42.7848Z" fill="#FF9A24"/>
<path d="M38.7129 39.5223C38.8022 39.5168 38.8666 39.5163 38.9411 39.5156L39.1551 39.5176C39.297 39.5203 39.4374 39.5281 39.5777 39.5375C39.858 39.5579 40.1367 39.5904 40.414 39.6357C40.9685 39.7263 41.5186 39.8665 42.0543 40.0747C42.3221 40.1774 42.5861 40.2979 42.8429 40.4398C43.0996 40.5809 43.3511 40.7382 43.5889 40.9235C43.8264 41.1082 44.0565 41.3083 44.2639 41.5398C44.3177 41.5945 44.3672 41.6554 44.417 41.7154C44.4661 41.7762 44.5184 41.8329 44.5635 41.8982L44.7026 42.0887L44.8268 42.2654C45.1508 42.7394 45.5001 43.1883 45.8724 43.6097C46.2448 44.0305 46.6429 44.4221 47.0743 44.7593C47.5053 45.0961 47.9705 45.378 48.4677 45.5656C48.964 45.7536 49.4926 45.8437 50.0236 45.8072C49.4987 45.9037 48.9536 45.8754 48.4269 45.7399C47.8992 45.6053 47.3912 45.368 46.9139 45.069C46.4361 44.7696 45.9879 44.4096 45.5642 44.0167C45.1406 43.6231 44.7386 43.1979 44.3621 42.7461L44.2199 42.5797L44.088 42.4316C44.0458 42.3806 43.9963 42.3377 43.9505 42.2909C43.9041 42.245 43.8585 42.1982 43.8083 42.1571C43.617 41.9812 43.4061 41.8338 43.1905 41.6994C42.9749 41.5644 42.7466 41.4539 42.5143 41.3572C42.282 41.2599 42.0429 41.1809 41.7998 41.1177C41.3146 40.9885 40.8144 40.9192 40.3127 40.8949C40.0618 40.8827 39.8103 40.8821 39.5601 40.8924C39.4351 40.8982 39.3103 40.9054 39.1869 40.9172L39.0034 40.9365C38.9454 40.9435 38.8774 40.9525 38.8346 40.9607L38.7129 39.5223Z" fill="#FF9A24"/>
<path d="M49.0437 44.0455C48.8043 44.1468 48.5583 44.2297 48.3094 44.3025C48.0602 44.3735 47.808 44.4354 47.5503 44.4735C47.293 44.5105 47.032 44.5381 46.7654 44.5238C46.4994 44.5095 46.2278 44.4658 45.9587 44.3542L46.1274 43.9141C46.3276 44.0349 46.5584 44.1135 46.7974 44.1644C47.0371 44.2159 47.2864 44.2296 47.5367 44.2332C47.7874 44.2358 48.0395 44.2147 48.2911 44.1839C48.5428 44.1513 48.7949 44.1082 49.0437 44.0455Z" fill="#FF9A24"/>
<path d="M48.36 47.7673C47.9788 47.5314 47.614 47.2583 47.2633 46.9624C46.9134 46.6643 46.577 46.3411 46.2671 45.9816C45.9569 45.623 45.6718 45.2283 45.4351 44.788C45.3186 44.5666 45.2123 44.3355 45.1259 44.0914C45.0411 43.8466 44.9743 43.591 44.9302 43.327L45.3406 43.2578C45.3632 43.489 45.406 43.7196 45.4667 43.9465C45.5291 44.1729 45.6116 44.3936 45.7055 44.6094C45.8971 45.0393 46.1427 45.4428 46.4191 45.8179C46.6952 46.194 47.0028 46.5419 47.3276 46.868C47.6535 47.1922 47.9967 47.4969 48.36 47.7673Z" fill="#FF9A24"/>
<path d="M33.1034 52.6953C33.1145 52.7732 33.1333 52.8756 33.1522 52.9676C33.1716 53.0618 33.1918 53.1569 33.2154 53.2507C33.2597 53.4398 33.3148 53.6245 33.372 53.8082C33.4911 54.172 33.6374 54.5217 33.821 54.8291L33.8904 54.944C33.9146 54.9807 33.941 55.0143 33.9661 55.0499C33.9917 55.0846 34.0163 55.1215 34.0428 55.1551L34.1261 55.2488C34.1797 55.3166 34.2414 55.3661 34.3016 55.4204L34.3469 55.4613C34.3629 55.4753 34.3838 55.4901 34.4021 55.5043L34.5151 55.5905C34.8146 55.8194 35.1104 56.0393 35.4186 56.2315C36.0312 56.6185 36.6987 56.894 37.4 56.9457C38.0999 57.0017 38.8167 56.8195 39.4697 56.467C38.853 56.8964 38.1403 57.1774 37.3977 57.2094C36.6554 57.2466 35.9086 57.0386 35.2252 56.7086C34.8816 56.5457 34.5506 56.3529 34.229 56.1599L34.109 56.088C34.0886 56.0755 34.0699 56.0654 34.0483 56.0509L33.9816 56.0043C33.8926 55.9419 33.8014 55.8804 33.7239 55.8035L33.6029 55.6926C33.5647 55.6537 33.5294 55.6122 33.4926 55.5718C33.4566 55.5308 33.4189 55.4907 33.3843 55.4485L33.2857 55.3182C33.0251 54.9674 32.8196 54.5805 32.6454 54.1819C32.5613 53.9813 32.4799 53.7789 32.4102 53.5715C32.3738 53.4682 32.341 53.3636 32.3086 53.2577C32.2761 53.1494 32.2474 53.0501 32.217 52.9247L33.1034 52.6953Z" fill="#FF9A24"/>
<path d="M38.3718 55.6016C38.2649 55.774 38.1476 55.9382 38.0245 56.0972C37.9011 56.256 37.7705 56.4087 37.6285 56.5494C37.4866 56.6899 37.3372 56.8248 37.167 56.932C36.9979 57.0392 36.8111 57.1285 36.5996 57.1556L36.5891 56.8042C36.7438 56.8098 36.9094 56.7647 37.07 56.6936C37.2318 56.6237 37.3871 56.5206 37.5377 56.4089C37.6886 56.2969 37.833 56.1696 37.9719 56.034C38.1107 55.8981 38.2456 55.7551 38.3718 55.6016Z" fill="#FF9A24"/>
<path d="M32.2426 53.1562L32.2784 53.1653L32.3011 53.1725L32.3408 53.1862C32.3673 53.1956 32.386 53.2048 32.4088 53.2143C32.4544 53.233 32.4907 53.2539 32.5303 53.2742C32.6071 53.316 32.6781 53.3599 32.7457 53.4071C32.8123 53.4547 32.8797 53.5017 32.9401 53.5539C33.0024 53.6047 33.0643 53.6556 33.1208 53.7108C33.2394 53.8167 33.3447 53.9326 33.4523 54.0464C33.5516 54.1666 33.658 54.281 33.7488 54.4068C34.1269 54.8989 34.4426 55.43 34.7278 55.9748L34.9348 56.387C35.001 56.5258 35.0632 56.6667 35.1274 56.8062L35.4973 57.6221C35.751 58.154 36.0248 58.6724 36.3319 59.1611C36.6394 59.6489 36.9801 60.108 37.3678 60.509C37.5607 60.7113 37.7677 60.8939 37.9825 61.0705L38.3112 61.3348L38.3946 61.4052C38.4221 61.4268 38.4501 61.4522 38.4787 61.4832L38.563 61.5709L38.6337 61.6695C38.8172 61.9376 38.9103 62.2536 38.964 62.5667C39.0171 62.8813 39.0266 63.201 39.0027 63.5146C38.9793 63.8287 38.9245 64.1371 38.8451 64.4353C38.7608 64.732 38.6499 65.016 38.5193 65.286C38.6332 65.0057 38.7255 64.7155 38.7904 64.4174C38.8506 64.1179 38.8853 63.8127 38.8894 63.5085C38.894 63.2043 38.8656 62.9001 38.7981 62.6113C38.7313 62.324 38.6248 62.0451 38.4606 61.8404L38.3991 61.7648L38.33 61.7038C38.309 61.6827 38.283 61.6625 38.2543 61.6428L38.1717 61.5831L37.8275 61.3465C37.5966 61.1841 37.3667 61.0099 37.1509 60.8137C36.7166 60.4254 36.3281 59.9714 35.9755 59.4878C35.6232 59.0033 35.306 58.4888 35.0097 57.9597L34.5846 57.1642C34.515 57.0361 34.4475 56.9063 34.3765 56.7797L34.157 56.4064C33.8579 55.9165 33.5342 55.4504 33.1759 55.0462C33.0889 54.9409 32.9924 54.8533 32.9016 54.7567C32.806 54.6701 32.7123 54.5799 32.614 54.5052C32.5659 54.464 32.5164 54.4301 32.4673 54.3959C32.4185 54.359 32.3691 54.3313 32.3203 54.3015C32.2719 54.2727 32.223 54.2482 32.1778 54.2282C32.1557 54.2195 32.1315 54.2073 32.1134 54.2029C32.1046 54.2004 32.0922 54.1952 32.0866 54.1944L32.0781 54.1927C32.0781 54.1927 32.0726 54.1911 32.0767 54.1925L32.088 54.1955L32.2426 53.1562Z" fill="#FF9A24"/>
<path d="M40.2963 63.2677C40.1901 62.9072 40.0063 62.5865 39.794 62.3048C39.5798 62.0227 39.3273 61.7856 39.0568 61.586L38.8484 61.4461C38.78 61.3983 38.704 61.3654 38.6325 61.3241C38.4902 61.2391 38.3365 61.1828 38.1871 61.118C38.1133 61.0828 38.0341 61.0635 37.9574 61.0382L37.7263 60.9649C37.5694 60.9278 37.4116 60.8959 37.2551 60.8612L37.311 60.5156C37.4733 60.5663 37.6356 60.6147 37.7964 60.6682L38.0335 60.7663C38.112 60.8006 38.1923 60.8278 38.2678 60.8715C38.4202 60.9532 38.5751 61.0264 38.7186 61.1283C38.7906 61.1781 38.8664 61.2194 38.9348 61.2757L39.1418 61.4405C39.4092 61.6729 39.653 61.9414 39.8526 62.249C40.0505 62.5565 40.2142 62.8983 40.2963 63.2677Z" fill="#FF9A24"/>
<path d="M37.3008 64.4862C37.6599 64.1308 38 63.7406 38.2502 63.2857C38.3736 63.059 38.4727 62.8139 38.516 62.5599C38.5604 62.3068 38.541 62.0482 38.4574 61.8191L38.6701 61.7266C38.7528 62.0134 38.7515 62.3275 38.6815 62.6064C38.6127 62.8876 38.4879 63.1369 38.3436 63.3604C38.0513 63.8078 37.6832 64.1646 37.3008 64.4862Z" fill="#FF9A24"/>
<path d="M32.4977 52.875C32.5743 52.9845 32.6296 53.0745 32.6913 53.175C32.7512 53.273 32.8079 53.3724 32.8637 53.4722C32.9745 53.6725 33.0785 53.8768 33.1754 54.0858C33.3691 54.5036 33.5357 54.9399 33.6618 55.3957C33.7888 55.8502 33.8739 56.3262 33.8951 56.8105C33.9043 57.0526 33.9023 57.2962 33.8747 57.538C33.8632 57.6586 33.8444 57.7788 33.8228 57.8971L33.7864 58.0746L33.7506 58.2356C33.6506 58.6619 33.5743 59.0943 33.5218 59.5309C33.4697 59.9671 33.4434 60.4079 33.459 60.8483C33.4747 61.2882 33.5331 61.7276 33.6529 62.1483C33.7721 62.5685 33.9549 62.9685 34.2028 63.3154C33.9271 62.9985 33.706 62.614 33.547 62.1957C33.3871 61.7774 33.2877 61.3276 33.2329 60.8727C33.1781 60.4168 33.1667 59.9553 33.1825 59.4962C33.1988 59.037 33.2404 58.5783 33.3064 58.1262L33.3292 57.9572L33.3472 57.8032C33.3569 57.6999 33.3644 57.5971 33.3654 57.4934C33.3717 57.2868 33.3553 57.079 33.3301 56.8737C33.2769 56.4626 33.1693 56.0591 33.0238 55.6725C32.8795 55.2853 32.6985 54.9138 32.494 54.5606C32.3917 54.384 32.2834 54.2119 32.1701 54.0455C32.1131 53.9627 32.0555 53.8805 31.9963 53.8013C31.939 53.7245 31.8733 53.6389 31.822 53.5795L32.4977 52.875Z" fill="#FF9A24"/>
<path d="M34.6704 61.8921C34.5155 61.7724 34.3673 61.6405 34.2229 61.502C34.0793 61.3625 33.9389 61.2165 33.8084 61.0574C33.6784 60.8977 33.5517 60.7311 33.4438 60.5428C33.3362 60.355 33.2409 60.1508 33.1812 59.9189L33.4769 59.8438C33.5022 60.0325 33.562 60.224 33.6396 60.4095C33.717 60.5954 33.8179 60.7719 33.9241 60.9442C34.031 61.1165 34.1506 61.2794 34.275 61.4381C34.4003 61.5959 34.531 61.7494 34.6704 61.8921Z" fill="#FF9A24"/>
<path d="M32.4921 63.0262C32.4466 62.6642 32.4287 62.2971 32.4268 61.9295C32.4273 61.5623 32.443 61.1929 32.4924 60.8257C32.543 60.46 32.6168 60.0943 32.737 59.7421C32.8618 59.3924 33.0311 59.0572 33.2581 58.7656L33.4705 59.0159C33.2579 59.2501 33.0829 59.5356 32.9443 59.8497C32.8099 60.1666 32.7146 60.5093 32.6411 60.8591C32.5686 61.2098 32.528 61.5703 32.5024 61.9328C32.4792 62.2957 32.4717 62.6614 32.4921 63.0262Z" fill="#FF9A24"/>
<path d="M12.3561 39.8022C12.2466 39.8305 12.1577 39.848 12.0602 39.8659C11.9646 39.8829 11.8697 39.8989 11.7741 39.9104C11.5838 39.9372 11.3918 39.9496 11.1998 39.9582C10.8151 39.9686 10.4244 39.9412 10.0351 39.8403L9.88953 39.801C9.84112 39.7856 9.79291 39.766 9.74478 39.7484C9.69671 39.7299 9.64859 39.7134 9.60108 39.6927L9.45967 39.6213C9.36474 39.5784 9.27488 39.5141 9.18544 39.4525L9.11854 39.4063C9.09732 39.3911 9.08079 39.3767 9.06169 39.3617L8.95042 39.2729C8.65197 39.0351 8.3491 38.7875 8.06309 38.5129C7.48948 37.9696 6.97845 37.3036 6.65577 36.5263C6.32887 35.7512 6.20502 34.8889 6.2391 34.0547C6.28047 34.8897 6.48126 35.7094 6.85469 36.3992C7.22549 37.0926 7.75018 37.6454 8.33347 38.0892C8.62507 38.3138 8.93169 38.5126 9.24699 38.7109L9.36582 38.7858C9.38525 38.7977 9.40633 38.8122 9.4245 38.822L9.47694 38.8489C9.54666 38.8849 9.61338 38.9246 9.69009 38.9474L9.80061 38.9883C9.83859 38.9995 9.87817 39.0073 9.91662 39.0171C9.95554 39.026 9.99342 39.037 10.0327 39.0445L10.1527 39.0612C10.4728 39.1037 10.8072 39.0881 11.1396 39.038C11.306 39.0096 11.4721 38.9787 11.6365 38.9345C11.7188 38.9144 11.8005 38.89 11.8812 38.8655C11.9599 38.8412 12.0464 38.8122 12.1108 38.7866L12.3561 39.8022Z" fill="#FF9A24"/>
<path d="M7.41674 34.7734C7.35984 34.9752 7.31519 35.1809 7.27777 35.3872C7.24059 35.5935 7.21228 35.8014 7.19866 36.0089C7.18519 36.2158 7.18035 36.4235 7.20383 36.6222C7.22589 36.8201 7.26998 37.0109 7.34739 37.1666L7.07594 37.322C6.99641 37.0928 6.97575 36.8593 6.97711 36.6355C6.97796 36.4107 7.0096 36.194 7.04904 35.9823C7.0888 35.7705 7.14279 35.5647 7.205 35.3633C7.26739 35.1621 7.33641 34.9644 7.41674 34.7734Z" fill="#FF9A24"/>
<path d="M11.4546 40.5342L11.4622 40.5444C11.4652 40.5479 11.4614 40.543 11.4614 40.543L11.4561 40.5352C11.4529 40.5298 11.4431 40.5195 11.437 40.5117C11.4251 40.4954 11.4045 40.4762 11.3874 40.4578C11.3508 40.421 11.3091 40.3825 11.2644 40.3466C11.2187 40.3108 11.1743 40.2734 11.1232 40.2408C11.0741 40.2067 11.0249 40.1721 10.9709 40.1423C10.8679 40.0771 10.7551 40.0238 10.6442 39.9669C10.528 39.9196 10.4159 39.8624 10.2948 39.8231C9.81883 39.6475 9.31216 39.5367 8.79901 39.4623L8.41202 39.4141C8.28244 39.4015 8.15211 39.3937 8.02197 39.3831L7.21742 39.3241C6.6761 39.271 6.13545 39.1899 5.60141 39.0584C5.06807 38.9261 4.53991 38.7432 4.03978 38.4824C3.78914 38.3542 3.54828 38.2013 3.31584 38.0417L2.97323 37.8016L2.88903 37.7454C2.86051 37.7252 2.83293 37.7082 2.80716 37.6965L2.72795 37.6548L2.64174 37.6275C2.40857 37.5564 2.14656 37.5793 1.89731 37.6466C1.64638 37.714 1.40205 37.8289 1.17354 37.9775C0.944502 38.1256 0.72962 38.3054 0.530859 38.5085C0.335373 38.7159 0.158869 38.9477 0 39.1969C0.143077 38.9355 0.30616 38.6877 0.49146 38.4611C0.680117 38.2388 0.888084 38.0369 1.1152 37.8645C1.3419 37.6916 1.58882 37.5502 1.85276 37.4558C2.11571 37.3627 2.39929 37.3086 2.68941 37.3697L2.79783 37.3953L2.90417 37.44C2.94132 37.4546 2.97352 37.4715 3.00322 37.4892L3.09581 37.5413L3.45201 37.7526C3.68755 37.889 3.92395 38.0146 4.1685 38.1162C4.65595 38.3234 5.1653 38.455 5.6808 38.5392C6.19685 38.6223 6.71948 38.6574 7.24286 38.6656L8.03685 38.6582C8.1731 38.6579 8.30934 38.6549 8.44596 38.6571L8.85657 38.674C9.40479 38.7083 9.9569 38.7802 10.5091 38.9344C10.6473 38.9678 10.7846 39.0227 10.9226 39.0675C11.0599 39.1238 11.1976 39.1768 11.334 39.2481C11.4026 39.2797 11.4705 39.3191 11.5385 39.3588C11.6066 39.3959 11.6742 39.4427 11.7418 39.4884C11.8095 39.5352 11.8765 39.5871 11.9445 39.6459C11.9787 39.6769 12.0116 39.7041 12.0473 39.742C12.0654 39.7608 12.0811 39.7756 12.1008 39.7983L12.13 39.8325L12.1462 39.8524L12.17 39.8847L11.4546 40.5342Z" fill="#FF9A24"/>
<path d="M0.693115 36.421C1.0122 36.3304 1.34877 36.3364 1.67555 36.3936C2.00343 36.4523 2.32248 36.5747 2.62529 36.7385L2.8479 36.8726C2.92314 36.9159 2.99024 36.9739 3.06204 37.0241C3.20729 37.1227 3.33613 37.2467 3.47028 37.3639C3.53923 37.4205 3.59781 37.4897 3.66078 37.554L3.84739 37.7502C3.96408 37.8894 4.07737 38.0328 4.19283 38.1747L3.95712 38.3953C3.85668 38.2516 3.75791 38.1052 3.6555 37.9622L3.49074 37.7603C3.43494 37.6939 3.3831 37.6218 3.32148 37.563C3.20168 37.4407 3.0861 37.3102 2.9544 37.2047C2.8893 37.1509 2.82835 37.0888 2.75953 37.0414L2.55512 36.8941C2.27584 36.7116 1.97635 36.5655 1.66119 36.4797C1.34693 36.3958 1.01679 36.3593 0.693115 36.421Z" fill="#FF9A24"/>
<path d="M1.18188 40.0656C1.24473 39.5223 1.34153 38.9767 1.54255 38.4661C1.64405 38.2127 1.77424 37.967 1.9548 37.7638C2.13339 37.5601 2.37089 37.4105 2.62755 37.3594L2.65815 37.6206C2.44474 37.6435 2.23951 37.7459 2.06833 37.9112C1.8962 38.0756 1.75722 38.2928 1.64356 38.5264C1.41669 38.9975 1.28147 39.5302 1.18188 40.0656Z" fill="#FF9A24"/>
<path d="M12.0456 40.5205C11.9763 40.4961 11.8803 40.4694 11.7949 40.4471C11.7068 40.4239 11.6172 40.4038 11.5274 40.3847C11.3476 40.3474 11.1658 40.3179 10.9835 40.2967C10.6189 40.2545 10.2515 40.245 9.88951 40.2804C9.52739 40.3142 9.17045 40.3949 8.8334 40.5348C8.6658 40.6063 8.5004 40.6876 8.34664 40.7919C8.26862 40.8419 8.19383 40.8983 8.12035 40.9568L8.01204 41.0481L7.89453 41.1514C7.58265 41.4329 7.25458 41.6922 6.91387 41.926C6.57308 42.1594 6.21744 42.366 5.84585 42.5254C5.47472 42.6844 5.0865 42.7954 4.69344 42.8297C4.30091 42.8648 3.90457 42.8202 3.53394 42.6879C3.91435 42.7776 4.30426 42.7755 4.67937 42.6989C5.05514 42.6227 5.41632 42.4745 5.7574 42.2825C6.09876 42.0903 6.42092 41.8548 6.72721 41.5953C7.03331 41.3352 7.32538 41.0526 7.60134 40.7488L7.70669 40.6359L7.82397 40.5149C7.90378 40.4367 7.98608 40.3606 8.07214 40.2917C8.24237 40.1491 8.42627 40.032 8.61425 39.9269C8.99171 39.7196 9.39308 39.5815 9.79791 39.4967C10.2032 39.4101 10.6131 39.3744 11.0216 39.375C11.226 39.3753 11.4302 39.3851 11.6345 39.4037C11.7366 39.4136 11.8388 39.4247 11.9415 39.4396C12.0469 39.4552 12.1414 39.4693 12.2606 39.4959L12.0456 40.5205Z" fill="#FF9A24"/>
<path d="M4.39746 41.5312C4.57188 41.6062 4.75001 41.6674 4.92897 41.721C5.10817 41.7732 5.2885 41.8185 5.46972 41.8465C5.65066 41.8736 5.83212 41.8936 6.00986 41.8849C6.187 41.8767 6.36066 41.8473 6.51597 41.7839L6.59893 42.122C6.3947 42.1705 6.19461 42.1697 6.00123 42.1483C5.80742 42.1269 5.62118 42.0759 5.43855 42.0184C5.25597 41.9602 5.07907 41.8854 4.90531 41.8044C4.73202 41.7222 4.56169 41.633 4.39746 41.5312Z" fill="#FF9A24"/>
<path d="M4.56274 44.2964C4.84921 44.1447 5.12315 43.9639 5.38728 43.7687C5.65005 43.5712 5.90451 43.359 6.13634 43.1189C6.36696 42.8782 6.5817 42.6188 6.75869 42.3312C6.93146 42.0409 7.06536 41.7267 7.14231 41.3984L7.43273 41.4974C7.31865 41.8677 7.14461 42.1993 6.93832 42.4924C6.72789 42.7821 6.48555 43.0304 6.23174 43.2553C5.97686 43.4794 5.704 43.6703 5.4255 43.8446C5.14583 44.0164 4.85902 44.1717 4.56274 44.2964Z" fill="#FF9A24"/>
<path d="M32.7686 25.5922C32.7967 25.5173 32.8184 25.4671 32.8433 25.4078L32.9168 25.2407C32.9663 25.1306 33.0169 25.023 33.0692 24.9169C33.1727 24.7041 33.2817 24.4971 33.3949 24.294C33.6212 23.8879 33.8643 23.4972 34.1243 23.1233C34.6456 22.3775 35.2295 21.6923 35.8816 21.1112C36.531 20.5279 37.2452 20.0465 38.0005 19.7049C38.0937 19.659 38.1892 19.6199 38.2853 19.5831C38.3812 19.5462 38.4757 19.5055 38.5724 19.472C38.7673 19.4106 38.9587 19.3399 39.1563 19.2959C39.5466 19.1871 39.9454 19.1354 40.3402 19.0938C39.9521 19.1944 39.5677 19.304 39.1994 19.4675C39.0127 19.5389 38.834 19.636 38.6536 19.7229C38.5643 19.7691 38.4775 19.8223 38.3897 19.8714C38.3017 19.9204 38.2147 19.9714 38.1306 20.0289C37.4468 20.4635 36.8293 21.0168 36.2874 21.6487C35.7432 22.2786 35.2769 22.9914 34.8772 23.744C34.678 24.1212 34.4968 24.5102 34.334 24.9067C34.2526 25.1048 34.1758 25.3051 34.1057 25.5063C34.0701 25.6067 34.0364 25.7077 34.0048 25.8077L33.9589 25.957C33.9454 26.0038 33.9291 26.0599 33.9217 26.0926L32.7686 25.5922Z" fill="#FF9A24"/>
<path d="M39.4011 21.2407C39.133 21.0409 38.8411 20.8893 38.5418 20.779C38.2422 20.6702 37.9317 20.6067 37.6252 20.6122C37.3189 20.6143 37.0187 20.6882 36.7468 20.8281C36.4742 20.9671 36.2329 21.1749 36.0228 21.4176L35.748 21.0637C36.0132 20.8163 36.3139 20.6125 36.6387 20.4934C36.9628 20.373 37.305 20.3351 37.6343 20.3741C37.9646 20.4099 38.2816 20.518 38.5777 20.6675C38.8734 20.8186 39.1526 21.0083 39.4011 21.2407Z" fill="#FF9A24"/>
<path d="M31.7832 14.1223C31.9006 13.9782 32.031 13.8482 32.1669 13.7239C32.3028 13.5994 32.4461 13.4824 32.5976 13.3766C32.9003 13.1647 33.2347 12.9875 33.6109 12.8872C33.9841 12.7802 34.4095 12.7708 34.8377 12.8973C34.9431 12.931 35.0504 12.9722 35.1481 13.0323C35.1955 13.0653 35.2423 13.0999 35.2874 13.1369L35.3545 13.1933L35.4161 13.2562C35.4977 13.3405 35.583 13.4196 35.6553 13.5096L35.7675 13.6421C35.8033 13.6873 35.834 13.7354 35.8672 13.7822C36.1289 14.1598 36.3074 14.573 36.4436 14.9839C36.5017 15.1896 36.5682 15.3966 36.6083 15.6023C36.6303 15.7053 36.6554 15.8086 36.6741 15.9114L36.7248 16.2192L36.7499 16.3731L36.7677 16.5291L36.8022 16.8415C36.8204 17.0498 36.8296 17.2589 36.8392 17.4674C36.8451 17.8842 36.8382 18.3011 36.798 18.7115C36.7257 19.5339 36.5702 20.3364 36.352 21.1057C36.1353 21.8761 35.8647 22.6188 35.5508 23.3303C35.2392 24.0437 34.8869 24.7278 34.5047 25.3868C34.3138 25.7166 34.1143 26.0394 33.9066 26.3559C33.802 26.5138 33.6967 26.6709 33.5874 26.826C33.4766 26.9838 33.3717 27.1298 33.2429 27.2961L30.1304 31.3149L32.2507 26.4672L32.271 26.4208L32.2964 26.3597L32.3472 26.2302C32.3806 26.1418 32.4123 26.0505 32.443 25.9583C32.5036 25.7732 32.5583 25.5832 32.6079 25.391C32.7053 25.0055 32.7792 24.61 32.8299 24.2106C32.9288 23.4116 32.9405 22.596 32.8467 21.7948C32.8371 21.6943 32.8247 21.5943 32.8087 21.4949C32.7931 21.3954 32.7815 21.295 32.763 21.1962C32.724 20.999 32.697 20.798 32.632 20.6084C32.5706 20.4186 32.5639 20.2099 32.5396 20.0034C32.5094 19.7993 32.4836 19.5909 32.445 19.3849C32.2982 18.5582 32.0725 17.7239 31.7832 16.892C32.359 17.489 32.873 18.1874 33.3026 18.9745C33.3592 19.0713 33.4096 19.1721 33.4588 19.274C33.5084 19.3756 33.5597 19.4772 33.6082 19.5807C33.6944 19.7916 33.8138 19.9949 33.8412 20.2299C33.8589 20.3458 33.8838 20.459 33.9059 20.5733L33.9701 20.9168C33.9914 21.0313 34.0055 21.1476 34.0233 21.263C34.0416 21.3783 34.056 21.4944 34.0675 21.611C34.1757 22.5414 34.1632 23.4899 34.0477 24.4189C33.9888 24.8835 33.9029 25.3436 33.7883 25.7963C33.7301 26.0224 33.6655 26.2469 33.5923 26.4699C33.5553 26.5815 33.5166 26.6927 33.4745 26.8042C33.4533 26.8601 33.4318 26.916 33.4084 26.9728L33.3724 27.0592L33.3282 27.1584L32.336 26.3295C32.4281 26.2105 32.5357 26.0624 32.6334 25.9226C32.7334 25.7808 32.831 25.6351 32.9279 25.4888C33.1207 25.195 33.3068 24.8941 33.4845 24.587C33.8404 23.9732 34.1677 23.3374 34.4539 22.6818C34.7427 22.0276 34.9877 21.352 35.1815 20.6634C35.3771 19.9753 35.5116 19.2713 35.5735 18.5666C35.6366 17.8617 35.6239 17.1573 35.5136 16.4733L35.4715 16.2157C35.4561 16.1308 35.4355 16.0495 35.4181 15.9662C35.3861 15.7969 35.3339 15.6445 35.2909 15.4852C35.1899 15.1808 35.0642 14.9027 34.9109 14.6822C34.8915 14.6551 34.8739 14.6249 34.8537 14.5998L34.7914 14.5278C34.7527 14.4749 34.7056 14.4385 34.6588 14.4021C34.5604 14.3367 34.471 14.2772 34.383 14.1853C34.1972 14.0288 33.9512 13.9108 33.6661 13.8637L33.5584 13.8465L33.4481 13.8372C33.3737 13.8276 33.2978 13.8308 33.2208 13.8276C33.0674 13.8322 32.9095 13.8432 32.75 13.8672C32.5912 13.8929 32.4293 13.9242 32.2677 13.9662C32.1061 14.0092 31.9448 14.0607 31.7832 14.1223Z" fill="#FF9A24"/>
<path d="M34.2744 10.3281C34.6539 10.7678 35.0008 11.2485 35.3226 11.7543C35.6418 12.2623 35.9371 12.7978 36.182 13.3741C36.4285 13.9487 36.628 14.5645 36.7395 15.2251C36.7924 15.5556 36.8258 15.8964 36.8249 16.2448C36.8215 16.5931 36.7868 16.9469 36.7169 17.2975L35.7392 16.937C35.8245 16.6939 35.8888 16.4358 35.93 16.166C35.9687 15.8957 35.9808 15.6146 35.9754 15.3291C35.9596 14.7574 35.861 14.1707 35.7064 13.5972C35.5542 13.0217 35.3446 12.4589 35.1047 11.9112C34.8619 11.365 34.5885 10.8316 34.2744 10.3281Z" fill="#FF9A24"/>
<path d="M33.1248 15.5625C33.3493 15.9162 33.5848 16.2588 33.8279 16.5916C34.071 16.9241 34.3227 17.2462 34.5842 17.5501C34.846 17.8522 35.1187 18.139 35.4019 18.3744C35.5426 18.4925 35.6874 18.5946 35.8259 18.6679C35.9628 18.7416 36.0987 18.7793 36.1769 18.7679L36.0273 19.9466C35.7326 19.8648 35.5234 19.7063 35.3439 19.5472C35.1656 19.3851 35.0166 19.2114 34.8817 19.0326C34.6115 18.6755 34.3893 18.3009 34.1824 17.9203C33.9772 17.5389 33.7902 17.1506 33.6148 16.7573C33.4397 16.364 33.2754 15.966 33.1248 15.5625Z" fill="#FF9A24"/>
<path d="M31.5437 19.3516C31.7928 19.4306 32.0364 19.5443 32.2742 19.6798C32.5117 19.8168 32.742 19.981 32.9613 20.1768C33.1815 20.3714 33.3814 20.6092 33.5613 20.88C33.7425 21.1517 33.8781 21.4726 33.9856 21.8161L32.9766 22.0307C32.9735 21.7987 32.9561 21.5508 32.8855 21.307C32.8162 21.0643 32.7204 20.816 32.5876 20.5848C32.4565 20.3527 32.3005 20.1295 32.1249 19.9221C31.9487 19.7156 31.7562 19.5203 31.5437 19.3516Z" fill="#FF9A24"/>
<path opacity="0.3" d="M18.1371 51.1593C18.0695 51.0317 18.0212 50.9079 17.9626 50.7857C17.9102 50.6638 17.8643 50.544 17.8117 50.4266C17.7072 50.1917 17.6265 49.9637 17.5278 49.7438C17.3535 49.3014 17.1736 48.8879 17.01 48.4879C16.8347 48.091 16.6755 47.7068 16.5051 47.3325C16.4143 47.1483 16.3439 46.9561 16.2479 46.7768C16.1653 46.5909 16.0738 46.4101 15.9895 46.225C15.6343 45.4949 15.2665 44.7599 14.863 43.9807L14.2419 42.7617C14.0302 42.3315 13.808 41.8917 13.5837 41.3837L13.6526 41.2344C14.4113 41.7099 15.0891 42.3259 15.7005 43.0258C16.3106 43.727 16.8331 44.5309 17.2624 45.3974C17.4696 45.836 17.6487 46.2918 17.8029 46.7586C17.9515 47.2279 18.0745 47.7083 18.1604 48.198C18.2377 48.6891 18.3025 49.1836 18.3171 49.6818C18.3316 49.9305 18.3229 50.1796 18.3212 50.4279C18.3176 50.6762 18.295 50.9237 18.2827 51.1709L18.1371 51.1593Z" fill="white"/>
<path d="M84.6827 75.0848L84.6184 75.012L84.5456 74.9322L84.3959 74.7707C84.2949 74.6627 84.1893 74.5566 84.0855 74.4491C83.8752 74.236 83.6616 74.0252 83.4456 73.8158C83.0113 73.3998 82.5644 72.9975 82.1137 72.5998C81.209 71.8083 80.2705 71.0632 79.3174 70.3439C77.3982 68.928 75.4085 67.6294 73.3466 66.5059C72.8339 66.2181 72.3113 65.9547 71.793 65.682C71.2677 65.4261 70.7461 65.1613 70.2156 64.9219C69.1616 64.4223 68.0865 63.9862 67.009 63.5637C66.4672 63.3632 65.9273 63.1552 65.3799 62.9768L64.5616 62.6998L63.7376 62.4449C63.1902 62.2688 62.6348 62.1294 62.0827 61.9745C61.5292 61.8252 60.9743 61.6989 60.417 61.5594L59.5475 61.3463C59.2578 61.2745 58.9667 61.2078 58.6799 61.1223C58.1043 60.9585 57.5264 60.8026 56.9559 60.613C56.67 60.5219 56.3827 60.435 56.0973 60.3397L55.2451 60.0397L54.8189 59.8895L54.3963 59.7252L53.5498 59.3993C51.3062 58.4862 49.1034 57.4125 46.9719 56.1546L46.5714 55.92L46.1747 55.6773C45.9111 55.5135 45.6441 55.3557 45.3828 55.1863L44.5982 54.6777L43.8199 54.1544C42.7853 53.4483 41.7712 52.6966 40.7767 51.9038C39.7767 51.1186 38.8049 50.2799 37.8459 49.4038C37.3677 48.9627 36.8942 48.5112 36.426 48.0406C36.1911 47.8052 35.9567 47.5668 35.7231 47.3194C35.606 47.1942 35.4895 47.0704 35.3712 46.9391C35.3124 46.8757 35.2521 46.8086 35.1912 46.7399L35.0982 46.6339C35.0652 46.5954 35.0379 46.5651 34.99 46.5049L38.6955 42.8828C38.6944 42.8867 38.7148 42.9193 38.7294 42.9441L38.78 43.0266C38.8153 43.0833 38.8516 43.141 38.8911 43.2008C38.9669 43.3181 39.0497 43.4375 39.1307 43.5569C39.2954 43.7961 39.4674 44.0354 39.6416 44.2745C39.995 44.7489 40.3659 45.2152 40.7429 45.6777C41.5031 46.5979 42.3115 47.4765 43.1447 48.3283C44.8248 50.0122 46.6204 51.5697 48.5245 52.9367C48.7635 53.1053 48.9987 53.2834 49.2414 53.4448L49.9667 53.9377C50.209 54.1014 50.4578 54.2516 50.7029 54.4095L51.0724 54.6438L51.4461 54.8676L52.1954 55.3136L52.9559 55.7343C53.0827 55.8037 53.209 55.8757 53.3372 55.943L53.7226 56.1406L54.4944 56.5353L55.2757 56.9045L55.6672 57.088L56.063 57.2581L56.855 57.5989C57.1203 57.7078 57.3883 57.8087 57.655 57.9144C58.7226 58.3346 59.8104 58.681 60.9029 59.0115C61.47 59.1838 62.0452 59.3439 62.6118 59.5266C63.178 59.7144 63.7466 59.8899 64.3076 60.0961L65.1522 60.3932L65.9902 60.7125C66.5508 60.9181 67.1015 61.1585 67.6574 61.3792C68.7616 61.8458 69.8588 62.3346 70.9405 62.8651C71.4846 63.1209 72.0184 63.4064 72.5569 63.6768C73.0898 63.9627 73.6264 64.2388 74.1531 64.5397C74.6832 64.8322 75.2071 65.1397 75.732 65.4439C76.2527 65.7585 76.7738 66.073 77.2897 66.3979C78.3236 67.0444 79.3414 67.7266 80.3433 68.4402C81.3508 69.1453 82.3353 69.8946 83.3095 70.6688C83.7959 71.0571 84.279 71.4533 84.7555 71.8646C84.9949 72.0688 85.2334 72.2763 85.471 72.4881L85.8264 72.812L86.0062 72.9777L86.0968 73.0632L86.1944 73.1576L84.6827 75.0848Z" fill="#FF9A24"/>
<path d="M98.3761 77.5496C97.0963 76.0102 94.4141 73.0928 90.8305 70.8472C86.446 68.0994 82.123 67.2167 77.9803 68.2228L77.7507 66.9468C82.1592 65.8759 86.7395 66.8022 91.3639 69.6998C95.0808 72.0289 97.8587 75.0505 99.1836 76.644L98.3761 77.5496Z" fill="#FF9A24"/>
<path d="M99.6648 76.0436C100.139 76.6408 100.106 77.5713 99.5921 78.1216C99.0785 78.6718 98.2771 78.6343 97.8033 78.0371C97.3296 77.4404 97.362 76.5098 97.8761 75.9596C98.3902 75.4094 99.1911 75.4469 99.6648 76.0436Z" fill="#FF9A24"/>
<path d="M82.4619 87.5398C81.1676 86.2337 78.699 83.4919 76.7112 79.806C74.2601 75.2623 73.2718 70.7069 73.7727 66.2656L74.8859 66.4351C74.4192 70.568 75.3535 74.8337 77.6624 79.114C79.5727 82.6562 81.9507 85.2971 83.1981 86.5558L82.4619 87.5398Z" fill="#FF9A24"/>
<path d="M83.6041 85.8605C84.1393 86.3831 84.2084 87.3107 83.7586 87.9323C83.3088 88.5535 82.5102 88.6338 81.975 88.1112C81.4398 87.5887 81.3708 86.661 81.8206 86.0399C82.2703 85.4183 83.0694 85.338 83.6041 85.8605Z" fill="#FF9A24"/>
<path d="M90.9672 87.6982C89.2255 86.3104 85.887 83.4874 83.0963 80.1747C79.5109 75.9193 78.0034 72.2461 78.6161 69.2578L79.7081 69.5597C79.1978 72.0484 80.6466 75.4038 83.8982 79.263C86.6226 82.4963 89.894 85.2625 91.602 86.6231L90.9672 87.6982Z" fill="#FF9A24"/>
<path d="M91.9445 85.8928C92.5234 86.3477 92.676 87.2618 92.2844 87.9346C91.8929 88.6074 91.106 88.7839 90.5267 88.3294C89.9473 87.8745 89.7952 86.9604 90.1868 86.2876C90.5783 85.6149 91.3652 85.4383 91.9445 85.8928Z" fill="#FF9A24"/>
<path d="M76.6954 88.6216C75.0118 85.5686 71.6127 77.3578 76.4043 67.0859L77.3912 67.7066C72.8846 77.3686 76.0644 85.0601 77.6404 87.9183L76.6954 88.6216Z" fill="#FF9A24"/>
<path d="M78.1723 87.359C78.5746 88.0228 78.4371 88.9402 77.8652 89.4073C77.2934 89.8745 76.5037 89.7149 76.1014 89.0505C75.6995 88.3867 75.8371 87.4693 76.4089 87.0022C76.9803 86.5351 77.7704 86.6947 78.1723 87.359Z" fill="#FF9A24"/>
<path d="M78.8018 67.5882L77.9441 66.7469C80.5347 63.1821 84.3324 61.2332 89.2309 60.9558C93.1521 60.7328 96.776 61.6614 98.5878 62.2347L98.2929 63.4924C96.5455 62.9398 93.0516 62.0445 89.2859 62.2577C84.7108 62.5168 81.1835 64.3102 78.8018 67.5882Z" fill="#FF9A24"/>
<path d="M98.7385 61.4361C99.4089 61.6667 99.7911 62.4854 99.592 63.2638C99.3934 64.0422 98.6888 64.4864 98.0183 64.2554C97.3484 64.0244 96.9662 63.2056 97.1648 62.4272C97.3639 61.6488 98.0686 61.2052 98.7385 61.4361Z" fill="#FF9A24"/>
<path d="M81.0897 70.2981L80.3169 69.3525C82.4005 67.0553 84.9446 66.0591 87.8784 66.3901C90.2066 66.6535 92.2474 67.699 93.5493 68.5295L93.0089 69.6718C90.8469 68.2929 85.3573 65.5924 81.0897 70.2981Z" fill="#FF9A24"/>
<path d="M93.8737 67.8118C94.4727 68.2296 94.6671 69.1334 94.307 69.8292C93.9469 70.5254 93.169 70.7508 92.5699 70.3325C91.9704 69.9146 91.7765 69.0113 92.1366 68.3151C92.4967 67.6189 93.2741 67.3935 93.8737 67.8118Z" fill="#FF9A24"/>
<path d="M92.693 79.8121C91.7498 77.9712 89.3948 74.728 84.2197 73.6829L84.4122 72.3984C90.0291 73.5332 92.6155 77.1125 93.6573 79.1449L92.693 79.8121Z" fill="#FF9A24"/>
<path d="M94.2719 78.7577C94.5851 79.4836 94.332 80.3671 93.7067 80.7305C93.0818 81.0944 92.3212 80.8005 92.0081 80.0746C91.6949 79.3484 91.948 78.4648 92.5734 78.1014C93.1982 77.7376 93.9588 78.0315 94.2719 78.7577Z" fill="#FF9A24"/>
<path d="M88.6244 79.0801C86.8221 77.9792 83.608 75.1684 82.3362 68.713L83.4301 68.4219C84.6019 74.3693 87.5146 76.9294 89.147 77.9261L88.6244 79.0801Z" fill="#FF9A24"/>
<path d="M89.3372 77.1153C89.978 77.4402 90.2705 78.3068 89.9912 79.051C89.7114 79.7956 88.9653 80.1355 88.3245 79.8106C87.6837 79.4857 87.3907 78.6191 87.6705 77.8749C87.9503 77.1308 88.6963 76.7904 89.3372 77.1153Z" fill="#FF9A24"/>
<path d="M72.2239 85.7216L71.1685 85.2779C71.6046 83.8784 72.4882 81.9511 74.2206 80.7188L74.807 81.8305C73.3516 82.8657 72.599 84.5178 72.2239 85.7216Z" fill="#FF9A24"/>
<path d="M72.9398 85.8362C72.7473 86.617 72.0464 87.0686 71.3741 86.8451C70.7022 86.6221 70.313 85.808 70.5055 85.0273C70.698 84.2465 71.3989 83.7949 72.0708 84.0179C72.7431 84.2414 73.1318 85.0555 72.9398 85.8362Z" fill="#FF9A24"/>
<path d="M92.8024 83.9505C90.3216 82.1313 88.1738 81.4716 86.808 81.2388C85.3301 80.9862 84.4245 81.1655 84.4155 81.1674L84.2146 79.8848C84.377 79.8501 88.2601 79.0773 93.4015 82.8486L92.8024 83.9505Z" fill="#FF9A24"/>
<path d="M92.3438 84.5832C92.925 85.0349 93.7114 84.8537 94.1001 84.179C94.4888 83.5039 94.333 82.5907 93.7517 82.1391C93.171 81.6875 92.3846 81.8687 91.9959 82.5433C91.6071 83.2184 91.763 84.1316 92.3438 84.5832Z" fill="#FF9A24"/>
<path d="M98.2656 69.1039C94.9633 66.0428 94.8778 62.7053 94.8755 62.5649L95.998 62.5428L95.4365 62.5536L95.998 62.5391C95.998 62.5461 96.0196 63.2668 96.3938 64.3038C96.7393 65.2616 97.4661 66.6949 98.9656 68.0851L98.2656 69.1039Z" fill="#FF9A24"/>
<path d="M97.8231 69.7269C98.387 70.2067 99.1794 70.0645 99.5921 69.4096C100.005 68.7546 99.8832 67.8344 99.3193 67.3546C98.7555 66.8748 97.963 67.0166 97.5499 67.672C97.1367 68.3269 97.2593 69.2471 97.8231 69.7269Z" fill="#FF9A24"/>
<defs>
<radialGradient id="paint0_radial_119_397" cx="0" cy="0" r="1" gradientUnits="userSpaceOnUse" gradientTransform="translate(25.2772 40.4113) rotate(180) scale(7.82024 9.0831)">
<stop stop-color="#FF9A24"/>
<stop offset="1" stop-color="#FFFF00"/>
</radialGradient>
</defs>
</svg>
