<svg width="213" height="169" viewBox="0 0 213 169" fill="none" xmlns="http://www.w3.org/2000/svg">
<path d="M151.717 120.374C153.175 121.115 154.874 120.343 155.512 118.65L156.741 115.389C157.379 113.696 156.715 111.722 155.257 110.981C153.8 110.24 152.101 111.012 151.462 112.705L150.233 115.966C149.595 117.659 150.26 119.632 151.717 120.374Z" fill="#B080E2"/>
<path d="M154.104 110.7C154.489 110.7 154.882 110.79 155.258 110.981C156.715 111.722 157.38 113.696 156.742 115.389L155.512 118.65C155.039 119.907 153.981 120.656 152.872 120.656C152.486 120.656 152.094 120.565 151.718 120.374C150.26 119.633 149.595 117.659 150.234 115.966L151.463 112.705C151.936 111.449 152.994 110.7 154.104 110.7ZM154.104 109.395C152.512 109.395 151.071 110.489 150.433 112.182L149.204 115.443C148.319 117.792 149.244 120.541 151.267 121.57C151.778 121.829 152.317 121.961 152.871 121.961C154.463 121.961 155.904 120.867 156.542 119.174L157.771 115.913C158.656 113.563 157.731 110.814 155.708 109.786C155.198 109.526 154.658 109.395 154.104 109.395Z" fill="#8C46D4"/>
<path d="M145.872 117.457C147.375 118.063 149.017 117.14 149.539 115.394L150.545 112.031C151.067 110.285 150.272 108.378 148.769 107.771C147.265 107.165 145.624 108.089 145.102 109.835L144.096 113.197C143.574 114.944 144.369 116.85 145.872 117.457Z" fill="#B080E2"/>
<path d="M147.823 107.584C148.137 107.584 148.456 107.644 148.769 107.771C150.272 108.377 151.067 110.284 150.545 112.03L149.539 115.393C149.126 116.776 148.011 117.642 146.818 117.642C146.504 117.642 146.185 117.582 145.872 117.456C144.369 116.85 143.574 114.943 144.096 113.197L145.101 109.834C145.515 108.451 146.63 107.584 147.823 107.584ZM147.823 106.279C146.12 106.279 144.599 107.536 144.04 109.406L143.034 112.768C142.683 113.942 142.747 115.205 143.213 116.323C143.68 117.441 144.493 118.281 145.504 118.689C145.929 118.86 146.371 118.947 146.818 118.947C148.522 118.947 150.042 117.691 150.601 115.821L151.607 112.458C152.331 110.036 151.223 107.38 149.137 106.538C148.712 106.366 148.27 106.279 147.823 106.279Z" fill="#8C46D4"/>
<path d="M139.704 114.801C141.207 115.407 142.849 114.483 143.371 112.737L144.377 109.374C144.899 107.628 144.104 105.721 142.601 105.115C141.097 104.508 139.455 105.432 138.933 107.178L137.927 110.541C137.405 112.287 138.201 114.194 139.704 114.801Z" fill="#B080E2"/>
<path d="M141.655 104.928C141.968 104.928 142.288 104.988 142.601 105.114C144.104 105.721 144.899 107.628 144.377 109.374L143.371 112.737C142.958 114.119 141.842 114.986 140.649 114.986C140.336 114.986 140.017 114.926 139.704 114.8C138.201 114.194 137.405 112.286 137.927 110.541L138.933 107.178C139.347 105.795 140.462 104.928 141.655 104.928ZM141.655 103.623C139.951 103.623 138.431 104.879 137.872 106.749L136.866 110.112C136.515 111.286 136.579 112.548 137.045 113.667C137.511 114.785 138.325 115.625 139.335 116.033C139.76 116.204 140.202 116.291 140.649 116.291C142.353 116.291 143.873 115.035 144.433 113.165L145.438 109.802C145.789 108.628 145.726 107.366 145.259 106.248C144.793 105.13 143.98 104.289 142.969 103.882C142.544 103.71 142.102 103.623 141.655 103.623Z" fill="#8C46D4"/>
<path d="M133.203 112.725C134.706 113.331 136.348 112.407 136.87 110.661L137.876 107.298C138.398 105.552 137.602 103.645 136.099 103.039C134.596 102.432 132.954 103.356 132.432 105.102L131.426 108.465C130.904 110.211 131.7 112.118 133.203 112.725Z" fill="#B080E2"/>
<path d="M135.154 102.853C135.467 102.853 135.786 102.913 136.099 103.039C137.602 103.646 138.398 105.553 137.876 107.299L136.87 110.661C136.456 112.044 135.341 112.911 134.148 112.911C133.835 112.911 133.515 112.851 133.203 112.725C131.699 112.118 130.904 110.211 131.426 108.465L132.432 105.103C132.845 103.72 133.961 102.853 135.154 102.853ZM135.154 101.548C133.45 101.548 131.93 102.804 131.371 104.675L130.365 108.037C129.64 110.46 130.748 113.116 132.834 113.958C133.259 114.129 133.701 114.216 134.148 114.216C135.852 114.216 137.372 112.96 137.931 111.089L138.937 107.727C139.662 105.304 138.554 102.648 136.468 101.806C136.043 101.635 135.601 101.548 135.154 101.548Z" fill="#8C46D4"/>
<path d="M126.65 110.851C128.154 111.458 129.795 110.534 130.318 108.788L131.323 105.425C131.845 103.679 131.05 101.772 129.547 101.166C128.044 100.559 126.402 101.483 125.88 103.229L124.874 106.592C124.352 108.338 125.147 110.245 126.65 110.851Z" fill="#B080E2"/>
<path d="M128.601 100.979C128.915 100.979 129.234 101.039 129.547 101.165C131.05 101.771 131.845 103.679 131.323 105.425L130.318 108.788C129.904 110.17 128.789 111.037 127.596 111.037C127.282 111.037 126.963 110.977 126.65 110.851C125.147 110.244 124.352 108.337 124.874 106.591L125.88 103.228C126.293 101.846 127.408 100.979 128.601 100.979ZM128.601 99.6738C126.898 99.6738 125.377 100.93 124.818 102.8L123.812 106.163C123.461 107.337 123.525 108.599 123.991 109.717C124.458 110.836 125.271 111.676 126.282 112.084C126.707 112.255 127.149 112.342 127.596 112.342C129.299 112.342 130.82 111.086 131.379 109.216L132.385 105.853C132.736 104.679 132.672 103.417 132.206 102.298C131.739 101.18 130.926 100.34 129.915 99.9322C129.49 99.7608 129.048 99.6738 128.601 99.6738Z" fill="#8C46D4"/>
<path d="M120.252 108.762C121.755 109.369 123.397 108.445 123.919 106.699L124.925 103.336C125.447 101.59 124.651 99.6834 123.148 99.0768C121.645 98.4705 120.003 99.394 119.481 101.14L118.475 104.503C117.953 106.249 118.748 108.156 120.252 108.762Z" fill="#B080E2"/>
<path d="M122.203 98.89C122.516 98.89 122.835 98.9499 123.148 99.0761C124.651 99.6827 125.447 101.59 124.925 103.335L123.919 106.698C123.506 108.081 122.39 108.948 121.197 108.948C120.884 108.948 120.565 108.888 120.252 108.762C118.748 108.155 117.953 106.248 118.475 104.502L119.481 101.14C119.894 99.7568 121.01 98.89 122.203 98.89ZM122.203 97.585C120.499 97.585 118.979 98.8414 118.42 100.712L117.414 104.074C116.69 106.497 117.797 109.153 119.883 109.995C120.308 110.166 120.751 110.253 121.198 110.253C122.901 110.253 124.421 108.997 124.98 107.127L125.986 103.764C126.711 101.341 125.603 98.6852 123.517 97.8434C123.092 97.6718 122.65 97.585 122.203 97.585Z" fill="#8C46D4"/>
<path d="M113.975 106.546C115.478 107.152 117.12 106.228 117.642 104.482L118.648 101.119C119.17 99.3735 118.374 97.4664 116.871 96.8601C115.368 96.2535 113.726 97.1774 113.204 98.9234L112.198 102.286C111.676 104.032 112.472 105.939 113.975 106.546Z" fill="#B080E2"/>
<path d="M115.926 96.6733C116.239 96.6733 116.558 96.7332 116.871 96.8595C118.374 97.4658 119.17 99.3729 118.648 101.119L117.642 104.482C117.228 105.864 116.113 106.731 114.92 106.731C114.607 106.731 114.287 106.671 113.975 106.545C112.472 105.939 111.676 104.032 112.198 102.286L113.204 98.9228C113.618 97.5402 114.733 96.6733 115.926 96.6733ZM115.926 95.3682C114.222 95.3682 112.702 96.6245 112.143 98.4946L111.137 101.857C110.412 104.28 111.52 106.936 113.606 107.778C114.031 107.949 114.473 108.036 114.92 108.036C116.624 108.036 118.144 106.78 118.703 104.91L119.709 101.547C120.06 100.373 119.997 99.1111 119.53 97.9929C119.064 96.8746 118.25 96.0343 117.24 95.6267C116.815 95.4552 116.373 95.3682 115.926 95.3682Z" fill="#8C46D4"/>
<path d="M107.619 103.426C109.09 104.132 110.774 103.319 111.382 101.611L112.552 98.3204C113.16 96.6124 112.46 94.6554 110.99 93.9496C109.519 93.2441 107.834 94.0567 107.226 95.765L106.056 99.0553C105.449 100.763 106.148 102.72 107.619 103.426Z" fill="#B080E2"/>
<path d="M109.891 93.6947C110.257 93.6947 110.63 93.7765 110.99 93.9491C112.46 94.6549 113.16 96.6119 112.552 98.3199L111.382 101.61C110.923 102.901 109.85 103.68 108.718 103.68C108.351 103.68 107.979 103.598 107.619 103.426C106.148 102.72 105.449 100.763 106.056 99.0546L107.226 95.7643C107.685 94.4741 108.759 93.6947 109.891 93.6947ZM109.891 92.3896C108.263 92.3896 106.809 93.5188 106.188 95.2661L105.018 98.5564C104.175 100.927 105.149 103.652 107.19 104.632C107.679 104.866 108.193 104.985 108.718 104.985C110.346 104.985 111.799 103.856 112.421 102.109L113.591 98.8182C113.999 97.6701 113.998 96.4058 113.588 95.2581C113.178 94.1107 112.407 93.2174 111.419 92.7429C110.93 92.5085 110.416 92.3896 109.891 92.3896Z" fill="#8C46D4"/>
<path d="M101.19 100.109C102.63 100.897 104.398 100.054 105.14 98.2256L106.57 94.7037C107.312 92.8759 106.746 90.7545 105.307 89.9663C103.868 89.1783 102.099 90.0211 101.357 91.8498L99.9279 95.3714C99.1858 97.1998 99.751 99.3205 101.19 100.109Z" fill="#B080E2"/>
<path d="M104.167 89.6704C104.553 89.6704 104.941 89.7653 105.307 89.9657C106.746 90.754 107.312 92.8753 106.57 94.7032L105.14 98.225C104.587 99.5883 103.463 100.404 102.33 100.404C101.944 100.404 101.556 100.309 101.19 100.108C99.7509 99.3199 99.1858 97.1993 99.9279 95.3708L101.357 91.8492C101.911 90.4857 103.034 89.6704 104.167 89.6704ZM104.167 88.3652C102.564 88.3652 101.062 89.5144 100.341 91.2928L98.9115 94.8142C97.9065 97.2903 98.7137 100.195 100.711 101.289C101.22 101.567 101.765 101.709 102.33 101.709C103.933 101.709 105.435 100.56 106.156 98.7815L107.586 95.2598C108.065 94.0802 108.151 92.7658 107.83 91.5587C107.497 90.3097 106.771 89.3248 105.786 88.7854C105.277 88.5065 104.732 88.3652 104.167 88.3652Z" fill="#8C46D4"/>
<path d="M95.3059 96.086C96.6799 97.0183 98.5221 96.3268 99.4204 94.5407L101.15 91.1013C102.049 89.3155 101.663 87.112 100.289 86.1796C98.9152 85.2473 97.073 85.9389 96.1749 87.725L94.4445 91.1642C93.5466 92.9501 93.932 95.1536 95.3059 96.086Z" fill="#B080E2"/>
<path d="M98.9556 85.7641C99.4168 85.7641 99.8743 85.8976 100.289 86.179C101.663 87.1114 102.049 89.3148 101.15 91.1008L99.4205 94.5401C98.7933 95.7871 97.7063 96.5004 96.6396 96.5004C96.1783 96.5004 95.7207 96.3669 95.306 96.0855C93.9321 95.1529 93.5467 92.9495 94.4446 91.1636L96.1749 87.7245C96.8019 86.4776 97.8889 85.7641 98.9556 85.7641ZM98.9556 84.459C97.4505 84.459 96.0133 85.458 95.2046 87.0663L93.4743 90.5051C92.2654 92.9098 92.8328 95.9184 94.739 97.2123C95.311 97.6003 95.9681 97.8055 96.6396 97.8055C98.1446 97.8055 99.5819 96.8066 100.391 95.1985L102.121 91.7591C102.695 90.618 102.891 89.3043 102.673 88.06C102.446 86.7613 101.801 85.6932 100.856 85.0522C100.284 84.6642 99.6269 84.459 98.9556 84.459Z" fill="#8C46D4"/>
<path d="M89.7836 92.6982C91.1679 93.6096 93.0824 92.7253 94.0597 90.7228L95.9421 86.8664C96.9198 84.8643 96.5897 82.5021 95.2055 81.5906C93.8214 80.6788 91.9067 81.563 90.9293 83.5654L89.0467 87.422C88.0694 89.4245 88.3992 91.7863 89.7836 92.6982Z" fill="#B080E2"/>
<path d="M94.0099 81.2308C94.4276 81.2308 94.8356 81.3462 95.2055 81.5899C96.5897 82.5014 96.9198 84.8637 95.9421 86.8658L94.0597 90.7222C93.3436 92.1895 92.1243 93.0565 90.9791 93.0565C90.5614 93.0565 90.1535 92.9411 89.7837 92.6976C88.3992 91.7857 88.0694 89.4239 89.0467 87.4214L90.9293 83.5648C91.6456 82.0977 92.8647 81.2308 94.0099 81.2308ZM94.0099 79.9258C92.4087 79.9258 90.8538 81.0735 89.9519 82.9211L88.0692 86.7777C86.7882 89.4027 87.3086 92.5676 89.2294 93.8329C89.7623 94.1837 90.351 94.3616 90.9791 94.3616C92.5805 94.3616 94.1355 93.2137 95.0373 91.3658L96.9197 87.5095C97.5182 86.2838 97.7488 84.8989 97.5688 83.61C97.3768 82.2354 96.7174 81.0854 95.7599 80.4548C95.227 80.1037 94.6382 79.9258 94.0099 79.9258Z" fill="#8C46D4"/>
<path d="M83.8783 88.3841C85.1924 89.4263 87.2422 88.5974 88.456 86.532L90.7939 82.5547C92.0078 80.4901 91.9266 77.9707 90.6124 76.9286C89.2981 75.8865 87.2485 76.7156 86.0348 78.7807L83.6967 82.758C82.483 84.8229 82.5642 87.3419 83.8783 88.3841Z" fill="#B080E2"/>
<path d="M89.3071 76.4779C89.7789 76.4779 90.2274 76.6226 90.6124 76.9279C91.9266 77.9701 92.0078 80.4895 90.7938 82.554L88.4559 86.5314C87.5978 87.9916 86.3221 88.8337 85.1837 88.8337C84.7118 88.8337 84.2633 88.6888 83.8783 88.3834C82.5641 87.3412 82.4829 84.8223 83.6967 82.7574L86.0348 78.78C86.893 77.32 88.1686 76.4779 89.3071 76.4779ZM89.3071 75.1729C87.7572 75.1729 86.1477 76.2731 85.1067 78.0444L82.7687 82.0216C81.181 84.7226 81.3901 87.9905 83.2447 89.4613C83.8034 89.9046 84.474 90.1388 85.1837 90.1388C86.7336 90.1388 88.3431 89.0384 89.384 87.2672L91.7218 83.2899C92.4435 82.0625 92.8172 80.6486 92.774 79.3087C92.7268 77.8434 92.1698 76.5828 91.2461 75.8501C90.6871 75.4071 90.0167 75.1729 89.3071 75.1729Z" fill="#8C46D4"/>
<path d="M79.3415 83.604C80.7341 84.4981 82.7239 83.4147 83.7857 81.1835L85.831 76.8863C86.8931 74.6555 86.6246 72.1219 85.2322 71.2277C83.8396 70.3333 81.8499 71.417 80.7878 73.6484L78.7425 77.9455C77.6809 80.1762 77.9492 82.7099 79.3415 83.604Z" fill="#B080E2"/>
<path d="M84.1571 70.9144C84.5355 70.9144 84.9008 71.0152 85.2321 71.2281C86.6245 72.1223 86.893 74.6558 85.8309 76.8867L83.7856 81.1839C82.9764 82.8843 81.6285 83.918 80.4165 83.918C80.0381 83.918 79.6727 83.8172 79.3415 83.6044C77.9492 82.7102 77.6809 80.1766 78.7425 77.9458L80.7878 73.6487C81.5971 71.9483 82.945 70.9144 84.1571 70.9144ZM84.1571 69.6094C82.4982 69.6094 80.7897 70.9471 79.8043 73.0174L77.759 77.3144C76.3763 80.22 76.8325 83.4845 78.7977 84.7465C79.2902 85.0627 79.8348 85.2229 80.4164 85.2229C82.0753 85.2229 83.7838 83.8853 84.7689 81.815L86.8142 77.5179C87.4415 76.2002 87.7089 74.7366 87.5671 73.3967C87.4111 71.9236 86.7582 70.7168 85.7758 70.0858C85.2835 69.7697 84.7388 69.6094 84.1571 69.6094Z" fill="#8C46D4"/>
<path d="M41.9895 31.8281H67.5208C69.264 31.8281 70.8751 32.9085 71.7471 34.6623L84.5124 60.3434C85.3844 62.0972 85.3844 64.2578 84.5124 66.0116L71.7471 91.6926C70.8751 93.4465 69.264 94.5268 67.5208 94.5268H41.9895C40.2463 94.5268 38.6349 93.4465 37.7635 91.6926L24.9975 66.0116C24.1261 64.2578 24.1261 62.0971 24.9975 60.3434L37.7634 34.6623C38.6348 32.9083 40.2462 31.8281 41.9895 31.8281Z" fill="#FF9A24"/>
<path d="M53.8405 83.4266C63.04 83.4266 70.4977 74.7646 70.4977 64.0795C70.4977 53.3944 63.04 44.7324 53.8405 44.7324C44.6411 44.7324 37.1834 53.3944 37.1834 64.0795C37.1834 74.7646 44.6411 83.4266 53.8405 83.4266Z" fill="url(#paint0_radial_202_223)"/>
<path opacity="0.3" d="M40.8611 36.9676C42.4311 36.422 44.0012 36.0739 45.5712 35.7705C47.1413 35.4729 48.7113 35.2644 50.2814 35.1002C51.8514 34.9421 53.4214 34.8449 54.9915 34.7943C56.5615 34.7367 58.1316 34.765 59.7016 34.9497C60.4866 35.041 61.2717 35.1557 62.0567 35.2973L63.2799 35.5166C63.8066 35.6062 64.3145 35.7826 64.7842 36.0304C65.7245 36.5286 66.5096 37.3043 67.0659 38.2265C67.2024 38.4595 67.3333 38.6938 67.4436 38.9404C67.5656 39.2037 67.6276 39.3895 67.7149 39.6025C67.8834 40.016 68.0545 40.4279 68.2347 40.8334C68.5931 41.6461 68.9723 42.4447 69.3783 43.2252C69.5775 43.618 69.7809 44.008 69.9924 44.3926C70.1981 44.7809 70.415 45.1618 70.6321 45.5426C71.4953 47.0691 72.4593 48.5276 73.4305 49.9811C73.9184 50.7064 74.4136 51.4267 74.8941 52.1569C75.3798 52.8836 75.8617 53.6129 76.3234 54.3558C77.2563 55.8352 78.1107 57.3676 78.9778 58.8916L79.6273 60.035L79.7896 60.3208L79.8708 60.4637C79.8976 60.5109 79.9218 60.5514 79.9658 60.639C80.1241 60.9416 80.2679 61.2566 80.3877 61.5848C80.8729 62.8946 81.0425 64.3808 80.8329 65.8125C80.731 66.5275 80.5447 67.2316 80.268 67.8855L80.1604 68.1281L80.0633 68.3394L79.9213 68.639L79.6321 69.2347C79.2456 70.0283 78.8473 70.8141 78.4377 71.5922C77.6184 73.1483 76.7619 74.6793 75.8729 76.1883C74.9914 77.7024 74.0769 79.1943 73.134 80.667C72.1916 82.14 71.2189 83.5926 70.2025 85.0155C69.1822 86.436 68.1381 87.8403 66.9889 89.1737L66.5802 88.8976C67.0092 87.078 67.5433 85.3292 68.1011 83.5965C68.6629 81.8665 69.2684 80.166 69.9041 78.4859C70.5395 76.8056 71.2031 75.1443 71.8997 73.5054C72.5888 71.8613 73.3105 70.2393 74.0693 68.6423C74.4487 67.8439 74.8396 67.0531 75.2421 66.2702L75.5447 65.6836L75.7755 65.2454C75.8547 65.0867 75.9254 64.9192 75.9674 64.7379C76.0508 64.3775 76.0691 63.9783 75.9802 63.5905C75.9586 63.4937 75.9308 63.3975 75.8982 63.3017C75.8969 63.2883 75.8711 63.2307 75.8485 63.1794L75.7817 63.0267L75.6482 62.7213L75.1142 61.4999C74.4031 59.8708 73.6793 58.2501 73.034 56.5765C72.7067 55.7428 72.3995 54.8956 72.096 54.0457C71.7874 53.1994 71.4936 52.3432 71.1925 51.4919C70.5856 49.7924 69.9713 48.0977 69.2564 46.4711C69.0789 46.0636 68.9013 45.6563 68.7125 45.2564C68.5295 44.8526 68.3383 44.4544 68.1429 44.0589C67.7599 43.2629 67.3501 42.485 66.9194 41.7211C66.705 41.3385 66.4816 40.9621 66.2556 40.5874C66.0077 40.1792 65.8394 39.9277 65.5992 39.6929C65.1354 39.2274 64.5559 38.9658 63.998 38.9193C63.7193 38.8928 63.4462 38.9155 63.1885 38.9774L63.0871 38.9998L62.9399 39.0266L62.6455 39.0799L62.0568 39.1867C61.2717 39.3283 60.4867 39.4431 59.7017 39.5343C58.1317 39.719 56.5616 39.7473 54.9916 39.6897C53.4215 39.6391 51.8515 39.5419 50.2814 39.3838C48.7114 39.2197 47.1414 39.0111 45.5713 38.7135C44.0013 38.4101 42.4312 38.062 40.8612 37.5163L40.8611 36.9676Z" fill="white"/>
<path d="M62.6914 65.3788C63.0614 59.4592 59.2298 54.3121 54.1334 53.8824C49.0369 53.4526 44.6055 57.9031 44.2355 63.8227C43.8656 69.7422 47.6971 74.8894 52.7936 75.3191C57.89 75.7488 62.3215 71.2984 62.6914 65.3788Z" fill="#EC3238"/>
<path d="M52.6674 72.6625C57.2747 72.6625 61.1922 69.2808 62.7097 64.543C62.7097 64.5623 62.712 64.5809 62.712 64.6004C62.712 70.5355 58.5697 75.3469 53.4598 75.3469C49.6557 75.3469 46.3911 72.6786 44.9691 68.8672C46.9187 71.2043 49.6443 72.6625 52.6674 72.6625Z" fill="#E3E3E3"/>
<path d="M46.6246 60.8551C47.1708 61.8715 48.9783 61.7062 50.6616 60.4857C52.3448 59.2652 53.2667 57.452 52.7204 56.4356C52.1744 55.4192 50.3669 55.5846 48.6837 56.8051C47.0004 58.0254 46.0785 59.8387 46.6246 60.8551Z" fill="#969696"/>
<path d="M40.8499 35.5152C40.7014 35.4061 40.5938 35.3197 40.4729 35.2218C40.3538 35.1272 40.241 35.0296 40.1264 34.9329C39.8998 34.7369 39.6756 34.5411 39.459 34.3339C39.0205 33.9287 38.6036 33.4916 38.1958 33.0432C37.3899 32.1324 36.6406 31.1289 36.0296 29.9785C35.9546 29.8333 35.8739 29.6951 35.8048 29.5445L35.604 29.0872C35.4622 28.7908 35.361 28.4595 35.2527 28.138L35.1727 27.8962C35.1496 27.8133 35.1321 27.7267 35.1119 27.6422L34.997 27.133C34.9541 26.9553 34.9347 26.8136 34.9096 26.6632L34.8358 26.2126C34.6378 25.0069 34.4484 23.7719 34.3407 22.5219C34.1113 20.0299 34.2105 17.441 34.8722 15.0468C35.5212 12.6482 36.7302 10.5221 38.2326 8.81934C36.8884 10.6967 35.9132 12.9077 35.5059 15.2412C35.0871 17.576 35.212 19.9742 35.6363 22.2898C35.8432 23.4528 36.1262 24.598 36.4277 25.761L36.5411 26.1991C36.5791 26.3446 36.6162 26.5011 36.6583 26.6123L36.7778 26.9765C36.7981 27.0369 36.8149 27.0979 36.8376 27.1576L36.9173 27.3341C37.0243 27.5686 37.1162 27.8064 37.2537 28.0285L37.4419 28.3667C37.5064 28.4785 37.5849 28.5839 37.6551 28.6926C38.2296 29.5577 38.9392 30.3358 39.7067 31.0375C40.0959 31.3828 40.4921 31.7196 40.9068 32.0261C41.111 32.1836 41.322 32.33 41.5309 32.4742C41.636 32.5446 41.741 32.6175 41.8455 32.6826C41.9464 32.7478 42.0629 32.8204 42.1415 32.8644L40.8499 35.5152Z" fill="#FF9A24"/>
<path d="M39.4109 13.1357C38.9486 13.428 38.5061 13.7578 38.078 14.1057C37.6509 14.455 37.2388 14.8268 36.8601 15.2333C36.4836 15.6398 36.1217 16.0651 35.8368 16.5386C35.5497 17.0072 35.3219 17.51 35.2161 18.0173L34.3816 17.7156C34.6061 17.0588 34.954 16.519 35.3344 16.0497C35.7149 15.5764 36.1491 15.193 36.589 14.8353C37.0305 14.479 37.4935 14.1703 37.965 13.8886C38.4373 13.6085 38.9178 13.3513 39.4109 13.1357Z" fill="#FF9A24"/>
<path d="M37.7839 34.9602C37.7828 34.9715 37.7823 34.9829 37.7823 34.9944C37.7824 35.0091 37.783 34.9884 37.783 34.9884L37.7857 34.9564C37.7886 34.9371 37.7859 34.8909 37.7869 34.8594C37.7903 34.7943 37.7819 34.7064 37.7782 34.6255C37.7767 34.5459 37.7642 34.4558 37.7544 34.3675C37.7431 34.2786 37.7387 34.1921 37.7199 34.0988C37.6623 33.7333 37.5828 33.3541 37.477 32.9746C37.3791 32.5936 37.2469 32.2141 37.1177 31.8326C37.05 31.6426 36.9703 31.455 36.8974 31.2655C36.8233 31.0762 36.7509 30.886 36.6624 30.7011C36.0037 29.2021 35.1718 27.7618 34.2619 26.3794L33.5591 25.3553C33.3226 25.0152 33.0676 24.6903 32.8225 24.3565L31.2898 22.3146C30.2827 20.9104 29.3219 19.4564 28.4642 17.9145C27.6073 16.374 26.8556 14.7412 26.2798 13.0253C25.996 12.1658 25.7597 11.2864 25.5609 10.4067C25.4592 9.96733 25.3713 9.52733 25.2769 9.09795C25.232 8.87952 25.1796 8.67455 25.1311 8.46208L25.0412 8.18545L24.9968 8.04688C24.9792 8.00174 24.9548 7.95922 24.9343 7.91509C24.6065 7.20351 24.058 6.59761 23.4396 6.12481C22.8176 5.64978 22.1184 5.29621 21.392 5.04741C20.6644 4.80044 19.9072 4.65164 19.1416 4.60933C18.3758 4.57674 17.6057 4.64385 16.8439 4.7973C17.5937 4.5819 18.364 4.44971 19.1431 4.41904C19.922 4.39819 20.7054 4.48524 21.4737 4.67887C22.2411 4.87483 22.9953 5.18183 23.6948 5.63682C24.3894 6.09322 25.0446 6.69741 25.5028 7.53643C25.5313 7.58866 25.563 7.63845 25.5886 7.69311L25.6578 7.86387C25.7027 7.97754 25.7513 8.09425 25.7919 8.20721C25.856 8.42352 25.9266 8.64388 25.9846 8.85766C26.1078 9.28875 26.2207 9.71479 26.3454 10.1326C26.5905 10.9705 26.8659 11.7856 27.1843 12.5779C27.8293 14.1581 28.634 15.6442 29.5408 17.0459C30.4479 18.4482 31.4543 19.7669 32.5043 21.037L34.1367 22.9237C34.4135 23.2505 34.699 23.567 34.9692 23.9034L35.7748 24.9207C36.8271 26.3055 37.8198 27.7764 38.6689 29.4096C38.7799 29.6091 38.878 29.8212 38.9771 30.0327C39.0753 30.2449 39.1787 30.4526 39.2723 30.6698C39.4546 31.1089 39.6383 31.5479 39.792 32.0156C39.9519 32.4775 40.0888 32.9615 40.2014 33.4703C40.233 33.5937 40.2529 33.7303 40.2774 33.8615C40.3008 33.994 40.3255 34.1241 40.3407 34.2681C40.3573 34.4101 40.3769 34.5445 40.3849 34.7038C40.3892 34.7842 40.3963 34.8498 40.3973 34.9427L40.3986 35.0788C40.3984 35.1059 40.3996 35.1142 40.3978 35.1569L40.3916 35.2751L37.7839 34.9602Z" fill="#FF9A24"/>
<path d="M22.9619 0.588867C23.7804 1.17362 24.4571 2.00484 25.0246 2.91299C25.5909 3.82792 26.0257 4.85055 26.3574 5.9164L26.5809 6.72687C26.6544 6.99794 26.6958 7.27761 26.7548 7.55354C26.8821 8.10489 26.9283 8.67 27.0031 9.23319C27.0472 9.51479 27.0453 9.79861 27.0655 10.0821L27.1111 10.9345C27.1105 11.5018 27.0985 12.0702 27.0919 12.6406L26.2215 12.5499L26.3465 10.9248L26.3558 10.1099C26.3542 9.83829 26.3747 9.56378 26.3497 9.29392C26.3129 8.7532 26.3054 8.20449 26.2177 7.66974C26.1786 7.40181 26.1569 7.12811 26.1034 6.86322L25.9401 6.06752C25.6889 5.01767 25.3352 3.99281 24.8424 3.05338C24.3479 2.12053 23.7384 1.24336 22.9619 0.588867Z" fill="#FF9A24"/>
<path d="M17.7646 9.45426C18.2846 8.95676 18.8232 8.48214 19.3917 8.05327C19.9603 7.62531 20.5579 7.23966 21.1971 6.94258C21.8349 6.64823 22.5212 6.43749 23.2402 6.43951C23.956 6.43506 24.7002 6.69276 25.302 7.19684L24.9024 7.80032C24.4379 7.3426 23.8494 7.06819 23.2194 7.00999C22.5892 6.94743 21.935 7.077 21.3063 7.3015C20.6758 7.52753 20.0647 7.84819 19.4754 8.21694C18.8856 8.5865 18.3175 9.00717 17.7646 9.45426Z" fill="#FF9A24"/>
<path d="M39.0043 36.2828C38.9626 36.1886 38.8906 36.0448 38.8286 35.923L38.6279 35.5408C38.4913 35.2854 38.3459 35.033 38.1995 34.7815C37.9032 34.2805 37.5899 33.7903 37.2611 33.3153C36.6043 32.3643 35.8832 31.4753 35.0973 30.6852C34.7059 30.2871 34.2938 29.9227 33.8674 29.5869C33.4417 29.249 32.9977 28.9472 32.5366 28.6936C32.0768 28.4367 31.6015 28.2173 31.1115 28.0653L30.9282 28.0038L30.7425 27.9571C30.6184 27.9282 30.4949 27.8883 30.3696 27.8675L29.9928 27.8023L29.5781 27.7398C28.4534 27.5925 27.3342 27.3563 26.2341 27.0367C25.1347 26.7149 24.0523 26.2991 23.0226 25.7444C21.9942 25.1906 21.0185 24.4933 20.1698 23.6293C19.3208 22.768 18.6062 21.7377 18.0915 20.5957C18.7012 21.6742 19.486 22.5958 20.3734 23.331C21.2611 24.0686 22.2469 24.6247 23.27 25.0394C24.2943 25.4544 25.3563 25.7312 26.4282 25.9172C27.5009 26.101 28.584 26.2039 29.6711 26.221L30.0847 26.2357L30.5354 26.2612C30.686 26.2696 30.8341 26.2977 30.984 26.3155L31.2086 26.3463L31.4303 26.3928C32.0249 26.5067 32.605 26.699 33.1672 26.9369C33.7315 27.1717 34.2752 27.4622 34.7963 27.7927C35.3185 28.1213 35.8237 28.4838 36.3035 28.8813C37.2674 29.6717 38.1539 30.5701 38.9718 31.5399C39.3814 32.0246 39.7745 32.5274 40.1523 33.0478C40.34 33.3096 40.5263 33.573 40.7066 33.8456L40.9757 34.2595C41.0674 34.4053 41.147 34.531 41.25 34.7111L39.0043 36.2828Z" fill="#FF9A24"/>
<path d="M21.8034 20.2168C22.029 20.787 22.2857 21.3385 22.5571 21.8766C22.8307 22.4131 23.1197 22.9376 23.4399 23.4302C23.7611 23.92 24.0941 24.3992 24.4728 24.808C24.8481 25.2177 25.2538 25.5775 25.6828 25.818L25.2556 26.7036C24.749 26.3135 24.3441 25.8291 23.9883 25.3207C23.6304 24.8124 23.3434 24.2598 23.0723 23.7049C22.8033 23.1479 22.5734 22.5719 22.3617 21.9903C22.1524 21.4074 21.9611 20.8176 21.8034 20.2168Z" fill="#FF9A24"/>
<path d="M17.438 26.46C18.275 26.8218 19.136 27.0993 20.004 27.3179C20.8729 27.5313 21.7517 27.6829 22.6304 27.7343C23.5082 27.7883 24.3871 27.7428 25.2327 27.5565C25.6542 27.4585 26.0675 27.3306 26.4628 27.1574C26.8562 26.9795 27.231 26.7619 27.5807 26.5054L28.0239 27.3804C27.5986 27.6394 27.1553 27.8447 26.7034 28.0005C26.2501 28.1514 25.7894 28.2475 25.3293 28.3095C24.4073 28.4229 23.4883 28.3804 22.5898 28.2396C21.6904 28.1008 20.8101 27.8617 19.9495 27.5636C19.0903 27.2604 18.2474 26.9002 17.438 26.46Z" fill="#FF9A24"/>
<path d="M43.3207 92.901C43.2566 92.9698 43.1634 93.0786 43.0832 93.1751C42.9995 93.2728 42.9173 93.378 42.8345 93.4809C42.6708 93.6896 42.5057 93.9011 42.3498 94.1208C42.0301 94.5545 41.7357 95.0107 41.45 95.4727C40.892 96.4038 40.4085 97.3883 40.076 98.4103C40.0362 98.538 39.9875 98.6655 39.9538 98.7942L39.8586 99.1815C39.7829 99.4406 39.7546 99.6992 39.7111 99.9597L39.6792 100.156C39.6726 100.22 39.6718 100.284 39.6675 100.349L39.6446 100.738C39.6323 100.858 39.6362 101.021 39.6362 101.173L39.6376 101.63C39.641 102.845 39.6576 104.036 39.7515 105.219C39.9265 107.577 40.4088 109.914 41.3951 112.006C42.3701 114.1 43.8578 115.885 45.6147 117.225C43.7504 116.105 42.0603 114.481 40.8377 112.406C39.6041 110.34 38.8598 107.897 38.4538 105.435C38.2432 104.203 38.1147 102.958 38.0015 101.737L37.9592 101.281C37.9455 101.129 37.9285 100.987 37.9249 100.802L37.9071 100.276C37.9052 100.189 37.9003 100.1 37.9014 100.013L37.9173 99.7544C37.9403 99.4101 37.954 99.059 38.0152 98.7274L38.0925 98.222C38.1208 98.0546 38.1634 97.895 38.1987 97.7308C38.4944 96.4234 38.9593 95.2099 39.5017 94.0658C39.7793 93.4987 40.0684 92.9396 40.3862 92.4035C40.5414 92.132 40.7068 91.8689 40.8744 91.6046C40.9598 91.4733 41.0432 91.3418 41.1334 91.2111C41.2244 91.0764 41.3057 90.9574 41.4204 90.8027L43.3207 92.901Z" fill="#FF9A24"/>
<path d="M45.6592 112.699C45.1333 112.659 44.6091 112.576 44.0871 112.468C43.5653 112.358 43.045 112.22 42.5332 112.028C42.0226 111.835 41.511 111.615 41.0283 111.291C40.5466 110.971 40.0783 110.573 39.6988 110.02L40.4214 109.449C40.6499 109.899 40.994 110.302 41.3862 110.654C41.7776 111.01 42.2305 111.294 42.6927 111.556C43.157 111.816 43.6445 112.033 44.1407 112.222C44.6375 112.41 45.1436 112.576 45.6592 112.699Z" fill="#FF9A24"/>
<path d="M41.0421 91.1875L41.0777 91.2984C41.09 91.3386 41.0909 91.347 41.098 91.3729L41.1309 91.5036C41.1531 91.5927 41.1629 91.658 41.1789 91.7363C41.2113 91.8914 41.2263 92.0265 41.2459 92.168C41.2676 92.3108 41.2765 92.4437 41.2874 92.5784C41.2969 92.7122 41.3122 92.8496 41.3129 92.9783C41.3328 93.5031 41.3233 94.0124 41.2863 94.5084C41.2566 95.0079 41.1911 95.49 41.1269 95.9717C41.0918 96.2111 41.045 96.4448 41.0043 96.6811C40.9625 96.917 40.9219 97.1531 40.8658 97.3814C40.4634 99.2312 39.8828 100.974 39.2236 102.655L38.7082 103.901C38.5342 104.314 38.3405 104.713 38.1576 105.12L37.0696 107.477C36.3837 109.048 35.7519 110.65 35.236 112.298C34.7203 113.946 34.3233 115.64 34.1028 117.37C33.997 118.235 33.938 119.108 33.9138 119.993C33.8993 120.435 33.8982 120.88 33.8886 121.334C33.8867 121.558 33.8745 121.793 33.8675 122.022C33.857 122.144 33.8398 122.272 33.8253 122.396L33.8019 122.582C33.7911 122.643 33.7733 122.702 33.7592 122.761C33.5313 123.719 33.0563 124.519 32.5063 125.191C31.9514 125.863 31.3069 126.412 30.622 126.859C29.9356 127.304 29.2081 127.653 28.4578 127.896C27.7048 128.131 26.9348 128.265 26.1635 128.313C26.9307 128.202 27.6842 128.005 28.4086 127.715C29.1303 127.415 29.8174 127.016 30.4513 126.534C31.0837 126.05 31.664 125.475 32.1397 124.81C32.6126 124.149 32.9853 123.383 33.1203 122.592C33.1288 122.542 33.1414 122.494 33.1469 122.444L33.1547 122.297L33.1712 122.002C33.1644 121.782 33.1631 121.568 33.1512 121.344C33.1337 120.902 33.1074 120.451 33.0945 119.996C33.0639 119.087 33.0693 118.166 33.1251 117.248C33.2455 115.412 33.5548 113.595 33.9881 111.832C34.4216 110.066 34.976 108.35 35.5871 106.666L36.5408 104.194C36.6915 103.792 36.8539 103.395 36.9949 102.989L37.4102 101.772C37.9337 100.142 38.3681 98.482 38.6222 96.8252C38.6604 96.6183 38.682 96.4118 38.7053 96.2057C38.7276 95.9997 38.7567 95.7934 38.7738 95.5887C38.8018 95.18 38.833 94.7721 38.831 94.3746C38.837 93.9758 38.8179 93.5862 38.7813 93.2172C38.7759 93.1215 38.7584 93.0374 38.7469 92.9484C38.7343 92.8606 38.7236 92.7703 38.705 92.6936C38.6883 92.615 38.6742 92.5281 38.6547 92.4669C38.6459 92.4371 38.6369 92.392 38.6293 92.3745L38.6187 92.3449C38.6187 92.3449 38.613 92.3253 38.6165 92.3394C38.6194 92.3503 38.6227 92.361 38.6267 92.3716L41.0421 91.1875Z" fill="#FF9A24"/>
<path d="M33.0718 130.267C33.6505 129.378 34.0133 128.333 34.2525 127.273C34.4881 126.208 34.5693 125.107 34.5462 124.018L34.5027 123.202C34.4873 122.93 34.4394 122.661 34.4096 122.392C34.3593 121.85 34.2289 121.323 34.1284 120.793C34.0846 120.527 33.996 120.271 33.9295 120.011L33.7161 119.234L33.1888 117.722L33.9988 117.341C34.1482 117.884 34.3022 118.424 34.4452 118.966L34.6154 119.797C34.6671 120.075 34.7402 120.346 34.7686 120.63C34.8383 121.194 34.9359 121.75 34.9524 122.321C34.9653 122.605 34.9958 122.886 34.9936 123.171L34.9831 124.022C34.9332 125.153 34.7739 126.279 34.4618 127.346C34.1469 128.406 33.7081 129.431 33.0718 130.267Z" fill="#FF9A24"/>
<path d="M25.8759 123.547C26.517 123.787 27.166 123.997 27.8229 124.151C28.4791 124.305 29.1441 124.404 29.804 124.407C30.4617 124.409 31.1201 124.312 31.7072 124.039C32.2952 123.77 32.7893 123.308 33.1188 122.713L33.6525 123.155C33.2032 123.841 32.5561 124.339 31.8702 124.577C31.1828 124.822 30.4735 124.853 29.7896 124.788C29.1037 124.72 28.4351 124.553 27.7839 124.336C27.1324 124.118 26.4981 123.847 25.8759 123.547Z" fill="#FF9A24"/>
<path d="M42.0047 91.4365C41.9514 91.6437 41.9067 91.7908 41.8555 91.9614L41.702 92.4485C41.5978 92.7703 41.4858 93.0853 41.3719 93.3992C41.141 94.0249 40.8912 94.6388 40.621 95.2413C40.0818 96.4458 39.4593 97.6053 38.7355 98.6876C38.3763 99.2303 37.9839 99.748 37.5669 100.239C37.1513 100.732 36.704 101.194 36.2232 101.609C35.745 102.027 35.2385 102.407 34.6982 102.718L34.4979 102.837L34.2908 102.943C34.1519 103.01 34.0173 103.087 33.8753 103.146L33.4506 103.323L33.0586 103.477C32.023 103.862 31.0127 104.327 30.0327 104.866C29.054 105.406 28.1075 106.031 27.2318 106.774C26.3572 107.517 25.5537 108.383 24.8896 109.389C24.2251 110.393 23.7056 111.54 23.3929 112.778C23.5987 111.511 24.0238 110.284 24.62 109.173C25.2151 108.059 25.9735 107.062 26.8183 106.184C27.6642 105.305 28.5951 104.54 29.5661 103.861C30.5383 103.182 31.5497 102.578 32.5886 102.056L32.9696 101.856L33.3136 101.666C33.4283 101.604 33.5365 101.524 33.6479 101.454L33.8138 101.347L33.9737 101.226C34.4044 100.915 34.8039 100.544 35.1794 100.142C35.5568 99.7438 35.9057 99.3047 36.2282 98.8375C36.5519 98.3719 36.8546 97.884 37.1292 97.3706C37.6828 96.3488 38.1495 95.2541 38.5392 94.1222C38.7346 93.5566 38.9112 92.9815 39.0689 92.402C39.146 92.1119 39.2217 91.8212 39.2883 91.5307L39.3844 91.0971C39.4132 90.9596 39.446 90.7977 39.4623 90.6934L42.0047 91.4365Z" fill="#FF9A24"/>
<path d="M27.0392 111.885C27.0393 111.256 27.0744 110.628 27.1283 109.999C27.1848 109.371 27.2602 108.742 27.3779 108.118C27.498 107.496 27.6339 106.87 27.8487 106.263C28.0616 105.656 28.3273 105.056 28.7141 104.511L29.345 105.213C28.9949 105.589 28.697 106.07 28.4409 106.589C28.1811 107.108 27.9828 107.679 27.7984 108.257C27.6158 108.836 27.4709 109.436 27.3437 110.042C27.2191 110.648 27.1119 111.263 27.0392 111.885Z" fill="#FF9A24"/>
<path d="M21.2966 107.39C21.9605 106.695 22.6765 106.065 23.4223 105.484C24.1707 104.907 24.9527 104.381 25.7784 103.943C26.6025 103.505 27.471 103.153 28.3815 102.949C28.8372 102.853 29.302 102.789 29.7735 102.78C30.2448 102.776 30.7204 102.822 31.1923 102.926L30.9879 103.913C30.589 103.786 30.1758 103.704 29.7549 103.667C29.3334 103.636 28.9058 103.653 28.4781 103.702C27.6224 103.81 26.7703 104.064 25.9441 104.413C25.1164 104.759 24.3138 105.202 23.5361 105.7C22.7606 106.203 22.0065 106.76 21.2966 107.39Z" fill="#FF9A24"/>
<path d="M83.1396 60.2176C83.2177 60.2649 83.3374 60.3303 83.4431 60.3854C83.5509 60.4441 83.6637 60.499 83.7754 60.5549C83.9998 60.6644 84.2274 60.7737 84.4581 60.8712C84.9176 61.077 85.387 61.2455 85.8578 61.407C86.8007 61.7104 87.7617 61.915 88.7019 61.9446L89.0546 61.9539C89.1707 61.9509 89.2842 61.9372 89.3998 61.93C89.5144 61.92 89.6316 61.9164 89.7453 61.9021L90.0792 61.8365C90.3089 61.8075 90.5159 61.7245 90.7299 61.6537L90.891 61.601C90.947 61.5813 91.013 61.5495 91.0735 61.5244L91.4434 61.3646C92.4246 60.9419 93.3813 60.5136 94.3033 60.0036C96.146 58.9991 97.8577 57.6514 99.1745 55.8244C100.498 54.0088 101.368 51.7355 101.782 49.3418C101.586 51.769 100.923 54.2021 99.7045 56.2863C98.497 58.3789 96.7847 60.0601 94.9348 61.3569C94.0112 62.014 93.0484 62.5852 92.1018 63.1301L91.7486 63.3339C91.6881 63.3678 91.6353 63.4016 91.5684 63.4355L91.3588 63.5372C91.0786 63.6726 90.7961 63.8154 90.5067 63.8939L90.0728 64.0331C89.928 64.0701 89.7831 64.0947 89.6377 64.1254C89.4924 64.1532 89.346 64.1868 89.2007 64.2083L88.7662 64.2525C87.6055 64.3583 86.4666 64.2512 85.3583 64.0378C84.8066 63.9213 84.256 63.7939 83.7153 63.6258C83.4433 63.5469 83.1746 63.4555 82.9043 63.3607C82.7694 63.3121 82.6346 63.2649 82.4984 63.2106C82.3589 63.1568 82.2349 63.1081 82.0716 63.0355L83.1396 60.2176Z" fill="#FF9A24"/>
<path d="M98.1268 50.8418C98.2914 51.432 98.421 52.0364 98.5303 52.6477C98.6388 53.2592 98.7221 53.8799 98.762 54.511C98.8011 55.1415 98.8161 55.7831 98.739 56.4332C98.6638 57.0806 98.5217 57.7455 98.2109 58.3702L97.4813 57.7916C97.76 57.3786 97.9548 56.8481 98.0885 56.2864C98.2266 55.7234 98.2861 55.1209 98.3202 54.5164C98.3542 53.9103 98.3459 53.2957 98.3113 52.6818C98.276 52.0678 98.2198 51.4521 98.1268 50.8418Z" fill="#FF9A24"/>
<path d="M82.5807 63.3622L82.6608 63.2802L82.7147 63.2306L82.8112 63.1458C82.8761 63.0896 82.9268 63.0545 82.9857 63.0086C83.1023 62.916 83.2071 62.8532 83.3169 62.7799C83.4269 62.7045 83.5322 62.65 83.6392 62.5892C83.7458 62.5299 83.8531 62.4675 83.9584 62.4213C84.1699 62.3215 84.3818 62.2184 84.5917 62.1438C84.8022 62.0612 85.0124 61.98 85.2218 61.9212C85.6412 61.7802 86.0581 61.6929 86.4746 61.5955L87.097 61.4911L87.4077 61.4401L87.717 61.4081C89.3673 61.2257 90.9885 61.2812 92.5849 61.4438L93.7777 61.5906C94.1732 61.6495 94.5659 61.7231 94.9596 61.7888L97.2517 62.1889C98.7672 62.4148 100.29 62.5626 101.811 62.5684C103.331 62.5712 104.849 62.4336 106.331 62.0672C107.074 61.89 107.802 61.6397 108.531 61.3577L109.635 60.9171L109.921 60.8105L110.064 60.7575L110.224 60.7155L110.548 60.637L110.87 60.6147C111.73 60.5765 112.53 60.8679 113.257 61.2625C113.987 61.6611 114.651 62.1878 115.245 62.7954C115.84 63.4019 116.37 64.0846 116.836 64.8171C117.292 65.5603 117.676 66.3544 117.997 67.1779C117.626 66.3821 117.197 65.6281 116.706 64.9354C116.203 64.2536 115.646 63.6316 115.036 63.0944C114.428 62.5559 113.763 62.1073 113.061 61.793C112.365 61.4794 111.615 61.2883 110.916 61.3826L110.658 61.4204L110.414 61.5032L110.292 61.544L110.16 61.6052L109.897 61.7277L108.822 62.2584C108.094 62.6087 107.344 62.9357 106.574 63.1868C105.036 63.7021 103.445 63.9787 101.857 64.1069C100.267 64.2321 98.6758 64.2088 97.0926 64.1043L94.7465 63.891C94.3667 63.8594 93.9873 63.8197 93.6083 63.7946L92.4728 63.7492C90.9635 63.7195 89.46 63.7981 88.0221 64.0786L87.7522 64.1286L87.4882 64.1952L86.9616 64.3278C86.6211 64.4393 86.2762 64.5394 85.9552 64.6791C85.7888 64.7393 85.6345 64.8158 85.4803 64.8909C85.3212 64.9607 85.1798 65.0477 85.0349 65.1293C84.9598 65.1683 84.8964 65.215 84.8301 65.2589C84.7651 65.3033 84.6941 65.3455 84.6401 65.3921C84.5844 65.4372 84.518 65.4826 84.4777 65.5243C84.4574 65.5439 84.4254 65.5689 84.4142 65.5829L84.3961 65.6031C84.3961 65.6031 84.3834 65.6155 84.3933 65.6067C84.4021 65.5986 84.4107 65.59 84.4187 65.5809L82.5807 63.3622Z" fill="#FF9A24"/>
<path d="M116.974 58.8285C116.061 58.496 115.094 58.444 114.156 58.5371C113.214 58.6348 112.297 58.9142 111.426 59.3086L110.783 59.6368C110.567 59.7407 110.369 59.8913 110.162 60.0156C109.744 60.2578 109.364 60.5798 108.974 60.8761C108.776 61.0168 108.6 61.2004 108.416 61.3655L107.868 61.8706C107.521 62.235 107.184 62.611 106.843 62.9782L106.24 62.2284C106.624 61.8732 107.002 61.5127 107.388 61.1662L107.997 60.6879C108.202 60.5324 108.396 60.36 108.615 60.2295C109.044 59.9544 109.46 59.6577 109.915 59.442C110.14 59.3311 110.354 59.1953 110.587 59.106L111.278 58.8249C112.211 58.4959 113.176 58.2942 114.145 58.2807C115.109 58.2714 116.084 58.4145 116.974 58.8285Z" fill="#FF9A24"/>
<path d="M114.274 69.1281C114.226 68.3281 114.151 67.5308 114.027 66.7463C113.903 65.9625 113.732 65.1894 113.485 64.4572C113.239 63.7276 112.913 63.0338 112.474 62.4767C112.037 61.9175 111.48 61.5228 110.871 61.3577L111.052 60.6172C111.776 60.8842 112.41 61.4311 112.854 62.1048C113.304 62.7783 113.594 63.5503 113.798 64.3313C114.002 65.1152 114.12 65.917 114.191 66.7191C114.261 67.5219 114.281 68.3262 114.274 69.1281Z" fill="#FF9A24"/>
<path d="M82.4582 62.1842C82.6485 62.1724 82.7856 62.1714 82.9443 62.1699L83.4002 62.174C83.7023 62.1799 84.0014 62.1964 84.3003 62.2166C84.8973 62.26 85.4909 62.3292 86.0816 62.4257C87.2626 62.6187 88.4344 62.9173 89.5753 63.3608C90.1458 63.5794 90.7082 63.8362 91.2551 64.1384C91.8019 64.4389 92.3375 64.7739 92.844 65.1687C93.35 65.5621 93.8401 65.9884 94.2818 66.4814C94.3965 66.5979 94.5018 66.7277 94.6079 66.8554C94.7126 66.985 94.824 67.1058 94.9201 67.2448L95.2162 67.6505L95.4808 68.027C96.171 69.0366 96.915 69.9926 97.7079 70.8903C98.5012 71.7865 99.3491 72.6206 100.268 73.339C101.186 74.0563 102.177 74.6568 103.236 75.0563C104.293 75.4567 105.419 75.6486 106.55 75.571C105.432 75.7766 104.271 75.7162 103.149 75.4277C102.025 75.141 100.943 74.6354 99.9263 73.9986C98.9086 73.3609 97.9539 72.5941 97.0514 71.7572C96.1493 70.9189 95.2929 70.0132 94.4911 69.0509L94.1881 68.6963L93.9072 68.3809C93.8172 68.2724 93.7118 68.1809 93.6144 68.0813C93.5154 67.9834 93.4184 67.8837 93.3115 67.7963C92.904 67.4216 92.4548 67.1077 91.9955 66.8213C91.5362 66.5338 91.05 66.2985 90.5551 66.0925C90.0604 65.8851 89.5511 65.7169 89.0334 65.5823C87.9998 65.3071 86.9345 65.1595 85.8658 65.1077C85.3314 65.0818 84.7956 65.0805 84.2628 65.1024C83.9966 65.1148 83.7306 65.1302 83.4679 65.1552L83.0769 65.1964C82.9535 65.2113 82.8085 65.2304 82.7174 65.2479L82.4582 62.1842Z" fill="#FF9A24"/>
<path d="M104.463 71.8229C103.953 72.0387 103.429 72.2154 102.899 72.3703C102.368 72.5216 101.831 72.6534 101.282 72.7346C100.734 72.8135 100.178 72.8721 99.6102 72.8418C99.0437 72.8112 98.4652 72.7182 97.892 72.4805L98.2513 71.543C98.6777 71.8003 99.1692 71.9678 99.6783 72.0762C100.189 72.186 100.72 72.215 101.253 72.2227C101.787 72.2283 102.324 72.1834 102.86 72.1178C103.396 72.0484 103.933 71.9565 104.463 71.8229Z" fill="#FF9A24"/>
<path d="M103.007 79.7449C102.195 79.2425 101.418 78.6608 100.671 78.0304C99.9256 77.3955 99.2092 76.7071 98.5491 75.9414C97.8883 75.1776 97.2811 74.3369 96.7768 73.3988C96.5287 72.9275 96.3023 72.4351 96.1182 71.9153C95.9377 71.3939 95.7954 70.8494 95.7014 70.2871L96.5757 70.1396C96.6238 70.6322 96.7149 71.1233 96.8441 71.6065C96.9771 72.0887 97.1528 72.559 97.3528 73.0186C97.761 73.9342 98.2841 74.7937 98.8729 75.5926C99.4608 76.3938 100.116 77.1348 100.808 77.8295C101.502 78.52 102.233 79.169 103.007 79.7449Z" fill="#FF9A24"/>
<path d="M70.5103 90.2461C70.5339 90.4121 70.5741 90.6302 70.6142 90.8261C70.6557 91.0267 70.6986 91.2293 70.7489 91.4291C70.8432 91.8318 70.9607 92.2252 71.0824 92.6165C71.3361 93.3914 71.6477 94.1363 72.0389 94.7911L72.1867 95.0359C72.2383 95.114 72.2944 95.1855 72.3479 95.2614C72.4025 95.3353 72.4549 95.4138 72.5113 95.4854L72.6888 95.6851C72.8028 95.8294 72.9342 95.9349 73.0626 96.0505L73.1589 96.1377C73.1931 96.1674 73.2376 96.1989 73.2765 96.2293L73.5172 96.4129C74.1551 96.9005 74.7852 97.3688 75.4418 97.7781C76.7465 98.6025 78.1683 99.1893 79.6621 99.2995C81.1528 99.4187 82.6796 99.0307 84.0705 98.2799C82.7569 99.1944 81.2389 99.793 79.6572 99.8611C78.0761 99.9404 76.4854 99.4973 75.0297 98.7944C74.298 98.4475 73.5928 98.0367 72.9079 97.6257L72.6522 97.4725C72.6089 97.4459 72.569 97.4243 72.523 97.3935L72.3809 97.2943C72.1914 97.1613 71.997 97.0303 71.8321 96.8665L71.5742 96.6303C71.4929 96.5474 71.4178 96.459 71.3394 96.373C71.2626 96.2857 71.1824 96.2003 71.1086 96.1104L70.8986 95.8328C70.3436 95.0857 69.9058 94.2616 69.5349 93.4125C69.3556 92.9853 69.1822 92.5542 69.0338 92.1124C68.9562 91.8924 68.8865 91.6695 68.8175 91.4439C68.7483 91.2133 68.687 91.0019 68.6224 90.7348L70.5103 90.2461Z" fill="#FF9A24"/>
<path d="M81.7321 96.4307C81.5044 96.798 81.2545 97.1477 80.9923 97.4864C80.7295 97.8247 80.4513 98.1498 80.149 98.4497C79.8467 98.7488 79.5284 99.0362 79.166 99.2644C78.8058 99.4929 78.4078 99.683 77.9574 99.7407L77.935 98.9923C78.2645 99.0043 78.6172 98.9081 78.9593 98.7568C79.304 98.6079 79.6347 98.3882 79.9555 98.1504C80.277 97.9117 80.5845 97.6406 80.8804 97.3517C81.176 97.0623 81.4634 96.7578 81.7321 96.4307Z" fill="#FF9A24"/>
<path d="M68.6768 91.2227L68.753 91.2419L68.8014 91.2573L68.886 91.2865C68.9425 91.3066 68.9822 91.3261 69.0309 91.3464C69.128 91.3861 69.2052 91.4306 69.2897 91.4739C69.4532 91.5629 69.6045 91.6565 69.7484 91.7571C69.8902 91.8584 70.0339 91.9586 70.1624 92.0698C70.2951 92.1779 70.4271 92.2864 70.5473 92.4039C70.7999 92.6294 71.0243 92.8764 71.2535 93.1188C71.465 93.3747 71.6917 93.6185 71.8851 93.8864C72.6904 94.9346 73.3628 96.0657 73.9702 97.2263L74.4112 98.1043C74.5522 98.3999 74.6847 98.7 74.8215 98.9972L75.6093 100.735C76.1497 101.868 76.7328 102.972 77.387 104.013C78.0421 105.052 78.7678 106.03 79.5936 106.884C80.0043 107.315 80.4452 107.704 80.9029 108.08L81.603 108.643L81.7805 108.793C81.8391 108.839 81.8988 108.893 81.9598 108.959L82.1392 109.146L82.2898 109.356C82.6807 109.927 82.8791 110.6 82.9933 111.267C83.1066 111.937 83.1267 112.618 83.0758 113.286C83.026 113.955 82.9092 114.612 82.7401 115.247C82.5606 115.879 82.3243 116.484 82.0462 117.059C82.2888 116.462 82.4854 115.844 82.6237 115.209C82.7518 114.571 82.8258 113.921 82.8344 113.273C82.8444 112.625 82.7839 111.977 82.64 111.362C82.4978 110.75 82.271 110.156 81.9212 109.72L81.7902 109.559L81.643 109.429C81.5982 109.384 81.5429 109.341 81.4817 109.299L81.3059 109.172L80.5727 108.668C80.0808 108.322 79.5912 107.951 79.1316 107.533C78.2064 106.706 77.379 105.739 76.6279 104.709C75.8776 103.677 75.2019 102.581 74.5708 101.454L73.6652 99.7597C73.517 99.4867 73.3732 99.2104 73.2221 98.9407L72.7545 98.1456C72.1174 97.102 71.428 96.1092 70.6648 95.2483C70.4794 95.0241 70.2739 94.8374 70.0805 94.6317C69.8769 94.4473 69.6772 94.255 69.4678 94.096C69.3654 94.0083 69.2601 93.936 69.1554 93.8632C69.0514 93.7846 68.9462 93.7256 68.8423 93.662C68.7393 93.6007 68.635 93.5486 68.5387 93.5059C68.4917 93.4874 68.4401 93.4615 68.4016 93.452C68.3828 93.4467 68.3564 93.4356 68.3445 93.4339L68.3265 93.4304C68.3265 93.4304 68.3148 93.427 68.3234 93.43L68.3476 93.4362L68.6768 91.2227Z" fill="#FF9A24"/>
<path d="M85.8314 112.754C85.605 111.986 85.2137 111.303 84.7613 110.703C84.3052 110.102 83.7674 109.597 83.1912 109.172L82.7473 108.874C82.6016 108.772 82.4397 108.702 82.2873 108.614C81.9842 108.433 81.6569 108.313 81.3387 108.175C81.1815 108.1 81.0128 108.059 80.8494 108.005L80.3571 107.849C80.023 107.77 79.6869 107.702 79.3536 107.628L79.4726 106.892C79.8183 107 80.1641 107.103 80.5065 107.217L81.0116 107.426C81.1788 107.499 81.3498 107.557 81.5105 107.65C81.8352 107.824 82.1652 107.98 82.4708 108.197C82.6242 108.303 82.7857 108.391 82.9314 108.511L83.3722 108.862C83.9418 109.357 84.4611 109.929 84.8862 110.584C85.3078 111.239 85.6565 111.967 85.8314 112.754Z" fill="#FF9A24"/>
<path d="M79.4508 115.359C80.2157 114.602 80.9401 113.771 81.473 112.802C81.736 112.319 81.9469 111.797 82.0392 111.256C82.1338 110.717 82.0925 110.166 81.9144 109.678L82.3674 109.481C82.5435 110.092 82.5409 110.761 82.3917 111.355C82.2452 111.954 81.9793 112.485 81.672 112.961C81.0495 113.914 80.2654 114.674 79.4508 115.359Z" fill="#FF9A24"/>
<path d="M69.22 90.6299C69.383 90.8631 69.5009 91.0549 69.6323 91.2689C69.7598 91.4777 69.8806 91.6893 69.9995 91.902C70.2355 92.3286 70.4569 92.7638 70.6633 93.209C71.0759 94.0989 71.4309 95.0282 71.6994 95.999C71.97 96.967 72.1513 97.9809 72.1964 99.0126C72.2159 99.5281 72.2118 100.047 72.153 100.562C72.1284 100.819 72.0883 101.075 72.0423 101.327L71.9649 101.705L71.8885 102.048C71.6756 102.956 71.5131 103.877 71.4012 104.807C71.2903 105.736 71.2342 106.675 71.2674 107.613C71.3008 108.55 71.4252 109.486 71.6804 110.382C71.9344 111.277 72.3237 112.129 72.8518 112.868C72.2646 112.193 71.7935 111.374 71.4548 110.483C71.1144 109.592 70.9025 108.634 70.7859 107.665C70.6691 106.694 70.6448 105.711 70.6786 104.733C70.7133 103.755 70.8018 102.778 70.9425 101.815L70.9911 101.455L71.0294 101.127C71.05 100.907 71.0659 100.688 71.068 100.467C71.0816 100.027 71.0465 99.5844 70.993 99.1471C70.8797 98.2714 70.6505 97.4119 70.3404 96.5886C70.0331 95.7639 69.6475 94.9724 69.212 94.2202C68.9942 93.844 68.7634 93.4775 68.5221 93.123C68.4008 92.9466 68.2781 92.7716 68.1519 92.603C68.0298 92.4393 67.89 92.257 67.7807 92.1305L69.22 90.6299Z" fill="#FF9A24"/>
<path d="M73.848 109.822C73.5181 109.567 73.2024 109.286 72.895 108.991C72.5891 108.694 72.29 108.383 72.012 108.044C71.7352 107.704 71.4653 107.349 71.2354 106.948C71.0062 106.548 70.8033 106.113 70.676 105.619L71.3059 105.459C71.3598 105.861 71.4873 106.269 71.6524 106.664C71.8174 107.06 72.0323 107.436 72.2585 107.803C72.4862 108.17 72.741 108.517 73.006 108.855C73.2728 109.191 73.5511 109.518 73.848 109.822Z" fill="#FF9A24"/>
<path d="M69.208 112.251C69.1111 111.48 69.073 110.698 69.0689 109.915C69.07 109.133 69.1036 108.346 69.2087 107.564C69.3165 106.785 69.4737 106.006 69.7298 105.256C69.9956 104.511 70.3562 103.797 70.8396 103.176L71.2921 103.709C70.8393 104.208 70.4664 104.816 70.1713 105.485C69.8849 106.16 69.682 106.89 69.5254 107.635C69.3711 108.382 69.2845 109.15 69.23 109.922C69.1807 110.695 69.1646 111.474 69.208 112.251Z" fill="#FF9A24"/>
<path d="M26.3187 62.7832C26.0855 62.8434 25.8962 62.8807 25.6884 62.9189C25.4848 62.955 25.2826 62.9891 25.0791 63.0137C24.6736 63.0707 24.2647 63.0972 23.8558 63.1155C23.0364 63.1376 22.2041 63.0792 21.3749 62.8644L21.0649 62.7807C20.9618 62.7478 20.8591 62.706 20.7566 62.6686C20.6542 62.6291 20.5517 62.594 20.4505 62.55L20.1493 62.3978C19.9471 62.3066 19.7557 62.1696 19.5652 62.0384L19.4227 61.94C19.3775 61.9075 19.3423 61.8768 19.3016 61.845L19.0646 61.6557C18.4289 61.1492 17.7838 60.6218 17.1746 60.037C15.9528 58.8798 14.8643 57.4612 14.177 55.8055C13.4807 54.1545 13.2169 52.3178 13.2895 50.541C13.3776 52.3196 13.8053 54.0655 14.6007 55.5349C15.3905 57.0117 16.5081 58.1893 17.7505 59.1346C18.3716 59.6129 19.0247 60.0363 19.6963 60.4587L19.9494 60.6182C19.9909 60.6436 20.0357 60.6744 20.0744 60.6953L20.1861 60.7526C20.3346 60.8293 20.4767 60.914 20.6401 60.9624L20.8755 61.0496C20.9564 61.0735 21.0407 61.09 21.1226 61.111C21.2055 61.1299 21.2862 61.1534 21.3699 61.1694L21.6255 61.2048C22.3072 61.2955 23.0196 61.2622 23.7275 61.1554C24.0819 61.0949 24.4358 61.0291 24.7859 60.9351C24.9612 60.8922 25.1353 60.8403 25.3071 60.788C25.4747 60.7363 25.6591 60.6744 25.7962 60.62L26.3187 62.7832Z" fill="#FF9A24"/>
<path d="M15.7979 52.0605C15.6767 52.4903 15.5816 52.9284 15.5019 53.3678C15.4227 53.8072 15.3624 54.2501 15.3334 54.6921C15.3047 55.1328 15.2944 55.5751 15.3444 55.9983C15.3914 56.42 15.4853 56.8264 15.6502 57.1579L15.072 57.489C14.9026 57.0007 14.8586 56.5034 14.8615 56.0268C14.8633 55.5479 14.9307 55.0862 15.0147 54.6354C15.0994 54.1843 15.2144 53.7458 15.3469 53.3169C15.4798 52.8884 15.6268 52.4673 15.7979 52.0605Z" fill="#FF9A24"/>
<path d="M24.3984 64.3425L24.4145 64.3642C24.4209 64.3717 24.4128 64.3613 24.4128 64.3613L24.4015 64.3446C24.3947 64.3332 24.3737 64.3113 24.3608 64.2947C24.3355 64.2598 24.2915 64.2191 24.2551 64.1798C24.1772 64.1015 24.0884 64.0194 23.9932 63.9429C23.8958 63.8667 23.8013 63.787 23.6925 63.7176C23.5878 63.6449 23.4831 63.5713 23.3681 63.5079C23.1486 63.3689 22.9083 63.2554 22.6722 63.1342C22.4246 63.0335 22.1858 62.9116 21.928 62.8278C20.9141 62.4538 19.8349 62.2179 18.7419 62.0594L17.9176 61.9568C17.6416 61.9298 17.364 61.9132 17.0868 61.8907L15.3731 61.7651C14.2201 61.652 13.0685 61.4791 11.931 61.1991C10.795 60.9172 9.67002 60.5277 8.60473 59.9722C8.07087 59.6991 7.55783 59.3735 7.06275 59.0336L6.33298 58.5221L6.15363 58.4023C6.09289 58.3594 6.03415 58.3231 5.97925 58.2983L5.81053 58.2095L5.62691 58.1513C5.13026 57.9998 4.57217 58.0485 4.04127 58.192C3.5068 58.3356 2.98636 58.5802 2.49964 58.8968C2.01179 59.2123 1.55409 59.5952 1.13073 60.0278C0.714345 60.4696 0.338392 60.9633 0 61.494C0.304753 60.9374 0.652121 60.4094 1.04681 59.9268C1.44865 59.4533 1.89162 59.0232 2.37537 58.656C2.85825 58.2879 3.38418 57.9866 3.94637 57.7855C4.50646 57.5872 5.11048 57.4721 5.72844 57.6021L5.95938 57.6566L6.18588 57.7518C6.26501 57.7829 6.33359 57.8189 6.39686 57.8567L6.59407 57.9677L7.35278 58.4177C7.85448 58.7083 8.35802 58.9757 8.8789 59.1922C9.91717 59.6336 11.0021 59.9139 12.1001 60.0931C13.1993 60.2701 14.3125 60.3449 15.4273 60.3624L17.1185 60.3466C17.4087 60.3461 17.6989 60.3397 17.9899 60.3443L18.8645 60.3804C20.0322 60.4533 21.2082 60.6065 22.3843 60.9349C22.6788 61.0062 22.9711 61.123 23.2652 61.2184C23.5575 61.3384 23.8509 61.4512 24.1415 61.6031C24.2875 61.6705 24.4322 61.7543 24.577 61.839C24.7221 61.918 24.866 62.0177 25.01 62.115C25.1543 62.2147 25.2969 62.3252 25.4417 62.4505C25.5146 62.5165 25.5847 62.5744 25.6608 62.6552C25.6992 62.6953 25.7328 62.7268 25.7747 62.7751L25.8369 62.8479L25.8715 62.8902L25.9222 62.959L24.3984 64.3425Z" fill="#FF9A24"/>
<path d="M1.47636 55.5834C2.15602 55.3905 2.8729 55.4032 3.56894 55.525C4.26734 55.6501 4.94691 55.9109 5.59189 56.2598L6.06605 56.5453C6.22632 56.6375 6.36924 56.7612 6.52218 56.8681C6.83155 57.0781 7.10598 57.3421 7.39173 57.5919C7.53858 57.7123 7.66337 57.8599 7.79749 57.9967L8.19497 58.4147C8.44351 58.7111 8.68482 59.0166 8.93075 59.3189L8.4287 59.7887C8.21475 59.4827 8.00438 59.1708 7.78625 58.8663L7.43531 58.4361C7.31644 58.2948 7.20602 58.1412 7.07478 58.0159C6.81961 57.7555 6.57342 57.4775 6.2929 57.2527C6.15424 57.1382 6.0244 57.0058 5.87782 56.905L5.44243 56.5912C4.84756 56.2024 4.20965 55.8912 3.53835 55.7085C2.86898 55.5297 2.16578 55.4521 1.47636 55.5834Z" fill="#FF9A24"/>
<path d="M2.51759 63.3463C2.65145 62.189 2.85764 61.0268 3.2858 59.9394C3.50201 59.3995 3.77931 58.8763 4.16389 58.4434C4.54429 58.0096 5.05017 57.6908 5.59685 57.582L5.66204 58.1385C5.20748 58.1872 4.77034 58.4053 4.40572 58.7574C4.03909 59.1075 3.74306 59.5701 3.50096 60.0677C3.01773 61.0713 2.72971 62.2058 2.51759 63.3463Z" fill="#FF9A24"/>
<path d="M25.6572 64.3043C25.5095 64.2524 25.3051 64.1954 25.1232 64.1478C24.9356 64.0984 24.7447 64.0556 24.5535 64.0149C24.1704 63.9355 23.7833 63.8727 23.395 63.8276C22.6183 63.7377 21.8357 63.7173 21.0647 63.7928C20.2934 63.8648 19.5331 64.0367 18.8152 64.3348C18.4582 64.4869 18.1059 64.6602 17.7784 64.8823C17.6122 64.9887 17.4529 65.1089 17.2964 65.2336L17.0657 65.428L16.8154 65.6481C16.1511 66.2477 15.4523 66.7999 14.7266 67.298C14.0007 67.795 13.2432 68.2352 12.4517 68.5746C11.6612 68.9135 10.8343 69.1497 9.99708 69.2228C9.16099 69.2975 8.31679 69.2027 7.52733 68.9209C8.33762 69.1119 9.16813 69.1074 9.9671 68.9441C10.7675 68.7818 11.5368 68.4662 12.2633 68.0573C12.9904 67.6479 13.6766 67.1464 14.329 66.5935C14.981 66.0395 15.6031 65.4376 16.1909 64.7906L16.4153 64.5501L16.6651 64.2922C16.8351 64.1256 17.0104 63.9637 17.1937 63.8168C17.5563 63.5133 17.948 63.2637 18.3484 63.0398C19.1524 62.5983 20.0073 62.3042 20.8696 62.1234C21.7329 61.939 22.6059 61.863 23.4761 61.8643C23.9114 61.865 24.3464 61.8857 24.7815 61.9255C24.9991 61.9466 25.2167 61.9703 25.4354 62.0019C25.6599 62.0351 25.8612 62.0651 26.1151 62.1217L25.6572 64.3043Z" fill="#FF9A24"/>
<path d="M9.36658 66.4619C9.73809 66.6216 10.1175 66.752 10.4987 66.866C10.8804 66.9773 11.2645 67.0738 11.6505 67.1333C12.0359 67.1912 12.4224 67.2336 12.801 67.2152C13.1783 67.1976 13.5482 67.135 13.879 67L14.0557 67.7201C13.6207 67.8235 13.1945 67.8217 12.7826 67.7764C12.3698 67.7306 11.9731 67.6219 11.5841 67.4996C11.1952 67.3756 10.8184 67.2163 10.4483 67.0437C10.0792 66.8687 9.71639 66.6787 9.36658 66.4619Z" fill="#FF9A24"/>
<path d="M9.71883 72.359C10.329 72.036 10.9125 71.6509 11.4751 71.2352C12.0348 70.8144 12.5768 70.3625 13.0706 69.8511C13.5618 69.3385 14.0192 68.7859 14.3962 68.1733C14.7642 67.5549 15.0494 66.8856 15.2133 66.1865L15.8319 66.3973C15.5889 67.186 15.2182 67.8924 14.7788 68.5166C14.3306 69.1337 13.8144 69.6625 13.2738 70.1417C12.7309 70.6189 12.1497 71.0255 11.5565 71.3967C10.9608 71.7628 10.3499 72.0934 9.71883 72.359Z" fill="#FF9A24"/>
<path d="M69.7969 32.5059C69.8569 32.3463 69.9031 32.2393 69.9561 32.113L70.1127 31.7571C70.2182 31.5226 70.3258 31.2934 70.4373 31.0675C70.6578 30.6142 70.8898 30.1733 71.131 29.7407C71.613 28.8756 72.1308 28.0434 72.6847 27.2471C73.795 25.6585 75.0387 24.199 76.4277 22.9612C77.8109 21.7189 79.3322 20.6934 80.941 19.9659C81.1394 19.868 81.3428 19.7847 81.5475 19.7065C81.7519 19.6278 81.9532 19.5412 82.159 19.4697C82.5742 19.3389 82.982 19.1885 83.4029 19.0946C84.2341 18.8629 85.0835 18.7528 85.9245 18.6641C85.0979 18.8785 84.279 19.112 83.4945 19.4601C83.0969 19.6122 82.7164 19.8191 82.3321 20.0041C82.1419 20.1027 81.957 20.2159 81.7699 20.3206C81.5824 20.4248 81.3972 20.5334 81.218 20.656C79.7615 21.5816 78.4463 22.7601 77.292 24.1062C76.1328 25.4478 75.1397 26.966 74.2883 28.5692C73.864 29.3725 73.478 30.2012 73.1312 31.0456C72.9579 31.4677 72.7943 31.8943 72.645 32.3229C72.5691 32.5366 72.4974 32.7518 72.4301 32.9649L72.3324 33.2829C72.3035 33.3825 72.2688 33.5021 72.2531 33.5716L69.7969 32.5059Z" fill="#FF9A24"/>
<path d="M83.9243 23.2385C83.3532 22.813 82.7314 22.49 82.0938 22.2551C81.4557 22.0234 80.7943 21.888 80.1415 21.8998C79.4891 21.9043 78.8496 22.0617 78.2706 22.3596C77.69 22.6558 77.1759 23.0983 76.7285 23.6154L76.1432 22.8616C76.7079 22.3346 77.3484 21.9004 78.0402 21.6468C78.7307 21.3904 79.4595 21.3096 80.161 21.3927C80.8644 21.4688 81.5397 21.6991 82.1704 22.0175C82.8001 22.3394 83.3949 22.7436 83.9243 23.2385Z" fill="#FF9A24"/>
<path d="M67.6982 8.08675C67.9482 7.77995 68.2261 7.50291 68.5154 7.23822C68.805 6.97302 69.1102 6.72382 69.4329 6.4985C70.0776 6.04716 70.79 5.66961 71.5913 5.45603C72.3861 5.22818 73.2923 5.20804 74.2042 5.47749C74.4289 5.54936 74.6574 5.63711 74.8655 5.76506C74.9665 5.8353 75.066 5.90909 75.1622 5.98794L75.3051 6.10799L75.4363 6.24191C75.6101 6.42147 75.7917 6.5901 75.9459 6.78181L76.1848 7.06402C76.2611 7.16018 76.3264 7.26261 76.3972 7.36231C76.9546 8.16671 77.3348 9.04672 77.6248 9.92198C77.7487 10.3603 77.8903 10.8011 77.9757 11.2393C78.0225 11.4585 78.0761 11.6787 78.1159 11.8975L78.2239 12.5531L78.2774 12.8811L78.3153 13.2134L78.3886 13.8786C78.4275 14.3224 78.4471 14.7677 78.4676 15.212C78.4801 16.0997 78.4653 16.9878 78.3797 17.8618C78.2258 19.6134 77.8946 21.3229 77.4297 22.9614C76.9681 24.6023 76.3918 26.1844 75.7233 27.6999C75.0595 29.2193 74.309 30.6764 73.495 32.0802C73.0883 32.7827 72.6635 33.4701 72.221 34.1443C71.9983 34.4807 71.774 34.8153 71.5412 35.1457C71.3052 35.4817 71.0817 35.7927 70.8074 36.147L64.1777 44.7071L68.694 34.3814L68.7372 34.2825L68.7914 34.1525L68.8995 33.8765C68.9706 33.6883 69.0382 33.4938 69.1035 33.2974C69.2327 32.9032 69.3491 32.4985 69.4548 32.089C69.6623 31.268 69.8198 30.4255 69.9276 29.5748C70.1383 27.8729 70.1633 26.1359 69.9634 24.4292C69.943 24.2152 69.9167 24.0021 69.8825 23.7903C69.8493 23.5784 69.8246 23.3648 69.7851 23.1541C69.7021 22.7343 69.6447 22.3061 69.5062 21.9021C69.3753 21.4979 69.3612 21.0534 69.3093 20.6135C69.2451 20.1788 69.19 19.7348 69.1078 19.2962C68.7951 17.5354 68.3144 15.7582 67.6982 13.9863C68.9247 15.2579 70.0196 16.7455 70.9346 18.422C71.0552 18.6282 71.1625 18.8428 71.2673 19.0598C71.373 19.2765 71.4822 19.4928 71.5855 19.7132C71.769 20.1623 72.0233 20.5956 72.0818 21.096C72.1195 21.3428 72.1724 21.584 72.2195 21.8274L72.3564 22.559C72.4017 22.803 72.4317 23.0507 72.4697 23.2964C72.5087 23.5421 72.5393 23.7893 72.5637 24.0378C72.7943 26.0195 72.7676 28.0397 72.5216 30.0185C72.3961 31.0082 72.2131 31.9882 71.9691 32.9524C71.8451 33.4341 71.7076 33.9122 71.5517 34.3873C71.4728 34.6248 71.3904 34.8617 71.3006 35.0993C71.2555 35.2183 71.2098 35.3373 71.16 35.4584L71.0832 35.6423L70.9891 35.8536L68.8757 34.088C69.0719 33.8346 69.301 33.5192 69.5092 33.2215C69.7222 32.9195 69.9301 32.609 70.1365 32.2975C70.5471 31.6717 70.9434 31.0306 71.322 30.3765C72.0801 29.0691 72.7771 27.715 73.3868 26.3187C74.0019 24.9251 74.5239 23.4861 74.9366 22.0193C75.3532 20.5538 75.6398 19.0542 75.7715 17.5532C75.9059 16.0517 75.879 14.5513 75.644 13.0944L75.5544 12.5458C75.5216 12.3649 75.4776 12.1918 75.4405 12.0143C75.3724 11.6537 75.2613 11.329 75.1697 10.9899C74.9544 10.3414 74.6867 9.74899 74.3603 9.27933C74.319 9.22163 74.2815 9.15726 74.2383 9.10381L74.1057 8.95056C74.0233 8.8379 73.9229 8.76037 73.8233 8.68284C73.6137 8.54356 73.4232 8.41683 73.2359 8.22107C72.84 7.88755 72.3161 7.63632 71.7087 7.53591L71.4795 7.49926L71.2444 7.47943C71.086 7.45898 70.9243 7.46586 70.7604 7.45908C70.4335 7.4688 70.0972 7.49238 69.7575 7.5435C69.4192 7.59816 69.0745 7.66486 68.7301 7.75424C68.3859 7.84594 68.0425 7.95557 67.6982 8.08675Z" fill="#FF9A24"/>
<path d="M73.0047 0C73.8131 0.936491 74.5519 1.96034 75.2374 3.03773C75.9172 4.11987 76.5462 5.26032 77.0678 6.48793C77.593 7.71178 78.0178 9.02339 78.2553 10.4305C78.3681 11.1345 78.4392 11.8604 78.4373 12.6026C78.43 13.3445 78.356 14.0979 78.2071 14.8447L76.1247 14.0769C76.3064 13.5591 76.4433 13.0094 76.531 12.4347C76.6135 11.8589 76.6394 11.2601 76.6278 10.652C76.5942 9.43445 76.3842 8.18478 76.0548 6.96305C75.7307 5.73727 75.2843 4.53852 74.7732 3.37185C74.256 2.20853 73.6736 1.07233 73.0047 0Z" fill="#FF9A24"/>
<path d="M70.5558 11.1416C71.034 11.8949 71.5358 12.6247 72.0536 13.3335C72.5713 14.042 73.1075 14.7279 73.6644 15.3751C74.222 16.0187 74.803 16.6296 75.4061 17.1309C75.7058 17.3825 76.0142 17.6 76.3092 17.7561C76.6009 17.9131 76.8903 17.9934 77.0568 17.9691L76.7383 20.4797C76.1105 20.3056 75.6649 19.9679 75.2826 19.6291C74.9028 19.2838 74.5854 18.9137 74.298 18.533C73.7226 17.7722 73.2492 16.9744 72.8086 16.1638C72.3715 15.3515 71.9731 14.5243 71.5997 13.6865C71.2267 12.8487 70.8766 12.0011 70.5558 11.1416Z" fill="#FF9A24"/>
<path d="M67.1879 19.2246C67.7185 19.393 68.2374 19.6351 68.7439 19.9238C69.2497 20.2155 69.7403 20.5653 70.2073 20.9823C70.6765 21.3968 71.1022 21.9034 71.4854 22.4802C71.8714 23.0588 72.1602 23.7425 72.3891 24.4741L70.24 24.9312C70.2333 24.4371 70.1964 23.9089 70.046 23.3897C69.8983 22.8728 69.6942 22.3439 69.4113 21.8514C69.1321 21.357 68.7999 20.8815 68.4259 20.4398C68.0506 20 67.6405 19.5841 67.1879 19.2246Z" fill="#FF9A24"/>
<path opacity="0.3" d="M38.632 86.9625C38.4879 86.6906 38.3851 86.427 38.2602 86.1666C38.1486 85.907 38.0508 85.6519 37.9389 85.4017C37.7162 84.9015 37.5443 84.4157 37.3341 83.9473C36.9628 83.0051 36.5798 82.1244 36.2312 81.2724C35.8579 80.427 35.5187 79.6085 35.1559 78.8114C34.9624 78.4189 34.8125 78.0095 34.6079 77.6277C34.432 77.2318 34.2371 76.8466 34.0576 76.4524C33.3009 74.8972 32.5175 73.3317 31.6582 71.672L30.3351 69.0755C29.8843 68.1591 29.411 67.2224 28.9333 66.1404L29.08 65.8223C30.6959 66.8351 32.1398 68.1472 33.4421 69.6381C34.7416 71.1316 35.8545 72.8439 36.7689 74.6896C37.2102 75.6238 37.5917 76.5946 37.9201 77.5889C38.2367 78.5885 38.4987 79.6118 38.6816 80.6549C38.8462 81.7008 38.9842 82.7542 39.0153 83.8154C39.0462 84.345 39.0277 84.8756 39.024 85.4045C39.0165 85.9334 38.9682 86.4606 38.9421 86.9871L38.632 86.9625Z" fill="white"/>
<path d="M180.374 137.931L180.237 137.776L180.082 137.606L179.763 137.262C179.548 137.032 179.323 136.806 179.102 136.577C178.654 136.124 178.199 135.674 177.739 135.228C176.814 134.342 175.862 133.485 174.902 132.638C172.975 130.952 170.976 129.365 168.946 127.833C164.858 124.817 160.62 122.051 156.228 119.658C155.136 119.046 154.023 118.484 152.919 117.903C151.8 117.358 150.689 116.794 149.559 116.284C147.314 115.22 145.024 114.291 142.729 113.391C141.575 112.964 140.425 112.521 139.259 112.141L137.516 111.551L135.761 111.008C134.595 110.633 133.412 110.336 132.236 110.006C131.057 109.688 129.875 109.419 128.688 109.122L126.836 108.668C126.219 108.515 125.599 108.373 124.988 108.191C123.762 107.842 122.531 107.51 121.316 107.106C120.707 106.912 120.095 106.727 119.487 106.524L117.672 105.885L116.764 105.565L115.864 105.215L114.061 104.521C109.282 102.576 104.59 100.289 100.05 97.6099L99.197 97.11L98.352 96.593C97.7905 96.2441 97.2217 95.9081 96.6651 95.5473L94.994 94.464L93.3362 93.3492C91.1325 91.8453 88.9725 90.2442 86.8542 88.5555C84.7242 86.883 82.6542 85.0967 80.6116 83.2305C79.5931 82.291 78.5844 81.3293 77.5872 80.3268C77.0869 79.8255 76.5876 79.3177 76.09 78.7908C75.8407 78.524 75.5925 78.2605 75.3404 77.9806C75.2152 77.8457 75.0867 77.7027 74.9571 77.5565L74.7589 77.3308C74.6888 77.2488 74.6305 77.1841 74.5285 77.0559L82.4213 69.3408C82.4188 69.3491 82.4623 69.4186 82.4934 69.4713L82.6013 69.647C82.6764 69.7679 82.7538 69.8907 82.8378 70.0182C82.9994 70.2679 83.1757 70.5224 83.3482 70.7766C83.6991 71.2862 84.0653 71.7959 84.4364 72.3051C85.1892 73.3156 85.9791 74.3087 86.7823 75.2939C88.4014 77.254 90.1234 79.1254 91.898 80.9398C95.4766 84.5264 99.3012 87.8438 103.357 90.7556C103.866 91.1147 104.367 91.494 104.884 91.838L106.429 92.8878C106.945 93.2364 107.475 93.5564 107.997 93.8927L108.784 94.3919L109.58 94.8684L111.176 95.8184L112.796 96.7146C113.066 96.8622 113.335 97.0157 113.608 97.159L114.429 97.5799L116.073 98.4207L117.737 99.207L118.571 99.5978L119.414 99.9601L121.101 100.686C121.666 100.918 122.237 101.133 122.805 101.358C125.079 102.253 127.396 102.991 129.723 103.695C130.931 104.062 132.156 104.403 133.363 104.792C134.569 105.192 135.78 105.566 136.975 106.005L138.774 106.638L140.559 107.318C141.753 107.756 142.926 108.268 144.11 108.738C146.462 109.732 148.799 110.773 151.103 111.903C152.262 112.448 153.399 113.056 154.546 113.632C155.681 114.241 156.824 114.829 157.946 115.471C159.075 116.093 160.191 116.748 161.309 117.396C162.418 118.067 163.528 118.736 164.627 119.428C166.829 120.805 168.997 122.258 171.131 123.778C173.277 125.28 175.374 126.876 177.449 128.525C178.485 129.352 179.514 130.196 180.529 131.072C181.039 131.507 181.547 131.949 182.053 132.4L182.81 133.09L183.193 133.443L183.386 133.625L183.594 133.826L180.374 137.931Z" fill="#FF9A24"/>
<path d="M209.541 143.177C206.815 139.898 201.102 133.684 193.469 128.901C184.13 123.048 174.921 121.168 166.098 123.311L165.609 120.593C174.999 118.312 184.755 120.285 194.605 126.457C202.522 131.418 208.439 137.854 211.261 141.248L209.541 143.177Z" fill="#FF9A24"/>
<path d="M212.286 139.98C213.295 141.251 213.226 143.233 212.131 144.405C211.037 145.577 209.33 145.497 208.321 144.225C207.312 142.954 207.381 140.972 208.476 139.8C209.571 138.628 211.277 138.708 212.286 139.98Z" fill="#FF9A24"/>
<path d="M175.644 164.461C172.887 161.679 167.629 155.839 163.395 147.988C158.174 138.31 156.069 128.607 157.136 119.147L159.507 119.508C158.513 128.311 160.503 137.397 165.421 146.514C169.49 154.059 174.555 159.684 177.212 162.365L175.644 164.461Z" fill="#FF9A24"/>
<path d="M178.077 160.891C179.217 162.004 179.364 163.98 178.406 165.304C177.448 166.627 175.747 166.798 174.607 165.685C173.467 164.572 173.32 162.596 174.278 161.273C175.236 159.949 176.938 159.778 178.077 160.891Z" fill="#FF9A24"/>
<path d="M193.76 164.797C190.05 161.841 182.939 155.828 176.995 148.773C169.358 139.708 166.147 131.884 167.452 125.519L169.778 126.162C168.691 131.463 171.777 138.61 178.703 146.831C184.506 153.717 191.474 159.609 195.112 162.507L193.76 164.797Z" fill="#FF9A24"/>
<path d="M195.842 160.955C197.075 161.924 197.4 163.871 196.566 165.304C195.732 166.737 194.056 167.113 192.822 166.145C191.588 165.176 191.264 163.229 192.098 161.796C192.932 160.363 194.608 159.987 195.842 160.955Z" fill="#FF9A24"/>
<path d="M163.361 166.755C159.775 160.252 152.535 142.763 162.741 120.884L164.843 122.206C155.244 142.786 162.017 159.169 165.374 165.257L163.361 166.755Z" fill="#FF9A24"/>
<path d="M166.507 164.067C167.364 165.481 167.071 167.435 165.853 168.43C164.635 169.425 162.953 169.085 162.096 167.67C161.24 166.256 161.533 164.302 162.751 163.307C163.968 162.312 165.651 162.652 166.507 164.067Z" fill="#FF9A24"/>
<path d="M167.848 121.965L166.021 120.173C171.539 112.58 179.628 108.429 190.062 107.838C198.414 107.363 206.133 109.341 209.992 110.562L209.364 113.241C205.642 112.064 198.2 110.157 190.179 110.611C180.434 111.163 172.921 114.983 167.848 121.965Z" fill="#FF9A24"/>
<path d="M210.313 108.862C211.741 109.353 212.555 111.097 212.131 112.755C211.708 114.413 210.207 115.359 208.779 114.867C207.352 114.375 206.538 112.631 206.961 110.973C207.385 109.315 208.886 108.37 210.313 108.862Z" fill="#FF9A24"/>
<path d="M172.721 127.74L171.075 125.726C175.513 120.833 180.932 118.711 187.181 119.416C192.14 119.977 196.487 122.204 199.26 123.973L198.109 126.406C193.504 123.469 181.811 117.717 172.721 127.74Z" fill="#FF9A24"/>
<path d="M199.951 122.436C201.227 123.326 201.641 125.251 200.874 126.733C200.107 128.216 198.45 128.696 197.174 127.805C195.897 126.915 195.484 124.991 196.251 123.508C197.018 122.025 198.674 121.545 199.951 122.436Z" fill="#FF9A24"/>
<path d="M197.436 147.99C195.427 144.07 190.411 137.161 179.388 134.935L179.798 132.199C191.762 134.616 197.271 142.24 199.49 146.569L197.436 147.99Z" fill="#FF9A24"/>
<path d="M200.799 145.746C201.466 147.292 200.927 149.174 199.595 149.948C198.264 150.723 196.644 150.097 195.977 148.551C195.31 147.004 195.849 145.122 197.181 144.348C198.512 143.573 200.132 144.199 200.799 145.746Z" fill="#FF9A24"/>
<path d="M188.77 146.439C184.931 144.094 178.085 138.107 175.376 124.357L177.706 123.737C180.202 136.405 186.406 141.858 189.883 143.981L188.77 146.439Z" fill="#FF9A24"/>
<path d="M190.288 142.259C191.653 142.951 192.276 144.797 191.681 146.382C191.085 147.968 189.496 148.692 188.131 148C186.766 147.308 186.142 145.462 186.738 143.877C187.334 142.292 188.923 141.567 190.288 142.259Z" fill="#FF9A24"/>
<path d="M153.837 160.588L151.589 159.643C152.518 156.662 154.4 152.558 158.09 149.932L159.339 152.3C156.239 154.505 154.636 158.024 153.837 160.588Z" fill="#FF9A24"/>
<path d="M155.362 160.833C154.952 162.496 153.459 163.458 152.027 162.983C150.596 162.507 149.767 160.773 150.177 159.11C150.587 157.447 152.08 156.485 153.511 156.961C154.943 157.436 155.771 159.17 155.362 160.833Z" fill="#FF9A24"/>
<path d="M197.669 156.814C192.385 152.939 187.81 151.534 184.901 151.038C181.753 150.5 179.824 150.882 179.805 150.886L179.377 148.154C179.723 148.08 187.994 146.434 198.945 154.467L197.669 156.814Z" fill="#FF9A24"/>
<path d="M196.692 158.162C197.93 159.124 199.605 158.738 200.433 157.301C201.261 155.863 200.929 153.918 199.691 152.956C198.454 151.994 196.779 152.38 195.951 153.817C195.123 155.255 195.455 157.2 196.692 158.162Z" fill="#FF9A24"/>
<path d="M209.306 125.186C202.272 118.666 202.09 111.557 202.085 111.258L204.476 111.211L203.28 111.235L204.476 111.203C204.476 111.218 204.522 112.754 205.319 114.962C206.055 117.002 207.603 120.055 210.797 123.016L209.306 125.186Z" fill="#FF9A24"/>
<path d="M208.363 126.516C209.564 127.538 211.252 127.235 212.131 125.84C213.011 124.445 212.751 122.485 211.55 121.463C210.349 120.441 208.661 120.743 207.781 122.139C206.901 123.534 207.162 125.494 208.363 126.516Z" fill="#FF9A24"/>
<defs>
<radialGradient id="paint0_radial_202_223" cx="0" cy="0" r="1" gradientUnits="userSpaceOnUse" gradientTransform="translate(53.8404 64.0795) rotate(180) scale(16.6571 19.347)">
<stop stop-color="#FF9A24"/>
<stop offset="1" stop-color="#FFFF00"/>
</radialGradient>
</defs>
</svg>
