<svg width="213" height="169" viewBox="0 0 213 169" fill="none" xmlns="http://www.w3.org/2000/svg">
<path d="M64.8891 28.0518C67.1106 33.0191 67.3585 38.9845 65.0462 43.9097C63.9944 46.0928 62.4928 47.9899 60.6554 49.4571C58.818 50.9243 56.6931 51.923 54.4422 52.3773C49.0984 50.7759 41.8573 51.8505 37.164 54.3421C33.892 56.0751 31.1305 59.1039 30.4064 62.7859C30.0284 64.7007 30.21 66.6813 30.5021 68.6145C30.9047 71.3009 31.5306 73.9926 32.8144 76.3762C34.0981 78.7598 36.106 80.822 38.6294 81.7149C41.8794 82.8632 45.4852 81.944 48.6419 80.5507C53.75 78.2936 58.3794 74.0506 60.3358 68.5723C60.4045 68.3801 60.4683 68.1852 60.5297 67.9876C60.6721 67.5346 60.7899 67.0632 60.8954 66.5838C61.9902 63.3496 62.2553 59.8519 62.707 56.4412C63.2274 52.5195 64.1012 48.4556 66.6 45.4241C69.0989 42.3926 73.0582 40.7887 76.885 41.2101C75.8491 34.9575 70.93 29.5635 64.8891 28.0518Z" fill="#FFCC4A"/>
<path d="M41.8033 82.7661C40.6735 82.7742 39.5498 82.5884 38.4748 82.2157C36.0201 81.3491 33.86 79.3686 32.3897 76.64C31.2581 74.5329 30.5266 72.0888 30.0161 68.6965C29.7436 66.8818 29.5251 64.7458 29.9253 62.6757C30.6248 59.1201 33.2488 55.8279 36.9455 53.871C41.9972 51.1951 49.3415 50.347 54.4643 51.8377C56.6202 51.3873 58.653 50.4186 60.41 49.0046C62.1671 47.5905 63.6028 45.7677 64.6093 43.673C66.7645 39.0824 66.7031 33.3276 64.4473 28.2813C64.4074 28.1917 64.3919 28.0919 64.4026 27.9933C64.4133 27.8947 64.4497 27.8013 64.5077 27.724C64.5657 27.6466 64.6428 27.5884 64.7303 27.5561C64.8178 27.5237 64.912 27.5186 65.0021 27.5412C71.2148 29.0951 76.2934 34.6761 77.3661 41.1104C77.3794 41.1906 77.3751 41.273 77.3537 41.3511C77.3323 41.4293 77.2943 41.501 77.2427 41.5608C77.1911 41.6205 77.1273 41.6666 77.0562 41.6954C76.9852 41.7241 76.909 41.7349 76.8334 41.7267C73.1932 41.3343 69.3198 42.9224 66.9682 45.7722C64.4989 48.7668 63.6741 52.8833 63.193 56.5153C63.1095 57.1527 63.031 57.7927 62.9475 58.4327C62.6112 61.2008 62.2627 64.0611 61.3618 66.737C61.2366 67.2927 61.1164 67.7457 60.9912 68.154C60.9274 68.3594 60.8586 68.5622 60.7899 68.7597C58.9391 73.9588 54.4692 78.5468 48.8235 81.0384C46.2167 82.1999 43.8897 82.7661 41.8033 82.7661ZM48.799 52.1564C44.8716 52.1564 40.6349 53.0914 37.38 54.8139C33.9435 56.6286 31.5232 59.6495 30.885 62.8943C30.5119 64.7933 30.7279 66.8081 30.9857 68.5306C31.4766 71.7886 32.1712 74.1273 33.239 76.1132C34.5891 78.6153 36.5577 80.4273 38.7816 81.2148C41.4252 82.1472 44.5893 81.7706 48.4553 80.0639C53.8555 77.6935 58.1168 73.3161 59.8768 68.3831C59.943 68.1987 60.0044 68.0091 60.0658 67.8195C60.1861 67.4323 60.299 67.003 60.4168 66.4631C60.421 66.4433 60.4268 66.4239 60.434 66.4051C61.3054 63.8319 61.649 61.0191 61.9804 58.2984C62.0589 57.6531 62.1375 57.0078 62.2259 56.3678C62.7168 52.5805 63.598 48.2769 66.2367 45.0742C68.6914 42.1033 72.4887 40.4335 76.2787 40.6258C75.1225 35.216 70.9423 30.5516 65.763 28.8502C67.7267 33.9334 67.6359 39.5749 65.4905 44.1471C64.4062 46.405 62.8553 48.3671 60.9562 49.8835C59.0571 51.3999 56.8601 52.4304 54.533 52.8965C54.4611 52.9136 54.3865 52.9136 54.3146 52.8965C52.5152 52.386 50.6601 52.1371 48.799 52.1564Z" fill="#53203E"/>
<path d="M181.146 48.5457C181.146 48.5457 179.243 41.4345 171.462 44.3316C171.462 44.3316 170.429 40.0043 166.681 40.8103C166.681 40.8103 155.838 37.123 152.264 41.9849C152.264 41.9849 148.3 39.9675 146.619 44.0077C146.619 44.0077 138.943 42.8198 140.816 34.376C140.816 34.376 133.489 39.288 133.03 39.849C132.571 40.4099 134.179 56.4417 134.179 56.4417C134.179 56.4417 139.419 57.1265 140.868 61.8383C140.868 61.8383 139.171 68.5544 142.618 73.3821C146.064 78.2098 148.563 77.9149 148.563 77.9149C148.563 77.9149 148.688 81.0253 150.188 83.0375C151.688 85.0497 154.562 84.5414 154.562 84.5414C154.562 84.5414 154.118 86.6906 155.9 87.4781C157.682 88.2656 159.933 87.0567 159.933 87.0567C159.933 87.0567 166.315 91.8844 171.926 91.0784C177.537 90.2725 178.308 88.1813 178.308 88.1813C178.308 88.1813 182.8 86.6458 183.176 82.624C183.551 78.6023 187.297 77.799 186.548 68.5492C185.8 59.2994 181.146 48.5457 181.146 48.5457Z" fill="#FFCC4A"/>
<path d="M170.61 91.7027C165.824 91.7027 161.005 88.4658 159.886 87.6652C159.196 87.976 157.321 88.6792 155.713 87.9707C154.371 87.3755 154.017 86.0849 154.017 85.1262C153.011 85.1684 151.03 85.013 149.802 83.3695C148.575 81.726 148.209 79.4057 148.109 78.418C147.151 78.2758 144.942 77.5094 142.218 73.7088C138.924 69.0918 140.102 62.9578 140.347 61.8569C138.953 57.6428 134.157 56.9686 134.108 56.9633C133.998 56.9486 133.896 56.8945 133.818 56.8099C133.741 56.7253 133.692 56.6151 133.68 56.4971C133.68 56.455 133.273 52.4359 132.944 48.4009C132.237 40.0176 132.453 39.7516 132.664 39.4961C133.133 38.9246 138.825 35.0872 140.558 33.9257C140.641 33.8708 140.737 33.8434 140.834 33.847C140.931 33.8506 141.025 33.885 141.104 33.946C141.183 34.0069 141.243 34.0915 141.277 34.1892C141.311 34.2869 141.317 34.3931 141.295 34.4946C140.762 36.8966 140.988 38.9009 141.967 40.4469C143.251 42.4723 145.487 43.1966 146.341 43.4099C146.794 42.4093 147.584 41.63 148.551 41.2292C149.977 40.6629 151.454 41.0948 152.115 41.3529C155.878 36.9308 165.458 39.8596 166.705 40.2652C169.616 39.7147 171.2 42.0008 171.776 43.6601C174.231 42.8384 176.381 42.92 178.158 43.9024C180.638 45.2957 181.497 47.9795 181.62 48.3588C181.912 49.0462 186.32 59.5444 187.047 68.5177C187.538 74.6096 186.107 77.1959 184.955 79.274C184.334 80.396 183.797 81.3626 183.674 82.6979C183.313 86.5695 179.565 88.2762 178.657 88.6318C178.279 89.2744 176.855 90.9179 172.005 91.6132C171.542 91.6766 171.077 91.7065 170.61 91.7027ZM159.935 86.5379C160.036 86.5376 160.135 86.5707 160.218 86.6327C160.279 86.6801 166.501 91.3288 171.862 90.5623C177.017 89.8249 177.844 88.0102 177.852 87.9918C177.878 87.9206 177.919 87.8568 177.972 87.8052C178.024 87.7536 178.088 87.7156 178.156 87.6941C178.198 87.681 182.346 86.2113 182.685 82.5873C182.83 81.0254 183.446 79.914 184.099 78.7367C185.235 76.6876 186.524 74.362 186.062 68.6098C185.326 59.5576 180.753 48.875 180.706 48.767C180.696 48.7431 180.687 48.7184 180.679 48.6933C180.679 48.6669 179.943 46.0858 177.699 44.84C176.067 43.9393 174.017 43.9367 171.629 44.84C171.565 44.8642 171.497 44.8739 171.429 44.8683C171.361 44.8627 171.295 44.842 171.235 44.8076C171.175 44.7732 171.122 44.7257 171.08 44.6683C171.038 44.6109 171.008 44.5447 170.991 44.474C170.954 44.3186 170.021 40.6445 166.781 41.3398C166.699 41.3569 166.615 41.3515 166.536 41.324C166.43 41.2897 155.981 37.8105 152.652 42.3248C152.583 42.4187 152.487 42.4847 152.379 42.5119C152.27 42.5392 152.156 42.5262 152.056 42.4749C152.041 42.4749 150.377 41.6453 148.894 42.2352C148.104 42.5513 147.493 43.2229 147.07 44.2343C147.027 44.3391 146.953 44.426 146.86 44.4816C146.766 44.5372 146.658 44.5586 146.553 44.5424C146.41 44.5187 143.003 43.963 141.152 41.0553C140.183 39.5277 139.839 37.6551 140.121 35.4744C137.492 37.2495 134.044 39.6226 133.452 40.1519C133.278 41.3898 134.054 50.2814 134.621 55.9993C135.917 56.2627 140.021 57.4295 141.329 61.6856C141.357 61.7844 141.357 61.8898 141.329 61.9885C141.314 62.0518 139.741 68.5177 142.996 73.0767C146.187 77.5541 148.482 77.404 148.504 77.404C148.57 77.3976 148.637 77.4057 148.7 77.4279C148.764 77.4501 148.822 77.4859 148.872 77.5331C148.972 77.6282 149.033 77.7616 149.042 77.9044C149.042 77.9334 149.179 80.8727 150.559 82.7216C151.855 84.4599 154.444 84.0385 154.471 84.0385C154.55 84.0248 154.631 84.0321 154.707 84.0598C154.783 84.0875 154.852 84.1347 154.907 84.1974C154.962 84.26 155.001 84.3361 155.023 84.419C155.044 84.502 155.046 84.5893 155.028 84.6732C155.014 84.7417 154.704 86.4036 156.077 87.0094C157.625 87.6941 159.68 86.6169 159.7 86.6038C159.772 86.5627 159.853 86.5401 159.935 86.5379Z" fill="#53203E"/>
<path d="M147.345 50.9927C146.843 50.5914 146.504 49.9981 146.398 49.3357C146.292 48.6734 146.427 47.9926 146.776 47.4344C147.662 46.0517 149.132 44.5136 151.342 44.3503C155.436 44.0448 154.312 43.6418 158.435 42.8385C162.559 42.0352 168.499 42.0352 166.845 46.2624C165.191 50.4896 158.099 48.4748 153.958 49.6863C152.573 50.0631 151.226 50.5871 149.937 51.2508C149.528 51.4762 149.068 51.5737 148.61 51.5323C148.152 51.4908 147.714 51.3121 147.345 51.0164V50.9927Z" fill="#FFCC4A"/>
<path d="M148.811 52.0463C148.176 52.0462 147.558 51.8243 147.051 51.4142C146.442 50.9323 146.03 50.2156 145.903 49.4149C145.777 48.6143 145.944 47.792 146.371 47.1212C147.274 45.7121 148.865 43.9923 151.307 43.8105C153.615 43.6393 154.199 43.4444 155.082 43.1495C156.151 42.7887 157.242 42.5071 158.347 42.3067C159.979 41.988 165.436 41.1267 167.137 43.4049C167.726 44.1951 167.78 45.2196 167.297 46.4496C166.069 49.5495 162.424 49.6259 158.894 49.7023C157.196 49.7392 155.438 49.776 154.086 50.1711C152.733 50.5399 151.417 51.0516 150.158 51.6987C149.741 51.9261 149.279 52.0452 148.811 52.0463ZM147.64 50.5714C147.935 50.8085 148.286 50.9518 148.653 50.9849C149.02 51.0179 149.389 50.9395 149.717 50.7584C151.034 50.0791 152.411 49.5418 153.828 49.1545C155.301 48.7252 157.115 48.6883 158.875 48.6488C162.24 48.5777 165.419 48.5092 166.393 46.0387C166.73 45.1801 166.722 44.5348 166.371 44.0634C165.358 42.707 161.707 42.7254 158.516 43.3444C157.45 43.5356 156.398 43.8067 155.367 44.1556C154.452 44.4611 153.789 44.6823 151.369 44.8614C149.316 45.0142 147.954 46.4996 147.174 47.7191C146.891 48.1656 146.78 48.7126 146.866 49.2447C146.952 49.7769 147.226 50.2525 147.633 50.5714H147.64Z" fill="#53203E"/>
<path d="M146.602 56.173C146.178 56.2606 145.782 56.4629 145.452 56.7607C145.122 57.0584 144.868 57.4418 144.714 57.8744C143.978 59.9814 142.841 64.1349 143.629 68.3621C144.756 74.396 150.011 76.4056 153.001 73.5901C155.991 70.7746 155.271 65.2358 152.264 62.7785C150.698 61.4985 149.915 59.618 149.528 58.1114C149.357 57.4532 148.961 56.8882 148.419 56.5289C147.877 56.1697 147.229 56.0426 146.604 56.173H146.602Z" fill="#FFCC4A"/>
<path d="M149.869 75.3682C149.238 75.3661 148.612 75.2531 148.016 75.0337C145.561 74.1435 143.749 71.6862 143.148 68.4651C142.336 64.1088 143.494 59.8421 144.255 57.6877C144.437 57.1698 144.74 56.7109 145.135 56.3552C145.53 55.9995 146.004 55.7591 146.511 55.657C147.256 55.5063 148.027 55.6599 148.673 56.0878C149.318 56.5156 149.791 57.1867 149.999 57.9695C150.34 59.2864 151.064 61.13 152.559 62.3574C154.238 63.7269 155.328 66.0841 155.404 68.5072C155.475 70.7143 154.736 72.6607 153.325 73.9855C152.368 74.8824 151.139 75.3741 149.869 75.3682ZM147.08 56.6526C146.951 56.6515 146.822 56.6647 146.695 56.6921C146.353 56.7611 146.034 56.9234 145.767 57.1632C145.5 57.4031 145.296 57.7125 145.173 58.0617C144.449 60.1107 143.347 64.1615 144.113 68.2596C144.643 71.1067 146.221 73.2638 148.332 74.0355C149.06 74.3273 149.847 74.4033 150.612 74.2554C151.377 74.1076 152.09 73.7414 152.677 73.1953C153.862 72.0812 154.484 70.4299 154.422 68.5467C154.356 66.4397 153.413 64.3801 151.968 63.1975C150.249 61.7964 149.437 59.7368 149.054 58.2513C148.932 57.7908 148.673 57.3857 148.317 57.0972C147.961 56.8087 147.527 56.6526 147.08 56.6526Z" fill="#53203E"/>
<path d="M166.494 57.5031C166.494 60.4002 163.058 62.7311 158.811 62.7311C154.564 62.7311 151.126 60.3923 151.126 57.5031C151.126 54.6138 155.878 50.6553 160.122 50.6553C164.366 50.6553 166.494 54.6165 166.494 57.5031Z" fill="#FFCC4A"/>
<path d="M158.811 63.2583C154.302 63.2583 150.635 60.6772 150.635 57.5035C150.635 54.1322 155.789 50.1289 160.122 50.1289C164.803 50.1289 166.995 54.522 166.995 57.5035C166.985 60.6772 163.318 63.2583 158.811 63.2583ZM160.122 51.1956C156.096 51.1956 151.616 54.9566 151.616 57.5166C151.616 60.1109 154.844 62.2179 158.811 62.2179C162.778 62.2179 166.003 60.1109 166.003 57.5166C166.003 54.9592 164.133 51.1956 160.122 51.1956Z" fill="#53203E"/>
<path d="M168.364 55.1536C166.936 51.7955 168.61 47.779 171.938 46.8098C172.85 46.5207 173.811 46.4639 174.747 46.6438C178.495 47.4471 181.821 50.7183 180.346 55.3168C178.87 59.9154 175.122 62.7283 171.374 59.5124C169.992 58.3351 169.03 56.7233 168.364 55.1536Z" fill="#FFCC4A"/>
<path d="M174.656 61.4244C173.428 61.4244 172.216 60.9187 171.06 59.9258C169.798 58.8433 168.74 57.3104 167.918 55.372C167.546 54.496 167.356 53.5436 167.363 52.5811C167.369 51.6186 167.571 50.6691 167.955 49.7989C168.321 48.9512 168.854 48.1993 169.519 47.5953C170.183 46.9912 170.962 46.5497 171.801 46.3013C172.783 45.9926 173.818 45.934 174.825 46.1301C177.28 46.6568 179.374 48.137 180.417 50.0807C181.278 51.6952 181.399 53.5626 180.792 55.4852C179.847 58.4271 178.051 60.5684 175.981 61.2137C175.551 61.3501 175.105 61.421 174.656 61.4244ZM168.811 54.9348C169.57 56.7231 170.529 58.1243 171.673 59.104C172.994 60.2365 174.393 60.6184 175.719 60.2049C177.481 59.6571 179.032 57.7661 179.874 55.1481C180.402 53.4967 180.301 51.9718 179.575 50.6127C178.669 48.9192 176.826 47.6313 174.643 47.1625C173.786 46.9983 172.904 47.0515 172.069 47.3179C171.367 47.5267 170.716 47.8968 170.161 48.4026C169.607 48.9083 169.161 49.5376 168.855 50.2466C168.533 50.9786 168.363 51.7772 168.357 52.5869C168.352 53.3966 168.511 54.1978 168.824 54.9348H168.811Z" fill="#53203E"/>
<path d="M162.719 71.9808C159.921 71.4883 158.526 67.9327 160.436 65.6834C161.057 64.9817 161.87 64.511 162.758 64.3402C168.006 63.1339 171.948 63.0839 174.295 66.3261C176.642 69.5682 179.879 69.1837 179.941 72.7946C180.002 76.4055 177.756 80.8303 173.257 78.4177C169.867 76.6057 165.91 72.5418 162.719 71.9808Z" fill="#FFCC4A"/>
<path d="M175.65 79.6327C174.734 79.6071 173.836 79.3518 173.028 78.8873C171.708 78.1789 170.289 77.1253 168.919 76.1087C166.752 74.4968 164.501 72.8297 162.635 72.5004C161.876 72.3711 161.163 72.0237 160.573 71.4951C159.983 70.9665 159.537 70.2764 159.282 69.4979C159.046 68.7925 158.993 68.031 159.132 67.2961C159.27 66.5611 159.592 65.8807 160.065 65.3287C160.756 64.5477 161.66 64.022 162.648 63.8274C167.311 62.7555 171.975 62.2788 174.675 66.0056C175.579 67.2566 176.651 67.9519 177.596 68.563C179.03 69.49 180.382 70.3671 180.427 72.777C180.463 74.9525 179.673 77.71 177.82 78.9637C177.172 79.4063 176.418 79.6386 175.65 79.6327ZM162.788 71.468C164.879 71.8367 167.206 73.575 169.472 75.2501C170.814 76.2483 172.201 77.2781 173.46 77.955C174.95 78.7451 176.236 78.7978 177.282 78.0893C178.814 77.0516 179.464 74.6917 179.432 72.8218C179.401 70.9781 178.475 70.3855 177.076 69.4795C176.057 68.8211 174.901 68.0731 173.885 66.664C171.676 63.5825 167.866 63.7194 162.839 64.873C162.052 65.0228 161.33 65.437 160.777 66.0556C160.421 66.465 160.177 66.9729 160.075 67.5222C159.972 68.0716 160.014 68.6408 160.195 69.1661C160.395 69.7635 160.741 70.2919 161.197 70.6957C161.654 71.0995 162.203 71.3636 162.788 71.4601V71.468Z" fill="#53203E"/>
<path d="M159.265 75.4626C156.73 75.0148 154.368 77.2087 154.601 79.9558C154.675 80.8196 154.984 81.5597 155.708 81.9337C158.246 83.2506 162.743 83.0346 166.492 84.5464C170.24 86.0582 173.431 85.7316 174.273 83.8853C175.115 82.0391 168.738 77.1745 164.437 76.3896C162.613 76.0578 160.78 75.7286 159.265 75.4626Z" fill="#FFCC4A"/>
<path d="M170.839 86.0247C169.29 85.9846 167.76 85.6511 166.32 85.0396C164.491 84.3022 162.491 83.9861 160.559 83.6832C158.627 83.3803 156.83 83.0959 155.5 82.4085C154.935 82.1188 154.238 81.4656 154.113 80.0039C154.054 79.2988 154.147 78.5887 154.386 77.9287C154.624 77.2687 155.001 76.6764 155.487 76.198C155.999 75.6886 156.613 75.311 157.281 75.0938C157.949 74.8766 158.654 74.8255 159.344 74.9444C160.858 75.2078 162.694 75.537 164.513 75.8688C168.109 76.5273 173.384 80.0144 174.577 82.5323C174.867 83.1354 174.909 83.6674 174.705 84.1125C174.145 85.3741 172.719 86.0247 170.839 86.0247ZM158.597 75.932C157.691 75.9327 156.819 76.3027 156.158 76.9671C155.782 77.3364 155.49 77.7936 155.305 78.3033C155.12 78.813 155.048 79.3616 155.092 79.9064C155.159 80.6965 155.431 81.2049 155.924 81.4603C157.122 82.0766 158.87 82.3505 160.701 82.6403C162.594 82.9379 164.737 83.275 166.666 84.0546C170.031 85.411 173.112 85.2398 173.833 83.6543C173.855 83.5444 173.856 83.431 173.835 83.3209C173.814 83.2109 173.773 83.1065 173.713 83.0143C172.751 80.9994 167.851 77.5492 164.346 76.9092C162.532 76.5773 160.699 76.2507 159.192 75.9821C158.995 75.9481 158.796 75.9314 158.597 75.932Z" fill="#53203E"/>
<path d="M147.883 10.4035C147.883 10.4035 138.801 13.9433 133.806 13.9433C128.209 13.9433 119.895 6.04199 108.398 6.04199C91.6595 6.04199 85.9009 13.9565 80.3043 13.9565C75.2993 13.9565 66.2245 10.4167 66.2245 10.4167L61.8454 25.2817C61.8454 25.2817 70.2918 29.1744 74.3641 39.4382C77.9233 48.4194 76.2124 69.055 82.646 75.7316C84.6097 77.7596 85.5302 80.7621 85.297 83.7541C84.8503 89.4825 84.6343 109.744 86.5661 114.335C89.6957 121.767 96.8903 129.908 95.3267 142.65C94.0846 152.767 90.2677 162.736 90.1719 166.705C92.8549 166.549 95.5402 166.512 98.2256 166.51C98.4309 166.503 98.635 166.545 98.8236 166.632C99.0123 166.719 99.181 166.849 99.3179 167.013C103.663 166.073 110.408 165.57 123.177 168.488C126.005 169.133 120.362 155.393 118.798 142.65C117.234 129.908 124.426 121.754 127.549 114.332C129.481 109.741 129.267 89.4799 128.818 83.7514C128.585 80.7595 129.512 77.757 131.469 75.729C137.902 69.0523 136.192 48.4167 139.748 39.4356C143.816 29.1639 152.267 25.2791 152.267 25.2791L147.883 10.4035Z" fill="#FF6464"/>
<path d="M123.349 168.893C123.262 168.893 123.176 168.884 123.091 168.864C109.78 165.822 103.184 166.568 99.3817 167.389L99.1731 167.437L99.0307 167.266C98.9288 167.144 98.8032 167.048 98.6628 166.984C98.5224 166.92 98.3706 166.891 98.2182 166.897C96.0091 166.897 93.088 166.921 90.1867 167.089L89.7841 167.113V166.681C89.8307 164.837 90.6162 161.895 91.6079 158.153C92.791 153.675 94.2663 148.144 94.9462 142.585C96.1097 133.119 92.3836 126.255 89.0968 120.197C88.0479 118.344 87.0869 116.435 86.2175 114.477C84.2342 109.768 84.4747 89.3297 84.9165 83.6987C85.1448 80.7646 84.1949 77.8859 82.376 75.9975C78.4486 71.9125 77.5035 62.9735 76.5978 54.3321C75.9939 48.5773 75.4244 43.1412 74.0106 39.583C70.0488 29.5747 61.7742 25.674 61.6907 25.624L61.3839 25.4818L65.9815 9.87668L66.3447 10.0189C66.4356 10.0531 75.4146 13.5324 80.2969 13.5324C82.2606 13.5324 84.3029 12.4788 86.8852 11.162C91.4483 8.82053 97.7003 5.61523 108.39 5.61523C115.244 5.61523 121.01 8.40967 125.644 10.6563C128.835 12.197 131.579 13.5297 133.798 13.5297C138.681 13.5297 147.66 10.0505 147.75 10.0163L148.114 9.87404L152.711 25.4791L152.404 25.6214C152.321 25.6582 144.041 29.572 140.085 39.5803C138.671 43.1491 138.099 48.5852 137.497 54.3295C136.592 62.9709 135.654 71.9099 131.719 75.9949C129.9 77.8833 128.95 80.762 129.179 83.696C129.618 89.327 129.861 109.77 127.878 114.474C127.008 116.432 126.047 118.341 124.998 120.195C121.712 126.253 117.985 133.1 119.149 142.582C119.839 148.213 121.334 154.052 122.534 158.745C124.075 164.761 124.78 167.7 123.975 168.609C123.894 168.7 123.797 168.772 123.689 168.821C123.582 168.87 123.466 168.895 123.349 168.893ZM106.576 165.87C110.536 165.87 115.877 166.396 123.246 168.085C123.393 168.119 123.43 168.085 123.442 168.064C123.997 167.434 122.892 163.125 121.827 158.959C120.619 154.242 119.127 148.374 118.42 142.687C117.225 132.942 121.017 125.968 124.365 119.805C125.435 117.832 126.447 115.97 127.21 114.158C129.058 109.765 128.911 89.7247 128.437 83.7724C128.192 80.6119 129.223 77.4856 131.201 75.4313C134.945 71.5464 135.865 62.7549 136.756 54.2505C137.377 48.4351 137.951 42.9568 139.4 39.2696C143.04 30.0856 150.239 25.8821 151.805 25.0472L147.633 10.9065C145.863 11.5728 138.293 14.3304 133.791 14.3304C131.41 14.3304 128.594 12.9635 125.33 11.3832C120.762 9.17082 115.077 6.4159 108.393 6.4159C97.8721 6.4159 91.7012 9.57643 87.2067 11.8836C84.541 13.2505 82.4324 14.3304 80.2994 14.3304C75.7976 14.3304 68.225 11.5728 66.4577 10.9065L62.2848 25.0472C63.8508 25.8716 71.0503 30.0751 74.6881 39.2696C76.1461 42.9437 76.7205 48.4351 77.3293 54.2505C78.2227 62.7549 79.1432 71.5464 82.8866 75.4313C84.865 77.4856 85.8984 80.604 85.6505 83.7724C85.1866 89.7247 85.0393 109.765 86.8778 114.158C87.6412 115.97 88.6525 117.832 89.7227 119.805C93.0709 125.968 96.8633 132.953 95.6679 142.687C94.9781 148.297 93.498 153.883 92.3075 158.369C91.4066 161.769 90.6776 164.508 90.5352 166.27C93.3163 166.12 96.0729 166.099 98.1937 166.096C98.6371 166.087 99.0681 166.254 99.4038 166.565C101.767 166.078 104.17 165.845 106.576 165.87Z" fill="#53203E"/>
<path d="M147.807 9.88431C147.807 9.88431 138.725 13.2424 133.727 13.2424C128.131 13.2424 120.646 0.397461 109.149 0.397461C92.4081 0.397461 91.1563 11.6568 79.1629 11.6568C74.1579 11.6568 66.1533 9.88431 66.1533 9.88431L64.3344 15.7339C72.3194 18.8944 86.7085 23.3139 104.949 23.3139C127.625 23.3139 143.752 17.351 149.378 14.9227L147.807 9.88431Z" fill="#ED4F4F"/>
<path d="M104.944 23.7118C87.1037 23.7118 72.9404 19.5768 64.197 16.1081L63.8582 15.9738L65.8956 9.42363L66.2171 9.49475C66.2981 9.51318 74.2487 11.2594 79.158 11.2594C84.541 11.2594 87.7762 8.88898 91.1857 6.40006C95.2948 3.4002 99.9512 0 109.132 0C116.029 0 121.52 4.54852 125.934 8.20156C128.941 10.6931 131.538 12.8449 133.71 12.8449C138.595 12.8449 147.579 9.54215 147.667 9.50792L148.023 9.37623L149.817 15.1521L149.493 15.2917C143.644 17.8227 127.559 23.7118 104.944 23.7118ZM64.7959 15.4945C73.5025 18.9184 87.4399 22.9138 104.944 22.9138C127.036 22.9138 142.829 17.2749 148.909 14.6912L147.571 10.3902C145.824 11.0171 138.244 13.6403 133.727 13.6403C131.302 13.6403 128.612 11.4121 125.497 8.83367C121.174 5.25174 115.793 0.795398 109.149 0.795398C100.197 0.795398 95.8373 3.97963 91.6202 7.05587C88.1002 9.62907 84.7767 12.06 79.1629 12.06C74.7445 12.06 67.9501 10.6773 66.3988 10.3507L64.7959 15.4945Z" fill="#53203E"/>
<path d="M114.689 127.614C109.481 126.223 104.023 126.345 98.8736 127.967C98.2919 128.151 98.5398 129.176 99.1191 128.991C104.104 127.42 109.39 127.297 114.434 128.636C115.02 128.799 115.271 127.774 114.679 127.614H114.689Z" fill="#53203E"/>
<path d="M114.689 135.489C109.481 134.098 104.023 134.22 98.8736 135.842C98.2919 136.026 98.5398 137.051 99.1191 136.866C104.104 135.295 109.39 135.172 114.434 136.511C115.02 136.674 115.271 135.652 114.679 135.489H114.689Z" fill="#53203E"/>
<path d="M114.689 143.098C109.481 141.708 104.023 141.83 98.8736 143.451C98.2919 143.635 98.5398 144.66 99.1191 144.476C103.987 142.937 109.497 142.75 114.434 144.123C115.02 144.283 115.271 143.261 114.679 143.098H114.689Z" fill="#53203E"/>
<path d="M114.689 149.822C109.481 148.433 104.023 148.555 98.8736 150.177C98.2919 150.359 98.5398 151.383 99.1191 151.199C103.987 149.661 109.497 149.474 114.434 150.846C115.02 151.009 115.271 149.985 114.679 149.822H114.689Z" fill="#53203E"/>
<path d="M114.689 157C109.481 155.609 104.023 155.73 98.8736 157.353C98.2919 157.537 98.5398 158.561 99.1191 158.377C104.104 156.805 109.39 156.683 114.434 158.021C115.02 158.185 115.271 157.16 114.679 157H114.689Z" fill="#53203E"/>
<path d="M151.076 21.2441C146.658 22.6163 136.577 26.6987 132.24 36.2408C126.594 48.6196 131.648 65.689 124.765 73.83C117.882 81.971 114.441 88.1288 115.067 101.579C115.693 115.03 114.441 116.8 116.63 116.8C118.82 116.8 120.975 111.843 122.227 114.322C123.479 116.8 114.092 124.593 113.778 128.125C113.768 128.255 113.79 128.385 113.84 128.503C113.89 128.621 113.968 128.723 114.065 128.799C114.888 129.453 115.45 130.775 115.45 132.3C115.464 133.277 115.208 134.237 114.713 135.057C114.537 135.341 114.443 135.675 114.443 136.016C114.443 136.357 114.537 136.691 114.713 136.975C115.184 137.79 115.437 138.728 115.445 139.687C115.453 140.646 115.216 141.589 114.76 142.413C114.585 142.704 114.491 143.043 114.491 143.389C114.491 143.736 114.585 144.074 114.76 144.365C115.221 145.171 115.459 146.101 115.445 147.046C115.456 147.921 115.255 148.785 114.861 149.551C114.71 149.831 114.63 150.149 114.63 150.473C114.63 150.796 114.71 151.114 114.861 151.395C115.255 152.161 115.456 153.024 115.445 153.899C115.458 154.836 115.225 155.758 114.772 156.559C114.628 156.804 114.544 157.084 114.528 157.373C114.512 157.661 114.565 157.95 114.681 158.211C115.211 159.492 115.472 160.883 115.445 162.285C115.445 164.155 115.042 165.809 114.424 166.855C117.026 167.213 119.922 167.74 123.16 168.48C125.988 169.125 120.344 155.385 118.781 142.643C117.217 129.9 124.426 121.754 127.546 114.332C129.478 109.742 129.265 89.4799 128.815 83.7515C128.57 80.7595 129.512 77.757 131.466 75.729C137.9 69.0524 136.189 48.4168 139.748 39.4356C143.816 29.1639 152.267 25.2791 152.267 25.2791L151.076 21.2441Z" fill="#ED4F4F"/>
<path d="M123.346 168.893C123.26 168.893 123.173 168.883 123.089 168.864C120.033 168.166 117.104 167.621 114.382 167.242L113.803 167.163L114.117 166.636C114.718 165.619 115.079 164.002 115.079 162.282C115.104 160.941 114.852 159.61 114.343 158.384C114.199 158.062 114.133 157.705 114.153 157.348C114.173 156.991 114.277 156.645 114.456 156.343C114.869 155.605 115.082 154.757 115.069 153.896C115.079 153.091 114.895 152.296 114.534 151.589C114.353 151.249 114.258 150.865 114.258 150.474C114.258 150.082 114.353 149.698 114.534 149.358C114.895 148.651 115.079 147.857 115.069 147.051C115.084 146.182 114.867 145.327 114.443 144.586C114.23 144.231 114.116 143.817 114.116 143.394C114.116 142.971 114.23 142.557 114.443 142.202C114.862 141.443 115.079 140.576 115.072 139.694C115.064 138.812 114.833 137.949 114.402 137.198C114.184 136.847 114.068 136.435 114.068 136.013C114.068 135.591 114.184 135.179 114.402 134.828C114.853 134.073 115.085 133.191 115.069 132.294C115.069 130.938 114.596 129.721 113.842 129.112C113.693 128.995 113.575 128.839 113.499 128.659C113.423 128.478 113.391 128.28 113.408 128.083C113.567 126.284 115.681 123.729 117.919 121.024C119.932 118.593 122.436 115.567 121.898 114.503C121.751 114.213 121.596 114.053 121.437 114.024C121.01 113.947 120.31 114.637 119.633 115.304C118.737 116.188 117.72 117.189 116.628 117.189C116.411 117.211 116.193 117.186 115.985 117.115C115.778 117.045 115.586 116.93 115.42 116.778C114.863 116.175 114.871 115.053 114.888 112.038C114.9 109.807 114.92 106.436 114.694 101.582C114.078 88.3206 117.36 81.9732 124.488 73.5451C128.052 69.3311 128.344 62.5228 128.661 55.3168C128.943 48.7323 129.235 41.9319 131.911 36.0481C136.329 26.3031 146.722 22.1681 150.978 20.8433L151.327 20.7354L152.721 25.4761L152.414 25.6184C152.331 25.6552 144.051 29.569 140.094 39.5774C138.681 43.1461 138.111 48.5822 137.507 54.3265C136.601 62.9679 135.664 71.9069 131.729 75.9919C129.91 77.8803 128.96 80.759 129.188 83.693C129.63 89.324 129.871 109.767 127.887 114.471C127.018 116.429 126.057 118.338 125.008 120.192C121.721 126.25 117.995 133.097 119.159 142.579C119.849 148.21 121.343 154.049 122.546 158.742C124.085 164.758 124.79 167.697 123.985 168.606C123.903 168.699 123.804 168.773 123.694 168.822C123.584 168.872 123.466 168.896 123.346 168.893ZM115.018 166.523C117.605 166.896 120.369 167.421 123.243 168.076C123.393 168.111 123.427 168.076 123.44 168.055C123.994 167.426 122.892 163.117 121.825 158.95C120.617 154.233 119.124 148.365 118.417 142.679C117.222 132.934 121.014 125.96 124.363 119.797C125.433 117.824 126.444 115.962 127.208 114.15C129.056 109.757 128.909 89.7165 128.435 83.7641C128.189 80.6036 129.22 77.4773 131.199 75.423C134.942 71.5382 135.863 62.7466 136.756 54.2422C137.375 48.4374 137.949 42.9565 139.4 39.2692C143.038 30.0852 150.237 25.8817 151.803 25.0468L150.821 21.7256C146.467 23.1321 136.744 27.1986 132.559 36.4037C129.952 42.14 129.665 48.8614 129.385 55.3668C129.071 62.7203 128.771 69.6629 125.028 74.0929C117.897 82.521 114.817 88.4944 115.425 101.555C115.651 106.43 115.631 109.815 115.619 112.056C115.604 114.506 115.597 115.854 115.938 116.22C116.017 116.307 116.162 116.394 116.618 116.394C117.421 116.394 118.324 115.506 119.12 114.721C120.003 113.85 120.764 113.099 121.55 113.241C121.947 113.312 122.286 113.61 122.531 114.126C123.317 115.683 121.059 118.404 118.454 121.556C116.491 123.927 114.262 126.618 114.127 128.156C114.122 128.218 114.133 128.28 114.157 128.336C114.181 128.392 114.218 128.441 114.264 128.478C115.209 129.231 115.798 130.693 115.798 132.297C115.815 133.353 115.538 134.391 115.003 135.278C114.867 135.495 114.794 135.751 114.794 136.013C114.794 136.275 114.867 136.53 115.003 136.748C115.514 137.629 115.789 138.643 115.798 139.681C115.807 140.718 115.55 141.738 115.055 142.629C114.919 142.855 114.847 143.118 114.847 143.387C114.847 143.656 114.919 143.92 115.055 144.146C115.552 145.017 115.808 146.022 115.791 147.043C115.801 147.987 115.583 148.918 115.158 149.745C115.042 149.965 114.981 150.213 114.981 150.466C114.981 150.718 115.042 150.966 115.158 151.186C115.583 152.013 115.801 152.944 115.791 153.888C115.801 154.901 115.546 155.897 115.055 156.762C114.945 156.949 114.881 157.163 114.868 157.384C114.856 157.605 114.895 157.826 114.983 158.026C115.512 159.371 115.785 160.816 115.785 162.276C115.785 163.735 115.512 165.18 114.983 166.525L115.018 166.523Z" fill="#53203E"/>
<path d="M62.8396 21.3594C67.2456 22.7316 77.3391 26.8139 81.6765 36.3561C87.3221 48.7348 82.268 65.8043 89.1508 73.9453C96.0337 82.0862 99.4751 88.2335 98.8491 101.689C98.2232 115.145 99.4751 116.91 97.2855 116.91C95.096 116.91 92.9408 111.953 91.6889 114.432C90.4371 116.91 99.8236 124.703 100.135 128.235C100.146 128.364 100.126 128.495 100.076 128.613C100.026 128.731 99.9485 128.833 99.8506 128.909C99.0283 129.565 98.4662 130.885 98.4662 132.41C98.4515 133.387 98.7078 134.347 99.2026 135.167C99.379 135.452 99.473 135.786 99.473 136.127C99.473 136.469 99.379 136.803 99.2026 137.087C98.7078 137.907 98.4514 138.866 98.4662 139.842C98.452 140.783 98.687 141.709 99.1437 142.513C99.3191 142.803 99.4124 143.142 99.4124 143.487C99.4124 143.833 99.3191 144.172 99.1437 144.462C98.6821 145.268 98.4446 146.199 98.4588 147.146C98.4479 148.02 98.6493 148.882 99.043 149.648C99.1938 149.928 99.2732 150.246 99.2732 150.57C99.2732 150.893 99.1938 151.211 99.043 151.491C98.649 152.258 98.4476 153.121 98.4588 153.996C98.4488 154.934 98.6862 155.857 99.1437 156.656C99.2874 156.901 99.3711 157.182 99.387 157.471C99.4028 157.76 99.3504 158.049 99.2345 158.31C98.7043 159.591 98.4436 160.981 98.4711 162.382C98.4711 164.252 98.8737 165.906 99.4922 166.952C96.8903 167.312 93.9938 167.837 90.7562 168.577C87.9284 169.222 93.5716 155.482 95.1353 142.739C96.6989 129.997 89.4994 121.856 86.3796 114.424C84.4478 109.836 84.6613 89.5714 85.1105 83.843C85.3437 80.8536 84.4134 77.8511 82.4595 75.8205C76.0259 69.1439 77.7368 48.5109 74.1775 39.5271C70.1102 29.2554 61.6589 25.3706 61.6589 25.3706L62.8396 21.3594Z" fill="#ED4F4F"/>
<path d="M90.5696 168.998C90.4514 169.001 90.3339 168.977 90.2248 168.928C90.1157 168.879 90.0174 168.806 89.9363 168.714C89.1312 167.798 89.8357 164.866 91.3747 158.851C92.5775 154.157 94.0748 148.315 94.7621 142.687C95.9256 133.221 92.1995 126.358 88.9127 120.3C87.8639 118.451 86.9021 116.547 86.031 114.595C84.0501 109.889 84.2906 89.4481 84.73 83.8171C84.9607 80.883 84.0108 78.0043 82.1919 76.1159C78.2645 72.0309 77.3194 63.0945 76.4137 54.4505C75.8098 48.6957 75.2404 43.2596 73.8265 39.7014C69.8696 29.7115 61.5901 25.7924 61.5067 25.7424L61.1998 25.6002L62.5941 20.8594L62.9426 20.9674C67.199 22.2842 77.5796 26.4272 82.0103 36.1721C84.6858 42.056 84.9779 48.8616 85.2602 55.4434C85.5695 62.6468 85.8591 69.4525 89.4331 73.6691C96.5516 82.0972 99.8432 88.4446 99.2271 101.706C99.0013 106.56 99.0209 109.931 99.0332 112.162C99.0504 115.167 99.0577 116.291 98.5005 116.902C98.3351 117.054 98.1429 117.169 97.9355 117.239C97.728 117.31 97.5095 117.335 97.2929 117.313C96.2005 117.313 95.1843 116.313 94.2884 115.428C93.6109 114.761 92.9113 114.071 92.4842 114.148C92.3247 114.177 92.1676 114.337 92.0227 114.627C91.4852 115.68 93.9865 118.717 96.0017 121.148C98.2403 123.853 100.354 126.416 100.513 128.204C100.529 128.402 100.497 128.601 100.421 128.782C100.345 128.963 100.227 129.12 100.079 129.239C99.3179 129.845 98.8515 131.064 98.8515 132.418C98.8341 133.315 99.0665 134.197 99.5192 134.952C99.737 135.303 99.8533 135.715 99.8533 136.137C99.8533 136.559 99.737 136.971 99.5192 137.322C99.0669 138.076 98.8344 138.957 98.8515 139.853C98.8369 140.722 99.0532 141.577 99.475 142.318C99.6902 142.673 99.8047 143.088 99.8047 143.511C99.8047 143.935 99.6902 144.349 99.475 144.705C99.0532 145.446 98.8369 146.301 98.8515 147.17C98.8419 147.975 99.0263 148.768 99.3867 149.474C99.5677 149.814 99.6629 150.198 99.6629 150.59C99.6629 150.981 99.5677 151.366 99.3867 151.705C99.0263 152.412 98.842 153.207 98.8515 154.012C98.8389 154.873 99.0515 155.721 99.4652 156.459C99.644 156.761 99.7481 157.107 99.7679 157.464C99.7876 157.821 99.7223 158.178 99.5781 158.5C99.0684 159.726 98.817 161.057 98.8417 162.398C98.8417 164.108 99.2026 165.735 99.8039 166.755L100.118 167.281L99.5388 167.363C96.8166 167.74 93.8932 168.285 90.8322 168.983C90.7455 168.998 90.6574 169.003 90.5696 168.998ZM62.0958 25.1603C63.6618 25.9847 70.8588 30.1882 74.4991 39.3827C75.9571 43.07 76.5315 48.5508 77.1403 54.3636C78.0313 62.868 78.9542 71.6596 82.6976 75.547C84.676 77.5987 85.7094 80.7171 85.4615 83.8855C84.9951 89.8379 84.8503 109.878 86.6888 114.271C87.4522 116.083 88.4635 117.945 89.5337 119.918C92.8794 126.081 96.6743 133.066 95.4789 142.803C94.7818 148.487 93.2697 154.355 92.0718 159.072C91.0041 163.238 89.9019 167.547 90.4567 168.177C90.469 168.193 90.5033 168.232 90.6531 168.198C93.5274 167.542 96.2987 167.021 98.8786 166.644C98.3496 165.299 98.0771 163.854 98.0771 162.394C98.0771 160.935 98.3496 159.49 98.8786 158.145C98.9662 157.945 99.0057 157.725 98.9932 157.504C98.9808 157.284 98.9169 157.07 98.8074 156.883C98.3152 156.018 98.06 155.021 98.071 154.007C98.0611 153.063 98.2793 152.132 98.7043 151.305C98.82 151.086 98.8808 150.838 98.8808 150.586C98.8808 150.334 98.82 150.086 98.7043 149.867C98.2799 149.04 98.0618 148.109 98.071 147.165C98.055 146.143 98.3104 145.138 98.8074 144.267C98.9431 144.041 99.0153 143.778 99.0153 143.509C99.0153 143.24 98.9431 142.977 98.8074 142.75C98.3121 141.859 98.0549 140.839 98.064 139.802C98.0731 138.765 98.3481 137.75 98.8589 136.869C98.9935 136.651 99.0653 136.396 99.0653 136.134C99.0653 135.873 98.9935 135.617 98.8589 135.399C98.3239 134.512 98.047 133.475 98.0636 132.418C98.0636 130.817 98.6503 129.352 99.5978 128.599C99.6441 128.563 99.681 128.515 99.7051 128.459C99.7291 128.403 99.7395 128.342 99.7352 128.28C99.6002 126.742 97.3714 124.051 95.4077 121.678C92.7984 118.517 90.545 115.804 91.3305 114.248C91.5907 113.721 91.9246 113.434 92.3124 113.363C93.0979 113.22 93.8588 113.974 94.74 114.843C95.5378 115.633 96.4386 116.518 97.2438 116.518C97.7003 116.518 97.8451 116.428 97.9237 116.341C98.2649 115.975 98.2575 114.627 98.2428 112.178C98.2305 109.939 98.2109 106.552 98.4367 101.677C99.0455 88.6158 95.9649 82.6477 88.8342 74.2143C85.0884 69.7869 84.7914 62.8417 84.4772 55.4882C84.1973 48.9881 83.9102 42.2693 81.3009 36.525C77.128 27.3068 67.3953 23.2535 63.0408 21.847L62.0958 25.1603Z" fill="#53203E"/>
<path d="M206.024 17.1963C201.431 8.99736 191.136 0.0767758 168.178 4.10908C156.032 6.24507 145.497 9.84017 144.613 10.1984C144.579 10.2049 144.545 10.2155 144.513 10.23C143.563 10.6487 143.931 14.415 145.333 18.6422C146.734 22.8694 150.178 26.5172 150.225 26.4698C151.408 25.9272 159.948 20.8388 170.156 19.0426C179.013 17.486 190.179 17.5518 195.042 25.4005C200.231 33.7759 201.136 39.054 200.231 45.8412C199.754 49.4284 195.734 56.7002 189.018 55.8258C186.983 55.5624 185.827 53.013 184.614 51.1324C183.758 49.8156 182.712 48.4592 181.151 48.5461C180.701 48.5732 180.276 48.7817 179.963 49.1299C179.65 49.478 179.471 49.9402 179.462 50.424C179.447 51.5117 180.294 52.2044 181.003 52.8497C181.769 53.545 182.476 54.3851 182.832 55.436C183.188 56.4869 183.095 57.7932 182.417 58.5965C182.03 59.0276 181.533 59.3279 180.989 59.4604C179.045 60.0135 176.934 59.197 175.063 60.5139C174.698 60.7692 174.4 61.1217 174.199 61.5371C173.998 61.9525 173.901 62.4166 173.917 62.8843C174.005 64.7806 175.913 65.5049 177.461 65.4338C178.912 65.368 180.466 64.9545 181.752 65.7367C182.033 65.8734 182.26 66.113 182.392 66.4126C182.524 66.7123 182.552 67.0524 182.471 67.3723C182.406 67.7118 182.272 68.0319 182.079 68.3099C181.886 68.588 181.639 68.8172 181.354 68.9815C179.447 70.1035 177.11 69.4714 175.296 71.0596C174.975 71.3348 174.718 71.6861 174.545 72.086C174.371 72.4858 174.287 72.9233 174.297 73.3641C174.383 75.4343 176.507 76.0637 178.06 75.5449C179.658 75.0181 181.006 73.7012 182.678 73.4247C182.865 73.3921 183.058 73.4083 183.238 73.472C183.419 73.5357 183.583 73.645 183.716 73.7908C184.393 74.5493 183.839 75.6344 183.225 76.2507C182.366 77.1067 181.33 77.694 180.461 78.5342C179.381 79.5877 178.534 81.2365 179.29 82.8641C179.521 83.3542 179.871 83.7682 180.303 84.0626C180.735 84.357 181.233 84.5207 181.745 84.5366C183.708 84.6129 185.252 83.0854 186.517 81.4893C187.47 80.2835 188.339 79.0044 189.118 77.6624C189.663 76.7222 190.176 75.7371 190.893 74.9628C192.324 73.4247 196.072 71.9577 196.87 71.6574C196.974 71.6188 197.076 71.5731 197.175 71.5205C206.041 66.8429 208.738 61.3225 211.385 50.9375C213.316 43.3654 213.955 31.3686 206.024 17.1963Z" fill="#FF6464"/>
<path d="M181.885 84.9445H181.728C181.147 84.927 180.582 84.7419 180.092 84.4086C179.602 84.0753 179.204 83.6062 178.942 83.0508C178.097 81.2282 179.037 79.3635 180.198 78.2494C180.636 77.841 181.097 77.4619 181.578 77.1143C182.062 76.7679 182.523 76.3859 182.957 75.9712C183.284 75.6446 183.637 75.1258 183.65 74.6543C183.654 74.5497 183.638 74.4453 183.602 74.3477C183.567 74.2502 183.513 74.1617 183.443 74.0881C183.351 73.9889 183.237 73.9147 183.113 73.8717C182.988 73.8287 182.856 73.818 182.727 73.8405C181.836 73.9827 181.038 74.4515 180.193 74.944C179.55 75.3505 178.871 75.6875 178.166 75.9501C177.637 76.1341 177.076 76.1903 176.525 76.1148C175.973 76.0392 175.444 75.8337 174.975 75.5129C174.656 75.2763 174.394 74.962 174.21 74.5958C174.026 74.2296 173.926 73.8218 173.917 73.4059C173.903 72.9027 173.999 72.4031 174.196 71.9461C174.392 71.4891 174.685 71.0873 175.051 70.7721C176.143 69.8161 177.388 69.6106 178.593 69.4105C179.513 69.2577 180.382 69.1155 181.168 68.6546C181.405 68.5187 181.611 68.3283 181.772 68.0971C181.933 67.8658 182.044 67.5993 182.098 67.3166C182.201 66.753 182.044 66.4001 181.558 66.1025C180.662 65.5573 179.594 65.6626 178.473 65.7706C178.144 65.8048 177.803 65.8365 177.466 65.8523C175.584 65.9365 173.63 64.9594 173.539 62.9261C173.518 62.3879 173.629 61.8531 173.86 61.3747C174.09 60.8962 174.433 60.4905 174.855 60.1975C176.082 59.3337 177.385 59.3231 178.644 59.3126C179.397 59.3422 180.15 59.2696 180.886 59.0966C181.36 58.984 181.794 58.7249 182.133 58.3513C182.673 57.706 182.81 56.5946 182.476 55.5832C182.199 54.7483 181.651 53.9792 180.758 53.1654L180.628 53.0495C179.936 52.4227 179.072 51.6431 179.086 50.4315C179.096 49.8466 179.312 49.2873 179.69 48.8661C180.069 48.4449 180.582 48.1931 181.126 48.1612C182.82 48.0664 183.949 49.4307 184.914 50.9188C185.13 51.2506 185.346 51.6088 185.557 51.9538C186.539 53.5736 187.55 55.2487 189.057 55.4436C195.719 56.3101 199.433 48.9961 199.857 45.7987C200.682 39.6041 200.103 34.3207 194.725 25.6346C189.877 17.8096 178.718 17.9519 170.208 19.4478C161.406 20.9965 153.742 25.0657 151.224 26.4036C150.856 26.6012 150.595 26.7381 150.426 26.8198L150.325 26.9198L150.129 26.8698C149.815 26.7882 146.364 22.9797 144.974 18.7894C143.695 14.9309 142.959 10.4956 144.365 9.87408C144.41 9.85551 144.456 9.83969 144.503 9.82667C145.718 9.33679 156.116 5.8207 168.119 3.71369C191.283 -0.363393 201.691 8.68361 206.343 16.9905C214.34 31.2708 213.692 43.3941 211.743 51.0478C209.043 61.6251 206.325 67.1428 197.339 71.8836C197.227 71.9413 197.112 71.9923 196.995 72.0364C196.259 72.3129 192.535 73.7667 191.158 75.2495C190.591 75.916 190.096 76.6504 189.685 77.4382C189.602 77.5857 189.519 77.7332 189.44 77.8781C188.652 79.2361 187.771 80.5301 186.806 81.7497C185.616 83.2536 183.996 84.9445 181.885 84.9445ZM182.866 73.0188C183.075 73.0173 183.282 73.0611 183.474 73.1476C183.666 73.234 183.84 73.3613 183.986 73.5218C184.123 73.6719 184.23 73.8504 184.301 74.0465C184.372 74.2425 184.405 74.452 184.398 74.6622C184.327 75.3963 183.994 76.0725 183.47 76.5506C183.01 76.9895 182.523 77.3942 182.012 77.7622C181.555 78.0915 181.117 78.4513 180.701 78.8394C180.238 79.2898 178.784 80.9016 179.614 82.6952C179.817 83.1222 180.124 83.4823 180.502 83.7377C180.88 83.9932 181.315 84.1344 181.762 84.1464C183.623 84.2176 185.068 82.7163 186.239 81.2493C187.177 80.0545 188.033 78.7878 188.799 77.4593C188.885 77.3171 188.966 77.1696 189.045 77.0247C189.485 76.1839 190.015 75.4008 190.623 74.6912C192.079 73.1241 195.675 71.6913 196.74 71.2884C196.831 71.2553 196.919 71.2157 197.005 71.1698C205.736 66.566 208.385 61.1773 211.021 50.8398C212.933 43.3361 213.564 31.442 205.702 17.3909C201.168 9.29728 190.974 0.487315 168.234 4.48538C156.189 6.61083 145.794 10.1454 144.739 10.5615L144.67 10.5799C144.179 10.7959 144.11 13.7773 145.676 18.4997C146.877 22.1185 149.589 25.2816 150.279 25.9928C150.436 25.9137 150.644 25.8031 150.897 25.6662C153.44 24.315 161.177 20.2064 170.09 18.6393C178.816 17.1038 190.279 16.9905 195.346 25.1684C200.859 34.0679 201.446 39.504 200.594 45.8883C200.162 49.1199 196.578 56.2864 190.135 56.2864C189.745 56.2866 189.356 56.2611 188.969 56.21C187.115 55.9703 185.957 54.0556 184.933 52.3647C184.717 52.0092 184.514 51.672 184.305 51.3481C183.323 49.8468 182.422 48.8618 181.165 48.9329C180.809 48.9535 180.473 49.1182 180.225 49.3938C179.978 49.6694 179.836 50.0355 179.83 50.4184C179.818 51.2533 180.473 51.8432 181.106 52.4148L181.237 52.5333C182.238 53.4446 182.854 54.3216 183.178 55.2935C183.6 56.5708 183.404 58.0036 182.687 58.8596C182.253 59.3496 181.694 59.6913 181.079 59.842C180.283 60.0329 179.467 60.1144 178.652 60.0843C177.447 60.0843 176.31 60.1054 175.262 60.8402C174.949 61.0568 174.693 61.3572 174.521 61.7119C174.349 62.0666 174.266 62.4633 174.28 62.8629C174.359 64.5564 176.209 65.0885 177.437 65.0332C177.753 65.02 178.087 64.9857 178.419 64.9541C179.609 64.8383 180.839 64.7197 181.936 65.3887C182.286 65.566 182.567 65.8681 182.732 66.2433C182.897 66.6186 182.935 67.0436 182.839 67.4457C182.764 67.843 182.609 68.2176 182.383 68.5431C182.158 68.8685 181.869 69.1368 181.536 69.3288C180.635 69.8556 179.661 70.0189 178.718 70.1743C177.562 70.3639 176.467 70.5456 175.527 71.3647C175.251 71.6008 175.03 71.9021 174.88 72.2453C174.731 72.5884 174.657 72.964 174.666 73.3427C174.668 73.6366 174.737 73.9254 174.865 74.1852C174.993 74.445 175.177 74.6681 175.402 74.8361C175.777 75.0856 176.198 75.2449 176.635 75.3031C177.073 75.3613 177.517 75.317 177.938 75.1732C178.595 74.9267 179.228 74.6108 179.828 74.2303C180.692 73.7246 181.585 73.2005 182.609 73.0372C182.692 73.0254 182.775 73.0192 182.859 73.0188H182.866ZM150.087 26.1007H150.06H150.075H150.087Z" fill="#53203E"/>
<path d="M6.96947 17.1963C11.5646 8.99736 21.8569 0.0767758 44.8151 4.10908C56.9631 6.24507 67.4984 9.84017 68.3796 10.1984C68.4134 10.2049 68.4463 10.2155 68.4778 10.23C69.4278 10.6487 69.062 14.415 67.6604 18.6422C66.2588 22.8694 62.95 26.1142 62.9033 26.0695C61.7227 25.5243 53.0431 20.8388 42.8367 19.0426C33.9803 17.486 22.4754 17.3227 17.9515 25.4005C13.7541 32.9067 12.4777 40.0601 14.164 46.6787C14.8303 49.2691 15.928 51.7086 17.4041 53.8795C19.1993 55.6841 21.2886 57.1188 23.5677 58.1119C25.016 58.7361 26.6238 59.1654 28.1039 58.6387C30.048 57.9486 31.2949 55.8232 32.5051 53.9453C33.3618 52.6284 34.4074 51.272 35.9686 51.3589C36.4188 51.3861 36.8429 51.5945 37.156 51.9427C37.4691 52.2909 37.6482 52.7531 37.6574 53.2368C37.6721 54.3246 36.8277 55.0173 36.1183 55.6625C35.35 56.3578 34.6455 57.1954 34.2872 58.2489C33.9288 59.3024 34.0245 60.6061 34.7044 61.4094C35.0912 61.8404 35.5869 62.1407 36.1306 62.2733C38.0771 62.8264 40.1856 62.0099 42.0561 63.3268C42.4217 63.5821 42.7197 63.9346 42.921 64.3499C43.1222 64.7652 43.22 65.2294 43.2049 65.6972C43.1165 67.5935 41.2068 68.3178 39.6604 68.2467C38.2072 68.1808 36.6534 67.7673 35.3696 68.5496C35.0882 68.6862 34.8612 68.9257 34.729 69.2252C34.5969 69.5248 34.5681 69.865 34.648 70.1851C34.7132 70.5247 34.8469 70.8448 35.0399 71.1228C35.2329 71.4009 35.4803 71.6301 35.7648 71.7944C37.6746 72.9164 40.0089 72.2816 41.8254 73.8724C42.1463 74.1477 42.4033 74.4991 42.5762 74.8989C42.7492 75.2988 42.8333 75.7363 42.8219 76.177C42.7385 78.2471 40.6128 78.8766 39.059 78.3577C37.4635 77.831 36.1134 76.5141 34.4418 76.2375C34.2544 76.2047 34.0624 76.2208 33.8821 76.2846C33.7018 76.3483 33.5384 76.4578 33.4059 76.6036C32.726 77.3622 33.2808 78.4473 33.8969 79.0636C34.7535 79.9196 35.7918 80.5069 36.6583 81.3471C37.7384 82.4006 38.5852 84.0493 37.8317 85.677C37.5991 86.1684 37.2471 86.5833 36.8128 86.8777C36.3786 87.1721 35.8782 87.3351 35.3647 87.3494C33.3863 87.4258 31.8546 85.8956 30.5905 84.2995C29.6376 83.095 28.7687 81.8168 27.991 80.4753C27.4436 79.535 26.9306 78.55 26.2138 77.7757C24.7852 76.2376 21.037 74.7705 20.2368 74.4703C20.1329 74.4312 20.0312 74.3855 19.9324 74.3333C11.0663 69.6558 4.24727 61.3199 1.59872 50.9349C-0.320813 43.3654 -0.961474 31.3686 6.96947 17.1963Z" fill="#FF6464"/>
<path d="M35.2346 87.7603C33.1212 87.7603 31.5036 86.0615 30.3254 84.5681C29.3608 83.348 28.4805 82.0541 27.6915 80.6965L27.4461 80.2566C27.035 79.4689 26.5408 78.7345 25.9733 78.068C24.5962 76.5852 20.8701 75.1313 20.1362 74.8548C20.0184 74.8102 19.9029 74.7593 19.79 74.702C10.6146 69.8612 3.86189 61.2408 1.26488 51.0508C-0.698831 43.397 -1.33704 31.2738 6.66509 16.9935C11.3289 8.68654 21.7243 -0.360464 44.8887 3.71661C56.8919 5.82363 67.2873 9.33708 68.5024 9.8138C68.549 9.82681 68.5949 9.84264 68.6398 9.8612C70.0463 10.4828 69.3099 14.918 68.0311 18.7765C66.6418 22.9405 63.3378 26.3644 63.0015 26.4566L62.8076 26.5066L62.707 26.4066L62.1547 26.1432C55.3406 22.7614 48.8235 20.5069 42.7851 19.4429C34.0417 17.9047 22.6939 17.7283 18.2755 25.6138C14.1272 33.0226 12.8753 40.0785 14.5224 46.5839C15.1743 49.1155 16.2462 51.5003 17.6864 53.624C19.4406 55.3842 21.4817 56.7832 23.7077 57.7511C25.4799 58.5122 26.8398 58.6782 27.9885 58.2778C29.6602 57.6826 30.804 55.9074 31.916 54.1849L32.2081 53.7346C33.1752 52.2465 34.3019 50.8822 35.9956 50.977C36.5349 51.0118 37.0425 51.2624 37.4179 51.6794C37.7934 52.0964 38.0093 52.6493 38.0231 53.2289C38.0403 54.4404 37.1763 55.22 36.4816 55.8469L36.3515 55.9627C35.4556 56.7766 34.9082 57.543 34.6333 58.3805C34.297 59.3919 34.4344 60.5034 34.9744 61.1486C35.3139 61.5217 35.7472 61.7806 36.2214 61.894C36.958 62.0656 37.7116 62.1381 38.4649 62.11C39.7242 62.11 41.0251 62.131 42.2549 62.9949C42.6756 63.2877 43.018 63.6931 43.2483 64.1711C43.4785 64.6491 43.5888 65.1832 43.5681 65.7209C43.4749 67.7568 41.521 68.7339 39.6407 68.6496C39.3069 68.6338 38.9657 68.6022 38.6343 68.568C37.5101 68.46 36.4448 68.3546 35.5513 68.8998C35.0604 69.1974 34.9057 69.5477 35.0088 70.114C35.0641 70.3961 35.1762 70.6618 35.3373 70.8925C35.4985 71.1232 35.7047 71.3133 35.9416 71.4493C36.7271 71.9129 37.596 72.0551 38.514 72.2078C39.7193 72.408 40.9687 72.6134 42.0561 73.5695C42.4228 73.8839 42.7161 74.2855 42.913 74.7427C43.1098 75.1998 43.2047 75.6999 43.1901 76.2033C43.1828 76.6195 43.083 77.0278 42.899 77.3942C42.7149 77.7607 42.4521 78.0748 42.1322 78.3103C41.2976 78.9424 40.0457 79.1136 38.9411 78.7475C38.2365 78.4854 37.5581 78.1484 36.9161 77.7414C36.0717 77.2462 35.2739 76.7801 34.3804 76.6378C34.2516 76.6155 34.1197 76.6264 33.9955 76.6694C33.8713 76.7124 33.7584 76.7865 33.6661 76.8854C33.5969 76.9593 33.5426 77.0478 33.5067 77.1452C33.4708 77.2426 33.4541 77.347 33.4575 77.4517C33.4722 77.9337 33.8257 78.4551 34.1521 78.7686C34.5859 79.1826 35.046 79.5637 35.5292 79.909C36.0106 80.2583 36.4721 80.6383 36.9112 81.0468C38.0722 82.174 39.0099 84.0256 38.1655 85.8481C37.9029 86.4036 37.5054 86.8727 37.0151 87.2059C36.5248 87.5392 35.9597 87.7244 35.3795 87.7418L35.2346 87.7603ZM34.0957 3.50328C18.6707 3.50328 11.0442 10.6987 7.28857 17.4096C-0.56628 31.4502 0.0571984 43.3443 1.96936 50.8585C4.51237 60.83 11.1227 69.2659 20.1091 74.0041C20.1939 74.0504 20.2817 74.09 20.3718 74.1226C21.4396 74.5256 25.0356 75.9662 26.4888 77.5254C27.0989 78.2337 27.6287 79.017 28.0671 79.8589L28.3126 80.2935C29.0844 81.6095 29.945 82.863 30.8875 84.044C32.0559 85.5216 33.5041 87.0228 35.3623 86.9412C35.8091 86.9287 36.2446 86.7874 36.6229 86.532C37.0013 86.2767 37.3086 85.9167 37.5125 85.49C38.3422 83.6964 36.8891 82.0845 36.4227 81.6315C36.007 81.2444 35.5692 80.8855 35.1119 80.5569C34.6017 80.1889 34.1153 79.7842 33.6563 79.3454C33.0917 78.7817 32.7432 78.0759 32.726 77.4569C32.7195 77.2468 32.7527 77.0375 32.8236 76.8415C32.8945 76.6456 33.0015 76.467 33.1384 76.3165C33.3125 76.1251 33.5268 75.9812 33.7634 75.8969C34 75.8126 34.252 75.7903 34.4982 75.8319C35.5218 75.9952 36.4153 76.5193 37.2794 77.025C37.8799 77.4051 38.5138 77.7209 39.1719 77.9679C39.5897 78.116 40.0324 78.1653 40.4696 78.1126C40.9069 78.0599 41.3283 77.9063 41.7051 77.6624C41.9307 77.4954 42.1155 77.2725 42.2437 77.0125C42.3719 76.7525 42.4398 76.4632 42.4415 76.169C42.45 75.7903 42.3767 75.4147 42.2272 75.0715C42.0777 74.7283 41.8561 74.427 41.5799 74.1911C40.6447 73.372 39.5523 73.1902 38.3889 73.0006C37.4463 72.8426 36.4718 72.6819 35.5734 72.1552C35.2407 71.9631 34.9514 71.6948 34.7262 71.3694C34.5009 71.0439 34.3452 70.6693 34.27 70.272C34.1031 69.3713 34.4074 68.6918 35.1708 68.2124C36.268 67.5461 37.5003 67.6646 38.6883 67.7805C39.0099 67.8121 39.3437 67.8463 39.6702 67.8595C40.8975 67.9148 42.7507 67.3828 42.8293 65.6866C42.8435 65.2874 42.7605 64.891 42.5883 64.5367C42.4161 64.1824 42.1607 63.8825 41.8474 63.6665C40.8018 62.9317 39.6628 62.9212 38.4576 62.9106C37.6429 62.9407 36.8279 62.8593 36.0324 62.6683C35.4176 62.5171 34.8577 62.1755 34.4222 61.6859C33.7054 60.8299 33.509 59.3972 33.9312 58.1198C34.2528 57.1453 34.8689 56.2762 35.8704 55.3596L36.0005 55.2411C36.6362 54.6696 37.2892 54.0796 37.2794 53.2447C37.2724 52.8616 37.1306 52.4955 36.8825 52.2199C36.6343 51.9444 36.2982 51.7798 35.9416 51.7592C34.6848 51.6881 33.7766 52.6732 32.8021 54.1744L32.5124 54.6248C31.3367 56.4526 30.1216 58.341 28.2119 59.0205C26.4716 59.6369 24.6453 59.0074 23.4205 58.4806C21.1036 57.4706 18.9807 56.0098 17.1587 54.1718L17.112 54.1138C15.6083 51.9044 14.4898 49.4211 13.8105 46.784C12.0923 40.0627 13.3883 32.7987 17.6447 25.1871C22.2766 16.9197 33.941 17.0646 42.9103 18.6422C49.015 19.7168 55.5983 21.9924 62.4713 25.4057L62.8641 25.6006C63.5317 24.9606 66.1336 22.0872 67.3241 18.5026C68.8902 13.7803 68.8239 10.7988 68.3502 10.5881L68.2618 10.5644C67.2063 10.1377 56.8109 6.61376 44.7611 4.49358C41.2368 3.85408 37.67 3.52289 34.0957 3.50328ZM63.0285 25.6928H63.0482H63.0653H63.0285Z" fill="#53203E"/>
<path d="M125.579 48.3573C125.641 41.1589 123.055 35.2972 119.803 35.2649C116.551 35.2326 113.865 41.042 113.802 48.2404C113.74 55.4389 116.326 61.3006 119.579 61.3329C122.831 61.3651 125.517 55.5558 125.579 48.3573Z" fill="white"/>
<path d="M119.601 61.728H119.571C116.059 61.6938 113.361 55.7678 113.435 48.2352C113.501 40.7264 116.284 34.8662 119.78 34.8662H119.812C123.322 34.9004 126.019 40.8291 125.948 48.359C125.877 55.889 123.096 61.728 119.601 61.728ZM114.168 48.2431C114.11 55.0909 116.586 60.9037 119.569 60.9327H119.593C122.573 60.9327 125.138 55.1831 125.197 48.3511C125.256 41.5191 122.777 35.6932 119.797 35.6616H119.763C116.783 35.6616 114.218 41.4111 114.161 48.2431H114.168Z" fill="#53203E"/>
<path d="M125.828 47.9624C125.886 41.273 123.941 35.8305 121.485 35.8061C119.029 35.7817 116.991 41.1848 116.933 47.8741C116.875 54.5635 118.82 60.0061 121.276 60.0305C123.733 60.0549 125.771 54.6518 125.828 47.9624Z" fill="#53203E"/>
<path d="M117.17 41.0311L120.71 43.4357L118.184 37.2227L117.17 41.0311Z" fill="white"/>
<path d="M99.6962 48.3583C99.7582 41.1598 97.1722 35.2982 93.9201 35.2659C90.668 35.2336 87.9814 41.0429 87.9193 48.2414C87.8573 55.4399 90.4433 61.3016 93.6954 61.3338C96.9475 61.3661 99.6341 55.5568 99.6962 48.3583Z" fill="white"/>
<path d="M93.7214 61.7272H93.6895C90.1793 61.6929 87.4792 55.767 87.5529 48.2344C87.6265 40.7018 90.4248 34.8364 93.9349 34.8653C97.4451 34.8943 100.145 40.8282 100.072 48.3582C99.9979 55.8881 97.2168 61.7272 93.7214 61.7272ZM93.8907 35.6528C90.9084 35.6528 88.3457 41.4024 88.2868 48.2344C88.2279 55.0664 90.7046 60.8949 93.687 60.9239H93.7091C96.6915 60.9239 99.2541 55.1744 99.313 48.3424C99.372 41.5104 96.8952 35.6844 93.9128 35.6528H93.8907Z" fill="#53203E"/>
<path d="M99.9476 47.9634C100.005 41.274 98.0608 35.8314 95.6044 35.8071C93.148 35.7827 91.11 41.1857 91.0524 47.8751C90.9947 54.5645 92.9392 60.0071 95.3956 60.0314C97.8519 60.0558 99.8899 54.6528 99.9476 47.9634Z" fill="#53203E"/>
<path d="M91.2913 41.0311L94.8284 43.4357L92.305 37.2227L91.2913 41.0311Z" fill="white"/>
<path d="M102.241 65.5885C102.924 66.0125 103.81 65.8308 104.505 65.4226C105.241 64.9932 106.144 63.916 107.033 63.9318C108.157 63.9503 108.795 65.3989 109.964 65.5437C113.3 65.9598 112.19 61.3903 110.7 60.0128C109.926 59.3215 108.99 58.873 107.993 58.7169C106.997 58.5607 105.98 58.7029 105.054 59.1278C103.56 59.8153 99.7278 63.974 102.229 65.578L102.241 65.5885Z" fill="#53203E"/>
<path d="M92.0448 33.6496C91.5248 33.6541 91.0055 33.6073 90.4935 33.51C90.3783 33.471 90.2806 33.3878 90.2191 33.2763C90.1575 33.1648 90.1364 33.0329 90.1598 32.9058C90.1832 32.7786 90.2494 32.6652 90.3459 32.5872C90.4423 32.5092 90.5621 32.472 90.6825 32.4829C90.7193 32.4829 94.1411 33.1835 96.365 31.0343C96.4626 30.9414 96.5907 30.8939 96.721 30.9023C96.8512 30.9107 96.9731 30.9743 97.0596 31.0791C97.1462 31.1839 97.1905 31.3212 97.1826 31.461C97.1748 31.6008 97.1156 31.7315 97.0179 31.8244C95.4371 33.3415 93.417 33.6496 92.0448 33.6496Z" fill="#53203E"/>
<path d="M121.118 33.6495C121.638 33.6538 122.157 33.607 122.669 33.5099C122.795 33.482 122.907 33.4016 122.978 33.2862C123.05 33.1708 123.076 33.0298 123.052 32.8936C123.026 32.7578 122.951 32.6385 122.843 32.5616C122.736 32.4847 122.604 32.4563 122.477 32.4828C122.443 32.4828 119.021 33.1834 116.797 31.0342C116.7 30.9409 116.572 30.8931 116.441 30.9013C116.311 30.9094 116.188 30.9729 116.102 31.0777C116.015 31.1824 115.97 31.32 115.978 31.46C115.985 31.6 116.044 31.7311 116.142 31.8243C117.725 33.3414 119.745 33.6495 121.118 33.6495Z" fill="#53203E"/>
</svg>
