<svg width="100" height="100" viewBox="0 0 100 100" fill="none" xmlns="http://www.w3.org/2000/svg">
<path d="M30.3674 23.8125C31.4054 26.1337 31.5213 28.9213 30.4408 31.2228C29.9493 32.2429 29.2476 33.1294 28.389 33.815C27.5304 34.5006 26.5375 34.9673 25.4856 35.1796C22.9885 34.4313 19.6048 34.9334 17.4117 36.0977C15.8827 36.9075 14.5923 38.3229 14.254 40.0434C14.0773 40.9382 14.1622 41.8637 14.2987 42.767C14.4868 44.0224 14.7793 45.2802 15.3792 46.394C15.979 47.5078 16.9173 48.4715 18.0965 48.8887C19.6151 49.4253 21.3001 48.9958 22.7752 48.3447C25.1622 47.29 27.3254 45.3073 28.2397 42.7474C28.2718 42.6575 28.3016 42.5664 28.3303 42.4741C28.3968 42.2625 28.4519 42.0421 28.5011 41.8182C29.0127 40.3068 29.1366 38.6724 29.3477 37.0786C29.5908 35.2461 29.9992 33.347 31.1669 31.9304C32.3345 30.5139 34.1847 29.7643 35.9729 29.9612C35.4889 27.0395 33.1902 24.5189 30.3674 23.8125Z" fill="#FFCC4A"/>
<path d="M19.5795 49.375C19.0516 49.3788 18.5265 49.2919 18.0241 49.1178C16.8771 48.7129 15.8677 47.7873 15.1807 46.5123C14.6519 45.5277 14.31 44.3856 14.0715 42.8004C13.9442 41.9524 13.8421 40.9543 14.029 39.987C14.3559 38.3255 15.5821 36.7871 17.3095 35.8726C19.6701 34.6222 23.102 34.2259 25.4959 34.9225C26.5033 34.712 27.4532 34.2593 28.2743 33.5986C29.0953 32.9378 29.7662 32.086 30.2365 31.1072C31.2436 28.9621 31.215 26.2729 30.1608 23.9148C30.1422 23.8729 30.135 23.8263 30.14 23.7802C30.145 23.7342 30.162 23.6905 30.1891 23.6544C30.2161 23.6182 30.2522 23.591 30.2931 23.5759C30.334 23.5608 30.378 23.5584 30.42 23.569C33.3232 24.2951 35.6964 26.903 36.1977 29.9097C36.2039 29.9472 36.2019 29.9857 36.1919 30.0222C36.1819 30.0587 36.1641 30.0922 36.14 30.1202C36.1159 30.1481 36.086 30.1696 36.0528 30.183C36.0197 30.1965 35.984 30.2015 35.9487 30.1977C34.2477 30.0143 32.4377 30.7565 31.3388 32.0881C30.1849 33.4874 29.7995 35.4111 29.5747 37.1083C29.5357 37.4061 29.499 37.7052 29.46 38.0043C29.3028 39.2978 29.14 40.6343 28.719 41.8848C28.6605 42.1444 28.6043 42.3561 28.5458 42.5469C28.516 42.6429 28.4839 42.7377 28.4518 42.83C27.5869 45.2594 25.4982 47.4034 22.86 48.5677C21.6419 49.1104 20.5545 49.375 19.5795 49.375ZM22.8486 35.0714C21.0133 35.0714 19.0335 35.5083 17.5126 36.3132C15.9067 37.1612 14.7757 38.5729 14.4775 40.0891C14.3032 40.9765 14.4041 41.918 14.5245 42.7229C14.754 44.2453 15.0786 45.3382 15.5775 46.2662C16.2084 47.4354 17.1283 48.2821 18.1675 48.6501C19.4029 49.0858 20.8814 48.9098 22.6879 48.1123C25.2114 47.0046 27.2027 44.9591 28.0251 42.654C28.056 42.5678 28.0847 42.4792 28.1134 42.3906C28.1696 42.2097 28.2224 42.0091 28.2774 41.7568C28.2794 41.7475 28.2821 41.7385 28.2855 41.7297C28.6927 40.5272 28.8532 39.2129 29.0081 37.9415C29.0448 37.64 29.0815 37.3384 29.1228 37.0393C29.3522 35.2696 29.764 33.2586 30.997 31.762C32.1441 30.3737 33.9185 29.5934 35.6895 29.6833C35.1493 27.1553 33.1959 24.9757 30.7757 24.1807C31.6933 26.5559 31.6508 29.1922 30.6483 31.3287C30.1416 32.3838 29.4169 33.3007 28.5294 34.0093C27.6421 34.7179 26.6154 35.1994 25.528 35.4172C25.4944 35.4252 25.4595 35.4252 25.4259 35.4172C24.5851 35.1787 23.7182 35.0624 22.8486 35.0714Z" fill="#53203E"/>
<path d="M84.693 33.387C84.693 33.387 83.8038 30.064 80.1678 31.4178C80.1678 31.4178 79.6851 29.3957 77.9337 29.7723C77.9337 29.7723 72.8669 28.0493 71.1968 30.3212C71.1968 30.3212 69.3444 29.3785 68.5589 31.2664C68.5589 31.2664 64.972 30.7114 65.8472 26.7656C65.8472 26.7656 62.4234 29.061 62.2089 29.3231C61.9944 29.5853 62.7458 37.0767 62.7458 37.0767C62.7458 37.0767 65.1944 37.3967 65.8715 39.5985C65.8715 39.5985 65.0785 42.7368 66.6893 44.9928C68.2996 47.2487 69.4673 47.1109 69.4673 47.1109C69.4673 47.1109 69.5257 48.5644 70.2267 49.5047C70.9276 50.445 72.2706 50.2074 72.2706 50.2074C72.2706 50.2074 72.0631 51.2117 72.8958 51.5797C73.7285 51.9477 74.7804 51.3828 74.7804 51.3828C74.7804 51.3828 77.7627 53.6387 80.3846 53.2621C83.0066 52.8855 83.3669 51.9083 83.3669 51.9083C83.3669 51.9083 85.4659 51.1908 85.6416 49.3114C85.8169 47.4321 87.5673 47.0567 87.2173 42.7344C86.8678 38.4121 84.693 33.387 84.693 33.387Z" fill="#FFCC4A"/>
<path d="M79.7696 53.5512C77.5331 53.5512 75.2812 52.0386 74.7583 51.6645C74.4359 51.8097 73.5597 52.1383 72.8083 51.8072C72.1812 51.5291 72.0158 50.926 72.0158 50.478C71.5457 50.4977 70.62 50.4251 70.0462 49.6571C69.4728 48.8891 69.3018 47.8049 69.2551 47.3433C68.8074 47.2769 67.7752 46.9188 66.5023 45.1428C64.9625 42.9853 65.5135 40.119 65.628 39.6045C64.9766 37.6353 62.7354 37.3203 62.7121 37.3178C62.6611 37.3109 62.6135 37.2856 62.577 37.2461C62.541 37.2066 62.5182 37.1551 62.5125 37.0999C62.5125 37.0803 62.3224 35.2022 62.1686 33.3167C61.8382 29.3992 61.9392 29.2749 62.0378 29.1555C62.2569 28.8885 64.9168 27.0953 65.7266 26.5525C65.7653 26.5269 65.8102 26.5141 65.8555 26.5158C65.9009 26.5175 65.9448 26.5336 65.9817 26.562C66.0186 26.5905 66.0467 26.63 66.0625 26.6757C66.0784 26.7213 66.0812 26.771 66.071 26.8184C65.8219 27.9408 65.9275 28.8774 66.385 29.5998C66.985 30.5463 68.0298 30.8847 68.4289 30.9844C68.6406 30.5168 69.0097 30.1527 69.4616 29.9654C70.128 29.7008 70.8182 29.9026 71.127 30.0232C72.8854 27.9568 77.3621 29.3254 77.9448 29.5149C79.3051 29.2577 80.0453 30.326 80.3144 31.1013C81.4616 30.7174 82.4663 30.7555 83.2967 31.2146C84.4555 31.8656 84.8569 33.1197 84.9144 33.297C85.0509 33.6182 87.1107 38.5239 87.4504 42.717C87.6798 45.5637 87.0111 46.7723 86.4728 47.7433C86.1826 48.2676 85.9317 48.7193 85.8742 49.3433C85.7055 51.1525 83.9541 51.95 83.5298 52.1161C83.3532 52.4164 82.6878 53.1844 80.4214 53.5093C80.2051 53.539 79.9878 53.5529 79.7696 53.5512ZM74.7812 51.1377C74.8284 51.1376 74.8747 51.1531 74.913 51.182C74.942 51.2042 77.8495 53.3764 80.3546 53.0182C82.7635 52.6737 83.1499 51.8257 83.1537 51.8171C83.1658 51.7838 83.185 51.754 83.2097 51.7299C83.234 51.7058 83.264 51.688 83.2957 51.678C83.3154 51.6718 85.2537 50.9851 85.4121 49.2916C85.4798 48.5618 85.7677 48.0424 86.0728 47.4923C86.6037 46.5347 87.206 45.448 86.9901 42.7601C86.6462 38.5301 84.5093 33.5382 84.4873 33.4877C84.4826 33.4766 84.4784 33.4651 84.4747 33.4533C84.4747 33.441 84.1308 32.2348 83.0822 31.6527C82.3196 31.2318 81.3616 31.2306 80.2457 31.6527C80.2158 31.664 80.184 31.6685 80.1523 31.6659C80.1205 31.6633 80.0896 31.6536 80.0616 31.6375C80.0336 31.6215 80.0088 31.5993 79.9892 31.5725C79.9696 31.5456 79.9555 31.5147 79.9476 31.4817C79.9303 31.409 79.4943 29.6922 77.9803 30.0171C77.942 30.0251 77.9027 30.0225 77.8658 30.0097C77.8163 29.9937 72.9336 28.3679 71.378 30.4774C71.3457 30.5212 71.3009 30.5521 71.2504 30.5648C71.1995 30.5775 71.1462 30.5715 71.0995 30.5475C71.0925 30.5475 70.3149 30.1598 69.6219 30.4355C69.2527 30.5832 68.9672 30.897 68.7696 31.3697C68.7495 31.4187 68.7149 31.4592 68.6714 31.4852C68.6275 31.5112 68.577 31.5212 68.528 31.5137C68.4611 31.5025 66.8691 31.2429 66.0041 29.8841C65.5513 29.1703 65.3906 28.2953 65.5224 27.2762C64.2939 28.1057 62.6826 29.2147 62.406 29.462C62.3247 30.0404 62.6868 34.1954 62.9523 36.8674C63.5579 36.9904 65.4756 37.5356 66.0868 39.5245C66.0999 39.5706 66.0999 39.6199 66.0868 39.6661C66.0798 39.6956 65.3448 42.717 66.8658 44.8474C68.3569 46.9396 69.4294 46.8695 69.4396 46.8695C69.4705 46.8665 69.5018 46.8703 69.5312 46.8807C69.5611 46.8911 69.5882 46.9078 69.6116 46.9298C69.6583 46.9743 69.6868 47.0366 69.6911 47.1033C69.6911 47.1169 69.7551 48.4904 70.3995 49.3544C71.0055 50.1667 72.2153 49.9697 72.228 49.9697C72.2649 49.9633 72.3027 49.9668 72.3382 49.9797C72.3738 49.9926 72.406 50.0147 72.4317 50.044C72.4574 50.0732 72.4756 50.1088 72.4859 50.1475C72.4957 50.1863 72.4967 50.2271 72.4882 50.2663C72.4817 50.2983 72.3368 51.0749 72.9784 51.358C73.7018 51.678 74.6621 51.1746 74.6714 51.1685C74.7051 51.1493 74.7429 51.1388 74.7812 51.1377Z" fill="#53203E"/>
<path d="M68.8982 34.5271C68.6636 34.3396 68.5052 34.0624 68.4557 33.7528C68.4062 33.4433 68.4692 33.1252 68.6323 32.8644C69.0463 32.2183 69.7333 31.4995 70.766 31.4232C72.679 31.2804 72.1538 31.0921 74.0805 30.7168C76.0076 30.3414 78.7833 30.3414 78.0104 32.3167C77.2375 34.292 73.9234 33.3505 71.9884 33.9167C71.3412 34.0927 70.7118 34.3376 70.1094 34.6477C69.9183 34.7531 69.7034 34.7986 69.4893 34.7793C69.2753 34.7599 69.0706 34.6763 68.8982 34.5382V34.5271Z" fill="#FFCC4A"/>
<path d="M69.5831 35.0241C69.2864 35.024 68.9976 34.9204 68.7607 34.7287C68.4761 34.5035 68.2836 34.1686 68.2242 33.7945C68.1653 33.4204 68.2434 33.0361 68.4429 32.7226C68.8649 32.0642 69.6083 31.2605 70.7495 31.1756C71.8275 31.0956 72.1009 31.0046 72.5135 30.8667C73.013 30.6981 73.5228 30.5665 74.0392 30.4729C74.8018 30.324 77.3518 29.9215 78.1467 30.9861C78.4219 31.3553 78.4471 31.834 78.2214 32.4088C77.6476 33.8574 75.9443 33.8931 74.2948 33.9288C73.5013 33.946 72.6798 33.9632 72.0481 34.1478C71.4158 34.3202 70.8009 34.5593 70.2125 34.8617C70.0177 34.968 69.8018 35.0236 69.5831 35.0241ZM69.0359 34.3349C69.1738 34.4457 69.3378 34.5126 69.5093 34.5281C69.6808 34.5436 69.8532 34.5069 70.0065 34.4223C70.6219 34.1048 71.2653 33.8538 71.9275 33.6728C72.6158 33.4722 73.4635 33.4549 74.2859 33.4365C75.8583 33.4033 77.3439 33.3712 77.799 32.2168C77.9565 31.8156 77.9527 31.514 77.7887 31.2938C77.3149 30.6599 75.6093 30.6685 74.1182 30.9578C73.62 31.0471 73.1284 31.1738 72.6467 31.3369C72.2191 31.4796 71.9093 31.583 70.7784 31.6667C69.8191 31.7381 69.1826 32.4322 68.8181 33.002C68.6859 33.2107 68.634 33.4663 68.6742 33.715C68.7144 33.9636 68.8424 34.1859 69.0326 34.3349H69.0359Z" fill="#53203E"/>
<path d="M68.5508 36.953C68.3527 36.994 68.1676 37.0885 68.0134 37.2277C67.8592 37.3668 67.7405 37.5459 67.6686 37.7481C67.3247 38.7327 66.7933 40.6735 67.1616 42.6489C67.6882 45.4684 70.1438 46.4075 71.541 45.0919C72.9382 43.7762 72.6018 41.188 71.1966 40.0397C70.4648 39.4416 70.099 38.5628 69.9181 37.8588C69.8382 37.5513 69.6532 37.2872 69.3999 37.1193C69.1466 36.9515 68.8438 36.8921 68.5518 36.953H68.5508Z" fill="#FFCC4A"/>
<path d="M70.0776 45.9169C69.7828 45.9159 69.4903 45.8631 69.2118 45.7606C68.0646 45.3446 67.2178 44.1963 66.937 42.6911C66.5571 40.6555 67.0987 38.6617 67.4543 37.655C67.5393 37.413 67.6809 37.1985 67.8655 37.0323C68.0501 36.8661 68.2716 36.7538 68.5085 36.7061C68.8566 36.6356 69.2169 36.7074 69.5188 36.9074C69.8202 37.1073 70.0412 37.4209 70.1384 37.7866C70.2977 38.402 70.6361 39.2635 71.3347 39.8371C72.1192 40.477 72.6286 41.5786 72.6641 42.7108C72.6973 43.7422 72.3519 44.6517 71.6926 45.2708C71.2454 45.6899 70.6711 45.9196 70.0776 45.9169ZM68.7744 37.1713C68.7141 37.1708 68.6538 37.177 68.5945 37.1897C68.4347 37.222 68.2856 37.2978 68.1608 37.4099C68.036 37.522 67.9407 37.6666 67.8832 37.8297C67.5449 38.7873 67.03 40.6801 67.3879 42.5951C67.6356 43.9256 68.373 44.9335 69.3594 45.2941C69.6996 45.4305 70.0674 45.466 70.4248 45.3969C70.7823 45.3278 71.1155 45.1567 71.3898 44.9015C71.9435 44.3809 72.2337 43.6093 72.2052 42.7293C72.1744 41.7447 71.7337 40.7823 71.058 40.2296C70.2552 39.5749 69.8758 38.6125 69.6968 37.9183C69.6398 37.7031 69.5188 37.5138 69.3524 37.379C69.1861 37.2442 68.9832 37.1713 68.7744 37.1713Z" fill="#53203E"/>
<path d="M77.8463 37.5749C77.8463 38.9287 76.2407 40.0179 74.2562 40.0179C72.2716 40.0179 70.665 38.925 70.665 37.5749C70.665 36.2248 72.8856 34.375 74.8688 34.375C76.8519 34.375 77.8463 36.226 77.8463 37.5749Z" fill="#FFCC4A"/>
<path d="M74.2561 40.2602C72.1491 40.2602 70.4355 39.0541 70.4355 37.5711C70.4355 35.9957 72.844 34.125 74.8687 34.125C77.0561 34.125 78.0804 36.1779 78.0804 37.5711C78.0757 39.0541 76.3622 40.2602 74.2561 40.2602ZM74.8687 34.6235C72.9874 34.6235 70.894 36.3809 70.894 37.5772C70.894 38.7895 72.4024 39.7741 74.2561 39.7741C76.1099 39.7741 77.6169 38.7895 77.6169 37.5772C77.6169 36.3821 76.743 34.6235 74.8687 34.6235Z" fill="#53203E"/>
<path d="M78.7201 36.4777C78.0528 34.9085 78.8351 33.0316 80.3902 32.5787C80.8164 32.4436 81.2654 32.4171 81.7028 32.5012C83.4542 32.8765 85.0084 34.4051 84.3192 36.554C83.6294 38.7028 81.878 40.0173 80.1266 38.5145C79.4808 37.9644 79.0313 37.2112 78.7201 36.4777Z" fill="#FFCC4A"/>
<path d="M81.6602 39.403C81.0864 39.403 80.52 39.1667 79.9799 38.7027C79.3901 38.1969 78.8957 37.4806 78.5116 36.5748C78.3378 36.1655 78.249 35.7204 78.2523 35.2706C78.2551 34.8208 78.3495 34.3772 78.5289 33.9706C78.6999 33.5744 78.949 33.223 79.2598 32.9408C79.57 32.6586 79.9341 32.4523 80.3261 32.3361C80.785 32.1919 81.2686 32.1645 81.7392 32.2561C82.8864 32.5023 83.8649 33.194 84.3523 34.1023C84.7546 34.8567 84.8112 35.7293 84.5275 36.6277C84.0859 38.0024 83.2467 39.003 82.2794 39.3045C82.0785 39.3683 81.87 39.4015 81.6602 39.403ZM78.9289 36.3705C79.2836 37.2062 79.7317 37.8609 80.2663 38.3187C80.8836 38.848 81.5373 39.0264 82.157 38.8332C82.9803 38.5772 83.7051 37.6935 84.0985 36.4702C84.3453 35.6985 84.2981 34.9859 83.9588 34.3508C83.5355 33.5595 82.6742 32.9577 81.6542 32.7386C81.2537 32.6619 80.8415 32.6867 80.4513 32.8112C80.1233 32.9088 79.8191 33.0817 79.5598 33.318C79.3009 33.5544 79.0925 33.8484 78.9495 34.1798C78.799 34.5218 78.7196 34.895 78.7168 35.2734C78.7144 35.6517 78.7887 36.0261 78.935 36.3705H78.9289Z" fill="#53203E"/>
<path d="M76.0823 44.3382C74.7749 44.1081 74.123 42.4466 75.0155 41.3956C75.3057 41.0676 75.6856 40.8477 76.1006 40.7679C78.5529 40.2042 80.395 40.1808 81.4917 41.6958C82.5884 43.2109 84.101 43.0312 84.13 44.7186C84.1585 46.4059 83.109 48.4735 81.0066 47.3462C79.4225 46.4994 77.5735 44.6004 76.0823 44.3382Z" fill="#FFCC4A"/>
<path d="M82.1249 47.9094C81.6968 47.8975 81.2772 47.7782 80.8997 47.5612C80.2828 47.2301 79.6198 46.7378 78.9796 46.2627C77.9669 45.5095 76.9151 44.7305 76.0431 44.5766C75.6884 44.5162 75.3553 44.3538 75.0796 44.1068C74.8039 43.8598 74.5954 43.5373 74.4763 43.1736C74.366 42.8439 74.3412 42.4881 74.4057 42.1447C74.4707 41.8012 74.6212 41.4833 74.8422 41.2253C75.1651 40.8604 75.5875 40.6148 76.0492 40.5238C78.2282 40.0229 80.4076 39.8001 81.6693 41.5416C82.0917 42.1262 82.5926 42.4511 83.0342 42.7367C83.7043 43.1699 84.3361 43.5797 84.3571 44.7058C84.374 45.7224 84.0048 47.011 83.1389 47.5968C82.8361 47.8036 82.4838 47.9122 82.1249 47.9094ZM76.1146 44.0941C77.0917 44.2664 78.1791 45.0787 79.2375 45.8615C79.8651 46.3279 80.5132 46.8091 81.1015 47.1255C81.7978 47.4947 82.3987 47.5193 82.8875 47.1882C83.6034 46.7033 83.9071 45.6006 83.8922 44.7268C83.8777 43.8652 83.445 43.5883 82.7912 43.1649C82.3151 42.8573 81.7749 42.5077 81.3001 41.8493C80.2679 40.4093 78.4875 40.4734 76.1384 41.0124C75.7707 41.0824 75.4333 41.2759 75.1749 41.565C75.0085 41.7563 74.8945 41.9936 74.8468 42.2503C74.7987 42.507 74.8183 42.773 74.9029 43.0185C74.9964 43.2976 75.1581 43.5446 75.3712 43.7333C75.5847 43.9219 75.8412 44.0454 76.1146 44.0905V44.0941Z" fill="#53203E"/>
<path d="M74.4681 45.9647C73.2831 45.7555 72.1798 46.7807 72.2887 48.0644C72.3233 48.468 72.4677 48.8139 72.806 48.9886C73.992 49.604 76.0934 49.5031 77.8452 50.2095C79.5966 50.916 81.0878 50.7634 81.4812 49.9006C81.8747 49.0379 78.8948 46.7647 76.885 46.3979C76.0326 46.2429 75.1761 46.0891 74.4681 45.9647Z" fill="#FFCC4A"/>
<path d="M79.8767 50.9022C79.1528 50.8835 78.4379 50.7277 77.765 50.4419C76.9103 50.0973 75.9757 49.9496 75.0729 49.8081C74.1701 49.6666 73.3304 49.5336 72.7089 49.2124C72.4449 49.0771 72.1192 48.7718 72.0608 48.0888C72.0332 47.7593 72.0767 47.4275 72.1883 47.1191C72.2996 46.8107 72.4757 46.5339 72.7028 46.3104C72.9421 46.0723 73.229 45.8958 73.5412 45.7943C73.8533 45.6929 74.1827 45.669 74.5052 45.7245C75.2126 45.8476 76.0706 46.0015 76.9206 46.1565C78.601 46.4642 81.0659 48.0937 81.6234 49.2703C81.7589 49.5521 81.7785 49.8007 81.6832 50.0087C81.4215 50.5982 80.7552 50.9022 79.8767 50.9022ZM74.1561 46.1861C73.7327 46.1864 73.3253 46.3593 73.0164 46.6697C72.8407 46.8423 72.7042 47.0559 72.6178 47.2941C72.5313 47.5323 72.4977 47.7886 72.5183 48.0432C72.5496 48.4125 72.6767 48.65 72.907 48.7693C73.4669 49.0573 74.2837 49.1854 75.1393 49.3208C76.0239 49.4598 77.0253 49.6173 77.9267 49.9816C79.4991 50.6155 80.9388 50.5355 81.2757 49.7946C81.286 49.7432 81.2865 49.6902 81.2767 49.6388C81.2669 49.5874 81.2477 49.5386 81.2197 49.4955C80.7701 48.554 78.4804 46.9417 76.8426 46.6427C75.9949 46.4876 75.1383 46.335 74.4337 46.2094C74.3421 46.1936 74.2491 46.1857 74.1561 46.1861Z" fill="#53203E"/>
<path d="M69.1496 15.5615C69.1496 15.5615 64.9056 17.2156 62.5715 17.2156C59.9561 17.2156 56.071 13.5234 50.6986 13.5234C42.8768 13.5234 40.186 17.2218 37.5707 17.2218C35.2319 17.2218 30.9914 15.5677 30.9914 15.5677L28.9451 22.5139C28.9451 22.5139 32.892 24.333 34.7949 29.1291C36.4581 33.326 35.6586 42.9688 38.665 46.0887C39.5826 47.0363 40.0127 48.4394 39.9038 49.8375C39.695 52.5143 39.5941 61.9826 40.4968 64.1275C41.9592 67.6008 45.3212 71.405 44.5905 77.3592C44.0101 82.0863 42.2265 86.7447 42.1817 88.5994C43.4354 88.527 44.6903 88.5097 45.9452 88.5083C46.041 88.5055 46.1364 88.5247 46.2246 88.5653C46.3128 88.606 46.3916 88.6667 46.4556 88.7433C48.486 88.3041 51.6379 88.069 57.6047 89.4326C58.9262 89.734 56.2893 83.3134 55.5584 77.3592C54.8276 71.405 58.1883 67.5947 59.6477 64.1265C60.5505 61.9812 60.4505 52.5131 60.2407 49.8362C60.1318 48.4382 60.565 47.0351 61.4795 46.0875C64.4855 42.9675 63.6865 33.3247 65.3482 29.1279C67.2491 24.3281 71.1981 22.5127 71.1981 22.5127L69.1496 15.5615Z" fill="#FF6464"/>
<path d="M57.6851 89.6264C57.6445 89.6264 57.6043 89.6218 57.5646 89.6129C51.3445 88.1914 48.2622 88.5395 46.4855 88.9236L46.388 88.9456L46.3215 88.8657C46.2738 88.8087 46.2151 88.7638 46.1495 88.7339C46.0839 88.7045 46.013 88.6904 45.9418 88.6933C44.9094 88.6933 43.5445 88.7045 42.1887 88.7834L42.0006 88.7942V88.5923C42.0224 87.7311 42.3894 86.3563 42.8529 84.6073C43.4057 82.5152 44.0951 79.9306 44.4128 77.3325C44.9565 72.9091 43.2153 69.7021 41.6794 66.8713C41.1893 66.0049 40.7402 65.1129 40.334 64.1979C39.4072 61.9975 39.5196 52.447 39.726 49.8157C39.8327 48.4447 39.3888 47.0995 38.5389 46.217C36.7037 44.3082 36.262 40.1311 35.8388 36.093C35.5566 33.4039 35.2905 30.8636 34.6298 29.2009C32.7785 24.5241 28.9119 22.7014 28.8729 22.678L28.7295 22.6116L30.8779 15.3195L31.0476 15.3859C31.0901 15.4019 35.2859 17.0277 37.5673 17.0277C38.485 17.0277 39.4393 16.5354 40.6459 15.92C42.7783 14.8259 45.6998 13.3281 50.695 13.3281C53.8978 13.3281 56.5922 14.6339 58.7576 15.6838C60.2487 16.4037 61.5309 17.0265 62.5679 17.0265C64.8496 17.0265 69.0454 15.4007 69.0875 15.3847L69.2576 15.3182L71.4057 22.6103L71.2623 22.6768C71.2235 22.694 67.3543 24.5229 65.5057 29.1997C64.845 30.8673 64.5777 33.4076 64.2964 36.0918C63.8735 40.1298 63.4351 44.3069 61.5964 46.2158C60.7464 47.0983 60.3024 48.4434 60.4094 49.8145C60.6146 52.4458 60.7281 61.9989 59.8015 64.197C59.395 65.1115 58.9459 66.004 58.4557 66.8699C56.9202 69.7007 55.1786 72.9007 55.7225 77.3311C56.045 79.9624 56.7436 82.6909 57.3043 84.8844C58.0244 87.6951 58.3538 89.069 57.9777 89.4933C57.9398 89.5358 57.8945 89.5699 57.844 89.5928C57.794 89.6157 57.7398 89.6269 57.6851 89.6264ZM49.8473 88.2133C51.6978 88.2133 54.1936 88.4596 57.637 89.2484C57.7057 89.2643 57.723 89.2484 57.7286 89.2386C57.988 88.9447 57.4716 86.9311 56.9739 84.9839C56.4094 82.7797 55.7122 80.0376 55.3819 77.3806C54.823 72.8269 56.5954 69.5676 58.1599 66.6877C58.6599 65.7662 59.1328 64.8961 59.4893 64.0493C60.3529 61.9961 60.2842 52.6316 60.0627 49.8502C59.9482 48.3733 60.43 46.9124 61.3543 45.9524C63.1038 44.1371 63.5337 40.0289 63.9501 36.0549C64.2403 33.3374 64.5085 30.7775 65.1856 29.0545C66.8865 24.7629 70.2506 22.7986 70.9823 22.4085L69.0328 15.8007C68.2057 16.112 64.6683 17.4006 62.5646 17.4006C61.452 17.4006 60.1361 16.7619 58.6108 16.0234C56.4763 14.9896 53.8197 13.7023 50.6964 13.7023C45.7801 13.7023 42.8964 15.1791 40.7962 16.2573C39.5506 16.896 38.5652 17.4006 37.5685 17.4006C35.4648 17.4006 31.9263 16.112 31.1004 15.8007L29.1504 22.4085C29.8822 22.7937 33.2465 24.758 34.9464 29.0545C35.6277 30.7713 35.8961 33.3374 36.1806 36.0549C36.5981 40.0289 37.0282 44.1371 38.7774 45.9524C39.702 46.9124 40.1849 48.3696 40.069 49.8502C39.8522 52.6316 39.7834 61.9961 40.6425 64.0493C40.9993 64.8961 41.4718 65.7662 41.9719 66.6877C43.5365 69.5676 45.3087 72.8316 44.75 77.3806C44.4277 80.0021 43.736 82.6124 43.1797 84.7082C42.7588 86.297 42.4181 87.5769 42.3516 88.4003C43.6512 88.3302 44.9393 88.3204 45.9303 88.3194C46.1375 88.3147 46.3389 88.3928 46.4958 88.5381C47.6001 88.3105 48.723 88.2017 49.8473 88.2133Z" fill="#53203E"/>
<path d="M69.114 15.3237C69.114 15.3237 64.8701 16.8929 62.5346 16.8929C59.9192 16.8929 56.422 10.8906 51.0496 10.8906C43.2267 10.8906 42.6417 16.152 37.0374 16.152C34.6986 16.152 30.9581 15.3237 30.9581 15.3237L30.1082 18.0572C33.8394 19.5341 40.5633 21.5993 49.0869 21.5993C59.6832 21.5993 67.2192 18.8129 69.8482 17.6781L69.114 15.3237Z" fill="#ED4F4F"/>
<path d="M49.0845 21.7834C40.7478 21.7834 34.1295 19.8512 30.0438 18.2303L29.8855 18.1675L30.8375 15.1067L30.9878 15.1399C31.0256 15.1485 34.7409 15.9645 37.0349 15.9645C39.5504 15.9645 41.0621 14.8569 42.6554 13.6938C44.5755 12.292 46.7513 10.7031 51.0415 10.7031C54.2644 10.7031 56.8303 12.8286 58.8929 14.5356C60.298 15.6999 61.5116 16.7054 62.5265 16.7054C64.8092 16.7054 69.0074 15.1621 69.0485 15.1461L69.2148 15.0845L70.0532 17.7835L69.9018 17.8488C67.1686 19.0315 59.6522 21.7834 49.0845 21.7834ZM30.3237 17.9435C34.3922 19.5435 40.905 21.4105 49.0845 21.4105C59.4078 21.4105 66.7877 18.7755 69.6289 17.5682L69.0036 15.5584C68.1873 15.8513 64.6452 17.0771 62.5345 17.0771C61.4013 17.0771 60.1443 16.0359 58.6887 14.831C56.6686 13.1572 54.1541 11.0748 51.0494 11.0748C46.8662 11.0748 44.829 12.5628 42.8584 14.0003C41.2135 15.2027 39.6605 16.3386 37.0372 16.3386C34.9726 16.3386 31.7976 15.6925 31.0727 15.5399L30.3237 17.9435Z" fill="#53203E"/>
<path d="M53.6384 70.3316C51.2048 69.6816 48.6543 69.7386 46.248 70.4965C45.9762 70.5825 46.092 71.0615 46.3627 70.9755C48.6921 70.2409 51.1618 70.1835 53.5192 70.8092C53.7931 70.8853 53.9104 70.4068 53.6337 70.3316H53.6384Z" fill="#53203E"/>
<path d="M53.6384 74.0113C51.2048 73.3613 48.6543 73.4183 46.248 74.1762C45.9762 74.2622 46.092 74.7412 46.3627 74.6552C48.6921 73.9206 51.1618 73.8632 53.5192 74.4889C53.7931 74.565 53.9104 74.0875 53.6337 74.0113H53.6384Z" fill="#53203E"/>
<path d="M53.6384 77.5735C51.2048 76.9239 48.6543 76.981 46.248 77.738C45.9762 77.8244 46.092 78.3029 46.3627 78.2169C48.6375 77.4983 51.2122 77.4109 53.5192 78.052C53.7931 78.1272 53.9104 77.6496 53.6337 77.5735H53.6384Z" fill="#53203E"/>
<path d="M53.6384 80.7135C51.2048 80.0644 48.6543 80.1219 46.248 80.8793C45.9762 80.9644 46.092 81.4434 46.3627 81.3569C48.6375 80.6382 51.2122 80.5508 53.5192 81.192C53.7931 81.2686 53.9104 80.7896 53.6337 80.7135H53.6384Z" fill="#53203E"/>
<path d="M53.6384 84.066C51.2048 83.416 48.6543 83.473 46.248 84.2309C45.9762 84.3169 46.092 84.7959 46.3627 84.7094C48.6921 83.9753 51.1618 83.9178 53.5192 84.5435C53.7931 84.6197 53.9104 84.1412 53.6337 84.066H53.6384Z" fill="#53203E"/>
<path d="M70.6415 20.625C68.577 21.2662 63.8663 23.1739 61.8397 27.6328C59.2013 33.4173 61.563 41.3936 58.3467 45.1978C55.1303 49.0021 53.5224 51.8795 53.8149 58.165C54.1074 64.4505 53.5224 65.2771 54.5453 65.2771C55.5686 65.2771 56.5756 62.9612 57.1607 64.1192C57.7457 65.2771 53.3593 68.9192 53.2126 70.5696C53.2079 70.6299 53.2177 70.6907 53.2415 70.7458C53.2649 70.8009 53.3013 70.8486 53.3467 70.8846C53.7313 71.1897 53.9939 71.8075 53.9939 72.5201C54.0004 72.9766 53.8808 73.4252 53.6495 73.8089C53.5672 73.9416 53.5233 74.0972 53.5233 74.2565C53.5233 74.4164 53.5672 74.572 53.6495 74.7047C53.8696 75.086 53.9878 75.5243 53.9915 75.972C53.9953 76.4201 53.8845 76.8607 53.6714 77.2463C53.5897 77.3822 53.5457 77.5402 53.5457 77.7023C53.5457 77.864 53.5897 78.0224 53.6714 78.1579C53.8869 78.5346 53.9981 78.9692 53.9915 79.4112C53.9967 79.8201 53.9027 80.2234 53.7186 80.5813C53.6481 80.7126 53.6107 80.8612 53.6107 81.0121C53.6107 81.1636 53.6481 81.3121 53.7186 81.443C53.9027 81.8009 53.9967 82.2047 53.9915 82.6136C53.9976 83.0514 53.8887 83.4822 53.677 83.8565C53.6098 83.9706 53.5705 84.1014 53.563 84.2364C53.5555 84.3715 53.5803 84.5061 53.6345 84.628C53.8822 85.2271 54.0041 85.8771 53.9915 86.5322C53.9915 87.4061 53.8032 88.179 53.5144 88.6673C54.7303 88.8346 56.0836 89.0808 57.5967 89.4266C58.9182 89.7285 56.2808 83.3075 55.5504 77.3533C54.8196 71.3991 58.1883 67.5925 59.6462 64.1243C60.549 61.979 60.449 52.5109 60.2392 49.834C60.1247 48.4359 60.5649 47.0329 61.478 46.0852C64.4845 42.9653 63.685 33.3225 65.3481 29.1257C67.249 24.3258 71.1981 22.5105 71.1981 22.5105L70.6415 20.625Z" fill="#ED4F4F"/>
<path d="M57.6836 89.623C57.6434 89.623 57.6028 89.6188 57.5635 89.6095C56.1355 89.2833 54.7668 89.0286 53.4948 88.8515L53.2243 88.8146L53.371 88.5683C53.6518 88.0936 53.8205 87.3375 53.8205 86.5342C53.8322 85.9071 53.7144 85.2852 53.4766 84.7127C53.4093 84.5618 53.3785 84.395 53.3878 84.2281C53.3972 84.0613 53.4458 83.8996 53.5294 83.7585C53.7224 83.4137 53.8219 83.0179 53.8158 82.6155C53.8205 82.2389 53.7345 81.8674 53.5658 81.537C53.4813 81.3786 53.4369 81.1987 53.4369 81.016C53.4369 80.8333 53.4813 80.6534 53.5658 80.495C53.7345 80.1646 53.8205 79.7931 53.8158 79.4165C53.8229 79.0104 53.7215 78.6109 53.5233 78.2646C53.4238 78.0987 53.3705 77.9052 53.3705 77.7076C53.3705 77.5104 53.4238 77.3169 53.5233 77.151C53.7191 76.7959 53.8205 76.3908 53.8172 75.9786C53.8135 75.5665 53.7056 75.1632 53.5042 74.8123C53.4023 74.6482 53.3481 74.4557 53.3481 74.2585C53.3481 74.0618 53.4023 73.8688 53.5042 73.7048C53.7149 73.352 53.8233 72.9398 53.8158 72.5207C53.8158 71.887 53.5948 71.3183 53.2425 71.0342C53.1729 70.9796 53.1177 70.9062 53.0822 70.8221C53.0467 70.738 53.0317 70.645 53.0397 70.5529C53.114 69.7123 54.1018 68.5183 55.1476 67.2543C56.0883 66.1183 57.2584 64.7043 57.007 64.2071C56.9383 64.0721 56.8658 63.9968 56.7915 63.9833C56.592 63.9478 56.2649 64.2702 55.9486 64.5814C55.5299 64.995 55.0546 65.4627 54.5444 65.4627C54.4429 65.4725 54.3411 65.4609 54.2439 65.4281C54.1472 65.395 54.0574 65.3417 53.9799 65.2707C53.7196 64.9889 53.7233 64.4646 53.7313 63.0553C53.7369 62.0127 53.7462 60.4375 53.6406 58.1693C53.3528 51.9725 54.8864 49.0064 58.2172 45.0681C59.8827 43.0989 60.0191 39.9174 60.1672 36.5502C60.299 33.4733 60.4355 30.2956 61.6859 27.5461C63.7504 22.9924 68.607 21.0602 70.5958 20.4411L70.7588 20.3906L71.4102 22.606L71.2668 22.6724C71.228 22.6896 67.3588 24.5185 65.5098 29.1953C64.8495 30.863 64.5831 33.4032 64.3009 36.0874C63.8775 40.1254 63.4397 44.3026 61.6009 46.2114C60.7509 47.0939 60.307 48.4391 60.4135 49.8101C60.6201 52.4414 60.7327 61.9945 59.8056 64.1926C59.3995 65.1071 58.9504 65.9996 58.4602 66.8655C56.9243 69.6964 55.1831 72.8964 55.7271 77.3267C56.0495 79.9581 56.7476 82.6866 57.3098 84.88C58.0289 87.6908 58.3584 89.0646 57.9822 89.4889C57.9439 89.5324 57.8976 89.5669 57.8462 89.5903C57.7948 89.6132 57.7397 89.6244 57.6836 89.623ZM53.792 88.5155C55.0009 88.6903 56.2925 88.9352 57.6355 89.2417C57.7056 89.2576 57.7215 89.2417 57.7275 89.2319C57.9864 88.9375 57.4715 86.9239 56.9729 84.9772C56.4084 82.773 55.7107 80.031 55.3803 77.3735C54.8219 72.8197 56.5939 69.5609 58.1588 66.6809C58.6588 65.759 59.1313 64.8889 59.4883 64.0422C60.3518 61.9894 60.2831 52.6248 60.0616 49.8433C59.9467 48.3665 60.4285 46.9056 61.3532 45.9456C63.1023 44.1303 63.5327 40.0221 63.95 36.0481C64.2392 33.3355 64.5074 30.7743 65.1855 29.0513C66.885 24.7597 70.2495 22.7955 70.9813 22.4053L70.5224 20.8534C68.4878 21.5106 63.9444 23.4109 61.9887 27.7123C60.7705 30.3928 60.6364 33.5337 60.5056 36.5736C60.3588 40.0098 60.2187 43.254 58.4696 45.3241C55.1373 49.2624 53.6981 52.0538 53.9822 58.1571C54.0878 60.4352 54.0785 62.0165 54.0729 63.0637C54.0658 64.2085 54.0626 64.8384 54.2219 65.0095C54.2588 65.0501 54.3266 65.0908 54.5397 65.0908C54.9149 65.0908 55.3369 64.6763 55.7084 64.3095C56.1215 63.902 56.4771 63.551 56.8444 63.6179C57.0299 63.651 57.1883 63.7898 57.3028 64.0314C57.6701 64.7585 56.6149 66.03 55.3976 67.5029C54.4803 68.6109 53.4387 69.8688 53.3757 70.5875C53.3733 70.616 53.3785 70.645 53.3897 70.6716C53.4009 70.6978 53.4182 70.7202 53.4397 70.7375C53.8813 71.0894 54.1565 71.7725 54.1565 72.5221C54.1644 73.0155 54.035 73.5006 53.785 73.9151C53.7215 74.0169 53.6873 74.1366 53.6873 74.2585C53.6873 74.381 53.7215 74.5006 53.785 74.602C54.0238 75.0137 54.1523 75.488 54.1565 75.9725C54.1607 76.4571 54.0406 76.9338 53.8093 77.3501C53.7458 77.4557 53.7121 77.5791 53.7121 77.7048C53.7121 77.8305 53.7458 77.9534 53.8093 78.059C54.0415 78.466 54.1612 78.9356 54.1532 79.4132C54.1579 79.8543 54.056 80.2894 53.8574 80.6758C53.8032 80.7781 53.7747 80.8945 53.7747 81.0123C53.7747 81.1305 53.8032 81.2464 53.8574 81.3487C54.056 81.7352 54.1579 82.1702 54.1532 82.6118C54.1579 83.0852 54.0387 83.5501 53.8093 83.9543C53.7579 84.0417 53.728 84.1417 53.7219 84.245C53.7163 84.3482 53.7345 84.4515 53.7757 84.545C54.0229 85.1735 54.1504 85.8487 54.1504 86.531C54.1504 87.2132 54.0229 87.8884 53.7757 88.5169L53.792 88.5155Z" fill="#53203E"/>
<path d="M29.4096 20.6797C31.4685 21.3209 36.1851 23.2285 38.2119 27.6875C40.8501 33.4719 38.4883 41.4483 41.7046 45.2525C44.9209 49.0567 46.529 51.9293 46.2365 58.2172C45.944 64.505 46.529 65.3293 45.5059 65.3293C44.4827 65.3293 43.4756 63.0134 42.8906 64.1714C42.3057 65.3293 46.6919 68.9714 46.8374 70.6218C46.8425 70.6821 46.8332 70.7429 46.8098 70.798C46.7865 70.8531 46.75 70.9013 46.7045 70.9368C46.3202 71.2433 46.0576 71.8597 46.0576 72.5723C46.0507 73.0288 46.1705 73.4774 46.4017 73.8611C46.4841 73.9938 46.5281 74.1499 46.5281 74.3097C46.5281 74.469 46.4841 74.6251 46.4017 74.7583C46.1704 75.141 46.0507 75.5891 46.0576 76.0457C46.0509 76.4854 46.1608 76.9181 46.3742 77.2933C46.4561 77.4288 46.4997 77.5873 46.4997 77.7489C46.4997 77.9106 46.4561 78.0686 46.3742 78.2041C46.1585 78.5812 46.0474 79.0162 46.0541 79.4583C46.049 79.8667 46.1431 80.27 46.3271 80.6274C46.3976 80.7583 46.4347 80.9069 46.4347 81.0583C46.4347 81.2097 46.3976 81.3583 46.3271 81.4891C46.143 81.8471 46.0489 82.2503 46.0541 82.6592C46.0494 83.098 46.1604 83.5289 46.3742 83.9027C46.4413 84.0172 46.4804 84.148 46.4878 84.2831C46.4952 84.4181 46.4708 84.5531 46.4166 84.6756C46.1688 85.2737 46.047 85.9232 46.0599 86.5779C46.0599 87.4517 46.248 88.2246 46.537 88.7134C45.3212 88.8821 43.9677 89.127 42.4548 89.4728C41.1334 89.7742 43.7704 83.3536 44.501 77.3994C45.2317 71.4452 41.8675 67.641 40.4096 64.1676C39.5069 62.0237 39.6067 52.5545 39.8166 49.8776C39.9256 48.4807 39.4909 47.0777 38.5778 46.1288C35.5715 43.0089 36.3709 33.3673 34.7077 29.1693C32.8071 24.3694 28.8579 22.5541 28.8579 22.5541L29.4096 20.6797Z" fill="#ED4F4F"/>
<path d="M42.3675 89.6692C42.3122 89.6706 42.2574 89.6594 42.2064 89.6365C42.1554 89.6136 42.1095 89.5795 42.0716 89.5361C41.6954 89.108 42.0245 87.7384 42.7437 84.9272C43.3058 82.7342 44.0055 80.0043 44.3266 77.3739C44.8703 72.951 43.1292 69.7435 41.5933 66.9127C41.1032 66.0491 40.6537 65.1594 40.2466 64.2473C39.321 62.0477 39.4334 52.4961 39.6387 49.8648C39.7465 48.4937 39.3027 47.1485 38.4527 46.2661C36.6175 44.3572 36.1758 40.1813 35.7526 36.1421C35.4704 33.4529 35.2043 30.9127 34.5436 29.25C32.6946 24.5818 28.8257 22.7505 28.7867 22.7271L28.6433 22.6606L29.2949 20.4453L29.4577 20.4957C31.4467 21.1111 36.2974 23.0471 38.3678 27.6008C39.6181 30.3503 39.7546 33.5305 39.8865 36.6061C40.031 39.9721 40.1663 43.1523 41.8364 45.1227C45.1628 49.0611 46.701 52.0272 46.4131 58.2239C46.3076 60.4921 46.3167 62.0674 46.3225 63.1099C46.3305 64.5141 46.3339 65.0398 46.0735 65.3253C45.9962 65.3963 45.9064 65.4496 45.8095 65.4828C45.7126 65.5155 45.6105 65.5272 45.5092 65.5174C44.9988 65.5174 44.5239 65.0496 44.1053 64.6361C43.7887 64.3248 43.4618 64.0024 43.2622 64.0379C43.1876 64.0515 43.1142 64.1267 43.0465 64.2618C42.7954 64.7543 43.9642 66.1734 44.9059 67.3094C45.952 68.573 46.9397 69.7706 47.014 70.6062C47.0214 70.6987 47.0065 70.7917 46.971 70.8763C46.9355 70.9613 46.8803 71.0347 46.8112 71.0898C46.4555 71.373 46.2376 71.9431 46.2376 72.5753C46.2294 72.9945 46.338 73.4071 46.5496 73.7594C46.6513 73.9234 46.7057 74.1164 46.7057 74.3132C46.7057 74.5104 46.6513 74.7029 46.5496 74.8674C46.3382 75.2192 46.2296 75.6309 46.2376 76.0501C46.2307 76.4557 46.3318 76.8552 46.5289 77.2019C46.6295 77.3678 46.683 77.5613 46.683 77.7594C46.683 77.9571 46.6295 78.151 46.5289 78.3169C46.3318 78.6632 46.2307 79.0632 46.2376 79.4688C46.2331 79.8449 46.3192 80.216 46.4876 80.5459C46.5722 80.7043 46.6167 80.8842 46.6167 81.0669C46.6167 81.2496 46.5722 81.4295 46.4876 81.5884C46.3192 81.9183 46.2331 82.2898 46.2376 82.6664C46.2317 83.0688 46.331 83.4646 46.5243 83.8094C46.6079 83.9505 46.6565 84.1122 46.6658 84.2791C46.675 84.4459 46.6445 84.6127 46.5771 84.7636C46.3389 85.3361 46.2214 85.958 46.233 86.5851C46.233 87.3837 46.4016 88.1445 46.6826 88.6206L46.8294 88.8669L46.5587 88.9048C45.2867 89.0809 43.9206 89.3356 42.4902 89.6618C42.4497 89.6688 42.4085 89.6711 42.3675 89.6692ZM29.062 22.4551C29.7938 22.8403 33.1569 24.8046 34.8579 29.1011C35.5392 30.8241 35.8077 33.3852 36.0921 36.1015C36.5085 40.0755 36.9398 44.1837 38.689 46.0003C39.6135 46.959 40.0964 48.4162 39.9806 49.8968C39.7626 52.6782 39.6949 62.0431 40.5541 64.0959C40.9108 64.9426 41.3834 65.8127 41.8835 66.7347C43.4469 69.6146 45.2202 72.8781 44.6616 77.4281C44.3358 80.0842 43.6292 82.8262 43.0695 85.0305C42.5705 86.9777 42.0555 88.9912 42.3148 89.2851C42.3205 89.2926 42.3365 89.3108 42.4065 89.2949C43.7497 88.9884 45.0447 88.7449 46.2502 88.5688C46.003 87.9403 45.8757 87.265 45.8757 86.5833C45.8757 85.901 46.003 85.2258 46.2502 84.5973C46.2912 84.5038 46.3096 84.401 46.3038 84.2982C46.298 84.1949 46.2681 84.0954 46.217 84.008C45.987 83.6033 45.8677 83.1375 45.8728 82.6636C45.8682 82.2225 45.9702 81.7875 46.1688 81.401C46.2228 81.2987 46.2513 81.1828 46.2513 81.065C46.2513 80.9473 46.2228 80.8314 46.1688 80.7291C45.9705 80.3426 45.8685 79.9076 45.8728 79.4664C45.8653 78.9893 45.9847 78.5197 46.217 78.1127C46.2804 78.0071 46.3141 77.8837 46.3141 77.758C46.3141 77.6323 46.2804 77.5094 46.217 77.4038C45.9855 76.9875 45.8653 76.5108 45.8696 76.0258C45.8738 75.5412 46.0023 75.0669 46.241 74.6557C46.3039 74.5538 46.3374 74.4342 46.3374 74.3122C46.3374 74.1898 46.3039 74.0706 46.241 73.9688C45.991 73.5543 45.8616 73.0692 45.8694 72.5753C45.8694 71.8272 46.1435 71.1431 46.5863 70.7907C46.6079 70.7739 46.6252 70.7515 46.6364 70.7253C46.6477 70.6991 46.6525 70.6706 46.6505 70.6421C46.5874 69.9234 45.5459 68.6655 44.6283 67.5566C43.409 66.0795 42.356 64.8122 42.7231 64.0847C42.8447 63.8384 43.0006 63.7043 43.1819 63.6711C43.549 63.6048 43.9045 63.9566 44.3163 64.3627C44.6891 64.7319 45.11 65.1454 45.4863 65.1454C45.6996 65.1454 45.7673 65.1038 45.804 65.0632C45.9635 64.8921 45.96 64.2618 45.9531 63.1174C45.9474 62.0711 45.9382 60.4884 46.0437 58.2104C46.3282 52.1072 44.8887 49.3183 41.5565 45.3775C39.8062 43.3086 39.6674 40.0632 39.5206 36.627C39.3898 33.5895 39.2556 30.4499 38.0364 27.7657C36.0864 23.4581 31.5384 21.5641 29.5036 20.9068L29.062 22.4551Z" fill="#53203E"/>
<path d="M96.3182 18.7394C94.1719 14.9081 89.3612 10.7396 78.6331 12.6239C72.9574 13.622 68.0345 15.3019 67.6214 15.4693C67.6056 15.4724 67.5897 15.4773 67.5747 15.4841C67.1308 15.6798 67.3027 17.4397 67.9579 19.415C68.6126 21.3904 70.2219 23.0949 70.2439 23.0728C70.7967 22.8193 74.7873 20.4415 79.5574 19.6021C83.6962 18.8748 88.914 18.9055 91.1864 22.5731C93.6112 26.4869 94.0341 28.9533 93.6112 32.1248C93.3883 33.8011 91.5098 37.1991 88.3714 36.7905C87.4205 36.6675 86.8803 35.4762 86.3135 34.5974C85.9135 33.982 85.4247 33.3482 84.6953 33.3888C84.485 33.4015 84.2864 33.4989 84.1401 33.6616C83.9939 33.8243 83.9102 34.0403 83.906 34.2663C83.899 34.7746 84.2948 35.0983 84.6261 35.3998C84.9841 35.7248 85.3144 36.1174 85.4808 36.6084C85.6471 37.0995 85.6037 37.7099 85.2869 38.0853C85.106 38.2867 84.8738 38.427 84.6196 38.489C83.7112 38.7474 82.7247 38.3659 81.8504 38.9812C81.6799 39.1005 81.5406 39.2653 81.4467 39.4594C81.3528 39.6535 81.3074 39.8704 81.3149 40.0889C81.356 40.9751 82.2476 41.3135 82.971 41.2803C83.649 41.2495 84.3752 41.0563 84.9761 41.4218C85.1074 41.4857 85.2135 41.5976 85.2752 41.7376C85.3369 41.8777 85.3499 42.0366 85.3121 42.1861C85.2817 42.3447 85.2191 42.4943 85.1289 42.6243C85.0387 42.7542 84.9233 42.8613 84.7901 42.9381C83.899 43.4624 82.807 43.167 81.9593 43.9091C81.8093 44.0377 81.6892 44.2019 81.6084 44.3888C81.527 44.5756 81.4878 44.78 81.4925 44.986C81.5327 45.9534 82.5252 46.2475 83.2509 46.0051C83.9976 45.7589 84.6275 45.1435 85.4088 45.0143C85.4962 44.9991 85.5864 45.0067 85.6705 45.0364C85.7551 45.0662 85.8317 45.1173 85.8939 45.1854C86.2102 45.5398 85.9514 46.0469 85.6644 46.3349C85.263 46.7349 84.7789 47.0093 84.3728 47.4019C83.8682 47.8942 83.4724 48.6647 83.8256 49.4253C83.9336 49.6543 84.0971 49.8478 84.299 49.9853C84.5009 50.1229 84.7336 50.1994 84.9728 50.2068C85.8901 50.2425 86.6116 49.5287 87.2027 48.7828C87.6481 48.2194 88.0542 47.6217 88.4182 46.9946C88.6728 46.5552 88.9126 46.0949 89.2476 45.7331C89.9163 45.0143 91.6677 44.3288 92.0406 44.1885C92.0892 44.1705 92.1369 44.1491 92.1831 44.1245C96.3261 41.9387 97.5864 39.3591 98.8233 34.5063C99.7256 30.968 100.024 25.3619 96.3182 18.7394Z" fill="#FF6464"/>
<path d="M85.0383 50.3988H84.9649C84.6934 50.3907 84.4294 50.3041 84.2004 50.1484C83.9715 49.9927 83.7855 49.7735 83.6626 49.514C83.2682 48.6623 83.7074 47.7909 84.25 47.2703C84.4546 47.0795 84.6701 46.9023 84.8948 46.7398C85.121 46.578 85.3364 46.3995 85.5392 46.2057C85.692 46.0531 85.857 45.8106 85.8626 45.5904C85.8649 45.5415 85.8574 45.4926 85.8406 45.4471C85.8243 45.4015 85.799 45.3602 85.7663 45.3257C85.7233 45.2794 85.6701 45.2447 85.6121 45.2247C85.5537 45.2045 85.492 45.1995 85.4317 45.2101C85.0154 45.2765 84.6425 45.4956 84.2476 45.7257C83.9472 45.9157 83.6299 46.0732 83.3004 46.1959C83.0532 46.2818 82.7911 46.3081 82.5336 46.2728C82.2757 46.2375 82.0285 46.1414 81.8093 45.9916C81.6602 45.881 81.5378 45.7341 81.4518 45.563C81.3659 45.3918 81.3191 45.2013 81.3149 45.007C81.3084 44.7718 81.3532 44.5383 81.4453 44.3248C81.5369 44.1113 81.6738 43.9235 81.8448 43.7762C82.3551 43.3295 82.9369 43.2335 83.5 43.14C83.9299 43.0686 84.3359 43.0021 84.7032 42.7868C84.814 42.7233 84.9102 42.6343 84.9855 42.5262C85.0607 42.4182 85.1126 42.2936 85.1378 42.1615C85.1859 41.8982 85.1126 41.7333 84.8855 41.5941C84.4668 41.3394 83.9677 41.3886 83.4439 41.4391C83.2902 41.4551 83.1308 41.4698 82.9733 41.4772C82.0939 41.5166 81.1808 41.06 81.1383 40.1099C81.1285 39.8583 81.1803 39.6085 81.2878 39.3849C81.3958 39.1613 81.556 38.9718 81.7532 38.8348C82.3266 38.4311 82.9355 38.4262 83.5238 38.4213C83.8757 38.4352 84.2275 38.4012 84.5715 38.3204C84.793 38.2678 84.9958 38.1467 85.1542 37.9721C85.4065 37.6706 85.4705 37.1512 85.3144 36.6786C85.185 36.2884 84.9289 35.9291 84.5116 35.5488L84.4509 35.4947C84.1275 35.2017 83.7238 34.8374 83.7303 34.2713C83.735 33.998 83.8359 33.7366 84.0126 33.5398C84.1897 33.343 84.4294 33.2253 84.6836 33.2104C85.4752 33.1661 86.0028 33.8036 86.4537 34.499C86.5546 34.654 86.6556 34.8214 86.7542 34.9826C87.2131 35.7396 87.6855 36.5223 88.3897 36.6134C91.5028 37.0183 93.2383 33.6005 93.4364 32.1064C93.8219 29.2118 93.5514 26.7429 91.0383 22.6839C88.7729 19.0274 83.5584 19.0939 79.5817 19.7929C75.4687 20.5166 71.8873 22.4181 70.7107 23.0433C70.5387 23.1356 70.4168 23.1996 70.3378 23.2377L70.2906 23.2845L70.199 23.2611C70.0523 23.223 68.4397 21.4433 67.7902 19.4853C67.1925 17.6822 66.8486 15.6097 67.5056 15.3192C67.5266 15.3105 67.5481 15.3032 67.5701 15.297C68.1378 15.0682 72.9967 13.4251 78.6056 12.4405C89.4299 10.5353 94.2934 14.7629 96.4673 18.6447C100.204 25.3177 99.9014 30.9828 98.9906 34.5593C97.7289 39.5019 96.4588 42.0803 92.2598 44.2956C92.2074 44.3226 92.1537 44.3464 92.099 44.367C91.7551 44.4962 90.0149 45.1756 89.3715 45.8685C89.1065 46.1799 88.8752 46.5231 88.6831 46.8912C88.6444 46.9602 88.6056 47.0291 88.5687 47.0968C88.2004 47.7313 87.7887 48.3361 87.3378 48.906C86.7817 49.6087 86.0247 50.3988 85.0383 50.3988ZM85.4967 44.8261C85.5944 44.8254 85.6911 44.8459 85.7808 44.8862C85.8705 44.9267 85.9518 44.9861 86.0201 45.0611C86.0841 45.1312 86.1341 45.2147 86.1673 45.3063C86.2004 45.3979 86.2159 45.4958 86.2126 45.594C86.1794 45.937 86.0238 46.2531 85.7789 46.4765C85.564 46.6815 85.3364 46.8707 85.0976 47.0426C84.8841 47.1965 84.6794 47.3647 84.485 47.546C84.2687 47.7564 83.5892 48.5097 83.9771 49.3478C84.0719 49.5473 84.2154 49.7156 84.392 49.8349C84.5687 49.9543 84.7719 50.0203 84.9808 50.0259C85.85 50.0591 86.5257 49.3576 87.0729 48.6721C87.5112 48.1138 87.9112 47.5218 88.2691 46.9011C88.3093 46.8346 88.3472 46.7657 88.3841 46.698C88.5897 46.3051 88.8373 45.9391 89.1215 45.6076C89.8018 44.8753 91.4822 44.2058 91.9799 44.0175C92.0224 44.002 92.0635 43.9835 92.1037 43.9621C96.1836 41.8108 97.4215 39.2927 98.6532 34.462C99.5467 30.9557 99.8416 25.3977 96.1677 18.8317C94.049 15.0497 89.2855 10.9329 78.6593 12.8011C73.0308 13.7943 68.1733 15.446 67.6803 15.6404L67.6481 15.649C67.4187 15.75 67.3864 17.1432 68.1182 19.3498C68.6794 21.0409 69.9467 22.519 70.2691 22.8513C70.3425 22.8144 70.4397 22.7627 70.5579 22.6987C71.7462 22.0673 75.3616 20.1474 79.5266 19.4151C83.6042 18.6975 88.9607 18.6447 91.3285 22.4661C93.9046 26.6247 94.1789 29.165 93.7808 32.1483C93.5789 33.6584 91.9042 37.0072 88.8934 37.0072C88.7112 37.0073 88.5294 36.9954 88.3486 36.9715C87.4822 36.8595 86.9411 35.9648 86.4626 35.1747C86.3616 35.0085 86.2668 34.851 86.1691 34.6996C85.7102 33.9981 85.2892 33.5378 84.7018 33.571C84.5355 33.5806 84.3785 33.6576 84.2626 33.7863C84.1472 33.9152 84.0808 34.0862 84.078 34.2651C84.0724 34.6553 84.3785 34.931 84.6743 35.198L84.7355 35.2534C85.2032 35.6792 85.4911 36.0891 85.6425 36.5432C85.8397 37.1401 85.7481 37.8097 85.413 38.2097C85.2102 38.4386 84.949 38.5983 84.6616 38.6687C84.2897 38.7579 83.9084 38.796 83.5275 38.7819C82.9644 38.7819 82.4331 38.7918 81.9434 39.1352C81.7972 39.2364 81.6775 39.3768 81.5972 39.5425C81.5168 39.7083 81.478 39.8936 81.4845 40.0804C81.5215 40.8717 82.3859 41.1203 82.9598 41.0945C83.1074 41.0883 83.2635 41.0723 83.4187 41.0575C83.9747 41.0034 84.5495 40.948 85.0621 41.2606C85.2257 41.3434 85.357 41.4846 85.4341 41.66C85.5112 41.8353 85.5289 42.034 85.4841 42.2218C85.449 42.4075 85.3766 42.5825 85.271 42.7346C85.1659 42.8867 85.0308 43.012 84.8752 43.1018C84.4542 43.348 83.999 43.4243 83.5584 43.4968C83.0182 43.5855 82.5065 43.6704 82.0673 44.0532C81.9383 44.1634 81.835 44.3043 81.7649 44.4647C81.6953 44.625 81.6607 44.8005 81.6649 44.9775C81.6659 45.1147 81.6981 45.2497 81.7579 45.3711C81.8177 45.4925 81.9037 45.5968 82.0088 45.6753C82.1841 45.7918 82.3808 45.8663 82.585 45.8935C82.7897 45.9207 82.9972 45.9 83.1939 45.8328C83.5009 45.7176 83.7967 45.57 84.0771 45.3922C84.4808 45.1559 84.8981 44.911 85.3766 44.8347C85.4154 44.8291 85.4542 44.8263 85.4934 44.8261H85.4967ZM70.1794 22.9018H70.1668H70.1738H70.1794Z" fill="#53203E"/>
<path d="M3.30219 18.7394C5.44941 14.9081 10.2589 10.7396 20.9871 12.6239C26.6637 13.622 31.5867 15.3019 31.9985 15.4693C32.0143 15.4724 32.0297 15.4773 32.0444 15.4841C32.4883 15.6798 32.3174 17.4397 31.6624 19.415C31.0075 21.3904 29.4613 22.9067 29.4395 22.8857C28.8878 22.631 24.8319 20.4415 20.0625 19.6021C15.9241 18.8747 10.548 18.7984 8.43399 22.5731C6.47258 26.0807 5.87614 29.4234 6.66413 32.5162C6.97548 33.7267 7.48843 34.8667 8.17819 35.8811C9.01702 36.7243 9.99338 37.3947 11.0584 37.8588C11.7352 38.1505 12.4865 38.3512 13.1781 38.105C14.0866 37.7826 14.6692 36.7893 15.2347 35.9118C15.635 35.2964 16.1237 34.6626 16.8532 34.7033C17.0636 34.7159 17.2617 34.8133 17.4081 34.976C17.5544 35.1387 17.6381 35.3547 17.6424 35.5807C17.6492 36.089 17.2546 36.4127 16.9231 36.7142C16.5641 37.0392 16.2349 37.4305 16.0674 37.9228C15.9 38.4151 15.9447 39.0243 16.2624 39.3997C16.4431 39.6011 16.6748 39.7414 16.9289 39.8034C17.8385 40.0619 18.8238 39.6803 19.6978 40.2957C19.8687 40.415 20.0079 40.5797 20.102 40.7738C20.196 40.9679 20.2417 41.1848 20.2346 41.4033C20.1933 42.2895 19.3009 42.6279 18.5783 42.5947C17.8993 42.564 17.1732 42.3707 16.5733 42.7362C16.4418 42.8001 16.3357 42.912 16.2739 43.052C16.2122 43.1919 16.1988 43.3509 16.2361 43.5005C16.2665 43.6592 16.329 43.8088 16.4192 43.9387C16.5094 44.0686 16.625 44.1757 16.758 44.2525C17.6503 44.7768 18.7412 44.4802 19.59 45.2235C19.74 45.3522 19.8601 45.5164 19.9409 45.7033C20.0216 45.8901 20.0609 46.0945 20.0557 46.3004C20.0167 47.2678 19.0233 47.5619 18.2973 47.3195C17.5517 47.0733 16.9209 46.458 16.1397 46.3288C16.0522 46.3134 15.9624 46.321 15.8782 46.3507C15.7939 46.3805 15.7176 46.4317 15.6557 46.4998C15.338 46.8543 15.5972 47.3613 15.8851 47.6493C16.2854 48.0493 16.7706 48.3238 17.1755 48.7164C17.6802 49.2087 18.0759 49.9791 17.7238 50.7397C17.6151 50.9693 17.4506 51.1632 17.2477 51.3008C17.0448 51.4383 16.8109 51.5145 16.571 51.5212C15.6465 51.5569 14.9308 50.8418 14.34 50.096C13.8948 49.5332 13.4888 48.9359 13.1253 48.309C12.8695 47.8697 12.6298 47.4093 12.2949 47.0475C11.6273 46.3288 9.87581 45.6432 9.50188 45.5029C9.45333 45.4847 9.40581 45.4633 9.35964 45.439C5.21656 43.2532 2.03014 39.3579 0.792492 34.5051C-0.104484 30.968 -0.403858 25.3619 3.30219 18.7394Z" fill="#FF6464"/>
<path d="M16.5102 51.7133C15.5226 51.7133 14.7667 50.9194 14.2161 50.2216C13.7654 49.6514 13.3541 49.0468 12.9854 48.4124L12.8707 48.2069C12.6786 47.8388 12.4477 47.4956 12.1825 47.1842C11.539 46.4913 9.7978 45.8119 9.45481 45.6827C9.39981 45.6618 9.34584 45.638 9.29308 45.6113C5.00551 43.3492 1.85003 39.321 0.636477 34.5593C-0.281147 30.9828 -0.579373 25.3177 3.15994 18.6446C5.3393 14.7629 10.197 10.5353 21.0214 12.4405C26.6304 13.4251 31.4881 15.0669 32.0559 15.2897C32.0777 15.2957 32.0991 15.3031 32.1201 15.3118C32.7773 15.6023 32.4332 17.6748 31.8357 19.4779C31.1864 21.4236 29.6425 23.0236 29.4854 23.0667L29.3948 23.09L29.3477 23.0433L29.0897 22.9202C25.9055 21.34 22.8601 20.2864 20.0385 19.7893C15.9528 19.0705 10.65 18.988 8.58537 22.6729C6.64691 26.1349 6.06191 29.4321 6.83159 32.472C7.13621 33.655 7.63705 34.7693 8.31009 35.7617C9.12981 36.5843 10.0836 37.238 11.1237 37.6903C11.9519 38.0459 12.5874 38.1235 13.1242 37.9364C13.9053 37.6583 14.4398 36.8287 14.9594 36.0238L15.0959 35.8134C15.5478 35.118 16.0743 34.4805 16.8658 34.5248C17.1178 34.5411 17.355 34.6582 17.5304 34.853C17.7059 35.0479 17.8068 35.3063 17.8132 35.5771C17.8213 36.1432 17.4175 36.5075 17.0929 36.8004L17.0321 36.8546C16.6134 37.2349 16.3577 37.593 16.2292 37.9844C16.0721 38.457 16.1363 38.9764 16.3886 39.2779C16.5472 39.4522 16.7497 39.5732 16.9713 39.6262C17.3155 39.7064 17.6677 39.7403 18.0197 39.7271C18.6081 39.7271 19.216 39.737 19.7907 40.1407C19.9873 40.2775 20.1473 40.4669 20.2549 40.6903C20.3625 40.9136 20.414 41.1632 20.4043 41.4145C20.3607 42.3658 19.4478 42.8224 18.5691 42.783C18.4131 42.7757 18.2537 42.7609 18.0988 42.7449C17.5735 42.6944 17.0757 42.6452 16.6582 42.9C16.4287 43.039 16.3565 43.2027 16.4047 43.4673C16.4305 43.5992 16.4829 43.7233 16.5582 43.8311C16.6335 43.9389 16.7299 44.0277 16.8406 44.0913C17.2076 44.3079 17.6136 44.3744 18.0426 44.4457C18.6058 44.5393 19.1897 44.6353 19.6978 45.0821C19.8691 45.2289 20.0062 45.4166 20.0982 45.6303C20.1902 45.8439 20.2345 46.0776 20.2277 46.3128C20.2243 46.5073 20.1776 46.6981 20.0916 46.8693C20.0057 47.0406 19.8828 47.1873 19.7334 47.2974C19.3434 47.5928 18.7584 47.6728 18.2422 47.5017C17.9129 47.3792 17.5959 47.2217 17.2959 47.0315C16.9014 46.8001 16.5285 46.5823 16.111 46.5158C16.0508 46.5054 15.9892 46.5105 15.9312 46.5306C15.8731 46.5507 15.8204 46.5853 15.7772 46.6315C15.7449 46.6661 15.7195 46.7074 15.7028 46.7529C15.686 46.7985 15.6781 46.8472 15.6798 46.8962C15.6866 47.1214 15.8518 47.365 16.0043 47.5115C16.2071 47.705 16.4221 47.883 16.6478 48.0444C16.8728 48.2077 17.0884 48.3852 17.2936 48.5761C17.8362 49.1029 18.2743 49.9681 17.8798 50.8197C17.7571 51.0793 17.5713 51.2985 17.3422 51.4542C17.113 51.61 16.849 51.6965 16.5778 51.7046L16.5102 51.7133ZM15.978 12.3408C8.77004 12.3408 5.20626 15.7032 3.45128 18.8391C-0.219207 25.4001 0.0721377 30.9581 0.965674 34.4694C2.15399 39.129 5.24294 43.071 9.44219 45.2851C9.48182 45.3067 9.52285 45.3253 9.56495 45.3405C10.0639 45.5288 11.7443 46.202 12.4233 46.9306C12.7085 47.2615 12.956 47.6276 13.1609 48.021L13.2756 48.2241C13.6362 48.8391 14.0384 49.4248 14.4788 49.9767C15.0248 50.6671 15.7015 51.3686 16.5699 51.3305C16.7786 51.3247 16.9821 51.2586 17.1589 51.1393C17.3357 51.02 17.4793 50.8518 17.5746 50.6523C17.9623 49.8142 17.2833 49.061 17.0654 48.8493C16.8711 48.6685 16.6665 48.5007 16.4528 48.3472C16.2144 48.1752 15.9871 47.9861 15.7727 47.7811C15.5088 47.5177 15.346 47.1879 15.3379 46.8986C15.3349 46.8004 15.3504 46.7026 15.3835 46.611C15.4167 46.5194 15.4667 46.436 15.5307 46.3657C15.612 46.2763 15.7121 46.209 15.8227 46.1696C15.9333 46.1302 16.051 46.1198 16.1661 46.1393C16.6444 46.2156 17.0619 46.4605 17.4657 46.6968C17.7463 46.8744 18.0425 47.022 18.35 47.1374C18.5453 47.2066 18.7521 47.2296 18.9564 47.205C19.1608 47.1804 19.3577 47.1086 19.5338 46.9946C19.6392 46.9166 19.7256 46.8124 19.7855 46.6909C19.8454 46.5694 19.8771 46.4343 19.8778 46.2968C19.8819 46.1198 19.8476 45.9443 19.7778 45.7839C19.7079 45.6236 19.6043 45.4827 19.4753 45.3725C19.0383 44.9898 18.5278 44.9048 17.9841 44.8162C17.5437 44.7424 17.0883 44.6673 16.6685 44.4212C16.513 44.3314 16.3778 44.206 16.2726 44.054C16.1673 43.9019 16.0945 43.7268 16.0594 43.5412C15.9814 43.1203 16.1236 42.8028 16.4804 42.5787C16.9931 42.2674 17.5689 42.3228 18.1241 42.3769C18.2743 42.3917 18.4303 42.4077 18.5829 42.4138C19.1564 42.4397 20.0224 42.1911 20.0591 41.3985C20.0657 41.2119 20.027 41.0267 19.9465 40.8611C19.866 40.6956 19.7467 40.5554 19.6003 40.4545C19.1116 40.1111 18.5794 40.1062 18.0163 40.1013C17.6356 40.1153 17.2547 40.0773 16.883 39.988C16.5957 39.9174 16.334 39.7578 16.1305 39.529C15.7956 39.129 15.7038 38.4595 15.9011 37.8626C16.0514 37.4072 16.3393 37.0011 16.8073 36.5728L16.8681 36.5174C17.1651 36.2503 17.4703 35.9746 17.4657 35.5845C17.4624 35.4055 17.3962 35.2344 17.2802 35.1056C17.1642 34.9769 17.0072 34.9 16.8406 34.8903C16.2533 34.8571 15.8289 35.3174 15.3735 36.0189L15.2381 36.2294C14.6887 37.0835 14.1209 37.9659 13.2285 38.2835C12.4153 38.5714 11.5619 38.2773 10.9895 38.0312C9.90691 37.5592 8.91486 36.8766 8.0635 36.0177L8.04168 35.9906C7.33901 34.9581 6.81635 33.7977 6.49892 32.5655C5.69602 29.4247 6.30163 26.0303 8.2906 22.4735C10.455 18.6102 15.9057 18.6779 20.097 19.4151C22.9496 19.9172 26.0259 20.9806 29.2376 22.5756L29.4211 22.6667C29.7331 22.3676 30.949 21.0249 31.5053 19.3499C32.2371 17.1431 32.2061 15.75 31.9848 15.6515L31.9435 15.6404C31.4502 15.441 26.5926 13.7943 20.9618 12.8036C19.315 12.5048 17.6482 12.35 15.978 12.3408ZM29.498 22.7098H29.5071H29.5152H29.498Z" fill="#53203E"/>
<path d="M58.7272 33.2977C58.7561 29.934 57.5477 27.1948 56.0281 27.1798C54.5085 27.1647 53.2533 29.8793 53.2239 33.2431C53.1949 36.6069 54.4033 39.346 55.9234 39.3611C57.4431 39.3762 58.6982 36.6615 58.7272 33.2977Z" fill="white"/>
<path d="M55.9338 39.5445H55.9197C54.2786 39.5284 53.0179 36.7593 53.0525 33.2394C53.0833 29.7306 54.3838 26.9922 56.0174 26.9922H56.0324C57.6725 27.0082 58.9328 29.7786 58.8996 33.2972C58.8665 36.8159 57.5669 39.5445 55.9338 39.5445ZM53.395 33.2431C53.3679 36.443 54.5249 39.1592 55.9188 39.1728H55.93C57.3225 39.1728 58.5211 36.4861 58.5487 33.2935C58.5763 30.101 57.4179 27.3786 56.0253 27.3639H56.0095C54.6169 27.3639 53.4183 30.0506 53.3917 33.2431H53.395Z" fill="#53203E"/>
<path d="M58.8434 33.1102C58.8705 29.9844 57.9616 27.4411 56.814 27.4297C55.6663 27.4183 54.714 29.9431 54.6869 33.069C54.6598 36.1949 55.5686 38.7381 56.7163 38.7495C57.8644 38.7609 58.8168 36.2361 58.8434 33.1102Z" fill="#53203E"/>
<path d="M54.7976 29.8734L56.4518 30.9971L55.2714 28.0938L54.7976 29.8734Z" fill="white"/>
<path d="M46.6324 33.2977C46.6614 29.9339 45.453 27.1948 43.9333 27.1798C42.4136 27.1647 41.1582 29.8793 41.1292 33.2431C41.1002 36.6069 42.3086 39.3459 43.8283 39.361C45.348 39.3761 46.6034 36.6615 46.6324 33.2977Z" fill="white"/>
<path d="M43.8405 39.5445H43.8255C42.1853 39.5285 40.9236 36.7593 40.958 33.2395C40.9924 29.7196 42.3 26.9787 43.9402 26.9922C45.5805 27.0058 46.8422 29.7786 46.8081 33.2973C46.7735 36.816 45.4738 39.5445 43.8405 39.5445ZM43.9196 27.3602C42.526 27.3602 41.3285 30.047 41.3009 33.2395C41.2734 36.432 42.4308 39.1556 43.8244 39.1692H43.8347C45.2284 39.1692 46.4259 36.4824 46.4534 33.2899C46.4809 30.0974 45.3236 27.375 43.9299 27.3602H43.9196Z" fill="#53203E"/>
<path d="M46.75 33.1181C46.7766 29.9922 45.8681 27.4489 44.7203 27.4375C43.5724 27.4261 42.6201 29.9509 42.5931 33.0768C42.5662 36.2027 43.4748 38.7459 44.6226 38.7574C45.7705 38.7688 46.7228 36.2439 46.75 33.1181Z" fill="#53203E"/>
<path d="M42.7048 29.8734L44.3577 30.9971L43.1786 28.0938L42.7048 29.8734Z" fill="white"/>
<path d="M47.8216 41.3492C48.1407 41.5473 48.5547 41.4624 48.8795 41.2716C49.2234 41.071 49.6454 40.5677 50.0608 40.5751C50.586 40.5836 50.8842 41.2606 51.4304 41.3283C52.9893 41.5227 52.4706 39.3874 51.7744 38.7437C51.4127 38.4207 50.9753 38.2111 50.5094 38.1381C50.044 38.0652 49.5688 38.1316 49.136 38.3302C48.4379 38.6514 46.6472 40.5948 47.8159 41.3443L47.8216 41.3492Z" fill="#53203E"/>
<path d="M43.0568 26.4249C42.8138 26.427 42.5712 26.4051 42.3319 26.3597C42.2781 26.3414 42.2324 26.3025 42.2037 26.2504C42.1749 26.1983 42.165 26.1367 42.176 26.0773C42.1869 26.0178 42.2178 25.9649 42.2629 25.9284C42.308 25.892 42.364 25.8746 42.4202 25.8797C42.4374 25.8797 44.0364 26.2071 45.0756 25.2028C45.1212 25.1593 45.1811 25.1371 45.2419 25.1411C45.3028 25.145 45.3597 25.1747 45.4002 25.2237C45.4407 25.2727 45.4614 25.3369 45.4577 25.4021C45.454 25.4675 45.4263 25.5285 45.3807 25.572C44.642 26.2809 43.698 26.4249 43.0568 26.4249Z" fill="#53203E"/>
<path d="M56.6425 26.4253C56.8855 26.4273 57.128 26.4054 57.3673 26.36C57.4262 26.347 57.4785 26.3094 57.5117 26.2555C57.5453 26.2016 57.5575 26.1357 57.5463 26.072C57.5341 26.0086 57.4991 25.9528 57.4486 25.9169C57.3986 25.881 57.3369 25.8677 57.2776 25.8801C57.2617 25.8801 55.6626 26.2074 54.6234 25.2032C54.578 25.1596 54.5182 25.1372 54.457 25.141C54.3963 25.1448 54.3388 25.1745 54.2981 25.2234C54.258 25.2724 54.2369 25.3367 54.2407 25.4021C54.2439 25.4675 54.2715 25.5288 54.3173 25.5724C55.057 26.2813 56.0009 26.4253 56.6425 26.4253Z" fill="#53203E"/>
</svg>
