<svg width="1351" height="1034" viewBox="0 0 1351 1034" fill="none" xmlns="http://www.w3.org/2000/svg">
<path d="M164.144 70.5549L156.777 77.6669L150.07 84.1424C148.841 84.0163 147.574 83.8609 146.266 83.6738C143.754 83.3142 141.398 82.8904 139.19 82.4063C106.112 75.1599 106.2 54.5061 112.884 37.4938C113.431 36.1019 114.022 34.7339 114.643 33.4L120.522 33.7611L121.035 33.7928C121.166 33.755 121.297 33.7186 121.426 33.6823C138.17 29.007 150.548 34.6953 157.852 40.1036C158.681 40.7184 159.446 41.3301 160.144 41.9216C160.72 42.4096 161.249 42.8844 161.734 43.3368C161.734 43.3368 161.735 43.3368 161.735 43.3375C164.214 45.6558 165.493 47.4027 165.493 47.4027C171.442 58.6927 164.144 70.5549 164.144 70.5549Z" fill="#BF1031"/>
<path opacity="0.5" d="M160.887 43.3368C140.587 30.8025 120.522 37.4938 120.522 37.4938V33.7611L121.035 33.7928C121.166 33.755 121.297 33.7186 121.426 33.6823C138.17 29.007 150.548 34.6953 157.852 40.1036C158.681 40.7184 159.446 41.3301 160.144 41.9216L160.887 43.3368Z" fill="white"/>
<path opacity="0.25" d="M164.144 70.5553L156.777 77.6672L139.19 82.4067C106.112 75.1602 106.2 54.5065 112.884 37.4941L119.274 37.9303C119.274 37.9303 111.358 68.3522 140.016 68.7071C160.502 68.9608 164.127 49.9023 157.852 40.104C162.87 43.8196 165.493 47.403 165.493 47.403C171.442 58.693 164.144 70.5553 164.144 70.5553Z" fill="#15296F"/>
<path d="M61.9402 116.38C61.9402 116.38 43.5464 123.34 34.193 99.3817C26.1122 78.6832 35.9963 67.5919 38.8352 64.9581C39.2822 64.5428 39.5546 64.3379 39.5546 64.3379C47.6243 64.9511 58.8547 104.895 61.4087 114.377C61.7539 115.656 61.9402 116.38 61.9402 116.38Z" fill="#EA1938"/>
<path opacity="0.25" d="M61.9402 116.38C61.9402 116.38 43.5464 123.34 34.193 99.3817C26.1122 78.6832 35.9963 67.5919 38.8352 64.9581C39.2822 64.5428 39.5546 64.3379 39.5546 64.3379C47.6243 64.9511 58.8547 104.895 61.4087 114.377C61.7539 115.656 61.9402 116.38 61.9402 116.38Z" fill="#15296F"/>
<path d="M55.864 118.288C54.4966 118.288 52.9757 118.159 51.3641 117.809C47.8474 117.043 44.6359 115.379 41.8182 112.861C38.3421 109.754 35.4696 105.336 33.2803 99.7294C31.1012 94.1486 30.0336 88.7843 30.1064 83.785C30.1651 79.7577 30.9595 75.9585 32.4671 72.4934C35.0484 66.5623 38.8023 63.6888 38.9612 63.5689C39.1522 63.4251 39.3902 63.3555 39.6297 63.374C41.0143 63.4792 42.4107 64.3894 43.8978 66.1556C45.1181 67.6047 46.4268 69.6802 47.7879 72.3248C50.0453 76.7109 52.5085 82.7619 55.1079 90.3084C59.5208 103.119 62.8552 116.013 62.8888 116.142C63.0109 116.617 62.7542 117.107 62.2908 117.283C62.1452 117.338 59.5732 118.289 55.864 118.289V118.288ZM39.8347 65.3676C38.9151 66.1703 36.174 68.8172 34.2219 73.358C31.0879 80.6454 31.394 89.5243 35.1064 99.0334C38.8603 108.648 44.4715 114.33 51.7852 115.92C55.81 116.796 59.2429 116.135 60.7591 115.73C59.9302 112.606 56.977 101.732 53.252 90.9209C45.9438 69.708 41.6264 65.8857 39.8347 65.3668V65.3676Z" fill="#15296F"/>
<path d="M150.07 84.1424L103.721 128.888C103.721 128.888 100.816 127.743 96.2497 125.714C85.4036 120.898 65.1861 111.103 52.2619 99.8549C33.8955 83.871 40.5721 66.8896 40.5721 66.8896C30.0109 64.6316 18.3289 70.415 13.8705 72.9545C12.6487 73.6505 11.0935 73.3651 10.2082 72.2818C8.85881 70.6308 8.05105 68.8468 7.59473 67.5577C7.18067 66.3901 7.57516 65.0925 8.57547 64.3478C12.1141 61.7117 18.5778 59.6207 18.5778 59.6207C13.9105 58.0038 6.00347 53.8822 2.6738 52.1051C1.62026 51.543 0.972177 50.4511 0.978439 49.268C0.990179 46.9612 1.68601 45.3412 2.66362 44.2045C3.6882 43.0121 5.02351 42.3509 6.20619 41.9836C7.31608 41.6387 8.29212 41.5529 8.75079 41.532C8.91203 41.525 9.07327 41.5297 9.23295 41.5475C19.6423 42.7097 40.9634 56.2183 40.9634 56.2183C41.3235 55.0552 42.107 53.8381 42.8967 52.815C43.998 51.3899 45.1118 50.3413 45.1118 50.3413C42.3175 48.0825 33.6505 37.6292 30.479 33.7651C29.8739 33.0281 29.6313 32.0762 29.7941 31.1668C29.8387 30.9155 29.9146 30.6681 30.0218 30.4283C33.0267 23.741 38.8055 23.0148 41.5207 23.0721C42.438 23.0914 43.3053 23.4904 43.9088 24.174C48.7937 29.7022 55.3654 41.5258 55.3654 41.5258C55.5407 41.3147 55.7301 41.1129 55.9305 40.9203C58.1503 38.7899 61.7053 37.814 61.7053 37.814C61.4502 37.34 61.2075 36.8691 60.9774 36.402C52.1101 18.4478 60.8765 6.02339 64.2132 2.22732C64.938 1.403 65.9978 0.944438 67.1022 0.967636C75.6009 1.14395 78.3866 6.90494 79.2867 10.2262C79.5262 11.107 79.426 12.0349 79.0221 12.8283C78.8609 13.1454 78.6511 13.4415 78.3952 13.7045C71.5323 20.7437 76.4963 31.9502 76.4963 31.9502C83.068 27.6329 91.0415 31.9502 91.0415 31.9502L114.643 33.4001C105.93 52.1252 103.051 77.4937 146.266 83.6738C147.574 83.861 148.841 84.0164 150.07 84.1424Z" fill="#3E8AD5"/>
<path opacity="0.5" d="M79.0222 12.8285C78.9024 12.6066 78.7787 12.3398 78.6511 12.0251C76.13 5.79779 70.3857 4.66493 67.8458 4.47547C67.067 4.41748 66.2999 4.70591 65.7677 5.27119C55.3771 16.2998 62.4059 37.6449 62.4059 37.6449L60.9774 36.403C52.1101 18.4488 60.8765 6.02437 64.2132 2.2283C64.938 1.40397 65.9978 0.945414 67.1022 0.968613C75.6009 1.14492 78.3866 6.90591 79.2867 10.2272C79.5262 11.108 79.426 12.0359 79.0222 12.8293V12.8285Z" fill="white"/>
<path opacity="0.5" d="M55.9305 40.9205C55.8742 41.9737 55.5282 42.5034 54.7783 42.2606C50.2386 40.7914 46.6381 28.2641 41.5505 26.1762C36.4628 24.0884 30.4946 31.9504 30.4946 31.9504L29.7941 31.167C29.8387 30.9157 29.9146 30.6683 30.0219 30.4285C33.0267 23.7411 38.8055 23.015 41.5207 23.0723C42.4381 23.0916 43.3053 23.4906 43.9088 24.1742C48.7937 29.7024 55.3654 41.526 55.3654 41.526C55.5407 41.3149 55.7301 41.1131 55.9305 40.9205Z" fill="white"/>
<path opacity="0.5" d="M43.2724 53.0869L41.5857 56.5666C41.0597 57.6516 39.715 58.0715 38.6528 57.4845C16.5098 45.2418 5.97998 43.3372 5.97998 43.3372C5.97998 43.3372 6.07391 42.7913 6.20618 41.984C7.31607 41.6391 8.29212 41.5533 8.75079 41.5324C8.91203 41.5254 9.07327 41.5301 9.23294 41.5479C19.6423 42.7101 40.9634 56.2187 40.9634 56.2187C41.3235 55.0556 42.107 53.8385 42.8967 52.8154L43.2724 53.0869Z" fill="white"/>
<path opacity="0.25" d="M96.2497 125.713C85.4036 120.897 65.1861 111.103 52.2619 99.8545C33.8955 83.8707 40.5721 66.8893 40.5721 66.8893C30.0109 64.6313 18.3289 70.4147 13.8705 72.9542C12.6487 73.6501 11.0935 73.3648 10.2082 72.2814C8.85881 70.6304 8.05105 68.8465 7.59473 67.5574C7.18067 66.3897 7.57516 65.0921 8.57547 64.3475C12.1141 61.7113 18.5778 59.6204 18.5778 59.6204C13.9105 58.0034 6.00347 53.8818 2.6738 52.1048C1.62026 51.5426 0.972177 50.4507 0.978439 49.2676C0.990179 46.9609 1.68601 45.3408 2.66362 44.2041C2.66362 44.2041 5.23249 48.833 16.1905 52.0808C27.1485 55.3286 30.5924 61.4376 40.1416 62.1335C49.6907 62.8295 43.3288 83.5691 67.643 81.8988C91.9573 80.2285 99.0643 82.2004 105.764 104.258C109.422 116.3 102.914 122.534 96.2497 125.713Z" fill="#15296F"/>
<path d="M103.721 129.855C103.599 129.855 103.477 129.832 103.359 129.786C103.276 129.753 94.9253 126.448 84.4393 121.229C78.2778 118.162 72.5906 115.042 67.5366 111.957C61.2021 108.09 55.846 104.262 51.6154 100.58C47.3316 96.8523 44.034 92.7531 41.8135 88.3956C40.0281 84.8918 38.9323 81.2172 38.5566 77.4737C38.0948 72.8742 38.8297 69.3325 39.3072 67.6367C29.3855 66.0376 18.6279 71.3616 14.3605 73.7929C12.7106 74.7332 10.6442 74.3535 9.4482 72.8897C7.99 71.1049 7.13372 69.1794 6.6727 67.878C6.1154 66.3059 6.64374 64.5776 7.98844 63.5762C10.2387 61.8997 13.5528 60.4614 15.8085 59.5899C11.0966 57.6304 4.94368 54.4143 2.21122 52.9558C0.839124 52.2243 -0.00777336 50.8092 5.37896e-05 49.2634C0.0211871 45.1209 2.10086 43.0129 3.8424 41.9736C5.7851 40.8145 7.89138 40.6034 8.70619 40.567C8.92222 40.557 9.13668 40.5639 9.34332 40.5871C13.7844 41.0828 20.5549 43.7344 29.4653 48.4677C34.3839 51.0806 38.6317 53.6394 40.4914 54.7831C41.3548 53.01 42.8169 51.3196 43.6998 50.3854C40.3271 47.1933 32.9351 38.292 29.7197 34.3738C28.7077 33.1404 28.4807 31.4778 29.1288 30.0364C30.5353 26.9061 32.6659 24.6558 35.4625 23.3474C37.7786 22.2641 40.0469 22.0738 41.5426 22.1055C42.7331 22.1303 43.8649 22.653 44.6477 23.5377C48.7053 28.1295 53.7999 36.8057 55.5822 39.9236C57.132 38.5727 59.0981 37.7051 60.3153 37.2558C58.2372 33.1527 56.9222 29.0443 56.4048 25.0286C55.9321 21.3609 56.1168 17.7318 56.9543 14.2412C58.4548 7.98609 61.6842 3.63248 63.4759 1.59409C64.3901 0.552472 65.7199 -0.0290407 67.1233 0.00111749C71.1159 0.0838593 74.3517 1.342 76.7413 3.73919C78.785 5.78918 79.7681 8.26215 80.2322 9.97575C80.6557 11.5378 80.222 13.2236 79.0996 14.375C76.4728 17.0691 75.3763 20.75 75.8396 25.3162C76.0635 27.5247 76.6184 29.4232 77.0004 30.5297C79.7094 29.1123 82.9388 28.7156 86.4188 29.3822C88.8624 29.8508 90.7104 30.7006 91.3076 30.9983L120.926 32.8179C127.509 30.9473 133.979 30.5065 140.159 31.5079C145.149 32.3168 149.956 34.0613 154.447 36.6928C162.087 41.1709 166.118 46.6072 166.285 46.8361C166.314 46.8739 166.339 46.9142 166.361 46.9567C167.782 49.6547 168.592 52.6063 168.768 55.7296C168.908 58.2134 168.649 60.8078 167.999 63.4416C166.894 67.912 165.057 70.9309 164.979 71.057C164.937 71.1258 164.885 71.19 164.826 71.2464L104.404 129.579C104.218 129.76 103.971 129.855 103.72 129.855H103.721ZM35.5275 65.412C37.2823 65.412 39.0434 65.5744 40.7787 65.9455C41.0581 66.0051 41.2976 66.1829 41.433 66.4319C41.5685 66.6809 41.5872 66.9763 41.4831 67.24C41.4675 67.2795 39.8911 71.4181 40.5126 77.3848C41.0847 82.8821 43.6998 91.1168 52.9076 99.1304C62.3174 107.32 75.7261 114.729 85.3183 119.503C94.1411 123.895 101.427 126.916 103.495 127.755L163.365 69.9558C163.679 69.4145 165.191 66.6902 166.112 62.9258C167.464 57.4023 166.975 52.3535 164.661 47.9179C164.227 47.3495 160.303 42.3564 153.38 38.316C143.616 32.6176 132.824 31.4082 121.308 34.7217C121.2 34.7527 121.087 34.7658 120.974 34.7581L90.9805 32.9153C90.8372 32.9068 90.6971 32.8666 90.5711 32.7986C90.5531 32.7893 88.6354 31.7678 85.9907 31.2705C82.5397 30.621 79.527 31.1205 77.0372 32.756C76.7961 32.9138 76.4971 32.9594 76.22 32.8782C75.9429 32.7978 75.7152 32.5998 75.5993 32.3385C75.5461 32.2186 74.293 29.3551 73.8985 25.5668C73.367 20.4577 74.6781 16.1242 77.69 13.0349C78.3388 12.3691 78.5885 11.3885 78.342 10.4768C77.4958 7.35663 74.9074 2.0975 67.0818 1.93511C66.2623 1.9181 65.4851 2.25602 64.9521 2.86228C61.9065 6.32738 52.7331 19.0549 62.5695 37.3617C62.7088 37.6208 62.7213 37.9278 62.6039 38.1969C62.4865 38.466 62.2525 38.6678 61.9668 38.7467C61.9284 38.7575 58.0094 39.861 56.1223 42.1391C55.9164 42.3873 55.5994 42.5188 55.2754 42.4894C54.9513 42.46 54.6641 42.2737 54.5075 41.9922C54.4426 41.8746 47.9296 30.1957 43.1715 24.8105C42.7504 24.3342 42.1406 24.0527 41.4988 24.0395C38.71 23.9808 33.6286 24.7834 30.9149 30.822C30.5674 31.5961 30.6911 32.4908 31.2374 33.1574C33.9378 36.4485 42.9648 47.3588 45.7302 49.5944C45.947 49.7699 46.0777 50.029 46.0886 50.3058C46.0996 50.5826 45.9892 50.851 45.7857 51.042C45.7552 51.0706 42.6729 53.9967 41.898 56.5014C41.8088 56.7906 41.5872 57.0218 41.3 57.1262C41.0127 57.2306 40.6926 57.1958 40.4343 57.0326C40.223 56.8988 19.186 43.6323 9.12259 42.508C9.01849 42.4964 8.90813 42.4933 8.79464 42.4979C7.1979 42.5698 1.9858 43.272 1.95606 49.2735C1.95214 50.1047 2.40534 50.8641 3.13874 51.2554C6.33848 52.9628 14.2791 57.1084 18.901 58.7091C19.2963 58.846 19.5601 59.2172 19.5554 59.6309C19.5507 60.0446 19.2799 60.4103 18.8815 60.5395C18.8181 60.5596 12.529 62.6127 9.16329 65.1197C8.5019 65.6122 8.24204 66.4636 8.51677 67.2385C8.92691 68.3961 9.68536 70.105 10.9682 71.6748C11.5553 72.3932 12.5697 72.5796 13.3806 72.1179C17.2597 69.9079 26.2907 65.412 35.5259 65.412H35.5275Z" fill="#15296F"/>
<path d="M97.3972 150.482C62.175 154.039 47.3817 115.607 48.3601 104.162C48.3742 104.001 48.3906 103.842 48.4102 103.687C48.5174 102.846 48.7139 102.077 48.9894 101.378C49.0731 101.165 49.1647 100.958 49.2633 100.757C52.676 93.7952 64.6202 94.3852 73.8046 97.3593C74.7634 97.6693 75.6917 98.0057 76.5769 98.3622C77.6962 98.8123 78.7615 99.3505 79.7728 99.9513C88.3122 105.029 92.9709 114.651 92.9709 114.651C86.9017 131.789 97.3972 150.482 97.3972 150.482Z" fill="#BF1031"/>
<path opacity="0.5" d="M81.1089 102.184C59.6155 92.8982 49.3119 101.589 49.3119 101.589L48.9894 101.378C49.0731 101.165 49.1647 100.958 49.2633 100.757C52.676 93.7952 64.6202 94.3852 73.8046 97.3593C74.7634 97.6693 75.6917 98.0057 76.5769 98.3622C77.6962 98.8123 78.7615 99.3505 79.7728 99.9513L81.1089 102.184Z" fill="white"/>
<path opacity="0.5" d="M73.475 41.7424C75.9821 44.626 68.5995 46.7974 62.0192 52.3813C55.439 57.9652 52.1523 64.8483 49.6453 61.9647C47.1383 59.0811 50.4405 52.2174 57.0216 46.6327C63.6019 41.0488 70.9688 38.8588 73.4758 41.7424H73.475Z" fill="white"/>
<path opacity="0.25" d="M97.3972 150.482C62.175 154.039 47.3817 115.607 48.3601 104.162C48.3742 104.001 48.3906 103.843 48.4102 103.687L49.2633 100.757C49.2633 100.757 50.0821 126.935 68.5541 130.492C87.0262 134.05 92.3432 110.26 76.4963 99.3815C75.352 98.5959 74.4644 97.9262 73.8046 97.3594C74.7634 97.6695 75.6917 98.0058 76.5769 98.3623C87.1436 102.615 92.9709 114.651 92.9709 114.651C86.9017 131.789 97.3972 150.482 97.3972 150.482Z" fill="#15296F"/>
<path d="M92.8112 151.679C87.6954 151.679 82.8019 150.788 78.2112 149.017C72.9929 147.005 68.1541 143.854 63.8273 139.654C57.0498 133.075 53.0399 125.459 50.8687 120.228C48.3405 114.135 46.9755 107.948 47.3058 104.081C47.5946 100.699 49.1498 98.1304 51.9269 96.4493C54.7822 94.7202 58.922 94.008 63.897 94.3908C68.1408 94.7164 72.7471 95.8098 76.8673 97.4677C82.5271 99.7458 86.8234 104.186 89.4315 107.51C92.2414 111.091 93.7145 114.107 93.7755 114.234C93.8874 114.465 93.9015 114.729 93.8162 114.97C90.7691 123.573 92.1044 132.62 93.7607 138.693C95.5703 145.328 98.1486 149.968 98.1744 150.014C98.3333 150.298 98.338 150.643 98.1853 150.931C98.0327 151.218 97.7447 151.411 97.4175 151.445C95.8638 151.602 94.3273 151.68 92.8104 151.68L92.8112 151.679ZM61.3343 96.222C57.8638 96.222 54.9951 96.8591 52.9507 98.0972C50.734 99.4396 49.4911 101.507 49.2571 104.243C49.0176 107.05 49.7901 112.53 52.6807 119.494C54.7815 124.558 58.659 131.926 65.2002 138.275C73.814 146.636 84.0996 150.456 95.7871 149.642C94.8698 147.778 93.201 144.05 91.886 139.245C90.7832 135.216 90.1641 131.267 90.0467 127.509C89.9034 122.939 90.5046 118.64 91.8344 114.723C91.3726 113.844 90.0138 111.4 87.8574 108.657C85.4013 105.534 81.3726 101.367 76.13 99.2571C72.2493 97.6951 67.7354 96.6233 63.7467 96.3171C62.9147 96.2529 62.1092 96.2212 61.3343 96.2212V96.222Z" fill="#15296F"/>
<path d="M175.199 162.932C139.977 172.831 105.459 169.196 90.993 144.258C81.5691 128.012 89.2999 117.329 95.834 111.855L95.8348 111.854C98.1775 109.892 100.366 108.599 101.556 107.959C102.141 107.645 102.485 107.488 102.485 107.488C96.9275 103.312 98.0233 92.4859 90.993 86.4929C85.6337 81.9244 74.4292 84.9727 69.4041 86.6793C67.7166 87.2531 65.8396 86.8185 64.5998 85.5503C59.0895 79.9107 58.9165 74.1884 59.9482 70.0869C59.9771 69.967 60.0084 69.8479 60.0405 69.7312C60.3779 68.5001 60.817 67.4275 61.2381 66.5615C61.9159 65.1695 63.2645 64.2168 64.8159 64.0227C69.8088 63.3987 81.836 60.3489 83.9344 45.47C86.3984 28.0015 99.0729 19.6453 103.983 17.027C105.227 16.3627 106.675 16.1702 108.049 16.5019C112.166 17.4956 115.116 19.353 117.229 21.5383C120.901 25.3375 122.042 30.1288 122.387 33.099C122.572 34.6958 122.069 36.3004 120.985 37.499C112.143 47.2695 110.555 57.8705 117.748 66.7354C125.34 76.0922 140.133 79.9587 140.133 79.9587C167.998 69.3646 165.493 47.4033 165.493 47.4033C165.493 47.4033 175.611 50.133 187.473 62.6494H187.473C192.074 67.5056 196.939 73.8335 201.576 82.0465C222.844 119.709 210.421 153.034 175.199 162.932Z" fill="#EA1938"/>
<path opacity="0.5" d="M117.229 21.5383C116.664 21.2654 115.894 21.0102 115.204 20.3769C105.342 11.3294 87.769 33.4555 87.3392 41.9516C86.6348 55.8708 78.8859 63.9903 71.0353 64.9275C60.8804 66.1408 60.7269 70.3312 60.7269 70.3312L59.9482 70.0869C59.9771 69.967 60.0084 69.8479 60.0405 69.7312C60.3779 68.5001 60.817 67.4275 61.2381 66.5615C61.9159 65.1695 63.2645 64.2168 64.8159 64.0227C69.8088 63.3987 81.836 60.3489 83.9344 45.47C86.3984 28.0015 99.0729 19.6453 103.983 17.027C105.227 16.3627 106.675 16.1702 108.049 16.5019C112.166 17.4956 115.116 19.353 117.229 21.5383Z" fill="white"/>
<path d="M140.907 169C135.36 169 130.077 168.538 125.13 167.608C117.388 166.153 110.538 163.56 104.771 159.901C98.6487 156.016 93.727 150.915 90.1437 144.738C85.6917 137.063 84.5231 129.801 86.6716 123.155C88.5423 117.368 92.6304 113.178 95.7308 110.682C97.7556 109.052 99.6107 107.923 100.786 107.273C98.6691 105.066 97.6328 101.88 96.544 98.5337C95.2087 94.4299 93.828 90.1861 90.3535 87.2244C85.3261 82.9388 74.2507 86.0552 69.7219 87.5932C67.6759 88.2884 65.3888 87.7495 63.8954 86.2207C60.4969 82.7424 58.6786 78.8613 58.4915 74.684C58.3319 71.1168 59.4175 68.0701 60.356 66.1423C61.1786 64.4511 62.8004 63.3004 64.693 63.0638C69.52 62.4599 80.9641 59.5237 82.9655 45.3362C84.0542 37.6149 87.1968 30.7868 92.3064 25.0412C96.5526 20.2654 101.153 17.4367 103.518 16.1755C104.986 15.3929 106.677 15.1749 108.282 15.5623C113.457 16.8111 117.421 19.496 120.065 23.5418C122.273 26.9211 123.075 30.544 123.359 32.9883C123.577 34.8674 122.978 36.7465 121.714 38.143C112.904 47.8795 111.766 57.8194 118.511 66.1306C122.307 70.809 128.032 74.0599 132.165 75.963C135.943 77.7021 139.119 78.6649 140.083 78.9402C151.018 74.7141 158.702 67.9734 162.319 59.4317C165.079 52.9105 164.527 47.5625 164.52 47.5091C164.485 47.1913 164.611 46.8758 164.858 46.6678C165.104 46.4598 165.439 46.3855 165.751 46.4698C165.957 46.5255 170.877 47.8888 177.888 52.9229C181.978 55.8598 185.942 59.4502 189.67 63.5943C194.318 68.7621 198.612 74.8116 202.431 81.5755C208.032 91.4945 211.447 101.318 212.581 110.77C213.68 119.924 212.614 128.435 209.416 136.071C206.641 142.695 202.337 148.444 196.624 153.159C190.822 157.946 183.704 161.547 175.467 163.863C163.328 167.274 151.627 169 140.907 169L140.907 169ZM82.7995 83.1252C86.6121 83.1252 89.5755 84.0075 91.6325 85.7613C95.5233 89.078 97.0559 93.7873 98.4076 97.9429C99.5739 101.528 100.676 104.914 103.077 106.719C103.35 106.925 103.495 107.256 103.458 107.594C103.42 107.931 103.206 108.224 102.895 108.366C102.868 108.378 100.08 109.668 96.9205 112.219C94.0401 114.547 90.2463 118.438 88.5313 123.758C86.5636 129.863 87.6774 136.598 91.8422 143.778C98.5853 155.402 109.907 162.781 125.496 165.71C139.707 168.38 156.801 167.099 174.932 162.004C190.877 157.523 202.176 148.3 207.608 135.332C213.908 120.293 211.463 101.537 200.723 82.5182C192.272 67.5512 183.07 59.0535 176.839 54.5607C172.156 51.1838 168.405 49.5019 166.534 48.785C166.539 50.9278 166.231 55.1585 164.167 60.0789C162.458 64.1572 159.89 67.8636 156.535 71.0952C152.366 75.1116 146.966 78.3973 140.486 80.861C140.294 80.9337 140.083 80.9453 139.884 80.8935C139.729 80.8533 136.048 79.8805 131.376 77.7323C127.041 75.7395 121.025 72.3193 116.985 67.3401C115.135 65.0604 113.808 62.6168 113.039 60.0781C112.284 57.5835 112.063 54.9806 112.383 52.3422C112.696 49.7547 113.531 47.1186 114.865 44.5072C116.182 41.9267 117.997 39.3517 120.256 36.8548C121.148 35.8696 121.571 34.5403 121.416 33.2095C120.859 28.4112 118.352 19.9832 107.818 17.4414C106.685 17.1676 105.488 17.3231 104.449 17.8775C99.3657 20.5886 87.2861 28.7174 84.905 45.6037C83.9587 52.3112 80.9711 57.452 76.0244 60.8831C72.081 63.6182 67.8207 64.622 64.9411 64.9823C63.7099 65.1362 62.6564 65.8832 62.1218 66.9805C60.345 70.6304 58.3968 77.8088 65.3051 84.879C66.2733 85.8696 67.7581 86.2176 69.0879 85.766C71.775 84.8527 75.8459 83.6789 79.9778 83.2713C80.9648 83.1739 81.9072 83.1252 82.8011 83.1252H82.7995Z" fill="#15296F"/>
<path d="M118.657 35.9751C120.859 34.106 119.631 29.124 115.913 24.8475C112.195 20.5711 107.396 18.6196 105.193 20.4887C102.99 22.3578 104.219 27.3398 107.937 31.6163C111.655 35.8927 116.454 37.8443 118.657 35.9751Z" fill="#15296F"/>
<path d="M140.582 79.0991C142.446 80.0734 144.142 81.3431 145.634 82.8163C150.76 87.8852 151.429 94.2393 147.725 100.353C146.655 102.131 145.355 103.714 143.954 105.225C142.211 107.152 140.352 109.12 138.689 111.094C137.128 112.976 135.576 115.015 135.213 117.432C135.079 118.297 135.092 119.217 135.203 120.097L135.23 120.325L135.259 120.608C135.634 124.142 133.406 126.228 131.148 128.526C130.205 129.535 129.301 130.506 128.746 131.751C128.624 132.025 128.53 132.313 128.433 132.604C128.396 132.754 128.355 132.908 128.305 133.066C128.263 133.241 128.076 133.352 127.9 133.296C127.802 133.266 127.728 133.19 127.695 133.101C127.193 131.716 127.619 130.073 128.396 128.864C129.469 127.17 131.117 125.949 132.226 124.334C132.921 123.34 133.288 122.234 133.185 121.04C133.16 120.843 133.131 120.562 133.1 120.365C132.948 119.291 132.915 118.218 133.063 117.129C133.544 113.588 136.005 110.773 138.249 108.148C139.517 106.691 140.942 105.139 142.242 103.708C143.696 102.138 145.062 100.449 146.086 98.5851C147.449 96.1315 148.191 93.3399 147.626 90.5561C146.787 86.3927 143.433 83.0769 139.87 80.9232L139.772 80.8668L139.685 80.8181C138.561 80.1933 139.391 78.557 140.581 79.0998L140.582 79.0991Z" fill="#15296F"/>
<path d="M136.167 112.329C139.301 113.892 141.846 116.653 143.02 119.936C143.536 121.389 143.764 122.955 143.745 124.489C143.748 126.344 143.548 128.214 143.101 130.018C142.959 130.646 142.699 131.492 142.521 132.116C142.145 133.376 141.905 134.412 142.536 135.552C143.936 137.891 143.105 140.662 141.747 142.805C141.443 143.274 141.127 143.723 140.752 144.143C140.537 144.371 140.154 144.134 140.292 143.839C140.446 143.53 140.596 143.201 140.733 142.881C141.43 141.172 142.121 139.007 141.408 137.227C141.325 136.994 141.095 136.639 140.959 136.427C140.511 135.711 140.207 134.814 140.208 133.954C140.195 133.132 140.381 132.361 140.569 131.603C140.924 130.233 141.239 128.941 141.393 127.556C141.544 126.218 141.582 124.848 141.503 123.501C141.328 120.889 140.178 118.439 138.371 116.523C137.492 115.596 136.495 114.768 135.392 114.114L135.307 114.065L135.245 114.028C134.78 113.759 134.623 113.168 134.896 112.708C135.155 112.27 135.713 112.111 136.167 112.328L136.167 112.329Z" fill="#15296F"/>
<path d="M141.02 78.8418C141.858 79.1674 142.64 79.6136 143.393 80.093C144.651 80.8972 145.826 81.8375 146.917 82.8459C151.986 87.5723 155.474 93.7114 158.068 100.041C161.761 109.179 163.745 118.857 165.741 128.454C166.899 133.949 167.863 139.596 169.647 144.922C169.909 145.666 170.154 146.408 170.394 147.149C170.635 147.899 170.89 148.646 171.164 149.387C171.221 149.528 171.148 149.7 170.995 149.745C170.921 149.769 170.842 149.758 170.78 149.724C170.583 149.612 170.396 149.484 170.223 149.339C169.709 148.92 169.289 148.392 168.927 147.85C167.582 145.706 167.031 143.196 166.339 140.823C161.523 122.677 159.156 96.7295 144.589 83.5612C143.288 82.4361 141.908 81.3744 140.338 80.6544C139.138 80.1727 139.752 78.4312 141.02 78.8426V78.8418Z" fill="#15296F"/>
<path d="M167.802 141.336C165.472 143.029 163.347 145.212 162.357 147.938C162.283 148.149 162.222 148.363 162.155 148.575C162.117 148.731 162.06 148.962 162.02 149.117C161.987 149.298 161.954 149.484 161.916 149.667C161.887 149.889 161.858 150.113 161.832 150.336C161.826 150.448 161.811 150.676 161.803 150.789C161.775 151.245 161.792 151.71 161.819 152.17C161.853 152.737 161.948 153.295 162.024 153.858C162.049 154.069 161.898 154.261 161.685 154.287C161.523 154.306 161.373 154.225 161.298 154.094C160.907 153.421 160.591 152.679 160.395 151.912C159.113 146.966 162.582 142.038 166.81 139.67C167.933 139.117 168.834 140.631 167.803 141.335L167.802 141.336Z" fill="#15296F"/>
<path d="M161.33 110.302C161.596 111.147 161.925 111.972 162.286 112.783C163.382 115.233 164.819 117.547 166.634 119.541C169.134 122.315 172.515 124.342 176.245 124.956C177.235 125.138 178.323 125.195 179.327 125.285C181.924 125.559 184.533 126.073 186.856 127.318C188.172 127.983 189.252 128.982 190.395 129.776C190.732 129.995 191.052 130.15 191.394 130.244C192.128 130.442 192.994 130.384 193.761 130.295C194.685 130.202 195.599 130.024 196.529 129.959C196.739 129.947 196.919 130.104 196.932 130.312C196.94 130.444 196.876 130.565 196.776 130.639C196.375 130.927 195.956 131.18 195.513 131.397C193.507 132.399 191.294 132.711 189.316 131.447C188.466 130.916 187.79 130.318 186.989 129.804C185.9 129.081 184.705 128.571 183.432 128.213C182.037 127.81 180.561 127.597 179.115 127.459C178.895 127.444 178.314 127.401 178.088 127.385C172.999 127.17 168.288 124.784 164.97 121.006C162.408 118.109 160.561 114.665 159.487 110.985L159.435 110.789C159.3 110.273 159.613 109.745 160.136 109.612C160.659 109.476 161.191 109.79 161.328 110.301L161.33 110.302Z" fill="#15296F"/>
<path d="M187.739 129.819C185.901 130.591 183.417 131.552 182.263 133.184C181.498 134.281 181.737 135.54 182.258 136.703C182.331 136.858 182.259 137.043 182.1 137.11C181.98 137.16 181.845 137.129 181.76 137.041C181.58 136.858 181.407 136.665 181.254 136.451C180.755 135.785 180.429 134.973 180.409 134.134C180.373 130.847 184.265 128.646 187.099 127.981C188.351 127.645 188.933 129.34 187.739 129.819Z" fill="#15296F"/>
<path d="M152.623 89.8795C155.728 93.8039 160.785 98.3168 166.081 98.2998C166.997 98.2928 167.904 98.1165 168.81 97.9912C169.743 97.842 170.705 97.6765 171.628 97.4871C174.026 97.0246 176.387 96.372 178.82 96.0387C180.795 95.758 182.822 95.7046 184.812 95.7874C185.604 95.8222 186.851 95.8833 187.641 95.8423C189.426 95.7333 192.155 95.4147 192.812 93.5503L192.83 93.4899C192.837 93.4752 192.841 93.4435 192.848 93.4544C192.826 93.176 193.035 92.9324 193.317 92.9092C193.598 92.886 193.845 93.0932 193.868 93.3716C194.152 95.9598 191.441 97.2968 189.293 97.6247C187.564 97.9278 185.766 97.8026 184.039 97.774C183.346 97.774 182.602 97.7863 181.918 97.8227C178.815 97.9534 175.813 98.7723 172.787 99.445C171.109 99.8077 169.388 100.104 167.687 100.334C164.008 100.92 160.317 99.4481 157.391 97.3463C154.987 95.625 152.899 93.5147 151.143 91.16L151.025 90.9953C150.712 90.56 150.816 89.9568 151.256 89.6483C151.698 89.3366 152.312 89.4449 152.622 89.8802L152.623 89.8795Z" fill="#15296F"/>
<path d="M178.23 97.0277C178.995 98.6532 180.261 100.18 181.874 101.002C183.19 101.676 184.722 101.821 186.172 101.582C189.779 101.033 193.637 100.56 197.124 101.967C197.256 102.032 197.655 102.212 197.795 102.285C198.318 102.574 198.829 102.905 199.267 103.311L199.424 103.45C199.473 103.5 199.52 103.552 199.568 103.602C199.664 103.704 199.758 103.806 199.85 103.908C199.976 104.051 199.962 104.267 199.818 104.392C199.694 104.499 199.517 104.504 199.388 104.415C197.677 103.334 195.733 102.994 193.738 102.947C192.237 102.914 190.693 103.032 189.206 103.238C188.858 103.282 188.417 103.359 188.068 103.412C187.718 103.466 187.094 103.585 186.742 103.648C184.753 104.04 182.668 103.877 180.86 102.922C178.797 101.838 177.251 99.9407 176.431 97.8025C175.896 96.5467 177.676 95.7835 178.23 97.0269L178.23 97.0277Z" fill="#15296F"/>
<path d="M102.079 106.608C105.851 104.816 111.103 104.524 114.573 107.108C114.975 107.42 114.625 108.041 114.145 107.868C110.935 106.695 107.459 107.029 104.236 107.952C103.767 108.081 103.294 108.234 102.834 108.387C101.679 108.729 101.026 107.178 102.08 106.609L102.079 106.608Z" fill="#15296F"/>
<path d="M59.3909 96.3568C58.9033 98.1508 58.4054 100.035 58.8312 101.887C58.8915 102.166 58.987 102.446 59.0809 102.736C59.1443 102.931 59.0363 103.14 58.8391 103.203C58.7138 103.242 58.5816 103.212 58.4861 103.136C58.2841 102.979 58.0939 102.8 57.9272 102.605C56.7484 101.205 56.5715 99.2063 56.9253 97.4819C57.0662 96.8184 57.2752 96.1743 57.6016 95.575C58.0869 94.6973 59.4191 95.0561 59.4003 96.0428L59.3909 96.3568Z" fill="#15296F"/>
<path d="M72.0067 96.7436C72.3644 99.4594 70.7919 102.92 67.7699 103.246C67.3832 103.282 67.2024 102.785 67.517 102.568C69.3298 101.251 69.7979 99.3333 70.0131 97.24C70.0241 97.1449 70.0382 96.9524 70.0538 96.8627L70.2291 96.4799C70.626 95.6324 71.8838 95.8311 72.0075 96.7436H72.0067Z" fill="#15296F"/>
<path d="M83.039 102.596C82.3346 104.325 80.856 105.818 79.0801 106.482C78.2653 106.778 77.344 106.881 76.512 106.695C76.1472 106.616 76.112 106.11 76.4588 105.981C78.3834 105.328 79.6804 104.014 80.8169 102.411C80.9429 102.239 81.1425 101.941 81.2678 101.774L81.6247 101.517C82.3847 100.981 83.367 101.745 83.039 102.596Z" fill="#15296F"/>
<path d="M89.6866 109.465C88.6965 111.068 86.9902 112.35 85.2181 112.998C84.6209 113.223 83.9838 113.356 83.3482 113.403C83.14 113.418 82.9584 113.264 82.9427 113.058C82.9334 112.929 82.9905 112.811 83.0852 112.737C84.0276 112.036 84.9144 111.394 85.7715 110.619C86.5612 109.926 87.2946 109.165 88.0249 108.413C88.0758 108.352 88.2308 108.256 88.2902 108.21C89.1481 107.615 90.2016 108.579 89.6866 109.465Z" fill="#15296F"/>
<path opacity="0.25" d="M175.199 162.932C139.977 172.83 105.459 169.195 90.993 144.257C81.5691 128.012 89.3 117.328 95.8341 111.854C95.7088 112.026 78.7928 135.247 116.848 145.494C155.044 155.779 218.178 124.486 187.474 62.6494C192.074 67.5049 196.939 73.8327 201.576 82.0458C222.844 119.708 210.421 153.034 175.199 162.932Z" fill="#15296F"/>
<path opacity="0.25" d="M101.556 107.959C102.141 107.644 102.485 107.487 102.485 107.487C96.9275 103.311 98.0233 92.4852 90.993 86.4923C85.6337 81.9237 74.4292 84.972 69.4042 86.6786C67.7166 87.2524 65.8397 86.8178 64.5999 85.5496C58.9283 79.7453 58.9111 73.8529 60.0405 69.7305C60.0405 69.7305 61.2749 81.6205 74.3462 78.2954C87.4175 74.9703 97.3424 74.661 101.538 88.6575C105.733 102.654 111.056 106.181 111.056 106.181L101.556 107.959Z" fill="#15296F"/>
<path opacity="0.5" d="M105.061 52.9315C109.289 50.092 108.688 60.751 114.284 68.886C119.881 77.021 129.555 79.5504 125.327 82.3899C121.099 85.2294 113.134 80.9369 107.537 72.8019C101.941 64.6669 100.832 55.771 105.061 52.9315Z" fill="white"/>
<path d="M1345.38 1025.56L1349.42 1018.41C1349.63 1018.03 1350.15 1017.97 1350.44 1018.28C1350.76 1018.62 1350.63 1019.21 1350.29 1019.52C1348.8 1020.83 1347.27 1023.98 1346.81 1025.61C1346.69 1026.01 1346.17 1026.44 1345.76 1026.36C1345.39 1026.3 1345.2 1025.89 1345.38 1025.56Z" fill="#0A5290"/>
<path d="M1330.32 1015.75L1335 1008.09C1335.26 1007.67 1335.87 1007.64 1336.17 1008.04C1336.47 1008.44 1336.28 1009.06 1335.89 1009.38C1334.24 1010.7 1332.46 1014.1 1331.87 1015.89C1331.72 1016.34 1331.1 1016.76 1330.66 1016.63C1330.28 1016.51 1330.12 1016.08 1330.32 1015.75Z" fill="#0A5290"/>
<path d="M1307.47 1032.04L1313.59 1023.31C1313.96 1022.77 1314.78 1022.84 1315.06 1023.44C1315.3 1023.97 1314.96 1024.65 1314.48 1024.98C1312.52 1026.32 1310.12 1030.24 1309.23 1032.41C1309.01 1032.93 1308.17 1033.31 1307.69 1033.03C1307.34 1032.82 1307.24 1032.37 1307.47 1032.04Z" fill="#0A5290"/>
</svg>
