<svg width="150" height="129" viewBox="0 0 150 129" fill="none" xmlns="http://www.w3.org/2000/svg">
<path d="M115.594 53.8555L110.406 59.2841L105.683 64.227C104.817 64.1308 103.925 64.0122 103.004 63.8693C101.236 63.5949 99.5765 63.2714 98.0215 62.9019C74.7265 57.3705 74.7885 41.6051 79.4955 28.6193C79.8807 27.5567 80.2969 26.5126 80.7342 25.4944L84.8751 25.77L85.2356 25.7942C85.3279 25.7653 85.4202 25.7376 85.5117 25.7098C97.3025 22.1411 106.019 26.4831 111.163 30.6114C111.748 31.0807 112.286 31.5475 112.778 31.9991C113.183 32.3716 113.556 32.734 113.897 33.0793L113.898 33.0799C115.644 34.8495 116.545 36.1829 116.545 36.1829C120.733 44.8008 115.594 53.8555 115.594 53.8555Z" fill="#BF1031"/>
<path opacity="0.5" d="M113.3 33.0793C99.0053 23.5117 84.8751 28.6193 84.8751 28.6193V25.77L85.2356 25.7942C85.3279 25.7653 85.4201 25.7376 85.5117 25.7098C97.3025 22.1411 106.019 26.4831 111.163 30.6114C111.748 31.0807 112.286 31.5475 112.778 31.9991L113.3 33.0793Z" fill="white"/>
<path opacity="0.25" d="M115.594 53.8554L110.406 59.284L98.0215 62.9018C74.7265 57.3704 74.7885 41.605 79.4955 28.6191L83.9955 28.9521C83.9955 28.9521 78.4216 52.1737 98.6025 52.4446C113.029 52.6383 115.582 38.0906 111.163 30.6113C114.697 33.4475 116.545 36.1828 116.545 36.1828C120.733 44.8007 115.594 53.8554 115.594 53.8554Z" fill="#15296F"/>
<path d="M43.6198 88.834C43.6198 88.834 30.6664 94.1467 24.0796 75.859C18.3889 60.0593 25.3495 51.5932 27.3487 49.5828C27.6635 49.2658 27.8553 49.1094 27.8553 49.1094C33.5382 49.5774 41.4469 80.0673 43.2455 87.3051C43.4886 88.2814 43.6198 88.834 43.6198 88.834Z" fill="#EA1938"/>
<path opacity="0.25" d="M43.6198 88.834C43.6198 88.834 30.6664 94.1467 24.0796 75.859C18.3889 60.0593 25.3495 51.5932 27.3487 49.5828C27.6635 49.2658 27.8553 49.1094 27.8553 49.1094C33.5382 49.5774 41.4469 80.0673 43.2455 87.3051C43.4886 88.2814 43.6198 88.834 43.6198 88.834Z" fill="#15296F"/>
<path d="M39.3408 90.2902C38.3779 90.2902 37.3068 90.1917 36.1719 89.9245C33.6953 89.3398 31.4337 88.0697 29.4493 86.1476C27.0015 83.776 24.9785 80.4044 23.4368 76.1241C21.9022 71.8642 21.1504 67.7695 21.2017 63.9534C21.243 60.8793 21.8024 57.9793 22.8641 55.3343C24.682 50.807 27.3255 48.6136 27.4374 48.5221C27.5719 48.4123 27.7396 48.3592 27.9082 48.3733C28.8833 48.4536 29.8667 49.1484 30.9139 50.4966C31.7733 51.6027 32.6949 53.187 33.6534 55.2056C35.2431 58.5536 36.9778 63.1725 38.8083 68.9329C41.916 78.7121 44.2642 88.5536 44.2878 88.6521C44.3738 89.0147 44.1931 89.3895 43.8667 89.523C43.7642 89.565 41.9529 90.2909 39.3408 90.2909V90.2902ZM28.0526 49.8951C27.405 50.5077 25.4746 52.5282 24.0999 55.9943C21.8929 61.5569 22.1084 68.3344 24.7228 75.5928C27.3664 82.9318 31.3179 87.269 36.4684 88.4834C39.3028 89.1513 41.7203 88.6467 42.7881 88.3376C42.2043 85.953 40.1246 77.6527 37.5014 69.4004C32.3548 53.2082 29.3143 50.2912 28.0526 49.8951Z" fill="#15296F"/>
<path d="M105.683 64.2259L73.0434 98.381C73.0434 98.381 70.9969 97.507 67.7814 95.9582C60.1433 92.2821 45.9057 84.8053 36.8041 76.2195C23.8701 64.0187 28.5719 51.0565 28.5719 51.0565C21.1344 49.3329 12.9077 53.7475 9.76797 55.6859C8.90755 56.2172 7.81234 55.9994 7.18889 55.1724C6.23861 53.9122 5.66977 52.5504 5.34841 51.5665C5.05682 50.6752 5.33463 49.6847 6.03907 49.1163C8.53107 47.1041 13.083 45.508 13.083 45.508C9.79607 44.2738 4.2278 41.1277 1.88297 39.7712C1.14105 39.3421 0.684648 38.5087 0.689058 37.6055C0.697325 35.8447 1.18735 34.6082 1.87581 33.7405C2.59733 32.8302 3.5377 32.3256 4.37057 32.0452C5.15218 31.782 5.83953 31.7165 6.16254 31.7005C6.27609 31.6952 6.38964 31.6988 6.50208 31.7123C13.8326 32.5995 28.8475 42.9109 28.8475 42.9109C29.1011 42.0231 29.6528 41.094 30.2089 40.3131C30.9845 39.2252 31.7689 38.4248 31.7689 38.4248C29.801 36.7007 23.6975 28.7215 21.4641 25.7719C21.038 25.2093 20.8671 24.4827 20.9818 23.7886C21.0132 23.5968 21.0666 23.4079 21.1421 23.2249C23.2582 18.1202 27.3278 17.566 29.2399 17.6097C29.8859 17.6245 30.4967 17.929 30.9217 18.4508C34.3618 22.6706 38.9897 31.6958 38.9897 31.6958C39.1132 31.5347 39.2465 31.3806 39.3877 31.2336C40.9509 29.6074 43.4544 28.8625 43.4544 28.8625C43.2748 28.5007 43.1039 28.1413 42.9418 27.7847C36.6972 14.0799 42.8708 4.59612 45.2205 1.69851C45.731 1.06929 46.4773 0.719261 47.2551 0.736969C53.24 0.87155 55.2018 5.26902 55.8357 7.80421C56.0043 8.47654 55.9338 9.18483 55.6493 9.79045C55.5358 10.0325 55.3881 10.2585 55.2079 10.4592C50.3748 15.8324 53.8706 24.3866 53.8706 24.3866C58.4986 21.0911 64.1137 24.3866 64.1137 24.3866L80.7342 25.4933C74.5983 39.7865 72.5716 59.1508 103.004 63.8682C103.925 64.0111 104.817 64.1297 105.683 64.2259Z" fill="#3E8AD5"/>
<path opacity="0.5" d="M55.6493 9.78984C55.565 9.62046 55.4779 9.4168 55.3881 9.17659C53.6126 4.42317 49.5674 3.55843 47.7787 3.41382C47.2303 3.36955 46.69 3.58972 46.3153 4.0212C38.9979 12.4395 43.9478 28.7327 43.9478 28.7327L42.9418 27.7847C36.6972 14.0799 42.8708 4.59612 45.2205 1.69851C45.731 1.06929 46.4773 0.719261 47.255 0.736969C53.24 0.87155 55.2018 5.26902 55.8357 7.80421C56.0043 8.47655 55.9338 9.18422 55.6493 9.78984Z" fill="white"/>
<path opacity="0.5" d="M39.3876 31.2345C39.3479 32.0384 39.1043 32.4428 38.5762 32.2574C35.3793 31.136 32.8437 21.5736 29.2609 19.98C25.678 18.3862 21.4751 24.3875 21.4751 24.3875L20.9818 23.7895C21.0132 23.5977 21.0666 23.4088 21.1422 23.2258C23.2582 18.1212 27.3278 17.5669 29.2399 17.6106C29.886 17.6254 30.4967 17.9299 30.9217 18.4517C34.3617 22.6715 38.9897 31.6967 38.9897 31.6967C39.1131 31.5356 39.2465 31.3815 39.3876 31.2345Z" fill="white"/>
<path opacity="0.5" d="M30.4735 40.5213L29.2857 43.1775C28.9153 44.0057 27.9683 44.3262 27.2203 43.8781C11.6266 34.533 4.21127 33.0792 4.21127 33.0792C4.21127 33.0792 4.27741 32.6625 4.37057 32.0463C5.15218 31.783 5.83954 31.7175 6.16255 31.7016C6.27609 31.6962 6.38964 31.6998 6.50209 31.7133C13.8326 32.6006 28.8475 42.9119 28.8475 42.9119C29.1011 42.0241 29.6528 41.0951 30.2089 40.3141L30.4735 40.5213Z" fill="white"/>
<path opacity="0.25" d="M67.7814 95.9585C60.1433 92.2823 45.9057 84.8064 36.8041 76.2202C23.8701 64.0194 28.5719 51.0572 28.5719 51.0572C21.1344 49.3336 12.9077 53.7483 9.76797 55.6866C8.90755 56.2179 7.81234 56.0001 7.18889 55.1732C6.23861 53.9129 5.66977 52.5512 5.34841 51.5672C5.05682 50.6759 5.33463 49.6854 6.03907 49.117C8.53107 47.1048 13.083 45.5087 13.083 45.5087C9.79607 44.2745 4.2278 41.1284 1.88297 39.7719C1.14105 39.3428 0.684648 38.5094 0.689058 37.6063C0.697325 35.8455 1.18735 34.6089 1.87581 33.7412C1.87581 33.7412 3.68487 37.2745 11.4018 39.7536C19.1187 42.2328 21.5439 46.8959 28.2687 47.4271C34.9934 47.9583 30.5132 63.7892 47.6359 62.5142C64.7586 61.2393 69.7635 62.7444 74.4821 79.5814C77.0575 88.7733 72.4744 93.5319 67.7814 95.9585Z" fill="#15296F"/>
<path d="M73.0434 99.1207C72.9575 99.1207 72.8709 99.1032 72.7878 99.0681C72.7293 99.0429 66.8487 96.5201 59.4642 92.5363C55.1252 90.1952 51.1201 87.8137 47.5609 85.4589C43.1 82.5071 39.3281 79.5851 36.3488 76.7746C33.3321 73.9292 31.0098 70.8002 29.4461 67.4741C28.1888 64.7995 27.4171 61.9947 27.1525 59.1372C26.8273 55.6263 27.3448 52.9228 27.6811 51.6284C20.694 50.4077 13.1182 54.4717 10.113 56.3275C8.95112 57.0453 7.49591 56.7555 6.65366 55.6381C5.62676 54.2757 5.02374 52.806 4.69907 51.8126C4.30662 50.6126 4.67868 49.2933 5.62566 48.5289C7.21035 47.2492 9.54422 46.1514 11.1327 45.4861C7.8145 43.9904 3.48146 41.5355 1.5572 40.4222C0.590932 39.8638 -0.00547419 38.7836 3.78799e-05 37.6037C0.0149205 34.4417 1.47948 32.8326 2.70591 32.0393C4.07401 31.1545 5.55731 30.9933 6.13112 30.9656C6.28325 30.9579 6.43428 30.9632 6.5798 30.9809C9.70732 31.3593 14.4753 33.3833 20.7502 36.9963C24.214 38.9908 27.2054 40.944 28.515 41.817C29.1231 40.4636 30.1527 39.1732 30.7745 38.4601C28.3993 36.0236 23.1937 29.229 20.9293 26.2381C20.2167 25.2967 20.0568 24.0276 20.5132 22.9274C21.5037 20.5379 23.0041 18.8203 24.9736 17.8215C26.6046 16.9946 28.202 16.8494 29.2553 16.8736C30.0937 16.8925 30.8907 17.2915 31.442 17.9668C34.2995 21.4717 37.8872 28.0945 39.1424 30.4745C40.2338 29.4433 41.6183 28.781 42.4755 28.4381C41.0121 25.3061 40.086 22.17 39.7217 19.1048C39.3888 16.3052 39.5188 13.535 40.1086 10.8706C41.1652 6.09593 43.4395 2.77274 44.7013 1.2168C45.3451 0.421712 46.2816 -0.0221674 47.2699 0.000853001C50.0816 0.0640114 52.3603 1.02437 54.0431 2.85419C55.4823 4.41899 56.1747 6.30666 56.5015 7.61469C56.7997 8.80703 56.4943 10.0938 55.7039 10.9727C53.854 13.0292 53.0819 15.8389 53.4081 19.3243C53.5658 21.0101 53.9566 22.4593 54.2256 23.3039C56.1333 22.222 58.4076 21.9192 60.8583 22.428C62.5791 22.7857 63.8805 23.4344 64.3011 23.6616L85.1589 25.0505C89.7948 23.6227 94.3511 23.2862 98.7039 24.0506C102.217 24.668 105.603 25.9996 108.765 28.0083C114.145 31.4265 116.984 35.5762 117.103 35.7508C117.122 35.7798 117.14 35.8104 117.155 35.843C118.156 37.9024 118.726 40.1554 118.85 42.5395C118.95 44.4354 118.767 46.4158 118.309 48.4262C117.531 51.8385 116.237 54.1429 116.182 54.2392C116.152 54.2917 116.116 54.3407 116.075 54.3837L73.5237 98.9101C73.3927 99.0482 73.2187 99.1207 73.042 99.1207H73.0434ZM25.0193 49.9302C26.2551 49.9302 27.4953 50.0541 28.7174 50.3375C28.9141 50.383 29.0828 50.5187 29.1781 50.7088C29.2736 50.8988 29.2867 51.1243 29.2134 51.3256C29.2024 51.3557 28.0923 54.5148 28.53 59.0693C28.9329 63.2655 30.7745 69.5512 37.2588 75.6681C43.8855 81.9193 53.3282 87.5748 60.0833 91.2196C66.2965 94.5714 71.4279 96.8773 72.8842 97.5178L115.045 53.3986C115.267 52.9854 116.331 50.9059 116.981 48.0325C117.933 43.8162 117.588 39.9624 115.958 36.5767C115.653 36.1428 112.889 32.3315 108.014 29.2473C101.138 24.8976 93.5384 23.9745 85.4286 26.5037C85.3518 26.5274 85.2722 26.5374 85.1927 26.5315L64.0707 25.1249C63.9698 25.1184 63.8711 25.0877 63.7824 25.0358C63.7697 25.0287 62.4192 24.249 60.5568 23.8694C58.1265 23.3736 56.0049 23.7549 54.2515 25.0033C54.0817 25.1237 53.8711 25.1585 53.676 25.0966C53.4809 25.0352 53.3205 24.8841 53.2389 24.6846C53.2014 24.5931 52.319 22.4073 52.0411 19.5156C51.6669 15.6158 52.5902 12.3079 54.7112 9.94979C55.1681 9.44158 55.344 8.69307 55.1704 7.99715C54.5745 5.61545 52.7516 1.60106 47.2407 1.4771C46.6636 1.46412 46.1162 1.72207 45.7409 2.18484C43.5961 4.82982 37.136 14.545 44.063 28.5189C44.1611 28.7167 44.1699 28.951 44.0872 29.1564C44.0045 29.3618 43.8397 29.5159 43.6386 29.5761C43.6115 29.5843 40.8517 30.4267 39.5227 32.1656C39.3777 32.355 39.1545 32.4554 38.9263 32.433C38.6981 32.4105 38.4958 32.2683 38.3855 32.0535C38.3398 31.9637 33.7532 23.049 30.4024 18.9383C30.1059 18.5748 29.6765 18.3599 29.2245 18.3498C27.2605 18.305 23.6821 18.9176 21.771 23.527C21.5263 24.1179 21.6134 24.8009 21.9982 25.3097C23.8998 27.8218 30.2569 36.1499 32.2043 37.8564C32.357 37.9903 32.4491 38.188 32.4567 38.3994C32.4645 38.6107 32.3867 38.8156 32.2434 38.9613C32.2219 38.9832 30.0513 41.2167 29.5056 43.1286C29.4428 43.3494 29.2867 43.5258 29.0845 43.6055C28.8822 43.6852 28.6567 43.6587 28.4748 43.5341C28.326 43.432 13.5113 33.3054 6.42435 32.4472C6.35104 32.4383 6.27333 32.436 6.1934 32.4395C5.06894 32.4943 1.39845 33.0304 1.37751 37.6113C1.37475 38.2459 1.69389 38.8255 2.21038 39.1242C4.46371 40.4275 10.0557 43.5919 13.3106 44.8138C13.5889 44.9183 13.7747 45.2016 13.7714 45.5174C13.7681 45.8332 13.5774 46.1123 13.2968 46.211C13.2522 46.2263 8.82323 47.7935 6.45302 49.7071C5.98725 50.0831 5.80425 50.7329 5.99772 51.3244C6.28655 52.2081 6.82067 53.5125 7.72408 54.7108C8.13753 55.2591 8.85189 55.4014 9.42295 55.049C12.1547 53.362 18.5146 49.9302 25.0182 49.9302H25.0193Z" fill="#15296F"/>
<path d="M68.5895 114.865C43.7852 117.58 33.3674 88.2443 34.0564 79.5081C34.0663 79.3852 34.0779 79.2646 34.0917 79.1455C34.1671 78.5036 34.3055 77.9166 34.4995 77.383C34.5585 77.2205 34.623 77.0624 34.6924 76.909C37.0957 71.595 45.5071 72.0454 51.975 74.3155C52.6502 74.5522 53.304 74.809 53.9273 75.0811C54.7156 75.4247 55.4658 75.8355 56.178 76.2941C62.1916 80.1707 65.4724 87.5146 65.4724 87.5146C61.1983 100.596 68.5895 114.865 68.5895 114.865Z" fill="#BF1031"/>
<path opacity="0.5" d="M57.1189 77.9983C41.9827 70.9103 34.7267 77.5441 34.7267 77.5441L34.4996 77.383C34.5585 77.2205 34.623 77.0624 34.6924 76.909C37.0958 71.595 45.5072 72.0454 51.975 74.3155C52.6502 74.5522 53.304 74.809 53.9274 75.0811C54.7156 75.4247 55.4658 75.8355 56.178 76.2941L57.1189 77.9983Z" fill="white"/>
<path opacity="0.5" d="M51.7429 31.8616C53.5085 34.0627 48.3095 35.7202 43.6755 39.9825C39.0415 44.2448 36.727 49.4988 34.9615 47.2976C33.196 45.0965 35.5215 39.8573 40.156 35.5944C44.7901 31.3321 49.9774 29.6605 51.7429 31.8616Z" fill="white"/>
<path opacity="0.25" d="M68.5895 114.865C43.7852 117.58 33.3674 88.2441 34.0564 79.5079C34.0663 79.385 34.0779 79.2644 34.0917 79.1453L34.6924 76.9088C34.6924 76.9088 35.269 96.891 48.2775 99.6069C61.286 102.322 65.0304 84.1626 53.8706 75.8589C53.0647 75.2593 52.4397 74.7481 51.975 74.3154C52.6502 74.5521 53.304 74.8088 53.9273 75.081C61.3687 78.3278 65.4724 87.5144 65.4724 87.5144C61.1983 100.596 68.5895 114.865 68.5895 114.865Z" fill="#15296F"/>
<path d="M65.36 115.78C61.7573 115.78 58.3112 115.1 55.0783 113.748C51.4034 112.212 47.9958 109.807 44.9488 106.601C40.1759 101.579 37.352 95.7654 35.823 91.7725C34.0426 87.1216 33.0813 82.399 33.3139 79.4472C33.5173 76.8657 34.6125 74.9051 36.5682 73.6219C38.579 72.302 41.4943 71.7584 44.9979 72.0506C47.9865 72.299 51.2303 73.1337 54.1319 74.3992C58.1176 76.1381 61.1432 79.5274 62.9799 82.0646C64.9587 84.7981 65.9961 87.1002 66.039 87.1972C66.1178 87.3735 66.1278 87.575 66.0677 87.759C63.9219 94.3258 64.8622 101.232 66.0286 105.867C67.303 110.932 69.1186 114.474 69.1369 114.509C69.2488 114.726 69.2521 114.989 69.1445 115.209C69.0371 115.428 68.8343 115.576 68.6038 115.601C67.5097 115.721 66.4276 115.78 65.3594 115.78L65.36 115.78ZM43.1931 73.4483C40.7491 73.4483 38.7289 73.9347 37.2892 74.8797C35.7282 75.9044 34.8529 77.4824 34.6881 79.5709C34.5194 81.7135 35.0634 85.8965 37.0991 91.2122C38.5785 95.0777 41.3091 100.702 45.9156 105.548C51.9817 111.931 59.225 114.846 67.4557 114.225C66.8097 112.802 65.6345 109.956 64.7084 106.289C63.9318 103.213 63.4958 100.199 63.4131 97.3302C63.3122 93.8419 63.7356 90.5604 64.6721 87.5704C64.3469 86.8995 63.39 85.0339 61.8714 82.9402C60.1417 80.5563 57.3046 77.3756 53.6126 75.7651C50.8798 74.5727 47.701 73.7547 44.892 73.5209C44.306 73.4719 43.7389 73.4483 43.1931 73.4483Z" fill="#15296F"/>
<path d="M123.379 124.369C98.5751 131.924 74.2666 129.149 64.0795 110.114C57.443 97.7128 62.8872 89.5583 67.4887 85.3799C69.1385 83.8815 70.68 82.8945 71.518 82.4067C71.93 82.1663 72.1723 82.0465 72.1723 82.0465C68.2587 78.8588 69.0304 70.5951 64.0795 66.0206C60.3054 62.5333 52.4149 64.8602 48.8761 66.1629C47.6877 66.6008 46.3659 66.2691 45.4928 65.3011C41.6123 60.9962 41.4905 56.6283 42.217 53.4976C42.2374 53.406 42.2594 53.3151 42.282 53.226C42.5196 52.2863 42.8288 51.4677 43.1254 50.8065C43.6027 49.7441 44.5524 49.0169 45.645 48.8687C49.1611 48.3923 57.6309 46.0643 59.1087 34.7071C60.8439 21.373 69.7696 14.9945 73.2272 12.9959C74.1032 12.4888 75.1237 12.3419 76.0906 12.5951C78.9899 13.3536 81.068 14.7714 82.5553 16.4395C85.142 19.3395 85.9448 22.9968 86.1877 25.264C86.3187 26.4828 85.9638 27.7077 85.2004 28.6226C78.9744 36.0806 77.8554 44.1725 82.9208 50.9394C88.2673 58.0815 98.6856 61.0329 98.6856 61.0329C118.308 52.9462 116.545 36.1827 116.545 36.1827C116.545 36.1827 123.669 38.2664 132.023 47.8204H132.024C135.264 51.5273 138.689 56.3574 141.955 62.6266C156.933 91.375 148.183 116.813 123.379 124.369Z" fill="#EA1938"/>
<path opacity="0.5" d="M82.5554 16.4395C82.1575 16.2312 81.6159 16.0364 81.1293 15.553C74.1842 8.64682 61.8091 25.5361 61.5064 32.0213C61.0104 42.6461 55.5534 48.8439 50.0248 49.5593C42.8735 50.4854 42.7654 53.684 42.7654 53.684L42.2169 53.4975C42.2374 53.406 42.2594 53.3151 42.282 53.226C42.5196 52.2863 42.8289 51.4677 43.1254 50.8065C43.6027 49.7441 44.5524 49.0169 45.645 48.8687C49.1611 48.3923 57.6309 46.0643 59.1087 34.7071C60.8439 21.373 69.7696 14.9945 73.2272 12.9959C74.1033 12.4888 75.1237 12.3419 76.0906 12.5951C78.9899 13.3536 81.068 14.7714 82.5554 16.4395Z" fill="white"/>
<path d="M99.23 129C95.3236 129 91.6032 128.648 88.1194 127.938C82.6673 126.827 77.8434 124.848 73.7821 122.055C69.4708 119.089 66.0049 115.196 63.4814 110.481C60.3462 104.622 59.5233 99.0788 61.0363 94.0058C62.3537 89.5885 65.2326 86.3902 67.416 84.4849C68.8419 83.2407 70.1483 82.3789 70.9758 81.8835C69.4852 80.1989 68.7554 77.7662 67.9887 75.212C67.0483 72.0795 66.076 68.8401 63.6292 66.5794C60.0887 63.3081 52.2892 65.6869 49.0999 66.8609C47.659 67.3915 46.0484 66.9801 44.9967 65.8132C42.6034 63.1582 41.3229 60.1956 41.1912 57.007C41.0788 54.2841 41.8433 51.9584 42.5042 50.4869C43.0835 49.1961 44.2256 48.3177 45.5584 48.1371C48.9577 47.6761 57.0169 45.4349 58.4264 34.6053C59.193 28.7115 61.4061 23.4995 65.0044 19.1137C67.9947 15.4683 71.2349 13.3091 72.8997 12.3464C73.9335 11.749 75.1244 11.5826 76.2546 11.8783C79.899 12.8315 82.6913 14.881 84.5525 17.9692C86.1082 20.5487 86.6722 23.3141 86.8722 25.1799C87.0265 26.6143 86.6039 28.0486 85.7138 29.1146C79.5096 36.5466 78.7089 44.1339 83.4582 50.4781C86.1314 54.0492 90.1631 56.5306 93.0743 57.9833C95.7342 59.3108 97.9708 60.0457 98.6504 60.2559C106.35 57.03 111.762 51.8847 114.309 45.3647C116.253 40.3869 115.864 36.3047 115.86 36.2639C115.834 36.0213 115.924 35.7805 116.097 35.6217C116.271 35.4629 116.506 35.4062 116.726 35.4706C116.871 35.5131 120.336 36.5537 125.273 40.3964C128.153 42.6382 130.945 45.3788 133.57 48.5421C136.844 52.4867 139.867 57.1044 142.557 62.2675C146.502 69.8388 148.907 77.3372 149.705 84.5521C150.479 91.5395 149.729 98.0361 147.476 103.865C145.522 108.921 142.491 113.309 138.468 116.908C134.381 120.562 129.369 123.311 123.569 125.079C115.019 127.683 106.779 129 99.23 129ZM58.3095 63.4504C60.9944 63.4504 63.0813 64.1238 64.5299 65.4626C67.2699 67.9943 68.3492 71.589 69.3011 74.761C70.1224 77.4975 70.8983 80.0821 72.5899 81.4599C72.7821 81.6171 72.8842 81.8698 72.8575 82.1278C72.8307 82.385 72.6807 82.6087 72.461 82.7171C72.442 82.727 70.4786 83.7109 68.2538 85.6581C66.2254 87.4352 63.5537 90.4052 62.3459 94.4661C60.9602 99.1261 61.7446 104.267 64.6775 109.748C69.4262 118.621 77.3997 124.253 88.3772 126.489C98.3849 128.527 110.424 127.549 123.191 123.66C134.42 120.24 142.377 113.199 146.202 103.301C150.639 91.8212 148.917 77.5044 141.355 62.987C135.402 51.5624 128.922 45.076 124.534 41.6465C121.236 39.0689 118.595 37.7851 117.277 37.2378C117.281 38.8735 117.064 42.1028 115.611 45.8587C114.407 48.9717 112.598 51.8009 110.236 54.2676C107.3 57.3334 103.497 59.8415 98.9335 61.7221C98.7983 61.7776 98.6504 61.7864 98.5096 61.7469C98.4011 61.7162 95.8082 60.9736 92.518 59.3339C89.4652 57.8127 85.2286 55.202 82.3842 51.4013C81.0807 49.6612 80.1462 47.7959 79.6046 45.8581C79.073 43.9539 78.9173 41.9671 79.1427 39.953C79.3631 37.978 79.9518 35.9658 80.8906 33.9725C81.8187 32.0028 83.0962 30.0372 84.6877 28.1312C85.3152 27.3793 85.6131 26.3646 85.5046 25.3488C85.1117 21.6861 83.3462 15.2529 75.9286 13.3127C75.13 13.1037 74.287 13.2223 73.5554 13.6455C69.9758 15.715 61.469 21.9198 59.7922 34.8095C59.1258 39.9294 57.0218 43.8535 53.5382 46.4725C50.7612 48.5603 47.761 49.3265 45.7331 49.6015C44.8661 49.719 44.1242 50.2892 43.7477 51.1268C42.4964 53.9128 41.1245 59.3923 45.9895 64.7891C46.6713 65.5452 47.7169 65.8109 48.6534 65.4661C50.5457 64.769 53.4126 63.873 56.3223 63.5619C57.0174 63.4875 57.6811 63.4504 58.3106 63.4504H58.3095Z" fill="#15296F"/>
<path d="M83.561 27.4602C85.1124 26.0335 84.2469 22.2307 81.6286 18.9663C79.011 15.7021 75.6307 14.2125 74.0793 15.6392C72.5286 17.0659 73.3934 20.8688 76.0117 24.1331C78.63 27.3973 82.0096 28.887 83.561 27.4602Z" fill="#15296F"/>
<path d="M99.0011 60.3772C100.315 61.121 101.508 62.0902 102.559 63.2146C106.169 67.0838 106.64 71.934 104.031 76.6007C103.278 77.9579 102.362 79.1662 101.376 80.3196C100.149 81.7905 98.8392 83.2928 97.6687 84.7995C96.5687 86.2361 95.4758 87.7925 95.2208 89.6382C95.1258 90.2977 95.1349 91 95.2131 91.6717L95.2328 91.8457L95.2532 92.0618C95.5166 94.7593 93.9476 96.3516 92.3575 98.1057C91.6941 98.8759 91.0568 99.6171 90.6666 100.567C90.5807 100.777 90.5138 100.996 90.4462 101.219C90.4194 101.333 90.3906 101.451 90.3554 101.571C90.3258 101.705 90.1948 101.79 90.0709 101.747C90.0011 101.724 89.949 101.666 89.9265 101.598C89.5723 100.541 89.8723 99.2866 90.4194 98.3637C91.1751 97.0707 92.3363 96.1387 93.1166 94.9059C93.6061 94.1472 93.8645 93.3029 93.7927 92.3915C93.7744 92.2411 93.7547 92.0266 93.7321 91.8763C93.6251 91.0572 93.6018 90.2374 93.7061 89.4062C94.0455 86.7033 95.7786 84.5545 97.3589 82.5508C98.2518 81.4386 99.2546 80.254 100.17 79.1617C101.195 77.9633 102.156 76.674 102.877 75.2513C103.837 73.3785 104.36 71.2476 103.962 69.1226C103.372 65.9446 101.01 63.4136 98.4997 61.7697L98.4307 61.7266L98.3694 61.6894C97.5779 61.2124 98.1624 59.9635 99.0004 60.3778L99.0011 60.3772Z" fill="#15296F"/>
<path d="M95.892 85.7433C98.0997 86.9364 99.8913 89.0439 100.718 91.5499C101.081 92.659 101.243 93.8543 101.229 95.0253C101.231 96.4412 101.09 97.8686 100.776 99.2456C100.675 99.725 100.492 100.371 100.367 100.847C100.102 101.809 99.9335 102.6 100.377 103.47C101.363 105.255 100.778 107.37 99.8222 109.006C99.6075 109.364 99.3849 109.707 99.1215 110.028C98.9701 110.202 98.6997 110.021 98.7976 109.795C98.9061 109.56 99.011 109.309 99.1075 109.064C99.599 107.76 100.086 106.107 99.5828 104.748C99.5251 104.571 99.3624 104.3 99.2666 104.138C98.9511 103.591 98.737 102.907 98.7384 102.25C98.7286 101.623 98.8603 101.034 98.9927 100.456C99.242 99.4098 99.4638 98.4236 99.5722 97.3664C99.6786 96.345 99.7053 95.2993 99.6497 94.2711C99.5265 92.2773 98.7166 90.4072 97.4441 88.9447C96.8258 88.2371 96.123 87.6058 95.3462 87.1058L95.2863 87.0684L95.2434 87.0409C94.9152 86.8348 94.8046 86.3837 94.9976 86.0326C95.18 85.6983 95.573 85.5769 95.8927 85.7425L95.892 85.7433Z" fill="#15296F"/>
<path d="M99.3096 60.1808C99.9004 60.4293 100.45 60.7699 100.981 61.1358C101.867 61.7498 102.694 62.4675 103.462 63.2372C107.032 66.8449 109.488 71.531 111.315 76.3624C113.917 83.3377 115.313 90.7251 116.719 98.0506C117.534 102.245 118.213 106.556 119.469 110.621C119.655 111.189 119.826 111.755 119.995 112.321C120.165 112.893 120.345 113.464 120.538 114.029C120.579 114.137 120.526 114.269 120.419 114.302C120.367 114.321 120.312 114.313 120.267 114.286C120.129 114.201 119.998 114.103 119.876 113.993C119.513 113.673 119.218 113.27 118.962 112.856C118.015 111.22 117.627 109.303 117.141 107.492C113.749 93.6409 112.081 73.8348 101.823 63.7832C100.907 62.9244 99.9349 62.1139 98.83 61.5644C97.9842 61.1967 98.4166 59.8668 99.3096 60.1808Z" fill="#15296F"/>
<path d="M118.17 107.884C116.53 109.176 115.033 110.843 114.336 112.923C114.284 113.085 114.241 113.248 114.193 113.41C114.167 113.529 114.127 113.705 114.098 113.823C114.075 113.962 114.052 114.104 114.026 114.243C114.005 114.413 113.984 114.584 113.966 114.754C113.962 114.839 113.952 115.014 113.945 115.1C113.926 115.448 113.938 115.803 113.957 116.155C113.981 116.587 114.048 117.013 114.101 117.442C114.119 117.603 114.012 117.75 113.862 117.77C113.749 117.784 113.643 117.722 113.59 117.622C113.314 117.109 113.092 116.542 112.954 115.957C112.051 112.182 114.495 108.42 117.472 106.612C118.262 106.19 118.897 107.346 118.171 107.883L118.17 107.884Z" fill="#15296F"/>
<path d="M113.612 84.1945C113.8 84.8395 114.031 85.47 114.286 86.0883C115.058 87.9584 116.069 89.7247 117.348 91.2468C119.109 93.3642 121.489 94.9115 124.116 95.3802C124.813 95.5191 125.579 95.5626 126.286 95.6313C128.115 95.8404 129.952 96.2328 131.588 97.1831C132.515 97.6907 133.276 98.4541 134.081 99.0594C134.318 99.2265 134.543 99.3449 134.784 99.4166C135.302 99.5677 135.911 99.5235 136.451 99.4563C137.102 99.3845 137.745 99.2487 138.4 99.1991C138.548 99.1899 138.676 99.3105 138.684 99.4685C138.69 99.5693 138.645 99.6616 138.574 99.7181C138.293 99.9379 137.997 100.131 137.685 100.297C136.273 101.062 134.714 101.3 133.321 100.335C132.722 99.9295 132.246 99.4731 131.682 99.0815C130.916 98.5289 130.074 98.1396 129.177 97.8663C128.195 97.5587 127.155 97.3969 126.137 97.2908C125.982 97.2793 125.573 97.2465 125.414 97.2343C121.83 97.0702 118.512 95.2489 116.176 92.3651C114.372 90.1537 113.072 87.5249 112.314 84.7158L112.278 84.5662C112.183 84.1724 112.403 83.7693 112.772 83.6678C113.141 83.564 113.514 83.8037 113.612 84.1937L113.612 84.1945Z" fill="#15296F"/>
<path d="M132.21 99.0936C130.916 99.6829 129.167 100.416 128.354 101.662C127.816 102.5 127.983 103.461 128.351 104.348C128.402 104.467 128.351 104.609 128.239 104.659C128.155 104.697 128.06 104.673 128 104.606C127.874 104.467 127.752 104.319 127.643 104.156C127.293 103.648 127.062 103.028 127.048 102.387C127.023 99.8783 129.764 98.1982 131.76 97.6906C132.641 97.4341 133.052 98.728 132.21 99.0936Z" fill="#15296F"/>
<path d="M107.481 68.6077C109.667 71.6033 113.229 75.0481 116.958 75.0351C117.603 75.0298 118.242 74.8952 118.881 74.7996C119.538 74.6857 120.214 74.5593 120.865 74.4147C122.553 74.0617 124.216 73.5635 125.929 73.3092C127.32 73.0949 128.748 73.0542 130.15 73.1173C130.707 73.1438 131.586 73.1905 132.141 73.1593C133.399 73.076 135.32 72.8328 135.783 71.4097L135.796 71.3636C135.8 71.3524 135.804 71.3282 135.809 71.3365C135.793 71.124 135.94 70.9381 136.138 70.9204C136.337 70.9027 136.51 71.0608 136.527 71.2733C136.727 73.249 134.817 74.2695 133.305 74.5198C132.087 74.7512 130.822 74.6555 129.605 74.6337C129.117 74.6337 128.593 74.6432 128.111 74.6709C125.926 74.7706 123.812 75.3957 121.681 75.9093C120.5 76.1861 119.287 76.4122 118.089 76.5878C115.498 77.0359 112.9 75.9116 110.838 74.3073C109.145 72.9934 107.676 71.3826 106.438 69.5852L106.355 69.4595C106.135 69.1271 106.208 68.6667 106.518 68.4312C106.829 68.1933 107.262 68.2753 107.481 68.6077Z" fill="#15296F"/>
<path d="M125.514 74.0622C126.052 75.3029 126.944 76.4683 128.08 77.0958C129.007 77.6102 130.086 77.7209 131.107 77.5385C133.648 77.1194 136.364 76.7584 138.819 77.8331C138.912 77.882 139.193 78.0194 139.292 78.0751C139.66 78.2957 140.02 78.5484 140.329 78.859L140.439 78.9644C140.474 79.0025 140.507 79.0422 140.541 79.0804C140.608 79.1583 140.675 79.2361 140.739 79.314C140.828 79.4231 140.818 79.588 140.717 79.6842C140.629 79.7651 140.505 79.7689 140.414 79.701C139.209 78.8758 137.84 78.6163 136.436 78.5804C135.378 78.5552 134.291 78.6453 133.244 78.8026C132.998 78.8361 132.688 78.8949 132.443 78.9354C132.195 78.9766 131.756 79.0674 131.508 79.1155C130.107 79.4147 128.64 79.2903 127.366 78.5621C125.913 77.7339 124.825 76.2857 124.247 74.6536C123.871 73.695 125.124 73.1125 125.514 74.0616L125.514 74.0622Z" fill="#15296F"/>
<path d="M71.8871 81.376C74.5434 80.0081 78.242 79.7852 80.6849 81.7576C80.9687 81.9958 80.7215 82.4698 80.3835 82.3377C78.123 81.4424 75.6751 81.6973 73.4054 82.4019C73.0751 82.5003 72.742 82.6171 72.418 82.7339C71.6047 82.995 71.1448 81.8103 71.8871 81.376Z" fill="#15296F"/>
<path d="M41.8246 73.5508C41.4812 74.9202 41.1306 76.3583 41.4304 77.772C41.4729 77.9857 41.5401 78.1987 41.6063 78.4201C41.6509 78.5689 41.5748 78.7284 41.436 78.7765C41.3477 78.8063 41.2546 78.7834 41.1874 78.7254C41.0451 78.6055 40.9112 78.4689 40.7938 78.3201C39.9636 77.2514 39.8391 75.7258 40.0882 74.4096C40.1875 73.9031 40.3346 73.4115 40.5645 72.954C40.9063 72.284 41.8444 72.5579 41.8312 73.3111L41.8246 73.5508Z" fill="#15296F"/>
<path d="M50.7089 73.8455C50.9608 75.9185 49.8534 78.56 47.7252 78.8088C47.4529 78.8371 47.3256 78.4569 47.5471 78.2913C48.8238 77.286 49.1534 75.8222 49.305 74.2244C49.3127 74.1518 49.3226 74.0049 49.3336 73.9364L49.4571 73.6442C49.7366 72.9973 50.6218 73.149 50.7089 73.8455Z" fill="#15296F"/>
<path d="M58.4781 78.3123C57.9821 79.632 56.9408 80.7717 55.6902 81.2785C55.1164 81.5045 54.4676 81.5838 53.8816 81.4411C53.6247 81.3808 53.6 80.9946 53.8442 80.8961C55.1995 80.3976 56.1129 79.3946 56.9133 78.171C57.002 78.0397 57.1426 77.8123 57.2308 77.6848L57.4821 77.4886C58.0174 77.0795 58.7091 77.6627 58.4781 78.3123Z" fill="#15296F"/>
<path d="M63.1595 83.557C62.4623 84.7806 61.2607 85.7592 60.0127 86.2538C59.5921 86.4255 59.1435 86.5271 58.6959 86.5629C58.5493 86.5744 58.4214 86.4568 58.4103 86.2996C58.4038 86.2019 58.444 86.111 58.5107 86.0546C59.1743 85.5195 59.7988 85.0302 60.4024 84.4379C60.9586 83.9089 61.475 83.328 61.9893 82.7547C62.0252 82.7074 62.1343 82.6341 62.1762 82.599C62.7803 82.1456 63.5222 82.8807 63.1595 83.557Z" fill="#15296F"/>
<path opacity="0.25" d="M123.379 124.37C98.5751 131.925 74.2666 129.15 64.0795 110.115C57.443 97.7147 62.8873 89.5594 67.4888 85.3818C67.4005 85.5123 55.4879 103.237 82.2871 111.059C109.186 118.91 153.646 95.0233 132.024 47.8223C135.264 51.5286 138.689 56.3587 141.955 62.6279C156.933 91.3761 148.183 116.814 123.379 124.37Z" fill="#15296F"/>
<path opacity="0.25" d="M71.518 82.407C71.93 82.1666 72.1723 82.0468 72.1723 82.0468C68.2588 78.8591 69.0304 70.5957 64.0795 66.0211C60.3054 62.5339 52.4149 64.8607 48.8762 66.1634C47.6877 66.6014 46.366 66.2696 45.4929 65.3016C41.4988 60.8711 41.4867 56.3733 42.282 53.2266C42.282 53.2266 43.1513 62.3024 52.3564 59.7643C61.5616 57.2262 68.5509 56.99 71.5054 67.6739C74.4596 78.3576 78.2082 81.0499 78.2082 81.0499L71.518 82.407Z" fill="#15296F"/>
<path opacity="0.5" d="M73.9864 40.4026C76.9638 38.2352 76.5406 46.3714 80.4821 52.581C84.423 58.7906 91.2356 60.7214 88.2582 62.8888C85.2807 65.0562 79.6716 61.7797 75.7307 55.5701C71.7892 49.3605 71.0089 42.5701 73.9864 40.4026Z" fill="white"/>
</svg>
