<svg width="100" height="80" viewBox="0 0 100 80" fill="none" xmlns="http://www.w3.org/2000/svg">
<path d="M77.0627 33.4524L73.604 36.7914L70.4552 39.8315C69.8782 39.7723 69.2834 39.6994 68.6693 39.6115C67.4904 39.4427 66.3843 39.2437 65.3477 39.0165C49.8177 35.6144 49.859 25.9178 52.997 17.9308C53.2538 17.2773 53.5313 16.6351 53.8228 16.0088L56.5834 16.1783L56.8238 16.1932C56.8853 16.1754 56.9468 16.1584 57.0078 16.1413C64.8684 13.9463 70.6796 16.6169 74.1087 19.156C74.4984 19.4447 74.8571 19.7318 75.1853 20.0096C75.4552 20.2387 75.7041 20.4616 75.9313 20.6739L75.9317 20.6743C77.0961 21.7627 77.6965 22.5829 77.6965 22.5829C80.489 27.8833 77.0627 33.4524 77.0627 33.4524Z" fill="#BF1031"/>
<path opacity="0.5" d="M75.5335 20.6739C66.0034 14.7893 56.5833 17.9308 56.5833 17.9308V16.1783L56.8236 16.1932C56.8851 16.1754 56.9466 16.1584 57.0077 16.1413C64.8682 13.9463 70.6795 16.6169 74.1086 19.156C74.4983 19.4447 74.857 19.7318 75.1851 20.0096L75.5335 20.6739Z" fill="white"/>
<path opacity="0.25" d="M77.0627 33.4514L73.604 36.7903L65.3477 39.0154C49.8177 35.6133 49.859 25.9167 52.997 17.9297L55.997 18.1345C55.997 18.1345 52.281 32.4171 65.735 32.5837C75.3529 32.7028 77.0548 23.7551 74.1087 19.155C76.4646 20.8994 77.6965 22.5818 77.6965 22.5818C80.489 27.8822 77.0627 33.4514 77.0627 33.4514Z" fill="#15296F"/>
<path d="M29.0797 54.9641C29.0797 54.9641 20.4441 58.2317 16.0529 46.9837C12.2591 37.2661 16.8995 32.059 18.2323 30.8224C18.4422 30.6274 18.57 30.5312 18.57 30.5312C22.3586 30.8191 27.6311 49.5721 28.8302 54.0237C28.9923 54.6242 29.0797 54.9641 29.0797 54.9641Z" fill="#EA1938"/>
<path opacity="0.25" d="M29.0797 54.9641C29.0797 54.9641 20.4441 58.2317 16.0529 46.9837C12.2591 37.2661 16.8995 32.059 18.2323 30.8224C18.4422 30.6274 18.57 30.5312 18.57 30.5312C22.3586 30.8191 27.6311 49.5721 28.8302 54.0237C28.9923 54.6242 29.0797 54.9641 29.0797 54.9641Z" fill="#15296F"/>
<path d="M26.2272 55.8607C25.5852 55.8607 24.8712 55.8001 24.1146 55.6358C22.4636 55.2762 20.9558 54.4949 19.6329 53.3128C18.001 51.8541 16.6523 49.7804 15.6245 47.1478C14.6015 44.5277 14.1003 42.0092 14.1344 39.6621C14.162 37.7714 14.535 35.9877 15.2428 34.3609C16.4546 31.5764 18.217 30.2273 18.2916 30.171C18.3813 30.1035 18.493 30.0708 18.6055 30.0795C19.2555 30.1289 19.9111 30.5562 20.6093 31.3854C21.1822 32.0657 21.7966 33.0402 22.4356 34.2818C23.4954 36.341 24.6519 39.1818 25.8722 42.7248C27.944 48.7395 29.5095 54.7926 29.5252 54.8532C29.5826 55.0762 29.4621 55.3067 29.2445 55.3888C29.1761 55.4147 27.9686 55.8611 26.2272 55.8611V55.8607ZM18.7017 31.0155C18.27 31.3923 16.9831 32.635 16.0666 34.7668C14.5952 38.1881 14.739 42.3566 16.4819 46.821C18.2443 51.3349 20.8786 54.0025 24.3123 54.7494C26.2019 55.1602 27.8136 54.8499 28.5254 54.6597C28.1362 53.1931 26.7498 48.0879 25.0009 43.0123C21.5698 33.0532 19.5429 31.2591 18.7017 31.0155Z" fill="#15296F"/>
<path d="M70.4551 39.8308L48.6955 60.8381C48.6955 60.8381 47.3312 60.3005 45.1875 59.348C40.0955 57.0869 30.6037 52.4883 24.536 47.2076C15.9133 39.7034 19.0478 31.7309 19.0478 31.7309C14.0895 30.6708 8.60501 33.386 6.51186 34.5783C5.93825 34.9051 5.20811 34.7711 4.79247 34.2625C4.15896 33.4874 3.77973 32.6498 3.56549 32.0446C3.3711 31.4964 3.5563 30.8872 4.02593 30.5376C5.68726 29.3 8.72186 28.3183 8.72186 28.3183C6.53059 27.5592 2.81842 25.6242 1.25519 24.7898C0.760575 24.5259 0.45631 24.0133 0.45925 23.4578C0.464761 22.3749 0.791444 21.6143 1.25042 21.0806C1.73143 20.5208 2.35834 20.2104 2.91359 20.038C3.43467 19.876 3.8929 19.8358 4.10824 19.8259C4.18394 19.8227 4.25964 19.8249 4.3346 19.8332C9.22163 20.3789 19.2315 26.7209 19.2315 26.7209C19.4006 26.1749 19.7684 25.6035 20.1392 25.1231C20.6562 24.454 21.1791 23.9618 21.1791 23.9618C19.8673 22.9013 15.7982 17.9936 14.3093 16.1795C14.0252 15.8335 13.9113 15.3866 13.9877 14.9597C14.0087 14.8417 14.0443 14.7255 14.0946 14.6129C15.5054 11.4733 18.2184 11.1324 19.4932 11.1593C19.9238 11.1684 20.331 11.3557 20.6143 11.6767C22.9077 14.2721 25.993 19.823 25.993 19.823C26.0753 19.7239 26.1643 19.6292 26.2583 19.5388C27.3005 18.5386 28.9695 18.0804 28.9695 18.0804C28.8497 17.8579 28.7358 17.6368 28.6278 17.4175C24.4647 8.9883 28.5804 3.15524 30.1469 1.37305C30.4872 0.986038 30.9848 0.770753 31.5033 0.781644C35.4933 0.864419 36.8011 3.56911 37.2237 5.12839C37.3361 5.54191 37.2891 5.97755 37.0995 6.35003C37.0238 6.49891 36.9253 6.63792 36.8051 6.76135C33.5831 10.0662 35.9136 15.3275 35.9136 15.3275C38.9989 13.3006 42.7424 15.3275 42.7424 15.3275L53.8228 16.0082C49.7321 24.7993 48.381 36.7094 68.6692 39.6108C69.2833 39.6987 69.8782 39.7717 70.4551 39.8308Z" fill="#3E8AD5"/>
<path opacity="0.5" d="M37.0995 6.34966C37.0433 6.24548 36.9852 6.12022 36.9253 5.97247C35.7417 3.04886 33.0448 2.517 31.8524 2.42806C31.4868 2.40083 31.1266 2.53625 30.8768 2.80163C25.9986 7.97938 29.2985 18.0005 29.2985 18.0005L28.6278 17.4175C24.4647 8.9883 28.5804 3.15524 30.147 1.37305C30.4872 0.986038 30.9848 0.770753 31.5033 0.781644C35.4933 0.864419 36.8011 3.56911 37.2237 5.12839C37.3362 5.54191 37.2891 5.97717 37.0995 6.34966Z" fill="white"/>
<path opacity="0.5" d="M26.2584 19.5371C26.2319 20.0315 26.0695 20.2802 25.7175 20.1662C23.5861 19.4765 21.8958 13.5951 19.5072 12.6149C17.1186 11.6347 14.3167 15.3257 14.3167 15.3257L13.9878 14.958C14.0087 14.84 14.0444 14.7238 14.0947 14.6113C15.5054 11.4717 18.2185 11.1307 19.4932 11.1576C19.9239 11.1667 20.3311 11.354 20.6144 11.6749C22.9078 14.2703 25.9931 19.8213 25.9931 19.8213C26.0754 19.7222 26.1643 19.6275 26.2584 19.5371Z" fill="white"/>
<path opacity="0.5" d="M20.3156 25.2464L19.5237 26.8801C19.2767 27.3895 18.6454 27.5866 18.1467 27.311C7.75095 21.5633 2.80737 20.6691 2.80737 20.6691C2.80737 20.6691 2.85147 20.4128 2.91357 20.0338C3.43465 19.8719 3.89288 19.8316 4.10822 19.8218C4.18392 19.8185 4.25962 19.8207 4.33458 19.829C9.22161 20.3747 19.2315 26.7167 19.2315 26.7167C19.4006 26.1707 19.7684 25.5993 20.1392 25.119L20.3156 25.2464Z" fill="white"/>
<path opacity="0.25" d="M45.1875 59.3452C40.0955 57.0841 30.6037 52.486 24.536 47.2051C15.9133 39.7009 19.0478 31.7284 19.0478 31.7284C14.0895 30.6683 8.60501 33.3836 6.51186 34.5758C5.93825 34.9025 5.20811 34.7685 4.79247 34.26C4.15896 33.4848 3.77973 32.6473 3.56549 32.0421C3.3711 31.4939 3.5563 30.8847 4.02593 30.5351C5.68726 29.2975 8.72186 28.3158 8.72186 28.3158C6.53059 27.5567 2.81842 25.6216 1.25519 24.7873C0.760575 24.5234 0.45631 24.0108 0.45925 23.4554C0.464761 22.3724 0.791444 21.6118 1.25042 21.0781C1.25042 21.0781 2.45646 23.2513 7.60106 24.7761C12.7457 26.3009 14.3625 29.169 18.8457 29.4957C23.3289 29.8224 20.3421 39.5593 31.7572 38.7751C43.1723 37.9909 46.5089 38.9167 49.6547 49.2724C51.3716 54.9259 48.3162 57.8527 45.1875 59.3452Z" fill="#15296F"/>
<path d="M48.6956 61.2929C48.6384 61.2929 48.5806 61.2821 48.5252 61.2605C48.4862 61.245 44.5659 59.6933 39.6429 57.2431C36.7501 55.8032 34.0801 54.3384 31.7073 52.8901C28.7334 51.0746 26.2188 49.2774 24.2326 47.5487C22.2214 45.7987 20.6732 43.8742 19.6308 41.8284C18.7925 40.1834 18.2781 38.4583 18.1017 36.7008C17.8849 34.5414 18.2299 32.8786 18.4541 32.0824C13.796 31.3316 8.74549 33.8312 6.74202 34.9727C5.96742 35.4141 4.99728 35.2359 4.43578 34.5486C3.75117 33.7107 3.34916 32.8067 3.13272 32.1957C2.87108 31.4577 3.11912 30.6462 3.75044 30.1761C4.8069 29.389 6.36282 28.7138 7.42183 28.3046C5.20967 27.3847 2.32098 25.8747 1.03813 25.19C0.393955 24.8466 -0.00364946 24.1822 2.52533e-05 23.4565C0.009947 21.5116 0.98632 20.522 1.80394 20.034C2.71601 19.4899 3.70487 19.3907 4.08741 19.3737C4.18884 19.3689 4.28952 19.3722 4.38654 19.3831C6.47155 19.6158 9.65019 20.8607 13.8335 23.0829C16.1427 24.3096 18.1369 25.5109 19.01 26.0479C19.4154 25.2155 20.1018 24.4218 20.5163 23.9832C18.9329 22.4846 15.4625 18.3056 13.9529 16.466C13.4778 15.887 13.3712 15.1064 13.6755 14.4297C14.3358 12.9601 15.3361 11.9036 16.6491 11.2893C17.7364 10.7808 18.8014 10.6914 19.5036 10.7063C20.0625 10.7179 20.5938 10.9633 20.9614 11.3787C22.8663 13.5344 25.2582 17.6078 26.0949 19.0716C26.8225 18.4374 27.7456 18.0301 28.317 17.8191C27.3414 15.8928 26.724 13.9639 26.4811 12.0786C26.2592 10.3567 26.3459 8.65292 26.7391 7.01414C27.4435 4.07746 28.9597 2.03351 29.8009 1.07652C30.2301 0.587501 30.8544 0.314491 31.5133 0.32865C33.3877 0.367496 34.9069 0.95817 36.0288 2.08361C36.9883 3.04605 37.4498 4.20707 37.6677 5.01158C37.8665 5.74494 37.6629 6.53639 37.136 7.07695C35.9027 8.34179 35.3879 10.0699 35.6054 12.2137C35.7106 13.2505 35.9711 14.1418 36.1504 14.6613C37.4223 13.9959 38.9384 13.8096 40.5722 14.1226C41.7194 14.3426 42.587 14.7416 42.8674 14.8813L56.7726 15.7356C59.8632 14.8574 62.9008 14.6504 65.8027 15.1206C68.1449 15.5003 70.4022 16.3193 72.5102 17.5548C76.097 19.6572 77.9895 22.2094 78.0684 22.3169C78.0815 22.3347 78.0933 22.3535 78.1036 22.3735C78.7708 23.6402 79.151 25.0259 79.2337 26.4923C79.2999 27.6584 79.1783 28.8764 78.8726 30.1129C78.3543 32.2117 77.4914 33.629 77.4548 33.6882C77.4351 33.7205 77.4107 33.7507 77.3834 33.7771L49.0158 61.1633C48.9285 61.2483 48.8125 61.2929 48.6947 61.2929H48.6956ZM16.6796 31.038C17.5034 31.038 18.3302 31.1142 19.1449 31.2885C19.2761 31.3164 19.3885 31.3999 19.4521 31.5168C19.5157 31.6337 19.5245 31.7724 19.4756 31.8962C19.4683 31.9147 18.7282 33.8578 19.02 36.659C19.2886 39.2399 20.5163 43.106 24.8392 46.8682C29.257 50.7131 35.5522 54.1915 40.0555 56.4332C44.1977 58.4947 47.6186 59.9131 48.5895 60.307L76.697 33.1712C76.8445 32.9171 77.5543 31.6381 77.9872 29.8708C78.6219 27.2775 78.3919 24.9072 77.3055 22.8248C77.1017 22.5579 75.2595 20.2138 72.0092 18.3169C67.4252 15.6416 62.359 15.0738 56.9524 16.6294C56.9013 16.6439 56.8482 16.6501 56.7952 16.6465L42.7138 15.7813C42.6466 15.7773 42.5808 15.7585 42.5216 15.7265C42.5132 15.7222 41.6129 15.2426 40.3712 15.0091C38.751 14.7042 37.3366 14.9387 36.1677 15.7065C36.0545 15.7806 35.9141 15.802 35.784 15.7639C35.6539 15.7262 35.547 15.6332 35.4926 15.5105C35.4677 15.4542 34.8793 14.1099 34.6941 12.3313C34.4446 9.93268 35.0601 7.89817 36.4742 6.4478C36.7788 6.13522 36.896 5.67484 36.7803 5.24681C36.383 3.78194 35.1678 1.31287 31.4938 1.23663C31.1091 1.22864 30.7442 1.38729 30.4939 1.67192C29.0641 3.29873 24.7573 9.27409 29.3754 17.8688C29.4408 17.9905 29.4466 18.1346 29.3915 18.2609C29.3364 18.3873 29.2265 18.482 29.0924 18.5191C29.0744 18.5241 27.2345 19.0422 26.3485 20.1117C26.2518 20.2283 26.103 20.29 25.9509 20.2762C25.7987 20.2624 25.6639 20.1749 25.5904 20.0428C25.5599 19.9876 22.5022 14.5045 20.2683 11.9762C20.0706 11.7526 19.7843 11.6205 19.483 11.6143C18.1737 11.5867 15.7881 11.9635 14.514 14.7986C14.3509 15.162 14.409 15.582 14.6654 15.895C15.9332 17.4401 20.1713 22.5623 21.4696 23.6119C21.5714 23.6943 21.6327 23.8159 21.6378 23.9459C21.643 24.0758 21.5912 24.2018 21.4956 24.2915C21.4813 24.3049 20.0342 25.6787 19.6704 26.8546C19.6285 26.9904 19.5245 27.0989 19.3897 27.1479C19.2548 27.197 19.1045 27.1806 18.9832 27.104C18.884 27.0412 9.00751 20.8128 4.28291 20.2849C4.23403 20.2795 4.18222 20.278 4.12894 20.2802C3.3793 20.3139 0.932301 20.6436 0.918339 23.4612C0.916499 23.8515 1.12926 24.208 1.47359 24.3917C2.97581 25.1933 6.7038 27.1396 8.87371 27.8911C9.0593 27.9554 9.18315 28.1296 9.18094 28.3239C9.17873 28.5181 9.0516 28.6898 8.86455 28.7504C8.83479 28.7599 5.88216 29.7238 4.30201 30.9008C3.9915 31.132 3.8695 31.5317 3.99848 31.8955C4.19104 32.439 4.54712 33.2413 5.14939 33.9783C5.42502 34.3155 5.90127 34.4031 6.28197 34.1863C8.10315 33.1487 12.3431 31.038 16.6788 31.038H16.6796Z" fill="#15296F"/>
<path d="M45.7263 70.9746C29.19 72.6445 22.2448 54.6014 22.7042 49.2281C22.7108 49.1525 22.7185 49.0784 22.7277 49.0051C22.778 48.6103 22.8703 48.2492 22.9996 47.9211C23.0389 47.8211 23.0819 47.7239 23.1282 47.6295C24.7304 44.3611 30.338 44.6381 34.6499 46.0344C35.1001 46.18 35.5359 46.3379 35.9515 46.5053C36.477 46.7166 36.9771 46.9692 37.4519 47.2513C41.461 49.6356 43.6482 54.1525 43.6482 54.1525C40.7988 62.1985 45.7263 70.9746 45.7263 70.9746Z" fill="#BF1031"/>
<path opacity="0.5" d="M38.0793 48.2995C27.9885 43.94 23.1512 48.0201 23.1512 48.0201L22.9998 47.9211C23.0391 47.8211 23.0821 47.7239 23.1283 47.6295C24.7306 44.3611 30.3382 44.6381 34.6501 46.0344C35.1002 46.18 35.536 46.3379 35.9516 46.5053C36.4771 46.7166 36.9773 46.9692 37.4521 47.2513L38.0793 48.2995Z" fill="white"/>
<path opacity="0.5" d="M34.4953 19.9247C35.6723 21.2785 32.2063 22.298 29.117 24.9195C26.0277 27.5411 24.4846 30.7726 23.3076 29.4188C22.1306 28.0649 23.681 24.8426 26.7707 22.2206C29.86 19.5991 33.3183 18.5709 34.4953 19.9247Z" fill="white"/>
<path opacity="0.25" d="M45.7263 70.9792C29.19 72.6492 22.2448 54.606 22.7042 49.2327C22.7108 49.1571 22.7185 49.083 22.7277 49.0097L23.1282 47.6341C23.1282 47.6341 23.5126 59.9243 32.1849 61.5947C40.8573 63.2646 43.3535 52.0956 35.9136 46.9884C35.3764 46.6196 34.9597 46.3052 34.6499 46.0391C35.1001 46.1846 35.5359 46.3425 35.9515 46.5099C40.9124 48.5069 43.6482 54.1571 43.6482 54.1571C40.7988 62.2031 45.7263 70.9792 45.7263 70.9792Z" fill="#15296F"/>
<path d="M43.5732 71.5369C41.1714 71.5369 38.874 71.1186 36.7188 70.2871C34.2689 69.3425 31.9971 67.8632 29.9658 65.8913C26.7838 62.8026 24.9013 59.227 23.8819 56.7712C22.695 53.9106 22.0541 51.0059 22.2092 49.1904C22.3448 47.6026 23.0749 46.3967 24.3787 45.6075C25.7192 44.7957 27.6628 44.4613 29.9985 44.6411C31.9909 44.7939 34.1535 45.3073 36.0878 46.0856C38.745 47.1552 40.7621 49.2397 41.9865 50.8003C43.3057 52.4815 43.9973 53.8975 44.0259 53.9571C44.0785 54.0655 44.0851 54.1895 44.0451 54.3026C42.6145 58.3416 43.2414 62.589 44.019 65.4402C44.8686 68.5552 46.079 70.7336 46.0912 70.7552C46.1658 70.8885 46.168 71.0505 46.0963 71.1857C46.0246 71.3205 45.8894 71.4115 45.7358 71.427C45.0064 71.5007 44.285 71.5374 43.5728 71.5374L43.5732 71.5369ZM28.7953 45.5007C27.166 45.5007 25.8192 45.7999 24.8594 46.3811C23.8187 47.0114 23.2351 47.982 23.1253 49.2665C23.0128 50.5843 23.3755 53.1571 24.7326 56.4266C25.7189 58.804 27.5393 62.2632 30.6103 65.2439C34.6544 69.1698 39.4833 70.9627 44.9704 70.5806C44.5397 69.7054 43.7562 67.9552 43.1389 65.6993C42.6211 63.8078 42.3305 61.9538 42.2753 60.1895C42.2081 58.0439 42.4903 56.0256 43.1146 54.1867C42.8978 53.774 42.2599 52.6266 41.2475 51.3388C40.0944 49.8726 38.203 47.9162 35.7417 46.9257C33.9198 46.1923 31.8005 45.6892 29.9279 45.5454C29.5373 45.5153 29.1591 45.5007 28.7953 45.5007Z" fill="#15296F"/>
<path d="M82.2527 76.8216C65.7166 81.4686 49.5109 79.762 42.7195 68.054C38.2952 60.4268 41.9246 55.4113 44.9923 52.8414C46.0922 51.9198 47.1199 51.3127 47.6785 51.0127C47.9532 50.8648 48.1147 50.7911 48.1147 50.7911C45.5057 48.8306 46.0201 43.7479 42.7195 40.9344C40.2034 38.7895 34.9431 40.2206 32.5839 41.0218C31.7916 41.2912 30.9104 41.0872 30.3283 40.4918C27.7414 37.8441 27.6601 35.1576 28.1445 33.232C28.1581 33.1757 28.1728 33.1198 28.1878 33.065C28.3462 32.487 28.5524 31.9835 28.7501 31.5769C29.0683 30.9234 29.7014 30.4761 30.4298 30.385C32.7739 30.092 38.4205 28.6601 39.4056 21.6748C40.5624 13.4736 46.5129 9.55048 48.818 8.32123C49.402 8.00935 50.0823 7.91898 50.7269 8.0747C52.6598 8.54123 54.0452 9.41325 55.0368 10.4392C56.7612 12.2229 57.2964 14.4723 57.4584 15.8668C57.5457 16.6164 57.3091 17.3698 56.8001 17.9325C52.6494 22.5196 51.9034 27.4966 55.2804 31.6586C58.8447 36.0514 65.7903 37.8666 65.7903 37.8666C78.872 32.8929 77.6964 22.5824 77.6964 22.5824C77.6964 22.5824 82.4461 23.864 88.0152 29.7402H88.0156C90.1757 32.0201 92.4593 34.9909 94.6368 38.8469C104.622 56.5287 98.7889 72.1742 82.2527 76.8216Z" fill="#EA1938"/>
<path opacity="0.5" d="M55.0368 10.4392C54.7716 10.3111 54.4105 10.1913 54.0861 9.89395C49.4561 5.6463 41.206 16.0341 41.0042 20.0229C40.6735 26.5578 37.0355 30.3697 33.3498 30.8097C28.5822 31.3793 28.5102 33.3467 28.5102 33.3467L28.1445 33.232C28.1581 33.1757 28.1728 33.1198 28.1879 33.065C28.3463 32.487 28.5525 31.9835 28.7502 31.5769C29.0684 30.9234 29.7015 30.4761 30.4299 30.385C32.774 30.092 38.4205 28.6601 39.4057 21.6748C40.5625 13.4736 46.513 9.55048 48.8181 8.32123C49.4021 8.00935 50.0824 7.91898 50.727 8.0747C52.6598 8.54123 54.0453 9.41325 55.0368 10.4392Z" fill="white"/>
<path d="M66.1533 79.6712C63.5491 79.6712 61.0688 79.4543 58.7463 79.0177C55.1116 78.3346 51.8956 77.1172 49.1881 75.3994C46.3139 73.5755 44.0032 71.1806 42.3209 68.2806C40.2308 64.6773 39.6822 61.2679 40.6908 58.1478C41.5691 55.4309 43.4884 53.4637 44.944 52.2919C45.8946 51.5266 46.7655 50.9966 47.3172 50.6919C46.3235 49.6557 45.8369 48.1595 45.3258 46.5885C44.6989 44.6618 44.0507 42.6694 42.4194 41.279C40.0592 39.267 34.8594 40.7301 32.7332 41.4521C31.7727 41.7785 30.6989 41.5255 29.9978 40.8078C28.4023 39.1748 27.5486 37.3526 27.4608 35.3915C27.3858 33.7167 27.8955 32.2863 28.3361 31.3812C28.7223 30.5873 29.4837 30.0471 30.3723 29.936C32.6385 29.6524 38.0113 28.274 38.9509 21.6132C39.462 17.9881 40.9374 14.7825 43.3363 12.085C45.3298 9.84283 47.49 8.5148 48.5998 7.92269C49.289 7.55527 50.0829 7.45292 50.8364 7.6348C53.266 8.22109 55.1275 9.48161 56.3684 11.381C57.4054 12.9676 57.7815 14.6684 57.9148 15.816C58.0177 16.6982 57.736 17.5804 57.1425 18.2361C53.0064 22.8072 52.4726 27.4738 55.6388 31.3758C57.4209 33.5722 60.1087 35.0985 62.0496 35.9919C63.8228 36.8084 65.3139 37.2604 65.7669 37.3897C70.9003 35.4056 74.5083 32.241 76.2059 28.2308C77.5022 25.1692 77.2425 22.6584 77.2397 22.6333C77.2228 22.4841 77.2824 22.336 77.3979 22.2383C77.5139 22.1406 77.6707 22.1058 77.8172 22.1454C77.9139 22.1715 80.2238 22.8116 83.5153 25.175C85.4355 26.5538 87.2965 28.2394 89.0468 30.185C91.2294 32.6112 93.2449 35.4514 95.0378 38.6269C97.6679 43.2837 99.2712 47.8956 99.8036 52.3332C100.319 56.6309 99.8191 60.6266 98.3172 64.2116C97.0148 67.3215 94.9942 70.0205 92.312 72.2341C89.5876 74.4816 86.2458 76.1722 82.3792 77.2595C76.6796 78.8609 71.1857 79.6712 66.1533 79.6712ZM38.873 39.3545C40.6629 39.3545 42.0542 39.7687 43.0199 40.5921C44.8466 42.1492 45.5661 44.3602 46.2007 46.3111C46.7483 47.9942 47.2655 49.5839 48.3932 50.4313C48.5214 50.528 48.5895 50.6834 48.5716 50.8421C48.5538 51.0003 48.4538 51.1379 48.3073 51.2046C48.2946 51.2107 46.9857 51.8158 45.5025 53.0135C44.1502 54.1064 42.3691 55.9332 41.5639 58.4309C40.6401 61.2971 41.1631 64.459 43.1184 67.8299C46.2841 73.2872 51.5998 76.7515 58.9181 78.1266C65.59 79.3802 73.6158 78.7787 82.1275 76.3867C89.6134 74.283 94.9181 69.9529 97.4684 63.8647C100.426 56.8041 99.2782 47.9985 94.2364 39.0695C90.2684 32.0427 85.9482 28.0532 83.0228 25.9439C80.8242 24.3585 79.0632 23.5689 78.1848 23.2323C78.1871 24.2383 78.0425 26.2246 77.074 28.5346C76.2712 30.4493 75.0655 32.1894 73.4904 33.7065C71.5331 35.5922 68.9979 37.1348 65.9557 38.2915C65.8655 38.3256 65.7669 38.331 65.6731 38.3067C65.6008 38.2879 63.8721 37.8311 61.6787 36.8226C59.6435 35.887 56.8191 34.2813 54.9228 31.9436C54.0538 30.8733 53.4308 29.7261 53.0698 28.5342C52.7153 27.3631 52.6116 26.141 52.7618 24.9023C52.9087 23.6876 53.3012 22.45 53.927 21.224C54.5458 20.0125 55.3975 18.8035 56.4585 17.6312C56.8768 17.1687 57.0754 16.5447 57.0031 15.9199C56.7411 13.6671 55.5641 9.71034 50.6191 8.51701C50.0867 8.38846 49.5247 8.46142 49.0369 8.72175C46.6505 9.99457 40.9793 13.8109 39.8615 21.7387C39.4172 24.8878 38.0146 27.3013 35.6921 28.9122C33.8408 30.1963 31.8407 30.6675 30.4887 30.8367C29.9107 30.9089 29.4161 31.2596 29.1651 31.7748C28.3309 33.4884 27.4163 36.8585 30.6596 40.1779C31.1142 40.6429 31.8113 40.8063 32.4356 40.5943C33.6971 40.1655 35.6084 39.6144 37.5482 39.4231C38.0116 39.3773 38.454 39.3545 38.8737 39.3545H38.873Z" fill="#15296F"/>
<path d="M55.7073 17.213C56.7416 16.3355 56.1646 13.9966 54.4191 11.9888C52.674 9.98112 50.4205 9.06493 49.3862 9.94244C48.3524 10.82 48.9289 13.1589 50.6745 15.1667C52.42 17.1744 54.6731 18.0906 55.7073 17.213Z" fill="#15296F"/>
<path d="M66.0007 37.4647C66.8763 37.9221 67.6721 38.5182 68.3726 39.2098C70.7791 41.5896 71.0932 44.5728 69.3543 47.443C68.8519 48.2778 68.2416 49.021 67.5838 49.7304C66.766 50.6351 65.8928 51.559 65.1125 52.4858C64.3791 53.3693 63.6505 54.3266 63.4806 55.4618C63.4172 55.8674 63.4233 56.2994 63.4754 56.7125L63.4885 56.8196L63.5022 56.9524C63.6777 58.6116 62.6317 59.5909 61.5716 60.6698C61.1294 61.1435 60.7045 61.5994 60.4444 62.1839C60.3871 62.3125 60.3425 62.4477 60.2975 62.5843C60.2796 62.6548 60.2604 62.7271 60.2369 62.8013C60.2172 62.8834 60.1299 62.9355 60.0472 62.9092C60.0007 62.8951 59.966 62.8595 59.951 62.8177C59.7148 62.1675 59.9148 61.3961 60.2796 60.8285C60.7834 60.0332 61.5576 59.4599 62.0777 58.7017C62.404 58.2351 62.5763 57.7158 62.5284 57.1552C62.5162 57.0628 62.5031 56.9308 62.4881 56.8383C62.4167 56.3346 62.4012 55.8304 62.4707 55.3191C62.697 53.6567 63.8524 52.3351 64.9059 51.1027C65.5012 50.4186 66.1698 49.69 66.7801 49.0182C67.4632 48.2811 68.104 47.4881 68.5848 46.6131C69.2247 45.4612 69.5735 44.1505 69.3078 42.8436C68.9144 40.889 67.3397 39.3322 65.6665 38.3211L65.6205 38.2946L65.5796 38.2718C65.0519 37.9784 65.4416 37.2102 66.0003 37.4651L66.0007 37.4647Z" fill="#15296F"/>
<path d="M63.9279 53.0614C65.3997 53.7952 66.5941 55.0914 67.1452 56.6327C67.3875 57.3149 67.495 58.0501 67.4856 58.7703C67.487 59.6412 67.3931 60.5191 67.1837 61.366C67.1166 61.6609 66.9945 62.0581 66.911 62.351C66.7344 62.9426 66.6222 63.429 66.918 63.9642C67.5753 65.0623 67.1851 66.3632 66.5481 67.3693C66.4049 67.5895 66.2565 67.8003 66.0809 67.9975C65.98 68.105 65.7997 67.9933 65.865 67.8548C65.9373 67.7097 66.0072 67.5557 66.0715 67.405C66.3992 66.6027 66.7236 65.5862 66.3884 64.7506C66.3499 64.6412 66.2415 64.4745 66.1776 64.375C65.9673 64.0388 65.8246 63.6177 65.8255 63.2139C65.8189 62.828 65.9067 62.4661 65.995 62.1102C66.1612 61.467 66.3091 60.8604 66.3814 60.2102C66.4523 59.582 66.4701 58.9388 66.433 58.3064C66.3509 57.0801 65.811 55.9299 64.9626 55.0304C64.5504 54.5952 64.0819 54.2069 63.564 53.8994L63.5241 53.8764L63.4955 53.8595C63.2767 53.7327 63.203 53.4553 63.3316 53.2393C63.4532 53.0337 63.7152 52.959 63.9283 53.0609L63.9279 53.0614Z" fill="#15296F"/>
<path d="M66.2063 37.3414C66.6002 37.4943 66.9669 37.7037 67.3209 37.9288C67.9115 38.3064 68.4627 38.7479 68.9749 39.2213C71.3547 41.4402 72.9922 44.3224 74.2101 47.294C75.9443 51.5842 76.8753 56.1278 77.8129 60.6335C78.3561 63.2133 78.8087 65.8644 79.6462 68.3649C79.7697 68.7142 79.8843 69.0626 79.9969 69.4105C80.1101 69.7626 80.2298 70.1133 80.3584 70.4612C80.3857 70.5274 80.3509 70.6086 80.2791 70.6292C80.2443 70.6405 80.2077 70.6358 80.1782 70.6194C80.0861 70.5668 79.9983 70.5067 79.9171 70.4386C79.6753 70.2419 79.4786 69.994 79.3082 69.7396C78.6767 68.7335 78.4181 67.5546 78.0936 66.4405C75.8326 57.9212 74.7209 45.7394 67.8819 39.5571C67.2716 39.0289 66.6232 38.5304 65.8866 38.1924C65.3228 37.9662 65.611 37.1483 66.2063 37.3414Z" fill="#15296F"/>
<path d="M78.7801 66.6818C77.6866 67.4766 76.6885 68.5015 76.2237 69.7813C76.189 69.8804 76.1604 69.9809 76.1289 70.0809C76.1115 70.1536 76.0848 70.2621 76.0655 70.3349C76.05 70.4203 76.0345 70.5071 76.0172 70.5931C76.0035 70.6973 75.9895 70.8025 75.9773 70.9071C75.9749 70.9597 75.9679 71.0672 75.9636 71.1198C75.951 71.3339 75.9585 71.5522 75.9716 71.7687C75.9871 72.0344 76.0322 72.2964 76.0674 72.5607C76.0796 72.6597 76.0082 72.7499 75.9082 72.7621C75.8327 72.771 75.7618 72.733 75.7266 72.6715C75.543 72.3555 75.3946 72.0072 75.3026 71.6471C74.7007 69.325 76.3298 67.0114 78.3143 65.8996C78.8416 65.64 79.2646 66.3508 78.7805 66.6813L78.7801 66.6818Z" fill="#15296F"/>
<path d="M75.7416 52.1123C75.8664 52.509 76.0209 52.8968 76.1904 53.2771C76.7054 54.4273 77.3796 55.5137 78.2317 56.4499C79.4059 57.7522 80.9927 58.7038 82.7439 58.9921C83.2087 59.0776 83.7195 59.1043 84.1909 59.1466C85.4101 59.2752 86.635 59.5165 87.7256 60.101C88.3434 60.4132 88.8505 60.8827 89.3876 61.255C89.5453 61.3578 89.6955 61.4306 89.8561 61.4747C90.2012 61.5677 90.6073 61.5405 90.9674 61.4991C91.4012 61.455 91.8303 61.3714 92.2669 61.3409C92.3655 61.3353 92.4505 61.4095 92.4561 61.5067C92.4599 61.5686 92.4303 61.6254 92.3829 61.6602C92.1951 61.7954 91.9979 61.9142 91.7899 62.016C90.8486 62.4865 89.8092 62.6329 88.8805 62.0395C88.4815 61.7902 88.1641 61.5095 87.788 61.2686C87.2772 60.9287 86.7157 60.6893 86.1181 60.5212C85.4632 60.332 84.7702 60.2325 84.0913 60.1672C83.988 60.1602 83.7153 60.14 83.6092 60.1325C81.22 60.0315 79.0082 58.9114 77.4509 57.1376C76.2477 55.7775 75.381 54.1606 74.8763 52.433L74.8519 52.3409C74.7885 52.0987 74.9355 51.8508 75.181 51.7883C75.427 51.7245 75.6763 51.8719 75.7411 52.1118L75.7416 52.1123Z" fill="#15296F"/>
<path d="M88.1402 61.2741C87.2773 61.6365 86.111 62.0877 85.5693 62.8539C85.2106 63.3689 85.3223 63.96 85.5674 64.506C85.6012 64.5788 85.5674 64.6661 85.4927 64.6971C85.4364 64.7206 85.373 64.706 85.3331 64.6647C85.2491 64.5788 85.1679 64.4882 85.0956 64.3877C84.8618 64.075 84.7082 63.6938 84.6988 63.2999C84.6819 61.7567 86.5092 60.7234 87.8397 60.4112C88.4275 60.2534 88.7012 61.0492 88.1402 61.2741Z" fill="#15296F"/>
<path d="M71.6537 42.5205C73.1114 44.363 75.4861 46.4817 77.972 46.4737C78.402 46.4704 78.8279 46.3877 79.2537 46.3288C79.6917 46.2588 80.1429 46.1811 80.5767 46.0921C81.702 45.875 82.8105 45.5686 83.9528 45.4122C84.88 45.2804 85.8316 45.2553 86.7664 45.2941C87.1382 45.3105 87.7236 45.3392 88.0941 45.32C88.9326 45.2687 90.2133 45.1192 90.5218 44.2439L90.5307 44.2156C90.5335 44.2086 90.5359 44.1938 90.5391 44.1988C90.5283 44.0682 90.6265 43.9538 90.7588 43.9429C90.8912 43.932 91.0067 44.0293 91.018 44.16C91.1513 45.3751 89.8781 46.0028 88.8701 46.1568C88.0579 46.2991 87.2142 46.2402 86.403 46.2268C86.0781 46.2268 85.7283 46.2326 85.4072 46.2497C83.9504 46.311 82.541 46.6955 81.1208 47.0114C80.333 47.1817 79.5246 47.3207 78.726 47.4287C76.9988 47.7043 75.2664 47.0128 73.8922 46.0261C72.7635 45.2179 71.7837 44.2272 70.9589 43.1217L70.9035 43.0444C70.7565 42.84 70.8053 42.5568 71.0119 42.4119C71.2194 42.2656 71.5081 42.3161 71.6537 42.5205Z" fill="#15296F"/>
<path d="M83.6763 45.8837C84.035 46.6468 84.6294 47.3636 85.3867 47.7495C86.0045 48.0659 86.7242 48.134 87.4045 48.0218C89.0984 47.764 90.9092 47.542 92.5463 48.203C92.6083 48.2331 92.7956 48.3176 92.8613 48.3518C93.1069 48.4875 93.3468 48.6429 93.5529 48.834L93.6261 48.8988C93.6496 48.9223 93.6717 48.9467 93.6937 48.9701C93.7388 49.018 93.7834 49.0659 93.8261 49.1138C93.8853 49.1809 93.8787 49.2823 93.8111 49.3415C93.7529 49.3913 93.6698 49.3936 93.6092 49.3518C92.8059 48.8443 91.8932 48.6847 90.9571 48.6626C90.2519 48.6471 89.527 48.7025 88.8294 48.7993C88.6655 48.8199 88.4585 48.8561 88.2951 48.8809C88.1303 48.9063 87.8374 48.9622 87.6721 48.9917C86.7383 49.1758 85.7599 49.0992 84.9106 48.6514C83.9421 48.142 83.2167 47.2513 82.8313 46.2474C82.5806 45.6578 83.4163 45.2995 83.6759 45.8833L83.6763 45.8837Z" fill="#15296F"/>
<path d="M47.9246 50.3801C49.6955 49.5387 52.1612 49.4016 53.7899 50.6148C53.9791 50.7613 53.8143 51.0528 53.5889 50.9716C52.0819 50.4209 50.45 50.5777 48.9368 51.011C48.7166 51.0716 48.4946 51.1434 48.2786 51.2153C47.7364 51.3758 47.4298 50.6472 47.9246 50.3801Z" fill="#15296F"/>
<path d="M27.883 45.5622C27.6541 46.4044 27.4203 47.289 27.6202 48.1585C27.6485 48.2899 27.6934 48.4209 27.7375 48.5571C27.7672 48.6486 27.7165 48.7467 27.6239 48.7763C27.5651 48.7946 27.5031 48.7805 27.4582 48.7448C27.3634 48.6711 27.2741 48.5871 27.1958 48.4955C26.6424 47.8383 26.5593 46.9 26.7254 46.0904C26.7916 45.7789 26.8897 45.4765 27.043 45.1951C27.2708 44.7831 27.8962 44.9515 27.8874 45.4148L27.883 45.5622Z" fill="#15296F"/>
<path d="M33.8058 45.7443C33.9738 47.0193 33.2355 48.6439 31.8167 48.797C31.6352 48.8143 31.5503 48.5805 31.698 48.4787C32.5491 47.8604 32.7689 46.9601 32.8699 45.9773C32.875 45.9327 32.8817 45.8423 32.889 45.8002L32.9713 45.6204C33.1576 45.2226 33.7478 45.3158 33.8058 45.7443Z" fill="#15296F"/>
<path d="M38.9853 48.4965C38.6546 49.3083 37.9604 50.0092 37.1266 50.3209C36.7441 50.4599 36.3116 50.5087 35.921 50.4209C35.7497 50.3839 35.7332 50.1463 35.896 50.0857C36.7996 49.7792 37.4085 49.1623 37.942 48.4097C38.0012 48.3289 38.0949 48.189 38.1537 48.1106L38.3213 47.99C38.6781 47.7383 39.1393 48.097 38.9853 48.4965Z" fill="#15296F"/>
<path d="M42.1063 51.7222C41.6415 52.4748 40.8404 53.0767 40.0084 53.3809C39.728 53.4865 39.4289 53.549 39.1305 53.571C39.0328 53.5781 38.9475 53.5058 38.9402 53.4091C38.9358 53.349 38.9626 53.2931 39.0071 53.2584C39.4495 52.9292 39.8658 52.6283 40.2682 52.264C40.639 51.9386 40.9833 51.5814 41.3262 51.2288C41.3501 51.1997 41.4228 51.1546 41.4507 51.133C41.8535 50.8541 42.3481 51.3062 42.1063 51.7222Z" fill="#15296F"/>
<path opacity="0.25" d="M82.2529 76.8232C65.7168 81.4701 49.5112 79.7635 42.7197 68.0556C38.2954 60.4288 41.9249 55.4128 44.9926 52.8434C44.9337 52.9236 36.992 63.8255 54.8581 68.6363C72.7905 73.465 102.431 58.7734 88.0159 29.7422C90.1759 32.0218 92.4595 34.9926 94.637 38.8485C104.622 56.5302 98.7891 72.1762 82.2529 76.8232Z" fill="#15296F"/>
<path opacity="0.25" d="M47.6787 51.0101C47.9533 50.8622 48.1148 50.7885 48.1148 50.7885C45.5058 48.8279 46.0203 43.7455 42.7197 40.9318C40.2036 38.787 34.9433 40.2181 32.5841 41.0194C31.7918 41.2887 30.9106 41.0847 30.3286 40.4893C27.6658 37.7643 27.6578 34.9979 28.188 33.0625C28.188 33.0625 28.7675 38.6447 34.9043 37.0836C41.041 35.5225 45.7006 35.3772 47.6702 41.9484C49.6397 48.5195 52.1388 50.1754 52.1388 50.1754L47.6787 51.0101Z" fill="#15296F"/>
<path opacity="0.5" d="M49.3242 25.1809C51.3092 23.8479 51.027 28.8521 53.6547 32.6713C56.282 36.4906 60.8238 37.6781 58.8388 39.0112C56.8538 40.3443 53.1144 38.329 50.4871 34.5098C47.8594 30.6905 47.3393 26.514 49.3242 25.1809Z" fill="white"/>
</svg>
