<svg width="100" height="100" viewBox="0 0 100 100" fill="none" xmlns="http://www.w3.org/2000/svg">
<g clip-path="url(#clip0_119_819)">
<path d="M67.4873 84.4479C81.3254 78.5282 90.9437 65.4413 90.9437 50.2451C90.9437 29.4941 73.0071 12.6719 50.8817 12.6719C28.7565 12.6719 10.8201 29.4941 10.8201 50.2451C10.8201 65.4408 20.4385 78.5282 34.2765 84.4479H67.4873Z" fill="#F9E8F8"/>
<path d="M79.3525 75.5819C79.3525 75.5819 81.1408 75.3918 82.1718 76.2566C83.2032 77.1214 89.8079 80.3655 93.892 75.0843C96.9136 71.1763 98.8098 63.9453 98.8098 63.9453C98.8098 63.9453 97.3511 65.7237 94.1633 65.7237C90.975 65.7237 85.9746 65.3721 82.7243 67.2087C78.9168 69.3599 79.3525 75.5819 79.3525 75.5819Z" fill="#86BB6B"/>
<path d="M53.4591 19.6263C53.3709 19.8978 53.1765 20.136 52.8939 20.3142C52.8981 20.3555 52.9 20.3972 52.9 20.439C52.9014 21.3548 52.1023 22.0357 50.8286 22.0343C50.4038 22.0338 50.0066 21.9513 49.6653 21.8064C49.3263 22.665 48.3249 23.246 46.8953 23.2441C45.4569 23.2422 44.2379 22.5984 43.8209 21.7112C43.4674 22.5234 42.1744 23.1259 41.0169 23.1245C39.6614 23.1227 38.5609 22.2922 38.5589 21.2699C38.5589 21.2586 38.5589 21.2479 38.5599 21.2366C38.2054 21.4894 37.7569 21.6399 37.2679 21.6394C36.1224 21.638 35.1929 20.8075 35.1914 19.7852C35.1909 19.4307 35.3024 19.0997 35.4949 18.8183C35.6434 18.6016 35.8414 18.4141 36.0744 18.2696C36.4109 18.0586 36.8199 17.9362 37.2619 17.9367C37.6754 17.9372 38.0614 18.0459 38.3854 18.2344C38.5874 17.404 39.4164 16.7821 40.4089 16.7831C40.9689 16.784 41.4759 16.9819 41.8494 17.305C42.2489 16.5758 43.1544 16.0689 44.2094 16.0703C45.3999 16.0717 46.4029 16.7217 46.7024 17.6042C47.0371 17.1357 47.661 16.7728 48.4103 16.6701C49.6103 16.505 50.4648 17.1568 50.5807 18.0192C50.5972 18.1426 50.5986 18.2631 50.5836 18.3798C50.8704 18.1721 51.2404 18.0215 51.6554 17.9644C52.6784 17.8232 53.4075 18.3766 53.5047 19.1086C53.53 19.2891 53.5141 19.464 53.4591 19.6263Z" fill="#D6E0FD"/>
<path d="M52.8939 20.3162C52.8981 20.3575 52.9 20.3992 52.9 20.441C52.9014 21.3568 52.1023 22.0377 50.8286 22.0363C50.4038 22.0358 50.0066 21.9533 49.6653 21.8084C49.3263 22.667 48.3249 23.248 46.8953 23.2461C45.4569 23.2443 44.2379 22.6004 43.8209 21.7132C43.4674 22.5254 42.1744 23.128 41.0169 23.1266C39.6614 23.1247 38.5609 22.2942 38.5589 21.2719C38.5589 21.2607 38.5589 21.2499 38.5599 21.2386C38.2054 21.4914 37.7569 21.6419 37.2679 21.6414C36.1224 21.64 35.1929 20.8096 35.1914 19.7873C35.1909 19.4328 35.3024 19.1017 35.4949 18.8203C35.4949 18.8203 35.4349 22.5474 39.3789 20.3162C39.3789 20.3162 41.8644 21.9115 43.7549 20.7476C43.7549 20.7476 45.7454 22.7951 47.4221 21.9871C49.062 21.1978 48.5573 20.471 48.5338 20.4396C48.6084 20.4869 52.593 23.0051 52.7737 19.5523C52.7737 19.5523 53.1192 19.6785 53.4587 19.6283C53.3709 19.9003 53.1765 20.1385 52.8939 20.3162Z" fill="#B6C7FA"/>
<path d="M45.2023 20.3373C45.2023 20.3373 43.5658 20.9215 41.9343 20.1328C41.9343 20.1328 42.8733 21.0852 43.6428 21.0861C44.4128 21.0871 45.2023 20.3373 45.2023 20.3373Z" fill="#B6C7FA"/>
<path opacity="0.3" d="M50.5841 18.3803L50.2155 18.717C50.2155 18.717 48.7775 17.2942 46.9304 18.5946C46.9304 18.5946 46.1119 16.7746 44.1254 17.2408C44.1254 17.2408 45.2174 17.6998 45.5519 18.2992C45.5519 18.2992 43.9999 17.2173 42.4049 18.5885C42.4049 18.5885 40.3244 17.3651 38.3739 18.7011C38.3739 18.7011 37.2744 17.9545 36.075 18.2696C36.4114 18.0586 36.8204 17.9362 37.2625 17.9367C37.6759 17.9372 38.0619 18.0459 38.3859 18.2344C38.588 17.404 39.4169 16.7821 40.4094 16.7831C40.9694 16.784 41.4764 16.9819 41.8499 17.305C42.2494 16.5758 43.1549 16.0689 44.2099 16.0703C45.4004 16.0717 46.4034 16.7217 46.7029 17.6042C47.0376 17.1357 47.6615 16.7728 48.4108 16.6701C49.6108 16.505 50.4653 17.1568 50.5812 18.0192C50.5977 18.1426 50.5991 18.2631 50.5841 18.3803Z" fill="white"/>
<path d="M29.1815 25.239C29.069 25.5846 28.8209 25.888 28.4615 26.1145C28.467 26.1666 28.4695 26.22 28.4695 26.2735C28.4715 27.4393 27.454 28.3068 25.8325 28.3045C25.2915 28.3035 24.7855 28.1985 24.351 28.0142C23.9195 29.1073 22.644 29.8473 20.8245 29.8449C18.993 29.8426 17.441 29.0229 16.9105 27.8932C16.4605 28.9272 14.814 29.6949 13.3405 29.6925C11.6145 29.6902 10.2135 28.6327 10.2116 27.3309C10.2116 27.3164 10.2116 27.3033 10.2125 27.2887C9.76156 27.6109 9.19052 27.8023 8.56804 27.8018C7.11006 27.7999 5.92658 26.7424 5.92456 25.4411C5.92405 24.9895 6.06555 24.568 6.31104 24.2101C6.50005 23.9344 6.75207 23.6957 7.04907 23.5115C7.47757 23.2427 7.99855 23.0866 8.56104 23.0875C9.08757 23.0885 9.57855 23.2268 9.99156 23.4664C10.249 22.409 11.3046 21.6174 12.5675 21.6188C13.2805 21.6197 13.926 21.872 14.401 22.2833C14.91 21.3553 16.0625 20.7095 17.4055 20.7109C18.9215 20.7128 20.198 21.54 20.5795 22.6641C21.005 22.0676 21.8 21.6057 22.754 21.4744C24.2815 21.2638 25.37 22.0943 25.5175 23.1921C25.5385 23.3487 25.54 23.5025 25.5205 23.6516C25.886 23.3877 26.3565 23.1959 26.8855 23.1227C28.188 22.9431 29.116 23.6474 29.2405 24.5797C29.2709 24.8095 29.2505 25.0322 29.1815 25.239Z" fill="#D6E0FD"/>
<path d="M28.461 26.1153C28.4665 26.1674 28.469 26.2208 28.469 26.2743C28.471 27.44 27.4535 28.3076 25.832 28.3053C25.291 28.3043 24.785 28.1993 24.3505 28.015C23.919 29.1081 22.6435 29.8481 20.824 29.8457C18.9925 29.8434 17.4406 29.0237 16.91 27.894C16.46 28.928 14.8136 29.6956 13.34 29.6933C11.6141 29.691 10.2131 28.6335 10.2111 27.3317C10.2111 27.3172 10.2111 27.3041 10.2121 27.2895C9.76107 27.6117 9.19008 27.803 8.56759 27.8025C7.10957 27.8007 5.92609 26.7432 5.92407 25.4419C5.9236 24.9903 6.06511 24.5687 6.3106 24.2109C6.3106 24.2109 6.23407 28.9561 11.2551 26.1153C11.2551 26.1153 14.4196 28.1463 16.8266 26.6644C16.8266 26.6644 19.3606 29.2708 21.495 28.2424C23.583 27.2375 22.9405 26.3123 22.911 26.2719C23.006 26.332 28.0785 29.5381 28.309 25.1423C28.309 25.1423 28.749 25.3031 29.181 25.2389C29.0685 25.5854 28.821 25.8888 28.461 26.1153Z" fill="#B6C7FA"/>
<path opacity="0.3" d="M25.5205 23.6521L25.0511 24.0808C25.0511 24.0808 23.22 22.2697 20.8686 23.925C20.8686 23.925 19.8265 21.6076 17.2976 22.2017C17.2976 22.2017 18.688 22.7865 19.1135 23.549C19.1135 23.549 17.1376 22.1712 15.1071 23.9171C15.1071 23.9171 12.4581 22.3597 9.97509 24.0606C9.97509 24.0606 8.57509 23.11 7.0481 23.5115C7.47659 23.2427 7.99763 23.0866 8.56011 23.0875C9.08659 23.0885 9.57758 23.2268 9.99058 23.4664C10.2481 22.409 11.3036 21.6174 12.5666 21.6188C13.2796 21.6197 13.9251 21.872 14.4001 22.2833C14.9091 21.3553 16.0616 20.7095 17.4046 20.7109C18.9205 20.7128 20.1971 21.54 20.5786 22.6641C21.0041 22.0676 21.799 21.6057 22.753 21.4744C24.2805 21.2638 25.369 22.0943 25.5165 23.1921C25.5385 23.3497 25.5396 23.503 25.5205 23.6521Z" fill="white"/>
<path opacity="0.6" d="M80.3691 70.7317C80.3691 70.7317 82.4011 67.1754 87.5367 66.5204C87.5367 66.5204 85.3358 66.12 83.1898 67.2726C81.0438 68.4256 80.3691 70.7317 80.3691 70.7317Z" fill="white"/>
<path d="M18.6691 26.1435C18.6691 26.1435 16.5855 26.8873 14.5085 25.8828C14.5085 25.8828 15.704 27.0955 16.684 27.0969C17.664 27.0978 18.6691 26.1435 18.6691 26.1435Z" fill="#B6C7FA"/>
<path opacity="0.6" d="M97.1215 67.1094C97.1215 67.1094 94.2459 73.6559 90.7041 76.5676C90.7041 76.5676 93.798 76.2357 97.1215 67.1094Z" fill="white"/>
<path d="M84.2334 70.8422C84.7475 70.3009 85.2334 69.7127 85.6578 69.1023C86.0808 68.485 86.4691 67.8333 86.6414 67.1094C86.5991 67.4789 86.4888 67.8408 86.3541 68.1925C85.932 69.2488 85.3071 70.2159 84.6109 71.1347L84.2334 70.8422Z" fill="#358F48"/>
<path d="M83.1886 71.5091C83.7567 71.3067 84.3623 71.2645 84.9595 71.2448C86.3957 71.2138 87.8351 71.465 89.2215 71.7927L90.0473 72.0082L89.2079 71.849C87.8262 71.619 86.3797 71.4636 84.9816 71.5884C84.4468 71.6415 83.6454 71.749 83.1553 71.9532L83.1886 71.5091Z" fill="#358F48"/>
<path d="M87.2459 69.4377C89.4206 69.0631 91.6605 69.1631 93.798 69.6603C93.2595 69.5781 92.7206 69.5063 92.1774 69.4781C91.0971 69.4082 90.0093 69.4485 88.9384 69.588C88.4074 69.6575 87.6501 69.7513 87.1501 69.8823L87.2459 69.4377Z" fill="#358F48"/>
<path d="M86.9799 69.4613C83.5799 70.6063 79.901 73.9749 78.8381 75.4998C78.1006 76.558 77.3804 78.3702 77.3804 78.3702L78.1165 78.4613C78.1165 78.4613 77.979 77.7566 79.1663 76.027C80.3536 74.2979 82.3071 72.2167 85.6513 70.5899C88.9954 68.9632 91.2353 68.865 94.7982 67.1796C98.3611 65.4941 98.8095 63.9453 98.8095 63.9453C97.7621 66.2416 90.4747 68.2833 86.9799 69.4613Z" fill="#358F48"/>
<path d="M88.271 69.0538C89.2198 68.4177 90.3935 67.5331 91.0583 66.6172C90.8062 67.127 90.4217 67.5731 90.0302 67.9956C89.6302 68.4214 89.21 68.8181 88.7602 69.2022L88.271 69.0538Z" fill="#358F48"/>
<path d="M81.1839 73.1328C83.2572 73.2774 85.8755 73.637 87.5891 74.7892C87.006 74.4399 86.3417 74.2211 85.6811 74.0483C84.7478 73.8258 83.7839 73.7 82.8243 73.6385C82.2759 73.6037 81.7205 73.5835 81.1797 73.5924L81.1839 73.1328Z" fill="#358F48"/>
<path d="M81.5803 72.702C82.3254 71.4362 82.793 69.9916 82.8493 68.5391C82.8709 68.9071 82.8836 69.279 82.8522 69.6494C82.7705 70.7757 82.4892 71.8733 82.0137 72.9165L81.5803 72.702Z" fill="#358F48"/>
<path opacity="0.4" d="M80.5841 41.4369C88.1729 41.4369 94.3245 35.6675 94.3245 28.5505C94.3245 21.4335 88.1729 15.6641 80.5841 15.6641C72.9959 15.6641 66.8442 21.4335 66.8442 28.5505C66.8442 35.6675 72.9959 41.4369 80.5841 41.4369Z" fill="#FFCD3B"/>
<path d="M80.584 39.8745C87.2525 39.8745 92.6581 34.8045 92.6581 28.5505C92.6581 22.2965 87.2525 17.2266 80.584 17.2266C73.9159 17.2266 68.5103 22.2965 68.5103 28.5505C68.5103 34.8045 73.9159 39.8745 80.584 39.8745Z" fill="#FFCD3B"/>
<path opacity="0.4" d="M80.5839 38.1997C86.2694 38.1997 90.8783 33.8772 90.8783 28.5452C90.8783 23.2131 86.2694 18.8906 80.5839 18.8906C74.899 18.8906 70.29 23.2131 70.29 28.5452C70.29 33.8772 74.899 38.1997 80.5839 38.1997Z" fill="#FF4A60"/>
<path opacity="0.4" d="M80.5839 34.4026C84.0332 34.4026 86.8295 31.78 86.8295 28.545C86.8295 25.31 84.0332 22.6875 80.5839 22.6875C77.1346 22.6875 74.3389 25.31 74.3389 28.545C74.3389 31.78 77.1346 34.4026 80.5839 34.4026Z" fill="#FF4A60"/>
<path opacity="0.4" d="M80.584 31.4864C82.3121 31.4864 83.7131 30.1726 83.7131 28.5518C83.7131 26.9311 82.3121 25.6172 80.584 25.6172C78.8563 25.6172 77.4553 26.9311 77.4553 28.5518C77.4553 30.1726 78.8563 31.4864 80.584 31.4864Z" fill="#FF4A60"/>
<path d="M81.7802 12.8479C81.7802 14.5121 80.5835 15.352 80.5835 15.352C80.5835 15.352 79.3872 14.5121 79.3872 12.8479C79.3872 11.1836 80.5835 10.3438 80.5835 10.3438C80.5835 10.3438 81.7802 11.1832 81.7802 12.8479Z" fill="#FFCD3B"/>
<path d="M75.0676 14.126C75.5159 15.1403 75.0126 15.9356 75.0126 15.9356C75.0126 15.9356 74.0577 15.7068 73.6098 14.6924C73.1619 13.6781 73.6648 12.8828 73.6648 12.8828C73.6648 12.8828 74.6197 13.1117 75.0676 14.126Z" fill="#FFCD3B"/>
<path d="M65.8085 22.0102C66.8897 22.4303 67.1338 23.326 67.1338 23.326C67.1338 23.326 66.2859 23.7978 65.2043 23.3776C64.123 22.9574 63.8789 22.0617 63.8789 22.0617C63.8789 22.0617 64.7268 21.59 65.8085 22.0102Z" fill="#FFCD3B"/>
<path d="M65.2043 33.7211C66.2859 33.3009 67.1338 33.7727 67.1338 33.7727C67.1338 33.7727 66.8897 34.6684 65.8085 35.0886C64.7268 35.5087 63.8789 35.037 63.8789 35.037C63.8789 35.037 64.123 34.1413 65.2043 33.7211Z" fill="#FFCD3B"/>
<path d="M73.6098 42.4073C74.0577 41.3929 75.0126 41.1641 75.0126 41.1641C75.0126 41.1641 75.5159 41.9594 75.0676 42.9737C74.6197 43.988 73.6648 44.2169 73.6648 44.2169C73.6648 44.2169 73.1619 43.4216 73.6098 42.4073Z" fill="#FFCD3B"/>
<path d="M86.1 42.9737C85.6521 41.9594 86.1554 41.1641 86.1554 41.1641C86.1554 41.1641 87.1103 41.3929 87.5582 42.4073C88.0061 43.4216 87.5032 44.2169 87.5032 44.2169C87.5032 44.2169 86.5483 43.988 86.1 42.9737Z" fill="#FFCD3B"/>
<path d="M95.3595 35.0885C94.2783 34.6684 94.0342 33.7727 94.0342 33.7727C94.0342 33.7727 94.8821 33.3009 95.9638 33.7211C97.045 34.1413 97.2891 35.0369 97.2891 35.0369C97.2891 35.0369 96.4412 35.5087 95.3595 35.0885Z" fill="#FFCD3B"/>
<path d="M95.9638 23.3776C94.8821 23.7978 94.0342 23.326 94.0342 23.326C94.0342 23.326 94.2783 22.4303 95.3595 22.0102C96.4412 21.59 97.2891 22.0617 97.2891 22.0617C97.2891 22.0617 97.045 22.9574 95.9638 23.3776Z" fill="#FFCD3B"/>
<path d="M87.5582 14.6924C87.1103 15.7068 86.1554 15.9356 86.1554 15.9356C86.1554 15.9356 85.6521 15.1403 86.1 14.126C86.5483 13.1117 87.5032 12.8828 87.5032 12.8828C87.5032 12.8828 88.0061 13.6781 87.5582 14.6924Z" fill="#FFCD3B"/>
<path d="M69.592 16.6542C70.8469 17.8312 70.6337 19.2183 70.6337 19.2183C70.6337 19.2183 69.1549 19.4176 67.8999 18.2411C66.6445 17.064 66.8577 15.6769 66.8577 15.6769C66.8577 15.6769 68.3366 15.4771 69.592 16.6542Z" fill="#FFCD3B"/>
<path d="M63.8418 27.4297C65.6165 27.4297 66.5118 28.5518 66.5118 28.5518C66.5118 28.5518 65.6165 29.674 63.8418 29.674C62.0672 29.674 61.1719 28.5518 61.1719 28.5518C61.1719 28.5518 62.0672 27.4297 63.8418 27.4297Z" fill="#FFCD3B"/>
<path d="M67.8999 38.8573C69.1549 37.6803 70.6337 37.88 70.6337 37.88C70.6337 37.88 70.8464 39.2672 69.592 40.4442C68.337 41.6212 66.8577 41.4215 66.8577 41.4215C66.8577 41.4215 66.6445 40.0339 67.8999 38.8573Z" fill="#FFCD3B"/>
<path d="M79.3877 44.2541C79.3877 42.5899 80.5839 41.75 80.5839 41.75C80.5839 41.75 81.7807 42.5899 81.7807 44.2541C81.7807 45.9184 80.5839 46.7583 80.5839 46.7583C80.5839 46.7583 79.3877 45.9184 79.3877 44.2541Z" fill="#FFCD3B"/>
<path d="M91.5765 40.4441C90.3216 39.267 90.5347 37.8799 90.5347 37.8799C90.5347 37.8799 92.0136 37.6807 93.2685 38.8572C94.5234 40.0338 94.3108 41.4214 94.3108 41.4214C94.3108 41.4214 92.8309 41.6211 91.5765 40.4441Z" fill="#FFCD3B"/>
<path d="M97.3262 29.674C95.5516 29.674 94.6562 28.5518 94.6562 28.5518C94.6562 28.5518 95.5516 27.4297 97.3262 27.4297C99.1004 27.4297 99.9962 28.5518 99.9962 28.5518C99.9962 28.5518 99.1004 29.674 97.3262 29.674Z" fill="#FFCD3B"/>
<path d="M93.2682 18.2411C92.0133 19.4181 90.5344 19.2183 90.5344 19.2183C90.5344 19.2183 90.3217 17.8312 91.5762 16.6542C92.8311 15.4771 94.3104 15.6769 94.3104 15.6769C94.3104 15.6769 94.5231 17.064 93.2682 18.2411Z" fill="#FFCD3B"/>
<path d="M32.7628 31.0234L13.7649 53.0809H6.60596L25.6038 31.0234H32.7628Z" fill="#FF4A60"/>
<path d="M40.8634 49.0213L27.588 34.1016L12.71 51.3824L11.2986 79.7012H42.5419L40.8634 49.0213Z" fill="#FFCD3B"/>
<path d="M79.3877 79.2661L77.6196 48.5859L40.8633 49.023L42.5418 79.7027L79.3877 79.2661Z" fill="#F57F35"/>
<path d="M59.7766 73.4461L45.6855 74.0447L44.5735 60.1616L58.664 59.5625L59.7766 73.4461Z" fill="#464F7A"/>
<path d="M76.5048 72.7112L62.4137 73.3103L61.3015 59.4272L75.3926 58.8281L76.5048 72.7112Z" fill="#464F7A"/>
<path d="M83.0558 53.4637L43.4008 54.804L25.6494 30.1641L65.6919 31.7753L83.0558 53.4637Z" fill="#FF4A60"/>
<path d="M43.4004 55.3979C43.1924 55.3979 42.9964 55.3027 42.8764 55.1423L25.5685 32.0199L7.10458 53.4574C6.88209 53.7153 6.47908 53.7557 6.20406 53.547C5.92908 53.3383 5.88608 52.9604 6.10805 52.7024L25.106 30.645C25.2325 30.4982 25.4275 30.4161 25.626 30.4222C25.827 30.4288 26.013 30.523 26.1285 30.6773L43.7249 54.1852L83.0329 52.8553C83.3869 52.8436 83.6831 53.1024 83.6958 53.434C83.7085 53.7655 83.4324 54.0441 83.0789 54.0558L43.4234 55.3974C43.4159 55.3979 43.4079 55.3979 43.4004 55.3979Z" fill="#EF2043"/>
<path d="M34.2598 57.1641H19.8384V79.7059H34.2598V57.1641Z" fill="#FF4A60"/>
<path d="M21.0874 57.1641H19.8379V79.7054H21.0874V57.1641Z" fill="#EF2043"/>
<path d="M31.411 70.0085C32.214 70.0085 32.865 69.3977 32.865 68.6446C32.865 67.8916 32.214 67.2812 31.411 67.2812C30.608 67.2812 29.957 67.8916 29.957 68.6446C29.957 69.3977 30.608 70.0085 31.411 70.0085Z" fill="#606C9C"/>
<path d="M32.8648 68.6472C32.8648 69.4007 32.2139 70.0106 31.4109 70.0106C30.8233 70.0106 30.3184 69.6848 30.0894 69.2148C30.3548 69.4867 30.7359 69.6557 31.1579 69.6557C31.9614 69.6557 32.6118 69.0453 32.6118 68.2923C32.6118 68.0895 32.5654 67.8989 32.4803 67.7266C32.7194 67.9693 32.8648 68.2928 32.8648 68.6472Z" fill="#464F7A"/>
<path opacity="0.2" d="M31.2723 68.3401C31.4694 68.103 31.4732 67.7965 31.2807 67.6561C31.0881 67.5152 30.7723 67.5932 30.5751 67.8303C30.378 68.0673 30.3743 68.3739 30.5668 68.5148C30.7593 68.6551 31.0751 68.5772 31.2723 68.3401Z" fill="white"/>
<path opacity="0.2" d="M31.9694 68.3096C32.0889 68.1654 32.091 67.9795 31.9741 67.8941C31.8571 67.8086 31.6655 67.8561 31.5459 67.9997C31.4263 68.1434 31.4242 68.3293 31.5412 68.4147C31.6581 68.5002 31.8498 68.4532 31.9694 68.3096Z" fill="white"/>
<path d="M60.3531 73.4461L46.2624 74.0447L45.1499 60.1616L59.2408 59.5625L60.3531 73.4461Z" fill="#606C9C"/>
<path d="M47.4276 72.7954L46.5078 61.3123L58.0746 60.8203L58.9948 72.3039L47.4276 72.7954Z" fill="#EAEEF6"/>
<path d="M58.0752 60.8203L58.9954 72.3034L58.1714 72.3386L57.2512 60.8551L58.0752 60.8203Z" fill="#B6C7FA"/>
<path d="M53.723 73.2736L52.831 73.3112L51.8042 60.499L52.6962 60.4609L53.723 73.2736Z" fill="#606C9C"/>
<path d="M45.9574 67.5892L45.8904 66.7536L59.57 66.1719L59.6362 67.0076L45.9574 67.5892Z" fill="#606C9C"/>
<path d="M77.0812 72.7112L62.9902 73.3103L61.8784 59.4272L75.9686 58.8281L77.0812 72.7112Z" fill="#606C9C"/>
<path d="M64.1563 72.0532L63.2361 60.5697L74.8032 60.0781L75.7234 71.5617L64.1563 72.0532Z" fill="#EAEEF6"/>
<path d="M74.8032 60.0781L75.7234 71.5612L74.8995 71.596L73.9797 60.1133L74.8032 60.0781Z" fill="#B6C7FA"/>
<path d="M70.4513 72.5388L69.5592 72.5768L68.533 59.7646L69.425 59.7266L70.4513 72.5388Z" fill="#606C9C"/>
<path d="M62.686 66.8544L62.6189 66.0187L76.2978 65.4375L76.3649 66.2727L62.686 66.8544Z" fill="#606C9C"/>
<path d="M32.0675 48.5876C32.0675 51.4776 29.598 53.7605 26.6281 53.6892C23.7391 53.6198 21.4541 51.3365 21.4541 48.5876C21.4541 45.8387 23.7391 43.5554 26.6281 43.486C29.598 43.4147 32.0675 45.698 32.0675 48.5876Z" fill="#606C9C"/>
<path d="M31.1344 48.5887C31.1344 50.9704 29.0994 52.8523 26.6514 52.7932C24.2705 52.736 22.3875 50.8541 22.3875 48.5887C22.3875 46.3232 24.2705 44.4414 26.6514 44.3841C29.099 44.3256 31.1344 46.2069 31.1344 48.5887Z" fill="#EAEEF6"/>
<path d="M27.0989 52.7834C26.9509 52.7937 26.8024 52.7979 26.6514 52.7937C24.2699 52.7369 22.3879 50.8551 22.3879 48.5897C22.3879 46.3242 24.2699 44.4428 26.6514 44.3842C26.8009 44.3805 26.9494 44.3842 27.0959 44.395C24.8229 44.5643 23.0594 46.3969 23.0594 48.5897C23.06 50.7838 24.8244 52.6164 27.0989 52.7834Z" fill="#B6C7FA"/>
<path d="M26.9205 43.9062H26.127V53.3216H26.9205V43.9062Z" fill="#606C9C"/>
<path d="M31.6332 48.9864V48.2422H21.5942V48.9864H31.6332Z" fill="#606C9C"/>
<path d="M83.9898 85.9971C77.4395 89.2529 68.0752 84.6417 68.0752 84.6417C68.0752 84.6417 64.6846 87.6562 56.4193 88.9867C48.1536 90.3177 45.0585 85.3375 45.0585 85.3375C45.0585 85.3375 25.8306 89.3351 18.2281 87.0694C10.6246 84.8051 14.2026 81.0539 14.2026 81.0539C11.0521 83.2905 3.69466 82.1666 5.66217 79.3821C6.60963 78.0421 8.89315 77.4004 11.4746 77.1337C16.3476 76.6313 22.2821 77.4656 22.2821 77.4656L27.5051 78.3299C27.5051 78.3299 34.7905 74.8445 43.3825 74.6224C50.5278 74.437 59.4189 79.2346 59.4189 79.2346C59.4189 79.2346 66.9907 76.5886 76.686 78.1943C78.724 78.5313 80.5175 78.9285 82.0184 79.3745C87.6578 81.0506 89.1639 83.4248 83.9898 85.9971Z" fill="#86BB6B"/>
<path d="M83.9898 86.0028C77.4395 89.2587 68.0752 84.6474 68.0752 84.6474C68.0752 84.6474 64.6846 87.662 56.4193 88.9925C48.1536 90.3235 45.0585 85.3432 45.0585 85.3432C45.0585 85.3432 25.8306 89.3409 18.2281 87.0751C10.6246 84.8108 14.2026 81.0596 14.2026 81.0596C11.0521 83.2963 3.69466 82.1723 5.66217 79.3878C6.60963 78.0479 8.89315 77.4061 11.4746 77.1395C10.7606 77.7995 10.0732 78.8235 10.4941 80.1343C11.2651 82.5395 18.1921 79.0568 18.1921 79.0568C18.1921 79.0568 15.6476 83.1118 21.8656 85.2409C28.0851 87.37 40.758 82.9465 42.329 80.5413C42.992 79.5282 41.044 77.754 41.5135 77.1592C41.982 76.5648 43.844 77.6052 44.497 78.4972C45.8795 80.3864 43.8525 84.3057 51.7067 86.0362C57.6879 87.354 65.1208 82.7324 66.94 81.7967C68.7578 80.8592 69.4489 81.8099 70.1395 83.0493C70.8297 84.2869 73.3015 85.8573 77.2034 85.5859C81.1062 85.3132 81.2377 83.0629 81.4607 81.0202C81.5532 80.1808 81.7818 79.6784 82.0189 79.3803C87.6578 81.0564 89.1639 83.4305 83.9898 86.0028Z" fill="#358F48"/>
<path d="M23.922 82.4864C24.5301 82.462 25.0095 82.1451 24.993 81.7779C24.9763 81.4113 24.4699 81.1333 23.8619 81.1577C23.2538 81.1817 22.7743 81.4986 22.7909 81.8657C22.8076 82.2329 23.314 82.5103 23.922 82.4864Z" fill="#358F48"/>
<path d="M26.6713 81.7117C27.0644 81.6962 27.3744 81.491 27.3637 81.2539C27.3529 81.0164 27.0255 80.837 26.6324 80.8525C26.2392 80.868 25.9292 81.0732 25.94 81.3107C25.9507 81.5478 26.2781 81.7276 26.6713 81.7117Z" fill="#358F48"/>
<path d="M78.5184 51.2964L45.1319 52.4246L30.187 31.6797L63.8996 33.0364L78.5184 51.2964Z" fill="#464F7A"/>
<path d="M32.6709 32.9844L63.2389 34.2144L76.0216 50.1808L45.7954 51.2022L32.6709 32.9844Z" fill="white"/>
<path opacity="0.9" d="M76.0221 50.1813L71.8192 50.3239L71.2465 50.3417L71.1915 50.3431L65.2272 50.5461L64.7662 50.5611H64.7648L64.6544 50.5654L62.1934 50.6484L58.6371 50.7684L58.0643 50.7876L54.638 50.9034L52.046 50.9907L51.4723 51.0099L45.7949 51.2022L41.0909 44.6731L40.7689 44.2257L37.7559 40.0452L37.7539 40.0433L36.8319 38.7612L36.5099 38.3134L32.6704 32.9844L34.8689 33.073L37.7574 33.1898L38.0294 33.2005L38.6349 33.2245L44.9769 33.48H44.9783L44.9994 33.4814L45.6059 33.5054L51.9718 33.7623L52.2873 33.774L52.5789 33.7863L56.0789 33.9274L58.9418 34.0427L59.5483 34.0671L63.239 34.2158L66.2314 37.9532L66.5882 38.3992L70.3652 43.1172L70.9615 43.8605L71.3183 44.3069L74.1408 47.8309L76.0221 50.1813Z" fill="#509DFF"/>
<path opacity="0.9" d="M52.0461 50.9933L51.4724 51.0125L46.637 44.6082L46.301 44.1622L42.1765 38.6977L41.8405 38.2518L38.0295 33.2031L38.635 33.2271L42.4215 38.2443L42.7595 38.6916L46.884 44.1548L47.2198 44.6007L52.0461 50.9933Z" fill="white"/>
<path opacity="0.9" d="M58.6377 50.7713L58.0644 50.7905L53.3363 44.5274L52.9982 44.0814L48.8738 38.6169L48.5377 38.1709L44.9995 33.4844L45.606 33.5083L49.1203 38.1634L49.4583 38.6094L53.5809 44.074L53.9189 44.5199L58.6377 50.7713Z" fill="white"/>
<path opacity="0.9" d="M65.2273 50.5416L64.6546 50.5608L60.0334 44.4388L59.6959 43.9929L55.5729 38.5283L55.2348 38.0824L51.9719 33.7578L52.579 33.7818L55.8179 38.0749L56.156 38.5208L60.2804 43.9854L60.6165 44.4313L65.2273 50.5416Z" fill="white"/>
<path opacity="0.9" d="M71.8194 50.3201L71.2466 50.3379L66.7311 44.3585L66.3949 43.9125L62.2705 38.448L61.9325 38.0007L58.9419 34.0391L59.5485 34.0634L62.5156 37.9946L62.8536 38.4405L66.9776 43.9051L67.3137 44.351L71.8194 50.3201Z" fill="white"/>
<g opacity="0.9">
<path d="M76.022 50.184L74.7703 50.2257L61.9116 34.1641L63.2389 34.2185L76.022 50.184Z" fill="#1C7DC6"/>
</g>
<path d="M66.5884 38.3991L62.8536 38.4441L62.2705 38.4516L56.156 38.5252L55.5729 38.5327L49.4583 38.6064L48.8738 38.6139L42.7595 38.6889L42.1765 38.695L36.832 38.7611L36.51 38.3133L41.8405 38.249L42.4215 38.2415L48.5377 38.1679L49.1203 38.1604L55.2348 38.0868L55.8179 38.0793L61.9325 38.0043L62.5156 37.9981L66.2316 37.9531L66.5884 38.3991Z" fill="white"/>
<path d="M71.3184 44.3058L67.3137 44.3536L66.7311 44.3611L60.6166 44.4348L60.0335 44.4422L53.9189 44.5159L53.3363 44.5234L47.2198 44.597L46.637 44.6045L41.091 44.6721L40.769 44.2247L46.301 44.1585L46.884 44.1511L52.9987 44.0774L53.5809 44.0699L59.6959 43.9963L60.2804 43.9888L66.395 43.9152L66.9776 43.9076L70.9616 43.8594L71.3184 44.3058Z" fill="white"/>
<path opacity="0.2" d="M62.1934 50.6484L58.6371 50.7684L58.0643 50.7876L54.638 50.9034L37.7559 40.0452L37.7539 40.0433L36.8319 38.7612L36.5099 38.3134L32.6704 32.9844L34.8689 33.073L62.1934 50.6484Z" fill="white"/>
<path opacity="0.2" d="M71.1915 50.3408L65.2271 50.5438L64.7661 50.5589H64.7647L37.7573 33.1875L38.0293 33.1983L38.6348 33.2222L44.9768 33.4777H44.9783L71.1915 50.3408Z" fill="white"/>
<path opacity="0.2" d="M74.1409 47.8303L52.2874 33.7734L52.5789 33.7856L56.0789 33.9268L70.3653 43.1166L70.9615 43.8599L71.3183 44.3063L74.1409 47.8303Z" fill="white"/>
<path d="M10.2829 76.7418C10.2829 76.7418 9.09698 75.6516 7.82298 75.7314C6.54899 75.8117 -0.221997 74.6573 0.00150201 68.6389C0.167001 64.1864 3.16349 57.9141 3.16349 57.9141C3.16349 57.9141 3.14899 59.9845 5.46946 61.6817C7.78998 63.3789 11.6425 65.785 12.8969 68.8521C14.3659 72.445 10.2829 76.7418 10.2829 76.7418Z" fill="#86BB6B"/>
<path d="M8.43609 68.2263C10.2175 70.8699 10.8566 75.2807 10.7075 76.9554C10.6041 78.1188 10.0316 79.8206 10.0316 79.8206L9.44008 79.4953C9.44008 79.4953 9.96707 79.0554 10.149 77.1648C10.3311 75.2737 10.169 72.7192 8.71956 69.7544C7.27008 66.7901 5.69858 65.5267 4.12558 62.4028C2.55209 59.2793 3.16359 57.9141 3.16359 57.9141C2.53659 60.1427 6.60459 65.5089 8.43609 68.2263Z" fill="#358F48"/>
<path d="M8.25554 68.0685C6.89902 66.6384 5.20855 65.5192 3.35205 64.7422C3.79355 64.9694 4.22955 65.2037 4.64155 65.4727C5.47005 65.9966 6.23756 66.6056 6.93254 67.2765C7.27653 67.6098 7.77104 68.0812 8.05601 68.4427L8.25554 68.0685Z" fill="#358F48"/>
<path d="M7.73957 67.2421C7.43408 66.2736 7.11506 65.005 7.18506 63.9844C7.06009 64.4895 7.07009 65.0186 7.0991 65.5346C7.13257 66.0581 7.19858 66.5708 7.29356 67.0891L7.73957 67.2421Z" fill="#358F48"/>
<path d="M9.5985 70.6944C9.55198 70.0263 9.554 69.3394 9.61451 68.6695C9.68048 67.9948 9.79198 67.3136 10.105 66.6953C9.91198 66.9864 9.774 67.3085 9.6585 67.6357C9.32648 68.6301 9.19601 69.6657 9.14648 70.7056L9.5985 70.6944Z" fill="#358F48"/>
<path d="M9.95416 71.7331C9.66312 71.2833 9.24815 70.9303 8.82463 70.5979C7.79815 69.8106 6.59815 69.2275 5.39068 68.7279L4.65967 68.4453L5.36664 68.7758C6.51167 69.3444 7.65866 70.0012 8.60063 70.8364C8.95815 71.1594 9.47566 71.6646 9.70965 72.0744L9.95416 71.7331Z" fill="#358F48"/>
<path d="M10.4311 73.985C8.83507 72.9869 6.71108 71.8545 4.76709 71.7812C5.4031 71.8371 6.01911 72.0315 6.6046 72.2573C7.41906 72.592 8.19657 73.0141 8.93207 73.4798C9.35207 73.7465 9.76859 74.0277 10.1571 74.3216L10.4311 73.985Z" fill="#358F48"/>
<path d="M10.4059 73.4556C10.6299 72.1378 11.164 70.8378 12.0019 69.75C11.7634 70.0063 11.5289 70.2702 11.328 70.5561C10.7059 71.4195 10.2459 72.3683 9.96143 73.3805L10.4059 73.4556Z" fill="#358F48"/>
<path opacity="0.6" d="M12.4761 72.6698C12.4761 72.6698 13.1496 68.9994 9.80762 65.7891C9.80762 65.7891 11.6521 66.6693 12.5161 68.6506C13.3806 70.6323 12.4761 72.6698 12.4761 72.6698Z" fill="white"/>
<path opacity="0.6" d="M2.47664 61.1172C2.47664 61.1172 0.607644 67.4125 1.42364 71.4177C1.42364 71.4177 -0.627351 69.5285 2.47664 61.1172Z" fill="white"/>
</g>
<defs>
<clipPath id="clip0_119_819">
<rect width="100" height="100" fill="white"/>
</clipPath>
</defs>
</svg>
