<svg width="213" height="168" viewBox="0 0 213 168" fill="none" xmlns="http://www.w3.org/2000/svg">
<path d="M143.756 157.849C173.231 145.241 193.718 117.365 193.718 84.9978C193.718 40.7982 155.514 4.9668 108.387 4.9668C61.2594 4.9668 23.0548 40.7982 23.0548 84.9978C23.0548 117.364 43.5421 145.241 73.0169 157.849H143.756Z" fill="#F9E8F8"/>
<path d="M169.03 138.957C169.03 138.957 172.838 138.552 175.034 140.393C177.231 142.235 191.3 149.145 199.999 137.896C206.434 129.573 210.473 114.171 210.473 114.171C210.473 114.171 207.366 117.958 200.576 117.958C193.785 117.958 183.134 117.209 176.211 121.122C168.101 125.704 169.03 138.957 169.03 138.957Z" fill="#86BB6B"/>
<path d="M113.877 19.7793C113.688 20.3576 113.274 20.865 112.672 21.2446C112.682 21.3325 112.685 21.4214 112.685 21.5103C112.688 23.461 110.986 24.9113 108.274 24.9083C107.368 24.9073 106.522 24.7315 105.795 24.4229C105.073 26.2518 102.94 27.4893 99.8954 27.4853C96.8314 27.4813 94.2349 26.1099 93.3467 24.2201C92.5938 25.9501 89.8397 27.2336 87.3742 27.2306C84.487 27.2266 82.1429 25.4577 82.1387 23.2802C82.1387 23.2563 82.1387 23.2333 82.1408 23.2093C81.3857 23.7477 80.4304 24.0683 79.3889 24.0673C76.949 24.0643 74.9691 22.2954 74.9659 20.1179C74.9649 19.3628 75.2024 18.6576 75.6124 18.0583C75.9287 17.5968 76.3504 17.1973 76.8467 16.8896C77.5635 16.4402 78.4346 16.1795 79.3761 16.1805C80.2568 16.1815 81.079 16.4132 81.7691 16.8147C82.1994 15.0458 83.9652 13.7213 86.0792 13.7233C87.272 13.7253 88.3519 14.1468 89.1474 14.835C89.9984 13.2818 91.9271 12.2021 94.1742 12.2051C96.71 12.2081 98.8463 13.5925 99.4843 15.4723C100.197 14.4744 101.526 13.7013 103.122 13.4826C105.678 13.131 107.498 14.5194 107.745 16.3563C107.781 16.619 107.783 16.8757 107.751 17.1244C108.362 16.6819 109.15 16.3613 110.034 16.2394C112.213 15.9387 113.766 17.1174 113.974 18.6766C114.027 19.0611 113.993 19.4337 113.877 19.7793Z" fill="#D6E0FD"/>
<path d="M112.672 21.2449C112.682 21.3328 112.685 21.4217 112.685 21.5106C112.688 23.4613 110.986 24.9116 108.274 24.9086C107.368 24.9076 106.522 24.7318 105.795 24.4232C105.073 26.2521 102.94 27.4896 99.8954 27.4856C96.8314 27.4817 94.2349 26.1102 93.3467 24.2204C92.5938 25.9504 89.8397 27.2339 87.3742 27.2309C84.487 27.2269 82.1429 25.458 82.1387 23.2805C82.1387 23.2566 82.1387 23.2336 82.1408 23.2096C81.3857 23.748 80.4304 24.0686 79.3889 24.0676C76.949 24.0646 74.9691 22.2957 74.9659 20.1182C74.9649 19.3631 75.2024 18.6579 75.6124 18.0586C75.6124 18.0586 75.4846 25.9974 83.8853 21.2449C83.8853 21.2449 89.1794 24.6429 93.2061 22.1638C93.2061 22.1638 97.4459 26.5248 101.017 24.8038C104.51 23.1227 103.435 21.5745 103.385 21.5076C103.544 21.6085 112.031 26.9722 112.417 19.6178C112.417 19.6178 113.152 19.8865 113.876 19.7796C113.688 20.3589 113.274 20.8663 112.672 21.2449Z" fill="#B6C7FA"/>
<path d="M96.2893 21.288C96.2893 21.288 92.8036 22.5326 89.3285 20.8525C89.3285 20.8525 91.3286 22.8812 92.9676 22.8832C94.6077 22.8852 96.2893 21.288 96.2893 21.288Z" fill="#B6C7FA"/>
<path opacity="0.3" d="M107.752 17.1254L106.967 17.8425C106.967 17.8425 103.904 14.8121 99.9699 17.5818C99.9699 17.5818 98.2265 13.7053 93.9953 14.6982C93.9953 14.6982 96.3212 15.676 97.0337 16.9526C97.0337 16.9526 93.728 14.6482 90.3306 17.5688C90.3306 17.5688 85.8992 14.9629 81.7446 17.8086C81.7446 17.8086 79.4027 16.2184 76.8478 16.8896C77.5645 16.4402 78.4357 16.1795 79.3771 16.1805C80.2579 16.1815 81.0801 16.4132 81.7702 16.8147C82.2004 15.0458 83.9662 13.7213 86.0802 13.7233C87.273 13.7253 88.3529 14.1468 89.1485 14.835C89.9994 13.2818 91.9281 12.2021 94.1753 12.2051C96.711 12.2081 98.8474 13.5925 99.4853 15.4723C100.198 14.4744 101.527 13.7013 103.123 13.4826C105.679 13.131 107.499 14.5194 107.746 16.3563C107.782 16.619 107.784 16.8757 107.752 17.1254Z" fill="white"/>
<path d="M62.1648 31.7356C61.9252 32.4718 61.3969 33.118 60.6312 33.6005C60.6429 33.7113 60.6482 33.8252 60.6482 33.9391C60.6525 36.4222 58.4852 38.27 55.0314 38.265C53.8791 38.263 52.8013 38.0393 51.8759 37.6468C50.9568 39.9751 48.24 41.5512 44.3644 41.5462C40.4634 41.5412 37.1576 39.7953 36.0277 37.3891C35.0692 39.5915 31.5621 41.2266 28.4236 41.2216C24.7472 41.2166 21.7631 38.9642 21.7588 36.1914C21.7588 36.1605 21.7588 36.1325 21.761 36.1015C20.8003 36.7878 19.5841 37.1953 18.2582 37.1943C15.1527 37.1903 12.6318 34.9379 12.6276 32.1661C12.6265 31.2042 12.9279 30.3063 13.4508 29.5442C13.8534 28.9569 14.3901 28.4484 15.0227 28.0559C15.9354 27.4836 17.0452 27.1509 18.2433 27.1529C19.3647 27.1549 20.4106 27.4496 21.2902 27.96C21.8387 25.7076 24.0869 24.0216 26.7771 24.0246C28.2958 24.0266 29.6707 24.5639 30.6824 25.4399C31.7666 23.4632 34.2214 22.0878 37.082 22.0908C40.3111 22.0948 43.03 23.8568 43.8426 26.251C44.7489 24.9805 46.4422 23.9966 48.4743 23.7169C51.7278 23.2685 54.0463 25.0374 54.3605 27.3757C54.4052 27.7093 54.4084 28.0369 54.3669 28.3545C55.1454 27.7922 56.1476 27.3837 57.2743 27.2279C60.0486 26.8453 62.0253 28.3456 62.2904 30.3313C62.3554 30.8207 62.3117 31.2951 62.1648 31.7356Z" fill="#D6E0FD"/>
<path d="M60.6301 33.6002C60.6418 33.7111 60.6471 33.825 60.6471 33.9388C60.6514 36.422 58.4841 38.2698 55.0303 38.2648C53.878 38.2628 52.8002 38.0391 51.8748 37.6465C50.9557 39.9748 48.2389 41.551 44.3633 41.546C40.4623 41.541 37.1565 39.795 36.0266 37.3888C35.0681 39.5913 31.561 41.2264 28.4225 41.2214C24.7461 41.2164 21.762 38.964 21.7577 36.1912C21.7577 36.1603 21.7577 36.1323 21.7599 36.1013C20.7992 36.7875 19.583 37.1951 18.2571 37.1941C15.1516 37.1901 12.6307 34.9377 12.6265 32.1659C12.6254 31.204 12.9268 30.3061 13.4497 29.5439C13.4497 29.5439 13.2868 39.6512 23.9815 33.6002C23.9815 33.6002 30.7218 37.9262 35.8487 34.7699C35.8487 34.7699 41.2461 40.3214 45.7926 38.131C50.24 35.9905 48.8715 34.0197 48.8086 33.9338C49.011 34.0617 59.8154 40.8908 60.3063 31.5276C60.3063 31.5276 61.2435 31.8702 62.1637 31.7334C61.9241 32.4715 61.3969 33.1178 60.6301 33.6002Z" fill="#B6C7FA"/>
<path opacity="0.3" d="M54.3668 28.3555L53.3667 29.2685C53.3667 29.2685 49.4667 25.411 44.4581 28.9369C44.4581 28.9369 42.2386 24.0006 36.8519 25.2661C36.8519 25.2661 39.8136 26.5117 40.7199 28.1358C40.7199 28.1358 36.5111 25.2012 32.1861 28.9199C32.1861 28.9199 26.5438 25.6027 21.255 29.2255C21.255 29.2255 18.273 27.2009 15.0205 28.0559C15.9332 27.4836 17.0429 27.1509 18.2411 27.1529C19.3625 27.1549 20.4083 27.4496 21.288 27.96C21.8365 25.7076 24.0847 24.0216 26.7749 24.0246C28.2935 24.0266 29.6685 24.5639 30.6802 25.4399C31.7644 23.4632 34.2192 22.0878 37.0798 22.0908C40.3088 22.0948 43.0278 23.8568 43.8404 26.251C44.7467 24.9805 46.44 23.9966 48.472 23.7169C51.7256 23.2685 54.0441 25.0374 54.3583 27.3757C54.4051 27.7113 54.4072 28.0379 54.3668 28.3555Z" fill="white"/>
<path opacity="0.6" d="M171.195 128.633C171.195 128.633 175.522 121.058 186.461 119.664C186.461 119.664 181.773 118.811 177.202 121.266C172.631 123.722 171.195 128.633 171.195 128.633Z" fill="white"/>
<path d="M39.7732 33.6559C39.7732 33.6559 35.3354 35.2401 30.9114 33.1006C30.9114 33.1006 33.4578 35.6836 35.5452 35.6866C37.6326 35.6886 39.7732 33.6559 39.7732 33.6559Z" fill="#B6C7FA"/>
<path opacity="0.6" d="M206.877 120.913C206.877 120.913 200.753 134.857 193.208 141.059C193.208 141.059 199.798 140.352 206.877 120.913Z" fill="white"/>
<path d="M179.425 128.864C180.52 127.71 181.555 126.458 182.459 125.158C183.36 123.843 184.188 122.454 184.554 120.913C184.464 121.7 184.229 122.47 183.943 123.219C183.043 125.47 181.713 127.529 180.229 129.487C180.229 129.486 179.425 128.864 179.425 128.864Z" fill="#358F48"/>
<path d="M177.2 130.287C178.41 129.856 179.7 129.766 180.972 129.723C184.031 129.657 187.097 130.193 190.05 130.891L191.809 131.349L190.022 131.011C187.078 130.52 183.997 130.19 181.019 130.455C179.88 130.568 178.174 130.798 177.129 131.233L177.2 130.287Z" fill="#358F48"/>
<path d="M185.843 125.871C190.474 125.073 195.246 125.286 199.798 126.344C198.651 126.17 197.503 126.017 196.347 125.957C194.045 125.808 191.728 125.894 189.448 126.191C188.317 126.338 186.703 126.539 185.638 126.818L185.843 125.871Z" fill="#358F48"/>
<path d="M185.275 125.918C178.033 128.357 170.197 135.533 167.934 138.78C166.362 141.035 164.828 144.894 164.828 144.894L166.396 145.089C166.396 145.089 166.103 143.588 168.632 139.904C171.162 136.22 175.323 131.787 182.445 128.322C189.568 124.858 194.339 124.649 201.928 121.059C209.517 117.469 210.472 114.17 210.472 114.17C208.242 119.06 192.719 123.41 185.275 125.918Z" fill="#358F48"/>
<path d="M188.025 125.062C190.046 123.707 192.546 121.823 193.962 119.872C193.425 120.958 192.606 121.908 191.772 122.808C190.92 123.715 190.025 124.56 189.067 125.378L188.025 125.062Z" fill="#358F48"/>
<path d="M172.931 133.743C177.346 134.051 182.923 134.817 186.573 137.271C185.331 136.527 183.916 136.06 182.509 135.693C180.521 135.218 178.469 134.951 176.424 134.82C175.257 134.746 174.073 134.703 172.921 134.722L172.931 133.743Z" fill="#358F48"/>
<path d="M173.774 132.818C175.361 130.122 176.357 127.045 176.477 123.951C176.523 124.734 176.551 125.526 176.484 126.315C176.309 128.715 175.71 131.053 174.698 133.274C174.696 133.273 173.774 132.818 173.774 132.818Z" fill="#358F48"/>
<path opacity="0.4" d="M171.653 66.2273C187.816 66.2273 200.919 53.9384 200.919 38.7792C200.919 23.62 187.816 11.3311 171.653 11.3311C155.489 11.3311 142.386 23.62 142.386 38.7792C142.386 53.9384 155.489 66.2273 171.653 66.2273Z" fill="#FFCD3B"/>
<path d="M171.653 62.8992C185.856 62.8992 197.37 52.1003 197.37 38.7792C197.37 25.4581 185.856 14.6592 171.653 14.6592C157.449 14.6592 145.935 25.4581 145.935 38.7792C145.935 52.1003 157.449 62.8992 171.653 62.8992Z" fill="#FFCD3B"/>
<path opacity="0.4" d="M171.653 59.3431C183.762 59.3431 193.579 50.1362 193.579 38.779C193.579 27.4217 183.762 18.2148 171.653 18.2148C159.543 18.2148 149.726 27.4217 149.726 38.779C149.726 50.1362 159.543 59.3431 171.653 59.3431Z" fill="#FF4A60"/>
<path opacity="0.4" d="M171.653 51.2558C179 51.2558 184.955 45.6698 184.955 38.7792C184.955 31.8887 179 26.3027 171.653 26.3027C164.306 26.3027 158.35 31.8887 158.35 38.7792C158.35 45.6698 164.306 51.2558 171.653 51.2558Z" fill="#FF4A60"/>
<path opacity="0.4" d="M171.653 45.0298C175.333 45.0298 178.317 42.2313 178.317 38.7791C178.317 35.3269 175.333 32.5283 171.653 32.5283C167.972 32.5283 164.988 35.3269 164.988 38.7791C164.988 42.2313 167.972 45.0298 171.653 45.0298Z" fill="#FF4A60"/>
<path d="M174.2 5.3338C174.2 8.87869 171.652 10.6676 171.652 10.6676C171.652 10.6676 169.103 8.87869 169.103 5.3338C169.103 1.78892 171.652 0 171.652 0C171.652 0 174.2 1.78792 174.2 5.3338Z" fill="#FFCD3B"/>
<path d="M159.903 8.05613C160.857 10.2166 159.785 11.9107 159.785 11.9107C159.785 11.9107 157.751 11.4232 156.797 9.26273C155.843 7.10224 156.914 5.4082 156.914 5.4082C156.914 5.4082 158.948 5.89564 159.903 8.05613Z" fill="#FFCD3B"/>
<path d="M140.18 24.8458C142.483 25.7407 143.003 27.6485 143.003 27.6485C143.003 27.6485 141.197 28.6533 138.893 27.7584C136.59 26.8634 136.07 24.9556 136.07 24.9556C136.07 24.9556 137.876 23.9508 140.18 24.8458Z" fill="#FFCD3B"/>
<path d="M138.893 49.7979C141.197 48.9029 143.003 49.9078 143.003 49.9078C143.003 49.9078 142.483 51.8156 140.18 52.7105C137.876 53.6055 136.07 52.6006 136.07 52.6006C136.07 52.6006 136.59 50.6929 138.893 49.7979Z" fill="#FFCD3B"/>
<path d="M156.797 68.2954C157.751 66.1349 159.785 65.6475 159.785 65.6475C159.785 65.6475 160.857 67.3415 159.903 69.502C158.948 71.6625 156.914 72.1499 156.914 72.1499C156.914 72.1499 155.843 70.4559 156.797 68.2954Z" fill="#FFCD3B"/>
<path d="M183.402 69.502C182.447 67.3415 183.519 65.6475 183.519 65.6475C183.519 65.6475 185.553 66.1349 186.507 68.2954C187.461 70.4559 186.39 72.1499 186.39 72.1499C186.39 72.1499 184.356 71.6625 183.402 69.502Z" fill="#FFCD3B"/>
<path d="M203.124 52.7115C200.821 51.8165 200.301 49.9088 200.301 49.9088C200.301 49.9088 202.107 48.9039 204.411 49.7989C206.714 50.6938 207.234 52.6016 207.234 52.6016C207.234 52.6016 205.428 53.6065 203.124 52.7115Z" fill="#FFCD3B"/>
<path d="M204.411 27.7584C202.107 28.6533 200.301 27.6485 200.301 27.6485C200.301 27.6485 200.821 25.7407 203.124 24.8458C205.428 23.9508 207.234 24.9556 207.234 24.9556C207.234 24.9556 206.714 26.8634 204.411 27.7584Z" fill="#FFCD3B"/>
<path d="M186.507 9.26273C185.553 11.4232 183.519 11.9107 183.519 11.9107C183.519 11.9107 182.447 10.2166 183.402 8.05613C184.356 5.89564 186.39 5.4082 186.39 5.4082C186.39 5.4082 187.461 7.10224 186.507 9.26273Z" fill="#FFCD3B"/>
<path d="M148.239 13.439C150.912 15.9461 150.458 18.9006 150.458 18.9006C150.458 18.9006 147.308 19.3252 144.635 16.8191C141.962 14.312 142.415 11.3574 142.415 11.3574C142.415 11.3574 145.566 10.9319 148.239 13.439Z" fill="#FFCD3B"/>
<path d="M135.991 36.3887C139.771 36.3887 141.678 38.7789 141.678 38.7789C141.678 38.7789 139.771 41.1691 135.991 41.1691C132.211 41.1691 130.304 38.7789 130.304 38.7789C130.304 38.7789 132.211 36.3887 135.991 36.3887Z" fill="#FFCD3B"/>
<path d="M144.635 60.7388C147.308 58.2317 150.458 58.6572 150.458 58.6572C150.458 58.6572 150.911 61.6118 148.239 64.1189C145.567 66.6259 142.415 66.2005 142.415 66.2005C142.415 66.2005 141.962 63.2449 144.635 60.7388Z" fill="#FFCD3B"/>
<path d="M169.104 72.2244C169.104 68.6795 171.653 66.8906 171.653 66.8906C171.653 66.8906 174.201 68.6795 174.201 72.2244C174.201 75.7693 171.653 77.5582 171.653 77.5582C171.653 77.5582 169.104 75.7693 169.104 72.2244Z" fill="#FFCD3B"/>
<path d="M195.066 64.1177C192.393 61.6107 192.847 58.6561 192.847 58.6561C192.847 58.6561 195.997 58.2316 198.67 60.7377C201.344 63.2438 200.89 66.1993 200.89 66.1993C200.89 66.1993 197.739 66.6248 195.066 64.1177Z" fill="#FFCD3B"/>
<path d="M207.313 41.1681C203.533 41.1681 201.626 38.7779 201.626 38.7779C201.626 38.7779 203.533 36.3877 207.313 36.3877C211.093 36.3877 213 38.7779 213 38.7779C213 38.7779 211.093 41.1681 207.313 41.1681Z" fill="#FFCD3B"/>
<path d="M198.669 16.8191C195.996 19.3261 192.846 18.9006 192.846 18.9006C192.846 18.9006 192.393 15.9461 195.065 13.439C197.739 10.9319 200.889 11.3574 200.889 11.3574C200.889 11.3574 201.343 14.312 198.669 16.8191Z" fill="#FFCD3B"/>
<path d="M69.7932 44.0557L29.3276 91.0381H14.079L54.5446 44.0557H69.7932Z" fill="#FF4A60"/>
<path d="M87.0472 82.3894L58.7705 50.6104L27.0805 87.4186L24.074 147.738H90.6224L87.0472 82.3894Z" fill="#FFCD3B"/>
<path d="M169.104 146.807L165.338 81.458L87.0471 82.3889L90.6223 147.737L169.104 146.807Z" fill="#F57F35"/>
<path d="M127.332 134.411L97.318 135.687L94.9495 106.115L124.962 104.84L127.332 134.411Z" fill="#464F7A"/>
<path d="M162.963 132.844L132.95 134.12L130.58 104.549L160.594 103.272L162.963 132.844Z" fill="#464F7A"/>
<path d="M176.917 91.8413L92.452 94.6959L54.6415 42.2129L139.932 45.6449L176.917 91.8413Z" fill="#FF4A60"/>
<path d="M92.451 95.9753C92.008 95.9753 91.5905 95.7725 91.3349 95.4309L54.469 46.1801L15.1408 91.8421C14.6669 92.3914 13.8085 92.4773 13.2228 92.0328C12.637 91.5884 12.5454 90.7833 13.0183 90.2339L53.4839 43.2515C53.7533 42.9389 54.1687 42.7641 54.5915 42.777C55.0196 42.791 55.4158 42.9918 55.6618 43.3204L93.1422 93.3923L176.868 90.5596C177.622 90.5346 178.253 91.0859 178.28 91.7921C178.307 92.4983 177.719 93.0916 176.966 93.1166L92.5 95.9743C92.484 95.9753 92.467 95.9753 92.451 95.9753Z" fill="#EF2043"/>
<path d="M72.9818 99.7236H42.2642V147.738H72.9818V99.7236Z" fill="#FF4A60"/>
<path d="M44.9245 99.7227H42.2631V147.736H44.9245V99.7227Z" fill="#EF2043"/>
<path d="M66.9134 127.087C68.6238 127.087 70.0104 125.786 70.0104 124.182C70.0104 122.578 68.6238 121.277 66.9134 121.277C65.203 121.277 63.8164 122.578 63.8164 124.182C63.8164 125.786 65.203 127.087 66.9134 127.087Z" fill="#606C9C"/>
<path d="M70.0104 124.18C70.0104 125.786 68.6238 127.085 66.9134 127.085C65.662 127.085 64.5864 126.391 64.0986 125.39C64.6641 125.968 65.4757 126.329 66.3745 126.329C68.086 126.329 69.4715 125.028 69.4715 123.424C69.4715 122.993 69.3725 122.586 69.1914 122.22C69.7005 122.737 70.0104 123.425 70.0104 124.18Z" fill="#464F7A"/>
<path opacity="0.2" d="M66.6183 123.535C67.0382 123.03 67.0462 122.377 66.6362 122.077C66.2262 121.777 65.5534 121.944 65.1335 122.449C64.7136 122.954 64.7056 123.606 65.1156 123.906C65.5256 124.206 66.1984 124.04 66.6183 123.535Z" fill="white"/>
<path opacity="0.2" d="M68.1029 123.471C68.3575 123.165 68.362 122.769 68.1129 122.587C67.8638 122.405 67.4555 122.505 67.2009 122.812C66.9463 123.118 66.9418 123.514 67.1909 123.696C67.44 123.878 67.8483 123.778 68.1029 123.471Z" fill="white"/>
<path d="M128.56 134.411L98.547 135.687L96.1774 106.115L126.191 104.84L128.56 134.411Z" fill="#606C9C"/>
<path d="M101.03 133.017L99.0699 108.558L123.708 107.51L125.667 131.969L101.03 133.017Z" fill="#EAEEF6"/>
<path d="M123.709 107.511L125.668 131.969L123.913 132.044L121.953 107.585L123.709 107.511Z" fill="#B6C7FA"/>
<path d="M114.438 134.039L112.538 134.119L110.351 106.83L112.251 106.749L114.438 134.039Z" fill="#606C9C"/>
<path d="M97.8973 121.943L97.7546 120.163L126.892 118.925L127.034 120.705L97.8973 121.943Z" fill="#606C9C"/>
<path d="M164.191 132.844L134.178 134.12L131.809 104.549L161.822 103.272L164.191 132.844Z" fill="#606C9C"/>
<path d="M136.661 131.449L134.702 106.989L159.339 105.941L161.299 130.402L136.661 131.449Z" fill="#EAEEF6"/>
<path d="M159.339 105.942L161.299 130.402L159.545 130.476L157.585 106.017L159.339 105.942Z" fill="#B6C7FA"/>
<path d="M150.069 132.471L148.169 132.552L145.983 105.262L147.883 105.181L150.069 132.471Z" fill="#606C9C"/>
<path d="M133.529 120.376L133.386 118.596L162.522 117.357L162.665 119.136L133.529 120.376Z" fill="#606C9C"/>
<path d="M68.3117 81.4587C68.3117 87.6146 63.0517 92.4769 56.7257 92.3251C50.5721 92.1773 45.7051 87.3139 45.7051 81.4587C45.7051 75.6035 50.5721 70.7402 56.7257 70.5923C63.0517 70.4405 68.3117 75.3039 68.3117 81.4587Z" fill="#606C9C"/>
<path d="M66.3245 81.4584C66.3245 86.5316 61.99 90.5399 56.7758 90.414C51.7043 90.2922 47.6935 86.2838 47.6935 81.4584C47.6935 76.633 51.7043 72.6247 56.7758 72.5028C61.9889 72.378 66.3245 76.3853 66.3245 81.4584Z" fill="#EAEEF6"/>
<path d="M57.729 90.3903C57.4137 90.4123 57.0974 90.4213 56.7758 90.4123C51.7032 90.2914 47.6946 86.2831 47.6946 81.4577C47.6946 76.6323 51.7032 72.6249 56.7758 72.5001C57.0942 72.4921 57.4105 72.5001 57.7226 72.5231C52.8811 72.8836 49.1249 76.7871 49.1249 81.4577C49.1259 86.1313 52.8843 90.0347 57.729 90.3903Z" fill="#B6C7FA"/>
<path d="M57.3487 71.4961H55.6586V91.5508H57.3487V71.4961Z" fill="#606C9C"/>
<path d="M67.3868 82.3166V80.7314H46.0039V82.3166H67.3868Z" fill="#606C9C"/>
<path d="M178.906 161.152C164.954 168.087 145.009 158.264 145.009 158.264C145.009 158.264 137.786 164.686 120.181 167.52C102.575 170.354 95.9825 159.747 95.9825 159.747C95.9825 159.747 55.0271 168.262 38.8338 163.435C22.6384 158.613 30.2595 150.622 30.2595 150.622C23.549 155.387 7.87756 152.993 12.0683 147.061C14.0865 144.208 18.9503 142.84 24.4489 142.273C34.8283 141.202 47.4688 142.979 47.4688 142.979L58.5937 144.821C58.5937 144.821 74.1118 137.397 92.4127 136.923C107.632 136.529 126.57 146.748 126.57 146.748C126.57 146.748 142.699 141.111 163.349 144.531C167.69 145.25 171.51 146.096 174.707 147.045C186.719 150.615 189.927 155.672 178.906 161.152Z" fill="#86BB6B"/>
<path d="M178.906 161.152C164.954 168.087 145.009 158.264 145.009 158.264C145.009 158.264 137.786 164.686 120.181 167.52C102.575 170.354 95.9825 159.747 95.9825 159.747C95.9825 159.747 55.0271 168.262 38.8338 163.435C22.6384 158.613 30.2595 150.622 30.2595 150.622C23.549 155.387 7.87756 152.993 12.0683 147.061C14.0865 144.208 18.9503 142.84 24.4489 142.273C22.9281 143.678 21.4637 145.86 22.3604 148.652C24.0027 153.775 38.7571 146.356 38.7571 146.356C38.7571 146.356 33.3373 154.994 46.5816 159.529C59.8291 164.064 86.8225 154.642 90.1687 149.519C91.5809 147.361 87.4317 143.581 88.4317 142.315C89.4296 141.048 93.3956 143.265 94.7865 145.165C97.7312 149.189 93.4137 157.536 110.143 161.223C122.883 164.03 138.715 154.186 142.59 152.192C146.462 150.196 147.934 152.22 149.405 154.86C150.876 157.496 156.14 160.841 164.451 160.264C172.764 159.683 173.045 154.889 173.52 150.538C173.717 148.75 174.203 147.681 174.708 147.045C186.719 150.615 189.927 155.672 178.906 161.152Z" fill="#358F48"/>
<path d="M50.9619 153.669C52.2571 153.618 53.2784 152.942 53.243 152.161C53.2076 151.379 52.129 150.788 50.8338 150.839C49.5386 150.891 48.5173 151.566 48.5527 152.348C48.5881 153.129 49.6667 153.721 50.9619 153.669Z" fill="#358F48"/>
<path d="M56.8181 152.016C57.6555 151.983 58.3158 151.546 58.2929 151.04C58.27 150.535 57.5727 150.152 56.7352 150.186C55.8978 150.219 55.2375 150.656 55.2604 151.161C55.2833 151.667 55.9807 152.049 56.8181 152.016Z" fill="#358F48"/>
<path d="M167.252 87.2366L96.1391 89.6398L64.3064 45.4531L136.114 48.3428L167.252 87.2366Z" fill="#464F7A"/>
<path d="M69.5973 48.2266L134.707 50.8465L161.935 84.855L97.5524 87.0305L69.5973 48.2266Z" fill="white"/>
<path opacity="0.9" d="M161.936 84.855L152.983 85.1587L151.763 85.1967L151.647 85.1996L138.942 85.6321L137.96 85.6641H137.957L137.722 85.6731L132.48 85.8499L124.906 86.1056L123.685 86.1465L116.387 86.3933L110.866 86.579L109.644 86.62L97.5513 87.0295L87.5318 73.1227L86.8459 72.1698L80.4283 63.2651L80.424 63.2611L78.4602 60.5303L77.7743 59.5764L69.5962 48.2256L74.279 48.4144L80.4315 48.6631L81.0108 48.686L82.3005 48.737L95.8089 49.2814H95.8121L95.8569 49.2844L97.1487 49.3353L110.708 49.8827L111.38 49.9076L112.001 49.9336L119.456 50.2343L125.554 50.48L126.846 50.5319L134.707 50.8485L141.081 58.8093L141.841 59.7592L149.886 69.8085L151.156 71.3917L151.916 72.3426L157.928 79.8489L161.936 84.855Z" fill="#509DFF"/>
<path opacity="0.9" d="M110.866 86.5795L109.644 86.6205L99.3448 72.9793L98.6291 72.0294L89.8439 60.3899L89.1283 59.44L81.0109 48.6865L82.3006 48.7375L90.3658 59.4241L91.0857 60.3769L99.8709 72.0134L100.587 72.9633L110.866 86.5795Z" fill="white"/>
<path opacity="0.9" d="M124.906 86.1054L123.685 86.1464L113.615 72.8059L112.895 71.856L104.11 60.2165L103.393 59.2666L95.8569 49.2842L97.1488 49.3351L104.635 59.2506L105.355 60.2005L114.135 71.84L114.855 72.7899L124.906 86.1054Z" fill="white"/>
<path opacity="0.9" d="M138.942 85.6323L137.722 85.6732L127.879 72.6334L127.16 71.6835L118.378 60.044L117.658 59.0941L110.708 49.8828L112.001 49.9338L118.9 59.0781L119.62 60.028L128.405 71.6675L129.121 72.6174L138.942 85.6323Z" fill="white"/>
<path opacity="0.9" d="M152.983 85.1592L151.763 85.1971L142.145 72.4609L141.429 71.511L132.644 59.8716L131.924 58.9187L125.554 50.4805L126.846 50.5324L133.166 58.9057L133.886 59.8556L142.67 71.4951L143.387 72.445L152.983 85.1592Z" fill="white"/>
<g opacity="0.9">
<path d="M161.936 84.8548L159.269 84.9437L131.88 50.7324L134.707 50.8483L161.936 84.8548Z" fill="#1C7DC6"/>
</g>
<path d="M141.841 59.7595L133.886 59.8554L132.644 59.8713L119.62 60.0282L118.378 60.0441L105.355 60.201L104.11 60.2169L91.0858 60.3768L89.844 60.3897L78.4603 60.5306L77.7744 59.5767L89.1283 59.4398L90.3659 59.4239L103.393 59.267L104.635 59.2511L117.659 59.0942L118.9 59.0783L131.924 58.9184L133.166 58.9055L141.081 58.8096L141.841 59.7595Z" fill="white"/>
<path d="M151.916 72.3435L143.387 72.4453L142.145 72.4613L129.121 72.6182L127.879 72.6341L114.855 72.791L113.615 72.8069L100.587 72.9638L99.3447 72.9797L87.5318 73.1236L86.8459 72.1707L98.6291 72.0298L99.8708 72.0139L112.895 71.857L114.135 71.8411L127.16 71.6842L128.405 71.6683L141.429 71.5114L142.67 71.4954L151.156 71.3926L151.916 72.3435Z" fill="white"/>
<path opacity="0.2" d="M132.48 85.8518L124.906 86.1075L123.685 86.1485L116.387 86.3952L80.4283 63.2671L80.424 63.2631L78.4602 60.5322L77.7743 59.5784L69.5962 48.2275L74.279 48.4163L132.48 85.8518Z" fill="white"/>
<path opacity="0.2" d="M151.647 85.2016L138.942 85.6341L137.96 85.6661H137.957L80.4314 48.665L81.0108 48.688L82.3005 48.739L95.8089 49.2833H95.8121L151.647 85.2016Z" fill="white"/>
<path opacity="0.2" d="M157.928 79.8504L111.38 49.9092L112.001 49.9352L119.456 50.2358L149.886 69.8101L151.156 71.3932L151.916 72.3441L157.928 79.8504Z" fill="white"/>
<path d="M21.911 141.427C21.911 141.427 19.3849 139.104 16.6712 139.275C13.9576 139.446 -0.464533 136.987 0.0115196 124.168C0.364033 114.684 6.74655 101.323 6.74655 101.323C6.74655 101.323 6.71567 105.734 11.6583 109.349C16.601 112.964 24.8067 118.089 27.4788 124.622C30.6078 132.274 21.911 141.427 21.911 141.427Z" fill="#86BB6B"/>
<path d="M17.9769 123.288C21.7715 128.918 23.1326 138.313 22.8152 141.881C22.5948 144.358 21.3753 147.984 21.3753 147.984L20.1154 147.291C20.1154 147.291 21.2379 146.354 21.6256 142.327C22.0133 138.298 21.6682 132.858 18.5808 126.543C15.4934 120.228 12.1461 117.537 8.7956 110.884C5.44406 104.231 6.74655 101.322 6.74655 101.322C5.41105 106.07 14.0759 117.499 17.9769 123.288Z" fill="#358F48"/>
<path d="M17.5925 122.952C14.7032 119.905 11.1024 117.521 7.14807 115.867C8.08846 116.351 9.01714 116.85 9.8947 117.422C11.6594 118.539 13.2942 119.836 14.7745 121.265C15.5072 121.975 16.5605 122.979 17.1676 123.749L17.5925 122.952Z" fill="#358F48"/>
<path d="M16.4934 121.202C15.8427 119.139 15.1633 116.437 15.3124 114.263C15.0461 115.338 15.0674 116.466 15.1292 117.565C15.2005 118.68 15.3411 119.771 15.5435 120.876L16.4934 121.202Z" fill="#358F48"/>
<path d="M20.453 128.546C20.3539 127.124 20.3582 125.661 20.4871 124.233C20.6276 122.797 20.8651 121.346 21.5318 120.028C21.1207 120.649 20.8268 121.335 20.5808 122.032C19.8736 124.15 19.5957 126.356 19.4902 128.57L20.453 128.546Z" fill="#358F48"/>
<path d="M21.2102 130.767C20.5904 129.809 19.7064 129.057 18.8044 128.348C16.618 126.671 14.062 125.43 11.49 124.366L9.93298 123.764L11.4389 124.468C13.8777 125.678 16.3208 127.078 18.3273 128.857C19.0887 129.545 20.191 130.621 20.6894 131.494C20.6894 131.493 21.2102 130.767 21.2102 130.767Z" fill="#358F48"/>
<path d="M22.2263 135.555C18.8268 133.428 14.3027 131.017 10.162 130.86C11.5167 130.979 12.8287 131.394 14.0758 131.875C15.8107 132.587 17.4668 133.486 19.0334 134.479C19.928 135.046 20.8151 135.646 21.6426 136.272L22.2263 135.555Z" fill="#358F48"/>
<path d="M22.173 134.433C22.6501 131.626 23.7875 128.856 25.5724 126.54C25.0644 127.085 24.565 127.648 24.1368 128.257C22.812 130.096 21.8322 132.117 21.2262 134.273C21.2251 134.273 22.173 134.433 22.173 134.433Z" fill="#358F48"/>
<path opacity="0.6" d="M26.5821 132.76C26.5821 132.76 28.0166 124.942 20.8982 118.104C20.8982 118.104 24.827 119.978 26.6673 124.198C28.5087 128.42 26.5821 132.76 26.5821 132.76Z" fill="white"/>
<path opacity="0.6" d="M5.28326 108.146C5.28326 108.146 1.3023 121.555 3.04037 130.086C3.04037 130.085 -1.32824 126.062 5.28326 108.146Z" fill="white"/>
</svg>
