<svg width="567" height="395" viewBox="0 0 567 395" fill="none" xmlns="http://www.w3.org/2000/svg">
<mask id="mask0_159_277" style="mask-type:luminance" maskUnits="userSpaceOnUse" x="26" y="60" width="540" height="300">
<path d="M26 60H566V195V360H26V196.5V60Z" fill="white"/>
</mask>
<g mask="url(#mask0_159_277)">
<path d="M26 196.5L26.0028 197.5L566.003 196L566 195L565.997 194L25.9972 195.5L26 196.5ZM26 60V58H24V60H26ZM566 60H568V58H566V60ZM566 360V362H568V360H566ZM26 360H24V362H26V360ZM26 60V62H566V60V58H26V60ZM566 360V358H26V360V362H566V360ZM26 360H28V196.5H26H24V360H26ZM26 196.5H28V60H26H24V196.5H26ZM566 60H564V195H566H568V60H566ZM566 195H564V360H566H568V195H566Z" fill="black"/>
</g>
<path d="M326.641 84.9893H248.576C245.496 84.9893 243 82.3036 243 78.9906V42.9986C243 39.6856 245.496 36.9999 248.576 36.9999H326.641C329.721 36.9999 332.217 39.6856 332.217 42.9986V78.9906C332.217 82.3036 329.721 84.9893 326.641 84.9893Z" fill="#CE6809"/>
<path d="M243 84.2388H301.549V37.7491H243V84.2388Z" fill="#333333"/>
<path d="M301.549 54.9954H332.218V42.998H301.549V54.9954Z" fill="#E77A16"/>
<path d="M243 55.7412H301.549V43.7439H243V55.7412Z" fill="#4C4C4C"/>
<path d="M340.212 73.1125H334.636C333.096 73.1125 331.848 71.7697 331.848 70.1132V52.1172C331.848 50.4607 333.096 49.1179 334.636 49.1179H340.212C341.752 49.1179 343 50.4607 343 52.1172V70.1132C343 71.7697 341.752 73.1125 340.212 73.1125Z" fill="#333333"/>
<path d="M338.818 57.8118H333.242C332.472 57.8118 331.848 57.1403 331.848 56.3121V53.3128C331.848 52.4845 332.472 51.8131 333.242 51.8131H338.818C339.588 51.8131 340.212 52.4845 340.212 53.3128V56.3121C340.212 57.1403 339.588 57.8118 338.818 57.8118Z" fill="#4C4C4C"/>
<path d="M326.641 85H248.576C245.496 85 243 82.3143 243 79.0013V43.0093C243 39.6964 245.496 37.0107 248.576 37.0107H326.641C329.721 37.0107 332.217 39.6964 332.217 43.0093V79.0013C332.217 82.3143 329.721 85 326.641 85Z" stroke="#333333" stroke-width="2.78497"/>
<path d="M358.111 62.207L357.885 12.9316L226.887 13.5346L227.114 62.8099" stroke="black" stroke-width="2"/>
<rect x="272" y="3" width="40" height="20" rx="5" fill="black"/>
<path d="M284.322 20.28C283.256 20.28 282.309 20.12 281.482 19.8C280.669 19.48 280.029 19.02 279.562 18.42C279.109 17.8067 278.882 17.0867 278.882 16.26V16.02C278.882 15.38 278.996 14.8533 279.222 14.44C279.449 14.0133 279.729 13.68 280.062 13.44C280.409 13.2 280.736 13.0333 281.042 12.94V12.58C280.736 12.4733 280.429 12.3 280.122 12.06C279.816 11.82 279.562 11.5 279.362 11.1C279.176 10.7 279.082 10.22 279.082 9.66V9.42C279.082 8.68667 279.296 8.04667 279.722 7.5C280.162 6.94 280.776 6.50667 281.562 6.2C282.349 5.88 283.269 5.72 284.322 5.72C285.376 5.72 286.296 5.88 287.082 6.2C287.869 6.50667 288.476 6.94 288.902 7.5C289.342 8.04667 289.562 8.68667 289.562 9.42V9.66C289.562 10.22 289.462 10.7 289.262 11.1C289.076 11.5 288.829 11.82 288.522 12.06C288.229 12.3 287.922 12.4733 287.602 12.58V12.94C287.922 13.0333 288.249 13.2 288.582 13.44C288.916 13.68 289.196 14.0133 289.422 14.44C289.649 14.8533 289.762 15.38 289.762 16.02V16.26C289.762 17.0867 289.529 17.8067 289.062 18.42C288.609 19.02 287.969 19.48 287.142 19.8C286.329 20.12 285.389 20.28 284.322 20.28ZM284.322 18C285.242 18 285.949 17.8267 286.442 17.48C286.949 17.12 287.202 16.6467 287.202 16.06V15.9C287.202 15.3133 286.956 14.8467 286.462 14.5C285.982 14.14 285.269 13.96 284.322 13.96C283.389 13.96 282.676 14.14 282.182 14.5C281.689 14.8467 281.442 15.3133 281.442 15.9V16.06C281.442 16.6467 281.689 17.12 282.182 17.48C282.689 17.8267 283.402 18 284.322 18ZM284.322 11.68C285.176 11.68 285.836 11.5267 286.302 11.22C286.769 10.9133 287.002 10.48 287.002 9.92V9.76C287.002 9.2 286.762 8.76667 286.282 8.46C285.802 8.15333 285.149 8 284.322 8C283.496 8 282.842 8.15333 282.362 8.46C281.882 8.76667 281.642 9.2 281.642 9.76V9.92C281.642 10.48 281.876 10.9133 282.342 11.22C282.809 11.5267 283.469 11.68 284.322 11.68ZM294.234 20L290.674 6H293.394L296.354 18.3H296.634L299.594 6H302.314L298.754 20H294.234Z" fill="white"/>
<circle cx="124" cy="358" r="21" fill="#463B3B"/>
<path d="M118.226 365.28C117.133 365.28 116.186 365.087 115.386 364.7C114.599 364.313 113.993 363.767 113.566 363.06C113.139 362.353 112.926 361.533 112.926 360.6V360.4H115.526V360.58C115.526 361.247 115.746 361.82 116.186 362.3C116.639 362.767 117.306 363 118.186 363C119.066 363 119.739 362.767 120.206 362.3C120.686 361.82 120.926 361.2 120.926 360.44V360.24C120.926 359.493 120.686 358.9 120.206 358.46C119.739 358.02 119.153 357.8 118.446 357.8C118.059 357.8 117.739 357.853 117.486 357.96C117.233 358.067 117.026 358.2 116.866 358.36C116.706 358.52 116.573 358.68 116.466 358.84H113.366V351H122.926V353.32H115.926V356.74H116.286C116.419 356.567 116.599 356.4 116.826 356.24C117.053 356.08 117.346 355.947 117.706 355.84C118.066 355.733 118.493 355.68 118.986 355.68C119.813 355.68 120.566 355.853 121.246 356.2C121.926 356.547 122.466 357.06 122.866 357.74C123.279 358.407 123.486 359.233 123.486 360.22V360.46C123.486 361.447 123.273 362.3 122.846 363.02C122.433 363.74 121.833 364.3 121.046 364.7C120.259 365.087 119.319 365.28 118.226 365.28ZM124.518 365L128.198 351H132.798L136.478 365H133.758L132.998 361.92H127.998L127.238 365H124.518ZM128.618 359.48H132.378L130.678 352.66H130.318L128.618 359.48Z" fill="white"/>
<circle cx="123" cy="194" r="21" fill="#463B3B"/>
<path d="M112.065 201V199.32C112.065 198.347 112.225 197.54 112.545 196.9C112.865 196.247 113.325 195.713 113.925 195.3C114.538 194.873 115.285 194.527 116.165 194.26L117.505 193.84C117.998 193.68 118.411 193.487 118.745 193.26C119.078 193.02 119.331 192.733 119.505 192.4C119.691 192.067 119.785 191.687 119.785 191.26V191.18C119.785 190.513 119.558 189.987 119.105 189.6C118.651 189.2 118.031 189 117.245 189C116.471 189 115.845 189.213 115.365 189.64C114.898 190.053 114.665 190.653 114.665 191.44V191.8H112.105V191.48C112.105 190.467 112.331 189.607 112.785 188.9C113.238 188.193 113.851 187.653 114.625 187.28C115.411 186.907 116.285 186.72 117.245 186.72C118.205 186.72 119.071 186.907 119.845 187.28C120.618 187.64 121.225 188.153 121.665 188.82C122.118 189.473 122.345 190.247 122.345 191.14V191.34C122.345 192.233 122.158 192.993 121.785 193.62C121.425 194.233 120.931 194.74 120.305 195.14C119.678 195.527 118.965 195.847 118.165 196.1L116.885 196.5C116.311 196.673 115.865 196.867 115.545 197.08C115.225 197.28 114.998 197.507 114.865 197.76C114.745 198 114.685 198.293 114.685 198.64V198.72H122.225V201H112.065ZM123.46 201L127.14 187H131.74L135.42 201H132.7L131.94 197.92H126.94L126.18 201H123.46ZM127.56 195.48H131.32L129.62 188.66H129.26L127.56 195.48Z" fill="white"/>
<rect x="1" y="85" width="58" height="58" rx="9" fill="#F7F7F7" stroke="#E5E5E5" stroke-width="2"/>
<circle cx="31" cy="115.164" r="15.625" fill="black"/>
<path d="M29.0863 118.913V118.433C29.0863 117.753 29.2196 117.193 29.4863 116.753C29.7663 116.313 30.2129 115.946 30.8263 115.653L31.1663 115.493C31.7663 115.213 32.2263 114.913 32.5463 114.593C32.8663 114.273 33.0263 113.846 33.0263 113.313C33.0263 112.926 32.9263 112.599 32.7263 112.333C32.5396 112.053 32.2729 111.839 31.9263 111.693C31.5796 111.546 31.1729 111.473 30.7063 111.473C30.2263 111.473 29.7929 111.553 29.4063 111.713C29.0329 111.873 28.7329 112.113 28.5063 112.433C28.2929 112.753 28.1863 113.153 28.1863 113.633V114.073H25.5863V113.673C25.5863 112.753 25.8129 111.959 26.2663 111.293C26.7196 110.626 27.3329 110.119 28.1063 109.773C28.8796 109.413 29.7463 109.233 30.7063 109.233C31.6529 109.233 32.4929 109.406 33.2263 109.753C33.9729 110.099 34.5596 110.579 34.9863 111.193C35.4129 111.806 35.6263 112.513 35.6263 113.313C35.6263 114.113 35.4796 114.773 35.1862 115.293C34.8929 115.799 34.5196 116.213 34.0663 116.533C33.6263 116.839 33.1729 117.106 32.7063 117.333L32.3663 117.493C32.1263 117.599 31.9596 117.733 31.8663 117.893C31.7729 118.039 31.7263 118.259 31.7263 118.553V118.913H29.0863ZM30.4863 123.793C29.9529 123.793 29.4996 123.619 29.1263 123.273C28.7663 122.913 28.5863 122.453 28.5863 121.893C28.5863 121.333 28.7663 120.879 29.1263 120.533C29.4996 120.173 29.9529 119.993 30.4863 119.993C31.0329 119.993 31.4863 120.173 31.8463 120.533C32.2063 120.879 32.3863 121.333 32.3863 121.893C32.3863 122.453 32.2063 122.913 31.8463 123.273C31.4863 123.619 31.0329 123.793 30.4863 123.793Z" fill="white"/>
<rect x="274" y="372" width="43.027" height="20" rx="5" fill="black"/>
<path d="M293.082 389V386.46H296.102C295.476 386.073 294.942 385.607 294.502 385.06C294.076 384.5 293.749 383.873 293.522 383.18C293.309 382.473 293.202 381.707 293.202 380.88C293.202 379.667 293.476 378.58 294.022 377.62C294.582 376.66 295.369 375.9 296.382 375.34C297.409 374.78 298.616 374.5 300.002 374.5C301.402 374.5 302.609 374.78 303.622 375.34C304.636 375.9 305.416 376.667 305.962 377.64C306.522 378.6 306.802 379.687 306.802 380.9C306.802 381.727 306.689 382.487 306.462 383.18C306.249 383.873 305.922 384.5 305.482 385.06C305.042 385.607 304.502 386.073 303.862 386.46H306.922V389H301.042V386.28C301.776 385.933 302.329 385.493 302.702 384.96C303.089 384.413 303.349 383.827 303.482 383.2C303.616 382.56 303.682 381.927 303.682 381.3C303.682 380.407 303.529 379.647 303.222 379.02C302.929 378.38 302.509 377.887 301.962 377.54C301.416 377.193 300.762 377.02 300.002 377.02C299.242 377.02 298.582 377.193 298.022 377.54C297.476 377.887 297.056 378.38 296.762 379.02C296.469 379.66 296.322 380.427 296.322 381.32C296.322 381.947 296.402 382.573 296.562 383.2C296.722 383.827 296.989 384.407 297.362 384.94C297.749 385.473 298.269 385.92 298.922 386.28V389H293.082Z" fill="white"/>
<path d="M280.903 389V387.32C280.903 386.347 281.063 385.54 281.382 384.9C281.703 384.247 282.163 383.713 282.763 383.3C283.376 382.873 284.123 382.527 285.003 382.26L286.343 381.84C286.836 381.68 287.249 381.487 287.583 381.26C287.916 381.02 288.169 380.733 288.343 380.4C288.529 380.067 288.623 379.687 288.623 379.26V379.18C288.623 378.513 288.396 377.987 287.943 377.6C287.489 377.2 286.869 377 286.083 377C285.309 377 284.683 377.213 284.203 377.64C283.736 378.053 283.503 378.653 283.503 379.44V379.8H280.943V379.48C280.943 378.467 281.169 377.607 281.623 376.9C282.076 376.193 282.689 375.653 283.463 375.28C284.249 374.907 285.123 374.72 286.083 374.72C287.043 374.72 287.909 374.907 288.683 375.28C289.456 375.64 290.063 376.153 290.503 376.82C290.956 377.473 291.183 378.247 291.183 379.14V379.34C291.183 380.233 290.996 380.993 290.622 381.62C290.263 382.233 289.769 382.74 289.143 383.14C288.516 383.527 287.803 383.847 287.003 384.1L285.723 384.5C285.149 384.673 284.703 384.867 284.383 385.08C284.063 385.28 283.836 385.507 283.703 385.76C283.583 386 283.523 386.293 283.523 386.64V386.72H291.063V389H280.903Z" fill="white"/>
<path d="M270.154 293L268.507 293.135L266.944 293.524L265.488 294.148L264.157 294.985L262.974 296.013L261.959 297.211L261.133 298.559L260.518 300.035L260.133 301.618L260 303.286V323.858L260.135 326.242L260.53 328.546L261.169 330.755L262.039 332.853L263.123 334.826L264.408 336.657L265.878 338.333L267.517 339.838L269.312 341.157L271.248 342.275L272.629 343.03L273.971 343.885L275.251 344.837L276.441 345.883L277.517 347.019L278.455 348.242L279.228 349.549L279.811 350.937L280.179 352.402L280.308 353.942L280.406 355.18L280.692 356.354L281.149 357.449L281.761 358.449L282.514 359.339L283.392 360.101L284.379 360.722L285.46 361.185L286.619 361.474L287.841 361.574H298.159L299.381 361.474L300.54 361.185L301.621 360.722L302.608 360.101L303.486 359.339L304.239 358.449L304.851 357.449L305.308 356.354L305.594 355.18L305.692 353.942L305.821 352.402L306.189 350.937L306.772 349.549L307.545 348.242L308.483 347.019L309.559 345.883L310.749 344.837L312.029 343.885L313.371 343.03L314.752 342.275L316.688 341.157L318.483 339.838L320.122 338.333L321.592 336.657L322.877 334.826L323.961 332.853L324.831 330.755L325.47 328.546L325.865 326.242L326 323.858V303.286L325.867 301.618L325.482 300.035L324.867 298.559L324.041 297.211L323.026 296.013L321.843 294.985L320.512 294.148L319.056 293.524L317.493 293.135L315.846 293H270.154Z" fill="#F2F2F2" stroke="#B3B3B3" stroke-width="2.78497"/>
<path d="M289.937 354.016V321.937L289.864 321.01L289.65 320.131L289.308 319.312L288.849 318.563L288.286 317.897L287.628 317.326L286.889 316.862L286.08 316.515L285.213 316.299L284.298 316.224L279.352 316.224L278.525 316.292L277.741 316.488L277.01 316.801L276.342 317.221L275.749 317.736L275.239 318.338L274.825 319.014L274.516 319.755L274.323 320.549L274.256 321.387L274.323 322.224L274.516 323.018L274.825 323.759L275.239 324.435L275.749 325.037L276.342 325.553L277.01 325.972L277.741 326.285L278.525 326.481L279.352 326.549L284.165 326.549L284.108 326.557H301.896L301.844 326.549L306.657 326.549L307.484 326.481L308.268 326.285L308.999 325.972L309.667 325.553L310.261 325.037L310.77 324.435L311.184 323.759L311.493 323.018L311.686 322.224L311.753 321.387L311.686 320.549L311.493 319.755L311.184 319.014L310.77 318.338L310.261 317.736L309.667 317.221L308.999 316.801L308.268 316.488L307.484 316.292L306.658 316.224L301.711 316.224L300.797 316.299L299.929 316.515L299.12 316.862L298.381 317.326L297.724 317.897L297.16 318.563L296.701 319.312L296.359 320.131L296.146 321.01L296.072 321.937V354.016" stroke="#B3B3B3" stroke-width="2.22798"/>
<path d="M280.308 353.001H305.692V356.43H280.308V353.001Z" fill="#808080" stroke="#808080" stroke-width="1.67098"/>
<path d="M280.308 353H305.692V356.428L305.582 357.819L305.261 359.138L304.748 360.367L304.06 361.491L303.214 362.489L302.228 363.346L301.119 364.043L299.905 364.563L298.603 364.888L297.231 365H288.769L287.397 364.888L286.095 364.563L284.881 364.043L283.772 363.346L282.786 362.489L281.94 361.491L281.252 360.367L280.739 359.138L280.418 357.819L280.308 356.428V353Z" fill="#141414" stroke="#141414" stroke-width="1.67098"/>
<rect x="272" y="210" width="43.027" height="20" rx="5" fill="black"/>
<path d="M295.082 227V224.46H298.102C297.476 224.073 296.942 223.607 296.502 223.06C296.076 222.5 295.749 221.873 295.522 221.18C295.309 220.473 295.202 219.707 295.202 218.88C295.202 217.667 295.476 216.58 296.022 215.62C296.582 214.66 297.369 213.9 298.382 213.34C299.409 212.78 300.616 212.5 302.002 212.5C303.402 212.5 304.609 212.78 305.622 213.34C306.636 213.9 307.416 214.667 307.962 215.64C308.522 216.6 308.802 217.687 308.802 218.9C308.802 219.727 308.689 220.487 308.462 221.18C308.249 221.873 307.922 222.5 307.482 223.06C307.042 223.607 306.502 224.073 305.862 224.46H308.922V227H303.042V224.28C303.776 223.933 304.329 223.493 304.702 222.96C305.089 222.413 305.349 221.827 305.482 221.2C305.616 220.56 305.682 219.927 305.682 219.3C305.682 218.407 305.529 217.647 305.222 217.02C304.929 216.38 304.509 215.887 303.962 215.54C303.416 215.193 302.762 215.02 302.002 215.02C301.242 215.02 300.582 215.193 300.022 215.54C299.476 215.887 299.056 216.38 298.762 217.02C298.469 217.66 298.322 218.427 298.322 219.32C298.322 219.947 298.402 220.573 298.562 221.2C298.722 221.827 298.989 222.407 299.362 222.94C299.749 223.473 300.269 223.92 300.922 224.28V227H295.082Z" fill="white"/>
<path d="M278.701 227V214.88H278.341L276.461 219.32H273.781L276.641 213H281.261V227H278.701ZM283.424 227V225.32C283.424 224.347 283.584 223.54 283.904 222.9C284.224 222.247 284.684 221.713 285.284 221.3C285.897 220.873 286.644 220.527 287.524 220.26L288.864 219.84C289.357 219.68 289.771 219.487 290.104 219.26C290.437 219.02 290.691 218.733 290.864 218.4C291.051 218.067 291.144 217.687 291.144 217.26V217.18C291.144 216.513 290.917 215.987 290.464 215.6C290.011 215.2 289.391 215 288.604 215C287.831 215 287.204 215.213 286.724 215.64C286.257 216.053 286.024 216.653 286.024 217.44V217.8H283.464V217.48C283.464 216.467 283.691 215.607 284.144 214.9C284.597 214.193 285.211 213.653 285.984 213.28C286.771 212.907 287.644 212.72 288.604 212.72C289.564 212.72 290.431 212.907 291.204 213.28C291.977 213.64 292.584 214.153 293.024 214.82C293.477 215.473 293.704 216.247 293.704 217.14V217.34C293.704 218.233 293.517 218.993 293.144 219.62C292.784 220.233 292.291 220.74 291.664 221.14C291.037 221.527 290.324 221.847 289.524 222.1L288.244 222.5C287.671 222.673 287.224 222.867 286.904 223.08C286.584 223.28 286.357 223.507 286.224 223.76C286.104 224 286.044 224.293 286.044 224.64V224.72H293.584V227H283.424Z" fill="white"/>
<path d="M305.64 191.39L305.697 190.365L305.862 189.364L306.127 188.391L306.486 187.449L306.932 186.54L307.457 185.67L308.054 184.84L308.715 184.054L309.435 183.316L310.204 182.628L312.407 180.618L314.437 178.413L316.28 176.038L317.922 173.517L319.35 170.874L320.549 168.133L321.506 165.317L322.206 162.451L322.637 159.559L322.783 156.665L322.391 152.016L321.254 147.605L319.435 143.492L316.995 139.736L313.997 136.396L310.501 133.531L306.57 131.2L302.266 129.461L297.649 128.375L292.783 128L287.917 128.375L283.301 129.461L278.997 131.2L275.066 133.531L271.57 136.396L268.572 139.736L266.132 143.492L264.313 147.605L263.176 152.016L262.783 156.665L262.93 159.559L263.36 162.451L264.061 165.317L265.018 168.133L266.217 170.874L267.645 173.517L269.287 176.038L271.13 178.413L273.16 180.618L275.362 182.628L276.132 183.316L276.851 184.054L277.513 184.84L278.11 185.67L278.635 186.54L279.081 187.449L279.44 188.391L279.705 189.364L279.87 190.365L279.926 191.39L280.021 192.578L280.297 193.704L280.738 194.754L281.33 195.714L282.057 196.567L282.904 197.298L283.857 197.894L284.901 198.337L286.02 198.615L287.2 198.711H298.367L299.546 198.615L300.666 198.337L301.709 197.894L302.662 197.298L303.51 196.567L304.237 195.714L304.829 194.754L305.27 193.704L305.545 192.578L305.64 191.39Z" fill="#F2F2F2" stroke="#B3B3B3" stroke-width="2.78497"/>
<path d="M289.681 192.426V160.799L289.599 159.782L289.363 158.818L288.985 157.918L288.479 157.097L287.856 156.367L287.131 155.74L286.314 155.23L285.421 154.85L284.462 154.613L283.452 154.531L282.961 154.531L282.03 154.606L281.148 154.825L280.325 155.175L279.573 155.645L278.904 156.222L278.331 156.895L277.865 157.651L277.517 158.48L277.299 159.368L277.224 160.305L277.299 161.241L277.517 162.13L277.865 162.958L278.331 163.715L278.905 164.387L279.573 164.964L280.325 165.434L281.148 165.784L282.031 166.003L282.961 166.078L283.834 166.078L283.775 166.087H301.794L301.742 166.078L302.614 166.078L303.545 166.003L304.427 165.784L305.251 165.434L306.002 164.964L306.671 164.387L307.244 163.715L307.711 162.958L308.058 162.13L308.276 161.241L308.351 160.305L308.276 159.368L308.059 158.48L307.711 157.651L307.244 156.895L306.671 156.222L306.002 155.645L305.251 155.175L304.428 154.825L303.545 154.606L302.614 154.531L302.123 154.531L301.113 154.613L300.154 154.85L299.261 155.23L298.445 155.74L297.719 156.367L297.096 157.097L296.59 157.918L296.212 158.818L295.976 159.782L295.895 160.799V192.426" stroke="#B3B3B3" stroke-width="2.22798"/>
<path d="M279.927 190.489H305.641V193.778L305.534 195.112L305.224 196.377L304.729 197.556L304.065 198.634L303.248 199.592L302.296 200.414L301.226 201.082L300.054 201.581L298.796 201.892L297.471 202H288.096L286.771 201.892L285.514 201.581L284.342 201.082L283.271 200.414L282.319 199.592L281.503 198.634L280.839 197.556L280.343 196.377L280.034 195.112L279.927 193.778V190.489Z" fill="#141414" stroke="#141414" stroke-width="1.67098"/>
<path d="M279.927 190.493H305.641V193.782H279.927V190.493Z" fill="#808080" stroke="#808080" stroke-width="1.67098"/>
</svg>
