<svg width="560" height="301" viewBox="0 0 560 301" fill="none" xmlns="http://www.w3.org/2000/svg">
<path d="M559 26.3818V265.382H21V26.3818H559Z" stroke="black" stroke-width="2"/>
<path d="M321.713 49.3711H243.648C240.568 49.3711 238.072 46.6854 238.072 43.3724V7.38042C238.072 4.06744 240.568 1.38175 243.648 1.38175H321.713C324.792 1.38175 327.289 4.06744 327.289 7.38042V43.3724C327.289 46.6854 324.792 49.3711 321.713 49.3711Z" fill="#CE6809"/>
<path d="M238.072 48.6206H296.62V2.13093H238.072V48.6206Z" fill="#333333"/>
<path d="M296.621 19.377H327.289V7.37962H296.621V19.377Z" fill="#E77A16"/>
<path d="M238.072 20.123H296.62V8.12571H238.072V20.123Z" fill="#4C4C4C"/>
<path d="M335.284 37.4941H329.707C328.168 37.4941 326.919 36.1513 326.919 34.4948V16.4988C326.919 14.8423 328.168 13.4995 329.707 13.4995H335.284C336.823 13.4995 338.072 14.8423 338.072 16.4988V34.4948C338.072 36.1513 336.823 37.4941 335.284 37.4941Z" fill="#333333"/>
<path d="M333.89 22.1934H328.313C327.544 22.1934 326.919 21.5219 326.919 20.6937V17.6944C326.919 16.8661 327.544 16.1947 328.313 16.1947H333.89C334.659 16.1947 335.284 16.8661 335.284 17.6944V20.6937C335.284 21.5219 334.659 22.1934 333.89 22.1934Z" fill="#4C4C4C"/>
<path d="M321.713 49.3818H243.648C240.568 49.3818 238.072 46.6961 238.072 43.3832V7.39116C238.072 4.07819 240.568 1.39249 243.648 1.39249H321.713C324.792 1.39249 327.289 4.07819 327.289 7.39116V43.3832C327.289 46.6961 324.792 49.3818 321.713 49.3818Z" stroke="#333333" stroke-width="2.78497"/>
<circle cx="21" cy="108.382" r="21" fill="#463B3B"/>
<path d="M15.7047 115.382V112.542H8.82469V109.582L13.6647 101.382H18.2647V110.262H20.5847V112.542H18.2647V115.382H15.7047ZM11.2647 110.262H15.7047V103.022H15.3447L11.2647 109.942V110.262ZM21.3795 115.382L25.0595 101.382H29.6595L33.3395 115.382H30.6195L29.8595 112.302H24.8595L24.0995 115.382H21.3795ZM25.4795 109.862H29.2395L27.5395 103.042H27.1795L25.4795 109.862Z" fill="white"/>
<path d="M455.154 196.382L453.507 196.516L451.944 196.906L450.488 197.53L449.157 198.366L447.974 199.394L446.959 200.593L446.133 201.941L445.518 203.417L445.133 204.999L445 206.668V227.24L445.135 229.624L445.53 231.928L446.169 234.136L447.039 236.235L448.123 238.207L449.408 240.039L450.878 241.715L452.517 243.22L454.312 244.539L456.248 245.656L457.629 246.411L458.971 247.267L460.251 248.219L461.441 249.264L462.517 250.4L463.455 251.623L464.228 252.93L464.811 254.318L465.179 255.784L465.308 257.324L465.406 258.562L465.692 259.736L466.149 260.831L466.761 261.831L467.514 262.72L468.392 263.483L469.379 264.104L470.46 264.566L471.619 264.856L472.841 264.956H483.159L484.381 264.856L485.54 264.566L486.621 264.104L487.608 263.483L488.486 262.72L489.239 261.831L489.851 260.831L490.308 259.736L490.594 258.562L490.692 257.324L490.821 255.784L491.189 254.318L491.772 252.93L492.545 251.623L493.483 250.4L494.559 249.264L495.749 248.219L497.029 247.267L498.371 246.411L499.752 245.656L501.688 244.539L503.483 243.22L505.122 241.715L506.592 240.039L507.877 238.207L508.961 236.235L509.831 234.136L510.47 231.928L510.865 229.624L511 227.24V206.668L510.867 204.999L510.482 203.417L509.867 201.941L509.041 200.593L508.026 199.394L506.843 198.366L505.512 197.53L504.056 196.906L502.493 196.516L500.846 196.382H455.154Z" fill="#F9FEE4" stroke="#C4DE19" stroke-width="2.78497"/>
<path d="M474.937 257.398V225.319L474.864 224.392L474.65 223.513L474.308 222.694L473.849 221.945L473.286 221.279L472.628 220.708L471.889 220.244L471.08 219.897L470.213 219.681L469.298 219.606L464.352 219.606L463.525 219.674L462.741 219.87L462.01 220.183L461.342 220.602L460.749 221.118L460.239 221.72L459.825 222.396L459.516 223.137L459.323 223.931L459.256 224.768L459.323 225.606L459.516 226.4L459.825 227.141L460.239 227.817L460.749 228.418L461.342 228.934L462.01 229.354L462.741 229.667L463.525 229.863L464.352 229.93L469.165 229.93L469.108 229.939H486.896L486.844 229.93L491.657 229.93L492.484 229.863L493.268 229.667L493.999 229.354L494.667 228.934L495.261 228.418L495.77 227.817L496.184 227.141L496.493 226.4L496.686 225.606L496.753 224.768L496.686 223.931L496.493 223.137L496.184 222.396L495.77 221.72L495.261 221.118L494.667 220.602L493.999 220.183L493.268 219.87L492.484 219.674L491.658 219.606L486.711 219.606L485.797 219.681L484.929 219.897L484.12 220.244L483.381 220.708L482.724 221.279L482.16 221.945L481.701 222.694L481.359 223.513L481.146 224.392L481.072 225.319V257.398" stroke="#C4DE19" stroke-width="2.22798"/>
<path d="M465.308 256.383H490.692V259.812H465.308V256.383Z" fill="#C4DE19" stroke="#C4DE19" stroke-width="1.67098"/>
<path d="M465.308 256.381H490.692V259.81L490.581 261.2L490.261 262.519L489.748 263.749L489.06 264.872L488.214 265.871L487.228 266.728L486.119 267.425L484.905 267.945L483.603 268.27L482.231 268.382H473.769L472.397 268.27L471.095 267.945L469.881 267.425L468.772 266.728L467.786 265.871L466.94 264.872L466.252 263.749L465.739 262.519L465.418 261.2L465.308 259.81V256.381Z" fill="#141414" stroke="#141414" stroke-width="1.67098"/>
<path d="M451 264.382V286.4H507.25V264.382" stroke="black" stroke-width="2"/>
<rect x="457" y="277.116" width="43.027" height="20" rx="5" fill="black"/>
<path d="M470.822 294.396C469.756 294.396 468.809 294.236 467.982 293.916C467.169 293.596 466.529 293.136 466.062 292.536C465.609 291.922 465.382 291.202 465.382 290.376V290.136C465.382 289.496 465.496 288.969 465.722 288.556C465.949 288.129 466.229 287.796 466.562 287.556C466.909 287.316 467.236 287.149 467.542 287.056V286.696C467.236 286.589 466.929 286.416 466.622 286.176C466.316 285.936 466.062 285.616 465.862 285.216C465.676 284.816 465.582 284.336 465.582 283.776V283.536C465.582 282.802 465.796 282.162 466.222 281.616C466.662 281.056 467.276 280.622 468.062 280.316C468.849 279.996 469.769 279.836 470.822 279.836C471.876 279.836 472.796 279.996 473.582 280.316C474.369 280.622 474.976 281.056 475.402 281.616C475.842 282.162 476.062 282.802 476.062 283.536V283.776C476.062 284.336 475.962 284.816 475.762 285.216C475.576 285.616 475.329 285.936 475.022 286.176C474.729 286.416 474.422 286.589 474.102 286.696V287.056C474.422 287.149 474.749 287.316 475.082 287.556C475.416 287.796 475.696 288.129 475.922 288.556C476.149 288.969 476.262 289.496 476.262 290.136V290.376C476.262 291.202 476.029 291.922 475.562 292.536C475.109 293.136 474.469 293.596 473.642 293.916C472.829 294.236 471.889 294.396 470.822 294.396ZM470.822 292.116C471.742 292.116 472.449 291.942 472.942 291.596C473.449 291.236 473.702 290.762 473.702 290.176V290.016C473.702 289.429 473.456 288.962 472.962 288.616C472.482 288.256 471.769 288.076 470.822 288.076C469.889 288.076 469.176 288.256 468.682 288.616C468.189 288.962 467.942 289.429 467.942 290.016V290.176C467.942 290.762 468.189 291.236 468.682 291.596C469.189 291.942 469.902 292.116 470.822 292.116ZM470.822 285.796C471.676 285.796 472.336 285.642 472.802 285.336C473.269 285.029 473.502 284.596 473.502 284.036V283.876C473.502 283.316 473.262 282.882 472.782 282.576C472.302 282.269 471.649 282.116 470.822 282.116C469.996 282.116 469.342 282.269 468.862 282.576C468.382 282.882 468.142 283.316 468.142 283.876V284.036C468.142 284.596 468.376 285.029 468.842 285.336C469.309 285.642 469.969 285.796 470.822 285.796ZM480.734 294.116L477.174 280.116H479.894L482.854 292.416H483.134L486.094 280.116H488.814L485.254 294.116H480.734Z" fill="white"/>
<path d="M132.857 258.772L132.914 257.747L133.078 256.746L133.344 255.773L133.703 254.831L134.148 253.923L134.673 253.052L135.27 252.222L135.932 251.436L136.651 250.698L137.421 250.01L139.624 248L141.653 245.795L143.496 243.42L145.139 240.899L146.566 238.256L147.765 235.515L148.722 232.699L149.423 229.833L149.853 226.941L150 224.047L149.607 219.398L148.471 214.987L146.651 210.874L144.212 207.118L141.213 203.778L137.718 200.913L133.787 198.582L129.482 196.843L124.866 195.757L120 195.382L115.134 195.757L110.518 196.843L106.213 198.582L102.282 200.913L98.7868 203.778L95.7883 207.118L93.3485 210.874L91.5294 214.987L90.3927 219.398L90 224.047L90.1466 226.941L90.5772 229.833L91.2778 232.699L92.2347 235.515L93.4338 238.256L94.8614 240.899L96.5036 243.42L98.3465 245.795L100.376 248L102.579 250.01L103.349 250.698L104.068 251.436L104.73 252.222L105.327 253.052L105.852 253.923L106.297 254.831L106.656 255.773L106.922 256.746L107.086 257.747L107.143 258.772L107.238 259.96L107.514 261.086L107.955 262.136L108.546 263.096L109.273 263.949L110.121 264.68L111.074 265.276L112.118 265.72L113.237 265.997L114.417 266.093H125.583L126.763 265.997L127.882 265.72L128.926 265.276L129.879 264.68L130.727 263.949L131.454 263.096L132.045 262.136L132.486 261.086L132.762 259.96L132.857 258.772Z" fill="#F2F2F2" stroke="#B3B3B3" stroke-width="2.78497"/>
<path d="M116.897 259.808V228.181L116.816 227.164L116.58 226.2L116.202 225.3L115.696 224.479L115.073 223.748L114.347 223.122L113.531 222.612L112.637 222.232L111.679 221.995L110.669 221.913L110.178 221.913L109.247 221.988L108.364 222.207L107.541 222.557L106.79 223.027L106.121 223.604L105.548 224.277L105.081 225.033L104.733 225.862L104.516 226.75L104.441 227.686L104.516 228.623L104.733 229.511L105.081 230.34L105.548 231.096L106.121 231.769L106.79 232.346L107.541 232.816L108.364 233.166L109.247 233.385L110.178 233.46L111.05 233.46L110.992 233.468H129.011L128.958 233.46L129.831 233.46L130.761 233.385L131.644 233.166L132.467 232.816L133.219 232.346L133.887 231.769L134.461 231.096L134.927 230.34L135.275 229.511L135.493 228.623L135.568 227.686L135.493 226.75L135.275 225.862L134.927 225.033L134.461 224.277L133.887 223.604L133.219 223.027L132.467 222.557L131.644 222.207L130.762 221.988L129.831 221.913L129.34 221.913L128.329 221.995L127.371 222.232L126.477 222.612L125.661 223.122L124.936 223.748L124.313 224.479L123.807 225.3L123.429 226.2L123.193 227.164L123.111 228.181V259.808" stroke="#B3B3B3" stroke-width="2.22798"/>
<path d="M107.143 257.871H132.858V261.16L132.751 262.493L132.441 263.759L131.946 264.938L131.281 266.016L130.465 266.974L129.513 267.795L128.442 268.464L127.27 268.963L126.013 269.274L124.688 269.382H115.313L113.988 269.274L112.731 268.963L111.559 268.464L110.488 267.795L109.536 266.974L108.72 266.016L108.055 264.938L107.56 263.759L107.25 262.493L107.143 261.16V257.871Z" fill="#141414" stroke="#141414" stroke-width="1.67098"/>
<path d="M107.143 257.875H132.858V261.164H107.143V257.875Z" fill="#808080" stroke="#808080" stroke-width="1.67098"/>
<path d="M93.2168 264.648V286.666H149.467V264.648" stroke="black" stroke-width="2"/>
<rect x="99.2168" y="277.382" width="43.027" height="20" rx="5" fill="black"/>
<path d="M113.031 294.662C111.978 294.662 111.045 294.475 110.231 294.102C109.418 293.729 108.778 293.195 108.311 292.502C107.858 291.795 107.631 290.962 107.631 290.002V289.642H110.191V289.922C110.191 290.669 110.451 291.269 110.971 291.722C111.491 292.162 112.178 292.382 113.031 292.382C113.898 292.382 114.565 292.175 115.031 291.762C115.511 291.349 115.751 290.829 115.751 290.202V290.002C115.751 289.575 115.645 289.229 115.431 288.962C115.218 288.695 114.931 288.502 114.571 288.382C114.211 288.249 113.805 288.182 113.351 288.182H110.551V285.382L115.071 282.982V282.662H107.991V280.382H117.911V283.782L113.691 286.022V286.342H114.431C115.058 286.342 115.665 286.469 116.251 286.722C116.851 286.975 117.345 287.369 117.731 287.902C118.118 288.422 118.311 289.102 118.311 289.942V290.182C118.311 291.089 118.091 291.882 117.651 292.562C117.211 293.229 116.591 293.749 115.791 294.122C115.005 294.482 114.085 294.662 113.031 294.662ZM123.039 294.382L119.479 280.382H122.199L125.159 292.682H125.439L128.399 280.382H131.119L127.559 294.382H123.039Z" fill="white"/>
</svg>
