<svg width="536" height="407" viewBox="0 0 536 407" fill="none" xmlns="http://www.w3.org/2000/svg">
<rect x="251" y="317" width="40" height="20" rx="10" fill="black"/>
<path d="M269.774 333V330.714H272.492C271.928 330.366 271.448 329.946 271.052 329.454C270.668 328.95 270.374 328.386 270.17 327.762C269.978 327.126 269.882 326.436 269.882 325.692C269.882 324.6 270.128 323.622 270.62 322.758C271.124 321.894 271.832 321.21 272.744 320.706C273.668 320.202 274.754 319.95 276.002 319.95C277.262 319.95 278.348 320.202 279.26 320.706C280.172 321.21 280.874 321.9 281.366 322.776C281.87 323.64 282.122 324.618 282.122 325.71C282.122 326.454 282.02 327.138 281.816 327.762C281.624 328.386 281.33 328.95 280.934 329.454C280.538 329.946 280.052 330.366 279.476 330.714H282.23V333H276.938V330.552C277.598 330.24 278.096 329.844 278.432 329.364C278.78 328.872 279.014 328.344 279.134 327.78C279.254 327.204 279.314 326.634 279.314 326.07C279.314 325.266 279.176 324.582 278.9 324.018C278.636 323.442 278.258 322.998 277.766 322.686C277.274 322.374 276.686 322.218 276.002 322.218C275.318 322.218 274.724 322.374 274.22 322.686C273.728 322.998 273.35 323.442 273.086 324.018C272.822 324.594 272.69 325.284 272.69 326.088C272.69 326.652 272.762 327.216 272.906 327.78C273.05 328.344 273.29 328.866 273.626 329.346C273.974 329.826 274.442 330.228 275.03 330.552V333H269.774Z" fill="white"/>
<path d="M258.912 333V331.488C258.912 330.612 259.056 329.886 259.344 329.31C259.632 328.722 260.046 328.242 260.586 327.87C261.138 327.486 261.81 327.174 262.602 326.934L263.808 326.556C264.252 326.412 264.624 326.238 264.924 326.034C265.224 325.818 265.452 325.56 265.608 325.26C265.776 324.96 265.86 324.618 265.86 324.234V324.162C265.86 323.562 265.656 323.088 265.248 322.74C264.84 322.38 264.282 322.2 263.574 322.2C262.878 322.2 262.314 322.392 261.882 322.776C261.462 323.148 261.252 323.688 261.252 324.396V324.72H258.948V324.432C258.948 323.52 259.152 322.746 259.56 322.11C259.968 321.474 260.52 320.988 261.216 320.652C261.924 320.316 262.71 320.148 263.574 320.148C264.438 320.148 265.218 320.316 265.914 320.652C266.61 320.976 267.156 321.438 267.552 322.038C267.96 322.626 268.164 323.322 268.164 324.126V324.306C268.164 325.11 267.996 325.794 267.66 326.358C267.336 326.91 266.892 327.366 266.328 327.726C265.764 328.074 265.122 328.362 264.402 328.59L263.25 328.95C262.734 329.106 262.332 329.28 262.044 329.472C261.756 329.652 261.552 329.856 261.432 330.084C261.324 330.3 261.27 330.564 261.27 330.876V330.948H268.056V333H258.912Z" fill="white"/>
<rect x="251" y="197" width="40" height="20" rx="10" fill="black"/>
<path d="M269.774 213V210.714H272.492C271.928 210.366 271.448 209.946 271.052 209.454C270.668 208.95 270.374 208.386 270.17 207.762C269.978 207.126 269.882 206.436 269.882 205.692C269.882 204.6 270.128 203.622 270.62 202.758C271.124 201.894 271.832 201.21 272.744 200.706C273.668 200.202 274.754 199.95 276.002 199.95C277.262 199.95 278.348 200.202 279.26 200.706C280.172 201.21 280.874 201.9 281.366 202.776C281.87 203.64 282.122 204.618 282.122 205.71C282.122 206.454 282.02 207.138 281.816 207.762C281.624 208.386 281.33 208.95 280.934 209.454C280.538 209.946 280.052 210.366 279.476 210.714H282.23V213H276.938V210.552C277.598 210.24 278.096 209.844 278.432 209.364C278.78 208.872 279.014 208.344 279.134 207.78C279.254 207.204 279.314 206.634 279.314 206.07C279.314 205.266 279.176 204.582 278.9 204.018C278.636 203.442 278.258 202.998 277.766 202.686C277.274 202.374 276.686 202.218 276.002 202.218C275.318 202.218 274.724 202.374 274.22 202.686C273.728 202.998 273.35 203.442 273.086 204.018C272.822 204.594 272.69 205.284 272.69 206.088C272.69 206.652 272.762 207.216 272.906 207.78C273.05 208.344 273.29 208.866 273.626 209.346C273.974 209.826 274.442 210.228 275.03 210.552V213H269.774Z" fill="white"/>
<path d="M258.912 213V211.488C258.912 210.612 259.056 209.886 259.344 209.31C259.632 208.722 260.046 208.242 260.586 207.87C261.138 207.486 261.81 207.174 262.602 206.934L263.808 206.556C264.252 206.412 264.624 206.238 264.924 206.034C265.224 205.818 265.452 205.56 265.608 205.26C265.776 204.96 265.86 204.618 265.86 204.234V204.162C265.86 203.562 265.656 203.088 265.248 202.74C264.84 202.38 264.282 202.2 263.574 202.2C262.878 202.2 262.314 202.392 261.882 202.776C261.462 203.148 261.252 203.688 261.252 204.396V204.72H258.948V204.432C258.948 203.52 259.152 202.746 259.56 202.11C259.968 201.474 260.52 200.988 261.216 200.652C261.924 200.316 262.71 200.148 263.574 200.148C264.438 200.148 265.218 200.316 265.914 200.652C266.61 200.976 267.156 201.438 267.552 202.038C267.96 202.626 268.164 203.322 268.164 204.126V204.306C268.164 205.11 267.996 205.794 267.66 206.358C267.336 206.91 266.892 207.366 266.328 207.726C265.764 208.074 265.122 208.362 264.402 208.59L263.25 208.95C262.734 209.106 262.332 209.28 262.044 209.472C261.756 209.652 261.552 209.856 261.432 210.084C261.324 210.3 261.27 210.564 261.27 210.876V210.948H268.056V213H258.912Z" fill="white"/>
<rect x="253" y="81" width="40" height="20" rx="10" fill="black"/>
<path d="M271.774 97V94.714H274.492C273.928 94.366 273.448 93.946 273.052 93.454C272.668 92.95 272.374 92.386 272.17 91.762C271.978 91.126 271.882 90.436 271.882 89.692C271.882 88.6 272.128 87.622 272.62 86.758C273.124 85.894 273.832 85.21 274.744 84.706C275.668 84.202 276.754 83.95 278.002 83.95C279.262 83.95 280.348 84.202 281.26 84.706C282.172 85.21 282.874 85.9 283.366 86.776C283.87 87.64 284.122 88.618 284.122 89.71C284.122 90.454 284.02 91.138 283.816 91.762C283.624 92.386 283.33 92.95 282.934 93.454C282.538 93.946 282.052 94.366 281.476 94.714H284.23V97H278.938V94.552C279.598 94.24 280.096 93.844 280.432 93.364C280.78 92.872 281.014 92.344 281.134 91.78C281.254 91.204 281.314 90.634 281.314 90.07C281.314 89.266 281.176 88.582 280.9 88.018C280.636 87.442 280.258 86.998 279.766 86.686C279.274 86.374 278.686 86.218 278.002 86.218C277.318 86.218 276.724 86.374 276.22 86.686C275.728 86.998 275.35 87.442 275.086 88.018C274.822 88.594 274.69 89.284 274.69 90.088C274.69 90.652 274.762 91.216 274.906 91.78C275.05 92.344 275.29 92.866 275.626 93.346C275.974 93.826 276.442 94.228 277.03 94.552V97H271.774Z" fill="white"/>
<path d="M260.912 97V95.488C260.912 94.612 261.056 93.886 261.344 93.31C261.632 92.722 262.046 92.242 262.586 91.87C263.138 91.486 263.81 91.174 264.602 90.934L265.808 90.556C266.252 90.412 266.624 90.238 266.924 90.034C267.224 89.818 267.452 89.56 267.608 89.26C267.776 88.96 267.86 88.618 267.86 88.234V88.162C267.86 87.562 267.656 87.088 267.248 86.74C266.84 86.38 266.282 86.2 265.574 86.2C264.878 86.2 264.314 86.392 263.882 86.776C263.462 87.148 263.252 87.688 263.252 88.396V88.72H260.948V88.432C260.948 87.52 261.152 86.746 261.56 86.11C261.968 85.474 262.52 84.988 263.216 84.652C263.924 84.316 264.71 84.148 265.574 84.148C266.438 84.148 267.218 84.316 267.914 84.652C268.61 84.976 269.156 85.438 269.552 86.038C269.96 86.626 270.164 87.322 270.164 88.126V88.306C270.164 89.11 269.996 89.794 269.66 90.358C269.336 90.91 268.892 91.366 268.328 91.726C267.764 92.074 267.122 92.362 266.402 92.59L265.25 92.95C264.734 93.106 264.332 93.28 264.044 93.472C263.756 93.652 263.552 93.856 263.432 94.084C263.324 94.3 263.27 94.564 263.27 94.876V94.948H270.056V97H260.912Z" fill="white"/>
<path d="M284.857 297.39L284.914 296.365L285.078 295.364L285.344 294.391L285.703 293.449L286.148 292.54L286.673 291.67L287.27 290.84L287.932 290.054L288.651 289.316L289.421 288.628L291.624 286.618L293.653 284.413L295.496 282.038L297.139 279.517L298.566 276.874L299.765 274.132L300.722 271.317L301.423 268.451L301.853 265.559L302 262.665L301.607 258.016L300.471 253.605L298.651 249.492L296.212 245.736L293.213 242.396L289.718 239.531L285.787 237.2L281.482 235.461L276.866 234.375L272 234L267.134 234.375L262.518 235.461L258.213 237.2L254.282 239.531L250.787 242.396L247.788 245.736L245.349 249.492L243.529 253.605L242.393 258.016L242 262.665L242.147 265.559L242.577 268.451L243.278 271.317L244.235 274.132L245.434 276.874L246.861 279.517L248.504 282.038L250.347 284.413L252.376 286.618L254.579 288.628L255.349 289.316L256.068 290.054L256.73 290.84L257.327 291.67L257.852 292.54L258.297 293.449L258.656 294.391L258.922 295.364L259.086 296.365L259.143 297.39L259.238 298.577L259.514 299.704L259.955 300.754L260.546 301.714L261.273 302.567L262.121 303.298L263.074 303.894L264.118 304.337L265.237 304.615L266.417 304.711H277.583L278.763 304.615L279.882 304.337L280.926 303.894L281.879 303.298L282.727 302.567L283.454 301.714L284.045 300.754L284.486 299.704L284.762 298.577L284.857 297.39Z" fill="#F2F2F2" stroke="#B3B3B3" stroke-width="2.78497"/>
<path d="M268.897 298.426V266.799L268.816 265.782L268.58 264.818L268.202 263.918L267.696 263.097L267.073 262.367L266.347 261.74L265.531 261.23L264.637 260.85L263.679 260.613L262.669 260.531L262.178 260.531L261.247 260.606L260.364 260.825L259.541 261.175L258.79 261.645L258.121 262.222L257.548 262.895L257.081 263.651L256.733 264.48L256.516 265.368L256.441 266.305L256.516 267.241L256.733 268.13L257.081 268.958L257.548 269.714L258.121 270.387L258.79 270.964L259.541 271.434L260.364 271.784L261.247 272.003L262.178 272.078L263.05 272.078L262.992 272.086H281.011L280.958 272.078L281.831 272.078L282.761 272.003L283.644 271.784L284.467 271.434L285.219 270.964L285.887 270.387L286.461 269.714L286.927 268.958L287.275 268.13L287.493 267.241L287.568 266.305L287.493 265.368L287.275 264.48L286.927 263.651L286.461 262.895L285.887 262.222L285.219 261.645L284.467 261.175L283.644 260.825L282.762 260.606L281.831 260.531L281.34 260.531L280.329 260.613L279.371 260.85L278.477 261.23L277.661 261.74L276.936 262.367L276.313 263.097L275.807 263.918L275.429 264.818L275.193 265.782L275.111 266.799V298.426" stroke="#B3B3B3" stroke-width="2.22798"/>
<path d="M259.143 296.489H284.858V299.778L284.751 301.112L284.441 302.377L283.946 303.556L283.281 304.634L282.465 305.592L281.513 306.414L280.442 307.082L279.27 307.581L278.013 307.892L276.688 308H267.313L265.988 307.892L264.731 307.581L263.559 307.082L262.488 306.414L261.536 305.592L260.72 304.634L260.055 303.556L259.56 302.377L259.25 301.112L259.143 299.778V296.489Z" fill="#141414" stroke="#141414" stroke-width="1.67098"/>
<path d="M259.143 296.493H284.858V299.782H259.143V296.493Z" fill="#808080" stroke="#808080" stroke-width="1.67098"/>
<path d="M284.857 178.39L284.914 177.365L285.078 176.364L285.344 175.391L285.703 174.449L286.148 173.54L286.673 172.67L287.27 171.84L287.932 171.054L288.651 170.316L289.421 169.628L291.624 167.618L293.653 165.413L295.496 163.038L297.139 160.517L298.566 157.874L299.765 155.132L300.722 152.317L301.423 149.451L301.853 146.559L302 143.665L301.607 139.016L300.471 134.605L298.651 130.492L296.212 126.736L293.213 123.396L289.718 120.531L285.787 118.2L281.482 116.461L276.866 115.375L272 115L267.134 115.375L262.518 116.461L258.213 118.2L254.282 120.531L250.787 123.396L247.788 126.736L245.349 130.492L243.529 134.605L242.393 139.016L242 143.665L242.147 146.559L242.577 149.451L243.278 152.317L244.235 155.132L245.434 157.874L246.861 160.517L248.504 163.038L250.347 165.413L252.376 167.618L254.579 169.628L255.349 170.316L256.068 171.054L256.73 171.84L257.327 172.67L257.852 173.54L258.297 174.449L258.656 175.391L258.922 176.364L259.086 177.365L259.143 178.39L259.238 179.577L259.514 180.704L259.955 181.754L260.546 182.714L261.273 183.567L262.121 184.298L263.074 184.894L264.118 185.337L265.237 185.615L266.417 185.711H277.583L278.763 185.615L279.882 185.337L280.926 184.894L281.879 184.298L282.727 183.567L283.454 182.714L284.045 181.754L284.486 180.704L284.762 179.577L284.857 178.39Z" fill="#F2F2F2" stroke="#B3B3B3" stroke-width="2.78497"/>
<path d="M268.897 179.426V147.799L268.816 146.782L268.58 145.818L268.202 144.918L267.696 144.097L267.073 143.367L266.347 142.74L265.531 142.23L264.637 141.85L263.679 141.613L262.669 141.531L262.178 141.531L261.247 141.606L260.364 141.825L259.541 142.175L258.79 142.645L258.121 143.222L257.548 143.895L257.081 144.651L256.733 145.48L256.516 146.368L256.441 147.305L256.516 148.241L256.733 149.13L257.081 149.958L257.548 150.714L258.121 151.387L258.79 151.964L259.541 152.434L260.364 152.784L261.247 153.003L262.178 153.078L263.05 153.078L262.992 153.086H281.011L280.958 153.078L281.831 153.078L282.761 153.003L283.644 152.784L284.467 152.434L285.219 151.964L285.887 151.387L286.461 150.714L286.927 149.958L287.275 149.13L287.493 148.241L287.568 147.305L287.493 146.368L287.275 145.48L286.927 144.651L286.461 143.895L285.887 143.222L285.219 142.645L284.467 142.175L283.644 141.825L282.762 141.606L281.831 141.531L281.34 141.531L280.329 141.613L279.371 141.85L278.477 142.23L277.661 142.74L276.936 143.367L276.313 144.097L275.807 144.918L275.429 145.818L275.193 146.782L275.111 147.799V179.426" stroke="#B3B3B3" stroke-width="2.22798"/>
<path d="M259.143 177.489H284.858V180.778L284.751 182.112L284.441 183.377L283.946 184.556L283.281 185.634L282.465 186.592L281.513 187.414L280.442 188.082L279.27 188.581L278.013 188.892L276.688 189H267.313L265.988 188.892L264.731 188.581L263.559 188.082L262.488 187.414L261.536 186.592L260.72 185.634L260.055 184.556L259.56 183.377L259.25 182.112L259.143 180.778V177.489Z" fill="#141414" stroke="#141414" stroke-width="1.67098"/>
<path d="M259.143 177.493H284.858V180.782H259.143V177.493Z" fill="#808080" stroke="#808080" stroke-width="1.67098"/>
<path d="M285.857 65.39L285.914 64.365L286.078 63.3643L286.344 62.391L286.703 61.4486L287.148 60.5404L287.673 59.6697L288.27 58.8398L288.932 58.0541L289.651 57.3157L290.421 56.6281L292.624 54.6176L294.653 52.4128L296.496 50.038L298.139 47.517L299.566 44.8738L300.765 42.1325L301.722 39.317L302.423 36.4512L302.853 33.5593L303 30.6651L302.607 26.0155L301.471 21.6047L299.651 17.4919L297.212 13.7359L294.213 10.3958L290.718 7.53072L286.787 5.19956L282.482 3.46137L277.866 2.37519L273 2.00001L268.134 2.37519L263.518 3.46137L259.213 5.19956L255.282 7.53072L251.787 10.3958L248.788 13.7359L246.349 17.4919L244.529 21.6047L243.393 26.0155L243 30.6651L243.147 33.5593L243.577 36.4512L244.278 39.317L245.235 42.1325L246.434 44.8738L247.861 47.517L249.504 50.038L251.347 52.4128L253.376 54.6176L255.579 56.6282L256.349 57.3157L257.068 58.0541L257.73 58.8399L258.327 59.6697L258.852 60.5405L259.297 61.4486L259.656 62.391L259.922 63.3643L260.086 64.365L260.143 65.39L260.238 66.5775L260.514 67.7039L260.955 68.7543L261.546 69.7135L262.273 70.5665L263.121 71.2982L264.074 71.8935L265.118 72.3375L266.237 72.6148L267.417 72.7107H278.583L279.763 72.6148L280.882 72.3375L281.926 71.8935L282.879 71.2982L283.727 70.5665L284.454 69.7135L285.045 68.7543L285.486 67.7039L285.762 66.5775L285.857 65.39Z" fill="#F2F2F2" stroke="#B3B3B3" stroke-width="2.78497"/>
<path d="M269.897 66.4257V34.799L269.816 33.7822L269.58 32.8177L269.202 31.9183L268.695 31.097L268.073 30.3666L267.347 29.7401L266.531 29.2303L265.637 28.8503L264.679 28.6128L263.669 28.5308L263.178 28.5308L262.247 28.6064L261.364 28.8252L260.541 29.1753L259.79 29.6449L259.121 30.222L258.548 30.8947L258.081 31.6513L257.733 32.4797L257.516 33.3681L257.441 34.3046L257.516 35.2411L257.733 36.1295L258.081 36.9579L258.548 37.7145L259.121 38.3872L259.79 38.9643L260.541 39.4339L261.364 39.784L262.247 40.0028L263.178 40.0784L264.05 40.0784L263.992 40.0865H282.011L281.958 40.0784L282.831 40.0784L283.761 40.0028L284.644 39.784L285.467 39.4339L286.219 38.9643L286.887 38.3872L287.461 37.7145L287.927 36.9579L288.275 36.1295L288.493 35.2411L288.568 34.3046L288.493 33.3681L288.275 32.4797L287.927 31.6513L287.461 30.8947L286.887 30.222L286.219 29.6449L285.467 29.1753L284.644 28.8252L283.762 28.6064L282.831 28.5308L282.34 28.5308L281.329 28.6128L280.371 28.8503L279.477 29.2303L278.661 29.7401L277.936 30.3666L277.313 31.097L276.807 31.9183L276.429 32.8177L276.193 33.7822L276.111 34.799V66.4257" stroke="#B3B3B3" stroke-width="2.22798"/>
<path d="M260.143 64.489H285.858V67.7778L285.751 69.1115L285.441 70.3767L284.946 71.5564L284.281 72.6337L283.465 73.5918L282.513 74.4136L281.442 75.0823L280.27 75.5808L279.013 75.8924L277.688 76H268.313L266.988 75.8924L265.731 75.5808L264.559 75.0823L263.488 74.4136L262.536 73.5918L261.72 72.6337L261.055 71.5564L260.56 70.3767L260.25 69.1115L260.143 67.7778V64.489Z" fill="#141414" stroke="#141414" stroke-width="1.67098"/>
<path d="M260.143 64.4933H285.858V67.7822H260.143V64.4933Z" fill="#808080" stroke="#808080" stroke-width="1.67098"/>
<path d="M535 306.075V385H1V304.635L535 306.075ZM535 185V304.075L1 302.635V185H535ZM535 72V183H1V72H535Z" stroke="black" stroke-width="2"/>
<path d="M308.641 404.989H230.576C227.496 404.989 225 402.304 225 398.991V362.999C225 359.686 227.496 357 230.576 357H308.641C311.721 357 314.217 359.686 314.217 362.999V398.991C314.217 402.304 311.721 404.989 308.641 404.989Z" fill="#CE6809"/>
<path d="M225 404.239H283.549V357.749H225V404.239Z" fill="#333333"/>
<path d="M283.549 374.995H314.218V362.998H283.549V374.995Z" fill="#E77A16"/>
<path d="M225 375.741H283.549V363.744H225V375.741Z" fill="#4C4C4C"/>
<path d="M322.212 393.112H316.636C315.096 393.112 313.848 391.77 313.848 390.113V372.117C313.848 370.461 315.096 369.118 316.636 369.118H322.212C323.752 369.118 325 370.461 325 372.117V390.113C325 391.77 323.752 393.112 322.212 393.112Z" fill="#333333"/>
<path d="M320.818 377.812H315.242C314.472 377.812 313.848 377.14 313.848 376.312V373.313C313.848 372.485 314.472 371.813 315.242 371.813H320.818C321.588 371.813 322.212 372.485 322.212 373.313V376.312C322.212 377.14 321.588 377.812 320.818 377.812Z" fill="#4C4C4C"/>
<path d="M308.641 405H230.576C227.496 405 225 402.314 225 399.001V363.009C225 359.696 227.496 357.011 230.576 357.011H308.641C311.721 357.011 314.217 359.696 314.217 363.009V399.001C314.217 402.314 311.721 405 308.641 405Z" stroke="#333333" stroke-width="2.78497"/>
</svg>
