<svg width="567" height="395" viewBox="0 0 567 395" fill="none" xmlns="http://www.w3.org/2000/svg">
<mask id="mask0_159_277" style="mask-type:luminance" maskUnits="userSpaceOnUse" x="26" y="60" width="540" height="300">
<path d="M26 60H566V195V360H26V196.5V60Z" fill="white"/>
</mask>
<g mask="url(#mask0_159_277)">
<path d="M26 196.5L26.0028 197.5L566.003 196L566 195L565.997 194L25.9972 195.5L26 196.5ZM26 60V58H24V60H26ZM566 60H568V58H566V60ZM566 360V362H568V360H566ZM26 360H24V362H26V360ZM26 60V62H566V60V58H26V60ZM566 360V358H26V360V362H566V360ZM26 360H28V196.5H26H24V360H26ZM26 196.5H28V60H26H24V196.5H26ZM566 60H564V195H566H568V60H566ZM566 195H564V360H566H568V195H566Z" fill="black"/>
</g>
<path d="M326.641 84.9893H248.576C245.496 84.9893 243 82.3036 243 78.9906V42.9986C243 39.6856 245.496 36.9999 248.576 36.9999H326.641C329.721 36.9999 332.217 39.6856 332.217 42.9986V78.9906C332.217 82.3036 329.721 84.9893 326.641 84.9893Z" fill="#CE6809"/>
<path d="M243 84.2388H301.549V37.7491H243V84.2388Z" fill="#333333"/>
<path d="M301.549 54.9954H332.218V42.998H301.549V54.9954Z" fill="#E77A16"/>
<path d="M243 55.7412H301.549V43.7439H243V55.7412Z" fill="#4C4C4C"/>
<path d="M340.212 73.1125H334.636C333.096 73.1125 331.848 71.7697 331.848 70.1132V52.1172C331.848 50.4607 333.096 49.1179 334.636 49.1179H340.212C341.752 49.1179 343 50.4607 343 52.1172V70.1132C343 71.7697 341.752 73.1125 340.212 73.1125Z" fill="#333333"/>
<path d="M338.818 57.8118H333.242C332.472 57.8118 331.848 57.1403 331.848 56.3121V53.3128C331.848 52.4845 332.472 51.8131 333.242 51.8131H338.818C339.588 51.8131 340.212 52.4845 340.212 53.3128V56.3121C340.212 57.1403 339.588 57.8118 338.818 57.8118Z" fill="#4C4C4C"/>
<path d="M326.641 85H248.576C245.496 85 243 82.3143 243 79.0013V43.0093C243 39.6964 245.496 37.0107 248.576 37.0107H326.641C329.721 37.0107 332.217 39.6964 332.217 43.0093V79.0013C332.217 82.3143 329.721 85 326.641 85Z" stroke="#333333" stroke-width="2.78497"/>
<path d="M358.111 62.207L357.885 12.9316L226.887 13.5346L227.114 62.8099" stroke="black" stroke-width="2"/>
<rect x="272" y="3" width="40" height="20" rx="5" fill="black"/>
<path d="M279.377 20.28C278.324 20.28 277.39 20.0933 276.577 19.72C275.764 19.3467 275.124 18.8133 274.657 18.12C274.204 17.4133 273.977 16.58 273.977 15.62V15.26H276.537V15.54C276.537 16.2867 276.797 16.8867 277.317 17.34C277.837 17.78 278.524 18 279.377 18C280.244 18 280.91 17.7933 281.377 17.38C281.857 16.9667 282.097 16.4467 282.097 15.82V15.62C282.097 15.1933 281.99 14.8467 281.777 14.58C281.564 14.3133 281.277 14.12 280.917 14C280.557 13.8667 280.15 13.8 279.697 13.8H276.897V11L281.417 8.6V8.28H274.337V6H284.257V9.4L280.037 11.64V11.96H280.777C281.404 11.96 282.01 12.0867 282.597 12.34C283.197 12.5933 283.69 12.9867 284.077 13.52C284.464 14.04 284.657 14.72 284.657 15.56V15.8C284.657 16.7067 284.437 17.5 283.997 18.18C283.557 18.8467 282.937 19.3667 282.137 19.74C281.35 20.1 280.43 20.28 279.377 20.28ZM286.305 20V18.32C286.305 17.3467 286.465 16.54 286.785 15.9C287.105 15.2467 287.565 14.7133 288.165 14.3C288.778 13.8733 289.525 13.5267 290.405 13.26L291.745 12.84C292.238 12.68 292.652 12.4867 292.985 12.26C293.318 12.02 293.572 11.7333 293.745 11.4C293.932 11.0667 294.025 10.6867 294.025 10.26V10.18C294.025 9.51333 293.798 8.98667 293.345 8.6C292.892 8.2 292.272 8 291.485 8C290.712 8 290.085 8.21333 289.605 8.64C289.138 9.05333 288.905 9.65333 288.905 10.44V10.8H286.345V10.48C286.345 9.46667 286.572 8.60667 287.025 7.9C287.478 7.19333 288.092 6.65333 288.865 6.28C289.652 5.90667 290.525 5.72 291.485 5.72C292.445 5.72 293.312 5.90667 294.085 6.28C294.858 6.64 295.465 7.15333 295.905 7.82C296.358 8.47333 296.585 9.24667 296.585 10.14V10.34C296.585 11.2333 296.398 11.9933 296.025 12.62C295.665 13.2333 295.172 13.74 294.545 14.14C293.918 14.5267 293.205 14.8467 292.405 15.1L291.125 15.5C290.552 15.6733 290.105 15.8667 289.785 16.08C289.465 16.28 289.238 16.5067 289.105 16.76C288.985 17 288.925 17.2933 288.925 17.64V17.72H296.465V20H286.305ZM301.26 20L297.7 6H300.42L303.38 18.3H303.66L306.62 6H309.34L305.78 20H301.26Z" fill="white"/>
<circle cx="124" cy="358" r="21" fill="#463B3B"/>
<path d="M113.065 365V363.32C113.065 362.347 113.225 361.54 113.545 360.9C113.865 360.247 114.325 359.713 114.925 359.3C115.538 358.873 116.285 358.527 117.165 358.26L118.505 357.84C118.998 357.68 119.411 357.487 119.745 357.26C120.078 357.02 120.331 356.733 120.505 356.4C120.691 356.067 120.785 355.687 120.785 355.26V355.18C120.785 354.513 120.558 353.987 120.105 353.6C119.651 353.2 119.031 353 118.245 353C117.471 353 116.845 353.213 116.365 353.64C115.898 354.053 115.665 354.653 115.665 355.44V355.8H113.105V355.48C113.105 354.467 113.331 353.607 113.785 352.9C114.238 352.193 114.851 351.653 115.625 351.28C116.411 350.907 117.285 350.72 118.245 350.72C119.205 350.72 120.071 350.907 120.845 351.28C121.618 351.64 122.225 352.153 122.665 352.82C123.118 353.473 123.345 354.247 123.345 355.14V355.34C123.345 356.233 123.158 356.993 122.785 357.62C122.425 358.233 121.931 358.74 121.305 359.14C120.678 359.527 119.965 359.847 119.165 360.1L117.885 360.5C117.311 360.673 116.865 360.867 116.545 361.08C116.225 361.28 115.998 361.507 115.865 361.76C115.745 362 115.685 362.293 115.685 362.64V362.72H123.225V365H113.065ZM124.46 365L128.14 351H132.74L136.42 365H133.7L132.94 361.92H127.94L127.18 365H124.46ZM128.56 359.48H132.32L130.62 352.66H130.26L128.56 359.48Z" fill="white"/>
<circle cx="123" cy="194" r="21" fill="#463B3B"/>
<path d="M117.705 201V198.16H110.825V195.2L115.665 187H120.265V195.88H122.585V198.16H120.265V201H117.705ZM113.265 195.88H117.705V188.64H117.345L113.265 195.56V195.88ZM123.38 201L127.06 187H131.66L135.34 201H132.62L131.86 197.92H126.86L126.1 201H123.38ZM127.48 195.48H131.24L129.54 188.66H129.18L127.48 195.48Z" fill="white"/>
<rect x="1" y="85" width="58" height="58" rx="9" fill="#F7F7F7" stroke="#E5E5E5" stroke-width="2"/>
<circle cx="31" cy="115.164" r="15.625" fill="black"/>
<path d="M29.0863 118.913V118.433C29.0863 117.753 29.2196 117.193 29.4863 116.753C29.7663 116.313 30.2129 115.946 30.8263 115.653L31.1663 115.493C31.7663 115.213 32.2263 114.913 32.5463 114.593C32.8663 114.273 33.0263 113.846 33.0263 113.313C33.0263 112.926 32.9263 112.599 32.7263 112.333C32.5396 112.053 32.2729 111.839 31.9263 111.693C31.5796 111.546 31.1729 111.473 30.7063 111.473C30.2263 111.473 29.7929 111.553 29.4063 111.713C29.0329 111.873 28.7329 112.113 28.5063 112.433C28.2929 112.753 28.1863 113.153 28.1863 113.633V114.073H25.5863V113.673C25.5863 112.753 25.8129 111.959 26.2663 111.293C26.7196 110.626 27.3329 110.119 28.1063 109.773C28.8796 109.413 29.7463 109.233 30.7063 109.233C31.6529 109.233 32.4929 109.406 33.2263 109.753C33.9729 110.099 34.5596 110.579 34.9863 111.193C35.4129 111.806 35.6263 112.513 35.6263 113.313C35.6263 114.113 35.4796 114.773 35.1862 115.293C34.8929 115.799 34.5196 116.213 34.0663 116.533C33.6263 116.839 33.1729 117.106 32.7063 117.333L32.3663 117.493C32.1263 117.599 31.9596 117.733 31.8663 117.893C31.7729 118.039 31.7263 118.259 31.7263 118.553V118.913H29.0863ZM30.4863 123.793C29.9529 123.793 29.4996 123.619 29.1263 123.273C28.7663 122.913 28.5863 122.453 28.5863 121.893C28.5863 121.333 28.7663 120.879 29.1263 120.533C29.4996 120.173 29.9529 119.993 30.4863 119.993C31.0329 119.993 31.4863 120.173 31.8463 120.533C32.2063 120.879 32.3863 121.333 32.3863 121.893C32.3863 122.453 32.2063 122.913 31.8463 123.273C31.4863 123.619 31.0329 123.793 30.4863 123.793Z" fill="white"/>
<rect x="443" y="370" width="43.027" height="20" rx="5" fill="black"/>
<path d="M462.082 387V384.46H465.102C464.476 384.073 463.942 383.607 463.502 383.06C463.076 382.5 462.749 381.873 462.522 381.18C462.309 380.473 462.202 379.707 462.202 378.88C462.202 377.667 462.476 376.58 463.022 375.62C463.582 374.66 464.369 373.9 465.382 373.34C466.409 372.78 467.616 372.5 469.002 372.5C470.402 372.5 471.609 372.78 472.622 373.34C473.636 373.9 474.416 374.667 474.962 375.64C475.522 376.6 475.802 377.687 475.802 378.9C475.802 379.727 475.689 380.487 475.462 381.18C475.249 381.873 474.922 382.5 474.482 383.06C474.042 383.607 473.502 384.073 472.862 384.46H475.922V387H470.042V384.28C470.776 383.933 471.329 383.493 471.702 382.96C472.089 382.413 472.349 381.827 472.482 381.2C472.616 380.56 472.682 379.927 472.682 379.3C472.682 378.407 472.529 377.647 472.222 377.02C471.929 376.38 471.509 375.887 470.962 375.54C470.416 375.193 469.762 375.02 469.002 375.02C468.242 375.02 467.582 375.193 467.022 375.54C466.476 375.887 466.056 376.38 465.762 377.02C465.469 377.66 465.322 378.427 465.322 379.32C465.322 379.947 465.402 380.573 465.562 381.2C465.722 381.827 465.989 382.407 466.362 382.94C466.749 383.473 467.269 383.92 467.922 384.28V387H462.082Z" fill="white"/>
<path d="M455.004 387.28C453.937 387.28 452.991 387.12 452.164 386.8C451.351 386.48 450.711 386.02 450.244 385.42C449.791 384.807 449.564 384.087 449.564 383.26V383.02C449.564 382.38 449.677 381.853 449.904 381.44C450.131 381.013 450.411 380.68 450.744 380.44C451.091 380.2 451.417 380.033 451.724 379.94V379.58C451.417 379.473 451.111 379.3 450.804 379.06C450.497 378.82 450.244 378.5 450.044 378.1C449.857 377.7 449.764 377.22 449.764 376.66V376.42C449.764 375.687 449.977 375.047 450.404 374.5C450.844 373.94 451.457 373.507 452.244 373.2C453.031 372.88 453.951 372.72 455.004 372.72C456.057 372.72 456.977 372.88 457.764 373.2C458.551 373.507 459.157 373.94 459.584 374.5C460.024 375.047 460.244 375.687 460.244 376.42V376.66C460.244 377.22 460.144 377.7 459.944 378.1C459.757 378.5 459.511 378.82 459.204 379.06C458.911 379.3 458.604 379.473 458.284 379.58V379.94C458.604 380.033 458.931 380.2 459.264 380.44C459.597 380.68 459.877 381.013 460.104 381.44C460.331 381.853 460.444 382.38 460.444 383.02V383.26C460.444 384.087 460.211 384.807 459.744 385.42C459.291 386.02 458.651 386.48 457.824 386.8C457.011 387.12 456.071 387.28 455.004 387.28ZM455.004 385C455.924 385 456.631 384.827 457.124 384.48C457.631 384.12 457.884 383.647 457.884 383.06V382.9C457.884 382.313 457.637 381.847 457.144 381.5C456.664 381.14 455.951 380.96 455.004 380.96C454.071 380.96 453.357 381.14 452.864 381.5C452.371 381.847 452.124 382.313 452.124 382.9V383.06C452.124 383.647 452.371 384.12 452.864 384.48C453.371 384.827 454.084 385 455.004 385ZM455.004 378.68C455.857 378.68 456.517 378.527 456.984 378.22C457.451 377.913 457.684 377.48 457.684 376.92V376.76C457.684 376.2 457.444 375.767 456.964 375.46C456.484 375.153 455.831 375 455.004 375C454.177 375 453.524 375.153 453.044 375.46C452.564 375.767 452.324 376.2 452.324 376.76V376.92C452.324 377.48 452.557 377.913 453.024 378.22C453.491 378.527 454.151 378.68 455.004 378.68Z" fill="white"/>
<path d="M439.154 291L437.507 291.135L435.944 291.524L434.488 292.148L433.157 292.985L431.974 294.013L430.959 295.211L430.133 296.559L429.518 298.035L429.133 299.618L429 301.286V321.858L429.135 324.242L429.53 326.546L430.169 328.755L431.039 330.853L432.123 332.826L433.408 334.657L434.878 336.333L436.517 337.838L438.312 339.157L440.248 340.275L441.629 341.03L442.971 341.885L444.251 342.837L445.441 343.883L446.517 345.019L447.455 346.242L448.228 347.549L448.811 348.937L449.179 350.402L449.308 351.942L449.406 353.18L449.692 354.354L450.149 355.449L450.761 356.449L451.514 357.339L452.392 358.101L453.379 358.722L454.46 359.185L455.619 359.474L456.841 359.574H467.159L468.381 359.474L469.54 359.185L470.621 358.722L471.608 358.101L472.486 357.339L473.239 356.449L473.851 355.449L474.308 354.354L474.594 353.18L474.692 351.942L474.821 350.402L475.189 348.937L475.772 347.549L476.545 346.242L477.483 345.019L478.559 343.883L479.749 342.837L481.029 341.885L482.371 341.03L483.752 340.275L485.688 339.157L487.483 337.838L489.122 336.333L490.592 334.657L491.877 332.826L492.961 330.853L493.831 328.755L494.47 326.546L494.865 324.242L495 321.858V301.286L494.867 299.618L494.482 298.035L493.867 296.559L493.041 295.211L492.026 294.013L490.843 292.985L489.512 292.148L488.056 291.524L486.493 291.135L484.846 291H439.154Z" fill="#F2F2F2" stroke="#B3B3B3" stroke-width="2.78497"/>
<path d="M458.937 352.016V319.937L458.864 319.01L458.65 318.131L458.308 317.312L457.849 316.563L457.286 315.897L456.628 315.326L455.889 314.862L455.08 314.515L454.213 314.299L453.298 314.224L448.352 314.224L447.525 314.292L446.741 314.488L446.01 314.801L445.342 315.221L444.749 315.736L444.239 316.338L443.825 317.014L443.516 317.755L443.323 318.549L443.256 319.387L443.323 320.224L443.516 321.018L443.825 321.759L444.239 322.435L444.749 323.037L445.342 323.553L446.01 323.972L446.741 324.285L447.525 324.481L448.352 324.549L453.165 324.549L453.108 324.557H470.896L470.844 324.549L475.657 324.549L476.484 324.481L477.268 324.285L477.999 323.972L478.667 323.553L479.261 323.037L479.77 322.435L480.184 321.759L480.493 321.018L480.686 320.224L480.753 319.387L480.686 318.549L480.493 317.755L480.184 317.014L479.77 316.338L479.261 315.736L478.667 315.221L477.999 314.801L477.268 314.488L476.484 314.292L475.658 314.224L470.711 314.224L469.797 314.299L468.929 314.515L468.12 314.862L467.381 315.326L466.724 315.897L466.16 316.563L465.701 317.312L465.359 318.131L465.146 319.01L465.072 319.937V352.016" stroke="#B3B3B3" stroke-width="2.22798"/>
<path d="M449.308 351.001H474.692V354.43H449.308V351.001Z" fill="#808080" stroke="#808080" stroke-width="1.67098"/>
<path d="M449.308 351H474.692V354.428L474.582 355.819L474.261 357.138L473.748 358.367L473.06 359.491L472.214 360.489L471.228 361.346L470.119 362.043L468.905 362.563L467.603 362.888L466.231 363H457.769L456.397 362.888L455.095 362.563L453.881 362.043L452.772 361.346L451.786 360.489L450.94 359.491L450.252 358.367L449.739 357.138L449.418 355.819L449.308 354.428V351Z" fill="#141414" stroke="#141414" stroke-width="1.67098"/>
<rect x="274" y="372" width="43.027" height="20" rx="5" fill="black"/>
<path d="M295.082 389V386.46H298.102C297.476 386.073 296.942 385.607 296.502 385.06C296.076 384.5 295.749 383.873 295.522 383.18C295.309 382.473 295.202 381.707 295.202 380.88C295.202 379.667 295.476 378.58 296.022 377.62C296.582 376.66 297.369 375.9 298.382 375.34C299.409 374.78 300.616 374.5 302.002 374.5C303.402 374.5 304.609 374.78 305.622 375.34C306.636 375.9 307.416 376.667 307.962 377.64C308.522 378.6 308.802 379.687 308.802 380.9C308.802 381.727 308.689 382.487 308.462 383.18C308.249 383.873 307.922 384.5 307.482 385.06C307.042 385.607 306.502 386.073 305.862 386.46H308.922V389H303.042V386.28C303.776 385.933 304.329 385.493 304.702 384.96C305.089 384.413 305.349 383.827 305.482 383.2C305.616 382.56 305.682 381.927 305.682 381.3C305.682 380.407 305.529 379.647 305.222 379.02C304.929 378.38 304.509 377.887 303.962 377.54C303.416 377.193 302.762 377.02 302.002 377.02C301.242 377.02 300.582 377.193 300.022 377.54C299.476 377.887 299.056 378.38 298.762 379.02C298.469 379.66 298.322 380.427 298.322 381.32C298.322 381.947 298.402 382.573 298.562 383.2C298.722 383.827 298.989 384.407 299.362 384.94C299.749 385.473 300.269 385.92 300.922 386.28V389H295.082Z" fill="white"/>
<path d="M288.004 389.28C286.937 389.28 285.991 389.12 285.164 388.8C284.351 388.48 283.711 388.02 283.244 387.42C282.791 386.807 282.564 386.087 282.564 385.26V385.02C282.564 384.38 282.677 383.853 282.904 383.44C283.131 383.013 283.411 382.68 283.744 382.44C284.091 382.2 284.417 382.033 284.724 381.94V381.58C284.417 381.473 284.111 381.3 283.804 381.06C283.497 380.82 283.244 380.5 283.044 380.1C282.857 379.7 282.764 379.22 282.764 378.66V378.42C282.764 377.687 282.977 377.047 283.404 376.5C283.844 375.94 284.457 375.507 285.244 375.2C286.031 374.88 286.951 374.72 288.004 374.72C289.057 374.72 289.977 374.88 290.764 375.2C291.551 375.507 292.157 375.94 292.584 376.5C293.024 377.047 293.244 377.687 293.244 378.42V378.66C293.244 379.22 293.144 379.7 292.944 380.1C292.757 380.5 292.511 380.82 292.204 381.06C291.911 381.3 291.604 381.473 291.284 381.58V381.94C291.604 382.033 291.931 382.2 292.264 382.44C292.597 382.68 292.877 383.013 293.104 383.44C293.331 383.853 293.444 384.38 293.444 385.02V385.26C293.444 386.087 293.211 386.807 292.744 387.42C292.291 388.02 291.651 388.48 290.824 388.8C290.011 389.12 289.071 389.28 288.004 389.28ZM288.004 387C288.924 387 289.631 386.827 290.124 386.48C290.631 386.12 290.884 385.647 290.884 385.06V384.9C290.884 384.313 290.637 383.847 290.144 383.5C289.664 383.14 288.951 382.96 288.004 382.96C287.071 382.96 286.357 383.14 285.864 383.5C285.371 383.847 285.124 384.313 285.124 384.9V385.06C285.124 385.647 285.371 386.12 285.864 386.48C286.371 386.827 287.084 387 288.004 387ZM288.004 380.68C288.857 380.68 289.517 380.527 289.984 380.22C290.451 379.913 290.684 379.48 290.684 378.92V378.76C290.684 378.2 290.444 377.767 289.964 377.46C289.484 377.153 288.831 377 288.004 377C287.177 377 286.524 377.153 286.044 377.46C285.564 377.767 285.324 378.2 285.324 378.76V378.92C285.324 379.48 285.557 379.913 286.024 380.22C286.491 380.527 287.151 380.68 288.004 380.68Z" fill="white"/>
<path d="M270.154 293L268.507 293.135L266.944 293.524L265.488 294.148L264.157 294.985L262.974 296.013L261.959 297.211L261.133 298.559L260.518 300.035L260.133 301.618L260 303.286V323.858L260.135 326.242L260.53 328.546L261.169 330.755L262.039 332.853L263.123 334.826L264.408 336.657L265.878 338.333L267.517 339.838L269.312 341.157L271.248 342.275L272.629 343.03L273.971 343.885L275.251 344.837L276.441 345.883L277.517 347.019L278.455 348.242L279.228 349.549L279.811 350.937L280.179 352.402L280.308 353.942L280.406 355.18L280.692 356.354L281.149 357.449L281.761 358.449L282.514 359.339L283.392 360.101L284.379 360.722L285.46 361.185L286.619 361.474L287.841 361.574H298.159L299.381 361.474L300.54 361.185L301.621 360.722L302.608 360.101L303.486 359.339L304.239 358.449L304.851 357.449L305.308 356.354L305.594 355.18L305.692 353.942L305.821 352.402L306.189 350.937L306.772 349.549L307.545 348.242L308.483 347.019L309.559 345.883L310.749 344.837L312.029 343.885L313.371 343.03L314.752 342.275L316.688 341.157L318.483 339.838L320.122 338.333L321.592 336.657L322.877 334.826L323.961 332.853L324.831 330.755L325.47 328.546L325.865 326.242L326 323.858V303.286L325.867 301.618L325.482 300.035L324.867 298.559L324.041 297.211L323.026 296.013L321.843 294.985L320.512 294.148L319.056 293.524L317.493 293.135L315.846 293H270.154Z" fill="#F2F2F2" stroke="#B3B3B3" stroke-width="2.78497"/>
<path d="M289.937 354.016V321.937L289.864 321.01L289.65 320.131L289.308 319.312L288.849 318.563L288.286 317.897L287.628 317.326L286.889 316.862L286.08 316.515L285.213 316.299L284.298 316.224L279.352 316.224L278.525 316.292L277.741 316.488L277.01 316.801L276.342 317.221L275.749 317.736L275.239 318.338L274.825 319.014L274.516 319.755L274.323 320.549L274.256 321.387L274.323 322.224L274.516 323.018L274.825 323.759L275.239 324.435L275.749 325.037L276.342 325.553L277.01 325.972L277.741 326.285L278.525 326.481L279.352 326.549L284.165 326.549L284.108 326.557H301.896L301.844 326.549L306.657 326.549L307.484 326.481L308.268 326.285L308.999 325.972L309.667 325.553L310.261 325.037L310.77 324.435L311.184 323.759L311.493 323.018L311.686 322.224L311.753 321.387L311.686 320.549L311.493 319.755L311.184 319.014L310.77 318.338L310.261 317.736L309.667 317.221L308.999 316.801L308.268 316.488L307.484 316.292L306.658 316.224L301.711 316.224L300.797 316.299L299.929 316.515L299.12 316.862L298.381 317.326L297.724 317.897L297.16 318.563L296.701 319.312L296.359 320.131L296.146 321.01L296.072 321.937V354.016" stroke="#B3B3B3" stroke-width="2.22798"/>
<path d="M280.308 353.001H305.692V356.43H280.308V353.001Z" fill="#808080" stroke="#808080" stroke-width="1.67098"/>
<path d="M280.308 353H305.692V356.428L305.582 357.819L305.261 359.138L304.748 360.367L304.06 361.491L303.214 362.489L302.228 363.346L301.119 364.043L299.905 364.563L298.603 364.888L297.231 365H288.769L287.397 364.888L286.095 364.563L284.881 364.043L283.772 363.346L282.786 362.489L281.94 361.491L281.252 360.367L280.739 359.138L280.418 357.819L280.308 356.428V353Z" fill="#141414" stroke="#141414" stroke-width="1.67098"/>
<rect x="438.217" y="207" width="43.027" height="20" rx="5" fill="black"/>
<path d="M458.299 224V221.46H461.319C460.692 221.073 460.159 220.607 459.719 220.06C459.292 219.5 458.966 218.873 458.739 218.18C458.526 217.473 458.419 216.707 458.419 215.88C458.419 214.667 458.692 213.58 459.239 212.62C459.799 211.66 460.586 210.9 461.599 210.34C462.626 209.78 463.832 209.5 465.219 209.5C466.619 209.5 467.826 209.78 468.839 210.34C469.852 210.9 470.632 211.667 471.179 212.64C471.739 213.6 472.019 214.687 472.019 215.9C472.019 216.727 471.906 217.487 471.679 218.18C471.466 218.873 471.139 219.5 470.699 220.06C470.259 220.607 469.719 221.073 469.079 221.46H472.139V224H466.259V221.28C466.992 220.933 467.546 220.493 467.919 219.96C468.306 219.413 468.566 218.827 468.699 218.2C468.832 217.56 468.899 216.927 468.899 216.3C468.899 215.407 468.746 214.647 468.439 214.02C468.146 213.38 467.726 212.887 467.179 212.54C466.632 212.193 465.979 212.02 465.219 212.02C464.459 212.02 463.799 212.193 463.239 212.54C462.692 212.887 462.272 213.38 461.979 214.02C461.686 214.66 461.539 215.427 461.539 216.32C461.539 216.947 461.619 217.573 461.779 218.2C461.939 218.827 462.206 219.407 462.579 219.94C462.966 220.473 463.486 220.92 464.139 221.28V224H458.299Z" fill="white"/>
<path d="M452.259 224V221.16H445.379V218.2L450.219 210H454.819V218.88H457.139V221.16H454.819V224H452.259ZM447.819 218.88H452.259V211.64H451.899L447.819 218.56V218.88Z" fill="white"/>
<path d="M471.857 188.39L471.914 187.365L472.078 186.364L472.344 185.391L472.703 184.449L473.148 183.54L473.673 182.67L474.27 181.84L474.932 181.054L475.651 180.316L476.421 179.628L478.624 177.618L480.653 175.413L482.496 173.038L484.139 170.517L485.566 167.874L486.765 165.133L487.722 162.317L488.423 159.451L488.853 156.559L489 153.665L488.607 149.016L487.471 144.605L485.651 140.492L483.212 136.736L480.213 133.396L476.718 130.531L472.787 128.2L468.482 126.461L463.866 125.375L459 125L454.134 125.375L449.518 126.461L445.213 128.2L441.282 130.531L437.787 133.396L434.788 136.736L432.349 140.492L430.529 144.605L429.393 149.016L429 153.665L429.147 156.559L429.577 159.451L430.278 162.317L431.235 165.133L432.434 167.874L433.861 170.517L435.504 173.038L437.347 175.413L439.376 177.618L441.579 179.628L442.349 180.316L443.068 181.054L443.73 181.84L444.327 182.67L444.852 183.54L445.297 184.449L445.656 185.391L445.922 186.364L446.086 187.365L446.143 188.39L446.238 189.578L446.514 190.704L446.955 191.754L447.546 192.714L448.273 193.567L449.121 194.298L450.074 194.894L451.118 195.337L452.237 195.615L453.417 195.711H464.583L465.763 195.615L466.882 195.337L467.926 194.894L468.879 194.298L469.727 193.567L470.454 192.714L471.045 191.754L471.486 190.704L471.762 189.578L471.857 188.39Z" fill="#F2F2F2" stroke="#B3B3B3" stroke-width="2.78497"/>
<path d="M455.897 189.426V157.799L455.816 156.782L455.58 155.818L455.202 154.918L454.696 154.097L454.073 153.367L453.347 152.74L452.531 152.23L451.637 151.85L450.679 151.613L449.669 151.531L449.178 151.531L448.247 151.606L447.364 151.825L446.541 152.175L445.79 152.645L445.121 153.222L444.548 153.895L444.081 154.651L443.733 155.48L443.516 156.368L443.441 157.305L443.516 158.241L443.733 159.13L444.081 159.958L444.548 160.715L445.121 161.387L445.79 161.964L446.541 162.434L447.364 162.784L448.247 163.003L449.178 163.078L450.05 163.078L449.992 163.087H468.011L467.958 163.078L468.831 163.078L469.761 163.003L470.644 162.784L471.467 162.434L472.219 161.964L472.887 161.387L473.461 160.715L473.927 159.958L474.275 159.13L474.493 158.241L474.568 157.305L474.493 156.368L474.275 155.48L473.927 154.651L473.461 153.895L472.887 153.222L472.219 152.645L471.467 152.175L470.644 151.825L469.762 151.606L468.831 151.531L468.34 151.531L467.329 151.613L466.371 151.85L465.477 152.23L464.661 152.74L463.936 153.367L463.313 154.097L462.807 154.918L462.429 155.818L462.193 156.782L462.111 157.799V189.426" stroke="#B3B3B3" stroke-width="2.22798"/>
<path d="M446.143 187.489H471.858V190.778L471.751 192.112L471.441 193.377L470.946 194.556L470.281 195.634L469.465 196.592L468.513 197.414L467.442 198.082L466.27 198.581L465.013 198.892L463.688 199H454.313L452.988 198.892L451.731 198.581L450.559 198.082L449.488 197.414L448.536 196.592L447.72 195.634L447.055 194.556L446.56 193.377L446.25 192.112L446.143 190.778V187.489Z" fill="#141414" stroke="#141414" stroke-width="1.67098"/>
<path d="M446.143 187.493H471.858V190.782H446.143V187.493Z" fill="#808080" stroke="#808080" stroke-width="1.67098"/>
<rect x="272" y="210" width="43.027" height="20" rx="5" fill="black"/>
<path d="M292.082 227V224.46H295.102C294.476 224.073 293.942 223.607 293.502 223.06C293.076 222.5 292.749 221.873 292.522 221.18C292.309 220.473 292.202 219.707 292.202 218.88C292.202 217.667 292.476 216.58 293.022 215.62C293.582 214.66 294.369 213.9 295.382 213.34C296.409 212.78 297.616 212.5 299.002 212.5C300.402 212.5 301.609 212.78 302.622 213.34C303.636 213.9 304.416 214.667 304.962 215.64C305.522 216.6 305.802 217.687 305.802 218.9C305.802 219.727 305.689 220.487 305.462 221.18C305.249 221.873 304.922 222.5 304.482 223.06C304.042 223.607 303.502 224.073 302.862 224.46H305.922V227H300.042V224.28C300.776 223.933 301.329 223.493 301.702 222.96C302.089 222.413 302.349 221.827 302.482 221.2C302.616 220.56 302.682 219.927 302.682 219.3C302.682 218.407 302.529 217.647 302.222 217.02C301.929 216.38 301.509 215.887 300.962 215.54C300.416 215.193 299.762 215.02 299.002 215.02C298.242 215.02 297.582 215.193 297.022 215.54C296.476 215.887 296.056 216.38 295.762 217.02C295.469 217.66 295.322 218.427 295.322 219.32C295.322 219.947 295.402 220.573 295.562 221.2C295.722 221.827 295.989 222.407 296.362 222.94C296.749 223.473 297.269 223.92 297.922 224.28V227H292.082Z" fill="white"/>
<path d="M286.043 227V224.16H279.163V221.2L284.003 213H288.603V221.88H290.923V224.16H288.603V227H286.043ZM281.603 221.88H286.043V214.64H285.683L281.603 221.56V221.88Z" fill="white"/>
<path d="M305.64 191.39L305.697 190.365L305.862 189.364L306.127 188.391L306.486 187.449L306.932 186.54L307.457 185.67L308.054 184.84L308.715 184.054L309.435 183.316L310.204 182.628L312.407 180.618L314.437 178.413L316.28 176.038L317.922 173.517L319.35 170.874L320.549 168.133L321.506 165.317L322.206 162.451L322.637 159.559L322.783 156.665L322.391 152.016L321.254 147.605L319.435 143.492L316.995 139.736L313.997 136.396L310.501 133.531L306.57 131.2L302.266 129.461L297.649 128.375L292.783 128L287.917 128.375L283.301 129.461L278.997 131.2L275.066 133.531L271.57 136.396L268.572 139.736L266.132 143.492L264.313 147.605L263.176 152.016L262.783 156.665L262.93 159.559L263.36 162.451L264.061 165.317L265.018 168.133L266.217 170.874L267.645 173.517L269.287 176.038L271.13 178.413L273.16 180.618L275.362 182.628L276.132 183.316L276.851 184.054L277.513 184.84L278.11 185.67L278.635 186.54L279.081 187.449L279.44 188.391L279.705 189.364L279.87 190.365L279.926 191.39L280.021 192.578L280.297 193.704L280.738 194.754L281.33 195.714L282.057 196.567L282.904 197.298L283.857 197.894L284.901 198.337L286.02 198.615L287.2 198.711H298.367L299.546 198.615L300.666 198.337L301.709 197.894L302.662 197.298L303.51 196.567L304.237 195.714L304.829 194.754L305.27 193.704L305.545 192.578L305.64 191.39Z" fill="#F2F2F2" stroke="#B3B3B3" stroke-width="2.78497"/>
<path d="M289.681 192.426V160.799L289.599 159.782L289.363 158.818L288.985 157.918L288.479 157.097L287.856 156.367L287.131 155.74L286.314 155.23L285.421 154.85L284.462 154.613L283.452 154.531L282.961 154.531L282.03 154.606L281.148 154.825L280.325 155.175L279.573 155.645L278.904 156.222L278.331 156.895L277.865 157.651L277.517 158.48L277.299 159.368L277.224 160.305L277.299 161.241L277.517 162.13L277.865 162.958L278.331 163.715L278.905 164.387L279.573 164.964L280.325 165.434L281.148 165.784L282.031 166.003L282.961 166.078L283.834 166.078L283.775 166.087H301.794L301.742 166.078L302.614 166.078L303.545 166.003L304.427 165.784L305.251 165.434L306.002 164.964L306.671 164.387L307.244 163.715L307.711 162.958L308.058 162.13L308.276 161.241L308.351 160.305L308.276 159.368L308.059 158.48L307.711 157.651L307.244 156.895L306.671 156.222L306.002 155.645L305.251 155.175L304.428 154.825L303.545 154.606L302.614 154.531L302.123 154.531L301.113 154.613L300.154 154.85L299.261 155.23L298.445 155.74L297.719 156.367L297.096 157.097L296.59 157.918L296.212 158.818L295.976 159.782L295.895 160.799V192.426" stroke="#B3B3B3" stroke-width="2.22798"/>
<path d="M279.927 190.489H305.641V193.778L305.534 195.112L305.224 196.377L304.729 197.556L304.065 198.634L303.248 199.592L302.296 200.414L301.226 201.082L300.054 201.581L298.796 201.892L297.471 202H288.096L286.771 201.892L285.514 201.581L284.342 201.082L283.271 200.414L282.319 199.592L281.503 198.634L280.839 197.556L280.343 196.377L280.034 195.112L279.927 193.778V190.489Z" fill="#141414" stroke="#141414" stroke-width="1.67098"/>
<path d="M279.927 190.493H305.641V193.782H279.927V190.493Z" fill="#808080" stroke="#808080" stroke-width="1.67098"/>
</svg>
