<svg width="540" height="317" viewBox="0 0 540 317" fill="none" xmlns="http://www.w3.org/2000/svg">
<rect x="1" y="71.3966" width="538" height="218" stroke="black" stroke-width="2"/>
<path d="M313.754 312.386H235.689C232.609 312.386 230.113 309.7 230.113 306.387V270.395C230.113 267.082 232.609 264.397 235.689 264.397H313.754C316.834 264.397 319.33 267.082 319.33 270.395V306.387C319.33 309.7 316.834 312.386 313.754 312.386Z" fill="#CE6809"/>
<path d="M230.113 311.635H288.662V265.146H230.113V311.635Z" fill="#333333"/>
<path d="M288.662 282.392H319.33V270.395H288.662V282.392Z" fill="#E77A16"/>
<path d="M230.113 283.138H288.662V271.14H230.113V283.138Z" fill="#4C4C4C"/>
<path d="M327.325 300.509H321.748C320.209 300.509 318.96 299.166 318.96 297.51V279.514C318.96 277.857 320.209 276.514 321.748 276.514H327.325C328.864 276.514 330.113 277.857 330.113 279.514V297.51C330.113 299.166 328.864 300.509 327.325 300.509Z" fill="#333333"/>
<path d="M325.931 285.208H320.354C319.585 285.208 318.96 284.537 318.96 283.709V280.709C318.96 279.881 319.585 279.21 320.354 279.21H325.931C326.7 279.21 327.325 279.881 327.325 280.709V283.709C327.325 284.537 326.7 285.208 325.931 285.208Z" fill="#4C4C4C"/>
<path d="M313.754 312.397H235.689C232.609 312.397 230.113 309.711 230.113 306.398V270.406C230.113 267.093 232.609 264.407 235.689 264.407H313.754C316.834 264.407 319.33 267.093 319.33 270.406V306.398C319.33 309.711 316.834 312.397 313.754 312.397Z" stroke="#333333" stroke-width="2.78497"/>
<path d="M345.224 289.604L344.997 240.328L214 240.931L214.227 290.207" stroke="black" stroke-width="2"/>
<rect x="259.113" y="230.397" width="40" height="20" rx="5" fill="black"/>
<path d="M272.377 247.677C271.31 247.677 270.383 247.477 269.597 247.077C268.81 246.677 268.203 246.123 267.777 245.417C267.35 244.71 267.137 243.897 267.137 242.977V238.197C267.137 237.063 267.363 236.123 267.817 235.377C268.283 234.617 268.917 234.05 269.717 233.677C270.53 233.303 271.457 233.117 272.497 233.117C273.537 233.117 274.437 233.29 275.197 233.637C275.97 233.983 276.563 234.483 276.977 235.137C277.403 235.79 277.617 236.57 277.617 237.477H275.017C275.017 236.917 274.823 236.43 274.437 236.017C274.05 235.603 273.403 235.397 272.497 235.397C271.603 235.397 270.91 235.63 270.417 236.097C269.937 236.563 269.697 237.21 269.697 238.037V239.477H270.057C270.283 239.21 270.63 238.957 271.097 238.717C271.563 238.477 272.243 238.357 273.137 238.357C273.95 238.357 274.697 238.53 275.377 238.877C276.07 239.223 276.63 239.73 277.057 240.397C277.483 241.05 277.697 241.843 277.697 242.777V243.017C277.697 243.937 277.477 244.75 277.037 245.457C276.597 246.15 275.977 246.697 275.177 247.097C274.377 247.483 273.443 247.677 272.377 247.677ZM272.417 245.397C273.257 245.397 273.917 245.177 274.397 244.737C274.89 244.297 275.137 243.71 275.137 242.977V242.817C275.137 242.323 275.023 241.897 274.797 241.537C274.583 241.177 274.27 240.897 273.857 240.697C273.457 240.497 272.977 240.397 272.417 240.397C271.87 240.397 271.39 240.497 270.977 240.697C270.563 240.897 270.243 241.177 270.017 241.537C269.803 241.897 269.697 242.323 269.697 242.817V242.977C269.697 243.71 269.937 244.297 270.417 244.737C270.91 245.177 271.577 245.397 272.417 245.397ZM282.42 247.397L278.86 233.397H281.58L284.54 245.697H284.82L287.78 233.397H290.5L286.94 247.397H282.42Z" fill="white"/>
<rect x="426" y="257.397" width="58" height="58" rx="9" fill="#F7F7F7" stroke="#E5E5E5" stroke-width="2"/>
<circle cx="456" cy="287.56" r="15.625" fill="black"/>
<path d="M454.086 291.309V290.829C454.086 290.149 454.22 289.589 454.486 289.149C454.766 288.709 455.213 288.343 455.826 288.049L456.166 287.889C456.766 287.609 457.226 287.309 457.546 286.989C457.866 286.669 458.026 286.243 458.026 285.709C458.026 285.323 457.926 284.996 457.726 284.729C457.54 284.449 457.273 284.236 456.926 284.089C456.58 283.943 456.173 283.869 455.706 283.869C455.226 283.869 454.793 283.949 454.406 284.109C454.033 284.269 453.733 284.509 453.506 284.829C453.293 285.149 453.186 285.549 453.186 286.029V286.469H450.586V286.069C450.586 285.149 450.813 284.356 451.266 283.689C451.72 283.023 452.333 282.516 453.106 282.169C453.88 281.809 454.746 281.629 455.706 281.629C456.653 281.629 457.493 281.803 458.226 282.149C458.973 282.496 459.56 282.976 459.986 283.589C460.413 284.203 460.626 284.909 460.626 285.709C460.626 286.509 460.48 287.169 460.186 287.689C459.893 288.196 459.52 288.609 459.066 288.929C458.626 289.236 458.173 289.503 457.706 289.729L457.366 289.889C457.126 289.996 456.96 290.129 456.866 290.289C456.773 290.436 456.726 290.656 456.726 290.949V291.309H454.086ZM455.486 296.189C454.953 296.189 454.5 296.016 454.126 295.669C453.766 295.309 453.586 294.849 453.586 294.289C453.586 293.729 453.766 293.276 454.126 292.929C454.5 292.569 454.953 292.389 455.486 292.389C456.033 292.389 456.486 292.569 456.846 292.929C457.206 293.276 457.386 293.729 457.386 294.289C457.386 294.849 457.206 295.309 456.846 295.669C456.486 296.016 456.033 296.189 455.486 296.189Z" fill="white"/>
<path d="M455.662 32.4955L454.98 33.3892L454.365 34.3123L453.819 35.2624L453.343 36.2365L452.937 37.232L452.602 38.2461L452.34 39.2762L452.152 40.3194L452.038 41.373L452 42.4344L452.118 44.3108L452.463 46.1301L453.023 47.8823L453.787 49.5572L454.743 51.1449L455.878 52.6352L457.181 54.0181L458.639 55.2835L460.241 56.4214L461.974 57.4216L463.179 58.0865L464.341 58.8179L465.44 59.6136L466.456 60.4713L467.369 61.3886L468.161 62.3632L468.811 63.3929L469.3 64.4753L469.607 65.6081L469.714 66.789L469.817 67.8643L470.116 68.8844L470.595 69.8356L471.236 70.7042L472.024 71.4767L472.943 72.1393L473.976 72.6784L475.108 73.0804L476.321 73.3316L477.6 73.4183H488.4L489.679 73.3316L490.892 73.0804L492.024 72.6784L493.057 72.1393L493.976 71.4767L494.764 70.7042L495.405 69.8356L495.884 68.8844L496.182 67.8643L496.286 66.789L496.393 65.6081L496.7 64.4753L497.189 63.3929L497.839 62.3632L498.631 61.3886L499.544 60.4713L500.56 59.6136L501.659 58.8179L502.821 58.0865L504.026 57.4216L505.759 56.4214L507.361 55.2835L508.819 54.0181L510.122 52.6352L511.257 51.1449L512.213 49.5572L512.977 47.8823L513.537 46.1301L513.882 44.3108L514 42.4344L513.962 41.373L513.848 40.3194L513.66 39.2762L513.398 38.2461L513.063 37.232L512.657 36.2365L512.181 35.2624L511.635 34.3124L511.02 33.3892L510.338 32.4955L487.384 4.33862L486.682 3.6395L485.864 3.09574L484.958 2.70734L483.994 2.4743L483 2.39662L482.006 2.4743L481.042 2.70734L480.136 3.09574L479.318 3.6395L478.616 4.33862L455.662 32.4955Z" fill="#F2F2F2" stroke="#B3B3B3" stroke-width="2.79134"/>
<path d="M479.794 67.726V37.3307L479.732 36.6946L479.556 36.0913L479.273 35.5286L478.893 35.0149L478.427 34.558L477.884 34.1661L477.273 33.8472L476.603 33.6095L475.885 33.4609L475.129 33.4096L474.372 33.461L473.655 33.6096L472.985 33.8474L472.374 34.1662L471.831 34.5582L471.365 35.015L470.985 35.5288L470.703 36.0914L470.526 36.6947L470.465 37.3307V41.1036L470.554 42.0349L470.813 42.9183L471.227 43.7421L471.783 44.4944L472.465 45.1634L473.261 45.7372L474.156 46.2041L475.136 46.5523L476.187 46.7699L477.295 46.845L476.8 46.8524H489.2L488.714 46.845L489.822 46.7699L490.873 46.5523L491.853 46.2041L492.747 45.7372L493.543 45.1634L494.226 44.4944L494.781 43.7421L495.195 42.9183L495.454 42.0349L495.544 41.1036V37.3307L495.483 36.6947L495.306 36.0914L495.023 35.5288L494.644 35.015L494.178 34.5582L493.634 34.1662L493.023 33.8474L492.354 33.6096L491.636 33.461L490.88 33.4096L490.123 33.4609L489.405 33.6095L488.736 33.8472L488.125 34.1661L487.581 34.558L487.115 35.0149L486.736 35.5286L486.453 36.0913L486.276 36.6946L486.215 37.3307V67.726" stroke="#B3B3B3" stroke-width="2.23307"/>
<path d="M469.715 65.9726H496.286V68.9509L496.17 70.1586L495.835 71.3043L495.298 72.3726L494.577 73.3482L493.692 74.2158L492.66 74.96L491.499 75.5655L490.229 76.017L488.866 76.2992L487.429 76.3966H478.572L477.135 76.2992L475.772 76.017L474.501 75.5655L473.341 74.96L472.309 74.2158L471.424 73.3482L470.703 72.3726L470.166 71.3043L469.831 70.1586L469.715 68.9509V65.9726Z" fill="#141414" stroke="#141414" stroke-width="1.67481"/>
<path d="M469.715 65.9726H496.286V68.9509H469.715V65.9726Z" fill="#808080" stroke="#808080" stroke-width="1.67481"/>
<path d="M476.653 17.3852C483.226 17.3852 488.554 21.8646 488.554 27.3903C488.554 32.916 483.226 37.3955 476.653 37.3955C470.079 37.3955 464.751 32.916 464.751 27.3903C464.751 21.8646 470.079 17.3852 476.653 17.3852Z" fill="white" fill-opacity="0.3"/>
<rect x="462" y="80.3966" width="43.027" height="20" rx="5" fill="black"/>
<path d="M482.082 97.3966V94.8566H485.102C484.476 94.4699 483.942 94.0033 483.502 93.4566C483.076 92.8966 482.749 92.2699 482.522 91.5766C482.309 90.8699 482.202 90.1033 482.202 89.2766C482.202 88.0633 482.476 86.9766 483.022 86.0166C483.582 85.0566 484.369 84.2966 485.382 83.7366C486.409 83.1766 487.616 82.8966 489.002 82.8966C490.402 82.8966 491.609 83.1766 492.622 83.7366C493.636 84.2966 494.416 85.0633 494.962 86.0366C495.522 86.9966 495.802 88.0833 495.802 89.2966C495.802 90.1233 495.689 90.8833 495.462 91.5766C495.249 92.2699 494.922 92.8966 494.482 93.4566C494.042 94.0033 493.502 94.4699 492.862 94.8566H495.922V97.3966H490.042V94.6766C490.776 94.3299 491.329 93.8899 491.702 93.3566C492.089 92.8099 492.349 92.2233 492.482 91.5966C492.616 90.9566 492.682 90.3233 492.682 89.6966C492.682 88.8033 492.529 88.0433 492.222 87.4166C491.929 86.7766 491.509 86.2833 490.962 85.9366C490.416 85.5899 489.762 85.4166 489.002 85.4166C488.242 85.4166 487.582 85.5899 487.022 85.9366C486.476 86.2833 486.056 86.7766 485.762 87.4166C485.469 88.0566 485.322 88.8233 485.322 89.7166C485.322 90.3433 485.402 90.9699 485.562 91.5966C485.722 92.2233 485.989 92.8033 486.362 93.3366C486.749 93.8699 487.269 94.3166 487.922 94.6766V97.3966H482.082Z" fill="white"/>
<path d="M475.058 97.6766C473.992 97.6766 473.065 97.4766 472.278 97.0766C471.492 96.6766 470.885 96.1233 470.458 95.4166C470.032 94.7099 469.818 93.8966 469.818 92.9766V88.1966C469.818 87.0633 470.045 86.1233 470.498 85.3766C470.965 84.6166 471.598 84.0499 472.398 83.6766C473.212 83.3033 474.138 83.1166 475.178 83.1166C476.218 83.1166 477.118 83.2899 477.878 83.6366C478.652 83.9833 479.245 84.4833 479.658 85.1366C480.085 85.7899 480.298 86.5699 480.298 87.4766H477.698C477.698 86.9166 477.505 86.4299 477.118 86.0166C476.732 85.6033 476.085 85.3966 475.178 85.3966C474.285 85.3966 473.592 85.6299 473.098 86.0966C472.618 86.5633 472.378 87.2099 472.378 88.0366V89.4766H472.738C472.965 89.2099 473.312 88.9566 473.778 88.7166C474.245 88.4766 474.925 88.3566 475.818 88.3566C476.632 88.3566 477.378 88.5299 478.058 88.8766C478.752 89.2233 479.312 89.7299 479.738 90.3966C480.165 91.0499 480.378 91.8433 480.378 92.7766V93.0166C480.378 93.9366 480.158 94.7499 479.718 95.4566C479.278 96.1499 478.658 96.6966 477.858 97.0966C477.058 97.4833 476.125 97.6766 475.058 97.6766ZM475.098 95.3966C475.938 95.3966 476.598 95.1766 477.078 94.7366C477.572 94.2966 477.818 93.7099 477.818 92.9766V92.8166C477.818 92.3233 477.705 91.8966 477.478 91.5366C477.265 91.1766 476.952 90.8966 476.538 90.6966C476.138 90.4966 475.658 90.3966 475.098 90.3966C474.552 90.3966 474.072 90.4966 473.658 90.6966C473.245 90.8966 472.925 91.1766 472.698 91.5366C472.485 91.8966 472.378 92.3233 472.378 92.8166V92.9766C472.378 93.7099 472.618 94.2966 473.098 94.7366C473.592 95.1766 474.258 95.3966 475.098 95.3966Z" fill="white"/>
<rect x="250" y="83.3966" width="43.027" height="20" rx="5" fill="black"/>
<path d="M270.082 100.397V97.8566H273.102C272.476 97.4699 271.942 97.0033 271.502 96.4566C271.076 95.8966 270.749 95.2699 270.522 94.5766C270.309 93.8699 270.202 93.1033 270.202 92.2766C270.202 91.0633 270.476 89.9766 271.022 89.0166C271.582 88.0566 272.369 87.2966 273.382 86.7366C274.409 86.1766 275.616 85.8966 277.002 85.8966C278.402 85.8966 279.609 86.1766 280.622 86.7366C281.636 87.2966 282.416 88.0633 282.962 89.0366C283.522 89.9966 283.802 91.0833 283.802 92.2966C283.802 93.1233 283.689 93.8833 283.462 94.5766C283.249 95.2699 282.922 95.8966 282.482 96.4566C282.042 97.0033 281.502 97.4699 280.862 97.8566H283.922V100.397H278.042V97.6766C278.776 97.3299 279.329 96.8899 279.702 96.3566C280.089 95.8099 280.349 95.2233 280.482 94.5966C280.616 93.9566 280.682 93.3233 280.682 92.6966C280.682 91.8033 280.529 91.0433 280.222 90.4166C279.929 89.7766 279.509 89.2833 278.962 88.9366C278.416 88.5899 277.762 88.4166 277.002 88.4166C276.242 88.4166 275.582 88.5899 275.022 88.9366C274.476 89.2833 274.056 89.7766 273.762 90.4166C273.469 91.0566 273.322 91.8233 273.322 92.7166C273.322 93.3433 273.402 93.9699 273.562 94.5966C273.722 95.2233 273.989 95.8033 274.362 96.3366C274.749 96.8699 275.269 97.3166 275.922 97.6766V100.397H270.082Z" fill="white"/>
<path d="M264.043 100.397V97.5566H257.163V94.5966L262.003 86.3966H266.603V95.2766H268.923V97.5566H266.603V100.397H264.043ZM259.603 95.2766H264.043V88.0366H263.683L259.603 94.9566V95.2766Z" fill="white"/>
<path d="M247.154 4.39658L245.507 4.5312L243.944 4.92096L242.488 5.54469L241.157 6.38119L239.974 7.4093L238.959 8.60783L238.133 9.95562L237.518 11.4315L237.133 13.0142L237 14.6827V35.2548L237.135 37.6388L237.53 39.9427L238.169 42.1513L239.039 44.2494L240.123 46.222L241.408 48.0538L242.878 49.7298L244.517 51.2348L246.312 52.5537L248.248 53.6712L249.629 54.4263L250.971 55.2815L252.251 56.2335L253.441 57.279L254.517 58.415L255.455 59.6382L256.228 60.9454L256.811 62.3333L257.179 63.7988L257.308 65.3386L257.406 66.5765L257.692 67.7509L258.149 68.8459L258.761 69.8459L259.514 70.7351L260.392 71.498L261.379 72.1186L262.46 72.5814L263.619 72.8706L264.841 72.9705H275.159L276.381 72.8706L277.54 72.5814L278.621 72.1186L279.608 71.498L280.486 70.7351L281.239 69.8459L281.851 68.8459L282.308 67.7509L282.594 66.5765L282.692 65.3386L282.821 63.7988L283.189 62.3333L283.772 60.9454L284.545 59.6382L285.483 58.415L286.559 57.279L287.749 56.2335L289.029 55.2815L290.371 54.4263L291.752 53.6712L293.688 52.5537L295.483 51.2348L297.122 49.7298L298.592 48.0538L299.877 46.222L300.961 44.2494L301.831 42.1513L302.47 39.9427L302.865 37.6388L303 35.2548V14.6827L302.867 13.0142L302.482 11.4315L301.867 9.95562L301.041 8.60783L300.026 7.4093L298.843 6.38119L297.512 5.54469L296.056 4.92096L294.493 4.5312L292.846 4.39658H247.154Z" fill="#F2F2F2" stroke="#B3B3B3" stroke-width="2.78497"/>
<path d="M266.937 65.4128V33.3338L266.864 32.4072L266.65 31.5281L266.308 30.7084L265.849 29.9599L265.286 29.2942L264.628 28.7232L263.889 28.2586L263.08 27.9122L262.213 27.6958L261.298 27.621L256.352 27.6212L255.525 27.6888L254.741 27.8844L254.01 28.1975L253.342 28.6173L252.749 29.1332L252.239 29.7347L251.825 30.4111L251.516 31.1517L251.323 31.946L251.256 32.7833L251.323 33.6206L251.516 34.4148L251.825 35.1555L252.239 35.8319L252.749 36.4333L253.342 36.9493L254.01 37.3691L254.741 37.6821L255.525 37.8777L256.352 37.9453L261.165 37.9453L261.108 37.9538H278.896L278.844 37.9453L283.657 37.9453L284.484 37.8777L285.268 37.6821L285.999 37.3691L286.667 36.9493L287.261 36.4333L287.77 35.8319L288.184 35.1555L288.493 34.4148L288.686 33.6206L288.753 32.7833L288.686 31.946L288.493 31.1517L288.184 30.4111L287.77 29.7347L287.261 29.1332L286.667 28.6173L285.999 28.1975L285.268 27.8844L284.484 27.6888L283.658 27.6212L278.711 27.621L277.797 27.6958L276.929 27.9122L276.12 28.2586L275.381 28.7232L274.724 29.2942L274.16 29.9599L273.701 30.7084L273.359 31.5281L273.146 32.4072L273.072 33.3338V65.4128" stroke="#B3B3B3" stroke-width="2.22798"/>
<path d="M257.308 64.3975H282.692V67.8262H257.308V64.3975Z" fill="#808080" stroke="#808080" stroke-width="1.67098"/>
<path d="M257.308 64.3962H282.692V67.8249L282.582 69.2153L282.261 70.5342L281.748 71.7641L281.06 72.8872L280.214 73.886L279.228 74.7428L278.119 75.4398L276.905 75.9596L275.603 76.2844L274.231 76.3966H265.769L264.397 76.2844L263.095 75.9596L261.881 75.4398L260.772 74.7428L259.786 73.886L258.94 72.8872L258.252 71.7641L257.739 70.5342L257.418 69.2153L257.308 67.8249V64.3962Z" fill="#141414" stroke="#141414" stroke-width="1.67098"/>
<rect x="35.2167" y="83.3966" width="43.027" height="20" rx="5" fill="black"/>
<path d="M54.299 100.397V97.8566H57.319C56.6924 97.4699 56.159 97.0033 55.719 96.4566C55.2924 95.8966 54.9657 95.2699 54.739 94.5766C54.5257 93.8699 54.419 93.1033 54.419 92.2766C54.419 91.0633 54.6924 89.9766 55.239 89.0166C55.799 88.0566 56.5857 87.2966 57.599 86.7366C58.6257 86.1766 59.8324 85.8966 61.219 85.8966C62.619 85.8966 63.8257 86.1766 64.839 86.7366C65.8524 87.2966 66.6324 88.0633 67.179 89.0366C67.739 89.9966 68.019 91.0833 68.019 92.2966C68.019 93.1233 67.9057 93.8833 67.679 94.5766C67.4657 95.2699 67.139 95.8966 66.699 96.4566C66.259 97.0033 65.719 97.4699 65.079 97.8566H68.139V100.397H62.259V97.6766C62.9924 97.3299 63.5457 96.8899 63.919 96.3566C64.3057 95.8099 64.5657 95.2233 64.699 94.5966C64.8324 93.9566 64.899 93.3233 64.899 92.6966C64.899 91.8033 64.7457 91.0433 64.439 90.4166C64.1457 89.7766 63.7257 89.2833 63.179 88.9366C62.6324 88.5899 61.979 88.4166 61.219 88.4166C60.459 88.4166 59.799 88.5899 59.239 88.9366C58.6924 89.2833 58.2724 89.7766 57.979 90.4166C57.6857 91.0566 57.539 91.8233 57.539 92.7166C57.539 93.3433 57.619 93.9699 57.779 94.5966C57.939 95.2233 58.2057 95.8033 58.579 96.3366C58.9657 96.8699 59.4857 97.3166 60.139 97.6766V100.397H54.299Z" fill="white"/>
<path d="M42.1192 100.397V98.7166C42.1192 97.7433 42.2792 96.9366 42.5992 96.2966C42.9192 95.6433 43.3792 95.1099 43.9792 94.6966C44.5925 94.2699 45.3392 93.9233 46.2192 93.6566L47.5592 93.2366C48.0525 93.0766 48.4658 92.8833 48.7992 92.6566C49.1325 92.4166 49.3858 92.1299 49.5592 91.7966C49.7458 91.4633 49.8392 91.0833 49.8392 90.6566V90.5766C49.8392 89.9099 49.6125 89.3833 49.1592 88.9966C48.7058 88.5966 48.0858 88.3966 47.2992 88.3966C46.5258 88.3966 45.8992 88.6099 45.4192 89.0366C44.9525 89.4499 44.7192 90.0499 44.7192 90.8366V91.1966H42.1592V90.8766C42.1592 89.8633 42.3858 89.0033 42.8392 88.2966C43.2925 87.5899 43.9058 87.0499 44.6792 86.6766C45.4658 86.3033 46.3392 86.1166 47.2992 86.1166C48.2592 86.1166 49.1258 86.3033 49.8992 86.6766C50.6725 87.0366 51.2792 87.5499 51.7192 88.2166C52.1725 88.8699 52.3992 89.6433 52.3992 90.5366V90.7366C52.3992 91.6299 52.2125 92.3899 51.8392 93.0166C51.4792 93.6299 50.9858 94.1366 50.3592 94.5366C49.7325 94.9233 49.0192 95.2433 48.2192 95.4966L46.9392 95.8966C46.3658 96.0699 45.9192 96.2633 45.5992 96.4766C45.2792 96.6766 45.0525 96.9033 44.9192 97.1566C44.7992 97.3966 44.7392 97.6899 44.7392 98.0366V98.1166H52.2792V100.397H42.1192Z" fill="white"/>
<path d="M68.8571 64.7867L68.9136 63.7617L69.0782 62.7609L69.3436 61.7877L69.7028 60.8453L70.1484 59.9371L70.6733 59.0664L71.2702 58.2365L71.932 57.4507L72.6514 56.7124L73.4211 56.0248L75.6238 54.0142L77.6535 51.8095L79.4964 49.4346L81.1386 46.9136L82.5662 44.2705L83.7653 41.5291L84.7222 38.7136L85.4228 35.8479L85.8534 32.9559L86 30.0618L85.6074 25.4121L84.4706 21.0014L82.6515 16.8885L80.2117 13.1325L77.2132 9.79246L73.7176 6.92735L69.7867 4.59619L65.4823 2.85801L60.8662 1.77182L56 1.39664L51.1338 1.77182L46.5177 2.85801L42.2133 4.59619L38.2824 6.92735L34.7868 9.79246L31.7883 13.1325L29.3485 16.8885L27.5294 21.0014L26.3927 25.4121L26 30.0618L26.1466 32.9559L26.5772 35.8479L27.2778 38.7136L28.2347 41.5291L29.4338 44.2705L30.8614 46.9136L32.5036 49.4346L34.3465 51.8095L36.3762 54.0142L38.5789 56.0248L39.3486 56.7124L40.068 57.4507L40.7298 58.2365L41.3267 59.0664L41.8516 59.9371L42.2972 60.8453L42.6564 61.7877L42.9218 62.7609L43.0864 63.7617L43.1429 64.7867L43.2381 65.9741L43.5137 67.1006L43.9548 68.1509L44.5463 69.1101L45.2733 69.9631L46.1209 70.6948L47.074 71.2902L48.1176 71.7341L49.2369 72.0115L50.4167 72.1073H61.5833L62.7632 72.0115L63.8824 71.7341L64.926 71.2902L65.8791 70.6948L66.7267 69.9631L67.4537 69.1101L68.0453 68.1509L68.4863 67.1006L68.7619 65.9741L68.8571 64.7867Z" fill="#F2F2F2" stroke="#B3B3B3" stroke-width="2.78497"/>
<path d="M52.8972 65.8223V34.1955L52.8157 33.1787L52.5797 32.2142L52.202 31.3148L51.6955 30.4935L51.073 29.7631L50.3472 29.1366L49.5311 28.6269L48.6375 28.2468L47.6791 28.0093L46.6688 27.9273L46.1776 27.9273L45.247 28.0029L44.3643 28.2218L43.5412 28.5719L42.7896 29.0414L42.1211 29.6185L41.5477 30.2913L41.0812 31.0478L40.7334 31.8762L40.516 32.7646L40.4409 33.7011L40.516 34.6377L40.7334 35.5261L41.0812 36.3545L41.5478 37.111L42.1212 37.7838L42.7896 38.3609L43.5413 38.8304L44.3644 39.1805L45.2472 39.3993L46.1777 39.4749L47.0503 39.4749L46.9917 39.483H65.0111L64.9583 39.4749L65.8308 39.4749L66.7614 39.3993L67.6441 39.1805L68.4672 38.8304L69.2189 38.3609L69.8874 37.7838L70.4608 37.111L70.9273 36.3545L71.2752 35.5261L71.4926 34.6377L71.5676 33.7011L71.4926 32.7646L71.2752 31.8762L70.9273 31.0478L70.4608 30.2913L69.8874 29.6185L69.219 29.0414L68.4673 28.5719L67.6442 28.2218L66.7615 28.0029L65.831 27.9273L65.3398 27.9273L64.3295 28.0093L63.3711 28.2468L62.4774 28.6269L61.6613 29.1366L60.9356 29.7631L60.3131 30.4935L59.8065 31.3148L59.4289 32.2142L59.1928 33.1787L59.1113 34.1955V65.8223" stroke="#B3B3B3" stroke-width="2.22798"/>
<path d="M43.1433 63.8856H68.8576V67.1744L68.7507 68.5081L68.4411 69.7733L67.9457 70.953L67.2813 72.0303L66.4648 72.9884L65.5128 73.8102L64.4424 74.4789L63.2702 74.9774L62.0131 75.289L60.688 75.3966H51.313L49.9878 75.289L48.7307 74.9774L47.5585 74.4789L46.4881 73.8102L45.5361 72.9884L44.7196 72.0303L44.0552 70.953L43.5598 69.7733L43.2502 68.5081L43.1433 67.1744V63.8856Z" fill="#141414" stroke="#141414" stroke-width="1.67098"/>
<path d="M43.1433 63.8898H68.8576V67.1787H43.1433V63.8898Z" fill="#808080" stroke="#808080" stroke-width="1.67098"/>
</svg>
