<svg width="400" height="381" viewBox="0 0 400 381" fill="none" xmlns="http://www.w3.org/2000/svg">
<rect x="16" y="122" width="368" height="204" stroke="black" stroke-width="2"/>
<path d="M230.754 348.989H152.689C149.609 348.989 147.113 346.304 147.113 342.991V306.999C147.113 303.686 149.609 301 152.689 301H230.754C233.834 301 236.33 303.686 236.33 306.999V342.991C236.33 346.304 233.834 348.989 230.754 348.989Z" fill="#CE6809"/>
<path d="M147.113 348.239H205.662V301.749H147.113V348.239Z" fill="#333333"/>
<path d="M205.662 318.995H236.33V306.998H205.662V318.995Z" fill="#E77A16"/>
<path d="M147.113 319.741H205.662V307.744H147.113V319.741Z" fill="#4C4C4C"/>
<path d="M244.325 337.112H238.748C237.209 337.112 235.96 335.77 235.96 334.113V316.117C235.96 314.461 237.209 313.118 238.748 313.118H244.325C245.864 313.118 247.113 314.461 247.113 316.117V334.113C247.113 335.77 245.864 337.112 244.325 337.112Z" fill="#333333"/>
<path d="M242.931 321.812H237.354C236.585 321.812 235.96 321.14 235.96 320.312V317.313C235.96 316.485 236.585 315.813 237.354 315.813H242.931C243.7 315.813 244.325 316.485 244.325 317.313V320.312C244.325 321.14 243.7 321.812 242.931 321.812Z" fill="#4C4C4C"/>
<path d="M230.754 349H152.689C149.609 349 147.113 346.314 147.113 343.001V307.009C147.113 303.696 149.609 301.011 152.689 301.011H230.754C233.834 301.011 236.33 303.696 236.33 307.009V343.001C236.33 346.314 233.834 349 230.754 349Z" stroke="#333333" stroke-width="2.78497"/>
<path d="M280.154 130L278.507 130.135L276.944 130.524L275.488 131.148L274.157 131.985L272.974 133.013L271.959 134.211L271.133 135.559L270.518 137.035L270.133 138.618L270 140.286V160.858L270.135 163.242L270.53 165.546L271.169 167.755L272.039 169.853L273.123 171.825L274.408 173.657L275.878 175.333L277.517 176.838L279.312 178.157L281.248 179.275L282.629 180.03L283.971 180.885L285.251 181.837L286.441 182.882L287.517 184.018L288.455 185.242L289.228 186.549L289.811 187.937L290.179 189.402L290.308 190.942L290.406 192.18L290.692 193.354L291.149 194.449L291.761 195.449L292.514 196.339L293.392 197.101L294.379 197.722L295.46 198.185L296.619 198.474L297.841 198.574H308.159L309.381 198.474L310.54 198.185L311.621 197.722L312.608 197.101L313.486 196.339L314.239 195.449L314.851 194.449L315.308 193.354L315.594 192.18L315.692 190.942L315.821 189.402L316.189 187.937L316.772 186.549L317.545 185.242L318.483 184.018L319.559 182.882L320.749 181.837L322.029 180.885L323.371 180.03L324.752 179.275L326.688 178.157L328.483 176.838L330.122 175.333L331.592 173.657L332.877 171.825L333.961 169.853L334.831 167.755L335.47 165.546L335.865 163.242L336 160.858V140.286L335.867 138.618L335.482 137.035L334.867 135.559L334.041 134.211L333.026 133.013L331.843 131.985L330.512 131.148L329.056 130.524L327.493 130.135L325.846 130H280.154Z" fill="#F2F2F2" stroke="#B3B3B3" stroke-width="2.78497"/>
<path d="M299.937 191.016V158.937L299.864 158.011L299.65 157.132L299.308 156.312L298.849 155.563L298.286 154.898L297.628 154.327L296.889 153.862L296.08 153.516L295.213 153.299L294.298 153.224L289.352 153.225L288.525 153.292L287.741 153.488L287.01 153.801L286.342 154.221L285.749 154.737L285.239 155.338L284.825 156.014L284.516 156.755L284.323 157.549L284.256 158.387L284.323 159.224L284.516 160.018L284.825 160.759L285.239 161.435L285.749 162.037L286.342 162.553L287.01 162.972L287.741 163.286L288.525 163.481L289.352 163.549L294.165 163.549L294.108 163.557H311.896L311.844 163.549L316.657 163.549L317.484 163.481L318.268 163.286L318.999 162.972L319.667 162.553L320.261 162.037L320.77 161.435L321.184 160.759L321.493 160.018L321.686 159.224L321.753 158.387L321.686 157.549L321.493 156.755L321.184 156.014L320.77 155.338L320.261 154.737L319.667 154.221L318.999 153.801L318.268 153.488L317.484 153.292L316.658 153.225L311.711 153.224L310.797 153.299L309.929 153.516L309.12 153.862L308.381 154.327L307.724 154.898L307.16 155.563L306.701 156.312L306.359 157.132L306.146 158.011L306.072 158.937V191.016" stroke="#B3B3B3" stroke-width="2.22798"/>
<path d="M290.308 190.001H315.692V193.43H290.308V190.001Z" fill="#808080" stroke="#808080" stroke-width="1.67098"/>
<path d="M290.308 190H315.692V193.428L315.582 194.819L315.261 196.138L314.748 197.367L314.06 198.491L313.214 199.489L312.228 200.346L311.119 201.043L309.905 201.563L308.603 201.888L307.231 202H298.769L297.397 201.888L296.095 201.563L294.881 201.043L293.772 200.346L292.786 199.489L291.94 198.491L291.252 197.367L290.739 196.138L290.418 194.819L290.308 193.428V190Z" fill="#141414" stroke="#141414" stroke-width="1.67098"/>
<rect x="283" y="208" width="43.027" height="20" rx="5" fill="black"/>
<path d="M304.082 225V222.46H307.102C306.476 222.073 305.942 221.607 305.502 221.06C305.076 220.5 304.749 219.873 304.522 219.18C304.309 218.473 304.202 217.707 304.202 216.88C304.202 215.667 304.476 214.58 305.022 213.62C305.582 212.66 306.369 211.9 307.382 211.34C308.409 210.78 309.616 210.5 311.002 210.5C312.402 210.5 313.609 210.78 314.622 211.34C315.636 211.9 316.416 212.667 316.962 213.64C317.522 214.6 317.802 215.687 317.802 216.9C317.802 217.727 317.689 218.487 317.462 219.18C317.249 219.873 316.922 220.5 316.482 221.06C316.042 221.607 315.502 222.073 314.862 222.46H317.922V225H312.042V222.28C312.776 221.933 313.329 221.493 313.702 220.96C314.089 220.413 314.349 219.827 314.482 219.2C314.616 218.56 314.682 217.927 314.682 217.3C314.682 216.407 314.529 215.647 314.222 215.02C313.929 214.38 313.509 213.887 312.962 213.54C312.416 213.193 311.762 213.02 311.002 213.02C310.242 213.02 309.582 213.193 309.022 213.54C308.476 213.887 308.056 214.38 307.762 215.02C307.469 215.66 307.322 216.427 307.322 217.32C307.322 217.947 307.402 218.573 307.562 219.2C307.722 219.827 307.989 220.407 308.362 220.94C308.749 221.473 309.269 221.92 309.922 222.28V225H304.082Z" fill="white"/>
<path d="M298.043 225V222.16H291.163V219.2L296.003 211H300.603V219.88H302.923V222.16H300.603V225H298.043ZM293.603 219.88H298.043V212.64H297.683L293.603 219.56V219.88Z" fill="white"/>
<path d="M279.154 1.99997L277.507 2.1346L275.944 2.52435L274.488 3.14808L273.157 3.98459L271.974 5.0127L270.959 6.21123L270.133 7.55901L269.518 9.03485L269.133 10.6176L269 12.2861V32.8582L269.135 35.2422L269.53 37.5461L270.169 39.7547L271.039 41.8528L272.123 43.8254L273.408 45.6572L274.878 47.3332L276.517 48.8382L278.312 50.1571L280.248 51.2746L281.629 52.0297L282.971 52.8849L284.251 53.8368L285.441 54.8824L286.517 56.0184L287.455 57.2416L288.228 58.5487L288.811 59.9367L289.179 61.4022L289.308 62.942L289.406 64.1799L289.692 65.3543L290.149 66.4493L290.761 67.4493L291.514 68.3385L292.392 69.1013L293.379 69.722L294.46 70.1848L295.619 70.474L296.841 70.5739H307.159L308.381 70.474L309.54 70.1848L310.621 69.722L311.608 69.1013L312.486 68.3385L313.239 67.4493L313.851 66.4493L314.308 65.3543L314.594 64.1799L314.692 62.942L314.821 61.4022L315.189 59.9367L315.772 58.5487L316.545 57.2416L317.483 56.0184L318.559 54.8824L319.749 53.8368L321.029 52.8849L322.371 52.0297L323.752 51.2746L325.688 50.1571L327.483 48.8382L329.122 47.3332L330.592 45.6572L331.877 43.8254L332.961 41.8528L333.831 39.7547L334.47 37.5461L334.865 35.2422L335 32.8582V12.2861L334.867 10.6176L334.482 9.03485L333.867 7.55901L333.041 6.21123L332.026 5.0127L330.843 3.98459L329.512 3.14808L328.056 2.52435L326.493 2.1346L324.846 1.99997H279.154Z" fill="#F2F2F2" stroke="#B3B3B3" stroke-width="2.78497"/>
<path d="M298.937 63.0162V30.9372L298.864 30.0106L298.65 29.1315L298.308 28.3118L297.849 27.5633L297.286 26.8976L296.628 26.3266L295.889 25.862L295.08 25.5156L294.213 25.2992L293.298 25.2244L288.352 25.2246L287.525 25.2922L286.741 25.4878L286.01 25.8009L285.342 26.2207L284.749 26.7366L284.239 27.3381L283.825 28.0144L283.516 28.7551L283.323 29.5494L283.256 30.3866L283.323 31.224L283.516 32.0182L283.825 32.7589L284.239 33.4353L284.749 34.0367L285.342 34.5527L286.01 34.9725L286.741 35.2855L287.525 35.4811L288.352 35.5487L293.165 35.5487L293.108 35.5572H310.896L310.844 35.5487L315.657 35.5487L316.484 35.4811L317.268 35.2855L317.999 34.9725L318.667 34.5527L319.261 34.0367L319.77 33.4353L320.184 32.7589L320.493 32.0182L320.686 31.224L320.753 30.3866L320.686 29.5494L320.493 28.7551L320.184 28.0144L319.77 27.3381L319.261 26.7366L318.667 26.2207L317.999 25.8009L317.268 25.4878L316.484 25.2922L315.658 25.2246L310.711 25.2244L309.797 25.2992L308.929 25.5156L308.12 25.862L307.381 26.3266L306.724 26.8976L306.16 27.5633L305.701 28.3118L305.359 29.1315L305.146 30.0106L305.072 30.9372V63.0162" stroke="#B3B3B3" stroke-width="2.22798"/>
<path d="M289.308 62.0009H314.692V65.4296H289.308V62.0009Z" fill="#808080" stroke="#808080" stroke-width="1.67098"/>
<path d="M289.308 61.9996H314.692V65.4283L314.582 66.8186L314.261 68.1376L313.748 69.3675L313.06 70.4906L312.214 71.4894L311.228 72.3462L310.119 73.0432L308.905 73.563L307.603 73.8878L306.231 74H297.769L296.397 73.8878L295.095 73.563L293.881 73.0432L292.772 72.3462L291.786 71.4894L290.94 70.4906L290.252 69.3675L289.739 68.1376L289.418 66.8186L289.308 65.4283V61.9996Z" fill="#141414" stroke="#141414" stroke-width="1.67098"/>
<rect x="282" y="80" width="43.027" height="20" rx="5" fill="black"/>
<path d="M303.082 97V94.46H306.102C305.476 94.0733 304.942 93.6067 304.502 93.06C304.076 92.5 303.749 91.8733 303.522 91.18C303.309 90.4733 303.202 89.7067 303.202 88.88C303.202 87.6667 303.476 86.58 304.022 85.62C304.582 84.66 305.369 83.9 306.382 83.34C307.409 82.78 308.616 82.5 310.002 82.5C311.402 82.5 312.609 82.78 313.622 83.34C314.636 83.9 315.416 84.6667 315.962 85.64C316.522 86.6 316.802 87.6867 316.802 88.9C316.802 89.7267 316.689 90.4867 316.462 91.18C316.249 91.8733 315.922 92.5 315.482 93.06C315.042 93.6067 314.502 94.0733 313.862 94.46H316.922V97H311.042V94.28C311.776 93.9333 312.329 93.4933 312.702 92.96C313.089 92.4133 313.349 91.8267 313.482 91.2C313.616 90.56 313.682 89.9267 313.682 89.3C313.682 88.4067 313.529 87.6467 313.222 87.02C312.929 86.38 312.509 85.8867 311.962 85.54C311.416 85.1933 310.762 85.02 310.002 85.02C309.242 85.02 308.582 85.1933 308.022 85.54C307.476 85.8867 307.056 86.38 306.762 87.02C306.469 87.66 306.322 88.4267 306.322 89.32C306.322 89.9467 306.402 90.5733 306.562 91.2C306.722 91.8267 306.989 92.4067 307.362 92.94C307.749 93.4733 308.269 93.92 308.922 94.28V97H303.082Z" fill="white"/>
<path d="M297.043 97V94.16H290.163V91.2L295.003 83H299.603V91.88H301.923V94.16H299.603V97H297.043ZM292.603 91.88H297.043V84.64H296.683L292.603 91.56V91.88Z" fill="white"/>
<rect x="250" y="69" width="104" height="130" stroke="black" stroke-width="2"/>
<path d="M73.8572 113.39L73.9136 112.365L74.0782 111.364L74.3436 110.391L74.7028 109.449L75.1484 108.54L75.6733 107.67L76.2702 106.84L76.932 106.054L77.6514 105.316L78.4211 104.628L80.6238 102.618L82.6535 100.413L84.4964 98.038L86.1386 95.517L87.5662 92.8739L88.7653 90.1325L89.7222 87.317L90.4228 84.4513L90.8534 81.5593L91 78.6652L90.6074 74.0155L89.4706 69.6048L87.6515 65.4919L85.2117 61.7359L82.2132 58.3959L78.7176 55.5307L74.7867 53.1996L70.4823 51.4614L65.8662 50.3752L61 50L56.1338 50.3752L51.5177 51.4614L47.2133 53.1996L43.2824 55.5307L39.7868 58.3959L36.7883 61.7359L34.3485 65.4919L32.5294 69.6048L31.3927 74.0155L31 78.6652L31.1466 81.5593L31.5772 84.4513L32.2778 87.317L33.2347 90.1325L34.4338 92.8739L35.8614 95.517L37.5036 98.038L39.3465 100.413L41.3762 102.618L43.5789 104.628L44.3486 105.316L45.068 106.054L45.7298 106.84L46.3267 107.67L46.8516 108.54L47.2972 109.449L47.6564 110.391L47.9218 111.364L48.0864 112.365L48.1429 113.39L48.2381 114.578L48.5137 115.704L48.9548 116.754L49.5463 117.714L50.2733 118.567L51.1209 119.298L52.074 119.894L53.1176 120.337L54.2369 120.615L55.4167 120.711H66.5833L67.7632 120.615L68.8824 120.337L69.926 119.894L70.8791 119.298L71.7267 118.567L72.4537 117.714L73.0453 116.754L73.4863 115.704L73.7619 114.578L73.8572 113.39Z" fill="#F2F2F2" stroke="#B3B3B3" stroke-width="2.78497"/>
<path d="M57.8972 114.426V82.7989L57.8157 81.7821L57.5797 80.8176L57.202 79.9182L56.6955 79.0969L56.073 78.3665L55.3472 77.74L54.5311 77.2303L53.6375 76.8502L52.6791 76.6127L51.6688 76.5307L51.1776 76.5307L50.247 76.6063L49.3643 76.8251L48.5412 77.1753L47.7896 77.6448L47.1211 78.2219L46.5477 78.8947L46.0812 79.6512L45.7334 80.4796L45.516 81.368L45.4409 82.3045L45.516 83.241L45.7334 84.1295L46.0812 84.9579L46.5478 85.7144L47.1212 86.3872L47.7896 86.9643L48.5413 87.4338L49.3644 87.7839L50.2472 88.0027L51.1777 88.0783L52.0503 88.0783L51.9917 88.0864H70.0111L69.9583 88.0783L70.8308 88.0783L71.7614 88.0027L72.6441 87.7839L73.4672 87.4338L74.2189 86.9643L74.8874 86.3872L75.4608 85.7144L75.9273 84.9579L76.2752 84.1295L76.4926 83.241L76.5676 82.3045L76.4926 81.368L76.2752 80.4796L75.9273 79.6512L75.4608 78.8947L74.8874 78.2219L74.219 77.6448L73.4673 77.1753L72.6442 76.8251L71.7615 76.6063L70.831 76.5307L70.3398 76.5307L69.3295 76.6127L68.3711 76.8502L67.4774 77.2303L66.6613 77.74L65.9356 78.3665L65.3131 79.0969L64.8065 79.9182L64.4289 80.8176L64.1928 81.7821L64.1113 82.7989V114.426" stroke="#B3B3B3" stroke-width="2.22798"/>
<path d="M48.1433 112.489H73.8576V115.778L73.7507 117.112L73.4411 118.377L72.9457 119.556L72.2813 120.634L71.4648 121.592L70.5128 122.414L69.4424 123.082L68.2702 123.581L67.0131 123.892L65.688 124H56.313L54.9878 123.892L53.7307 123.581L52.5585 123.082L51.4881 122.414L50.5361 121.592L49.7196 120.634L49.0552 119.556L48.5598 118.377L48.2502 117.112L48.1433 115.778V112.489Z" fill="#141414" stroke="#141414" stroke-width="1.67098"/>
<path d="M48.1433 112.493H73.8576V115.782H48.1433V112.493Z" fill="#808080" stroke="#808080" stroke-width="1.67098"/>
<rect x="41" y="130" width="43.027" height="20" rx="5" fill="black"/>
<path d="M61.0823 147V144.46H64.1023C63.4757 144.073 62.9423 143.607 62.5023 143.06C62.0757 142.5 61.749 141.873 61.5223 141.18C61.309 140.473 61.2023 139.707 61.2023 138.88C61.2023 137.667 61.4757 136.58 62.0223 135.62C62.5823 134.66 63.369 133.9 64.3823 133.34C65.409 132.78 66.6157 132.5 68.0023 132.5C69.4023 132.5 70.609 132.78 71.6223 133.34C72.6357 133.9 73.4157 134.667 73.9623 135.64C74.5223 136.6 74.8023 137.687 74.8023 138.9C74.8023 139.727 74.689 140.487 74.4623 141.18C74.249 141.873 73.9223 142.5 73.4823 143.06C73.0423 143.607 72.5023 144.073 71.8623 144.46H74.9223V147H69.0423V144.28C69.7757 143.933 70.329 143.493 70.7023 142.96C71.089 142.413 71.349 141.827 71.4823 141.2C71.6157 140.56 71.6823 139.927 71.6823 139.3C71.6823 138.407 71.529 137.647 71.2223 137.02C70.929 136.38 70.509 135.887 69.9623 135.54C69.4157 135.193 68.7623 135.02 68.0023 135.02C67.2423 135.02 66.5823 135.193 66.0223 135.54C65.4757 135.887 65.0557 136.38 64.7623 137.02C64.469 137.66 64.3223 138.427 64.3223 139.32C64.3223 139.947 64.4023 140.573 64.5623 141.2C64.7223 141.827 64.989 142.407 65.3623 142.94C65.749 143.473 66.269 143.92 66.9223 144.28V147H61.0823Z" fill="white"/>
<path d="M48.9025 147V145.32C48.9025 144.347 49.0625 143.54 49.3825 142.9C49.7025 142.247 50.1625 141.713 50.7625 141.3C51.3758 140.873 52.1225 140.527 53.0025 140.26L54.3425 139.84C54.8358 139.68 55.2492 139.487 55.5825 139.26C55.9158 139.02 56.1692 138.733 56.3425 138.4C56.5292 138.067 56.6225 137.687 56.6225 137.26V137.18C56.6225 136.513 56.3958 135.987 55.9425 135.6C55.4892 135.2 54.8692 135 54.0825 135C53.3092 135 52.6825 135.213 52.2025 135.64C51.7358 136.053 51.5025 136.653 51.5025 137.44V137.8H48.9425V137.48C48.9425 136.467 49.1692 135.607 49.6225 134.9C50.0758 134.193 50.6892 133.653 51.4625 133.28C52.2492 132.907 53.1225 132.72 54.0825 132.72C55.0425 132.72 55.9092 132.907 56.6825 133.28C57.4558 133.64 58.0625 134.153 58.5025 134.82C58.9558 135.473 59.1825 136.247 59.1825 137.14V137.34C59.1825 138.233 58.9958 138.993 58.6225 139.62C58.2625 140.233 57.7692 140.74 57.1425 141.14C56.5158 141.527 55.8025 141.847 55.0025 142.1L53.7225 142.5C53.1492 142.673 52.7025 142.867 52.3825 143.08C52.0625 143.28 51.8358 143.507 51.7025 143.76C51.5825 144 51.5225 144.293 51.5225 144.64V144.72H59.0625V147H48.9025Z" fill="white"/>
</svg>
