<svg width="540" height="361" viewBox="0 0 540 361" fill="none" xmlns="http://www.w3.org/2000/svg">
<path d="M539 23.3818V321.382H1V23.3818H539Z" stroke="black" stroke-width="2"/>
<path d="M303.641 49.3711H225.576C222.496 49.3711 220 46.6854 220 43.3724V7.38042C220 4.06744 222.496 1.38175 225.576 1.38175H303.641C306.721 1.38175 309.217 4.06744 309.217 7.38042V43.3724C309.217 46.6854 306.721 49.3711 303.641 49.3711Z" fill="#CE6809"/>
<path d="M220 48.6206H278.549V2.13093H220V48.6206Z" fill="#333333"/>
<path d="M278.549 19.3772H309.218V7.37986H278.549V19.3772Z" fill="#E77A16"/>
<path d="M220 20.123H278.549V8.12571H220V20.123Z" fill="#4C4C4C"/>
<path d="M317.212 37.4944H311.636C310.096 37.4944 308.848 36.1515 308.848 34.4951V16.499C308.848 14.8426 310.096 13.4997 311.636 13.4997H317.212C318.752 13.4997 320 14.8426 320 16.499V34.4951C320 36.1515 318.752 37.4944 317.212 37.4944Z" fill="#333333"/>
<path d="M315.818 22.1936H310.242C309.472 22.1936 308.848 21.5222 308.848 20.6939V17.6946C308.848 16.8664 309.472 16.1949 310.242 16.1949H315.818C316.588 16.1949 317.212 16.8664 317.212 17.6946V20.6939C317.212 21.5222 316.588 22.1936 315.818 22.1936Z" fill="#4C4C4C"/>
<path d="M303.641 49.3818H225.576C222.496 49.3818 220 46.6961 220 43.3832V7.39116C220 4.07819 222.496 1.39249 225.576 1.39249H303.641C306.721 1.39249 309.217 4.07819 309.217 7.39116V43.3832C309.217 46.6961 306.721 49.3818 303.641 49.3818Z" stroke="#333333" stroke-width="2.78497"/>
<path d="M405.662 281.481L404.98 282.374L404.365 283.298L403.819 284.248L403.343 285.222L402.937 286.217L402.602 287.231L402.34 288.261L402.152 289.305L402.038 290.358L402 291.42L402.118 293.296L402.463 295.115L403.023 296.868L403.787 298.542L404.743 300.13L405.878 301.62L407.181 303.003L408.639 304.269L410.241 305.407L411.974 306.407L413.179 307.072L414.341 307.803L415.44 308.599L416.456 309.457L417.369 310.374L418.161 311.348L418.811 312.378L419.3 313.461L419.607 314.593L419.714 315.774L419.817 316.85L420.116 317.87L420.595 318.821L421.236 319.689L422.024 320.462L422.943 321.124L423.976 321.664L425.108 322.066L426.321 322.317L427.6 322.404H438.4L439.679 322.317L440.892 322.066L442.024 321.664L443.057 321.124L443.976 320.462L444.764 319.689L445.405 318.821L445.884 317.87L446.182 316.85L446.286 315.774L446.393 314.593L446.7 313.461L447.189 312.378L447.839 311.348L448.631 310.374L449.544 309.457L450.56 308.599L451.659 307.803L452.821 307.072L454.026 306.407L455.759 305.407L457.361 304.269L458.819 303.003L460.122 301.62L461.257 300.13L462.213 298.542L462.977 296.868L463.537 295.115L463.882 293.296L464 291.42L463.962 290.358L463.848 289.305L463.66 288.261L463.398 287.231L463.063 286.217L462.657 285.222L462.181 284.248L461.635 283.298L461.02 282.374L460.338 281.481L437.384 253.324L436.682 252.625L435.864 252.081L434.958 251.693L433.994 251.46L433 251.382L432.006 251.46L431.042 251.693L430.136 252.081L429.318 252.625L428.616 253.324L405.662 281.481Z" fill="#F2F2F2" stroke="#B3B3B3" stroke-width="2.79134"/>
<path d="M429.794 316.711V286.316L429.733 285.68L429.556 285.076L429.273 284.514L428.894 284L428.427 283.543L427.884 283.151L427.273 282.832L426.603 282.595L425.886 282.446L425.129 282.395L424.372 282.446L423.655 282.595L422.986 282.833L422.374 283.151L421.831 283.543L421.365 284L420.985 284.514L420.703 285.077L420.526 285.68L420.465 286.316V290.089L420.554 291.02L420.813 291.904L421.227 292.727L421.783 293.48L422.465 294.149L423.261 294.722L424.156 295.189L425.136 295.538L426.187 295.755L427.295 295.83L426.8 295.838H439.2L438.714 295.83L439.822 295.755L440.873 295.538L441.853 295.189L442.748 294.722L443.543 294.149L444.226 293.48L444.781 292.727L445.196 291.904L445.454 291.02L445.544 290.089V286.316L445.483 285.68L445.306 285.077L445.023 284.514L444.644 284L444.178 283.543L443.634 283.151L443.023 282.833L442.354 282.595L441.636 282.446L440.88 282.395L440.123 282.446L439.405 282.595L438.736 282.832L438.125 283.151L437.581 283.543L437.115 284L436.736 284.514L436.453 285.076L436.276 285.68L436.215 286.316V316.711" stroke="#B3B3B3" stroke-width="2.23307"/>
<path d="M419.715 314.958H446.286V317.936L446.17 319.144L445.835 320.29L445.298 321.358L444.577 322.333L443.692 323.201L442.66 323.945L441.499 324.551L440.229 325.002L438.866 325.284L437.429 325.382H428.572L427.135 325.284L425.772 325.002L424.501 324.551L423.341 323.945L422.309 323.201L421.424 322.333L420.703 321.358L420.166 320.29L419.831 319.144L419.715 317.936V314.958Z" fill="#141414" stroke="#141414" stroke-width="1.67481"/>
<path d="M419.715 314.958H446.286V317.936H419.715V314.958Z" fill="#808080" stroke="#808080" stroke-width="1.67481"/>
<path d="M426.653 266.371C433.226 266.371 438.554 270.85 438.554 276.376C438.554 281.901 433.226 286.381 426.653 286.381C420.079 286.381 414.751 281.901 414.751 276.376C414.751 270.85 420.079 266.371 426.653 266.371Z" fill="white" fill-opacity="0.3"/>
<rect x="412" y="329.382" width="43.027" height="20" rx="5" fill="black"/>
<path d="M432.082 346.382V343.842H435.102C434.476 343.455 433.942 342.989 433.502 342.442C433.076 341.882 432.749 341.255 432.522 340.562C432.309 339.855 432.202 339.089 432.202 338.262C432.202 337.049 432.476 335.962 433.022 335.002C433.582 334.042 434.369 333.282 435.382 332.722C436.409 332.162 437.616 331.882 439.002 331.882C440.402 331.882 441.609 332.162 442.622 332.722C443.636 333.282 444.416 334.049 444.962 335.022C445.522 335.982 445.802 337.069 445.802 338.282C445.802 339.109 445.689 339.869 445.462 340.562C445.249 341.255 444.922 341.882 444.482 342.442C444.042 342.989 443.502 343.455 442.862 343.842H445.922V346.382H440.042V343.662C440.776 343.315 441.329 342.875 441.702 342.342C442.089 341.795 442.349 341.209 442.482 340.582C442.616 339.942 442.682 339.309 442.682 338.682C442.682 337.789 442.529 337.029 442.222 336.402C441.929 335.762 441.509 335.269 440.962 334.922C440.416 334.575 439.762 334.402 439.002 334.402C438.242 334.402 437.582 334.575 437.022 334.922C436.476 335.269 436.056 335.762 435.762 336.402C435.469 337.042 435.322 337.809 435.322 338.702C435.322 339.329 435.402 339.955 435.562 340.582C435.722 341.209 435.989 341.789 436.362 342.322C436.749 342.855 437.269 343.302 437.922 343.662V346.382H432.082Z" fill="white"/>
<path d="M425.004 346.662C423.937 346.662 422.991 346.502 422.164 346.182C421.351 345.862 420.711 345.402 420.244 344.802C419.791 344.189 419.564 343.469 419.564 342.642V342.402C419.564 341.762 419.677 341.235 419.904 340.822C420.131 340.395 420.411 340.062 420.744 339.822C421.091 339.582 421.417 339.415 421.724 339.322V338.962C421.417 338.855 421.111 338.682 420.804 338.442C420.497 338.202 420.244 337.882 420.044 337.482C419.857 337.082 419.764 336.602 419.764 336.042V335.802C419.764 335.069 419.977 334.429 420.404 333.882C420.844 333.322 421.457 332.889 422.244 332.582C423.031 332.262 423.951 332.102 425.004 332.102C426.057 332.102 426.977 332.262 427.764 332.582C428.551 332.889 429.157 333.322 429.584 333.882C430.024 334.429 430.244 335.069 430.244 335.802V336.042C430.244 336.602 430.144 337.082 429.944 337.482C429.757 337.882 429.511 338.202 429.204 338.442C428.911 338.682 428.604 338.855 428.284 338.962V339.322C428.604 339.415 428.931 339.582 429.264 339.822C429.597 340.062 429.877 340.395 430.104 340.822C430.331 341.235 430.444 341.762 430.444 342.402V342.642C430.444 343.469 430.211 344.189 429.744 344.802C429.291 345.402 428.651 345.862 427.824 346.182C427.011 346.502 426.071 346.662 425.004 346.662ZM425.004 344.382C425.924 344.382 426.631 344.209 427.124 343.862C427.631 343.502 427.884 343.029 427.884 342.442V342.282C427.884 341.695 427.637 341.229 427.144 340.882C426.664 340.522 425.951 340.342 425.004 340.342C424.071 340.342 423.357 340.522 422.864 340.882C422.371 341.229 422.124 341.695 422.124 342.282V342.442C422.124 343.029 422.371 343.502 422.864 343.862C423.371 344.209 424.084 344.382 425.004 344.382ZM425.004 338.062C425.857 338.062 426.517 337.909 426.984 337.602C427.451 337.295 427.684 336.862 427.684 336.302V336.142C427.684 335.582 427.444 335.149 426.964 334.842C426.484 334.535 425.831 334.382 425.004 334.382C424.177 334.382 423.524 334.535 423.044 334.842C422.564 335.149 422.324 335.582 422.324 336.142V336.302C422.324 336.862 422.557 337.295 423.024 337.602C423.491 337.909 424.151 338.062 425.004 338.062Z" fill="white"/>
<path d="M59.6624 283.481L58.9801 284.374L58.3654 285.298L57.8192 286.248L57.3426 287.222L56.9366 288.217L56.6021 289.231L56.3402 290.261L56.1519 291.305L56.0381 292.358L56 293.42L56.1177 295.296L56.4628 297.115L57.0234 298.868L57.7875 300.542L58.743 302.13L59.8781 303.62L61.1807 305.003L62.6389 306.269L64.2406 307.407L65.974 308.407L67.1791 309.072L68.3408 309.803L69.4396 310.599L70.4557 311.457L71.3694 312.374L72.1611 313.348L72.8111 314.378L73.2998 315.461L73.6074 316.593L73.7143 317.774L73.8175 318.85L74.1163 319.87L74.5945 320.821L75.2358 321.689L76.024 322.462L76.9429 323.124L77.9762 323.664L79.1077 324.066L80.3211 324.317L81.6003 324.404H92.3997L93.6789 324.317L94.8923 324.066L96.0238 323.664L97.0571 323.124L97.976 322.462L98.7642 321.689L99.4055 320.821L99.8837 319.87L100.182 318.85L100.286 317.774L100.393 316.593L100.7 315.461L101.189 314.378L101.839 313.348L102.631 312.374L103.544 311.457L104.56 310.599L105.659 309.803L106.821 309.072L108.026 308.407L109.759 307.407L111.361 306.269L112.819 305.003L114.122 303.62L115.257 302.13L116.213 300.542L116.977 298.868L117.537 297.115L117.882 295.296L118 293.42L117.962 292.358L117.848 291.305L117.66 290.261L117.398 289.231L117.063 288.217L116.657 287.222L116.181 286.248L115.635 285.298L115.02 284.374L114.338 283.481L91.3837 255.324L90.6823 254.625L89.8639 254.081L88.958 253.693L87.9936 253.46L87 253.382L86.0064 253.46L85.042 253.693L84.1361 254.081L83.3177 254.625L82.6163 255.324L59.6624 283.481Z" fill="#F2F2F2" stroke="#B3B3B3" stroke-width="2.79134"/>
<path d="M83.7935 318.711V288.316L83.7325 287.68L83.5557 287.076L83.2729 286.514L82.8935 286L82.4273 285.543L81.8837 285.151L81.2725 284.832L80.6032 284.595L79.8855 284.446L79.1289 284.395L78.3723 284.446L77.6547 284.595L76.9855 284.833L76.3743 285.151L75.8309 285.543L75.3647 286L74.9854 286.514L74.7026 287.077L74.5259 287.68L74.4648 288.316V292.089L74.5542 293.02L74.813 293.904L75.2272 294.727L75.7826 295.48L76.4652 296.149L77.261 296.722L78.1559 297.189L79.1358 297.538L80.1867 297.755L81.2945 297.83L80.7999 297.838H93.1999L92.714 297.83L93.8218 297.755L94.8727 297.538L95.8526 297.189L96.7475 296.722L97.5433 296.149L98.2259 295.48L98.7813 294.727L99.1954 293.904L99.4542 293.02L99.5436 292.089V288.316L99.4826 287.68L99.3058 287.077L99.023 286.514L98.6437 286L98.1776 285.543L97.6341 285.151L97.023 284.833L96.3538 284.595L95.6361 284.446L94.8796 284.395L94.123 284.446L93.4052 284.595L92.7359 284.832L92.1247 285.151L91.5812 285.543L91.115 286L90.7356 286.514L90.4528 287.076L90.276 287.68L90.2149 288.316V318.711" stroke="#B3B3B3" stroke-width="2.23307"/>
<path d="M73.7147 316.958H100.286V319.936L100.17 321.144L99.8346 322.29L99.2975 323.358L98.5772 324.333L97.692 325.201L96.6599 325.945L95.4994 326.551L94.2285 327.002L92.8657 327.284L91.429 327.382H82.5719L81.1352 327.284L79.7723 327.002L78.5015 326.551L77.341 325.945L76.3089 325.201L75.4236 324.333L74.7033 323.358L74.1663 322.29L73.8306 321.144L73.7147 319.936V316.958Z" fill="#141414" stroke="#141414" stroke-width="1.67481"/>
<path d="M73.7147 316.958H100.286V319.936H73.7147V316.958Z" fill="#808080" stroke="#808080" stroke-width="1.67481"/>
<path d="M80.6525 268.371C87.2257 268.371 92.5543 272.85 92.5543 278.376C92.5543 283.901 87.2257 288.381 80.6525 288.381C74.0793 288.381 68.7507 283.901 68.7507 278.376C68.7507 272.85 74.0793 268.371 80.6525 268.371Z" fill="white" fill-opacity="0.3"/>
<rect x="66" y="331.382" width="43.027" height="20" rx="5" fill="black"/>
<path d="M90.0823 348.382V345.842H93.1023C92.4757 345.455 91.9423 344.989 91.5023 344.442C91.0757 343.882 90.749 343.255 90.5223 342.562C90.309 341.855 90.2023 341.089 90.2023 340.262C90.2023 339.049 90.4757 337.962 91.0223 337.002C91.5823 336.042 92.369 335.282 93.3823 334.722C94.409 334.162 95.6157 333.882 97.0023 333.882C98.4023 333.882 99.609 334.162 100.622 334.722C101.636 335.282 102.416 336.049 102.962 337.022C103.522 337.982 103.802 339.069 103.802 340.282C103.802 341.109 103.689 341.869 103.462 342.562C103.249 343.255 102.922 343.882 102.482 344.442C102.042 344.989 101.502 345.455 100.862 345.842H103.922V348.382H98.0423V345.662C98.7757 345.315 99.329 344.875 99.7023 344.342C100.089 343.795 100.349 343.209 100.482 342.582C100.616 341.942 100.682 341.309 100.682 340.682C100.682 339.789 100.529 339.029 100.222 338.402C99.929 337.762 99.509 337.269 98.9623 336.922C98.4157 336.575 97.7623 336.402 97.0023 336.402C96.2423 336.402 95.5823 336.575 95.0223 336.922C94.4757 337.269 94.0557 337.762 93.7623 338.402C93.469 339.042 93.3223 339.809 93.3223 340.702C93.3223 341.329 93.4023 341.955 93.5623 342.582C93.7223 343.209 93.989 343.789 94.3623 344.322C94.749 344.855 95.269 345.302 95.9223 345.662V348.382H90.0823Z" fill="white"/>
<path d="M73.4569 348.382V336.262H73.0969L71.2169 340.702H68.5369L71.3969 334.382H76.0169V348.382H73.4569ZM83.5798 348.662C82.5132 348.662 81.5865 348.462 80.7998 348.062C80.0132 347.662 79.4065 347.109 78.9798 346.402C78.5532 345.695 78.3398 344.882 78.3398 343.962V339.182C78.3398 338.049 78.5665 337.109 79.0198 336.362C79.4865 335.602 80.1198 335.035 80.9198 334.662C81.7332 334.289 82.6598 334.102 83.6998 334.102C84.7398 334.102 85.6398 334.275 86.3998 334.622C87.1732 334.969 87.7665 335.469 88.1798 336.122C88.6065 336.775 88.8198 337.555 88.8198 338.462H86.2198C86.2198 337.902 86.0265 337.415 85.6398 337.002C85.2532 336.589 84.6065 336.382 83.6998 336.382C82.8065 336.382 82.1132 336.615 81.6198 337.082C81.1398 337.549 80.8998 338.195 80.8998 339.022V340.462H81.2598C81.4865 340.195 81.8332 339.942 82.2998 339.702C82.7665 339.462 83.4465 339.342 84.3398 339.342C85.1532 339.342 85.8998 339.515 86.5798 339.862C87.2732 340.209 87.8332 340.715 88.2598 341.382C88.6865 342.035 88.8998 342.829 88.8998 343.762V344.002C88.8998 344.922 88.6798 345.735 88.2398 346.442C87.7998 347.135 87.1798 347.682 86.3798 348.082C85.5798 348.469 84.6465 348.662 83.5798 348.662ZM83.6198 346.382C84.4598 346.382 85.1198 346.162 85.5998 345.722C86.0932 345.282 86.3398 344.695 86.3398 343.962V343.802C86.3398 343.309 86.2265 342.882 85.9998 342.522C85.7865 342.162 85.4732 341.882 85.0598 341.682C84.6598 341.482 84.1798 341.382 83.6198 341.382C83.0732 341.382 82.5932 341.482 82.1798 341.682C81.7665 341.882 81.4465 342.162 81.2198 342.522C81.0065 342.882 80.8998 343.309 80.8998 343.802V343.962C80.8998 344.695 81.1398 345.282 81.6198 345.722C82.1132 346.162 82.7798 346.382 83.6198 346.382Z" fill="white"/>
<path d="M410.154 77.3819L408.507 77.5166L406.944 77.9063L405.488 78.53L404.157 79.3665L402.974 80.3947L401.959 81.5932L401.133 82.941L400.518 84.4168L400.133 85.9996L400 87.668V108.24L400.135 110.624L400.53 112.928L401.169 115.137L402.039 117.235L403.123 119.207L404.408 121.039L405.878 122.715L407.517 124.22L409.312 125.539L411.248 126.657L412.629 127.412L413.971 128.267L415.251 129.219L416.441 130.264L417.517 131.4L418.455 132.624L419.228 133.931L419.811 135.319L420.179 136.784L420.308 138.324L420.406 139.562L420.692 140.736L421.149 141.831L421.761 142.831L422.514 143.72L423.392 144.483L424.379 145.104L425.46 145.567L426.619 145.856L427.841 145.956H438.159L439.381 145.856L440.54 145.567L441.621 145.104L442.608 144.483L443.486 143.72L444.239 142.831L444.851 141.831L445.308 140.736L445.594 139.562L445.692 138.324L445.821 136.784L446.189 135.319L446.772 133.931L447.545 132.624L448.483 131.4L449.559 130.264L450.749 129.219L452.029 128.267L453.371 127.412L454.752 126.657L456.688 125.539L458.483 124.22L460.122 122.715L461.592 121.039L462.877 119.207L463.961 117.235L464.831 115.137L465.47 112.928L465.865 110.624L466 108.24V87.668L465.867 85.9996L465.482 84.4168L464.867 82.941L464.041 81.5932L463.026 80.3947L461.843 79.3665L460.512 78.53L459.056 77.9063L457.493 77.5166L455.846 77.3819H410.154Z" fill="#F2F2F2" stroke="#B3B3B3" stroke-width="2.78497"/>
<path d="M429.937 138.398V106.319L429.864 105.392L429.65 104.513L429.308 103.694L428.849 102.945L428.286 102.279L427.628 101.708L426.889 101.244L426.08 100.897L425.213 100.681L424.298 100.606L419.352 100.606L418.525 100.674L417.741 100.87L417.01 101.183L416.342 101.602L415.749 102.118L415.239 102.72L414.825 103.396L414.516 104.137L414.323 104.931L414.256 105.768L414.323 106.606L414.516 107.4L414.825 108.141L415.239 108.817L415.749 109.418L416.342 109.934L417.01 110.354L417.741 110.667L418.525 110.863L419.352 110.93L424.165 110.93L424.108 110.939H441.896L441.844 110.93L446.657 110.93L447.484 110.863L448.268 110.667L448.999 110.354L449.667 109.934L450.261 109.418L450.77 108.817L451.184 108.141L451.493 107.4L451.686 106.606L451.753 105.768L451.686 104.931L451.493 104.137L451.184 103.396L450.77 102.72L450.261 102.118L449.667 101.602L448.999 101.183L448.268 100.87L447.484 100.674L446.658 100.606L441.711 100.606L440.797 100.681L439.929 100.897L439.12 101.244L438.381 101.708L437.724 102.279L437.16 102.945L436.701 103.694L436.359 104.513L436.146 105.392L436.072 106.319V138.398" stroke="#B3B3B3" stroke-width="2.22798"/>
<path d="M420.308 137.383H445.692V140.812H420.308V137.383Z" fill="#808080" stroke="#808080" stroke-width="1.67098"/>
<path d="M420.308 137.381H445.692V140.81L445.582 142.2L445.261 143.519L444.748 144.749L444.06 145.872L443.214 146.871L442.228 147.728L441.119 148.425L439.905 148.945L438.603 149.27L437.231 149.382H428.769L427.397 149.27L426.095 148.945L424.881 148.425L423.772 147.728L422.786 146.871L421.94 145.872L421.252 144.749L420.739 143.519L420.418 142.2L420.308 140.81V137.381Z" fill="#141414" stroke="#141414" stroke-width="1.67098"/>
<rect x="413" y="155.382" width="43.027" height="20" rx="5" fill="black"/>
<path d="M434.082 172.382V169.842H437.102C436.476 169.455 435.942 168.989 435.502 168.442C435.076 167.882 434.749 167.255 434.522 166.562C434.309 165.855 434.202 165.089 434.202 164.262C434.202 163.049 434.476 161.962 435.022 161.002C435.582 160.042 436.369 159.282 437.382 158.722C438.409 158.162 439.616 157.882 441.002 157.882C442.402 157.882 443.609 158.162 444.622 158.722C445.636 159.282 446.416 160.049 446.962 161.022C447.522 161.982 447.802 163.069 447.802 164.282C447.802 165.109 447.689 165.869 447.462 166.562C447.249 167.255 446.922 167.882 446.482 168.442C446.042 168.989 445.502 169.455 444.862 169.842H447.922V172.382H442.042V169.662C442.776 169.315 443.329 168.875 443.702 168.342C444.089 167.795 444.349 167.209 444.482 166.582C444.616 165.942 444.682 165.309 444.682 164.682C444.682 163.789 444.529 163.029 444.222 162.402C443.929 161.762 443.509 161.269 442.962 160.922C442.416 160.575 441.762 160.402 441.002 160.402C440.242 160.402 439.582 160.575 439.022 160.922C438.476 161.269 438.056 161.762 437.762 162.402C437.469 163.042 437.322 163.809 437.322 164.702C437.322 165.329 437.402 165.955 437.562 166.582C437.722 167.209 437.989 167.789 438.362 168.322C438.749 168.855 439.269 169.302 439.922 169.662V172.382H434.082Z" fill="white"/>
<path d="M428.043 172.382V169.542H421.163V166.582L426.003 158.382H430.603V167.262H432.923V169.542H430.603V172.382H428.043ZM423.603 167.262H428.043V160.022H427.683L423.603 166.942V167.262Z" fill="white"/>
<path d="M66.1538 79.3819L64.5068 79.5166L62.9444 79.9063L61.4876 80.53L60.1571 81.3665L58.974 82.3947L57.9591 83.5932L57.1334 84.941L56.5177 86.4168L56.1329 87.9996L56 89.668V110.24L56.1349 112.624L56.5296 114.928L57.1692 117.137L58.0388 119.235L59.1233 121.207L60.4079 123.039L61.8775 124.715L63.5174 126.22L65.3124 127.539L67.2477 128.657L68.6287 129.412L69.9714 130.267L71.2506 131.219L72.441 132.264L73.5174 133.4L74.4547 134.624L75.2276 135.931L75.8108 137.319L76.1793 138.784L76.3077 140.324L76.4063 141.562L76.6918 142.736L77.1486 143.831L77.7613 144.831L78.5143 145.72L79.3921 146.483L80.3792 147.104L81.4602 147.567L82.6194 147.856L83.8414 147.956H94.1586L95.3806 147.856L96.5398 147.567L97.6208 147.104L98.6079 146.483L99.4857 145.72L100.239 144.831L100.851 143.831L101.308 142.736L101.594 141.562L101.692 140.324L101.821 138.784L102.189 137.319L102.772 135.931L103.545 134.624L104.483 133.4L105.559 132.264L106.749 131.219L108.029 130.267L109.371 129.412L110.752 128.657L112.688 127.539L114.483 126.22L116.122 124.715L117.592 123.039L118.877 121.207L119.961 119.235L120.831 117.137L121.47 114.928L121.865 112.624L122 110.24V89.668L121.867 87.9996L121.482 86.4168L120.867 84.941L120.041 83.5932L119.026 82.3947L117.843 81.3665L116.512 80.53L115.056 79.9063L113.493 79.5166L111.846 79.3819H66.1538Z" fill="#F2F2F2" stroke="#B3B3B3" stroke-width="2.78497"/>
<path d="M85.9373 140.398V108.319L85.8635 107.392L85.6498 106.513L85.3079 105.694L84.8492 104.945L84.2855 104.279L83.6284 103.708L82.8895 103.244L82.0803 102.897L81.2125 102.681L80.2978 102.606L75.3516 102.606L74.5251 102.674L73.741 102.87L73.0099 103.183L72.3422 103.602L71.7485 104.118L71.2392 104.72L70.8248 105.396L70.5159 106.137L70.3228 106.931L70.2561 107.768L70.3228 108.606L70.5159 109.4L70.8249 110.141L71.2393 110.817L71.7486 111.418L72.3423 111.934L73.01 112.354L73.7411 112.667L74.5252 112.863L75.3517 112.93L80.1653 112.93L80.1075 112.939H97.8959L97.8437 112.93L102.657 112.93L103.484 112.863L104.268 112.667L104.999 112.354L105.667 111.934L106.261 111.418L106.77 110.817L107.184 110.141L107.493 109.4L107.686 108.606L107.753 107.768L107.686 106.931L107.493 106.137L107.184 105.396L106.77 104.72L106.261 104.118L105.667 103.602L104.999 103.183L104.268 102.87L103.484 102.674L102.658 102.606L97.7113 102.606L96.7966 102.681L95.9288 102.897L95.1196 103.244L94.3807 103.708L93.7236 104.279L93.1599 104.945L92.7012 105.694L92.3593 106.513L92.1456 107.392L92.0717 108.319V140.398" stroke="#B3B3B3" stroke-width="2.22798"/>
<path d="M76.3077 139.383H101.692V142.812H76.3077V139.383Z" fill="#808080" stroke="#808080" stroke-width="1.67098"/>
<path d="M76.3077 139.381H101.692V142.81L101.582 144.2L101.261 145.519L100.748 146.749L100.06 147.872L99.214 148.871L98.2281 149.728L97.1194 150.425L95.9053 150.945L94.6033 151.27L93.2308 151.382H84.7693L83.3968 151.27L82.0948 150.945L80.8807 150.425L79.772 149.728L78.7861 148.871L77.9403 147.872L77.2522 146.749L76.7391 145.519L76.4185 144.2L76.3077 142.81V139.381Z" fill="#141414" stroke="#141414" stroke-width="1.67098"/>
<rect x="69" y="157.382" width="43.027" height="20" rx="5" fill="black"/>
<path d="M89.0823 174.382V171.842H92.1023C91.4757 171.455 90.9423 170.989 90.5023 170.442C90.0757 169.882 89.749 169.255 89.5223 168.562C89.309 167.855 89.2023 167.089 89.2023 166.262C89.2023 165.049 89.4757 163.962 90.0223 163.002C90.5823 162.042 91.369 161.282 92.3823 160.722C93.409 160.162 94.6157 159.882 96.0023 159.882C97.4023 159.882 98.609 160.162 99.6223 160.722C100.636 161.282 101.416 162.049 101.962 163.022C102.522 163.982 102.802 165.069 102.802 166.282C102.802 167.109 102.689 167.869 102.462 168.562C102.249 169.255 101.922 169.882 101.482 170.442C101.042 170.989 100.502 171.455 99.8623 171.842H102.922V174.382H97.0423V171.662C97.7757 171.315 98.329 170.875 98.7023 170.342C99.089 169.795 99.349 169.209 99.4823 168.582C99.6157 167.942 99.6823 167.309 99.6823 166.682C99.6823 165.789 99.529 165.029 99.2223 164.402C98.929 163.762 98.509 163.269 97.9623 162.922C97.4157 162.575 96.7623 162.402 96.0023 162.402C95.2423 162.402 94.5823 162.575 94.0223 162.922C93.4757 163.269 93.0557 163.762 92.7623 164.402C92.469 165.042 92.3223 165.809 92.3223 166.702C92.3223 167.329 92.4023 167.955 92.5623 168.582C92.7223 169.209 92.989 169.789 93.3623 170.322C93.749 170.855 94.269 171.302 94.9223 171.662V174.382H89.0823Z" fill="white"/>
<path d="M82.0039 174.662C80.9372 174.662 79.9906 174.502 79.1639 174.182C78.3506 173.862 77.7106 173.402 77.2439 172.802C76.7906 172.189 76.5639 171.469 76.5639 170.642V170.402C76.5639 169.762 76.6772 169.235 76.9039 168.822C77.1306 168.395 77.4106 168.062 77.7439 167.822C78.0906 167.582 78.4172 167.415 78.7239 167.322V166.962C78.4172 166.855 78.1106 166.682 77.8039 166.442C77.4972 166.202 77.2439 165.882 77.0439 165.482C76.8572 165.082 76.7639 164.602 76.7639 164.042V163.802C76.7639 163.069 76.9772 162.429 77.4039 161.882C77.8439 161.322 78.4572 160.889 79.2439 160.582C80.0306 160.262 80.9506 160.102 82.0039 160.102C83.0572 160.102 83.9772 160.262 84.7639 160.582C85.5506 160.889 86.1572 161.322 86.5839 161.882C87.0239 162.429 87.2439 163.069 87.2439 163.802V164.042C87.2439 164.602 87.1439 165.082 86.9439 165.482C86.7572 165.882 86.5106 166.202 86.2039 166.442C85.9106 166.682 85.6039 166.855 85.2839 166.962V167.322C85.6039 167.415 85.9306 167.582 86.2639 167.822C86.5972 168.062 86.8772 168.395 87.1039 168.822C87.3306 169.235 87.4439 169.762 87.4439 170.402V170.642C87.4439 171.469 87.2106 172.189 86.7439 172.802C86.2906 173.402 85.6506 173.862 84.8239 174.182C84.0106 174.502 83.0706 174.662 82.0039 174.662ZM82.0039 172.382C82.9239 172.382 83.6306 172.209 84.1239 171.862C84.6306 171.502 84.8839 171.029 84.8839 170.442V170.282C84.8839 169.695 84.6372 169.229 84.1439 168.882C83.6639 168.522 82.9506 168.342 82.0039 168.342C81.0706 168.342 80.3572 168.522 79.8639 168.882C79.3706 169.229 79.1239 169.695 79.1239 170.282V170.442C79.1239 171.029 79.3706 171.502 79.8639 171.862C80.3706 172.209 81.0839 172.382 82.0039 172.382ZM82.0039 166.062C82.8572 166.062 83.5172 165.909 83.9839 165.602C84.4506 165.295 84.6839 164.862 84.6839 164.302V164.142C84.6839 163.582 84.4439 163.149 83.9639 162.842C83.4839 162.535 82.8306 162.382 82.0039 162.382C81.1772 162.382 80.5239 162.535 80.0439 162.842C79.5639 163.149 79.3239 163.582 79.3239 164.142V164.302C79.3239 164.862 79.5572 165.295 80.0239 165.602C80.4906 165.909 81.1506 166.062 82.0039 166.062Z" fill="white"/>
</svg>
