<svg width="540" height="392" viewBox="0 0 540 392" fill="none" xmlns="http://www.w3.org/2000/svg">
<g clip-path="url(#clip0_159_131)">
<path d="M1 205.5V347H539V205.5M1 205.5V64H539V205.5M1 205.5H539" stroke="black" stroke-width="2"/>
</g>
<path d="M336.224 62.207L335.997 12.9316L205 13.5346L205.227 62.8099" stroke="black" stroke-width="2"/>
<path d="M304.754 84.9893H226.689C223.609 84.9893 221.113 82.3036 221.113 78.9906V42.9986C221.113 39.6856 223.609 36.9999 226.689 36.9999H304.754C307.834 36.9999 310.33 39.6856 310.33 42.9986V78.9906C310.33 82.3036 307.834 84.9893 304.754 84.9893Z" fill="#CE6809"/>
<path d="M221.113 84.2388H279.662V37.7491H221.113V84.2388Z" fill="#333333"/>
<path d="M279.662 54.9951H310.33V42.9978H279.662V54.9951Z" fill="#E77A16"/>
<path d="M221.113 55.7412H279.662V43.7439H221.113V55.7412Z" fill="#4C4C4C"/>
<path d="M318.325 73.1123H312.748C311.209 73.1123 309.96 71.7695 309.96 70.113V52.117C309.96 50.4605 311.209 49.1176 312.748 49.1176H318.325C319.864 49.1176 321.113 50.4605 321.113 52.117V70.113C321.113 71.7695 319.864 73.1123 318.325 73.1123Z" fill="#333333"/>
<path d="M316.931 57.8115H311.354C310.585 57.8115 309.96 57.1401 309.96 56.3119V53.3125C309.96 52.4843 310.585 51.8129 311.354 51.8129H316.931C317.7 51.8129 318.325 52.4843 318.325 53.3125V56.3119C318.325 57.1401 317.7 57.8115 316.931 57.8115Z" fill="#4C4C4C"/>
<path d="M304.754 85H226.689C223.609 85 221.113 82.3143 221.113 79.0013V43.0093C221.113 39.6964 223.609 37.0107 226.689 37.0107H304.754C307.834 37.0107 310.33 39.6964 310.33 43.0093V79.0013C310.33 82.3143 307.834 85 304.754 85Z" stroke="#333333" stroke-width="2.78497"/>
<rect x="250.113" y="3" width="40" height="20" rx="5" fill="black"/>
<path d="M256.632 20V7.88H256.272L254.392 12.32H251.712L254.572 6H259.192V20H256.632ZM261.355 20V18.32C261.355 17.3467 261.515 16.54 261.835 15.9C262.155 15.2467 262.615 14.7133 263.215 14.3C263.828 13.8733 264.575 13.5267 265.455 13.26L266.795 12.84C267.288 12.68 267.702 12.4867 268.035 12.26C268.368 12.02 268.622 11.7333 268.795 11.4C268.982 11.0667 269.075 10.6867 269.075 10.26V10.18C269.075 9.51333 268.848 8.98667 268.395 8.6C267.942 8.2 267.322 8 266.535 8C265.762 8 265.135 8.21333 264.655 8.64C264.188 9.05333 263.955 9.65333 263.955 10.44V10.8H261.395V10.48C261.395 9.46667 261.622 8.60667 262.075 7.9C262.528 7.19333 263.142 6.65333 263.915 6.28C264.702 5.90667 265.575 5.72 266.535 5.72C267.495 5.72 268.362 5.90667 269.135 6.28C269.908 6.64 270.515 7.15333 270.955 7.82C271.408 8.47333 271.635 9.24667 271.635 10.14V10.34C271.635 11.2333 271.448 11.9933 271.075 12.62C270.715 13.2333 270.222 13.74 269.595 14.14C268.968 14.5267 268.255 14.8467 267.455 15.1L266.175 15.5C265.602 15.6733 265.155 15.8667 264.835 16.08C264.515 16.28 264.288 16.5067 264.155 16.76C264.035 17 263.975 17.2933 263.975 17.64V17.72H271.515V20H261.355ZM276.31 20L272.75 6H275.47L278.43 18.3H278.71L281.67 6H284.39L280.83 20H276.31Z" fill="white"/>
<path d="M242 346.266V368.284H298.25V346.266" stroke="black" stroke-width="2"/>
<rect x="248" y="359" width="43.027" height="20" rx="5" fill="black"/>
<path d="M267.845 371.4V370.92C267.845 370.24 267.978 369.68 268.245 369.24C268.525 368.8 268.971 368.433 269.585 368.14L269.925 367.98C270.525 367.7 270.985 367.4 271.305 367.08C271.625 366.76 271.785 366.333 271.785 365.8C271.785 365.413 271.685 365.087 271.485 364.82C271.298 364.54 271.031 364.327 270.685 364.18C270.338 364.033 269.931 363.96 269.465 363.96C268.985 363.96 268.551 364.04 268.165 364.2C267.791 364.36 267.491 364.6 267.265 364.92C267.051 365.24 266.945 365.64 266.945 366.12V366.56H264.345V366.16C264.345 365.24 264.571 364.447 265.025 363.78C265.478 363.113 266.091 362.607 266.865 362.26C267.638 361.9 268.505 361.72 269.465 361.72C270.411 361.72 271.251 361.893 271.985 362.24C272.731 362.587 273.318 363.067 273.745 363.68C274.171 364.293 274.385 365 274.385 365.8C274.385 366.6 274.238 367.26 273.945 367.78C273.651 368.287 273.278 368.7 272.825 369.02C272.385 369.327 271.931 369.593 271.465 369.82L271.125 369.98C270.885 370.087 270.718 370.22 270.625 370.38C270.531 370.527 270.485 370.747 270.485 371.04V371.4H267.845ZM269.245 376.28C268.711 376.28 268.258 376.107 267.885 375.76C267.525 375.4 267.345 374.94 267.345 374.38C267.345 373.82 267.525 373.367 267.885 373.02C268.258 372.66 268.711 372.48 269.245 372.48C269.791 372.48 270.245 372.66 270.605 373.02C270.965 373.367 271.145 373.82 271.145 374.38C271.145 374.94 270.965 375.4 270.605 375.76C270.245 376.107 269.791 376.28 269.245 376.28Z" fill="white"/>
<rect x="225" y="268" width="88" height="123" rx="9" stroke="#E5E5E5" stroke-width="2"/>
<path d="M246.154 279L244.507 279.134L242.944 279.524L241.488 280.148L240.157 280.984L238.974 282.013L237.959 283.211L237.133 284.559L236.518 286.035L236.133 287.617L236 289.286V309.858L236.135 312.242L236.53 314.546L237.169 316.755L238.039 318.853L239.123 320.825L240.408 322.657L241.878 324.333L243.517 325.838L245.312 327.157L247.248 328.274L248.629 329.03L249.971 329.885L251.251 330.837L252.441 331.882L253.517 333.018L254.455 334.241L255.228 335.549L255.811 336.937L256.179 338.402L256.308 339.942L256.406 341.18L256.692 342.354L257.149 343.449L257.761 344.449L258.514 345.338L259.392 346.101L260.379 346.722L261.46 347.185L262.619 347.474L263.841 347.574H274.159L275.381 347.474L276.54 347.185L277.621 346.722L278.608 346.101L279.486 345.338L280.239 344.449L280.851 343.449L281.308 342.354L281.594 341.18L281.692 339.942L281.821 338.402L282.189 336.937L282.772 335.549L283.545 334.241L284.483 333.018L285.559 331.882L286.749 330.837L288.029 329.885L289.371 329.03L290.752 328.274L292.688 327.157L294.483 325.838L296.122 324.333L297.592 322.657L298.877 320.825L299.961 318.853L300.831 316.755L301.47 314.546L301.865 312.242L302 309.858V289.286L301.867 287.617L301.482 286.035L300.867 284.559L300.041 283.211L299.026 282.013L297.843 280.984L296.512 280.148L295.056 279.524L293.493 279.134L291.846 279H246.154Z" fill="#F2F2F2" stroke="#B3B3B3" stroke-width="2.78497"/>
<path d="M265.937 340.016V307.937L265.864 307.01L265.65 306.131L265.308 305.312L264.849 304.563L264.286 303.897L263.628 303.326L262.889 302.862L262.08 302.515L261.213 302.299L260.298 302.224L255.352 302.224L254.525 302.292L253.741 302.488L253.01 302.801L252.342 303.221L251.749 303.736L251.239 304.338L250.825 305.014L250.516 305.755L250.323 306.549L250.256 307.387L250.323 308.224L250.516 309.018L250.825 309.759L251.239 310.435L251.749 311.037L252.342 311.553L253.01 311.972L253.741 312.285L254.525 312.481L255.352 312.549L260.165 312.549L260.108 312.557H277.896L277.844 312.549L282.657 312.549L283.484 312.481L284.268 312.285L284.999 311.972L285.667 311.553L286.261 311.037L286.77 310.435L287.184 309.759L287.493 309.018L287.686 308.224L287.753 307.387L287.686 306.549L287.493 305.755L287.184 305.014L286.77 304.338L286.261 303.736L285.667 303.221L284.999 302.801L284.268 302.488L283.484 302.292L282.658 302.224L277.711 302.224L276.797 302.299L275.929 302.515L275.12 302.862L274.381 303.326L273.724 303.897L273.16 304.563L272.701 305.312L272.359 306.131L272.146 307.01L272.072 307.937V340.016" stroke="#B3B3B3" stroke-width="2.22798"/>
<path d="M256.308 339.001H281.692V342.43H256.308V339.001Z" fill="#808080" stroke="#808080" stroke-width="1.67098"/>
<path d="M256.308 339H281.692V342.428L281.582 343.819L281.261 345.138L280.748 346.367L280.06 347.491L279.214 348.489L278.228 349.346L277.119 350.043L275.905 350.563L274.603 350.888L273.231 351H264.769L263.397 350.888L262.095 350.563L260.881 350.043L259.772 349.346L258.786 348.489L257.94 347.491L257.252 346.367L256.739 345.138L256.418 343.819L256.308 342.428V339Z" fill="#141414" stroke="#141414" stroke-width="1.67098"/>
<path d="M242 204.266V226.284H298.25V204.266" stroke="black" stroke-width="2"/>
<rect x="248" y="217" width="43.027" height="20" rx="5" fill="black"/>
<path d="M257.519 234V221.88H257.159L255.279 226.32H252.599L255.459 220H260.079V234H257.519ZM262.242 234V232.32C262.242 231.347 262.402 230.54 262.722 229.9C263.042 229.247 263.502 228.713 264.102 228.3C264.716 227.873 265.462 227.527 266.342 227.26L267.682 226.84C268.176 226.68 268.589 226.487 268.922 226.26C269.256 226.02 269.509 225.733 269.682 225.4C269.869 225.067 269.962 224.687 269.962 224.26V224.18C269.962 223.513 269.736 222.987 269.282 222.6C268.829 222.2 268.209 222 267.422 222C266.649 222 266.022 222.213 265.542 222.64C265.076 223.053 264.842 223.653 264.842 224.44V224.8H262.282V224.48C262.282 223.467 262.509 222.607 262.962 221.9C263.416 221.193 264.029 220.653 264.802 220.28C265.589 219.907 266.462 219.72 267.422 219.72C268.382 219.72 269.249 219.907 270.022 220.28C270.796 220.64 271.402 221.153 271.842 221.82C272.296 222.473 272.522 223.247 272.522 224.14V224.34C272.522 225.233 272.336 225.993 271.962 226.62C271.602 227.233 271.109 227.74 270.482 228.14C269.856 228.527 269.142 228.847 268.342 229.1L267.062 229.5C266.489 229.673 266.042 229.867 265.722 230.08C265.402 230.28 265.176 230.507 265.042 230.76C264.922 231 264.862 231.293 264.862 231.64V231.72H272.402V234H262.242ZM277.197 234L273.637 220H276.357L279.317 232.3H279.597L282.557 220H285.277L281.717 234H277.197Z" fill="white"/>
<path d="M281.64 198.39L281.697 197.365L281.862 196.364L282.127 195.391L282.486 194.448L282.932 193.54L283.457 192.67L284.054 191.84L284.715 191.054L285.435 190.316L286.204 189.628L288.407 187.617L290.437 185.413L292.28 183.038L293.922 180.517L295.35 177.874L296.549 175.132L297.506 172.317L298.206 169.451L298.637 166.559L298.783 163.665L298.391 159.015L297.254 154.605L295.435 150.492L292.995 146.736L289.997 143.396L286.501 140.53L282.57 138.199L278.266 136.461L273.649 135.375L268.783 135L263.917 135.375L259.301 136.461L254.997 138.199L251.066 140.53L247.57 143.396L244.572 146.736L242.132 150.492L240.313 154.605L239.176 159.015L238.783 163.665L238.93 166.559L239.36 169.451L240.061 172.317L241.018 175.132L242.217 177.874L243.645 180.517L245.287 183.038L247.13 185.413L249.16 187.617L251.362 189.628L252.132 190.316L252.851 191.054L253.513 191.84L254.11 192.67L254.635 193.54L255.081 194.448L255.44 195.391L255.705 196.364L255.87 197.365L255.926 198.39L256.021 199.577L256.297 200.704L256.738 201.754L257.33 202.713L258.057 203.566L258.904 204.298L259.857 204.893L260.901 205.337L262.02 205.615L263.2 205.71H274.367L275.546 205.615L276.666 205.337L277.709 204.893L278.662 204.298L279.51 203.566L280.237 202.713L280.829 201.754L281.27 200.704L281.545 199.577L281.64 198.39Z" fill="#F2F2F2" stroke="#B3B3B3" stroke-width="2.78497"/>
<path d="M265.681 199.426V167.799L265.599 166.782L265.363 165.818L264.985 164.918L264.479 164.097L263.856 163.367L263.13 162.74L262.314 162.23L261.421 161.85L260.462 161.613L259.452 161.531L258.961 161.531L258.03 161.606L257.148 161.825L256.324 162.175L255.573 162.645L254.904 163.222L254.331 163.895L253.864 164.651L253.517 165.48L253.299 166.368L253.224 167.305L253.299 168.241L253.517 169.13L253.865 169.958L254.331 170.715L254.904 171.387L255.573 171.964L256.325 172.434L257.148 172.784L258.03 173.003L258.961 173.078L259.834 173.078L259.775 173.087H277.794L277.742 173.078L278.614 173.078L279.545 173.003L280.427 172.784L281.25 172.434L282.002 171.964L282.671 171.387L283.244 170.715L283.711 169.958L284.058 169.13L284.276 168.241L284.351 167.305L284.276 166.368L284.058 165.48L283.711 164.651L283.244 163.895L282.671 163.222L282.002 162.645L281.251 162.175L280.427 161.825L279.545 161.606L278.614 161.531L278.123 161.531L277.113 161.613L276.154 161.85L275.261 162.23L274.445 162.74L273.719 163.367L273.096 164.097L272.59 164.918L272.212 165.818L271.976 166.782L271.895 167.799V199.426" stroke="#B3B3B3" stroke-width="2.22798"/>
<path d="M255.927 197.489H281.641V200.778L281.534 202.112L281.224 203.377L280.729 204.556L280.065 205.634L279.248 206.592L278.296 207.414L277.226 208.082L276.053 208.581L274.796 208.892L273.471 209H264.096L262.771 208.892L261.514 208.581L260.342 208.082L259.271 207.414L258.319 206.592L257.503 205.634L256.838 204.556L256.343 203.377L256.034 202.112L255.927 200.778V197.489Z" fill="#141414" stroke="#141414" stroke-width="1.67098"/>
<path d="M255.927 197.493H281.641V200.782H255.927V197.493Z" fill="#808080" stroke="#808080" stroke-width="1.67098"/>
<defs>
<clipPath id="clip0_159_131">
<rect width="540" height="285" fill="white" transform="translate(0 63)"/>
</clipPath>
</defs>
</svg>
