<svg width="540" height="388" viewBox="0 0 540 388" fill="none" xmlns="http://www.w3.org/2000/svg">
<mask id="mask0_195_486" style="mask-type:luminance" maskUnits="userSpaceOnUse" x="0" y="54" width="540" height="300">
<path d="M0 54H540V189V354H0V190.5V54Z" fill="white"/>
</mask>
<g mask="url(#mask0_195_486)">
<path d="M0 190.5L0.00277781 191.5L540.003 190L540 189L539.997 188L-0.00277781 189.5L0 190.5ZM0 54V52H-2V54H0ZM540 54H542V52H540V54ZM540 354V356H542V354H540ZM0 354H-2V356H0V354ZM0 54V56H540V54V52H0V54ZM540 354V352H0V354V356H540V354ZM0 354H2V190.5H0H-2V354H0ZM0 190.5H2V54H0H-2V190.5H0ZM540 54H538V189H540H542V54H540ZM540 189H538V354H540H542V189H540Z" fill="black"/>
</g>
<path d="M300.641 77.9893H222.576C219.496 77.9893 217 75.3036 217 71.9906V35.9986C217 32.6856 219.496 29.9999 222.576 29.9999H300.641C303.721 29.9999 306.217 32.6856 306.217 35.9986V71.9906C306.217 75.3036 303.721 77.9893 300.641 77.9893Z" fill="#CE6809"/>
<path d="M217 77.2383H275.549V30.7486H217V77.2383Z" fill="#333333"/>
<path d="M275.549 47.9951H306.218V35.9978H275.549V47.9951Z" fill="#E77A16"/>
<path d="M217 48.7412H275.549V36.7439H217V48.7412Z" fill="#4C4C4C"/>
<path d="M314.212 66.1123H308.636C307.096 66.1123 305.848 64.7695 305.848 63.113V45.117C305.848 43.4605 307.096 42.1176 308.636 42.1176H314.212C315.752 42.1176 317 43.4605 317 45.117V63.113C317 64.7695 315.752 66.1123 314.212 66.1123Z" fill="#333333"/>
<path d="M312.818 50.8115H307.242C306.472 50.8115 305.848 50.1401 305.848 49.3119V46.3125C305.848 45.4843 306.472 44.8129 307.242 44.8129H312.818C313.588 44.8129 314.212 45.4843 314.212 46.3125V49.3119C314.212 50.1401 313.588 50.8115 312.818 50.8115Z" fill="#4C4C4C"/>
<path d="M300.641 78H222.576C219.496 78 217 75.3143 217 72.0013V36.0093C217 32.6964 219.496 30.0107 222.576 30.0107H300.641C303.721 30.0107 306.217 32.6964 306.217 36.0093V72.0013C306.217 75.3143 303.721 78 300.641 78Z" stroke="#333333" stroke-width="2.78497"/>
<path d="M332.111 55.207L331.926 14.8669L200.928 15.4698L201.114 55.8099" stroke="black" stroke-width="2"/>
<rect x="247" y="2" width="40" height="20" rx="5" fill="black"/>
<path d="M254.275 19V6.88H253.915L252.035 11.32H249.355L252.215 5H256.835V19H254.275ZM264.398 19.28C263.332 19.28 262.405 19.08 261.618 18.68C260.832 18.28 260.225 17.7267 259.798 17.02C259.372 16.3133 259.158 15.5 259.158 14.58V9.8C259.158 8.66667 259.385 7.72667 259.838 6.98C260.305 6.22 260.938 5.65333 261.738 5.28C262.552 4.90667 263.478 4.72 264.518 4.72C265.558 4.72 266.458 4.89333 267.218 5.24C267.992 5.58667 268.585 6.08667 268.998 6.74C269.425 7.39333 269.638 8.17333 269.638 9.08H267.038C267.038 8.52 266.845 8.03333 266.458 7.62C266.072 7.20667 265.425 7 264.518 7C263.625 7 262.932 7.23333 262.438 7.7C261.958 8.16667 261.718 8.81333 261.718 9.64V11.08H262.078C262.305 10.8133 262.652 10.56 263.118 10.32C263.585 10.08 264.265 9.96 265.158 9.96C265.972 9.96 266.718 10.1333 267.398 10.48C268.092 10.8267 268.652 11.3333 269.078 12C269.505 12.6533 269.718 13.4467 269.718 14.38V14.62C269.718 15.54 269.498 16.3533 269.058 17.06C268.618 17.7533 267.998 18.3 267.198 18.7C266.398 19.0867 265.465 19.28 264.398 19.28ZM264.438 17C265.278 17 265.938 16.78 266.418 16.34C266.912 15.9 267.158 15.3133 267.158 14.58V14.42C267.158 13.9267 267.045 13.5 266.818 13.14C266.605 12.78 266.292 12.5 265.878 12.3C265.478 12.1 264.998 12 264.438 12C263.892 12 263.412 12.1 262.998 12.3C262.585 12.5 262.265 12.78 262.038 13.14C261.825 13.5 261.718 13.9267 261.718 14.42V14.58C261.718 15.3133 261.958 15.9 262.438 16.34C262.932 16.78 263.598 17 264.438 17ZM274.441 19L270.881 5H273.601L276.561 17.3H276.841L279.801 5H282.521L278.961 19H274.441Z" fill="white"/>
<circle cx="75" cy="187" r="21" fill="#463B3B"/>
<path d="M64.0646 194V192.32C64.0646 191.347 64.2246 190.54 64.5446 189.9C64.8646 189.247 65.3246 188.713 65.9246 188.3C66.5379 187.873 67.2846 187.527 68.1646 187.26L69.5046 186.84C69.9979 186.68 70.4113 186.487 70.7446 186.26C71.0779 186.02 71.3313 185.733 71.5046 185.4C71.6913 185.067 71.7846 184.687 71.7846 184.26V184.18C71.7846 183.513 71.5579 182.987 71.1046 182.6C70.6513 182.2 70.0313 182 69.2446 182C68.4713 182 67.8446 182.213 67.3646 182.64C66.8979 183.053 66.6646 183.653 66.6646 184.44V184.8H64.1046V184.48C64.1046 183.467 64.3313 182.607 64.7846 181.9C65.2379 181.193 65.8513 180.653 66.6246 180.28C67.4113 179.907 68.2846 179.72 69.2446 179.72C70.2046 179.72 71.0713 179.907 71.8446 180.28C72.6179 180.64 73.2246 181.153 73.6646 181.82C74.1179 182.473 74.3446 183.247 74.3446 184.14V184.34C74.3446 185.233 74.1579 185.993 73.7846 186.62C73.4246 187.233 72.9313 187.74 72.3046 188.14C71.6779 188.527 70.9646 188.847 70.1646 189.1L68.8846 189.5C68.3113 189.673 67.8646 189.867 67.5446 190.08C67.2246 190.28 66.9979 190.507 66.8646 190.76C66.7446 191 66.6846 191.293 66.6846 191.64V191.72H74.2246V194H64.0646ZM75.4596 194L79.1396 180H83.7396L87.4196 194H84.6996L83.9396 190.92H78.9396L78.1796 194H75.4596ZM79.5596 188.48H83.3196L81.6196 181.66H81.2596L79.5596 188.48Z" fill="white"/>
<circle cx="459" cy="55" r="21" fill="#463B3B"/>
<path d="M452.72 62.28C451.654 62.28 450.727 62.08 449.94 61.68C449.154 61.28 448.547 60.7267 448.12 60.02C447.694 59.3133 447.48 58.5 447.48 57.58V52.8C447.48 51.6667 447.707 50.7267 448.16 49.98C448.627 49.22 449.26 48.6533 450.06 48.28C450.874 47.9067 451.8 47.72 452.84 47.72C453.88 47.72 454.78 47.8933 455.54 48.24C456.314 48.5867 456.907 49.0867 457.32 49.74C457.747 50.3933 457.96 51.1733 457.96 52.08H455.36C455.36 51.52 455.167 51.0333 454.78 50.62C454.394 50.2067 453.747 50 452.84 50C451.947 50 451.254 50.2333 450.76 50.7C450.28 51.1667 450.04 51.8133 450.04 52.64V54.08H450.4C450.627 53.8133 450.974 53.56 451.44 53.32C451.907 53.08 452.587 52.96 453.48 52.96C454.294 52.96 455.04 53.1333 455.72 53.48C456.414 53.8267 456.974 54.3333 457.4 55C457.827 55.6533 458.04 56.4467 458.04 57.38V57.62C458.04 58.54 457.82 59.3533 457.38 60.06C456.94 60.7533 456.32 61.3 455.52 61.7C454.72 62.0867 453.787 62.28 452.72 62.28ZM452.76 60C453.6 60 454.26 59.78 454.74 59.34C455.234 58.9 455.48 58.3133 455.48 57.58V57.42C455.48 56.9267 455.367 56.5 455.14 56.14C454.927 55.78 454.614 55.5 454.2 55.3C453.8 55.1 453.32 55 452.76 55C452.214 55 451.734 55.1 451.32 55.3C450.907 55.5 450.587 55.78 450.36 56.14C450.147 56.5 450.04 56.9267 450.04 57.42V57.58C450.04 58.3133 450.28 58.9 450.76 59.34C451.254 59.78 451.92 60 452.76 60ZM459.204 62L462.884 48H467.484L471.164 62H468.444L467.684 58.92H462.684L461.924 62H459.204ZM463.304 56.48H467.064L465.364 49.66H465.004L463.304 56.48Z" fill="white"/>
<path d="M475.857 346.39L475.914 345.365L476.078 344.365L476.344 343.391L476.703 342.449L477.148 341.541L477.673 340.67L478.27 339.84L478.932 339.054L479.651 338.316L480.421 337.628L482.624 335.618L484.653 333.413L486.496 331.038L488.139 328.517L489.566 325.874L490.765 323.133L491.722 320.317L492.423 317.452L492.853 314.56L493 311.665L492.607 307.016L491.471 302.605L489.651 298.492L487.212 294.736L484.213 291.396L480.718 288.531L476.787 286.2L472.482 284.462L467.866 283.375L463 283L458.134 283.375L453.518 284.462L449.213 286.2L445.282 288.531L441.787 291.396L438.788 294.736L436.349 298.492L434.529 302.605L433.393 307.016L433 311.665L433.147 314.56L433.577 317.452L434.278 320.317L435.235 323.133L436.434 325.874L437.861 328.517L439.504 331.038L441.347 333.413L443.376 335.618L445.579 337.628L446.349 338.316L447.068 339.054L447.73 339.84L448.327 340.67L448.852 341.541L449.297 342.449L449.656 343.391L449.922 344.365L450.086 345.365L450.143 346.39L450.238 347.578L450.514 348.704L450.955 349.755L451.546 350.714L452.273 351.567L453.121 352.298L454.074 352.894L455.118 353.338L456.237 353.615L457.417 353.711H468.583L469.763 353.615L470.882 353.338L471.926 352.894L472.879 352.298L473.727 351.567L474.454 350.714L475.045 349.755L475.486 348.704L475.762 347.578L475.857 346.39Z" fill="#F9FEE4" stroke="#C4DE19" stroke-width="2.78497"/>
<path d="M459.897 347.426V315.799L459.816 314.782L459.58 313.818L459.202 312.918L458.696 312.097L458.073 311.367L457.347 310.74L456.531 310.23L455.637 309.85L454.679 309.613L453.669 309.531L453.178 309.531L452.247 309.606L451.364 309.825L450.541 310.175L449.79 310.645L449.121 311.222L448.548 311.895L448.081 312.651L447.733 313.48L447.516 314.368L447.441 315.305L447.516 316.241L447.733 317.13L448.081 317.958L448.548 318.715L449.121 319.387L449.79 319.964L450.541 320.434L451.364 320.784L452.247 321.003L453.178 321.078L454.05 321.078L453.992 321.087H472.011L471.958 321.078L472.831 321.078L473.761 321.003L474.644 320.784L475.467 320.434L476.219 319.964L476.887 319.387L477.461 318.715L477.927 317.958L478.275 317.13L478.493 316.241L478.568 315.305L478.493 314.368L478.275 313.48L477.927 312.651L477.461 311.895L476.887 311.222L476.219 310.645L475.467 310.175L474.644 309.825L473.762 309.606L472.831 309.531L472.34 309.531L471.329 309.613L470.371 309.85L469.477 310.23L468.661 310.74L467.936 311.367L467.313 312.097L466.807 312.918L466.429 313.818L466.193 314.782L466.111 315.799V347.426" stroke="#C4DE19" stroke-width="2.22798"/>
<path d="M450.143 345.489H475.858V348.778L475.751 350.112L475.441 351.377L474.946 352.556L474.281 353.634L473.465 354.592L472.513 355.414L471.442 356.082L470.27 356.581L469.013 356.892L467.688 357H458.313L456.988 356.892L455.731 356.581L454.559 356.082L453.488 355.414L452.536 354.592L451.72 353.634L451.055 352.556L450.56 351.377L450.25 350.112L450.143 348.778V345.489Z" fill="#141414" stroke="#141414" stroke-width="1.67098"/>
<path d="M450.143 345.493H475.858V348.782H450.143V345.493Z" fill="#C4DE19" stroke="#C4DE19" stroke-width="1.67098"/>
<path d="M54.1538 288L52.5068 288.135L50.9444 288.525L49.4876 289.148L48.1571 289.985L46.974 291.013L45.9591 292.212L45.1334 293.559L44.5177 295.035L44.1329 296.618L44 298.286V318.859L44.1349 321.243L44.5296 323.546L45.1692 325.755L46.0388 327.853L47.1233 329.826L48.4079 331.658L49.8775 333.334L51.5174 334.839L53.3124 336.157L55.2477 337.275L56.6287 338.03L57.9714 338.885L59.2506 339.837L60.441 340.883L61.5174 342.019L62.4547 343.242L63.2276 344.549L63.8108 345.937L64.1793 347.403L64.3077 348.942L64.4063 350.18L64.6918 351.355L65.1486 352.45L65.7613 353.45L66.5143 354.339L67.3921 355.102L68.3792 355.722L69.4602 356.185L70.6194 356.474L71.8414 356.574H82.1586L83.3806 356.474L84.5398 356.185L85.6208 355.722L86.6079 355.102L87.4857 354.339L88.2387 353.45L88.8514 352.45L89.3082 351.355L89.5937 350.18L89.6923 348.942L89.8207 347.403L90.1892 345.937L90.7724 344.549L91.5453 343.242L92.4826 342.019L93.559 340.883L94.7494 339.837L96.0286 338.885L97.3713 338.03L98.7523 337.275L100.688 336.157L102.483 334.839L104.122 333.334L105.592 331.658L106.877 329.826L107.961 327.853L108.831 325.755L109.47 323.546L109.865 321.243L110 318.859V298.286L109.867 296.618L109.482 295.035L108.867 293.559L108.041 292.212L107.026 291.013L105.843 289.985L104.512 289.148L103.056 288.525L101.493 288.135L99.8462 288H54.1538Z" fill="#F2F2F2" stroke="#B3B3B3" stroke-width="2.78497"/>
<path d="M73.9373 349.017V316.938L73.8635 316.011L73.6498 315.132L73.3079 314.312L72.8492 313.564L72.2855 312.898L71.6284 312.327L70.8895 311.862L70.0803 311.516L69.2125 311.3L68.2978 311.225L63.3516 311.225L62.5251 311.293L61.741 311.488L61.0099 311.801L60.3422 312.221L59.7485 312.737L59.2392 313.338L58.8248 314.015L58.5159 314.755L58.3228 315.55L58.2561 316.387L58.3228 317.224L58.5159 318.019L58.8249 318.759L59.2393 319.436L59.7486 320.037L60.3423 320.553L61.01 320.973L61.7411 321.286L62.5252 321.481L63.3517 321.549L68.1653 321.549L68.1075 321.558H85.8959L85.8437 321.549L90.6574 321.549L91.4839 321.481L92.268 321.286L92.9991 320.973L93.6668 320.553L94.2605 320.037L94.7698 319.436L95.1842 318.759L95.4932 318.019L95.6863 317.224L95.753 316.387L95.6863 315.55L95.4932 314.755L95.1842 314.015L94.7699 313.338L94.2606 312.737L93.6668 312.221L92.9992 311.801L92.2681 311.488L91.484 311.293L90.6575 311.225L85.7113 311.225L84.7966 311.3L83.9288 311.516L83.1196 311.862L82.3807 312.327L81.7236 312.898L81.1599 313.564L80.7012 314.312L80.3593 315.132L80.1456 316.011L80.0717 316.938V349.017" stroke="#B3B3B3" stroke-width="2.22798"/>
<path d="M64.3076 348.001H89.6922V351.43H64.3076V348.001Z" fill="#808080" stroke="#808080" stroke-width="1.67098"/>
<path d="M64.3076 348H89.6922V351.428L89.5815 352.819L89.2609 354.138L88.7478 355.367L88.0596 356.491L87.2139 357.489L86.228 358.346L85.1193 359.043L83.9052 359.563L82.6032 359.888L81.2307 360H72.7692L71.3966 359.888L70.0947 359.563L68.8806 359.043L67.7719 358.346L66.7859 357.489L65.9402 356.491L65.2521 355.367L64.739 354.138L64.4184 352.819L64.3076 351.428V348Z" fill="#141414" stroke="#141414" stroke-width="1.67098"/>
<path d="M50 352V374.018H106.25V352" stroke="black" stroke-width="2"/>
<rect x="56" y="364.734" width="43.027" height="20" rx="5" fill="black"/>
<path d="M70.8609 381.734V378.894H63.9809V375.934L68.8209 367.734H73.4209V376.614H75.7409V378.894H73.4209V381.734H70.8609ZM66.4209 376.614H70.8609V369.374H70.5009L66.4209 376.294V376.614ZM80.0958 381.734L76.5358 367.734H79.2558L82.2158 380.034H82.4958L85.4558 367.734H88.1758L84.6158 381.734H80.0958Z" fill="white"/>
<path d="M430.662 148.099L429.98 148.992L429.365 149.915L428.819 150.866L428.343 151.84L427.937 152.835L427.602 153.849L427.34 154.879L427.152 155.923L427.038 156.976L427 158.038L427.118 159.914L427.463 161.733L428.023 163.485L428.787 165.16L429.743 166.748L430.878 168.238L432.181 169.621L433.639 170.887L435.241 172.025L436.974 173.025L438.179 173.69L439.341 174.421L440.44 175.217L441.456 176.074L442.369 176.992L443.161 177.966L443.811 178.996L444.3 180.078L444.607 181.211L444.714 182.392L444.817 183.467L445.116 184.488L445.595 185.439L446.236 186.307L447.024 187.08L447.943 187.742L448.976 188.282L450.108 188.684L451.321 188.935L452.6 189.021H463.4L464.679 188.935L465.892 188.684L467.024 188.282L468.057 187.742L468.976 187.08L469.764 186.307L470.405 185.439L470.884 184.488L471.182 183.467L471.286 182.392L471.393 181.211L471.7 180.078L472.189 178.996L472.839 177.966L473.631 176.992L474.544 176.074L475.56 175.217L476.659 174.421L477.821 173.69L479.026 173.025L480.759 172.025L482.361 170.887L483.819 169.621L485.122 168.238L486.257 166.748L487.213 165.16L487.977 163.485L488.537 161.733L488.882 159.914L489 158.038L488.962 156.976L488.848 155.923L488.66 154.879L488.398 153.849L488.063 152.835L487.657 151.84L487.181 150.866L486.635 149.916L486.02 148.992L485.338 148.099L462.384 119.942L461.682 119.243L460.864 118.699L459.958 118.31L458.994 118.077L458 118L457.006 118.077L456.042 118.31L455.136 118.699L454.318 119.243L453.616 119.942L430.662 148.099Z" fill="#F2F2F2" stroke="#B3B3B3" stroke-width="2.79134"/>
<path d="M454.794 183.329V152.934L454.732 152.298L454.556 151.694L454.273 151.132L453.893 150.618L453.427 150.161L452.884 149.769L452.273 149.45L451.603 149.213L450.885 149.064L450.129 149.013L449.372 149.064L448.655 149.213L447.985 149.451L447.374 149.769L446.831 150.161L446.365 150.618L445.985 151.132L445.703 151.695L445.526 152.298L445.465 152.934V156.707L445.554 157.638L445.813 158.521L446.227 159.345L446.783 160.098L447.465 160.767L448.261 161.34L449.156 161.807L450.136 162.155L451.187 162.373L452.295 162.448L451.8 162.456H464.2L463.714 162.448L464.822 162.373L465.873 162.155L466.853 161.807L467.747 161.34L468.543 160.767L469.226 160.098L469.781 159.345L470.195 158.521L470.454 157.638L470.544 156.707V152.934L470.483 152.298L470.306 151.695L470.023 151.132L469.644 150.618L469.178 150.161L468.634 149.769L468.023 149.451L467.354 149.213L466.636 149.064L465.88 149.013L465.123 149.064L464.405 149.213L463.736 149.45L463.125 149.769L462.581 150.161L462.115 150.618L461.736 151.132L461.453 151.694L461.276 152.298L461.215 152.934V183.329" stroke="#B3B3B3" stroke-width="2.23307"/>
<path d="M444.715 181.576H471.286V184.554L471.17 185.762L470.834 186.908L470.297 187.976L469.577 188.952L468.692 189.819L467.66 190.563L466.499 191.169L465.228 191.62L463.866 191.903L462.429 192H453.572L452.135 191.903L450.772 191.62L449.501 191.169L448.341 190.563L447.309 189.819L446.424 188.952L445.703 187.976L445.166 186.908L444.831 185.762L444.715 184.554V181.576Z" fill="#141414" stroke="#141414" stroke-width="1.67481"/>
<path d="M444.715 181.576H471.286V184.555H444.715V181.576Z" fill="#808080" stroke="#808080" stroke-width="1.67481"/>
<path d="M451.653 132.989C458.226 132.989 463.554 137.468 463.554 142.994C463.554 148.52 458.226 152.999 451.653 152.999C445.079 152.999 439.751 148.52 439.751 142.994C439.751 137.468 445.079 132.989 451.653 132.989Z" fill="white" fill-opacity="0.3"/>
<path d="M430 189V211.018H486.25V189" stroke="black" stroke-width="2"/>
<rect x="437" y="201.734" width="43.027" height="20" rx="5" fill="black"/>
<path d="M445.275 218.734V206.614H444.915L443.035 211.054H440.355L443.215 204.734H447.835V218.734H445.275ZM455.398 219.014C454.332 219.014 453.405 218.814 452.618 218.414C451.832 218.014 451.225 217.461 450.798 216.754C450.372 216.048 450.158 215.234 450.158 214.314V209.534C450.158 208.401 450.385 207.461 450.838 206.714C451.305 205.954 451.938 205.388 452.738 205.014C453.552 204.641 454.478 204.454 455.518 204.454C456.558 204.454 457.458 204.628 458.218 204.974C458.992 205.321 459.585 205.821 459.998 206.474C460.425 207.128 460.638 207.908 460.638 208.814H458.038C458.038 208.254 457.845 207.768 457.458 207.354C457.072 206.941 456.425 206.734 455.518 206.734C454.625 206.734 453.932 206.968 453.438 207.434C452.958 207.901 452.718 208.548 452.718 209.374V210.814H453.078C453.305 210.548 453.652 210.294 454.118 210.054C454.585 209.814 455.265 209.694 456.158 209.694C456.972 209.694 457.718 209.868 458.398 210.214C459.092 210.561 459.652 211.068 460.078 211.734C460.505 212.388 460.718 213.181 460.718 214.114V214.354C460.718 215.274 460.498 216.088 460.058 216.794C459.618 217.488 458.998 218.034 458.198 218.434C457.398 218.821 456.465 219.014 455.398 219.014ZM455.438 216.734C456.278 216.734 456.938 216.514 457.418 216.074C457.912 215.634 458.158 215.048 458.158 214.314V214.154C458.158 213.661 458.045 213.234 457.818 212.874C457.605 212.514 457.292 212.234 456.878 212.034C456.478 211.834 455.998 211.734 455.438 211.734C454.892 211.734 454.412 211.834 453.998 212.034C453.585 212.234 453.265 212.514 453.038 212.874C452.825 213.234 452.718 213.661 452.718 214.154V214.314C452.718 215.048 452.958 215.634 453.438 216.074C453.932 216.514 454.598 216.734 455.438 216.734ZM465.441 218.734L461.881 204.734H464.601L467.561 217.034H467.841L470.801 204.734H473.521L469.961 218.734H465.441Z" fill="white"/>
</svg>
