<svg width="540" height="381" viewBox="0 0 540 381" fill="none" xmlns="http://www.w3.org/2000/svg">
<rect x="1" y="136.4" width="538" height="218" stroke="black" stroke-width="2"/>
<path d="M303.641 379.389H225.576C222.496 379.389 220 376.704 220 373.391V337.399C220 334.086 222.496 331.4 225.576 331.4H303.641C306.721 331.4 309.217 334.086 309.217 337.399V373.391C309.217 376.704 306.721 379.389 303.641 379.389Z" fill="#CE6809"/>
<path d="M220 378.639H278.549V332.149H220V378.639Z" fill="#333333"/>
<path d="M278.549 349.395H309.218V337.398H278.549V349.395Z" fill="#E77A16"/>
<path d="M220 350.141H278.549V338.144H220V350.141Z" fill="#4C4C4C"/>
<path d="M317.212 367.512H311.636C310.096 367.512 308.848 366.169 308.848 364.513V346.517C308.848 344.861 310.096 343.518 311.636 343.518H317.212C318.752 343.518 320 344.861 320 346.517V364.513C320 366.169 318.752 367.512 317.212 367.512Z" fill="#333333"/>
<path d="M315.818 352.212H310.242C309.472 352.212 308.848 351.54 308.848 350.712V347.713C308.848 346.884 309.472 346.213 310.242 346.213H315.818C316.588 346.213 317.212 346.884 317.212 347.713V350.712C317.212 351.54 316.588 352.212 315.818 352.212Z" fill="#4C4C4C"/>
<path d="M303.641 379.4H225.576C222.496 379.4 220 376.714 220 373.401V337.409C220 334.096 222.496 331.411 225.576 331.411H303.641C306.721 331.411 309.217 334.096 309.217 337.409V373.401C309.217 376.714 306.721 379.4 303.641 379.4Z" stroke="#333333" stroke-width="2.78497"/>
<path d="M405.662 173.499L404.98 174.392L404.365 175.316L403.819 176.266L403.343 177.24L402.937 178.235L402.602 179.249L402.34 180.279L402.152 181.323L402.038 182.376L402 183.438L402.118 185.314L402.463 187.133L403.023 188.886L403.787 190.561L404.743 192.148L405.878 193.639L407.181 195.021L408.639 196.287L410.241 197.425L411.974 198.425L413.179 199.09L414.341 199.821L415.44 200.617L416.456 201.475L417.369 202.392L418.161 203.367L418.811 204.396L419.3 205.479L419.607 206.611L419.714 207.792L419.817 208.868L420.116 209.888L420.595 210.839L421.236 211.708L422.024 212.48L422.943 213.143L423.976 213.682L425.108 214.084L426.321 214.335L427.6 214.422H438.4L439.679 214.335L440.892 214.084L442.024 213.682L443.057 213.143L443.976 212.48L444.764 211.708L445.405 210.839L445.884 209.888L446.182 208.868L446.286 207.792L446.393 206.611L446.7 205.479L447.189 204.396L447.839 203.367L448.631 202.392L449.544 201.475L450.56 200.617L451.659 199.821L452.821 199.09L454.026 198.425L455.759 197.425L457.361 196.287L458.819 195.021L460.122 193.639L461.257 192.148L462.213 190.561L462.977 188.886L463.537 187.133L463.882 185.314L464 183.438L463.962 182.376L463.848 181.323L463.66 180.279L463.398 179.249L463.063 178.235L462.657 177.24L462.181 176.266L461.635 175.316L461.02 174.392L460.338 173.499L437.384 145.342L436.682 144.643L435.864 144.099L434.958 143.711L433.994 143.478L433 143.4L432.006 143.478L431.042 143.711L430.136 144.099L429.318 144.643L428.616 145.342L405.662 173.499Z" fill="#F2F2F2" stroke="#B3B3B3" stroke-width="2.79134"/>
<path d="M429.794 208.729V178.334L429.732 177.698L429.556 177.095L429.273 176.532L428.893 176.018L428.427 175.561L427.884 175.169L427.273 174.85L426.603 174.613L425.885 174.464L425.129 174.413L424.372 174.464L423.655 174.613L422.985 174.851L422.374 175.17L421.831 175.561L421.365 176.018L420.985 176.532L420.703 177.095L420.526 177.698L420.465 178.334V182.107L420.554 183.038L420.813 183.922L421.227 184.745L421.783 185.498L422.465 186.167L423.261 186.741L424.156 187.207L425.136 187.556L426.187 187.773L427.295 187.848L426.8 187.856H439.2L438.714 187.848L439.822 187.773L440.873 187.556L441.853 187.207L442.747 186.741L443.543 186.167L444.226 185.498L444.781 184.745L445.195 183.922L445.454 183.038L445.544 182.107V178.334L445.483 177.698L445.306 177.095L445.023 176.532L444.644 176.018L444.178 175.561L443.634 175.17L443.023 174.851L442.354 174.613L441.636 174.464L440.88 174.413L440.123 174.464L439.405 174.613L438.736 174.85L438.125 175.169L437.581 175.561L437.115 176.018L436.736 176.532L436.453 177.095L436.276 177.698L436.215 178.334V208.729" stroke="#B3B3B3" stroke-width="2.23307"/>
<path d="M419.715 206.976H446.286V209.954L446.17 211.162L445.835 212.308L445.298 213.376L444.577 214.352L443.692 215.219L442.66 215.963L441.499 216.569L440.229 217.02L438.866 217.302L437.429 217.4H428.572L427.135 217.302L425.772 217.02L424.501 216.569L423.341 215.963L422.309 215.219L421.424 214.352L420.703 213.376L420.166 212.308L419.831 211.162L419.715 209.954V206.976Z" fill="#141414" stroke="#141414" stroke-width="1.67481"/>
<path d="M419.715 206.976H446.286V209.954H419.715V206.976Z" fill="#808080" stroke="#808080" stroke-width="1.67481"/>
<path d="M426.653 158.388C433.226 158.388 438.554 162.868 438.554 168.394C438.554 173.919 433.226 178.399 426.653 178.399C420.079 178.399 414.751 173.919 414.751 168.394C414.751 162.868 420.079 158.388 426.653 158.388Z" fill="white" fill-opacity="0.3"/>
<rect x="412" y="221.4" width="43.027" height="20" rx="5" fill="black"/>
<path d="M432.082 238.4V235.86H435.102C434.476 235.473 433.942 235.007 433.502 234.46C433.076 233.9 432.749 233.273 432.522 232.58C432.309 231.873 432.202 231.107 432.202 230.28C432.202 229.067 432.476 227.98 433.022 227.02C433.582 226.06 434.369 225.3 435.382 224.74C436.409 224.18 437.616 223.9 439.002 223.9C440.402 223.9 441.609 224.18 442.622 224.74C443.636 225.3 444.416 226.067 444.962 227.04C445.522 228 445.802 229.087 445.802 230.3C445.802 231.127 445.689 231.887 445.462 232.58C445.249 233.273 444.922 233.9 444.482 234.46C444.042 235.007 443.502 235.473 442.862 235.86H445.922V238.4H440.042V235.68C440.776 235.333 441.329 234.893 441.702 234.36C442.089 233.813 442.349 233.227 442.482 232.6C442.616 231.96 442.682 231.327 442.682 230.7C442.682 229.807 442.529 229.047 442.222 228.42C441.929 227.78 441.509 227.287 440.962 226.94C440.416 226.593 439.762 226.42 439.002 226.42C438.242 226.42 437.582 226.593 437.022 226.94C436.476 227.287 436.056 227.78 435.762 228.42C435.469 229.06 435.322 229.827 435.322 230.72C435.322 231.347 435.402 231.973 435.562 232.6C435.722 233.227 435.989 233.807 436.362 234.34C436.749 234.873 437.269 235.32 437.922 235.68V238.4H432.082Z" fill="white"/>
<path d="M426.043 238.4V235.56H419.163V232.6L424.003 224.4H428.603V233.28H430.923V235.56H428.603V238.4H426.043ZM421.603 233.28H426.043V226.04H425.683L421.603 232.96V233.28Z" fill="white"/>
<rect x="368" y="71.3999" width="124" height="144" stroke="black" stroke-width="2"/>
<path d="M405.662 31.4988L404.98 32.3925L404.365 33.3156L403.819 34.2657L403.343 35.2398L402.937 36.2353L402.602 37.2494L402.34 38.2795L402.152 39.3227L402.038 40.3763L402 41.4377L402.118 43.3141L402.463 45.1334L403.023 46.8856L403.787 48.5605L404.743 50.1482L405.878 51.6385L407.181 53.0214L408.639 54.2868L410.241 55.4247L411.974 56.4249L413.179 57.0898L414.341 57.8212L415.44 58.6169L416.456 59.4746L417.369 60.3919L418.161 61.3665L418.811 62.3962L419.3 63.4786L419.607 64.6114L419.714 65.7923L419.817 66.8676L420.116 67.8877L420.595 68.8389L421.236 69.7075L422.024 70.48L422.943 71.1426L423.976 71.6817L425.108 72.0837L426.321 72.3349L427.6 72.4216H438.4L439.679 72.3349L440.892 72.0837L442.024 71.6817L443.057 71.1426L443.976 70.48L444.764 69.7075L445.405 68.8389L445.884 67.8877L446.182 66.8676L446.286 65.7923L446.393 64.6114L446.7 63.4786L447.189 62.3962L447.839 61.3665L448.631 60.3919L449.544 59.4746L450.56 58.6169L451.659 57.8212L452.821 57.0898L454.026 56.4249L455.759 55.4247L457.361 54.2868L458.819 53.0214L460.122 51.6385L461.257 50.1482L462.213 48.5605L462.977 46.8856L463.537 45.1334L463.882 43.3141L464 41.4377L463.962 40.3763L463.848 39.3227L463.66 38.2795L463.398 37.2494L463.063 36.2353L462.657 35.2398L462.181 34.2657L461.635 33.3156L461.02 32.3925L460.338 31.4988L437.384 3.34191L436.682 2.6428L435.864 2.09904L434.958 1.71063L433.994 1.4776L433 1.39992L432.006 1.4776L431.042 1.71063L430.136 2.09904L429.318 2.6428L428.616 3.34191L405.662 31.4988Z" fill="#F2F2F2" stroke="#B3B3B3" stroke-width="2.79134"/>
<path d="M429.794 66.7292V36.334L429.732 35.6979L429.556 35.0946L429.273 34.5319L428.893 34.0182L428.427 33.5613L427.884 33.1694L427.273 32.8505L426.603 32.6127L425.885 32.4642L425.129 32.4129L424.372 32.4643L423.655 32.6129L422.985 32.8507L422.374 33.1695L421.831 33.5615L421.365 34.0183L420.985 34.5321L420.703 35.0947L420.526 35.698L420.465 36.334V40.1069L420.554 41.0382L420.813 41.9216L421.227 42.7454L421.783 43.4977L422.465 44.1667L423.261 44.7405L424.156 45.2074L425.136 45.5556L426.187 45.7732L427.295 45.8483L426.8 45.8556H439.2L438.714 45.8483L439.822 45.7732L440.873 45.5556L441.853 45.2074L442.747 44.7405L443.543 44.1667L444.226 43.4977L444.781 42.7454L445.195 41.9216L445.454 41.0382L445.544 40.1069V36.334L445.483 35.698L445.306 35.0947L445.023 34.5321L444.644 34.0183L444.178 33.5615L443.634 33.1695L443.023 32.8507L442.354 32.6129L441.636 32.4643L440.88 32.4129L440.123 32.4642L439.405 32.6127L438.736 32.8505L438.125 33.1694L437.581 33.5613L437.115 34.0182L436.736 34.5319L436.453 35.0946L436.276 35.6979L436.215 36.334V66.7292" stroke="#B3B3B3" stroke-width="2.23307"/>
<path d="M419.715 64.9759H446.286V67.9542L446.17 69.1619L445.835 70.3076L445.298 71.3759L444.577 72.3515L443.692 73.2191L442.66 73.9633L441.499 74.5688L440.229 75.0203L438.866 75.3025L437.429 75.3999H428.572L427.135 75.3025L425.772 75.0203L424.501 74.5688L423.341 73.9633L422.309 73.2191L421.424 72.3515L420.703 71.3759L420.166 70.3076L419.831 69.1619L419.715 67.9542V64.9759Z" fill="#141414" stroke="#141414" stroke-width="1.67481"/>
<path d="M419.715 64.9759H446.286V67.9542H419.715V64.9759Z" fill="#808080" stroke="#808080" stroke-width="1.67481"/>
<path d="M426.653 16.3885C433.226 16.3885 438.554 20.8679 438.554 26.3936C438.554 31.9193 433.226 36.3988 426.653 36.3988C420.079 36.3988 414.751 31.9193 414.751 26.3936C414.751 20.8679 420.079 16.3885 426.653 16.3885Z" fill="white" fill-opacity="0.3"/>
<rect x="412" y="79.3999" width="43.027" height="20" rx="5" fill="black"/>
<path d="M432.082 96.3999V93.8599H435.102C434.476 93.4732 433.942 93.0066 433.502 92.4599C433.076 91.8999 432.749 91.2732 432.522 90.5799C432.309 89.8732 432.202 89.1066 432.202 88.2799C432.202 87.0666 432.476 85.9799 433.022 85.0199C433.582 84.0599 434.369 83.2999 435.382 82.7399C436.409 82.1799 437.616 81.8999 439.002 81.8999C440.402 81.8999 441.609 82.1799 442.622 82.7399C443.636 83.2999 444.416 84.0666 444.962 85.0399C445.522 85.9999 445.802 87.0866 445.802 88.2999C445.802 89.1266 445.689 89.8866 445.462 90.5799C445.249 91.2732 444.922 91.8999 444.482 92.4599C444.042 93.0066 443.502 93.4732 442.862 93.8599H445.922V96.3999H440.042V93.6799C440.776 93.3332 441.329 92.8932 441.702 92.3599C442.089 91.8132 442.349 91.2266 442.482 90.5999C442.616 89.9599 442.682 89.3266 442.682 88.6999C442.682 87.8066 442.529 87.0466 442.222 86.4199C441.929 85.7799 441.509 85.2866 440.962 84.9399C440.416 84.5932 439.762 84.4199 439.002 84.4199C438.242 84.4199 437.582 84.5932 437.022 84.9399C436.476 85.2866 436.056 85.7799 435.762 86.4199C435.469 87.0599 435.322 87.8266 435.322 88.7199C435.322 89.3466 435.402 89.9732 435.562 90.5999C435.722 91.2266 435.989 91.8066 436.362 92.3399C436.749 92.8732 437.269 93.3199 437.922 93.6799V96.3999H432.082Z" fill="white"/>
<path d="M426.043 96.3999V93.5599H419.163V90.5999L424.003 82.3999H428.603V91.2799H430.923V93.5599H428.603V96.3999H426.043ZM421.603 91.2799H426.043V84.0399H425.683L421.603 90.9599V91.2799Z" fill="white"/>
<path d="M85.8572 131.79L85.9136 130.765L86.0782 129.764L86.3436 128.791L86.7028 127.849L87.1484 126.94L87.6733 126.07L88.2702 125.24L88.932 124.454L89.6514 123.716L90.4211 123.028L92.6238 121.017L94.6535 118.813L96.4964 116.438L98.1386 113.917L99.5662 111.274L100.765 108.532L101.722 105.717L102.423 102.851L102.853 99.9592L103 97.0651L102.607 92.4154L101.471 88.0047L99.6515 83.8918L97.2117 80.1358L94.2132 76.7958L90.7176 73.9306L86.7867 71.5995L82.4823 69.8613L77.8662 68.7751L73 68.3999L68.1338 68.7751L63.5177 69.8613L59.2133 71.5995L55.2824 73.9306L51.7868 76.7958L48.7883 80.1358L46.3485 83.8918L44.5294 88.0047L43.3927 92.4154L43 97.0651L43.1466 99.9592L43.5772 102.851L44.2778 105.717L45.2347 108.532L46.4338 111.274L47.8614 113.917L49.5036 116.438L51.3465 118.813L53.3762 121.017L55.5789 123.028L56.3486 123.716L57.068 124.454L57.7298 125.24L58.3267 126.07L58.8516 126.94L59.2972 127.849L59.6564 128.791L59.9218 129.764L60.0864 130.765L60.1429 131.79L60.2381 132.977L60.5137 134.104L60.9548 135.154L61.5463 136.113L62.2733 136.966L63.1209 137.698L64.074 138.293L65.1176 138.737L66.2369 139.015L67.4167 139.111H78.5833L79.7632 139.015L80.8824 138.737L81.926 138.293L82.8791 137.698L83.7267 136.966L84.4537 136.113L85.0453 135.154L85.4863 134.104L85.7619 132.977L85.8572 131.79Z" fill="#F2F2F2" stroke="#B3B3B3" stroke-width="2.78497"/>
<path d="M69.8972 132.826V101.199L69.8157 100.182L69.5797 99.2175L69.202 98.3181L68.6955 97.4968L68.073 96.7664L67.3472 96.1399L66.5311 95.6302L65.6375 95.2501L64.6791 95.0126L63.6688 94.9306L63.1776 94.9306L62.247 95.0062L61.3643 95.225L60.5412 95.5752L59.7896 96.0447L59.1211 96.6218L58.5477 97.2946L58.0812 98.0511L57.7334 98.8795L57.516 99.7679L57.4409 100.704L57.516 101.641L57.7334 102.529L58.0812 103.358L58.5478 104.114L59.1212 104.787L59.7896 105.364L60.5413 105.834L61.3644 106.184L62.2472 106.403L63.1777 106.478L64.0503 106.478L63.9917 106.486H82.0111L81.9583 106.478L82.8308 106.478L83.7614 106.403L84.6441 106.184L85.4672 105.834L86.2189 105.364L86.8874 104.787L87.4608 104.114L87.9273 103.358L88.2752 102.529L88.4926 101.641L88.5676 100.704L88.4926 99.7679L88.2752 98.8795L87.9273 98.0511L87.4608 97.2946L86.8874 96.6218L86.219 96.0447L85.4673 95.5752L84.6442 95.225L83.7615 95.0062L82.831 94.9306L82.3398 94.9306L81.3295 95.0126L80.3711 95.2501L79.4774 95.6302L78.6613 96.1399L77.9356 96.7664L77.3131 97.4968L76.8065 98.3181L76.4289 99.2175L76.1928 100.182L76.1113 101.199V132.826" stroke="#B3B3B3" stroke-width="2.22798"/>
<path d="M60.1433 130.889H85.8576V134.178L85.7507 135.511L85.4411 136.777L84.9457 137.956L84.2813 139.034L83.4648 139.992L82.5128 140.814L81.4424 141.482L80.2702 141.981L79.0131 142.292L77.688 142.4H68.313L66.9878 142.292L65.7307 141.981L64.5585 141.482L63.4881 140.814L62.5361 139.992L61.7196 139.034L61.0552 137.956L60.5598 136.777L60.2502 135.511L60.1433 134.178V130.889Z" fill="#141414" stroke="#141414" stroke-width="1.67098"/>
<path d="M60.1433 130.893H85.8576V134.182H60.1433V130.893Z" fill="#808080" stroke="#808080" stroke-width="1.67098"/>
<rect x="53" y="148.4" width="43.027" height="20" rx="5" fill="black"/>
<path d="M73.0823 165.4V162.86H76.1023C75.4757 162.473 74.9423 162.007 74.5023 161.46C74.0757 160.9 73.749 160.273 73.5223 159.58C73.309 158.873 73.2023 158.107 73.2023 157.28C73.2023 156.067 73.4757 154.98 74.0223 154.02C74.5823 153.06 75.369 152.3 76.3823 151.74C77.409 151.18 78.6157 150.9 80.0023 150.9C81.4023 150.9 82.609 151.18 83.6223 151.74C84.6357 152.3 85.4157 153.067 85.9623 154.04C86.5223 155 86.8023 156.087 86.8023 157.3C86.8023 158.127 86.689 158.887 86.4623 159.58C86.249 160.273 85.9223 160.9 85.4823 161.46C85.0423 162.007 84.5023 162.473 83.8623 162.86H86.9223V165.4H81.0423V162.68C81.7757 162.333 82.329 161.893 82.7023 161.36C83.089 160.813 83.349 160.227 83.4823 159.6C83.6157 158.96 83.6823 158.327 83.6823 157.7C83.6823 156.807 83.529 156.047 83.2223 155.42C82.929 154.78 82.509 154.287 81.9623 153.94C81.4157 153.593 80.7623 153.42 80.0023 153.42C79.2423 153.42 78.5823 153.593 78.0223 153.94C77.4757 154.287 77.0557 154.78 76.7623 155.42C76.469 156.06 76.3223 156.827 76.3223 157.72C76.3223 158.347 76.4023 158.973 76.5623 159.6C76.7223 160.227 76.989 160.807 77.3623 161.34C77.749 161.873 78.269 162.32 78.9223 162.68V165.4H73.0823Z" fill="white"/>
<path d="M60.9025 165.4V163.72C60.9025 162.747 61.0625 161.94 61.3825 161.3C61.7025 160.647 62.1625 160.113 62.7625 159.7C63.3758 159.273 64.1225 158.927 65.0025 158.66L66.3425 158.24C66.8358 158.08 67.2492 157.887 67.5825 157.66C67.9158 157.42 68.1692 157.133 68.3425 156.8C68.5292 156.467 68.6225 156.087 68.6225 155.66V155.58C68.6225 154.913 68.3958 154.387 67.9425 154C67.4892 153.6 66.8692 153.4 66.0825 153.4C65.3092 153.4 64.6825 153.613 64.2025 154.04C63.7358 154.453 63.5025 155.053 63.5025 155.84V156.2H60.9425V155.88C60.9425 154.867 61.1692 154.007 61.6225 153.3C62.0758 152.593 62.6892 152.053 63.4625 151.68C64.2492 151.307 65.1225 151.12 66.0825 151.12C67.0425 151.12 67.9092 151.307 68.6825 151.68C69.4558 152.04 70.0625 152.553 70.5025 153.22C70.9558 153.873 71.1825 154.647 71.1825 155.54V155.74C71.1825 156.633 70.9958 157.393 70.6225 158.02C70.2625 158.633 69.7692 159.14 69.1425 159.54C68.5158 159.927 67.8025 160.247 67.0025 160.5L65.7225 160.9C65.1492 161.073 64.7025 161.267 64.3825 161.48C64.0625 161.68 63.8358 161.907 63.7025 162.16C63.5825 162.4 63.5225 162.693 63.5225 163.04V163.12H71.0625V165.4H60.9025Z" fill="white"/>
</svg>
