<svg width="539" height="310" viewBox="0 0 539 310" fill="none" xmlns="http://www.w3.org/2000/svg">
<path d="M349 235H181V275H1V56H538V144M349 235V144H538M349 235H538V144" stroke="black" stroke-width="2"/>
<path d="M306.713 78.9893H228.648C225.568 78.9893 223.072 76.3036 223.072 72.9906V36.9986C223.072 33.6856 225.568 30.9999 228.648 30.9999H306.713C309.792 30.9999 312.289 33.6856 312.289 36.9986V72.9906C312.289 76.3036 309.792 78.9893 306.713 78.9893Z" fill="#CE6809"/>
<path d="M223.072 78.2388H281.62V31.7491H223.072V78.2388Z" fill="#333333"/>
<path d="M281.621 48.9954H312.289V36.998H281.621V48.9954Z" fill="#E77A16"/>
<path d="M223.072 49.7412H281.62V37.7439H223.072V49.7412Z" fill="#4C4C4C"/>
<path d="M320.283 67.1125H314.707C313.168 67.1125 311.919 65.7697 311.919 64.1132V46.1172C311.919 44.4607 313.168 43.1179 314.707 43.1179H320.283C321.823 43.1179 323.071 44.4607 323.071 46.1172V64.1132C323.071 65.7697 321.823 67.1125 320.283 67.1125Z" fill="#333333"/>
<path d="M318.889 51.8118H313.313C312.543 51.8118 311.919 51.1403 311.919 50.3121V47.3128C311.919 46.4845 312.543 45.8131 313.313 45.8131H318.889C319.659 45.8131 320.283 46.4845 320.283 47.3128V50.3121C320.283 51.1403 319.659 51.8118 318.889 51.8118Z" fill="#4C4C4C"/>
<path d="M306.713 79H228.648C225.568 79 223.072 76.3143 223.072 73.0013V37.0093C223.072 33.6964 225.568 31.0107 228.648 31.0107H306.713C309.792 31.0107 312.289 33.6964 312.289 37.0093V73.0013C312.289 76.3143 309.792 79 306.713 79Z" stroke="#333333" stroke-width="2.78497"/>
<path d="M338.183 56.207L337.997 15.8669L207 16.4698L207.186 56.8099" stroke="black" stroke-width="2"/>
<rect x="253.072" y="3" width="40" height="20" rx="5" fill="black"/>
<path d="M266.208 20.28C265.168 20.28 264.262 20.1067 263.488 19.76C262.728 19.4133 262.135 18.9133 261.708 18.26C261.295 17.6067 261.088 16.8267 261.088 15.92H263.688C263.688 16.48 263.882 16.9667 264.268 17.38C264.668 17.7933 265.315 18 266.208 18C267.115 18 267.808 17.7667 268.288 17.3C268.768 16.82 269.008 16.1733 269.008 15.36V13.92H268.648C268.422 14.1867 268.075 14.44 267.608 14.68C267.155 14.92 266.475 15.04 265.568 15.04C264.768 15.04 264.022 14.8667 263.328 14.52C262.635 14.1733 262.075 13.6733 261.648 13.02C261.222 12.3533 261.008 11.5533 261.008 10.62V10.38C261.008 9.44667 261.228 8.63333 261.668 7.94C262.108 7.24667 262.728 6.70667 263.528 6.32C264.328 5.92 265.262 5.72 266.328 5.72C267.395 5.72 268.322 5.92 269.108 6.32C269.895 6.72 270.502 7.27333 270.928 7.98C271.355 8.68667 271.568 9.5 271.568 10.42V15.2C271.568 16.3333 271.335 17.28 270.868 18.04C270.415 18.7867 269.782 19.3467 268.968 19.72C268.168 20.0933 267.248 20.28 266.208 20.28ZM266.288 13C266.848 13 267.328 12.9 267.728 12.7C268.142 12.5 268.455 12.22 268.668 11.86C268.895 11.5 269.008 11.0733 269.008 10.58V10.42C269.008 9.67333 268.762 9.08667 268.268 8.66C267.788 8.22 267.128 8 266.288 8C265.448 8 264.782 8.22 264.288 8.66C263.808 9.08667 263.568 9.67333 263.568 10.42V10.58C263.568 11.0733 263.675 11.5 263.888 11.86C264.115 12.22 264.435 12.5 264.848 12.7C265.262 12.9 265.742 13 266.288 13ZM276.492 20L272.932 6H275.652L278.612 18.3H278.892L281.852 6H284.572L281.012 20H276.492Z" fill="white"/>
<circle cx="388" cy="143" r="21" fill="#463B3B"/>
<path d="M377.065 150V148.32C377.065 147.347 377.225 146.54 377.545 145.9C377.865 145.247 378.325 144.713 378.925 144.3C379.538 143.873 380.285 143.527 381.165 143.26L382.505 142.84C382.998 142.68 383.411 142.487 383.745 142.26C384.078 142.02 384.331 141.733 384.505 141.4C384.691 141.067 384.785 140.687 384.785 140.26V140.18C384.785 139.513 384.558 138.987 384.105 138.6C383.651 138.2 383.031 138 382.245 138C381.471 138 380.845 138.213 380.365 138.64C379.898 139.053 379.665 139.653 379.665 140.44V140.8H377.105V140.48C377.105 139.467 377.331 138.607 377.785 137.9C378.238 137.193 378.851 136.653 379.625 136.28C380.411 135.907 381.285 135.72 382.245 135.72C383.205 135.72 384.071 135.907 384.845 136.28C385.618 136.64 386.225 137.153 386.665 137.82C387.118 138.473 387.345 139.247 387.345 140.14V140.34C387.345 141.233 387.158 141.993 386.785 142.62C386.425 143.233 385.931 143.74 385.305 144.14C384.678 144.527 383.965 144.847 383.165 145.1L381.885 145.5C381.311 145.673 380.865 145.867 380.545 146.08C380.225 146.28 379.998 146.507 379.865 146.76C379.745 147 379.685 147.293 379.685 147.64V147.72H387.225V150H377.065ZM388.46 150L392.14 136H396.74L400.42 150H397.7L396.94 146.92H391.94L391.18 150H388.46ZM392.56 144.48H396.32L394.62 137.66H394.26L392.56 144.48Z" fill="white"/>
<path d="M466.857 228.39L466.914 227.365L467.078 226.364L467.344 225.391L467.703 224.449L468.148 223.54L468.673 222.67L469.27 221.84L469.932 221.054L470.651 220.316L471.421 219.628L473.624 217.618L475.653 215.413L477.496 213.038L479.139 210.517L480.566 207.874L481.765 205.133L482.722 202.317L483.423 199.451L483.853 196.559L484 193.665L483.607 189.016L482.471 184.605L480.651 180.492L478.212 176.736L475.213 173.396L471.718 170.531L467.787 168.2L463.482 166.461L458.866 165.375L454 165L449.134 165.375L444.518 166.461L440.213 168.2L436.282 170.531L432.787 173.396L429.788 176.736L427.349 180.492L425.529 184.605L424.393 189.016L424 193.665L424.147 196.559L424.577 199.451L425.278 202.317L426.235 205.133L427.434 207.874L428.861 210.517L430.504 213.038L432.347 215.413L434.376 217.618L436.579 219.628L437.349 220.316L438.068 221.054L438.73 221.84L439.327 222.67L439.852 223.54L440.297 224.449L440.656 225.391L440.922 226.364L441.086 227.365L441.143 228.39L441.238 229.578L441.514 230.704L441.955 231.754L442.546 232.714L443.273 233.567L444.121 234.298L445.074 234.894L446.118 235.337L447.237 235.615L448.417 235.711H459.583L460.763 235.615L461.882 235.337L462.926 234.894L463.879 234.298L464.727 233.567L465.454 232.714L466.045 231.754L466.486 230.704L466.762 229.578L466.857 228.39Z" fill="#F2F2F2" stroke="#B3B3B3" stroke-width="2.78497"/>
<path d="M450.897 229.426V197.799L450.816 196.782L450.58 195.817L450.202 194.918L449.696 194.097L449.073 193.366L448.347 192.74L447.531 192.23L446.637 191.85L445.679 191.613L444.669 191.531L444.178 191.531L443.247 191.606L442.364 191.825L441.541 192.175L440.79 192.645L440.121 193.222L439.548 193.895L439.081 194.651L438.733 195.479L438.516 196.368L438.441 197.304L438.516 198.241L438.733 199.129L439.081 199.958L439.548 200.714L440.121 201.387L440.79 201.964L441.541 202.434L442.364 202.784L443.247 203.003L444.178 203.078L445.05 203.078L444.992 203.086H463.011L462.958 203.078L463.831 203.078L464.761 203.003L465.644 202.784L466.467 202.434L467.219 201.964L467.887 201.387L468.461 200.714L468.927 199.958L469.275 199.129L469.493 198.241L469.568 197.304L469.493 196.368L469.275 195.479L468.927 194.651L468.461 193.895L467.887 193.222L467.219 192.645L466.467 192.175L465.644 191.825L464.762 191.606L463.831 191.531L463.34 191.531L462.329 191.613L461.371 191.85L460.477 192.23L459.661 192.74L458.936 193.366L458.313 194.097L457.807 194.918L457.429 195.817L457.193 196.782L457.111 197.799V229.426" stroke="#B3B3B3" stroke-width="2.22798"/>
<path d="M441.143 227.489H466.858V230.778L466.751 232.112L466.441 233.377L465.946 234.556L465.281 235.634L464.465 236.592L463.513 237.414L462.442 238.082L461.27 238.581L460.013 238.892L458.688 239H449.313L447.988 238.892L446.731 238.581L445.559 238.082L444.488 237.414L443.536 236.592L442.72 235.634L442.055 234.556L441.56 233.377L441.25 232.112L441.143 230.778V227.489Z" fill="#141414" stroke="#141414" stroke-width="1.67098"/>
<path d="M441.143 227.493H466.858V230.782H441.143V227.493Z" fill="#808080" stroke="#808080" stroke-width="1.67098"/>
<path d="M427.217 234.266V256.284H483.467V234.266" stroke="black" stroke-width="2"/>
<rect x="433.217" y="247" width="43.027" height="20" rx="5" fill="black"/>
<path d="M441.938 264V262.32C441.938 261.347 442.098 260.54 442.418 259.9C442.738 259.247 443.198 258.713 443.798 258.3C444.411 257.873 445.158 257.527 446.038 257.26L447.378 256.84C447.871 256.68 448.284 256.487 448.618 256.26C448.951 256.02 449.204 255.733 449.378 255.4C449.564 255.067 449.658 254.687 449.658 254.26V254.18C449.658 253.513 449.431 252.987 448.978 252.6C448.524 252.2 447.904 252 447.118 252C446.344 252 445.718 252.213 445.238 252.64C444.771 253.053 444.538 253.653 444.538 254.44V254.8H441.978V254.48C441.978 253.467 442.204 252.607 442.658 251.9C443.111 251.193 443.724 250.653 444.498 250.28C445.284 249.907 446.158 249.72 447.118 249.72C448.078 249.72 448.944 249.907 449.718 250.28C450.491 250.64 451.098 251.153 451.538 251.82C451.991 252.473 452.218 253.247 452.218 254.14V254.34C452.218 255.233 452.031 255.993 451.658 256.62C451.298 257.233 450.804 257.74 450.178 258.14C449.551 258.527 448.838 258.847 448.038 259.1L446.758 259.5C446.184 259.673 445.738 259.867 445.418 260.08C445.098 260.28 444.871 260.507 444.738 260.76C444.618 261 444.558 261.293 444.558 261.64V261.72H452.098V264H441.938ZM456.893 264L453.333 250H456.053L459.013 262.3H459.293L462.253 250H464.973L461.413 264H456.893Z" fill="white"/>
<path d="M429.662 105.099L428.98 105.993L428.365 106.916L427.819 107.866L427.343 108.84L426.937 109.835L426.602 110.85L426.34 111.88L426.152 112.923L426.038 113.976L426 115.038L426.118 116.914L426.463 118.734L427.023 120.486L427.787 122.161L428.743 123.748L429.878 125.239L431.181 126.622L432.639 127.887L434.241 129.025L435.974 130.025L437.179 130.69L438.341 131.421L439.44 132.217L440.456 133.075L441.369 133.992L442.161 134.967L442.811 135.996L443.3 137.079L443.607 138.212L443.714 139.392L443.817 140.468L444.116 141.488L444.595 142.439L445.236 143.308L446.024 144.08L446.943 144.743L447.976 145.282L449.108 145.684L450.321 145.935L451.6 146.022H462.4L463.679 145.935L464.892 145.684L466.024 145.282L467.057 144.743L467.976 144.08L468.764 143.308L469.405 142.439L469.884 141.488L470.182 140.468L470.286 139.392L470.393 138.212L470.7 137.079L471.189 135.996L471.839 134.967L472.631 133.992L473.544 133.075L474.56 132.217L475.659 131.421L476.821 130.69L478.026 130.025L479.759 129.025L481.361 127.887L482.819 126.622L484.122 125.239L485.257 123.748L486.213 122.161L486.977 120.486L487.537 118.734L487.882 116.914L488 115.038L487.962 113.976L487.848 112.923L487.66 111.88L487.398 110.85L487.063 109.835L486.657 108.84L486.181 107.866L485.635 106.916L485.02 105.993L484.338 105.099L461.384 76.942L460.682 76.2429L459.864 75.6991L458.958 75.3107L457.994 75.0777L457 75L456.006 75.0777L455.042 75.3107L454.136 75.6991L453.318 76.2429L452.616 76.942L429.662 105.099Z" fill="#F9FEE4" stroke="#C4DE19" stroke-width="2.79134"/>
<path d="M453.794 140.329V109.934L453.732 109.298L453.556 108.695L453.273 108.132L452.893 107.618L452.427 107.161L451.884 106.769L451.273 106.451L450.603 106.213L449.885 106.064L449.129 106.013L448.372 106.064L447.655 106.213L446.985 106.451L446.374 106.77L445.831 107.162L445.365 107.618L444.985 108.132L444.703 108.695L444.526 109.298L444.465 109.934V113.707L444.554 114.638L444.813 115.522L445.227 116.345L445.783 117.098L446.465 117.767L447.261 118.341L448.156 118.808L449.136 119.156L450.187 119.373L451.295 119.448L450.8 119.456H463.2L462.714 119.448L463.822 119.373L464.873 119.156L465.853 118.808L466.747 118.341L467.543 117.767L468.226 117.098L468.781 116.345L469.195 115.522L469.454 114.638L469.544 113.707V109.934L469.483 109.298L469.306 108.695L469.023 108.132L468.644 107.618L468.178 107.162L467.634 106.77L467.023 106.451L466.354 106.213L465.636 106.064L464.88 106.013L464.123 106.064L463.405 106.213L462.736 106.451L462.125 106.769L461.581 107.161L461.115 107.618L460.736 108.132L460.453 108.695L460.276 109.298L460.215 109.934V140.329" stroke="#C4DE19" stroke-width="2.23307"/>
<path d="M443.715 138.576H470.286V141.554L470.17 142.762L469.835 143.908L469.298 144.976L468.577 145.952L467.692 146.819L466.66 147.563L465.499 148.169L464.229 148.62L462.866 148.903L461.429 149H452.572L451.135 148.903L449.772 148.62L448.501 148.169L447.341 147.563L446.309 146.819L445.424 145.952L444.703 144.976L444.166 143.908L443.831 142.762L443.715 141.554V138.576Z" fill="#141414" stroke="#C4DE19" stroke-width="1.67481"/>
<path d="M443.715 138.576H470.286V141.554H443.715V138.576Z" fill="#C4DE19" stroke="#C4DE19" stroke-width="1.67481"/>
<path d="M450.653 89.9887C457.226 89.9887 462.554 94.4682 462.554 99.9939C462.554 105.52 457.226 109.999 450.653 109.999C444.079 109.999 438.751 105.52 438.751 99.9939C438.751 94.4682 444.079 89.9887 450.653 89.9887Z" fill="white" fill-opacity="0.3"/>
<path d="M227.662 193.099L226.98 193.993L226.365 194.916L225.819 195.866L225.343 196.84L224.937 197.835L224.602 198.85L224.34 199.88L224.152 200.923L224.038 201.976L224 203.038L224.118 204.914L224.463 206.734L225.023 208.486L225.787 210.161L226.743 211.748L227.878 213.239L229.181 214.622L230.639 215.887L232.241 217.025L233.974 218.025L235.179 218.69L236.341 219.421L237.44 220.217L238.456 221.075L239.369 221.992L240.161 222.967L240.811 223.996L241.3 225.079L241.607 226.212L241.714 227.392L241.817 228.468L242.116 229.488L242.595 230.439L243.236 231.308L244.024 232.08L244.943 232.743L245.976 233.282L247.108 233.684L248.321 233.935L249.6 234.022H260.4L261.679 233.935L262.892 233.684L264.024 233.282L265.057 232.743L265.976 232.08L266.764 231.308L267.405 230.439L267.884 229.488L268.182 228.468L268.286 227.392L268.393 226.212L268.7 225.079L269.189 223.996L269.839 222.967L270.631 221.992L271.544 221.075L272.56 220.217L273.659 219.421L274.821 218.69L276.026 218.025L277.759 217.025L279.361 215.887L280.819 214.622L282.122 213.239L283.257 211.748L284.213 210.161L284.977 208.486L285.537 206.734L285.882 204.914L286 203.038L285.962 201.976L285.848 200.923L285.66 199.88L285.398 198.85L285.063 197.835L284.657 196.84L284.181 195.866L283.635 194.916L283.02 193.993L282.338 193.099L259.384 164.942L258.682 164.243L257.864 163.699L256.958 163.311L255.994 163.078L255 163L254.006 163.078L253.042 163.311L252.136 163.699L251.318 164.243L250.616 164.942L227.662 193.099Z" fill="#F2F2F2" stroke="#B3B3B3" stroke-width="2.79134"/>
<path d="M251.794 228.329V197.934L251.732 197.298L251.556 196.695L251.273 196.132L250.893 195.618L250.427 195.161L249.884 194.769L249.273 194.451L248.603 194.213L247.885 194.064L247.129 194.013L246.372 194.064L245.655 194.213L244.985 194.451L244.374 194.77L243.831 195.162L243.365 195.618L242.985 196.132L242.703 196.695L242.526 197.298L242.465 197.934V201.707L242.554 202.638L242.813 203.522L243.227 204.345L243.783 205.098L244.465 205.767L245.261 206.341L246.156 206.808L247.136 207.156L248.187 207.373L249.295 207.448L248.8 207.456H261.2L260.714 207.448L261.822 207.373L262.873 207.156L263.853 206.808L264.747 206.341L265.543 205.767L266.226 205.098L266.781 204.345L267.195 203.522L267.454 202.638L267.544 201.707V197.934L267.483 197.298L267.306 196.695L267.023 196.132L266.644 195.618L266.178 195.162L265.634 194.77L265.023 194.451L264.354 194.213L263.636 194.064L262.88 194.013L262.123 194.064L261.405 194.213L260.736 194.451L260.125 194.769L259.581 195.161L259.115 195.618L258.736 196.132L258.453 196.695L258.276 197.298L258.215 197.934V228.329" stroke="#B3B3B3" stroke-width="2.23307"/>
<path d="M241.715 226.576H268.286V229.554L268.17 230.762L267.835 231.908L267.298 232.976L266.577 233.952L265.692 234.819L264.66 235.563L263.499 236.169L262.229 236.62L260.866 236.903L259.429 237H250.572L249.135 236.903L247.772 236.62L246.501 236.169L245.341 235.563L244.309 234.819L243.424 233.952L242.703 232.976L242.166 231.908L241.831 230.762L241.715 229.554V226.576Z" fill="#141414" stroke="#141414" stroke-width="1.67481"/>
<path d="M241.715 226.576H268.286V229.554H241.715V226.576Z" fill="#808080" stroke="#808080" stroke-width="1.67481"/>
<path d="M248.653 177.989C255.226 177.989 260.554 182.468 260.554 187.994C260.554 193.52 255.226 197.999 248.653 197.999C242.079 197.999 236.751 193.52 236.751 187.994C236.751 182.468 242.079 177.989 248.653 177.989Z" fill="white" fill-opacity="0.3"/>
<path d="M227 234V256.018H283.25V234" stroke="black" stroke-width="2"/>
<rect x="234" y="246.734" width="43.027" height="20" rx="5" fill="black"/>
<path d="M248.861 263.734V260.894H241.981V257.934L246.821 249.734H251.421V258.614H253.741V260.894H251.421V263.734H248.861ZM244.421 258.614H248.861V251.374H248.501L244.421 258.294V258.614ZM258.096 263.734L254.536 249.734H257.256L260.216 262.034H260.496L263.456 249.734H266.176L262.616 263.734H258.096Z" fill="white"/>
<path d="M74.8572 268.39L74.9136 267.365L75.0782 266.364L75.3436 265.391L75.7028 264.449L76.1484 263.54L76.6733 262.67L77.2702 261.84L77.932 261.054L78.6514 260.316L79.4211 259.628L81.6238 257.618L83.6535 255.413L85.4964 253.038L87.1386 250.517L88.5662 247.874L89.7653 245.133L90.7222 242.317L91.4228 239.451L91.8534 236.559L92 233.665L91.6074 229.016L90.4706 224.605L88.6515 220.492L86.2117 216.736L83.2132 213.396L79.7176 210.531L75.7867 208.2L71.4823 206.461L66.8662 205.375L62 205L57.1338 205.375L52.5177 206.461L48.2133 208.2L44.2824 210.531L40.7868 213.396L37.7883 216.736L35.3485 220.492L33.5294 224.605L32.3927 229.016L32 233.665L32.1466 236.559L32.5772 239.451L33.2778 242.317L34.2347 245.133L35.4338 247.874L36.8614 250.517L38.5036 253.038L40.3465 255.413L42.3762 257.618L44.5789 259.628L45.3486 260.316L46.068 261.054L46.7298 261.84L47.3267 262.67L47.8516 263.54L48.2972 264.449L48.6564 265.391L48.9218 266.364L49.0864 267.365L49.1429 268.39L49.2381 269.578L49.5137 270.704L49.9548 271.754L50.5463 272.714L51.2733 273.567L52.1209 274.298L53.074 274.894L54.1176 275.337L55.2369 275.615L56.4167 275.711H67.5833L68.7632 275.615L69.8824 275.337L70.926 274.894L71.8791 274.298L72.7267 273.567L73.4537 272.714L74.0453 271.754L74.4863 270.704L74.7619 269.578L74.8572 268.39Z" fill="#F2F2F2" stroke="#B3B3B3" stroke-width="2.78497"/>
<path d="M58.8972 269.426V237.799L58.8157 236.782L58.5797 235.817L58.202 234.918L57.6955 234.097L57.073 233.366L56.3472 232.74L55.5311 232.23L54.6375 231.85L53.6791 231.613L52.6688 231.531L52.1776 231.531L51.247 231.606L50.3643 231.825L49.5412 232.175L48.7896 232.645L48.1211 233.222L47.5477 233.895L47.0812 234.651L46.7334 235.479L46.516 236.368L46.4409 237.304L46.516 238.241L46.7334 239.129L47.0812 239.958L47.5478 240.714L48.1212 241.387L48.7896 241.964L49.5413 242.434L50.3644 242.784L51.2472 243.003L52.1777 243.078L53.0503 243.078L52.9917 243.086H71.0111L70.9583 243.078L71.8308 243.078L72.7614 243.003L73.6441 242.784L74.4672 242.434L75.2189 241.964L75.8874 241.387L76.4608 240.714L76.9273 239.958L77.2752 239.129L77.4926 238.241L77.5676 237.304L77.4926 236.368L77.2752 235.479L76.9273 234.651L76.4608 233.895L75.8874 233.222L75.219 232.645L74.4673 232.175L73.6442 231.825L72.7615 231.606L71.831 231.531L71.3398 231.531L70.3295 231.613L69.3711 231.85L68.4774 232.23L67.6613 232.74L66.9356 233.366L66.3131 234.097L65.8065 234.918L65.4289 235.817L65.1928 236.782L65.1113 237.799V269.426" stroke="#B3B3B3" stroke-width="2.22798"/>
<path d="M49.1433 267.489H74.8576V270.778L74.7507 272.112L74.4411 273.377L73.9457 274.556L73.2813 275.634L72.4648 276.592L71.5128 277.414L70.4424 278.082L69.2702 278.581L68.0131 278.892L66.688 279H57.313L55.9878 278.892L54.7307 278.581L53.5585 278.082L52.4881 277.414L51.5361 276.592L50.7196 275.634L50.0552 274.556L49.5598 273.377L49.2502 272.112L49.1433 270.778V267.489Z" fill="#141414" stroke="#141414" stroke-width="1.67098"/>
<path d="M49.1433 267.493H74.8576V270.782H49.1433V267.493Z" fill="#808080" stroke="#808080" stroke-width="1.67098"/>
<path d="M35.2167 274.266V296.284H91.4667V274.266" stroke="black" stroke-width="2"/>
<rect x="41.2167" y="287" width="43.027" height="20" rx="5" fill="black"/>
<path d="M55.0311 304.28C53.9777 304.28 53.0444 304.093 52.231 303.72C51.4177 303.347 50.7777 302.813 50.311 302.12C49.8577 301.413 49.631 300.58 49.631 299.62V299.26H52.191V299.54C52.191 300.287 52.451 300.887 52.971 301.34C53.491 301.78 54.1777 302 55.0311 302C55.8977 302 56.5644 301.793 57.0311 301.38C57.5111 300.967 57.7511 300.447 57.7511 299.82V299.62C57.7511 299.193 57.6444 298.847 57.4311 298.58C57.2177 298.313 56.9311 298.12 56.5711 298C56.211 297.867 55.8044 297.8 55.3511 297.8H52.551V295L57.0711 292.6V292.28H49.991V290H59.9111V293.4L55.6911 295.64V295.96H56.4311C57.0577 295.96 57.6644 296.087 58.2511 296.34C58.8511 296.593 59.3444 296.987 59.7311 297.52C60.1177 298.04 60.3111 298.72 60.3111 299.56V299.8C60.3111 300.707 60.0911 301.5 59.6511 302.18C59.2111 302.847 58.5911 303.367 57.7911 303.74C57.0044 304.1 56.0844 304.28 55.0311 304.28ZM65.039 304L61.479 290H64.199L67.159 302.3H67.439L70.399 290H73.119L69.559 304H65.039Z" fill="white"/>
</svg>
