<svg width="561" height="395" viewBox="0 0 561 395" fill="none" xmlns="http://www.w3.org/2000/svg">
<mask id="mask0_161_434" style="mask-type:luminance" maskUnits="userSpaceOnUse" x="20" y="60" width="540" height="300">
<path d="M20 60H560V195V360H20V196.5V60Z" fill="white"/>
</mask>
<g mask="url(#mask0_161_434)">
<path d="M20 196.5L20.0028 197.5L560.003 196L560 195L559.997 194L19.9972 195.5L20 196.5ZM20 60V58H18V60H20ZM560 60H562V58H560V60ZM560 360V362H562V360H560ZM20 360H18V362H20V360ZM20 60V62H560V60V58H20V60ZM560 360V358H20V360V362H560V360ZM20 360H22V196.5H20H18V360H20ZM20 196.5H22V60H20H18V196.5H20ZM560 60H558V195H560H562V60H560ZM560 195H558V360H560H562V195H560Z" fill="black"/>
</g>
<path d="M320.641 84.9893H242.576C239.496 84.9893 237 82.3036 237 78.9907V42.9986C237 39.6857 239.496 37 242.576 37H320.641C323.721 37 326.217 39.6857 326.217 42.9986V78.9907C326.217 82.3036 323.721 84.9893 320.641 84.9893Z" fill="#CE6809"/>
<path d="M237 84.2387H295.549V37.749H237V84.2387Z" fill="#333333"/>
<path d="M295.549 54.9953H326.217V42.998H295.549V54.9953Z" fill="#E77A16"/>
<path d="M237 55.7411H295.549V43.7438H237V55.7411Z" fill="#4C4C4C"/>
<path d="M334.212 73.1125H328.636C327.096 73.1125 325.848 71.7696 325.848 70.1132V52.1171C325.848 50.4607 327.096 49.1178 328.636 49.1178H334.212C335.752 49.1178 337 50.4607 337 52.1171V70.1132C337 71.7696 335.752 73.1125 334.212 73.1125Z" fill="#333333"/>
<path d="M332.818 57.8118H327.242C326.472 57.8118 325.848 57.1403 325.848 56.3121V53.3128C325.848 52.4845 326.472 51.8131 327.242 51.8131H332.818C333.588 51.8131 334.212 52.4845 334.212 53.3128V56.3121C334.212 57.1403 333.588 57.8118 332.818 57.8118Z" fill="#4C4C4C"/>
<path d="M320.641 85H242.576C239.496 85 237 82.3143 237 79.0013V43.0093C237 39.6964 239.496 37.0107 242.576 37.0107H320.641C323.721 37.0107 326.217 39.6964 326.217 43.0093V79.0013C326.217 82.3143 323.721 85 320.641 85Z" stroke="#333333" stroke-width="2.78497"/>
<path d="M352.111 62.207L351.926 21.8669L220.928 22.4698L221.114 62.8099" stroke="black" stroke-width="2"/>
<rect x="267" y="9" width="40" height="20" rx="5" fill="black"/>
<path d="M279.322 26.28C278.256 26.28 277.309 26.12 276.482 25.8C275.669 25.48 275.029 25.02 274.562 24.42C274.109 23.8067 273.882 23.0867 273.882 22.26V22.02C273.882 21.38 273.996 20.8533 274.222 20.44C274.449 20.0133 274.729 19.68 275.062 19.44C275.409 19.2 275.736 19.0333 276.042 18.94V18.58C275.736 18.4733 275.429 18.3 275.122 18.06C274.816 17.82 274.562 17.5 274.362 17.1C274.176 16.7 274.082 16.22 274.082 15.66V15.42C274.082 14.6867 274.296 14.0467 274.722 13.5C275.162 12.94 275.776 12.5067 276.562 12.2C277.349 11.88 278.269 11.72 279.322 11.72C280.376 11.72 281.296 11.88 282.082 12.2C282.869 12.5067 283.476 12.94 283.902 13.5C284.342 14.0467 284.562 14.6867 284.562 15.42V15.66C284.562 16.22 284.462 16.7 284.262 17.1C284.076 17.5 283.829 17.82 283.522 18.06C283.229 18.3 282.922 18.4733 282.602 18.58V18.94C282.922 19.0333 283.249 19.2 283.582 19.44C283.916 19.68 284.196 20.0133 284.422 20.44C284.649 20.8533 284.762 21.38 284.762 22.02V22.26C284.762 23.0867 284.529 23.8067 284.062 24.42C283.609 25.02 282.969 25.48 282.142 25.8C281.329 26.12 280.389 26.28 279.322 26.28ZM279.322 24C280.242 24 280.949 23.8267 281.442 23.48C281.949 23.12 282.202 22.6467 282.202 22.06V21.9C282.202 21.3133 281.956 20.8467 281.462 20.5C280.982 20.14 280.269 19.96 279.322 19.96C278.389 19.96 277.676 20.14 277.182 20.5C276.689 20.8467 276.442 21.3133 276.442 21.9V22.06C276.442 22.6467 276.689 23.12 277.182 23.48C277.689 23.8267 278.402 24 279.322 24ZM279.322 17.68C280.176 17.68 280.836 17.5267 281.302 17.22C281.769 16.9133 282.002 16.48 282.002 15.92V15.76C282.002 15.2 281.762 14.7667 281.282 14.46C280.802 14.1533 280.149 14 279.322 14C278.496 14 277.842 14.1533 277.362 14.46C276.882 14.7667 276.642 15.2 276.642 15.76V15.92C276.642 16.48 276.876 16.9133 277.342 17.22C277.809 17.5267 278.469 17.68 279.322 17.68ZM289.234 26L285.674 12H288.394L291.354 24.3H291.634L294.594 12H297.314L293.754 26H289.234Z" fill="white"/>
<circle cx="86" cy="194" r="21" fill="#463B3B"/>
<path d="M80.7047 201V198.16H73.8247V195.2L78.6647 187H83.2647V195.88H85.5847V198.16H83.2647V201H80.7047ZM76.2647 195.88H80.7047V188.64H80.3447L76.2647 195.56V195.88ZM86.3795 201L90.0595 187H94.6595L98.3395 201H95.6195L94.8595 197.92H89.8595L89.0995 201H86.3795ZM90.4795 195.48H94.2395L92.5395 188.66H92.1795L90.4795 195.48Z" fill="white"/>
<circle cx="89" cy="358" r="21" fill="#463B3B"/>
<path d="M83.226 365.28C82.1327 365.28 81.186 365.087 80.386 364.7C79.5993 364.313 78.9927 363.767 78.566 363.06C78.1393 362.353 77.926 361.533 77.926 360.6V360.4H80.526V360.58C80.526 361.247 80.746 361.82 81.186 362.3C81.6393 362.767 82.306 363 83.186 363C84.066 363 84.7393 362.767 85.206 362.3C85.686 361.82 85.926 361.2 85.926 360.44V360.24C85.926 359.493 85.686 358.9 85.206 358.46C84.7393 358.02 84.1527 357.8 83.446 357.8C83.0593 357.8 82.7393 357.853 82.486 357.96C82.2327 358.067 82.026 358.2 81.866 358.36C81.706 358.52 81.5727 358.68 81.466 358.84H78.366V351H87.926V353.32H80.926V356.74H81.286C81.4193 356.567 81.5993 356.4 81.826 356.24C82.0527 356.08 82.346 355.947 82.706 355.84C83.066 355.733 83.4927 355.68 83.986 355.68C84.8127 355.68 85.566 355.853 86.246 356.2C86.926 356.547 87.466 357.06 87.866 357.74C88.2793 358.407 88.486 359.233 88.486 360.22V360.46C88.486 361.447 88.2727 362.3 87.846 363.02C87.4327 363.74 86.8327 364.3 86.046 364.7C85.2593 365.087 84.3193 365.28 83.226 365.28ZM89.5182 365L93.1982 351H97.7982L101.478 365H98.7582L97.9982 361.92H92.9982L92.2382 365H89.5182ZM93.6182 359.48H97.3782L95.6782 352.66H95.3182L93.6182 359.48Z" fill="white"/>
<circle cx="21" cy="102" r="21" fill="#463B3B"/>
<path d="M14.4805 109.28C13.4405 109.28 12.5338 109.107 11.7605 108.76C11.0005 108.413 10.4071 107.913 9.98047 107.26C9.56714 106.607 9.36047 105.827 9.36047 104.92H11.9605C11.9605 105.48 12.1538 105.967 12.5405 106.38C12.9405 106.793 13.5871 107 14.4805 107C15.3871 107 16.0805 106.767 16.5605 106.3C17.0405 105.82 17.2805 105.173 17.2805 104.36V102.92H16.9205C16.6938 103.187 16.3471 103.44 15.8805 103.68C15.4271 103.92 14.7471 104.04 13.8405 104.04C13.0405 104.04 12.2938 103.867 11.6005 103.52C10.9071 103.173 10.3471 102.673 9.92047 102.02C9.4938 101.353 9.28047 100.553 9.28047 99.62V99.38C9.28047 98.4467 9.50047 97.6333 9.94047 96.94C10.3805 96.2467 11.0005 95.7067 11.8005 95.32C12.6005 94.92 13.5338 94.72 14.6005 94.72C15.6671 94.72 16.5938 94.92 17.3805 95.32C18.1671 95.72 18.7738 96.2733 19.2005 96.98C19.6271 97.6867 19.8405 98.5 19.8405 99.42V104.2C19.8405 105.333 19.6071 106.28 19.1405 107.04C18.6871 107.787 18.0538 108.347 17.2405 108.72C16.4405 109.093 15.5205 109.28 14.4805 109.28ZM14.5605 102C15.1205 102 15.6005 101.9 16.0005 101.7C16.4138 101.5 16.7271 101.22 16.9405 100.86C17.1671 100.5 17.2805 100.073 17.2805 99.58V99.42C17.2805 98.6733 17.0338 98.0867 16.5405 97.66C16.0605 97.22 15.4005 97 14.5605 97C13.7205 97 13.0538 97.22 12.5605 97.66C12.0805 98.0867 11.8405 98.6733 11.8405 99.42V99.58C11.8405 100.073 11.9471 100.5 12.1605 100.86C12.3871 101.22 12.7071 101.5 13.1205 101.7C13.5338 101.9 14.0138 102 14.5605 102ZM21.2038 109L24.8838 95H29.4838L33.1638 109H30.4438L29.6838 105.92H24.6838L23.9238 109H21.2038ZM25.3038 103.48H29.0638L27.3638 96.66H27.0038L25.3038 103.48Z" fill="white"/>
<path d="M443.154 294L441.507 294.135L439.944 294.524L438.488 295.148L437.157 295.985L435.974 297.013L434.959 298.211L434.133 299.559L433.518 301.035L433.133 302.618L433 304.286V324.858L433.135 327.242L433.53 329.546L434.169 331.755L435.039 333.853L436.123 335.825L437.408 337.657L438.878 339.333L440.517 340.838L442.312 342.157L444.248 343.275L445.629 344.03L446.971 344.885L448.251 345.837L449.441 346.882L450.517 348.018L451.455 349.242L452.228 350.549L452.811 351.937L453.179 353.402L453.308 354.942L453.406 356.18L453.692 357.354L454.149 358.449L454.761 359.449L455.514 360.339L456.392 361.101L457.379 361.722L458.46 362.185L459.619 362.474L460.841 362.574H471.159L472.381 362.474L473.54 362.185L474.621 361.722L475.608 361.101L476.486 360.339L477.239 359.449L477.851 358.449L478.308 357.354L478.594 356.18L478.692 354.942L478.821 353.402L479.189 351.937L479.772 350.549L480.545 349.242L481.483 348.018L482.559 346.882L483.749 345.837L485.029 344.885L486.371 344.03L487.752 343.275L489.688 342.157L491.483 340.838L493.122 339.333L494.592 337.657L495.877 335.825L496.961 333.853L497.831 331.755L498.47 329.546L498.865 327.242L499 324.858V304.286L498.867 302.618L498.482 301.035L497.867 299.559L497.041 298.211L496.026 297.013L494.843 295.985L493.512 295.148L492.056 294.524L490.493 294.135L488.846 294H443.154Z" fill="#F2F2F2" stroke="#B3B3B3" stroke-width="2.78497"/>
<path d="M462.937 355.016V322.937L462.864 322.011L462.65 321.132L462.308 320.312L461.849 319.563L461.286 318.898L460.628 318.327L459.889 317.862L459.08 317.516L458.213 317.299L457.298 317.224L452.352 317.225L451.525 317.292L450.741 317.488L450.01 317.801L449.342 318.221L448.749 318.737L448.239 319.338L447.825 320.014L447.516 320.755L447.323 321.549L447.256 322.387L447.323 323.224L447.516 324.018L447.825 324.759L448.239 325.435L448.749 326.037L449.342 326.553L450.01 326.972L450.741 327.286L451.525 327.481L452.352 327.549L457.165 327.549L457.108 327.557H474.896L474.844 327.549L479.657 327.549L480.484 327.481L481.268 327.286L481.999 326.972L482.667 326.553L483.261 326.037L483.77 325.435L484.184 324.759L484.493 324.018L484.686 323.224L484.753 322.387L484.686 321.549L484.493 320.755L484.184 320.014L483.77 319.338L483.261 318.737L482.667 318.221L481.999 317.801L481.268 317.488L480.484 317.292L479.658 317.225L474.711 317.224L473.797 317.299L472.929 317.516L472.12 317.862L471.381 318.327L470.724 318.898L470.16 319.563L469.701 320.312L469.359 321.132L469.146 322.011L469.072 322.937V355.016" stroke="#B3B3B3" stroke-width="2.22798"/>
<path d="M453.308 354.001H478.692V357.43H453.308V354.001Z" fill="#808080" stroke="#808080" stroke-width="1.67098"/>
<path d="M453.308 354H478.692V357.428L478.582 358.819L478.261 360.138L477.748 361.367L477.06 362.491L476.214 363.489L475.228 364.346L474.119 365.043L472.905 365.563L471.603 365.888L470.231 366H461.769L460.397 365.888L459.095 365.563L457.881 365.043L456.772 364.346L455.786 363.489L454.94 362.491L454.252 361.367L453.739 360.138L453.418 358.819L453.308 357.428V354Z" fill="#141414" stroke="#141414" stroke-width="1.67098"/>
<path d="M442 358V380.018H498.25V358" stroke="black" stroke-width="2"/>
<rect x="448" y="370.734" width="43.027" height="20" rx="5" fill="black"/>
<path d="M461.882 388.014C460.789 388.014 459.842 387.821 459.042 387.434C458.256 387.047 457.649 386.501 457.222 385.794C456.796 385.087 456.582 384.267 456.582 383.334V383.134H459.182V383.314C459.182 383.981 459.402 384.554 459.842 385.034C460.296 385.501 460.962 385.734 461.842 385.734C462.722 385.734 463.396 385.501 463.862 385.034C464.342 384.554 464.582 383.934 464.582 383.174V382.974C464.582 382.227 464.342 381.634 463.862 381.194C463.396 380.754 462.809 380.534 462.102 380.534C461.716 380.534 461.396 380.587 461.142 380.694C460.889 380.801 460.682 380.934 460.522 381.094C460.362 381.254 460.229 381.414 460.122 381.574H457.022V373.734H466.582V376.054H459.582V379.474H459.942C460.076 379.301 460.256 379.134 460.482 378.974C460.709 378.814 461.002 378.681 461.362 378.574C461.722 378.467 462.149 378.414 462.642 378.414C463.469 378.414 464.222 378.587 464.902 378.934C465.582 379.281 466.122 379.794 466.522 380.474C466.936 381.141 467.142 381.967 467.142 382.954V383.194C467.142 384.181 466.929 385.034 466.502 385.754C466.089 386.474 465.489 387.034 464.702 387.434C463.916 387.821 462.976 388.014 461.882 388.014ZM471.734 387.734L468.174 373.734H470.894L473.854 386.034H474.134L477.094 373.734H479.814L476.254 387.734H471.734Z" fill="white"/>
<path d="M183.154 291L181.507 291.135L179.944 291.524L178.488 292.148L177.157 292.985L175.974 294.013L174.959 295.211L174.133 296.559L173.518 298.035L173.133 299.618L173 301.286V321.858L173.135 324.242L173.53 326.546L174.169 328.755L175.039 330.853L176.123 332.825L177.408 334.657L178.878 336.333L180.517 337.838L182.312 339.157L184.248 340.275L185.629 341.03L186.971 341.885L188.251 342.837L189.441 343.882L190.517 345.018L191.455 346.242L192.228 347.549L192.811 348.937L193.179 350.402L193.308 351.942L193.406 353.18L193.692 354.354L194.149 355.449L194.761 356.449L195.514 357.339L196.392 358.101L197.379 358.722L198.46 359.185L199.619 359.474L200.841 359.574H211.159L212.381 359.474L213.54 359.185L214.621 358.722L215.608 358.101L216.486 357.339L217.239 356.449L217.851 355.449L218.308 354.354L218.594 353.18L218.692 351.942L218.821 350.402L219.189 348.937L219.772 347.549L220.545 346.242L221.483 345.018L222.559 343.882L223.749 342.837L225.029 341.885L226.371 341.03L227.752 340.275L229.688 339.157L231.483 337.838L233.122 336.333L234.592 334.657L235.877 332.825L236.961 330.853L237.831 328.755L238.47 326.546L238.865 324.242L239 321.858V301.286L238.867 299.618L238.482 298.035L237.867 296.559L237.041 295.211L236.026 294.013L234.843 292.985L233.512 292.148L232.056 291.524L230.493 291.135L228.846 291H183.154Z" fill="#F9FEE4" stroke="#C4DE19" stroke-width="2.78497"/>
<path d="M202.937 352.016V319.937L202.864 319.011L202.65 318.132L202.308 317.312L201.849 316.563L201.286 315.898L200.628 315.327L199.889 314.862L199.08 314.516L198.213 314.299L197.298 314.224L192.352 314.225L191.525 314.292L190.741 314.488L190.01 314.801L189.342 315.221L188.749 315.737L188.239 316.338L187.825 317.014L187.516 317.755L187.323 318.549L187.256 319.387L187.323 320.224L187.516 321.018L187.825 321.759L188.239 322.435L188.749 323.037L189.342 323.553L190.01 323.972L190.741 324.286L191.525 324.481L192.352 324.549L197.165 324.549L197.108 324.557H214.896L214.844 324.549L219.657 324.549L220.484 324.481L221.268 324.286L221.999 323.972L222.667 323.553L223.261 323.037L223.77 322.435L224.184 321.759L224.493 321.018L224.686 320.224L224.753 319.387L224.686 318.549L224.493 317.755L224.184 317.014L223.77 316.338L223.261 315.737L222.667 315.221L221.999 314.801L221.268 314.488L220.484 314.292L219.658 314.225L214.711 314.224L213.797 314.299L212.929 314.516L212.12 314.862L211.381 315.327L210.724 315.898L210.16 316.563L209.701 317.312L209.359 318.132L209.146 319.011L209.072 319.937V352.016" stroke="#C4DE19" stroke-width="2.22798"/>
<path d="M193.308 351.001H218.692V354.43H193.308V351.001Z" fill="#C4DE19" stroke="#C4DE19" stroke-width="1.67098"/>
<path d="M193.308 351H218.692V354.428L218.582 355.819L218.261 357.138L217.748 358.367L217.06 359.491L216.214 360.489L215.228 361.346L214.119 362.043L212.905 362.563L211.603 362.888L210.231 363H201.769L200.397 362.888L199.095 362.563L197.881 362.043L196.772 361.346L195.786 360.489L194.94 359.491L194.252 358.367L193.739 357.138L193.418 355.819L193.308 354.428V351Z" fill="#141414" stroke="#141414" stroke-width="1.67098"/>
<path d="M179 359V381.018H235.25V359" stroke="black" stroke-width="2"/>
<rect x="185" y="371.734" width="43.027" height="20" rx="5" fill="black"/>
<path d="M198.814 389.014C197.761 389.014 196.828 388.827 196.014 388.454C195.201 388.081 194.561 387.547 194.094 386.854C193.641 386.147 193.414 385.314 193.414 384.354V383.994H195.974V384.274C195.974 385.021 196.234 385.621 196.754 386.074C197.274 386.514 197.961 386.734 198.814 386.734C199.681 386.734 200.348 386.527 200.814 386.114C201.294 385.701 201.534 385.181 201.534 384.554V384.354C201.534 383.927 201.428 383.581 201.214 383.314C201.001 383.047 200.714 382.854 200.354 382.734C199.994 382.601 199.588 382.534 199.134 382.534H196.334V379.734L200.854 377.334V377.014H193.774V374.734H203.694V378.134L199.474 380.374V380.694H200.214C200.841 380.694 201.448 380.821 202.034 381.074C202.634 381.327 203.128 381.721 203.514 382.254C203.901 382.774 204.094 383.454 204.094 384.294V384.534C204.094 385.441 203.874 386.234 203.434 386.914C202.994 387.581 202.374 388.101 201.574 388.474C200.788 388.834 199.868 389.014 198.814 389.014ZM208.822 388.734L205.262 374.734H207.982L210.942 387.034H211.222L214.182 374.734H216.902L213.342 388.734H208.822Z" fill="white"/>
<path d="M447.217 195.266V217.284H503.467V195.266" stroke="black" stroke-width="2"/>
<rect x="453.217" y="208" width="43.027" height="20" rx="5" fill="black"/>
<path d="M468.078 225V222.16H461.198V219.2L466.038 211H470.638V219.88H472.958V222.16H470.638V225H468.078ZM463.638 219.88H468.078V212.64H467.718L463.638 219.56V219.88ZM477.312 225L473.752 211H476.472L479.432 223.3H479.712L482.672 211H485.392L481.832 225H477.312Z" fill="white"/>
<path d="M486.857 189.39L486.914 188.365L487.078 187.364L487.344 186.391L487.703 185.449L488.148 184.54L488.673 183.67L489.27 182.84L489.932 182.054L490.651 181.316L491.421 180.628L493.624 178.618L495.653 176.413L497.496 174.038L499.139 171.517L500.566 168.874L501.765 166.133L502.722 163.317L503.423 160.451L503.853 157.559L504 154.665L503.607 150.016L502.471 145.605L500.651 141.492L498.212 137.736L495.213 134.396L491.718 131.531L487.787 129.2L483.482 127.461L478.866 126.375L474 126L469.134 126.375L464.518 127.461L460.213 129.2L456.282 131.531L452.787 134.396L449.788 137.736L447.349 141.492L445.529 145.605L444.393 150.016L444 154.665L444.147 157.559L444.577 160.451L445.278 163.317L446.235 166.133L447.434 168.874L448.861 171.517L450.504 174.038L452.347 176.413L454.376 178.618L456.579 180.628L457.349 181.316L458.068 182.054L458.73 182.84L459.327 183.67L459.852 184.54L460.297 185.449L460.656 186.391L460.922 187.364L461.086 188.365L461.143 189.39L461.238 190.578L461.514 191.704L461.955 192.754L462.546 193.714L463.273 194.567L464.121 195.298L465.074 195.894L466.118 196.337L467.237 196.615L468.417 196.711H479.583L480.763 196.615L481.882 196.337L482.926 195.894L483.879 195.298L484.727 194.567L485.454 193.714L486.045 192.754L486.486 191.704L486.762 190.578L486.857 189.39Z" fill="#F2F2F2" stroke="#B3B3B3" stroke-width="2.78497"/>
<path d="M470.897 190.426V158.799L470.816 157.782L470.58 156.818L470.202 155.918L469.695 155.097L469.073 154.367L468.347 153.74L467.531 153.23L466.637 152.85L465.679 152.613L464.669 152.531L464.178 152.531L463.247 152.606L462.364 152.825L461.541 153.175L460.789 153.645L460.121 154.222L459.548 154.895L459.081 155.651L458.733 156.48L458.516 157.368L458.441 158.305L458.516 159.241L458.733 160.129L459.081 160.958L459.548 161.714L460.121 162.387L460.79 162.964L461.541 163.434L462.364 163.784L463.247 164.003L464.178 164.078L465.05 164.078L464.992 164.086H483.011L482.958 164.078L483.831 164.078L484.761 164.003L485.644 163.784L486.467 163.434L487.219 162.964L487.887 162.387L488.461 161.714L488.927 160.958L489.275 160.129L489.492 159.241L489.568 158.305L489.492 157.368L489.275 156.48L488.927 155.651L488.461 154.895L487.887 154.222L487.219 153.645L486.467 153.175L485.644 152.825L484.761 152.606L483.831 152.531L483.34 152.531L482.329 152.613L481.371 152.85L480.477 153.23L479.661 153.74L478.936 154.367L478.313 155.097L477.806 155.918L477.429 156.818L477.193 157.782L477.111 158.799V190.426" stroke="#B3B3B3" stroke-width="2.22798"/>
<path d="M461.143 188.489H486.858V191.778L486.751 193.112L486.441 194.377L485.946 195.556L485.281 196.634L484.465 197.592L483.513 198.414L482.442 199.082L481.27 199.581L480.013 199.892L478.688 200H469.313L467.988 199.892L466.731 199.581L465.558 199.082L464.488 198.414L463.536 197.592L462.72 196.634L462.055 195.556L461.56 194.377L461.25 193.112L461.143 191.778V188.489Z" fill="#141414" stroke="#141414" stroke-width="1.67098"/>
<path d="M461.143 188.493H486.858V191.782H461.143V188.493Z" fill="#808080" stroke="#808080" stroke-width="1.67098"/>
<path d="M216.857 189.39L216.914 188.365L217.078 187.364L217.344 186.391L217.703 185.449L218.148 184.54L218.673 183.67L219.27 182.84L219.932 182.054L220.651 181.316L221.421 180.628L223.624 178.618L225.653 176.413L227.496 174.038L229.139 171.517L230.566 168.874L231.765 166.133L232.722 163.317L233.423 160.451L233.853 157.559L234 154.665L233.607 150.016L232.471 145.605L230.651 141.492L228.212 137.736L225.213 134.396L221.718 131.531L217.787 129.2L213.482 127.461L208.866 126.375L204 126L199.134 126.375L194.518 127.461L190.213 129.2L186.282 131.531L182.787 134.396L179.788 137.736L177.349 141.492L175.529 145.605L174.393 150.016L174 154.665L174.147 157.559L174.577 160.451L175.278 163.317L176.235 166.133L177.434 168.874L178.861 171.517L180.504 174.038L182.347 176.413L184.376 178.618L186.579 180.628L187.349 181.316L188.068 182.054L188.73 182.84L189.327 183.67L189.852 184.54L190.297 185.449L190.656 186.391L190.922 187.364L191.086 188.365L191.143 189.39L191.238 190.578L191.514 191.704L191.955 192.754L192.546 193.714L193.273 194.567L194.121 195.298L195.074 195.894L196.118 196.337L197.237 196.615L198.417 196.711H209.583L210.763 196.615L211.882 196.337L212.926 195.894L213.879 195.298L214.727 194.567L215.454 193.714L216.045 192.754L216.486 191.704L216.762 190.578L216.857 189.39Z" fill="#F2F2F2" stroke="#B3B3B3" stroke-width="2.78497"/>
<path d="M200.897 190.426V158.799L200.816 157.782L200.58 156.818L200.202 155.918L199.695 155.097L199.073 154.367L198.347 153.74L197.531 153.23L196.637 152.85L195.679 152.613L194.669 152.531L194.178 152.531L193.247 152.606L192.364 152.825L191.541 153.175L190.789 153.645L190.121 154.222L189.548 154.895L189.081 155.651L188.733 156.48L188.516 157.368L188.441 158.305L188.516 159.241L188.733 160.129L189.081 160.958L189.548 161.714L190.121 162.387L190.79 162.964L191.541 163.434L192.364 163.784L193.247 164.003L194.178 164.078L195.05 164.078L194.992 164.086H213.011L212.958 164.078L213.831 164.078L214.761 164.003L215.644 163.784L216.467 163.434L217.219 162.964L217.887 162.387L218.461 161.714L218.927 160.958L219.275 160.129L219.492 159.241L219.568 158.305L219.492 157.368L219.275 156.48L218.927 155.651L218.461 154.895L217.887 154.222L217.219 153.645L216.467 153.175L215.644 152.825L214.761 152.606L213.831 152.531L213.34 152.531L212.329 152.613L211.371 152.85L210.477 153.23L209.661 153.74L208.936 154.367L208.313 155.097L207.806 155.918L207.429 156.818L207.193 157.782L207.111 158.799V190.426" stroke="#B3B3B3" stroke-width="2.22798"/>
<path d="M191.143 188.489H216.858V191.778L216.751 193.112L216.441 194.377L215.946 195.556L215.281 196.634L214.465 197.592L213.513 198.414L212.442 199.082L211.27 199.581L210.013 199.892L208.688 200H199.313L197.988 199.892L196.731 199.581L195.558 199.082L194.488 198.414L193.536 197.592L192.72 196.634L192.055 195.556L191.56 194.377L191.25 193.112L191.143 191.778V188.489Z" fill="#141414" stroke="#141414" stroke-width="1.67098"/>
<path d="M191.143 188.493H216.858V191.782H191.143V188.493Z" fill="#808080" stroke="#808080" stroke-width="1.67098"/>
<path d="M177.217 195.266V217.284H233.467V195.266" stroke="black" stroke-width="2"/>
<rect x="183.217" y="208" width="43.027" height="20" rx="5" fill="black"/>
<path d="M198.078 225V222.16H191.198V219.2L196.038 211H200.638V219.88H202.958V222.16H200.638V225H198.078ZM193.638 219.88H198.078V212.64H197.718L193.638 219.56V219.88ZM207.312 225L203.752 211H206.472L209.432 223.3H209.712L212.672 211H215.392L211.832 225H207.312Z" fill="white"/>
</svg>
