<svg width="540" height="276" viewBox="0 0 540 276" fill="none" xmlns="http://www.w3.org/2000/svg">
<rect x="1" y="26.3818" width="538" height="218" stroke="black" stroke-width="2"/>
<path d="M301.713 49.3711H223.648C220.568 49.3711 218.072 46.6854 218.072 43.3724V7.38042C218.072 4.06744 220.568 1.38175 223.648 1.38175H301.713C304.792 1.38175 307.289 4.06744 307.289 7.38042V43.3724C307.289 46.6854 304.792 49.3711 301.713 49.3711Z" fill="#CE6809"/>
<path d="M218.072 48.6206H276.62V2.13093H218.072V48.6206Z" fill="#333333"/>
<path d="M276.621 19.3772H307.289V7.37986H276.621V19.3772Z" fill="#E77A16"/>
<path d="M218.072 20.123H276.62V8.12571H218.072V20.123Z" fill="#4C4C4C"/>
<path d="M315.283 37.4944H309.707C308.168 37.4944 306.919 36.1515 306.919 34.4951V16.499C306.919 14.8426 308.168 13.4997 309.707 13.4997H315.283C316.823 13.4997 318.071 14.8426 318.071 16.499V34.4951C318.071 36.1515 316.823 37.4944 315.283 37.4944Z" fill="#333333"/>
<path d="M313.889 22.1936H308.313C307.543 22.1936 306.919 21.5222 306.919 20.6939V17.6946C306.919 16.8664 307.543 16.1949 308.313 16.1949H313.889C314.659 16.1949 315.283 16.8664 315.283 17.6946V20.6939C315.283 21.5222 314.659 22.1936 313.889 22.1936Z" fill="#4C4C4C"/>
<path d="M301.713 49.3818H223.648C220.568 49.3818 218.072 46.6961 218.072 43.3832V7.39116C218.072 4.07819 220.568 1.39249 223.648 1.39249H301.713C304.792 1.39249 307.289 4.07819 307.289 7.39116V43.3832C307.289 46.6961 304.792 49.3818 301.713 49.3818Z" stroke="#333333" stroke-width="2.78497"/>
<path d="M427.662 204.481L426.98 205.374L426.365 206.298L425.819 207.248L425.343 208.222L424.937 209.217L424.602 210.231L424.34 211.261L424.152 212.305L424.038 213.358L424 214.42L424.118 216.296L424.463 218.115L425.023 219.868L425.787 221.542L426.743 223.13L427.878 224.62L429.181 226.003L430.639 227.269L432.241 228.407L433.974 229.407L435.179 230.072L436.341 230.803L437.44 231.599L438.456 232.457L439.369 233.374L440.161 234.348L440.811 235.378L441.3 236.461L441.607 237.593L441.714 238.774L441.817 239.85L442.116 240.87L442.595 241.821L443.236 242.689L444.024 243.462L444.943 244.124L445.976 244.664L447.108 245.066L448.321 245.317L449.6 245.404H460.4L461.679 245.317L462.892 245.066L464.024 244.664L465.057 244.124L465.976 243.462L466.764 242.689L467.405 241.821L467.884 240.87L468.182 239.85L468.286 238.774L468.393 237.593L468.7 236.461L469.189 235.378L469.839 234.348L470.631 233.374L471.544 232.457L472.56 231.599L473.659 230.803L474.821 230.072L476.026 229.407L477.759 228.407L479.361 227.269L480.819 226.003L482.122 224.62L483.257 223.13L484.213 221.542L484.977 219.868L485.537 218.115L485.882 216.296L486 214.42L485.962 213.358L485.848 212.305L485.66 211.261L485.398 210.231L485.063 209.217L484.657 208.222L484.181 207.248L483.635 206.298L483.02 205.374L482.338 204.481L459.384 176.324L458.682 175.625L457.864 175.081L456.958 174.693L455.994 174.46L455 174.382L454.006 174.46L453.042 174.693L452.136 175.081L451.318 175.625L450.616 176.324L427.662 204.481Z" fill="#F2F2F2" stroke="#B3B3B3" stroke-width="2.79134"/>
<path d="M451.794 239.711V209.316L451.733 208.68L451.556 208.076L451.273 207.514L450.894 207L450.427 206.543L449.884 206.151L449.273 205.832L448.603 205.595L447.886 205.446L447.129 205.395L446.372 205.446L445.655 205.595L444.986 205.833L444.374 206.151L443.831 206.543L443.365 207L442.985 207.514L442.703 208.077L442.526 208.68L442.465 209.316V213.089L442.554 214.02L442.813 214.904L443.227 215.727L443.783 216.48L444.465 217.149L445.261 217.722L446.156 218.189L447.136 218.538L448.187 218.755L449.295 218.83L448.8 218.838H461.2L460.714 218.83L461.822 218.755L462.873 218.538L463.853 218.189L464.748 217.722L465.543 217.149L466.226 216.48L466.781 215.727L467.196 214.904L467.454 214.02L467.544 213.089V209.316L467.483 208.68L467.306 208.077L467.023 207.514L466.644 207L466.178 206.543L465.634 206.151L465.023 205.833L464.354 205.595L463.636 205.446L462.88 205.395L462.123 205.446L461.405 205.595L460.736 205.832L460.125 206.151L459.581 206.543L459.115 207L458.736 207.514L458.453 208.076L458.276 208.68L458.215 209.316V239.711" stroke="#B3B3B3" stroke-width="2.23307"/>
<path d="M441.715 237.958H468.286V240.936L468.17 242.144L467.835 243.29L467.298 244.358L466.577 245.333L465.692 246.201L464.66 246.945L463.499 247.551L462.229 248.002L460.866 248.284L459.429 248.382H450.572L449.135 248.284L447.772 248.002L446.501 247.551L445.341 246.945L444.309 246.201L443.424 245.333L442.703 244.358L442.166 243.29L441.831 242.144L441.715 240.936V237.958Z" fill="#141414" stroke="#141414" stroke-width="1.67481"/>
<path d="M441.715 237.958H468.286V240.936H441.715V237.958Z" fill="#808080" stroke="#808080" stroke-width="1.67481"/>
<path d="M448.653 189.371C455.226 189.371 460.554 193.85 460.554 199.376C460.554 204.901 455.226 209.381 448.653 209.381C442.079 209.381 436.751 204.901 436.751 199.376C436.751 193.85 442.079 189.371 448.653 189.371Z" fill="white" fill-opacity="0.3"/>
<rect x="434" y="252.382" width="43.027" height="20" rx="5" fill="black"/>
<path d="M453.082 269.382V266.842H456.102C455.476 266.455 454.942 265.989 454.502 265.442C454.076 264.882 453.749 264.255 453.522 263.562C453.309 262.855 453.202 262.089 453.202 261.262C453.202 260.049 453.476 258.962 454.022 258.002C454.582 257.042 455.369 256.282 456.382 255.722C457.409 255.162 458.616 254.882 460.002 254.882C461.402 254.882 462.609 255.162 463.622 255.722C464.636 256.282 465.416 257.049 465.962 258.022C466.522 258.982 466.802 260.069 466.802 261.282C466.802 262.109 466.689 262.869 466.462 263.562C466.249 264.255 465.922 264.882 465.482 265.442C465.042 265.989 464.502 266.455 463.862 266.842H466.922V269.382H461.042V266.662C461.776 266.315 462.329 265.875 462.702 265.342C463.089 264.795 463.349 264.209 463.482 263.582C463.616 262.942 463.682 262.309 463.682 261.682C463.682 260.789 463.529 260.029 463.222 259.402C462.929 258.762 462.509 258.269 461.962 257.922C461.416 257.575 460.762 257.402 460.002 257.402C459.242 257.402 458.582 257.575 458.022 257.922C457.476 258.269 457.056 258.762 456.762 259.402C456.469 260.042 456.322 260.809 456.322 261.702C456.322 262.329 456.402 262.955 456.562 263.582C456.722 264.209 456.989 264.789 457.362 265.322C457.749 265.855 458.269 266.302 458.922 266.662V269.382H453.082Z" fill="white"/>
<path d="M446.058 269.662C444.992 269.662 444.065 269.462 443.278 269.062C442.492 268.662 441.885 268.109 441.458 267.402C441.032 266.695 440.818 265.882 440.818 264.962V260.182C440.818 259.049 441.045 258.109 441.498 257.362C441.965 256.602 442.598 256.035 443.398 255.662C444.212 255.289 445.138 255.102 446.178 255.102C447.218 255.102 448.118 255.275 448.878 255.622C449.652 255.969 450.245 256.469 450.658 257.122C451.085 257.775 451.298 258.555 451.298 259.462H448.698C448.698 258.902 448.505 258.415 448.118 258.002C447.732 257.589 447.085 257.382 446.178 257.382C445.285 257.382 444.592 257.615 444.098 258.082C443.618 258.549 443.378 259.195 443.378 260.022V261.462H443.738C443.965 261.195 444.312 260.942 444.778 260.702C445.245 260.462 445.925 260.342 446.818 260.342C447.632 260.342 448.378 260.515 449.058 260.862C449.752 261.209 450.312 261.715 450.738 262.382C451.165 263.035 451.378 263.829 451.378 264.762V265.002C451.378 265.922 451.158 266.735 450.718 267.442C450.278 268.135 449.658 268.682 448.858 269.082C448.058 269.469 447.125 269.662 446.058 269.662ZM446.098 267.382C446.938 267.382 447.598 267.162 448.078 266.722C448.572 266.282 448.818 265.695 448.818 264.962V264.802C448.818 264.309 448.705 263.882 448.478 263.522C448.265 263.162 447.952 262.882 447.538 262.682C447.138 262.482 446.658 262.382 446.098 262.382C445.552 262.382 445.072 262.482 444.658 262.682C444.245 262.882 443.925 263.162 443.698 263.522C443.485 263.882 443.378 264.309 443.378 264.802V264.962C443.378 265.695 443.618 266.282 444.098 266.722C444.592 267.162 445.258 267.382 446.098 267.382Z" fill="white"/>
<path d="M246.154 177.382L244.507 177.517L242.944 177.906L241.488 178.53L240.157 179.367L238.974 180.395L237.959 181.593L237.133 182.941L236.518 184.417L236.133 186L236 187.668V208.24L236.135 210.624L236.53 212.928L237.169 215.137L238.039 217.235L239.123 219.207L240.408 221.039L241.878 222.715L243.517 224.22L245.312 225.539L247.248 226.657L248.629 227.412L249.971 228.267L251.251 229.219L252.441 230.264L253.517 231.4L254.455 232.624L255.228 233.931L255.811 235.319L256.179 236.784L256.308 238.324L256.406 239.562L256.692 240.736L257.149 241.831L257.761 242.831L258.514 243.72L259.392 244.483L260.379 245.104L261.46 245.567L262.619 245.856L263.841 245.956H274.159L275.381 245.856L276.54 245.567L277.621 245.104L278.608 244.483L279.486 243.72L280.239 242.831L280.851 241.831L281.308 240.736L281.594 239.562L281.692 238.324L281.821 236.784L282.189 235.319L282.772 233.931L283.545 232.624L284.483 231.4L285.559 230.264L286.749 229.219L288.029 228.267L289.371 227.412L290.752 226.657L292.688 225.539L294.483 224.22L296.122 222.715L297.592 221.039L298.877 219.207L299.961 217.235L300.831 215.137L301.47 212.928L301.865 210.624L302 208.24V187.668L301.867 186L301.482 184.417L300.867 182.941L300.041 181.593L299.026 180.395L297.843 179.367L296.512 178.53L295.056 177.906L293.493 177.517L291.846 177.382H246.154Z" fill="#F2F2F2" stroke="#B3B3B3" stroke-width="2.78497"/>
<path d="M265.937 238.398V206.319L265.864 205.392L265.65 204.513L265.308 203.694L264.849 202.945L264.286 202.279L263.628 201.708L262.889 201.244L262.08 200.897L261.213 200.681L260.298 200.606L255.352 200.606L254.525 200.674L253.741 200.87L253.01 201.183L252.342 201.602L251.749 202.118L251.239 202.72L250.825 203.396L250.516 204.137L250.323 204.931L250.256 205.768L250.323 206.606L250.516 207.4L250.825 208.141L251.239 208.817L251.749 209.418L252.342 209.934L253.01 210.354L253.741 210.667L254.525 210.863L255.352 210.93L260.165 210.93L260.108 210.939H277.896L277.844 210.93L282.657 210.93L283.484 210.863L284.268 210.667L284.999 210.354L285.667 209.934L286.261 209.418L286.77 208.817L287.184 208.141L287.493 207.4L287.686 206.606L287.753 205.768L287.686 204.931L287.493 204.137L287.184 203.396L286.77 202.72L286.261 202.118L285.667 201.602L284.999 201.183L284.268 200.87L283.484 200.674L282.658 200.606L277.711 200.606L276.797 200.681L275.929 200.897L275.12 201.244L274.381 201.708L273.724 202.279L273.16 202.945L272.701 203.694L272.359 204.513L272.146 205.392L272.072 206.319V238.398" stroke="#B3B3B3" stroke-width="2.22798"/>
<path d="M256.308 237.383H281.692V240.812H256.308V237.383Z" fill="#808080" stroke="#808080" stroke-width="1.67098"/>
<path d="M256.308 237.381H281.692V240.81L281.582 242.2L281.261 243.519L280.748 244.749L280.06 245.872L279.214 246.871L278.228 247.728L277.119 248.425L275.905 248.945L274.603 249.27L273.231 249.382H264.769L263.397 249.27L262.095 248.945L260.881 248.425L259.772 247.728L258.786 246.871L257.94 245.872L257.252 244.749L256.739 243.519L256.418 242.2L256.308 240.81V237.381Z" fill="#141414" stroke="#141414" stroke-width="1.67098"/>
<rect x="249" y="255.382" width="43.027" height="20" rx="5" fill="black"/>
<path d="M273.082 272.382V269.842H276.102C275.476 269.455 274.942 268.989 274.502 268.442C274.076 267.882 273.749 267.255 273.522 266.562C273.309 265.855 273.202 265.089 273.202 264.262C273.202 263.049 273.476 261.962 274.022 261.002C274.582 260.042 275.369 259.282 276.382 258.722C277.409 258.162 278.616 257.882 280.002 257.882C281.402 257.882 282.609 258.162 283.622 258.722C284.636 259.282 285.416 260.049 285.962 261.022C286.522 261.982 286.802 263.069 286.802 264.282C286.802 265.109 286.689 265.869 286.462 266.562C286.249 267.255 285.922 267.882 285.482 268.442C285.042 268.989 284.502 269.455 283.862 269.842H286.922V272.382H281.042V269.662C281.776 269.315 282.329 268.875 282.702 268.342C283.089 267.795 283.349 267.209 283.482 266.582C283.616 265.942 283.682 265.309 283.682 264.682C283.682 263.789 283.529 263.029 283.222 262.402C282.929 261.762 282.509 261.269 281.962 260.922C281.416 260.575 280.762 260.402 280.002 260.402C279.242 260.402 278.582 260.575 278.022 260.922C277.476 261.269 277.056 261.762 276.762 262.402C276.469 263.042 276.322 263.809 276.322 264.702C276.322 265.329 276.402 265.955 276.562 266.582C276.722 267.209 276.989 267.789 277.362 268.322C277.749 268.855 278.269 269.302 278.922 269.662V272.382H273.082Z" fill="white"/>
<path d="M256.701 272.382V260.262H256.341L254.461 264.702H251.781L254.641 258.382H259.261V272.382H256.701ZM261.424 272.382V270.702C261.424 269.729 261.584 268.922 261.904 268.282C262.224 267.629 262.684 267.095 263.284 266.682C263.897 266.255 264.644 265.909 265.524 265.642L266.864 265.222C267.357 265.062 267.771 264.869 268.104 264.642C268.437 264.402 268.691 264.115 268.864 263.782C269.051 263.449 269.144 263.069 269.144 262.642V262.562C269.144 261.895 268.917 261.369 268.464 260.982C268.011 260.582 267.391 260.382 266.604 260.382C265.831 260.382 265.204 260.595 264.724 261.022C264.257 261.435 264.024 262.035 264.024 262.822V263.182H261.464V262.862C261.464 261.849 261.691 260.989 262.144 260.282C262.597 259.575 263.211 259.035 263.984 258.662C264.771 258.289 265.644 258.102 266.604 258.102C267.564 258.102 268.431 258.289 269.204 258.662C269.977 259.022 270.584 259.535 271.024 260.202C271.477 260.855 271.704 261.629 271.704 262.522V262.722C271.704 263.615 271.517 264.375 271.144 265.002C270.784 265.615 270.291 266.122 269.664 266.522C269.037 266.909 268.324 267.229 267.524 267.482L266.244 267.882C265.671 268.055 265.224 268.249 264.904 268.462C264.584 268.662 264.357 268.889 264.224 269.142C264.104 269.382 264.044 269.675 264.044 270.022V270.102H271.584V272.382H261.424Z" fill="white"/>
<path d="M81.8572 237.772L81.9136 236.747L82.0782 235.746L82.3436 234.773L82.7028 233.831L83.1484 232.922L83.6733 232.052L84.2702 231.222L84.932 230.436L85.6514 229.698L86.4211 229.01L88.6238 226.999L90.6535 224.795L92.4964 222.42L94.1386 219.899L95.5662 217.256L96.7653 214.514L97.7222 211.699L98.4228 208.833L98.8534 205.941L99 203.047L98.6074 198.397L97.4706 193.987L95.6515 189.874L93.2117 186.118L90.2132 182.778L86.7176 179.913L82.7867 177.581L78.4823 175.843L73.8662 174.757L69 174.382L64.1338 174.757L59.5177 175.843L55.2133 177.581L51.2824 179.913L47.7868 182.778L44.7883 186.118L42.3485 189.874L40.5294 193.987L39.3927 198.397L39 203.047L39.1466 205.941L39.5772 208.833L40.2778 211.699L41.2347 214.514L42.4338 217.256L43.8614 219.899L45.5036 222.42L47.3465 224.795L49.3762 226.999L51.5789 229.01L52.3486 229.698L53.068 230.436L53.7298 231.222L54.3267 232.052L54.8516 232.922L55.2972 233.831L55.6564 234.773L55.9218 235.746L56.0864 236.747L56.1429 237.772L56.2381 238.959L56.5137 240.086L56.9548 241.136L57.5463 242.095L58.2733 242.948L59.1209 243.68L60.074 244.275L61.1176 244.719L62.2369 244.997L63.4167 245.093H74.5833L75.7632 244.997L76.8824 244.719L77.926 244.275L78.8791 243.68L79.7267 242.948L80.4537 242.095L81.0453 241.136L81.4863 240.086L81.7619 238.959L81.8572 237.772Z" fill="#F2F2F2" stroke="#B3B3B3" stroke-width="2.78497"/>
<path d="M65.8972 238.808V207.181L65.8157 206.164L65.5797 205.2L65.202 204.3L64.6955 203.479L64.073 202.748L63.3472 202.122L62.5311 201.612L61.6375 201.232L60.6791 200.995L59.6688 200.913L59.1776 200.913L58.247 200.988L57.3643 201.207L56.5412 201.557L55.7896 202.027L55.1211 202.604L54.5477 203.277L54.0812 204.033L53.7334 204.862L53.516 205.75L53.4409 206.686L53.516 207.623L53.7334 208.511L54.0812 209.34L54.5478 210.096L55.1212 210.769L55.7896 211.346L56.5413 211.816L57.3644 212.166L58.2472 212.385L59.1777 212.46L60.0503 212.46L59.9917 212.468H78.0111L77.9583 212.46L78.8308 212.46L79.7614 212.385L80.6441 212.166L81.4672 211.816L82.2189 211.346L82.8874 210.769L83.4608 210.096L83.9273 209.34L84.2752 208.511L84.4926 207.623L84.5676 206.686L84.4926 205.75L84.2752 204.862L83.9273 204.033L83.4608 203.277L82.8874 202.604L82.219 202.027L81.4673 201.557L80.6442 201.207L79.7615 200.988L78.831 200.913L78.3398 200.913L77.3295 200.995L76.3711 201.232L75.4774 201.612L74.6613 202.122L73.9356 202.748L73.3131 203.479L72.8065 204.3L72.4289 205.2L72.1928 206.164L72.1113 207.181V238.808" stroke="#B3B3B3" stroke-width="2.22798"/>
<path d="M56.1433 236.871H81.8576V240.16L81.7507 241.493L81.4411 242.759L80.9457 243.938L80.2813 245.016L79.4648 245.974L78.5128 246.795L77.4424 247.464L76.2702 247.963L75.0131 248.274L73.688 248.382H64.313L62.9878 248.274L61.7307 247.963L60.5585 247.464L59.4881 246.795L58.5361 245.974L57.7196 245.016L57.0552 243.938L56.5598 242.759L56.2502 241.493L56.1433 240.16V236.871Z" fill="#141414" stroke="#141414" stroke-width="1.67098"/>
<path d="M56.1433 236.875H81.8576V240.164H56.1433V236.875Z" fill="#808080" stroke="#808080" stroke-width="1.67098"/>
<rect x="49" y="254.382" width="43.027" height="20" rx="5" fill="black"/>
<path d="M68.0823 271.382V268.842H71.1023C70.4757 268.455 69.9423 267.989 69.5023 267.442C69.0757 266.882 68.749 266.255 68.5223 265.562C68.309 264.855 68.2023 264.089 68.2023 263.262C68.2023 262.049 68.4757 260.962 69.0223 260.002C69.5823 259.042 70.369 258.282 71.3823 257.722C72.409 257.162 73.6157 256.882 75.0023 256.882C76.4023 256.882 77.609 257.162 78.6223 257.722C79.6357 258.282 80.4157 259.049 80.9623 260.022C81.5223 260.982 81.8023 262.069 81.8023 263.282C81.8023 264.109 81.689 264.869 81.4623 265.562C81.249 266.255 80.9223 266.882 80.4823 267.442C80.0423 267.989 79.5023 268.455 78.8623 268.842H81.9223V271.382H76.0423V268.662C76.7757 268.315 77.329 267.875 77.7023 267.342C78.089 266.795 78.349 266.209 78.4823 265.582C78.6157 264.942 78.6823 264.309 78.6823 263.682C78.6823 262.789 78.529 262.029 78.2223 261.402C77.929 260.762 77.509 260.269 76.9623 259.922C76.4157 259.575 75.7623 259.402 75.0023 259.402C74.2423 259.402 73.5823 259.575 73.0223 259.922C72.4757 260.269 72.0557 260.762 71.7623 261.402C71.469 262.042 71.3223 262.809 71.3223 263.702C71.3223 264.329 71.4023 264.955 71.5623 265.582C71.7223 266.209 71.989 266.789 72.3623 267.322C72.749 267.855 73.269 268.302 73.9223 268.662V271.382H68.0823Z" fill="white"/>
<path d="M62.0426 271.382V268.542H55.1626V265.582L60.0026 257.382H64.6026V266.262H66.9226V268.542H64.6026V271.382H62.0426ZM57.6026 266.262H62.0426V259.022H61.6826L57.6026 265.942V266.262Z" fill="white"/>
</svg>
