<svg width="427" height="336" viewBox="0 0 427 336" fill="none" xmlns="http://www.w3.org/2000/svg">
<g id="level-2-question-2">
<path id="wire" d="M401 85V283H30V85H401Z" stroke="black" stroke-width="2"/>
<g id="battery">
<g id="battery_2">
<path id="Vector" d="M257.754 305.989H179.689C176.609 305.989 174.113 303.304 174.113 299.991V263.999C174.113 260.686 176.609 258 179.689 258H257.754C260.833 258 263.33 260.686 263.33 263.999V299.991C263.33 303.304 260.833 305.989 257.754 305.989Z" fill="#CE6809"/>
<path id="Vector_2" d="M174.113 305.239H232.661V258.749H174.113V305.239Z" fill="#333333"/>
<path id="Vector_3" d="M232.662 275.995H263.33V263.998H232.662V275.995Z" fill="#E77A16"/>
<path id="Vector_4" d="M174.113 276.741H232.661V264.744H174.113V276.741Z" fill="#4C4C4C"/>
<path id="Vector_5" d="M271.325 294.112H265.748C264.209 294.112 262.96 292.77 262.96 291.113V273.117C262.96 271.461 264.209 270.118 265.748 270.118H271.325C272.864 270.118 274.113 271.461 274.113 273.117V291.113C274.113 292.77 272.864 294.112 271.325 294.112Z" fill="#333333"/>
<path id="Vector_6" d="M269.931 278.812H264.354C263.585 278.812 262.96 278.14 262.96 277.312V274.313C262.96 273.485 263.585 272.813 264.354 272.813H269.931C270.7 272.813 271.325 273.485 271.325 274.313V277.312C271.325 278.14 270.7 278.812 269.931 278.812Z" fill="#4C4C4C"/>
<path id="Vector_7" d="M257.754 306H179.689C176.609 306 174.113 303.314 174.113 300.001V264.009C174.113 260.696 176.609 258.011 179.689 258.011H257.754C260.833 258.011 263.33 260.696 263.33 264.009V300.001C263.33 303.314 260.833 306 257.754 306Z" stroke="#333333" stroke-width="2.78497"/>
</g>
</g>
<g id="resistnace-2">
<g id="bulb2">
<path id="Vector_8" d="M194.154 129L192.507 129.135L190.944 129.524L189.488 130.148L188.157 130.985L186.974 132.013L185.959 133.211L185.133 134.559L184.518 136.035L184.133 137.618L184 139.286V159.858L184.135 162.242L184.53 164.546L185.169 166.755L186.039 168.853L187.123 170.825L188.408 172.657L189.878 174.333L191.517 175.838L193.312 177.157L195.248 178.275L196.629 179.03L197.971 179.885L199.251 180.837L200.441 181.882L201.517 183.018L202.455 184.242L203.228 185.549L203.811 186.937L204.179 188.402L204.308 189.942L204.406 191.18L204.692 192.354L205.149 193.449L205.761 194.449L206.514 195.339L207.392 196.101L208.379 196.722L209.46 197.185L210.619 197.474L211.841 197.574H222.159L223.381 197.474L224.54 197.185L225.621 196.722L226.608 196.101L227.486 195.339L228.239 194.449L228.851 193.449L229.308 192.354L229.594 191.18L229.692 189.942L229.821 188.402L230.189 186.937L230.772 185.549L231.545 184.242L232.483 183.018L233.559 181.882L234.749 180.837L236.029 179.885L237.371 179.03L238.752 178.275L240.688 177.157L242.483 175.838L244.122 174.333L245.592 172.657L246.877 170.825L247.961 168.853L248.831 166.755L249.47 164.546L249.865 162.242L250 159.858V139.286L249.867 137.618L249.482 136.035L248.867 134.559L248.041 133.211L247.026 132.013L245.843 130.985L244.512 130.148L243.056 129.524L241.493 129.135L239.846 129H194.154Z" fill="#F2F2F2" stroke="#B3B3B3" stroke-width="2.78497"/>
<path id="Vector_9" d="M213.937 190.016V157.937L213.864 157.011L213.65 156.132L213.308 155.312L212.849 154.563L212.286 153.898L211.628 153.327L210.889 152.862L210.08 152.516L209.213 152.299L208.298 152.224L203.352 152.225L202.525 152.292L201.741 152.488L201.01 152.801L200.342 153.221L199.749 153.737L199.239 154.338L198.825 155.014L198.516 155.755L198.323 156.549L198.256 157.387L198.323 158.224L198.516 159.018L198.825 159.759L199.239 160.435L199.749 161.037L200.342 161.553L201.01 161.972L201.741 162.286L202.525 162.481L203.352 162.549L208.165 162.549L208.108 162.557H225.896L225.844 162.549L230.657 162.549L231.484 162.481L232.268 162.286L232.999 161.972L233.667 161.553L234.261 161.037L234.77 160.435L235.184 159.759L235.493 159.018L235.686 158.224L235.753 157.387L235.686 156.549L235.493 155.755L235.184 155.014L234.77 154.338L234.261 153.737L233.667 153.221L232.999 152.801L232.268 152.488L231.484 152.292L230.658 152.225L225.711 152.224L224.797 152.299L223.929 152.516L223.12 152.862L222.381 153.327L221.724 153.898L221.16 154.563L220.701 155.312L220.359 156.132L220.146 157.011L220.072 157.937V190.016" stroke="#B3B3B3" stroke-width="2.22798"/>
<path id="Vector_10" d="M204.308 189.001H229.692V192.43H204.308V189.001Z" fill="#808080" stroke="#808080" stroke-width="1.67098"/>
<path id="Vector_11" d="M204.308 189H229.692V192.428L229.581 193.819L229.261 195.138L228.748 196.367L228.06 197.491L227.214 198.489L226.228 199.346L225.119 200.043L223.905 200.563L222.603 200.888L221.231 201H212.769L211.397 200.888L210.095 200.563L208.881 200.043L207.772 199.346L206.786 198.489L205.94 197.491L205.252 196.367L204.739 195.138L204.418 193.819L204.308 192.428V189Z" fill="#141414" stroke="#141414" stroke-width="1.67098"/>
</g>
<g id="Ohm-Name">
<rect id="Rounded rectangle" x="197" y="207" width="43.027" height="20" rx="5" fill="black"/>
<path id="R2" d="M207.064 224V210H213.144C214.024 210 214.791 210.153 215.444 210.46C216.097 210.767 216.604 211.2 216.964 211.76C217.324 212.32 217.504 212.98 217.504 213.74V213.98C217.504 214.82 217.304 215.5 216.904 216.02C216.504 216.54 216.011 216.92 215.424 217.16V217.52C215.957 217.547 216.371 217.733 216.664 218.08C216.957 218.413 217.104 218.86 217.104 219.42V224H214.464V219.8C214.464 219.48 214.377 219.22 214.204 219.02C214.044 218.82 213.771 218.72 213.384 218.72H209.704V224H207.064ZM209.704 216.32H212.864C213.491 216.32 213.977 216.153 214.324 215.82C214.684 215.473 214.864 215.02 214.864 214.46V214.26C214.864 213.7 214.691 213.253 214.344 212.92C213.997 212.573 213.504 212.4 212.864 212.4H209.704V216.32ZM219.221 224V222.32C219.221 221.347 219.381 220.54 219.701 219.9C220.021 219.247 220.481 218.713 221.081 218.3C221.694 217.873 222.441 217.527 223.321 217.26L224.661 216.84C225.154 216.68 225.568 216.487 225.901 216.26C226.234 216.02 226.488 215.733 226.661 215.4C226.848 215.067 226.941 214.687 226.941 214.26V214.18C226.941 213.513 226.714 212.987 226.261 212.6C225.808 212.2 225.188 212 224.401 212C223.628 212 223.001 212.213 222.521 212.64C222.054 213.053 221.821 213.653 221.821 214.44V214.8H219.261V214.48C219.261 213.467 219.488 212.607 219.941 211.9C220.394 211.193 221.008 210.653 221.781 210.28C222.568 209.907 223.441 209.72 224.401 209.72C225.361 209.72 226.228 209.907 227.001 210.28C227.774 210.64 228.381 211.153 228.821 211.82C229.274 212.473 229.501 213.247 229.501 214.14V214.34C229.501 215.233 229.314 215.993 228.941 216.62C228.581 217.233 228.088 217.74 227.461 218.14C226.834 218.527 226.121 218.847 225.321 219.1L224.041 219.5C223.468 219.673 223.021 219.867 222.701 220.08C222.381 220.28 222.154 220.507 222.021 220.76C221.901 221 221.841 221.293 221.841 221.64V221.72H229.381V224H219.221Z" fill="white"/>
</g>
</g>
<g id="resistance-1">
<g id="bulb">
<g id="frist bulb">
<path id="Vector_12" d="M228.857 78.3901L228.914 77.3651L229.078 76.3643L229.344 75.391L229.703 74.4487L230.148 73.5405L230.673 72.6698L231.27 71.8399L231.932 71.0541L232.651 70.3158L233.421 69.6282L235.624 67.6176L237.653 65.4129L239.496 63.038L241.139 60.517L242.566 57.8739L243.765 55.1325L244.722 52.317L245.423 49.4513L245.853 46.5593L246 43.6652L245.607 39.0155L244.471 34.6048L242.651 30.4919L240.212 26.7359L237.213 23.3959L233.718 20.5307L229.787 18.1996L225.482 16.4614L220.866 15.3752L216 15L211.134 15.3752L206.518 16.4614L202.213 18.1996L198.282 20.5307L194.787 23.3959L191.788 26.7359L189.349 30.4919L187.529 34.6048L186.393 39.0155L186 43.6652L186.147 46.5593L186.577 49.4513L187.278 52.317L188.235 55.1325L189.434 57.8739L190.861 60.517L192.504 63.038L194.347 65.4129L196.376 67.6176L198.579 69.6282L199.349 70.3158L200.068 71.0541L200.73 71.8399L201.327 72.6698L201.852 73.5405L202.297 74.4487L202.656 75.391L202.922 76.3643L203.086 77.3651L203.143 78.3901L203.238 79.5775L203.514 80.704L203.955 81.7543L204.546 82.7135L205.273 83.5665L206.121 84.2982L207.074 84.8936L208.118 85.3375L209.237 85.6149L210.417 85.7107H221.583L222.763 85.6149L223.882 85.3375L224.926 84.8936L225.879 84.2982L226.727 83.5665L227.454 82.7135L228.045 81.7543L228.486 80.704L228.762 79.5775L228.857 78.3901Z" fill="#F2F2F2" stroke="#B3B3B3" stroke-width="2.78497"/>
<path id="Vector_13" d="M212.897 79.4257V47.7989L212.816 46.7821L212.58 45.8176L212.202 44.9182L211.696 44.0969L211.073 43.3665L210.347 42.74L209.531 42.2303L208.637 41.8502L207.679 41.6127L206.669 41.5307L206.178 41.5307L205.247 41.6063L204.364 41.8251L203.541 42.1753L202.79 42.6448L202.121 43.2219L201.548 43.8947L201.081 44.6512L200.733 45.4796L200.516 46.368L200.441 47.3045L200.516 48.241L200.733 49.1295L201.081 49.9579L201.548 50.7144L202.121 51.3872L202.79 51.9643L203.541 52.4338L204.364 52.7839L205.247 53.0027L206.178 53.0783L207.05 53.0783L206.992 53.0864H225.011L224.958 53.0783L225.831 53.0783L226.761 53.0027L227.644 52.7839L228.467 52.4338L229.219 51.9643L229.887 51.3872L230.461 50.7144L230.927 49.9579L231.275 49.1295L231.493 48.241L231.568 47.3045L231.493 46.368L231.275 45.4796L230.927 44.6512L230.461 43.8947L229.887 43.2219L229.219 42.6448L228.467 42.1753L227.644 41.8251L226.762 41.6063L225.831 41.5307L225.34 41.5307L224.329 41.6127L223.371 41.8502L222.477 42.2303L221.661 42.74L220.936 43.3665L220.313 44.0969L219.807 44.9182L219.429 45.8176L219.193 46.7821L219.111 47.7989V79.4257" stroke="#B3B3B3" stroke-width="2.22798"/>
<path id="Vector_14" d="M203.143 77.489H228.858V80.7778L228.751 82.1115L228.441 83.3767L227.946 84.5564L227.281 85.6337L226.465 86.5918L225.513 87.4136L224.442 88.0823L223.27 88.5808L222.013 88.8924L220.688 89H211.313L209.988 88.8924L208.731 88.5808L207.559 88.0823L206.488 87.4136L205.536 86.5918L204.72 85.6337L204.055 84.5564L203.56 83.3767L203.25 82.1115L203.143 80.7778V77.489Z" fill="#141414" stroke="#141414" stroke-width="1.67098"/>
<path id="Vector_15" d="M203.143 77.4932H228.858V80.7821H203.143V77.4932Z" fill="#808080" stroke="#808080" stroke-width="1.67098"/>
</g>
</g>
<g id="Ohm-Name_2">
<rect id="Rounded rectangle_2" x="196" y="95" width="43.027" height="20" rx="5" fill="black"/>
<path id="R1" d="M205.48 112V98H211.56C212.44 98 213.207 98.1533 213.86 98.46C214.513 98.7667 215.02 99.2 215.38 99.76C215.74 100.32 215.92 100.98 215.92 101.74V101.98C215.92 102.82 215.72 103.5 215.32 104.02C214.92 104.54 214.427 104.92 213.84 105.16V105.52C214.373 105.547 214.787 105.733 215.08 106.08C215.373 106.413 215.52 106.86 215.52 107.42V112H212.88V107.8C212.88 107.48 212.793 107.22 212.62 107.02C212.46 106.82 212.187 106.72 211.8 106.72H208.12V112H205.48ZM208.12 104.32H211.28C211.907 104.32 212.393 104.153 212.74 103.82C213.1 103.473 213.28 103.02 213.28 102.46V102.26C213.28 101.7 213.107 101.253 212.76 100.92C212.413 100.573 211.92 100.4 211.28 100.4H208.12V104.32ZM221.957 112V99.88H221.597L219.717 104.32H217.037L219.897 98H224.517V112H221.957Z" fill="white"/>
</g>
</g>
</g>
</svg>
