<svg width="540" height="311" viewBox="0 0 540 311" fill="none" xmlns="http://www.w3.org/2000/svg">
<rect x="1" y="56" width="538" height="218" stroke="black" stroke-width="2"/>
<path d="M301.713 78.9893H223.648C220.568 78.9893 218.072 76.3036 218.072 72.9907V36.9986C218.072 33.6857 220.568 31 223.648 31H301.713C304.792 31 307.289 33.6857 307.289 36.9986V72.9907C307.289 76.3036 304.792 78.9893 301.713 78.9893Z" fill="#CE6809"/>
<path d="M218.072 78.2387H276.62V31.749H218.072V78.2387Z" fill="#333333"/>
<path d="M276.621 48.9953H307.289V36.998H276.621V48.9953Z" fill="#E77A16"/>
<path d="M218.072 49.7411H276.62V37.7438H218.072V49.7411Z" fill="#4C4C4C"/>
<path d="M315.284 67.1125H309.707C308.168 67.1125 306.919 65.7696 306.919 64.1132V46.1171C306.919 44.4607 308.168 43.1178 309.707 43.1178H315.284C316.823 43.1178 318.072 44.4607 318.072 46.1171V64.1132C318.072 65.7696 316.823 67.1125 315.284 67.1125Z" fill="#333333"/>
<path d="M313.89 51.8118H308.313C307.544 51.8118 306.919 51.1403 306.919 50.3121V47.3128C306.919 46.4845 307.544 45.8131 308.313 45.8131H313.89C314.659 45.8131 315.284 46.4845 315.284 47.3128V50.3121C315.284 51.1403 314.659 51.8118 313.89 51.8118Z" fill="#4C4C4C"/>
<path d="M301.713 79H223.648C220.568 79 218.072 76.3143 218.072 73.0013V37.0093C218.072 33.6964 220.568 31.0107 223.648 31.0107H301.713C304.792 31.0107 307.289 33.6964 307.289 37.0093V73.0013C307.289 76.3143 304.792 79 301.713 79Z" stroke="#333333" stroke-width="2.78497"/>
<path d="M431.662 238.099L430.98 238.993L430.365 239.916L429.819 240.866L429.343 241.84L428.937 242.835L428.602 243.85L428.34 244.88L428.152 245.923L428.038 246.976L428 248.038L428.118 249.914L428.463 251.734L429.023 253.486L429.787 255.161L430.743 256.748L431.878 258.239L433.181 259.622L434.639 260.887L436.241 262.025L437.974 263.025L439.179 263.69L440.341 264.421L441.44 265.217L442.456 266.075L443.369 266.992L444.161 267.967L444.811 268.996L445.3 270.079L445.607 271.212L445.714 272.392L445.817 273.468L446.116 274.488L446.595 275.439L447.236 276.308L448.024 277.08L448.943 277.743L449.976 278.282L451.108 278.684L452.321 278.935L453.6 279.022H464.4L465.679 278.935L466.892 278.684L468.024 278.282L469.057 277.743L469.976 277.08L470.764 276.308L471.405 275.439L471.884 274.488L472.182 273.468L472.286 272.392L472.393 271.212L472.7 270.079L473.189 268.996L473.839 267.967L474.631 266.992L475.544 266.075L476.56 265.217L477.659 264.421L478.821 263.69L480.026 263.025L481.759 262.025L483.361 260.887L484.819 259.622L486.122 258.239L487.257 256.748L488.213 255.161L488.977 253.486L489.537 251.734L489.882 249.914L490 248.038L489.962 246.976L489.848 245.923L489.66 244.88L489.398 243.85L489.063 242.835L488.657 241.84L488.181 240.866L487.635 239.916L487.02 238.993L486.338 238.099L463.384 209.942L462.682 209.243L461.864 208.699L460.958 208.311L459.994 208.078L459 208L458.006 208.078L457.042 208.311L456.136 208.699L455.318 209.243L454.616 209.942L431.662 238.099Z" fill="#F2F2F2" stroke="#B3B3B3" stroke-width="2.79134"/>
<path d="M455.794 273.329V242.934L455.732 242.298L455.556 241.695L455.273 241.132L454.893 240.618L454.427 240.161L453.884 239.769L453.273 239.451L452.603 239.213L451.885 239.064L451.129 239.013L450.372 239.064L449.655 239.213L448.985 239.451L448.374 239.77L447.831 240.162L447.365 240.618L446.985 241.132L446.703 241.695L446.526 242.298L446.465 242.934V246.707L446.554 247.638L446.813 248.522L447.227 249.345L447.783 250.098L448.465 250.767L449.261 251.341L450.156 251.808L451.136 252.156L452.187 252.373L453.295 252.448L452.8 252.456H465.2L464.714 252.448L465.822 252.373L466.873 252.156L467.853 251.808L468.747 251.341L469.543 250.767L470.226 250.098L470.781 249.345L471.195 248.522L471.454 247.638L471.544 246.707V242.934L471.483 242.298L471.306 241.695L471.023 241.132L470.644 240.618L470.178 240.162L469.634 239.77L469.023 239.451L468.354 239.213L467.636 239.064L466.88 239.013L466.123 239.064L465.405 239.213L464.736 239.451L464.125 239.769L463.581 240.161L463.115 240.618L462.736 241.132L462.453 241.695L462.276 242.298L462.215 242.934V273.329" stroke="#B3B3B3" stroke-width="2.23307"/>
<path d="M445.715 271.576H472.286V274.554L472.17 275.762L471.835 276.908L471.298 277.976L470.577 278.952L469.692 279.819L468.66 280.563L467.499 281.169L466.229 281.62L464.866 281.903L463.429 282H454.572L453.135 281.903L451.772 281.62L450.501 281.169L449.341 280.563L448.309 279.819L447.424 278.952L446.703 277.976L446.166 276.908L445.831 275.762L445.715 274.554V271.576Z" fill="#141414" stroke="#141414" stroke-width="1.67481"/>
<path d="M445.715 271.576H472.286V274.554H445.715V271.576Z" fill="#808080" stroke="#808080" stroke-width="1.67481"/>
<path d="M452.653 222.989C459.226 222.989 464.554 227.468 464.554 232.994C464.554 238.519 459.226 242.999 452.653 242.999C446.079 242.999 440.751 238.519 440.751 232.994C440.751 227.468 446.079 222.989 452.653 222.989Z" fill="white" fill-opacity="0.3"/>
<rect x="438" y="286" width="43.027" height="20" rx="5" fill="black"/>
<path d="M462.082 303V300.46H465.102C464.476 300.073 463.942 299.607 463.502 299.06C463.076 298.5 462.749 297.873 462.522 297.18C462.309 296.473 462.202 295.707 462.202 294.88C462.202 293.667 462.476 292.58 463.022 291.62C463.582 290.66 464.369 289.9 465.382 289.34C466.409 288.78 467.616 288.5 469.002 288.5C470.402 288.5 471.609 288.78 472.622 289.34C473.636 289.9 474.416 290.667 474.962 291.64C475.522 292.6 475.802 293.687 475.802 294.9C475.802 295.727 475.689 296.487 475.462 297.18C475.249 297.873 474.922 298.5 474.482 299.06C474.042 299.607 473.502 300.073 472.862 300.46H475.922V303H470.042V300.28C470.776 299.933 471.329 299.493 471.702 298.96C472.089 298.413 472.349 297.827 472.482 297.2C472.616 296.56 472.682 295.927 472.682 295.3C472.682 294.407 472.529 293.647 472.222 293.02C471.929 292.38 471.509 291.887 470.962 291.54C470.416 291.193 469.762 291.02 469.002 291.02C468.242 291.02 467.582 291.193 467.022 291.54C466.476 291.887 466.056 292.38 465.762 293.02C465.469 293.66 465.322 294.427 465.322 295.32C465.322 295.947 465.402 296.573 465.562 297.2C465.722 297.827 465.989 298.407 466.362 298.94C466.749 299.473 467.269 299.92 467.922 300.28V303H462.082Z" fill="white"/>
<path d="M445.701 303V290.88H445.341L443.461 295.32H440.781L443.641 289H448.261V303H445.701ZM450.424 303V301.32C450.424 300.347 450.584 299.54 450.904 298.9C451.224 298.247 451.684 297.713 452.284 297.3C452.897 296.873 453.644 296.527 454.524 296.26L455.864 295.84C456.357 295.68 456.771 295.487 457.104 295.26C457.437 295.02 457.691 294.733 457.864 294.4C458.051 294.067 458.144 293.687 458.144 293.26V293.18C458.144 292.513 457.917 291.987 457.464 291.6C457.011 291.2 456.391 291 455.604 291C454.831 291 454.204 291.213 453.724 291.64C453.257 292.053 453.024 292.653 453.024 293.44V293.8H450.464V293.48C450.464 292.467 450.691 291.607 451.144 290.9C451.597 290.193 452.211 289.653 452.984 289.28C453.771 288.907 454.644 288.72 455.604 288.72C456.564 288.72 457.431 288.907 458.204 289.28C458.977 289.64 459.584 290.153 460.024 290.82C460.477 291.473 460.704 292.247 460.704 293.14V293.34C460.704 294.233 460.517 294.993 460.144 295.62C459.784 296.233 459.291 296.74 458.664 297.14C458.037 297.527 457.324 297.847 456.524 298.1L455.244 298.5C454.671 298.673 454.224 298.867 453.904 299.08C453.584 299.28 453.357 299.507 453.224 299.76C453.104 300 453.044 300.293 453.044 300.64V300.72H460.584V303H450.424Z" fill="white"/>
<path d="M246.154 211L244.507 211.135L242.944 211.524L241.488 212.148L240.157 212.985L238.974 214.013L237.959 215.211L237.133 216.559L236.518 218.035L236.133 219.618L236 221.286V241.858L236.135 244.242L236.53 246.546L237.169 248.755L238.039 250.853L239.123 252.825L240.408 254.657L241.878 256.333L243.517 257.838L245.312 259.157L247.248 260.275L248.629 261.03L249.971 261.885L251.251 262.837L252.441 263.882L253.517 265.018L254.455 266.242L255.228 267.549L255.811 268.937L256.179 270.402L256.308 271.942L256.406 273.18L256.692 274.354L257.149 275.449L257.761 276.449L258.514 277.339L259.392 278.101L260.379 278.722L261.46 279.185L262.619 279.474L263.841 279.574H274.159L275.381 279.474L276.54 279.185L277.621 278.722L278.608 278.101L279.486 277.339L280.239 276.449L280.851 275.449L281.308 274.354L281.594 273.18L281.692 271.942L281.821 270.402L282.189 268.937L282.772 267.549L283.545 266.242L284.483 265.018L285.559 263.882L286.749 262.837L288.029 261.885L289.371 261.03L290.752 260.275L292.688 259.157L294.483 257.838L296.122 256.333L297.592 254.657L298.877 252.825L299.961 250.853L300.831 248.755L301.47 246.546L301.865 244.242L302 241.858V221.286L301.867 219.618L301.482 218.035L300.867 216.559L300.041 215.211L299.026 214.013L297.843 212.985L296.512 212.148L295.056 211.524L293.493 211.135L291.846 211H246.154Z" fill="#F2F2F2" stroke="#B3B3B3" stroke-width="2.78497"/>
<path d="M265.937 272.016V239.937L265.864 239.011L265.65 238.132L265.308 237.312L264.849 236.563L264.286 235.898L263.628 235.327L262.889 234.862L262.08 234.516L261.213 234.299L260.298 234.224L255.352 234.225L254.525 234.292L253.741 234.488L253.01 234.801L252.342 235.221L251.749 235.737L251.239 236.338L250.825 237.014L250.516 237.755L250.323 238.549L250.256 239.387L250.323 240.224L250.516 241.018L250.825 241.759L251.239 242.435L251.749 243.037L252.342 243.553L253.01 243.972L253.741 244.286L254.525 244.481L255.352 244.549L260.165 244.549L260.108 244.557H277.896L277.844 244.549L282.657 244.549L283.484 244.481L284.268 244.286L284.999 243.972L285.667 243.553L286.261 243.037L286.77 242.435L287.184 241.759L287.493 241.018L287.686 240.224L287.753 239.387L287.686 238.549L287.493 237.755L287.184 237.014L286.77 236.338L286.261 235.737L285.667 235.221L284.999 234.801L284.268 234.488L283.484 234.292L282.658 234.225L277.711 234.224L276.797 234.299L275.929 234.516L275.12 234.862L274.381 235.327L273.724 235.898L273.16 236.563L272.701 237.312L272.359 238.132L272.146 239.011L272.072 239.937V272.016" stroke="#B3B3B3" stroke-width="2.22798"/>
<path d="M256.308 271.001H281.692V274.43H256.308V271.001Z" fill="#808080" stroke="#808080" stroke-width="1.67098"/>
<path d="M256.308 271H281.692V274.428L281.581 275.819L281.261 277.138L280.748 278.367L280.06 279.491L279.214 280.489L278.228 281.346L277.119 282.043L275.905 282.563L274.603 282.888L273.231 283H264.769L263.397 282.888L262.095 282.563L260.881 282.043L259.772 281.346L258.786 280.489L257.94 279.491L257.252 278.367L256.739 277.138L256.418 275.819L256.308 274.428V271Z" fill="#141414" stroke="#141414" stroke-width="1.67098"/>
<rect x="250" y="290" width="43.027" height="20" rx="5" fill="black"/>
<path d="M269.082 307V304.46H272.102C271.476 304.073 270.942 303.607 270.502 303.06C270.076 302.5 269.749 301.873 269.522 301.18C269.309 300.473 269.202 299.707 269.202 298.88C269.202 297.667 269.476 296.58 270.022 295.62C270.582 294.66 271.369 293.9 272.382 293.34C273.409 292.78 274.616 292.5 276.002 292.5C277.402 292.5 278.609 292.78 279.622 293.34C280.636 293.9 281.416 294.667 281.962 295.64C282.522 296.6 282.802 297.687 282.802 298.9C282.802 299.727 282.689 300.487 282.462 301.18C282.249 301.873 281.922 302.5 281.482 303.06C281.042 303.607 280.502 304.073 279.862 304.46H282.922V307H277.042V304.28C277.776 303.933 278.329 303.493 278.702 302.96C279.089 302.413 279.349 301.827 279.482 301.2C279.616 300.56 279.682 299.927 279.682 299.3C279.682 298.407 279.529 297.647 279.222 297.02C278.929 296.38 278.509 295.887 277.962 295.54C277.416 295.193 276.762 295.02 276.002 295.02C275.242 295.02 274.582 295.193 274.022 295.54C273.476 295.887 273.056 296.38 272.762 297.02C272.469 297.66 272.322 298.427 272.322 299.32C272.322 299.947 272.402 300.573 272.562 301.2C272.722 301.827 272.989 302.407 273.362 302.94C273.749 303.473 274.269 303.92 274.922 304.28V307H269.082Z" fill="white"/>
<path d="M262.058 307.28C260.992 307.28 260.065 307.08 259.278 306.68C258.492 306.28 257.885 305.727 257.458 305.02C257.032 304.313 256.818 303.5 256.818 302.58V297.8C256.818 296.667 257.045 295.727 257.498 294.98C257.965 294.22 258.598 293.653 259.398 293.28C260.212 292.907 261.138 292.72 262.178 292.72C263.218 292.72 264.118 292.893 264.878 293.24C265.652 293.587 266.245 294.087 266.658 294.74C267.085 295.393 267.298 296.173 267.298 297.08H264.698C264.698 296.52 264.505 296.033 264.118 295.62C263.732 295.207 263.085 295 262.178 295C261.285 295 260.592 295.233 260.098 295.7C259.618 296.167 259.378 296.813 259.378 297.64V299.08H259.738C259.965 298.813 260.312 298.56 260.778 298.32C261.245 298.08 261.925 297.96 262.818 297.96C263.632 297.96 264.378 298.133 265.058 298.48C265.752 298.827 266.312 299.333 266.738 300C267.165 300.653 267.378 301.447 267.378 302.38V302.62C267.378 303.54 267.158 304.353 266.718 305.06C266.278 305.753 265.658 306.3 264.858 306.7C264.058 307.087 263.125 307.28 262.058 307.28ZM262.098 305C262.938 305 263.598 304.78 264.078 304.34C264.572 303.9 264.818 303.313 264.818 302.58V302.42C264.818 301.927 264.705 301.5 264.478 301.14C264.265 300.78 263.952 300.5 263.538 300.3C263.138 300.1 262.658 300 262.098 300C261.552 300 261.072 300.1 260.658 300.3C260.245 300.5 259.925 300.78 259.698 301.14C259.485 301.5 259.378 301.927 259.378 302.42V302.58C259.378 303.313 259.618 303.9 260.098 304.34C260.592 304.78 261.258 305 262.098 305Z" fill="white"/>
<path d="M81.8572 267.39L81.9136 266.365L82.0782 265.364L82.3436 264.391L82.7028 263.449L83.1484 262.54L83.6733 261.67L84.2702 260.84L84.932 260.054L85.6514 259.316L86.4211 258.628L88.6238 256.618L90.6535 254.413L92.4964 252.038L94.1386 249.517L95.5662 246.874L96.7653 244.133L97.7222 241.317L98.4228 238.451L98.8534 235.559L99 232.665L98.6074 228.016L97.4706 223.605L95.6515 219.492L93.2117 215.736L90.2132 212.396L86.7176 209.531L82.7867 207.2L78.4823 205.461L73.8662 204.375L69 204L64.1338 204.375L59.5177 205.461L55.2133 207.2L51.2824 209.531L47.7868 212.396L44.7883 215.736L42.3485 219.492L40.5294 223.605L39.3927 228.016L39 232.665L39.1466 235.559L39.5772 238.451L40.2778 241.317L41.2347 244.133L42.4338 246.874L43.8614 249.517L45.5036 252.038L47.3465 254.413L49.3762 256.618L51.5789 258.628L52.3486 259.316L53.068 260.054L53.7298 260.84L54.3267 261.67L54.8516 262.54L55.2972 263.449L55.6564 264.391L55.9218 265.364L56.0864 266.365L56.1429 267.39L56.2381 268.578L56.5137 269.704L56.9548 270.754L57.5463 271.714L58.2733 272.567L59.1209 273.298L60.074 273.894L61.1176 274.337L62.2369 274.615L63.4167 274.711H74.5833L75.7632 274.615L76.8824 274.337L77.926 273.894L78.8791 273.298L79.7267 272.567L80.4537 271.714L81.0453 270.754L81.4863 269.704L81.7619 268.578L81.8572 267.39Z" fill="#F2F2F2" stroke="#B3B3B3" stroke-width="2.78497"/>
<path d="M65.8972 268.426V236.799L65.8157 235.782L65.5797 234.818L65.202 233.918L64.6955 233.097L64.073 232.367L63.3472 231.74L62.5311 231.23L61.6375 230.85L60.6791 230.613L59.6688 230.531L59.1776 230.531L58.247 230.606L57.3643 230.825L56.5412 231.175L55.7896 231.645L55.1211 232.222L54.5477 232.895L54.0812 233.651L53.7334 234.48L53.516 235.368L53.4409 236.305L53.516 237.241L53.7334 238.129L54.0812 238.958L54.5478 239.714L55.1212 240.387L55.7896 240.964L56.5413 241.434L57.3644 241.784L58.2472 242.003L59.1777 242.078L60.0503 242.078L59.9917 242.086H78.0111L77.9583 242.078L78.8308 242.078L79.7614 242.003L80.6441 241.784L81.4672 241.434L82.2189 240.964L82.8874 240.387L83.4608 239.714L83.9273 238.958L84.2752 238.129L84.4926 237.241L84.5676 236.305L84.4926 235.368L84.2752 234.48L83.9273 233.651L83.4608 232.895L82.8874 232.222L82.219 231.645L81.4673 231.175L80.6442 230.825L79.7615 230.606L78.831 230.531L78.3398 230.531L77.3295 230.613L76.3711 230.85L75.4774 231.23L74.6613 231.74L73.9356 232.367L73.3131 233.097L72.8065 233.918L72.4289 234.818L72.1928 235.782L72.1113 236.799V268.426" stroke="#B3B3B3" stroke-width="2.22798"/>
<path d="M56.1433 266.489H81.8576V269.778L81.7507 271.112L81.4411 272.377L80.9457 273.556L80.2813 274.634L79.4648 275.592L78.5128 276.414L77.4424 277.082L76.2702 277.581L75.0131 277.892L73.688 278H64.313L62.9878 277.892L61.7307 277.581L60.5585 277.082L59.4881 276.414L58.5361 275.592L57.7196 274.634L57.0552 273.556L56.5598 272.377L56.2502 271.112L56.1433 269.778V266.489Z" fill="#141414" stroke="#141414" stroke-width="1.67098"/>
<path d="M56.1433 266.493H81.8576V269.782H56.1433V266.493Z" fill="#808080" stroke="#808080" stroke-width="1.67098"/>
<rect x="48" y="285" width="43.027" height="20" rx="5" fill="black"/>
<path d="M67.0823 302V299.46H70.1023C69.4757 299.073 68.9423 298.607 68.5023 298.06C68.0757 297.5 67.749 296.873 67.5223 296.18C67.309 295.473 67.2023 294.707 67.2023 293.88C67.2023 292.667 67.4757 291.58 68.0223 290.62C68.5823 289.66 69.369 288.9 70.3823 288.34C71.409 287.78 72.6157 287.5 74.0023 287.5C75.4023 287.5 76.609 287.78 77.6223 288.34C78.6357 288.9 79.4157 289.667 79.9623 290.64C80.5223 291.6 80.8023 292.687 80.8023 293.9C80.8023 294.727 80.689 295.487 80.4623 296.18C80.249 296.873 79.9223 297.5 79.4823 298.06C79.0423 298.607 78.5023 299.073 77.8623 299.46H80.9223V302H75.0423V299.28C75.7757 298.933 76.329 298.493 76.7023 297.96C77.089 297.413 77.349 296.827 77.4823 296.2C77.6157 295.56 77.6823 294.927 77.6823 294.3C77.6823 293.407 77.529 292.647 77.2223 292.02C76.929 291.38 76.509 290.887 75.9623 290.54C75.4157 290.193 74.7623 290.02 74.0023 290.02C73.2423 290.02 72.5823 290.193 72.0223 290.54C71.4757 290.887 71.0557 291.38 70.7623 292.02C70.469 292.66 70.3223 293.427 70.3223 294.32C70.3223 294.947 70.4023 295.573 70.5623 296.2C70.7223 296.827 70.989 297.407 71.3623 297.94C71.749 298.473 72.269 298.92 72.9223 299.28V302H67.0823Z" fill="white"/>
<path d="M59.996 302.28C58.9427 302.28 58.0093 302.093 57.196 301.72C56.3827 301.347 55.7427 300.813 55.276 300.12C54.8227 299.413 54.596 298.58 54.596 297.62V297.26H57.156V297.54C57.156 298.287 57.416 298.887 57.936 299.34C58.456 299.78 59.1427 300 59.996 300C60.8627 300 61.5293 299.793 61.996 299.38C62.476 298.967 62.716 298.447 62.716 297.82V297.62C62.716 297.193 62.6093 296.847 62.396 296.58C62.1827 296.313 61.896 296.12 61.536 296C61.176 295.867 60.7693 295.8 60.316 295.8H57.516V293L62.036 290.6V290.28H54.956V288H64.876V291.4L60.656 293.64V293.96H61.396C62.0227 293.96 62.6293 294.087 63.216 294.34C63.816 294.593 64.3093 294.987 64.696 295.52C65.0827 296.04 65.276 296.72 65.276 297.56V297.8C65.276 298.707 65.056 299.5 64.616 300.18C64.176 300.847 63.556 301.367 62.756 301.74C61.9693 302.1 61.0493 302.28 59.996 302.28Z" fill="white"/>
</svg>
