<svg width="540" height="388" viewBox="0 0 540 388" fill="none" xmlns="http://www.w3.org/2000/svg">
<mask id="mask0_195_314" style="mask-type:luminance" maskUnits="userSpaceOnUse" x="0" y="54" width="540" height="300">
<path d="M0 54H540V189V354H0V190.5V54Z" fill="white"/>
</mask>
<g mask="url(#mask0_195_314)">
<path d="M0 190.5L0.00277781 191.5L540.003 190L540 189L539.997 188L-0.00277781 189.5L0 190.5ZM0 54V52H-2V54H0ZM540 54H542V52H540V54ZM540 354V356H542V354H540ZM0 354H-2V356H0V354ZM0 54V56H540V54V52H0V54ZM540 354V352H0V354V356H540V354ZM0 354H2V190.5H0H-2V354H0ZM0 190.5H2V54H0H-2V190.5H0ZM540 54H538V189H540H542V54H540ZM540 189H538V354H540H542V189H540Z" fill="black"/>
</g>
<path d="M300.641 78.9893H222.576C219.496 78.9893 217 76.3036 217 72.9906V36.9986C217 33.6856 219.496 30.9999 222.576 30.9999H300.641C303.721 30.9999 306.217 33.6856 306.217 36.9986V72.9906C306.217 76.3036 303.721 78.9893 300.641 78.9893Z" fill="#CE6809"/>
<path d="M217 78.2388H275.549V31.7491H217V78.2388Z" fill="#333333"/>
<path d="M275.549 48.9951H306.218V36.9978H275.549V48.9951Z" fill="#E77A16"/>
<path d="M217 49.7412H275.549V37.7439H217V49.7412Z" fill="#4C4C4C"/>
<path d="M314.212 67.1123H308.636C307.096 67.1123 305.848 65.7695 305.848 64.113V46.117C305.848 44.4605 307.096 43.1176 308.636 43.1176H314.212C315.752 43.1176 317 44.4605 317 46.117V64.113C317 65.7695 315.752 67.1123 314.212 67.1123Z" fill="#333333"/>
<path d="M312.818 51.8115H307.242C306.472 51.8115 305.848 51.1401 305.848 50.3119V47.3125C305.848 46.4843 306.472 45.8129 307.242 45.8129H312.818C313.588 45.8129 314.212 46.4843 314.212 47.3125V50.3119C314.212 51.1401 313.588 51.8115 312.818 51.8115Z" fill="#4C4C4C"/>
<path d="M300.641 79H222.576C219.496 79 217 76.3143 217 73.0013V37.0093C217 33.6964 219.496 31.0107 222.576 31.0107H300.641C303.721 31.0107 306.217 33.6964 306.217 37.0093V73.0013C306.217 76.3143 303.721 79 300.641 79Z" stroke="#333333" stroke-width="2.78497"/>
<path d="M332.111 56.207L331.926 15.8669L200.928 16.4698L201.114 56.8099" stroke="black" stroke-width="2"/>
<rect x="247" y="3" width="40" height="20" rx="5" fill="black"/>
<path d="M254.519 20V7.88H254.159L252.279 12.32H249.599L252.459 6H257.079V20H254.519ZM259.242 20V18.32C259.242 17.3467 259.402 16.54 259.722 15.9C260.042 15.2467 260.502 14.7133 261.102 14.3C261.716 13.8733 262.462 13.5267 263.342 13.26L264.682 12.84C265.176 12.68 265.589 12.4867 265.922 12.26C266.256 12.02 266.509 11.7333 266.682 11.4C266.869 11.0667 266.962 10.6867 266.962 10.26V10.18C266.962 9.51333 266.736 8.98667 266.282 8.6C265.829 8.2 265.209 8 264.422 8C263.649 8 263.022 8.21333 262.542 8.64C262.076 9.05333 261.842 9.65333 261.842 10.44V10.8H259.282V10.48C259.282 9.46667 259.509 8.60667 259.962 7.9C260.416 7.19333 261.029 6.65333 261.802 6.28C262.589 5.90667 263.462 5.72 264.422 5.72C265.382 5.72 266.249 5.90667 267.022 6.28C267.796 6.64 268.402 7.15333 268.842 7.82C269.296 8.47333 269.522 9.24667 269.522 10.14V10.34C269.522 11.2333 269.336 11.9933 268.962 12.62C268.602 13.2333 268.109 13.74 267.482 14.14C266.856 14.5267 266.142 14.8467 265.342 15.1L264.062 15.5C263.489 15.6733 263.042 15.8667 262.722 16.08C262.402 16.28 262.176 16.5067 262.042 16.76C261.922 17 261.862 17.2933 261.862 17.64V17.72H269.402V20H259.242ZM274.197 20L270.637 6H273.357L276.317 18.3H276.597L279.557 6H282.277L278.717 20H274.197Z" fill="white"/>
<circle cx="262" cy="351" r="21" fill="#463B3B"/>
<path d="M251.065 358V356.32C251.065 355.347 251.225 354.54 251.545 353.9C251.865 353.247 252.325 352.713 252.925 352.3C253.538 351.873 254.285 351.527 255.165 351.26L256.505 350.84C256.998 350.68 257.411 350.487 257.745 350.26C258.078 350.02 258.331 349.733 258.505 349.4C258.691 349.067 258.785 348.687 258.785 348.26V348.18C258.785 347.513 258.558 346.987 258.105 346.6C257.651 346.2 257.031 346 256.245 346C255.471 346 254.845 346.213 254.365 346.64C253.898 347.053 253.665 347.653 253.665 348.44V348.8H251.105V348.48C251.105 347.467 251.331 346.607 251.785 345.9C252.238 345.193 252.851 344.653 253.625 344.28C254.411 343.907 255.285 343.72 256.245 343.72C257.205 343.72 258.071 343.907 258.845 344.28C259.618 344.64 260.225 345.153 260.665 345.82C261.118 346.473 261.345 347.247 261.345 348.14V348.34C261.345 349.233 261.158 349.993 260.785 350.62C260.425 351.233 259.931 351.74 259.305 352.14C258.678 352.527 257.965 352.847 257.165 353.1L255.885 353.5C255.311 353.673 254.865 353.867 254.545 354.08C254.225 354.28 253.998 354.507 253.865 354.76C253.745 355 253.685 355.293 253.685 355.64V355.72H261.225V358H251.065ZM262.46 358L266.14 344H270.74L274.42 358H271.7L270.94 354.92H265.94L265.18 358H262.46ZM266.56 352.48H270.32L268.62 345.66H268.26L266.56 352.48Z" fill="white"/>
<circle cx="459" cy="55" r="21" fill="#463B3B"/>
<path d="M452.72 62.28C451.654 62.28 450.727 62.08 449.94 61.68C449.154 61.28 448.547 60.7267 448.12 60.02C447.694 59.3133 447.48 58.5 447.48 57.58V52.8C447.48 51.6667 447.707 50.7267 448.16 49.98C448.627 49.22 449.26 48.6533 450.06 48.28C450.874 47.9067 451.8 47.72 452.84 47.72C453.88 47.72 454.78 47.8933 455.54 48.24C456.314 48.5867 456.907 49.0867 457.32 49.74C457.747 50.3933 457.96 51.1733 457.96 52.08H455.36C455.36 51.52 455.167 51.0333 454.78 50.62C454.394 50.2067 453.747 50 452.84 50C451.947 50 451.254 50.2333 450.76 50.7C450.28 51.1667 450.04 51.8133 450.04 52.64V54.08H450.4C450.627 53.8133 450.974 53.56 451.44 53.32C451.907 53.08 452.587 52.96 453.48 52.96C454.294 52.96 455.04 53.1333 455.72 53.48C456.414 53.8267 456.974 54.3333 457.4 55C457.827 55.6533 458.04 56.4467 458.04 57.38V57.62C458.04 58.54 457.82 59.3533 457.38 60.06C456.94 60.7533 456.32 61.3 455.52 61.7C454.72 62.0867 453.787 62.28 452.72 62.28ZM452.76 60C453.6 60 454.26 59.78 454.74 59.34C455.234 58.9 455.48 58.3133 455.48 57.58V57.42C455.48 56.9267 455.367 56.5 455.14 56.14C454.927 55.78 454.614 55.5 454.2 55.3C453.8 55.1 453.32 55 452.76 55C452.214 55 451.734 55.1 451.32 55.3C450.907 55.5 450.587 55.78 450.36 56.14C450.147 56.5 450.04 56.9267 450.04 57.42V57.58C450.04 58.3133 450.28 58.9 450.76 59.34C451.254 59.78 451.92 60 452.76 60ZM459.204 62L462.884 48H467.484L471.164 62H468.444L467.684 58.92H462.684L461.924 62H459.204ZM463.304 56.48H467.064L465.364 49.66H465.004L463.304 56.48Z" fill="white"/>
<path d="M437.154 284.996L435.507 285.131L433.944 285.52L432.488 286.144L431.157 286.981L429.974 288.009L428.959 289.207L428.133 290.555L427.518 292.031L427.133 293.614L427 295.282V315.854L427.135 318.238L427.53 320.542L428.169 322.751L429.039 324.849L430.123 326.821L431.408 328.653L432.878 330.329L434.517 331.834L436.312 333.153L438.248 334.271L439.629 335.026L440.971 335.881L442.251 336.833L443.441 337.878L444.517 339.014L445.455 340.238L446.228 341.545L446.811 342.933L447.179 344.398L447.308 345.938L447.406 347.176L447.692 348.35L448.149 349.445L448.761 350.445L449.514 351.335L450.392 352.097L451.379 352.718L452.46 353.181L453.619 353.47L454.841 353.57H465.159L466.381 353.47L467.54 353.181L468.621 352.718L469.608 352.097L470.486 351.335L471.239 350.445L471.851 349.445L472.308 348.35L472.594 347.176L472.692 345.938L472.821 344.398L473.189 342.933L473.772 341.545L474.545 340.238L475.483 339.014L476.559 337.878L477.749 336.833L479.029 335.881L480.371 335.026L481.752 334.271L483.688 333.153L485.483 331.834L487.122 330.329L488.592 328.653L489.877 326.821L490.961 324.849L491.831 322.751L492.47 320.542L492.865 318.238L493 315.854V295.282L492.867 293.614L492.482 292.031L491.867 290.555L491.041 289.207L490.026 288.009L488.843 286.981L487.512 286.144L486.056 285.52L484.493 285.131L482.846 284.996H437.154Z" fill="#F2F2F2" stroke="#B3B3B3" stroke-width="2.78497"/>
<path d="M456.937 346.012V313.933L456.864 313.007L456.65 312.127L456.308 311.308L455.849 310.559L455.286 309.894L454.628 309.323L453.889 308.858L453.08 308.512L452.213 308.295L451.298 308.22L446.352 308.221L445.525 308.288L444.741 308.484L444.01 308.797L443.342 309.217L442.749 309.733L442.239 310.334L441.825 311.01L441.516 311.751L441.323 312.545L441.256 313.383L441.323 314.22L441.516 315.014L441.825 315.755L442.239 316.431L442.749 317.033L443.342 317.549L444.01 317.968L444.741 318.281L445.525 318.477L446.352 318.545L451.165 318.545L451.108 318.553H468.896L468.844 318.545L473.657 318.545L474.484 318.477L475.268 318.281L475.999 317.968L476.667 317.549L477.261 317.033L477.77 316.431L478.184 315.755L478.493 315.014L478.686 314.22L478.753 313.383L478.686 312.545L478.493 311.751L478.184 311.01L477.77 310.334L477.261 309.733L476.667 309.217L475.999 308.797L475.268 308.484L474.484 308.288L473.658 308.221L468.711 308.22L467.797 308.295L466.929 308.512L466.12 308.858L465.381 309.323L464.724 309.894L464.16 310.559L463.701 311.308L463.359 312.127L463.146 313.007L463.072 313.933V346.012" stroke="#B3B3B3" stroke-width="2.22798"/>
<path d="M447.308 344.997H472.692V348.426H447.308V344.997Z" fill="#808080" stroke="#808080" stroke-width="1.67098"/>
<path d="M447.308 344.996H472.692V348.424L472.581 349.815L472.261 351.134L471.748 352.364L471.06 353.487L470.214 354.485L469.228 355.342L468.119 356.039L466.905 356.559L465.603 356.884L464.231 356.996H455.769L454.397 356.884L453.095 356.559L451.881 356.039L450.772 355.342L449.786 354.485L448.94 353.487L448.252 352.364L447.739 351.134L447.418 349.815L447.308 348.424V344.996Z" fill="#141414" stroke="#141414" stroke-width="1.67098"/>
<path d="M52.1538 288L50.5068 288.134L48.9444 288.524L47.4876 289.148L46.1571 289.984L44.974 291.013L43.9591 292.211L43.1334 293.559L42.5177 295.035L42.1329 296.617L42 298.286V318.858L42.1349 321.242L42.5296 323.546L43.1692 325.755L44.0388 327.853L45.1233 329.825L46.4079 331.657L47.8775 333.333L49.5174 334.838L51.3124 336.157L53.2477 337.274L54.6287 338.03L55.9714 338.885L57.2506 339.837L58.441 340.882L59.5174 342.018L60.4547 343.241L61.2276 344.549L61.8108 345.937L62.1793 347.402L62.3077 348.942L62.4063 350.18L62.6918 351.354L63.1486 352.449L63.7613 353.449L64.5143 354.338L65.3921 355.101L66.3792 355.722L67.4602 356.185L68.6194 356.474L69.8414 356.574H80.1586L81.3806 356.474L82.5398 356.185L83.6208 355.722L84.6079 355.101L85.4857 354.338L86.2387 353.449L86.8514 352.449L87.3082 351.354L87.5937 350.18L87.6923 348.942L87.8207 347.402L88.1892 345.937L88.7724 344.549L89.5453 343.241L90.4826 342.018L91.559 340.882L92.7494 339.837L94.0286 338.885L95.3713 338.03L96.7523 337.274L98.6876 336.157L100.483 334.838L102.122 333.333L103.592 331.657L104.877 329.825L105.961 327.853L106.831 325.755L107.47 323.546L107.865 321.242L108 318.858V298.286L107.867 296.617L107.482 295.035L106.867 293.559L106.041 292.211L105.026 291.013L103.843 289.984L102.512 289.148L101.056 288.524L99.4932 288.134L97.8462 288H52.1538Z" fill="#F2F2F2" stroke="#B3B3B3" stroke-width="2.78497"/>
<path d="M71.9373 349.016V316.937L71.8635 316.01L71.6498 315.131L71.3079 314.312L70.8492 313.563L70.2855 312.897L69.6284 312.326L68.8895 311.862L68.0803 311.515L67.2125 311.299L66.2978 311.224L61.3516 311.224L60.5251 311.292L59.741 311.488L59.0099 311.801L58.3422 312.221L57.7485 312.736L57.2392 313.338L56.8248 314.014L56.5159 314.755L56.3228 315.549L56.2561 316.387L56.3228 317.224L56.5159 318.018L56.8249 318.759L57.2393 319.435L57.7486 320.037L58.3423 320.553L59.01 320.972L59.7411 321.285L60.5252 321.481L61.3517 321.549L66.1653 321.549L66.1075 321.557H83.8959L83.8437 321.549L88.6574 321.549L89.4839 321.481L90.268 321.285L90.9991 320.972L91.6668 320.553L92.2605 320.037L92.7698 319.435L93.1842 318.759L93.4932 318.018L93.6863 317.224L93.753 316.387L93.6863 315.549L93.4932 314.755L93.1842 314.014L92.7699 313.338L92.2606 312.736L91.6668 312.221L90.9992 311.801L90.2681 311.488L89.484 311.292L88.6575 311.224L83.7113 311.224L82.7966 311.299L81.9288 311.515L81.1196 311.862L80.3807 312.326L79.7236 312.897L79.1599 313.563L78.7012 314.312L78.3593 315.131L78.1456 316.01L78.0717 316.937V349.016" stroke="#B3B3B3" stroke-width="2.22798"/>
<path d="M62.3076 348.001H87.6922V351.429H62.3076V348.001Z" fill="#808080" stroke="#808080" stroke-width="1.67098"/>
<path d="M62.3076 348H87.6922V351.428L87.5815 352.819L87.2609 354.138L86.7478 355.367L86.0596 356.491L85.2139 357.489L84.228 358.346L83.1193 359.043L81.9052 359.563L80.6032 359.888L79.2307 360H70.7692L69.3966 359.888L68.0947 359.563L66.8806 359.043L65.7719 358.346L64.7859 357.489L63.9402 356.491L63.2521 355.367L62.739 354.138L62.4184 352.819L62.3076 351.428V348Z" fill="#141414" stroke="#141414" stroke-width="1.67098"/>
<path d="M48 352V374.018H104.25V352" stroke="black" stroke-width="2"/>
<rect x="54" y="364.734" width="43.027" height="20" rx="5" fill="black"/>
<path d="M67.8144 382.014C66.761 382.014 65.8277 381.827 65.0144 381.454C64.201 381.081 63.561 380.547 63.0944 379.854C62.641 379.147 62.4144 378.314 62.4144 377.354V376.994H64.9744V377.274C64.9744 378.021 65.2344 378.621 65.7544 379.074C66.2744 379.514 66.961 379.734 67.8144 379.734C68.681 379.734 69.3477 379.527 69.8144 379.114C70.2944 378.701 70.5344 378.181 70.5344 377.554V377.354C70.5344 376.927 70.4277 376.581 70.2144 376.314C70.001 376.047 69.7144 375.854 69.3544 375.734C68.9944 375.601 68.5877 375.534 68.1344 375.534H65.3344V372.734L69.8544 370.334V370.014H62.7744V367.734H72.6944V371.134L68.4744 373.374V373.694H69.2144C69.841 373.694 70.4477 373.821 71.0344 374.074C71.6344 374.327 72.1277 374.721 72.5144 375.254C72.901 375.774 73.0944 376.454 73.0944 377.294V377.534C73.0944 378.441 72.8744 379.234 72.4344 379.914C71.9944 380.581 71.3744 381.101 70.5744 381.474C69.7877 381.834 68.8677 382.014 67.8144 382.014ZM77.8223 381.734L74.2623 367.734H76.9823L79.9423 380.034H80.2223L83.1823 367.734H85.9023L82.3423 381.734H77.8223Z" fill="white"/>
<path d="M430.662 148.099L429.98 148.992L429.365 149.915L428.819 150.866L428.343 151.84L427.937 152.835L427.602 153.849L427.34 154.879L427.152 155.923L427.038 156.976L427 158.038L427.118 159.914L427.463 161.733L428.023 163.485L428.787 165.16L429.743 166.748L430.878 168.238L432.181 169.621L433.639 170.887L435.241 172.025L436.974 173.025L438.179 173.69L439.341 174.421L440.44 175.217L441.456 176.074L442.369 176.992L443.161 177.966L443.811 178.996L444.3 180.078L444.607 181.211L444.714 182.392L444.817 183.467L445.116 184.488L445.595 185.439L446.236 186.307L447.024 187.08L447.943 187.742L448.976 188.282L450.108 188.684L451.321 188.935L452.6 189.021H463.4L464.679 188.935L465.892 188.684L467.024 188.282L468.057 187.742L468.976 187.08L469.764 186.307L470.405 185.439L470.884 184.488L471.182 183.467L471.286 182.392L471.393 181.211L471.7 180.078L472.189 178.996L472.839 177.966L473.631 176.992L474.544 176.074L475.56 175.217L476.659 174.421L477.821 173.69L479.026 173.025L480.759 172.025L482.361 170.887L483.819 169.621L485.122 168.238L486.257 166.748L487.213 165.16L487.977 163.485L488.537 161.733L488.882 159.914L489 158.038L488.962 156.976L488.848 155.923L488.66 154.879L488.398 153.849L488.063 152.835L487.657 151.84L487.181 150.866L486.635 149.916L486.02 148.992L485.338 148.099L462.384 119.942L461.682 119.243L460.864 118.699L459.958 118.31L458.994 118.077L458 118L457.006 118.077L456.042 118.31L455.136 118.699L454.318 119.243L453.616 119.942L430.662 148.099Z" fill="#F2F2F2" stroke="#B3B3B3" stroke-width="2.79134"/>
<path d="M454.794 183.329V152.934L454.732 152.298L454.556 151.694L454.273 151.132L453.893 150.618L453.427 150.161L452.884 149.769L452.273 149.45L451.603 149.213L450.885 149.064L450.129 149.013L449.372 149.064L448.655 149.213L447.985 149.451L447.374 149.769L446.831 150.161L446.365 150.618L445.985 151.132L445.703 151.695L445.526 152.298L445.465 152.934V156.707L445.554 157.638L445.813 158.521L446.227 159.345L446.783 160.098L447.465 160.767L448.261 161.34L449.156 161.807L450.136 162.155L451.187 162.373L452.295 162.448L451.8 162.456H464.2L463.714 162.448L464.822 162.373L465.873 162.155L466.853 161.807L467.747 161.34L468.543 160.767L469.226 160.098L469.781 159.345L470.195 158.521L470.454 157.638L470.544 156.707V152.934L470.483 152.298L470.306 151.695L470.023 151.132L469.644 150.618L469.178 150.161L468.634 149.769L468.023 149.451L467.354 149.213L466.636 149.064L465.88 149.013L465.123 149.064L464.405 149.213L463.736 149.45L463.125 149.769L462.581 150.161L462.115 150.618L461.736 151.132L461.453 151.694L461.276 152.298L461.215 152.934V183.329" stroke="#B3B3B3" stroke-width="2.23307"/>
<path d="M444.715 181.576H471.286V184.554L471.17 185.762L470.834 186.908L470.297 187.976L469.577 188.952L468.692 189.819L467.66 190.563L466.499 191.169L465.228 191.62L463.866 191.903L462.429 192H453.572L452.135 191.903L450.772 191.62L449.501 191.169L448.341 190.563L447.309 189.819L446.424 188.952L445.703 187.976L445.166 186.908L444.831 185.762L444.715 184.554V181.576Z" fill="#141414" stroke="#141414" stroke-width="1.67481"/>
<path d="M444.715 181.576H471.286V184.554H444.715V181.576Z" fill="#808080" stroke="#808080" stroke-width="1.67481"/>
<path d="M451.653 132.989C458.226 132.989 463.554 137.468 463.554 142.994C463.554 148.52 458.226 152.999 451.653 152.999C445.079 152.999 439.751 148.52 439.751 142.994C439.751 137.468 445.079 132.989 451.653 132.989Z" fill="white" fill-opacity="0.3"/>
<path d="M430 189V211.018H486.25V189" stroke="black" stroke-width="2"/>
<rect x="437" y="201.734" width="43.027" height="20" rx="5" fill="black"/>
<path d="M451.861 218.734V215.894H444.981V212.934L449.821 204.734H454.421V213.614H456.741V215.894H454.421V218.734H451.861ZM447.421 213.614H451.861V206.374H451.501L447.421 213.294V213.614ZM461.096 218.734L457.536 204.734H460.256L463.216 217.034H463.496L466.456 204.734H469.176L465.616 218.734H461.096Z" fill="white"/>
<path d="M90.8572 184.39L90.9136 183.365L91.0782 182.365L91.3436 181.391L91.7028 180.449L92.1484 179.541L92.6733 178.67L93.2702 177.84L93.932 177.054L94.6514 176.316L95.4211 175.628L97.6238 173.618L99.6535 171.413L101.496 169.038L103.139 166.517L104.566 163.874L105.765 161.133L106.722 158.317L107.423 155.452L107.853 152.56L108 149.665L107.607 145.016L106.471 140.605L104.651 136.492L102.212 132.736L99.2132 129.396L95.7176 126.531L91.7867 124.2L87.4823 122.462L82.8662 121.375L78 121L73.1338 121.375L68.5177 122.462L64.2133 124.2L60.2824 126.531L56.7868 129.396L53.7883 132.736L51.3485 136.492L49.5294 140.605L48.3927 145.016L48 149.665L48.1466 152.56L48.5772 155.452L49.2778 158.317L50.2347 161.133L51.4338 163.874L52.8614 166.517L54.5036 169.038L56.3465 171.413L58.3762 173.618L60.5789 175.628L61.3486 176.316L62.068 177.054L62.7298 177.84L63.3267 178.67L63.8516 179.541L64.2972 180.449L64.6564 181.391L64.9218 182.365L65.0864 183.365L65.1429 184.39L65.2381 185.578L65.5137 186.704L65.9548 187.755L66.5463 188.714L67.2733 189.567L68.1209 190.298L69.074 190.894L70.1176 191.338L71.2369 191.615L72.4167 191.711H83.5833L84.7632 191.615L85.8824 191.338L86.926 190.894L87.8791 190.298L88.7267 189.567L89.4537 188.714L90.0453 187.755L90.4863 186.704L90.7619 185.578L90.8572 184.39Z" fill="#F9FEE4" stroke="#C4DE19" stroke-width="2.78497"/>
<path d="M74.8972 185.426V153.799L74.8157 152.782L74.5797 151.818L74.202 150.918L73.6955 150.097L73.073 149.367L72.3472 148.74L71.5311 148.23L70.6375 147.85L69.6791 147.613L68.6688 147.531L68.1776 147.531L67.247 147.606L66.3643 147.825L65.5412 148.175L64.7896 148.645L64.1211 149.222L63.5477 149.895L63.0812 150.651L62.7334 151.48L62.516 152.368L62.4409 153.305L62.516 154.241L62.7334 155.13L63.0812 155.958L63.5478 156.715L64.1212 157.387L64.7896 157.964L65.5413 158.434L66.3644 158.784L67.2472 159.003L68.1777 159.078L69.0503 159.078L68.9917 159.087H87.0111L86.9583 159.078L87.8308 159.078L88.7614 159.003L89.6441 158.784L90.4672 158.434L91.2189 157.964L91.8874 157.387L92.4608 156.715L92.9273 155.958L93.2752 155.13L93.4926 154.241L93.5676 153.305L93.4926 152.368L93.2752 151.48L92.9273 150.651L92.4608 149.895L91.8874 149.222L91.219 148.645L90.4673 148.175L89.6442 147.825L88.7615 147.606L87.831 147.531L87.3398 147.531L86.3295 147.613L85.3711 147.85L84.4774 148.23L83.6613 148.74L82.9356 149.367L82.3131 150.097L81.8065 150.918L81.4289 151.818L81.1928 152.782L81.1113 153.799V185.426" stroke="#C4DE19" stroke-width="2.22798"/>
<path d="M65.1433 183.489H90.8576V186.778L90.7507 188.112L90.4411 189.377L89.9457 190.556L89.2813 191.634L88.4648 192.592L87.5128 193.414L86.4424 194.082L85.2702 194.581L84.0131 194.892L82.688 195H73.313L71.9878 194.892L70.7307 194.581L69.5585 194.082L68.4881 193.414L67.5361 192.592L66.7196 191.634L66.0552 190.556L65.5598 189.377L65.2502 188.112L65.1433 186.778V183.489Z" fill="#141414" stroke="#141414" stroke-width="1.67098"/>
<path d="M65.1433 183.493H90.8576V186.782H65.1433V183.493Z" fill="#C4DE19" stroke="#C4DE19" stroke-width="1.67098"/>
</svg>
