<svg width="540" height="369" viewBox="0 0 540 369" fill="none" xmlns="http://www.w3.org/2000/svg">
<mask id="mask0_178_353" style="mask-type:luminance" maskUnits="userSpaceOnUse" x="0" y="25" width="540" height="329">
<path d="M540 25.3818H0V353.382H540V25.3818Z" fill="white"/>
</mask>
<g mask="url(#mask0_178_353)">
<path d="M1 256.382V352.382H539V256.382M1 256.382H539M1 256.382V144.382M539 256.382V144.382M1 144.382V26.3818H539V144.382M1 144.382H539" stroke="black" stroke-width="2"/>
</g>
<path d="M311.641 49.3711H233.576C230.496 49.3711 228 46.6854 228 43.3724V7.38042C228 4.06744 230.496 1.38175 233.576 1.38175H311.641C314.721 1.38175 317.217 4.06744 317.217 7.38042V43.3724C317.217 46.6854 314.721 49.3711 311.641 49.3711Z" fill="#CE6809"/>
<path d="M228 48.6206H286.549V2.13093H228V48.6206Z" fill="#333333"/>
<path d="M286.549 19.377H317.218V7.37962H286.549V19.377Z" fill="#E77A16"/>
<path d="M228 20.123H286.549V8.12571H228V20.123Z" fill="#4C4C4C"/>
<path d="M325.212 37.4941H319.636C318.096 37.4941 316.848 36.1513 316.848 34.4948V16.4988C316.848 14.8423 318.096 13.4995 319.636 13.4995H325.212C326.752 13.4995 328 14.8423 328 16.4988V34.4948C328 36.1513 326.752 37.4941 325.212 37.4941Z" fill="#333333"/>
<path d="M323.818 22.1934H318.242C317.472 22.1934 316.848 21.5219 316.848 20.6937V17.6944C316.848 16.8661 317.472 16.1947 318.242 16.1947H323.818C324.588 16.1947 325.212 16.8661 325.212 17.6944V20.6937C325.212 21.5219 324.588 22.1934 323.818 22.1934Z" fill="#4C4C4C"/>
<path d="M311.641 49.3818H233.576C230.496 49.3818 228 46.6961 228 43.3832V7.39116C228 4.07819 230.496 1.39249 233.576 1.39249H311.641C314.721 1.39249 317.217 4.07819 317.217 7.39116V43.3832C317.217 46.6961 314.721 49.3818 311.641 49.3818Z" stroke="#333333" stroke-width="2.78497"/>
<circle cx="119" cy="347.382" r="21" fill="#463B3B"/>
<path d="M113.158 354.662C112.105 354.662 111.171 354.475 110.358 354.102C109.545 353.729 108.905 353.195 108.438 352.502C107.985 351.795 107.758 350.962 107.758 350.002V349.642H110.318V349.922C110.318 350.669 110.578 351.269 111.098 351.722C111.618 352.162 112.305 352.382 113.158 352.382C114.025 352.382 114.691 352.175 115.158 351.762C115.638 351.349 115.878 350.829 115.878 350.202V350.002C115.878 349.575 115.771 349.229 115.558 348.962C115.345 348.695 115.058 348.502 114.698 348.382C114.338 348.249 113.931 348.182 113.478 348.182H110.678V345.382L115.198 342.982V342.662H108.118V340.382H118.038V343.782L113.818 346.022V346.342H114.558C115.185 346.342 115.791 346.469 116.378 346.722C116.978 346.975 117.471 347.369 117.858 347.902C118.245 348.422 118.438 349.102 118.438 349.942V350.182C118.438 351.089 118.218 351.882 117.778 352.562C117.338 353.229 116.718 353.749 115.918 354.122C115.131 354.482 114.211 354.662 113.158 354.662ZM119.606 354.382L123.286 340.382H127.886L131.566 354.382H128.846L128.086 351.302H123.086L122.326 354.382H119.606ZM123.706 348.862H127.466L125.766 342.042H125.406L123.706 348.862Z" fill="white"/>
<circle cx="119" cy="254.382" r="21" fill="#463B3B"/>
<path d="M113.705 261.382V258.542H106.825V255.582L111.665 247.382H116.265V256.262H118.585V258.542H116.265V261.382H113.705ZM109.265 256.262H113.705V249.022H113.345L109.265 255.942V256.262ZM119.38 261.382L123.06 247.382H127.66L131.34 261.382H128.62L127.86 258.302H122.86L122.1 261.382H119.38ZM123.48 255.862H127.24L125.54 249.042H125.18L123.48 255.862Z" fill="white"/>
<circle cx="118" cy="145.382" r="21" fill="#463B3B"/>
<path d="M107.065 152.382V150.702C107.065 149.729 107.225 148.922 107.545 148.282C107.865 147.629 108.325 147.095 108.925 146.682C109.538 146.255 110.285 145.909 111.165 145.642L112.505 145.222C112.998 145.062 113.411 144.869 113.745 144.642C114.078 144.402 114.331 144.115 114.505 143.782C114.691 143.449 114.785 143.069 114.785 142.642V142.562C114.785 141.895 114.558 141.369 114.105 140.982C113.651 140.582 113.031 140.382 112.245 140.382C111.471 140.382 110.845 140.595 110.365 141.022C109.898 141.435 109.665 142.035 109.665 142.822V143.182H107.105V142.862C107.105 141.849 107.331 140.989 107.785 140.282C108.238 139.575 108.851 139.035 109.625 138.662C110.411 138.289 111.285 138.102 112.245 138.102C113.205 138.102 114.071 138.289 114.845 138.662C115.618 139.022 116.225 139.535 116.665 140.202C117.118 140.855 117.345 141.629 117.345 142.522V142.722C117.345 143.615 117.158 144.375 116.785 145.002C116.425 145.615 115.931 146.122 115.305 146.522C114.678 146.909 113.965 147.229 113.165 147.482L111.885 147.882C111.311 148.055 110.865 148.249 110.545 148.462C110.225 148.662 109.998 148.889 109.865 149.142C109.745 149.382 109.685 149.675 109.685 150.022V150.102H117.225V152.382H107.065ZM118.46 152.382L122.14 138.382H126.74L130.42 152.382H127.7L126.94 149.302H121.94L121.18 152.382H118.46ZM122.56 146.862H126.32L124.62 140.042H124.26L122.56 146.862Z" fill="white"/>
<path d="M249.662 313.481L248.98 314.374L248.365 315.297L247.819 316.247L247.343 317.221L246.937 318.217L246.602 319.231L246.34 320.261L246.152 321.304L246.038 322.358L246 323.419L246.118 325.296L246.463 327.115L247.023 328.867L247.787 330.542L248.743 332.13L249.878 333.62L251.181 335.003L252.639 336.269L254.241 337.406L255.974 338.407L257.179 339.071L258.341 339.803L259.44 340.599L260.456 341.456L261.369 342.374L262.161 343.348L262.811 344.378L263.3 345.46L263.607 346.593L263.714 347.774L263.817 348.849L264.116 349.869L264.595 350.821L265.236 351.689L266.024 352.462L266.943 353.124L267.976 353.663L269.108 354.065L270.321 354.317L271.6 354.403H282.4L283.679 354.317L284.892 354.065L286.024 353.663L287.057 353.124L287.976 352.462L288.764 351.689L289.405 350.821L289.884 349.869L290.182 348.849L290.286 347.774L290.393 346.593L290.7 345.46L291.189 344.378L291.839 343.348L292.631 342.374L293.544 341.456L294.56 340.599L295.659 339.803L296.821 339.071L298.026 338.407L299.759 337.406L301.361 336.269L302.819 335.003L304.122 333.62L305.257 332.13L306.213 330.542L306.977 328.867L307.537 327.115L307.882 325.296L308 323.419L307.962 322.358L307.848 321.304L307.66 320.261L307.398 319.231L307.063 318.217L306.657 317.221L306.181 316.247L305.635 315.297L305.02 314.374L304.338 313.481L281.384 285.324L280.682 284.624L279.864 284.081L278.958 283.692L277.994 283.459L277 283.382L276.006 283.459L275.042 283.692L274.136 284.081L273.318 284.624L272.616 285.324L249.662 313.481Z" fill="#F2F2F2" stroke="#B3B3B3" stroke-width="2.79134"/>
<path d="M273.794 348.711V318.316L273.732 317.68L273.556 317.076L273.273 316.514L272.893 316L272.427 315.543L271.884 315.151L271.273 314.832L270.603 314.594L269.885 314.446L269.129 314.395L268.372 314.446L267.655 314.595L266.985 314.832L266.374 315.151L265.831 315.543L265.365 316L264.985 316.514L264.703 317.076L264.526 317.68L264.465 318.316V322.089L264.554 323.02L264.813 323.903L265.227 324.727L265.783 325.479L266.465 326.148L267.261 326.722L268.156 327.189L269.136 327.537L270.187 327.755L271.295 327.83L270.8 327.837H283.2L282.714 327.83L283.822 327.755L284.873 327.537L285.853 327.189L286.747 326.722L287.543 326.148L288.226 325.479L288.781 324.727L289.195 323.903L289.454 323.02L289.544 322.089V318.316L289.483 317.68L289.306 317.076L289.023 316.514L288.644 316L288.178 315.543L287.634 315.151L287.023 314.832L286.354 314.595L285.636 314.446L284.88 314.395L284.123 314.446L283.405 314.594L282.736 314.832L282.125 315.151L281.581 315.543L281.115 316L280.736 316.514L280.453 317.076L280.276 317.68L280.215 318.316V348.711" stroke="#B3B3B3" stroke-width="2.23307"/>
<path d="M263.715 346.958H290.286V349.936L290.17 351.144L289.834 352.29L289.297 353.358L288.577 354.333L287.692 355.201L286.66 355.945L285.499 356.551L284.228 357.002L282.866 357.284L281.429 357.382H272.572L271.135 357.284L269.772 357.002L268.501 356.551L267.341 355.945L266.309 355.201L265.424 354.333L264.703 353.358L264.166 352.29L263.831 351.144L263.715 349.936V346.958Z" fill="#141414" stroke="#141414" stroke-width="1.67481"/>
<path d="M263.715 346.958H290.286V349.936H263.715V346.958Z" fill="#808080" stroke="#808080" stroke-width="1.67481"/>
<path d="M270.653 298.371C277.226 298.371 282.554 302.85 282.554 308.376C282.554 313.901 277.226 318.381 270.653 318.381C264.079 318.381 258.751 313.901 258.751 308.376C258.751 302.85 264.079 298.371 270.653 298.371Z" fill="white" fill-opacity="0.3"/>
<path d="M253.154 188.382L251.507 188.516L249.944 188.906L248.488 189.53L247.157 190.366L245.974 191.394L244.959 192.593L244.133 193.941L243.518 195.417L243.133 196.999L243 198.668V219.24L243.135 221.624L243.53 223.928L244.169 226.136L245.039 228.235L246.123 230.207L247.408 232.039L248.878 233.715L250.517 235.22L252.312 236.539L254.248 237.656L255.629 238.411L256.971 239.267L258.251 240.219L259.441 241.264L260.517 242.4L261.455 243.623L262.228 244.93L262.811 246.318L263.179 247.784L263.308 249.324L263.406 250.562L263.692 251.736L264.149 252.831L264.761 253.831L265.514 254.72L266.392 255.483L267.379 256.104L268.46 256.566L269.619 256.856L270.841 256.956H281.159L282.381 256.856L283.54 256.566L284.621 256.104L285.608 255.483L286.486 254.72L287.239 253.831L287.851 252.831L288.308 251.736L288.594 250.562L288.692 249.324L288.821 247.784L289.189 246.318L289.772 244.93L290.545 243.623L291.483 242.4L292.559 241.264L293.749 240.219L295.029 239.267L296.371 238.411L297.752 237.656L299.688 236.539L301.483 235.22L303.122 233.715L304.592 232.039L305.877 230.207L306.961 228.235L307.831 226.136L308.47 223.928L308.865 221.624L309 219.24V198.668L308.867 196.999L308.482 195.417L307.867 193.941L307.041 192.593L306.026 191.394L304.843 190.366L303.512 189.53L302.056 188.906L300.493 188.516L298.846 188.382H253.154Z" fill="#F2F2F2" stroke="#B3B3B3" stroke-width="2.78497"/>
<path d="M272.937 249.398V217.319L272.864 216.392L272.65 215.513L272.308 214.694L271.849 213.945L271.286 213.279L270.628 212.708L269.889 212.244L269.08 211.897L268.213 211.681L267.298 211.606L262.352 211.606L261.525 211.674L260.741 211.87L260.01 212.183L259.342 212.602L258.749 213.118L258.239 213.72L257.825 214.396L257.516 215.137L257.323 215.931L257.256 216.768L257.323 217.606L257.516 218.4L257.825 219.141L258.239 219.817L258.749 220.418L259.342 220.934L260.01 221.354L260.741 221.667L261.525 221.863L262.352 221.93L267.165 221.93L267.108 221.939H284.896L284.844 221.93L289.657 221.93L290.484 221.863L291.268 221.667L291.999 221.354L292.667 220.934L293.261 220.418L293.77 219.817L294.184 219.141L294.493 218.4L294.686 217.606L294.753 216.768L294.686 215.931L294.493 215.137L294.184 214.396L293.77 213.72L293.261 213.118L292.667 212.602L291.999 212.183L291.268 211.87L290.484 211.674L289.658 211.606L284.711 211.606L283.797 211.681L282.929 211.897L282.12 212.244L281.381 212.708L280.724 213.279L280.16 213.945L279.701 214.694L279.359 215.513L279.146 216.392L279.072 217.319V249.398" stroke="#B3B3B3" stroke-width="2.22798"/>
<path d="M263.308 248.383H288.692V251.812H263.308V248.383Z" fill="#808080" stroke="#808080" stroke-width="1.67098"/>
<path d="M263.308 248.381H288.692V251.81L288.581 253.2L288.261 254.519L287.748 255.749L287.06 256.872L286.214 257.871L285.228 258.728L284.119 259.425L282.905 259.945L281.603 260.27L280.231 260.382H271.769L270.397 260.27L269.095 259.945L267.881 259.425L266.772 258.728L265.786 257.871L264.94 256.872L264.252 255.749L263.739 254.519L263.418 253.2L263.308 251.81V248.381Z" fill="#141414" stroke="#141414" stroke-width="1.67098"/>
<path d="M286.857 137.772L286.914 136.747L287.078 135.746L287.344 134.773L287.703 133.83L288.148 132.922L288.673 132.051L289.27 131.221L289.932 130.436L290.651 129.697L291.421 129.01L293.624 126.999L295.653 124.794L297.496 122.42L299.139 119.899L300.566 117.255L301.765 114.514L302.722 111.699L303.423 108.833L303.853 105.941L304 103.047L303.607 98.3971L302.471 93.9864L300.651 89.8735L298.212 86.1175L295.213 82.7774L291.718 79.9123L287.787 77.5812L283.482 75.843L278.866 74.7568L274 74.3816L269.134 74.7568L264.518 75.843L260.213 77.5812L256.282 79.9123L252.787 82.7774L249.788 86.1175L247.349 89.8735L245.529 93.9864L244.393 98.3971L244 103.047L244.147 105.941L244.577 108.833L245.278 111.699L246.235 114.514L247.434 117.255L248.861 119.899L250.504 122.42L252.347 124.794L254.376 126.999L256.579 129.01L257.349 129.697L258.068 130.436L258.73 131.221L259.327 132.051L259.852 132.922L260.297 133.83L260.656 134.773L260.922 135.746L261.086 136.747L261.143 137.772L261.238 138.959L261.514 140.086L261.955 141.136L262.546 142.095L263.273 142.948L264.121 143.68L265.074 144.275L266.118 144.719L267.237 144.996L268.417 145.092H279.583L280.763 144.996L281.882 144.719L282.926 144.275L283.879 143.68L284.727 142.948L285.454 142.095L286.045 141.136L286.486 140.086L286.762 138.959L286.857 137.772Z" fill="#F2F2F2" stroke="#B3B3B3" stroke-width="2.78497"/>
<path d="M270.897 138.808V107.181L270.816 106.164L270.58 105.2L270.202 104.3L269.696 103.479L269.073 102.748L268.347 102.122L267.531 101.612L266.637 101.232L265.679 100.995L264.669 100.913L264.178 100.913L263.247 100.988L262.364 101.207L261.541 101.557L260.79 102.027L260.121 102.604L259.548 103.277L259.081 104.033L258.733 104.862L258.516 105.75L258.441 106.686L258.516 107.623L258.733 108.511L259.081 109.34L259.548 110.096L260.121 110.769L260.79 111.346L261.541 111.816L262.364 112.166L263.247 112.385L264.178 112.46L265.05 112.46L264.992 112.468H283.011L282.958 112.46L283.831 112.46L284.761 112.385L285.644 112.166L286.467 111.816L287.219 111.346L287.887 110.769L288.461 110.096L288.927 109.34L289.275 108.511L289.493 107.623L289.568 106.686L289.493 105.75L289.275 104.862L288.927 104.033L288.461 103.277L287.887 102.604L287.219 102.027L286.467 101.557L285.644 101.207L284.762 100.988L283.831 100.913L283.34 100.913L282.329 100.995L281.371 101.232L280.477 101.612L279.661 102.122L278.936 102.748L278.313 103.479L277.807 104.3L277.429 105.2L277.193 106.164L277.111 107.181V138.808" stroke="#B3B3B3" stroke-width="2.22798"/>
<path d="M261.143 136.871H286.858V140.16L286.751 141.493L286.441 142.759L285.946 143.938L285.281 145.016L284.465 145.974L283.513 146.795L282.442 147.464L281.27 147.963L280.013 148.274L278.688 148.382H269.313L267.988 148.274L266.731 147.963L265.559 147.464L264.488 146.795L263.536 145.974L262.72 145.016L262.055 143.938L261.56 142.759L261.25 141.493L261.143 140.16V136.871Z" fill="#141414" stroke="#141414" stroke-width="1.67098"/>
<path d="M261.143 136.875H286.858V140.164H261.143V136.875Z" fill="#808080" stroke="#808080" stroke-width="1.67098"/>
</svg>
