<svg width="540" height="290" viewBox="0 0 540 290" fill="none" xmlns="http://www.w3.org/2000/svg">
<rect x="1" y="27" width="538" height="218" stroke="black" stroke-width="2"/>
<rect x="43" y="257" width="43.027" height="20" rx="5" fill="black"/>
<path d="M37 244.266V266.284H93.25V244.266" stroke="black" stroke-width="2"/>
<path d="M63.666 273V270.714H66.384C65.82 270.366 65.34 269.946 64.944 269.454C64.56 268.95 64.266 268.386 64.062 267.762C63.87 267.126 63.774 266.436 63.774 265.692C63.774 264.6 64.02 263.622 64.512 262.758C65.016 261.894 65.724 261.21 66.636 260.706C67.56 260.202 68.646 259.95 69.894 259.95C71.154 259.95 72.24 260.202 73.152 260.706C74.064 261.21 74.766 261.9 75.258 262.776C75.762 263.64 76.014 264.618 76.014 265.71C76.014 266.454 75.912 267.138 75.708 267.762C75.516 268.386 75.222 268.95 74.826 269.454C74.43 269.946 73.944 270.366 73.368 270.714H76.122V273H70.83V270.552C71.49 270.24 71.988 269.844 72.324 269.364C72.672 268.872 72.906 268.344 73.026 267.78C73.146 267.204 73.206 266.634 73.206 266.07C73.206 265.266 73.068 264.582 72.792 264.018C72.528 263.442 72.15 262.998 71.658 262.686C71.166 262.374 70.578 262.218 69.894 262.218C69.21 262.218 68.616 262.374 68.112 262.686C67.62 262.998 67.242 263.442 66.978 264.018C66.714 264.594 66.582 265.284 66.582 266.088C66.582 266.652 66.654 267.216 66.798 267.78C66.942 268.344 67.182 268.866 67.518 269.346C67.866 269.826 68.334 270.228 68.922 270.552V273H63.666Z" fill="white"/>
<path d="M56.4424 273.252C55.4944 273.252 54.6544 273.084 53.9224 272.748C53.1904 272.412 52.6144 271.932 52.1944 271.308C51.7864 270.672 51.5824 269.922 51.5824 269.058V268.734H53.8864V268.986C53.8864 269.658 54.1204 270.198 54.5884 270.606C55.0564 271.002 55.6744 271.2 56.4424 271.2C57.2224 271.2 57.8224 271.014 58.2424 270.642C58.6744 270.27 58.8904 269.802 58.8904 269.238V269.058C58.8904 268.674 58.7944 268.362 58.6024 268.122C58.4104 267.882 58.1524 267.708 57.8284 267.6C57.5044 267.48 57.1384 267.42 56.7304 267.42H54.2104V264.9L58.2784 262.74V262.452H51.9064V260.4H60.8344V263.46L57.0364 265.476V265.764H57.7024C58.2664 265.764 58.8124 265.878 59.3404 266.106C59.8804 266.334 60.3244 266.688 60.6724 267.168C61.0204 267.636 61.1944 268.248 61.1944 269.004V269.22C61.1944 270.036 60.9964 270.75 60.6004 271.362C60.2044 271.962 59.6464 272.43 58.9264 272.766C58.2184 273.09 57.3904 273.252 56.4424 273.252Z" fill="white"/>
<rect x="20" y="166" width="88" height="123" rx="9" stroke="#E5E5E5" stroke-width="2"/>
<path d="M76.6404 238.39L76.6969 237.365L76.8615 236.364L77.1269 235.391L77.4861 234.449L77.9317 233.54L78.4566 232.67L79.0535 231.84L79.7153 231.054L80.4347 230.316L81.2044 229.628L83.4071 227.618L85.4368 225.413L87.2797 223.038L88.9218 220.517L90.3495 217.874L91.5486 215.132L92.5055 212.317L93.2061 209.451L93.6367 206.559L93.7833 203.665L93.3906 199.016L92.2539 194.605L90.4348 190.492L87.995 186.736L84.9965 183.396L81.5009 180.531L77.57 178.2L73.2656 176.461L68.6495 175.375L63.7833 175L58.9171 175.375L54.301 176.461L49.9966 178.2L46.0657 180.531L42.5701 183.396L39.5716 186.736L37.1318 190.492L35.3127 194.605L34.1759 199.016L33.7833 203.665L33.9299 206.559L34.3605 209.451L35.0611 212.317L36.0179 215.132L37.2171 217.874L38.6447 220.517L40.2869 223.038L42.1298 225.413L44.1595 227.618L46.3622 229.628L47.1319 230.316L47.8513 231.054L48.5131 231.84L49.11 232.67L49.6349 233.54L50.0805 234.449L50.4397 235.391L50.7051 236.364L50.8697 237.365L50.9262 238.39L51.0214 239.577L51.297 240.704L51.738 241.754L52.3296 242.714L53.0566 243.567L53.9042 244.298L54.8573 244.894L55.9009 245.337L57.0201 245.615L58.2 245.711H69.3666L70.5464 245.615L71.6657 245.337L72.7093 244.894L73.6624 244.298L74.51 243.567L75.237 242.714L75.8285 241.754L76.2696 240.704L76.5452 239.577L76.6404 238.39Z" fill="#F2F2F2" stroke="#B3B3B3" stroke-width="2.78497"/>
<path d="M60.6805 239.426V207.799L60.599 206.782L60.363 205.818L59.9853 204.918L59.4788 204.097L58.8562 203.367L58.1305 202.74L57.3144 202.23L56.4207 201.85L55.4623 201.613L54.4521 201.531L53.9608 201.531L53.0303 201.606L52.1476 201.825L51.3245 202.175L50.5728 202.645L49.9044 203.222L49.331 203.895L48.8645 204.651L48.5166 205.48L48.2993 206.368L48.2242 207.305L48.2993 208.241L48.5166 209.13L48.8645 209.958L49.331 210.714L49.9044 211.387L50.5729 211.964L51.3246 212.434L52.1477 212.784L53.0304 213.003L53.961 213.078L54.8335 213.078L54.775 213.086H72.7944L72.7415 213.078L73.6141 213.078L74.5446 213.003L75.4274 212.784L76.2505 212.434L77.0022 211.964L77.6706 211.387L78.244 210.714L78.7106 209.958L79.0584 209.13L79.2758 208.241L79.3509 207.305L79.2758 206.368L79.0584 205.48L78.7106 204.651L78.2441 203.895L77.6707 203.222L77.0023 202.645L76.2506 202.175L75.4275 201.825L74.5448 201.606L73.6143 201.531L73.123 201.531L72.1127 201.613L71.1544 201.85L70.2607 202.23L69.4446 202.74L68.7189 203.367L68.0963 204.097L67.5898 204.918L67.2121 205.818L66.9761 206.782L66.8946 207.799V239.426" stroke="#B3B3B3" stroke-width="2.22798"/>
<path d="M50.9266 237.489H76.6408V240.778L76.5339 242.112L76.2244 243.377L75.729 244.556L75.0646 245.634L74.248 246.592L73.2961 247.414L72.2256 248.082L71.0534 248.581L69.7964 248.892L68.4712 249H59.0962L57.771 248.892L56.514 248.581L55.3418 248.082L54.2713 247.414L53.3194 246.592L52.5028 245.634L51.8384 244.556L51.3431 243.377L51.0335 242.112L50.9266 240.778V237.489Z" fill="#141414" stroke="#141414" stroke-width="1.67098"/>
<path d="M50.9266 237.493H76.6408V240.782H50.9266V237.493Z" fill="#808080" stroke="#808080" stroke-width="1.67098"/>
<rect x="255" y="257" width="43.027" height="20" rx="5" fill="black"/>
<path d="M249 244.266V266.284H305.25V244.266" stroke="black" stroke-width="2"/>
<path d="M275.666 273V270.714H278.384C277.82 270.366 277.34 269.946 276.944 269.454C276.56 268.95 276.266 268.386 276.062 267.762C275.87 267.126 275.774 266.436 275.774 265.692C275.774 264.6 276.02 263.622 276.512 262.758C277.016 261.894 277.724 261.21 278.636 260.706C279.56 260.202 280.646 259.95 281.894 259.95C283.154 259.95 284.24 260.202 285.152 260.706C286.064 261.21 286.766 261.9 287.258 262.776C287.762 263.64 288.014 264.618 288.014 265.71C288.014 266.454 287.912 267.138 287.708 267.762C287.516 268.386 287.222 268.95 286.826 269.454C286.43 269.946 285.944 270.366 285.368 270.714H288.122V273H282.83V270.552C283.49 270.24 283.988 269.844 284.324 269.364C284.672 268.872 284.906 268.344 285.026 267.78C285.146 267.204 285.206 266.634 285.206 266.07C285.206 265.266 285.068 264.582 284.792 264.018C284.528 263.442 284.15 262.998 283.658 262.686C283.166 262.374 282.578 262.218 281.894 262.218C281.21 262.218 280.616 262.374 280.112 262.686C279.62 262.998 279.242 263.442 278.978 264.018C278.714 264.594 278.582 265.284 278.582 266.088C278.582 266.652 278.654 267.216 278.798 267.78C278.942 268.344 279.182 268.866 279.518 269.346C279.866 269.826 280.334 270.228 280.922 270.552V273H275.666Z" fill="white"/>
<path d="M269.384 273V270.444H263.192V267.78L267.548 260.4H271.688V268.392H273.776V270.444H271.688V273H269.384ZM265.388 268.392H269.384V261.876H269.06L265.388 268.104V268.392Z" fill="white"/>
<rect x="232" y="166" width="88" height="123" rx="9" stroke="#E5E5E5" stroke-width="2"/>
<path d="M253.154 177L251.507 177.135L249.944 177.524L248.488 178.148L247.157 178.985L245.974 180.013L244.959 181.211L244.133 182.559L243.518 184.035L243.133 185.618L243 187.286V207.858L243.135 210.242L243.53 212.546L244.169 214.755L245.039 216.853L246.123 218.825L247.408 220.657L248.878 222.333L250.517 223.838L252.312 225.157L254.248 226.275L255.629 227.03L256.971 227.885L258.251 228.837L259.441 229.882L260.517 231.018L261.455 232.242L262.228 233.549L262.811 234.937L263.179 236.402L263.308 237.942L263.406 239.18L263.692 240.354L264.149 241.449L264.761 242.449L265.514 243.339L266.392 244.101L267.379 244.722L268.46 245.185L269.619 245.474L270.841 245.574H281.159L282.381 245.474L283.54 245.185L284.621 244.722L285.608 244.101L286.486 243.339L287.239 242.449L287.851 241.449L288.308 240.354L288.594 239.18L288.692 237.942L288.821 236.402L289.189 234.937L289.772 233.549L290.545 232.242L291.483 231.018L292.559 229.882L293.749 228.837L295.029 227.885L296.371 227.03L297.752 226.275L299.688 225.157L301.483 223.838L303.122 222.333L304.592 220.657L305.877 218.825L306.961 216.853L307.831 214.755L308.47 212.546L308.865 210.242L309 207.858V187.286L308.867 185.618L308.482 184.035L307.867 182.559L307.041 181.211L306.026 180.013L304.843 178.985L303.512 178.148L302.056 177.524L300.493 177.135L298.846 177H253.154Z" fill="#F2F2F2" stroke="#B3B3B3" stroke-width="2.78497"/>
<path d="M272.937 238.016V205.937L272.864 205.011L272.65 204.131L272.308 203.312L271.849 202.563L271.286 201.898L270.628 201.327L269.889 200.862L269.08 200.516L268.213 200.299L267.298 200.224L262.352 200.225L261.525 200.292L260.741 200.488L260.01 200.801L259.342 201.221L258.749 201.737L258.239 202.338L257.825 203.014L257.516 203.755L257.323 204.549L257.256 205.387L257.323 206.224L257.516 207.018L257.825 207.759L258.239 208.435L258.749 209.037L259.342 209.553L260.01 209.972L260.741 210.285L261.525 210.481L262.352 210.549L267.165 210.549L267.108 210.557H284.896L284.844 210.549L289.657 210.549L290.484 210.481L291.268 210.285L291.999 209.972L292.667 209.553L293.261 209.037L293.77 208.435L294.184 207.759L294.493 207.018L294.686 206.224L294.753 205.387L294.686 204.549L294.493 203.755L294.184 203.014L293.77 202.338L293.261 201.737L292.667 201.221L291.999 200.801L291.268 200.488L290.484 200.292L289.658 200.225L284.711 200.224L283.797 200.299L282.929 200.516L282.12 200.862L281.381 201.327L280.724 201.898L280.16 202.563L279.701 203.312L279.359 204.131L279.146 205.011L279.072 205.937V238.016" stroke="#B3B3B3" stroke-width="2.22798"/>
<path d="M263.308 237.001H288.692V240.43H263.308V237.001Z" fill="#808080" stroke="#808080" stroke-width="1.67098"/>
<path d="M263.308 237H288.692V240.428L288.582 241.819L288.261 243.138L287.748 244.367L287.06 245.491L286.214 246.489L285.228 247.346L284.119 248.043L282.905 248.563L281.603 248.888L280.231 249H271.769L270.397 248.888L269.095 248.563L267.881 248.043L266.772 247.346L265.786 246.489L264.94 245.491L264.252 244.367L263.739 243.138L263.418 241.819L263.308 240.428V237Z" fill="#141414" stroke="#141414" stroke-width="1.67098"/>
<rect x="448" y="257" width="43.027" height="20" rx="5" fill="black"/>
<path d="M442 244.266V266.284H498.25V244.266" stroke="black" stroke-width="2"/>
<path d="M468.666 273V270.714H471.384C470.82 270.366 470.34 269.946 469.944 269.454C469.56 268.95 469.266 268.386 469.062 267.762C468.87 267.126 468.774 266.436 468.774 265.692C468.774 264.6 469.02 263.622 469.512 262.758C470.016 261.894 470.724 261.21 471.636 260.706C472.56 260.202 473.646 259.95 474.894 259.95C476.154 259.95 477.24 260.202 478.152 260.706C479.064 261.21 479.766 261.9 480.258 262.776C480.762 263.64 481.014 264.618 481.014 265.71C481.014 266.454 480.912 267.138 480.708 267.762C480.516 268.386 480.222 268.95 479.826 269.454C479.43 269.946 478.944 270.366 478.368 270.714H481.122V273H475.83V270.552C476.49 270.24 476.988 269.844 477.324 269.364C477.672 268.872 477.906 268.344 478.026 267.78C478.146 267.204 478.206 266.634 478.206 266.07C478.206 265.266 478.068 264.582 477.792 264.018C477.528 263.442 477.15 262.998 476.658 262.686C476.166 262.374 475.578 262.218 474.894 262.218C474.21 262.218 473.616 262.374 473.112 262.686C472.62 262.998 472.242 263.442 471.978 264.018C471.714 264.594 471.582 265.284 471.582 266.088C471.582 266.652 471.654 267.216 471.798 267.78C471.942 268.344 472.182 268.866 472.518 269.346C472.866 269.826 473.334 270.228 473.922 270.552V273H468.666Z" fill="white"/>
<path d="M456.858 273V271.488C456.858 270.612 457.002 269.886 457.29 269.31C457.578 268.722 457.992 268.242 458.532 267.87C459.084 267.486 459.756 267.174 460.548 266.934L461.754 266.556C462.198 266.412 462.57 266.238 462.87 266.034C463.17 265.818 463.398 265.56 463.554 265.26C463.722 264.96 463.806 264.618 463.806 264.234V264.162C463.806 263.562 463.602 263.088 463.194 262.74C462.786 262.38 462.228 262.2 461.52 262.2C460.824 262.2 460.26 262.392 459.828 262.776C459.408 263.148 459.198 263.688 459.198 264.396V264.72H456.894V264.432C456.894 263.52 457.098 262.746 457.506 262.11C457.914 261.474 458.466 260.988 459.162 260.652C459.87 260.316 460.656 260.148 461.52 260.148C462.384 260.148 463.164 260.316 463.86 260.652C464.556 260.976 465.102 261.438 465.498 262.038C465.906 262.626 466.11 263.322 466.11 264.126V264.306C466.11 265.11 465.942 265.794 465.606 266.358C465.282 266.91 464.838 267.366 464.274 267.726C463.71 268.074 463.068 268.362 462.348 268.59L461.196 268.95C460.68 269.106 460.278 269.28 459.99 269.472C459.702 269.652 459.498 269.856 459.378 270.084C459.27 270.3 459.216 270.564 459.216 270.876V270.948H466.002V273H456.858Z" fill="white"/>
<rect x="425" y="166" width="88" height="123" rx="9" stroke="#E5E5E5" stroke-width="2"/>
<path d="M443.662 204.099L442.98 204.993L442.365 205.916L441.819 206.866L441.343 207.84L440.937 208.835L440.602 209.85L440.34 210.88L440.152 211.923L440.038 212.976L440 214.038L440.118 215.914L440.463 217.733L441.023 219.486L441.787 221.161L442.743 222.748L443.878 224.239L445.181 225.621L446.639 226.887L448.241 228.025L449.974 229.025L451.179 229.69L452.341 230.421L453.44 231.217L454.456 232.075L455.369 232.992L456.161 233.967L456.811 234.996L457.3 236.079L457.607 237.212L457.714 238.392L457.817 239.468L458.116 240.488L458.595 241.439L459.236 242.308L460.024 243.08L460.943 243.743L461.976 244.282L463.108 244.684L464.321 244.935L465.6 245.022H476.4L477.679 244.935L478.892 244.684L480.024 244.282L481.057 243.743L481.976 243.08L482.764 242.308L483.405 241.439L483.884 240.488L484.182 239.468L484.286 238.392L484.393 237.212L484.7 236.079L485.189 234.996L485.839 233.967L486.631 232.992L487.544 232.075L488.56 231.217L489.659 230.421L490.821 229.69L492.026 229.025L493.759 228.025L495.361 226.887L496.819 225.621L498.122 224.239L499.257 222.748L500.213 221.161L500.977 219.486L501.537 217.733L501.882 215.914L502 214.038L501.962 212.976L501.848 211.923L501.66 210.88L501.398 209.85L501.063 208.835L500.657 207.84L500.181 206.866L499.635 205.916L499.02 204.993L498.338 204.099L475.384 175.942L474.682 175.243L473.864 174.699L472.958 174.311L471.994 174.078L471 174L470.006 174.078L469.042 174.311L468.136 174.699L467.318 175.243L466.616 175.942L443.662 204.099Z" fill="#F2F2F2" stroke="#B3B3B3" stroke-width="2.79134"/>
<path d="M467.794 239.329V208.934L467.733 208.298L467.556 207.695L467.273 207.132L466.894 206.618L466.427 206.161L465.884 205.769L465.273 205.451L464.603 205.213L463.886 205.064L463.129 205.013L462.372 205.064L461.655 205.213L460.986 205.451L460.374 205.77L459.831 206.161L459.365 206.618L458.985 207.132L458.703 207.695L458.526 208.298L458.465 208.934V212.707L458.554 213.638L458.813 214.522L459.227 215.345L459.783 216.098L460.465 216.767L461.261 217.341L462.156 217.807L463.136 218.156L464.187 218.373L465.295 218.448L464.8 218.456H477.2L476.714 218.448L477.822 218.373L478.873 218.156L479.853 217.807L480.748 217.341L481.543 216.767L482.226 216.098L482.781 215.345L483.196 214.522L483.454 213.638L483.544 212.707V208.934L483.483 208.298L483.306 207.695L483.023 207.132L482.644 206.618L482.178 206.161L481.634 205.77L481.023 205.451L480.354 205.213L479.636 205.064L478.88 205.013L478.123 205.064L477.405 205.213L476.736 205.451L476.125 205.769L475.581 206.161L475.115 206.618L474.736 207.132L474.453 207.695L474.276 208.298L474.215 208.934V239.329" stroke="#B3B3B3" stroke-width="2.23307"/>
<path d="M457.715 237.576H484.286V240.554L484.17 241.762L483.835 242.908L483.298 243.976L482.577 244.952L481.692 245.819L480.66 246.563L479.499 247.169L478.229 247.62L476.866 247.903L475.429 248H466.572L465.135 247.903L463.772 247.62L462.501 247.169L461.341 246.563L460.309 245.819L459.424 244.952L458.703 243.976L458.166 242.908L457.831 241.762L457.715 240.554V237.576Z" fill="#141414" stroke="#141414" stroke-width="1.67481"/>
<path d="M457.715 237.576H484.286V240.554H457.715V237.576Z" fill="#808080" stroke="#808080" stroke-width="1.67481"/>
<path d="M464.653 188.989C471.226 188.989 476.554 193.468 476.554 198.994C476.554 204.519 471.226 208.999 464.653 208.999C458.079 208.999 452.751 204.519 452.751 198.994C452.751 193.468 458.079 188.989 464.653 188.989Z" fill="white" fill-opacity="0.3"/>
<path d="M314.641 49.9893H236.576C233.496 49.9893 231 47.3037 231 43.9907V7.99867C231 4.6857 233.496 2 236.576 2H314.641C317.721 2 320.217 4.6857 320.217 7.99867V43.9907C320.217 47.3037 317.721 49.9893 314.641 49.9893Z" fill="#CE6809"/>
<path d="M231 49.2387H289.549V2.749H231V49.2387Z" fill="#333333"/>
<path d="M289.549 19.9953H320.218V7.99796H289.549V19.9953Z" fill="#E77A16"/>
<path d="M231 20.7411H289.549V8.74378H231V20.7411Z" fill="#4C4C4C"/>
<path d="M328.212 38.1125H322.636C321.096 38.1125 319.848 36.7696 319.848 35.1132V17.1171C319.848 15.4607 321.096 14.1178 322.636 14.1178H328.212C329.752 14.1178 331 15.4607 331 17.1171V35.1132C331 36.7696 329.752 38.1125 328.212 38.1125Z" fill="#333333"/>
<path d="M326.818 22.8118H321.242C320.472 22.8118 319.848 22.1403 319.848 21.3121V18.3128C319.848 17.4845 320.472 16.8131 321.242 16.8131H326.818C327.588 16.8131 328.212 17.4845 328.212 18.3128V21.3121C328.212 22.1403 327.588 22.8118 326.818 22.8118Z" fill="#4C4C4C"/>
<path d="M314.641 50H236.576C233.496 50 231 47.3143 231 44.0013V8.00933C231 4.69635 233.496 2.01066 236.576 2.01066H314.641C317.721 2.01066 320.217 4.69635 320.217 8.00933V44.0013C320.217 47.3143 317.721 50 314.641 50Z" stroke="#333333" stroke-width="2.78497"/>
</svg>
