<svg width="558" height="310" viewBox="0 0 558 310" fill="none" xmlns="http://www.w3.org/2000/svg">
<path d="M368 275H200H20V56H557V144M368 275V144H557M368 275H557V144" stroke="black" stroke-width="2"/>
<path d="M325.713 78.9893H247.648C244.568 78.9893 242.072 76.3036 242.072 72.9906V36.9986C242.072 33.6856 244.568 30.9999 247.648 30.9999H325.713C328.792 30.9999 331.289 33.6856 331.289 36.9986V72.9906C331.289 76.3036 328.792 78.9893 325.713 78.9893Z" fill="#CE6809"/>
<path d="M242.072 78.2388H300.62V31.7491H242.072V78.2388Z" fill="#333333"/>
<path d="M300.621 48.9951H331.289V36.9978H300.621V48.9951Z" fill="#E77A16"/>
<path d="M242.072 49.7412H300.62V37.7439H242.072V49.7412Z" fill="#4C4C4C"/>
<path d="M339.283 67.1123H333.707C332.168 67.1123 330.919 65.7695 330.919 64.113V46.117C330.919 44.4605 332.168 43.1176 333.707 43.1176H339.283C340.823 43.1176 342.071 44.4605 342.071 46.117V64.113C342.071 65.7695 340.823 67.1123 339.283 67.1123Z" fill="#333333"/>
<path d="M337.889 51.8115H332.313C331.543 51.8115 330.919 51.1401 330.919 50.3119V47.3125C330.919 46.4843 331.543 45.8129 332.313 45.8129H337.889C338.659 45.8129 339.283 46.4843 339.283 47.3125V50.3119C339.283 51.1401 338.659 51.8115 337.889 51.8115Z" fill="#4C4C4C"/>
<path d="M325.713 79H247.648C244.568 79 242.072 76.3143 242.072 73.0013V37.0093C242.072 33.6964 244.568 31.0107 247.648 31.0107H325.713C328.792 31.0107 331.289 33.6964 331.289 37.0093V73.0013C331.289 76.3143 328.792 79 325.713 79Z" stroke="#333333" stroke-width="2.78497"/>
<path d="M357.183 56.207L356.997 15.8669L226 16.4698L226.186 56.8099" stroke="black" stroke-width="2"/>
<rect x="272.072" y="3" width="40" height="20" rx="5" fill="black"/>
<path d="M285.208 20.28C284.168 20.28 283.262 20.1067 282.488 19.76C281.728 19.4133 281.135 18.9133 280.708 18.26C280.295 17.6067 280.088 16.8267 280.088 15.92H282.688C282.688 16.48 282.882 16.9667 283.268 17.38C283.668 17.7933 284.315 18 285.208 18C286.115 18 286.808 17.7667 287.288 17.3C287.768 16.82 288.008 16.1733 288.008 15.36V13.92H287.648C287.422 14.1867 287.075 14.44 286.608 14.68C286.155 14.92 285.475 15.04 284.568 15.04C283.768 15.04 283.022 14.8667 282.328 14.52C281.635 14.1733 281.075 13.6733 280.648 13.02C280.222 12.3533 280.008 11.5533 280.008 10.62V10.38C280.008 9.44667 280.228 8.63333 280.668 7.94C281.108 7.24667 281.728 6.70667 282.528 6.32C283.328 5.92 284.262 5.72 285.328 5.72C286.395 5.72 287.322 5.92 288.108 6.32C288.895 6.72 289.502 7.27333 289.928 7.98C290.355 8.68667 290.568 9.5 290.568 10.42V15.2C290.568 16.3333 290.335 17.28 289.868 18.04C289.415 18.7867 288.782 19.3467 287.968 19.72C287.168 20.0933 286.248 20.28 285.208 20.28ZM285.288 13C285.848 13 286.328 12.9 286.728 12.7C287.142 12.5 287.455 12.22 287.668 11.86C287.895 11.5 288.008 11.0733 288.008 10.58V10.42C288.008 9.67333 287.762 9.08667 287.268 8.66C286.788 8.22 286.128 8 285.288 8C284.448 8 283.782 8.22 283.288 8.66C282.808 9.08667 282.568 9.67333 282.568 10.42V10.58C282.568 11.0733 282.675 11.5 282.888 11.86C283.115 12.22 283.435 12.5 283.848 12.7C284.262 12.9 284.742 13 285.288 13ZM295.492 20L291.932 6H294.652L297.612 18.3H297.892L300.852 6H303.572L300.012 20H295.492Z" fill="white"/>
<circle cx="419" cy="273" r="21" fill="#463B3B"/>
<path d="M417.399 275.4V274.92C417.399 274.24 417.532 273.68 417.799 273.24C418.079 272.8 418.525 272.433 419.139 272.14L419.479 271.98C420.079 271.7 420.539 271.4 420.859 271.08C421.179 270.76 421.339 270.333 421.339 269.8C421.339 269.413 421.239 269.087 421.039 268.82C420.852 268.54 420.585 268.327 420.239 268.18C419.892 268.033 419.485 267.96 419.019 267.96C418.539 267.96 418.105 268.04 417.719 268.2C417.345 268.36 417.045 268.6 416.819 268.92C416.605 269.24 416.499 269.64 416.499 270.12V270.56H413.899V270.16C413.899 269.24 414.125 268.447 414.579 267.78C415.032 267.113 415.645 266.607 416.419 266.26C417.192 265.9 418.059 265.72 419.019 265.72C419.965 265.72 420.805 265.893 421.539 266.24C422.285 266.587 422.872 267.067 423.299 267.68C423.725 268.293 423.939 269 423.939 269.8C423.939 270.6 423.792 271.26 423.499 271.78C423.205 272.287 422.832 272.7 422.379 273.02C421.939 273.327 421.485 273.593 421.019 273.82L420.679 273.98C420.439 274.087 420.272 274.22 420.179 274.38C420.085 274.527 420.039 274.747 420.039 275.04V275.4H417.399ZM418.799 280.28C418.265 280.28 417.812 280.107 417.439 279.76C417.079 279.4 416.899 278.94 416.899 278.38C416.899 277.82 417.079 277.367 417.439 277.02C417.812 276.66 418.265 276.48 418.799 276.48C419.345 276.48 419.799 276.66 420.159 277.02C420.519 277.367 420.699 277.82 420.699 278.38C420.699 278.94 420.519 279.4 420.159 279.76C419.799 280.107 419.345 280.28 418.799 280.28Z" fill="white"/>
<circle cx="419" cy="145" r="21" fill="#463B3B"/>
<path d="M408.065 152V150.32C408.065 149.347 408.225 148.54 408.545 147.9C408.865 147.247 409.325 146.713 409.925 146.3C410.538 145.873 411.285 145.527 412.165 145.26L413.505 144.84C413.998 144.68 414.411 144.487 414.745 144.26C415.078 144.02 415.331 143.733 415.505 143.4C415.691 143.067 415.785 142.687 415.785 142.26V142.18C415.785 141.513 415.558 140.987 415.105 140.6C414.651 140.2 414.031 140 413.245 140C412.471 140 411.845 140.213 411.365 140.64C410.898 141.053 410.665 141.653 410.665 142.44V142.8H408.105V142.48C408.105 141.467 408.331 140.607 408.785 139.9C409.238 139.193 409.851 138.653 410.625 138.28C411.411 137.907 412.285 137.72 413.245 137.72C414.205 137.72 415.071 137.907 415.845 138.28C416.618 138.64 417.225 139.153 417.665 139.82C418.118 140.473 418.345 141.247 418.345 142.14V142.34C418.345 143.233 418.158 143.993 417.785 144.62C417.425 145.233 416.931 145.74 416.305 146.14C415.678 146.527 414.965 146.847 414.165 147.1L412.885 147.5C412.311 147.673 411.865 147.867 411.545 148.08C411.225 148.28 410.998 148.507 410.865 148.76C410.745 149 410.685 149.293 410.685 149.64V149.72H418.225V152H408.065ZM419.46 152L423.14 138H427.74L431.42 152H428.7L427.94 148.92H422.94L422.18 152H419.46ZM423.56 146.48H427.32L425.62 139.66H425.26L423.56 146.48Z" fill="white"/>
<circle cx="21" cy="132" r="21" fill="#463B3B"/>
<path d="M14.7205 139.28C13.6538 139.28 12.7271 139.08 11.9405 138.68C11.1538 138.28 10.5471 137.727 10.1205 137.02C9.6938 136.313 9.48047 135.5 9.48047 134.58V129.8C9.48047 128.667 9.70714 127.727 10.1605 126.98C10.6271 126.22 11.2605 125.653 12.0605 125.28C12.8738 124.907 13.8005 124.72 14.8405 124.72C15.8805 124.72 16.7805 124.893 17.5405 125.24C18.3138 125.587 18.9071 126.087 19.3205 126.74C19.7471 127.393 19.9605 128.173 19.9605 129.08H17.3605C17.3605 128.52 17.1671 128.033 16.7805 127.62C16.3938 127.207 15.7471 127 14.8405 127C13.9471 127 13.2538 127.233 12.7605 127.7C12.2805 128.167 12.0405 128.813 12.0405 129.64V131.08H12.4005C12.6271 130.813 12.9738 130.56 13.4405 130.32C13.9071 130.08 14.5871 129.96 15.4805 129.96C16.2938 129.96 17.0405 130.133 17.7205 130.48C18.4138 130.827 18.9738 131.333 19.4005 132C19.8271 132.653 20.0405 133.447 20.0405 134.38V134.62C20.0405 135.54 19.8205 136.353 19.3805 137.06C18.9405 137.753 18.3205 138.3 17.5205 138.7C16.7205 139.087 15.7871 139.28 14.7205 139.28ZM14.7605 137C15.6005 137 16.2605 136.78 16.7405 136.34C17.2338 135.9 17.4805 135.313 17.4805 134.58V134.42C17.4805 133.927 17.3671 133.5 17.1405 133.14C16.9271 132.78 16.6138 132.5 16.2005 132.3C15.8005 132.1 15.3205 132 14.7605 132C14.2138 132 13.7338 132.1 13.3205 132.3C12.9071 132.5 12.5871 132.78 12.3605 133.14C12.1471 133.5 12.0405 133.927 12.0405 134.42V134.58C12.0405 135.313 12.2805 135.9 12.7605 136.34C13.2538 136.78 13.9205 137 14.7605 137ZM21.2038 139L24.8838 125H29.4838L33.1638 139H30.4438L29.6838 135.92H24.6838L23.9238 139H21.2038ZM25.3038 133.48H29.0638L27.3638 126.66H27.0038L25.3038 133.48Z" fill="white"/>
<path d="M468.154 77.9974L466.507 78.132L464.944 78.5218L463.488 79.1455L462.157 79.982L460.974 81.0101L459.959 82.2087L459.133 83.5564L458.518 85.0323L458.133 86.615L458 88.2835V108.856L458.135 111.24L458.53 113.544L459.169 115.752L460.039 117.85L461.123 119.823L462.408 121.655L463.878 123.331L465.517 124.836L467.312 126.154L469.248 127.272L470.629 128.027L471.971 128.882L473.251 129.834L474.441 130.88L475.517 132.016L476.455 133.239L477.228 134.546L477.811 135.934L478.179 137.4L478.308 138.939L478.406 140.177L478.692 141.352L479.149 142.447L479.761 143.447L480.514 144.336L481.392 145.099L482.379 145.719L483.46 146.182L484.619 146.471L485.841 146.571H496.159L497.381 146.471L498.54 146.182L499.621 145.719L500.608 145.099L501.486 144.336L502.239 143.447L502.851 142.447L503.308 141.352L503.594 140.177L503.692 138.939L503.821 137.4L504.189 135.934L504.772 134.546L505.545 133.239L506.483 132.016L507.559 130.88L508.749 129.834L510.029 128.882L511.371 128.027L512.752 127.272L514.688 126.154L516.483 124.836L518.122 123.331L519.592 121.655L520.877 119.823L521.961 117.85L522.831 115.752L523.47 113.544L523.865 111.24L524 108.856V88.2835L523.867 86.615L523.482 85.0323L522.867 83.5564L522.041 82.2087L521.026 81.0101L519.843 79.982L518.512 79.1455L517.056 78.5218L515.493 78.132L513.846 77.9974H468.154Z" fill="#F2F2F2" stroke="#B3B3B3" stroke-width="2.78497"/>
<path d="M487.937 139.014V106.935L487.864 106.008L487.65 105.129L487.308 104.309L486.849 103.561L486.286 102.895L485.628 102.324L484.889 101.859L484.08 101.513L483.213 101.297L482.298 101.222L477.352 101.222L476.525 101.29L475.741 101.485L475.01 101.798L474.342 102.218L473.749 102.734L473.239 103.336L472.825 104.012L472.516 104.753L472.323 105.547L472.256 106.384L472.323 107.221L472.516 108.016L472.825 108.756L473.239 109.433L473.749 110.034L474.342 110.55L475.01 110.97L475.741 111.283L476.525 111.479L477.352 111.546L482.165 111.546L482.108 111.555H499.896L499.844 111.546L504.657 111.546L505.484 111.479L506.268 111.283L506.999 110.97L507.667 110.55L508.261 110.034L508.77 109.433L509.184 108.756L509.493 108.016L509.686 107.221L509.753 106.384L509.686 105.547L509.493 104.753L509.184 104.012L508.77 103.336L508.261 102.734L507.667 102.218L506.999 101.798L506.268 101.485L505.484 101.29L504.658 101.222L499.711 101.222L498.797 101.297L497.929 101.513L497.12 101.859L496.381 102.324L495.724 102.895L495.16 103.561L494.701 104.309L494.359 105.129L494.146 106.008L494.072 106.935V139.014" stroke="#B3B3B3" stroke-width="2.22798"/>
<path d="M478.308 137.999H503.692V141.427H478.308V137.999Z" fill="#808080" stroke="#808080" stroke-width="1.67098"/>
<path d="M478.308 137.997H503.692V141.426L503.582 142.816L503.261 144.135L502.748 145.365L502.06 146.488L501.214 147.487L500.228 148.344L499.119 149.041L497.905 149.561L496.603 149.885L495.231 149.998H486.769L485.397 149.885L484.095 149.561L482.881 149.041L481.772 148.344L480.786 147.487L479.94 146.488L479.252 145.365L478.739 144.135L478.418 142.816L478.308 141.426V137.997Z" fill="#141414" stroke="#141414" stroke-width="1.67098"/>
<path d="M466.662 235.099L465.98 235.992L465.365 236.915L464.819 237.866L464.343 238.84L463.937 239.835L463.602 240.849L463.34 241.879L463.152 242.923L463.038 243.976L463 245.038L463.118 246.914L463.463 248.733L464.023 250.485L464.787 252.16L465.743 253.748L466.878 255.238L468.181 256.621L469.639 257.887L471.241 259.025L472.974 260.025L474.179 260.69L475.341 261.421L476.44 262.217L477.456 263.074L478.369 263.992L479.161 264.966L479.811 265.996L480.3 267.078L480.607 268.211L480.714 269.392L480.817 270.467L481.116 271.488L481.595 272.439L482.236 273.307L483.024 274.08L483.943 274.742L484.976 275.282L486.108 275.684L487.321 275.935L488.6 276.021H499.4L500.679 275.935L501.892 275.684L503.024 275.282L504.057 274.742L504.976 274.08L505.764 273.307L506.405 272.439L506.884 271.488L507.182 270.467L507.286 269.392L507.393 268.211L507.7 267.078L508.189 265.996L508.839 264.966L509.631 263.992L510.544 263.074L511.56 262.217L512.659 261.421L513.821 260.69L515.026 260.025L516.759 259.025L518.361 257.887L519.819 256.621L521.122 255.238L522.257 253.748L523.213 252.16L523.977 250.485L524.537 248.733L524.882 246.914L525 245.038L524.962 243.976L524.848 242.923L524.66 241.879L524.398 240.849L524.063 239.835L523.657 238.84L523.181 237.866L522.635 236.916L522.02 235.992L521.338 235.099L498.384 206.942L497.682 206.243L496.864 205.699L495.958 205.31L494.994 205.077L494 205L493.006 205.077L492.042 205.31L491.136 205.699L490.318 206.243L489.616 206.942L466.662 235.099Z" fill="#F2F2F2" stroke="#B3B3B3" stroke-width="2.79134"/>
<path d="M490.794 270.329V239.934L490.732 239.298L490.556 238.694L490.273 238.132L489.893 237.618L489.427 237.161L488.884 236.769L488.273 236.45L487.603 236.213L486.885 236.064L486.129 236.013L485.372 236.064L484.655 236.213L483.985 236.451L483.374 236.769L482.831 237.161L482.365 237.618L481.985 238.132L481.703 238.695L481.526 239.298L481.465 239.934V243.707L481.554 244.638L481.813 245.521L482.227 246.345L482.783 247.098L483.465 247.767L484.261 248.34L485.156 248.807L486.136 249.155L487.187 249.373L488.295 249.448L487.8 249.456H500.2L499.714 249.448L500.822 249.373L501.873 249.155L502.853 248.807L503.747 248.34L504.543 247.767L505.226 247.098L505.781 246.345L506.195 245.521L506.454 244.638L506.544 243.707V239.934L506.483 239.298L506.306 238.695L506.023 238.132L505.644 237.618L505.178 237.161L504.634 236.769L504.023 236.451L503.354 236.213L502.636 236.064L501.88 236.013L501.123 236.064L500.405 236.213L499.736 236.45L499.125 236.769L498.581 237.161L498.115 237.618L497.736 238.132L497.453 238.694L497.276 239.298L497.215 239.934V270.329" stroke="#B3B3B3" stroke-width="2.23307"/>
<path d="M480.715 268.576H507.286V271.554L507.17 272.762L506.835 273.908L506.298 274.976L505.577 275.952L504.692 276.819L503.66 277.563L502.499 278.169L501.229 278.62L499.866 278.903L498.429 279H489.572L488.135 278.903L486.772 278.62L485.501 278.169L484.341 277.563L483.309 276.819L482.424 275.952L481.703 274.976L481.166 273.908L480.831 272.762L480.715 271.554V268.576Z" fill="#141414" stroke="#141414" stroke-width="1.67481"/>
<path d="M480.715 268.576H507.286V271.554H480.715V268.576Z" fill="#808080" stroke="#808080" stroke-width="1.67481"/>
<path d="M487.653 219.989C494.226 219.989 499.554 224.468 499.554 229.994C499.554 235.52 494.226 239.999 487.653 239.999C481.079 239.999 475.751 235.52 475.751 229.994C475.751 224.468 481.079 219.989 487.653 219.989Z" fill="white" fill-opacity="0.3"/>
<path d="M158.857 268.39L158.914 267.365L159.078 266.364L159.344 265.391L159.703 264.448L160.148 263.54L160.673 262.67L161.27 261.84L161.932 261.054L162.651 260.316L163.421 259.628L165.624 257.617L167.653 255.413L169.496 253.038L171.139 250.517L172.566 247.874L173.765 245.132L174.722 242.317L175.423 239.451L175.853 236.559L176 233.665L175.607 229.015L174.471 224.605L172.651 220.492L170.212 216.736L167.213 213.396L163.718 210.53L159.787 208.199L155.482 206.461L150.866 205.375L146 205L141.134 205.375L136.518 206.461L132.213 208.199L128.282 210.53L124.787 213.396L121.788 216.736L119.349 220.492L117.529 224.605L116.393 229.015L116 233.665L116.147 236.559L116.577 239.451L117.278 242.317L118.235 245.132L119.434 247.874L120.861 250.517L122.504 253.038L124.347 255.413L126.376 257.617L128.579 259.628L129.349 260.316L130.068 261.054L130.73 261.84L131.327 262.67L131.852 263.54L132.297 264.448L132.656 265.391L132.922 266.364L133.086 267.365L133.143 268.39L133.238 269.577L133.514 270.704L133.955 271.754L134.546 272.713L135.273 273.566L136.121 274.298L137.074 274.893L138.118 275.337L139.237 275.615L140.417 275.71H151.583L152.763 275.615L153.882 275.337L154.926 274.893L155.879 274.298L156.727 273.566L157.454 272.713L158.045 271.754L158.486 270.704L158.762 269.577L158.857 268.39Z" fill="#F2F2F2" stroke="#B3B3B3" stroke-width="2.78497"/>
<path d="M142.897 269.426V237.799L142.816 236.782L142.58 235.818L142.202 234.918L141.696 234.097L141.073 233.367L140.347 232.74L139.531 232.23L138.637 231.85L137.679 231.613L136.669 231.531L136.178 231.531L135.247 231.606L134.364 231.825L133.541 232.175L132.79 232.645L132.121 233.222L131.548 233.895L131.081 234.651L130.733 235.48L130.516 236.368L130.441 237.305L130.516 238.241L130.733 239.13L131.081 239.958L131.548 240.715L132.121 241.387L132.79 241.964L133.541 242.434L134.364 242.784L135.247 243.003L136.178 243.078L137.05 243.078L136.992 243.087H155.011L154.958 243.078L155.831 243.078L156.761 243.003L157.644 242.784L158.467 242.434L159.219 241.964L159.887 241.387L160.461 240.715L160.927 239.958L161.275 239.13L161.493 238.241L161.568 237.305L161.493 236.368L161.275 235.48L160.927 234.651L160.461 233.895L159.887 233.222L159.219 232.645L158.467 232.175L157.644 231.825L156.762 231.606L155.831 231.531L155.34 231.531L154.329 231.613L153.371 231.85L152.477 232.23L151.661 232.74L150.936 233.367L150.313 234.097L149.807 234.918L149.429 235.818L149.193 236.782L149.111 237.799V269.426" stroke="#B3B3B3" stroke-width="2.22798"/>
<path d="M133.143 267.489H158.858V270.778L158.751 272.112L158.441 273.377L157.946 274.556L157.281 275.634L156.465 276.592L155.513 277.414L154.442 278.082L153.27 278.581L152.013 278.892L150.688 279H141.313L139.988 278.892L138.731 278.581L137.559 278.082L136.488 277.414L135.536 276.592L134.72 275.634L134.055 274.556L133.56 273.377L133.25 272.112L133.143 270.778V267.489Z" fill="#141414" stroke="#141414" stroke-width="1.67098"/>
<path d="M133.143 267.493H158.858V270.782H133.143V267.493Z" fill="#808080" stroke="#808080" stroke-width="1.67098"/>
<path d="M118.217 274.266V296.284H174.467V274.266" stroke="black" stroke-width="2"/>
<rect x="124.217" y="287" width="43.027" height="20" rx="5" fill="black"/>
<path d="M138.093 304.28C137.027 304.28 136.1 304.08 135.313 303.68C134.527 303.28 133.92 302.727 133.493 302.02C133.067 301.313 132.853 300.5 132.853 299.58V294.8C132.853 293.667 133.08 292.727 133.533 291.98C134 291.22 134.633 290.653 135.433 290.28C136.247 289.907 137.173 289.72 138.213 289.72C139.253 289.72 140.153 289.893 140.913 290.24C141.687 290.587 142.28 291.087 142.693 291.74C143.12 292.393 143.333 293.173 143.333 294.08H140.733C140.733 293.52 140.54 293.033 140.153 292.62C139.767 292.207 139.12 292 138.213 292C137.32 292 136.627 292.233 136.133 292.7C135.653 293.167 135.413 293.813 135.413 294.64V296.08H135.773C136 295.813 136.347 295.56 136.813 295.32C137.28 295.08 137.96 294.96 138.853 294.96C139.667 294.96 140.413 295.133 141.093 295.48C141.787 295.827 142.347 296.333 142.773 297C143.2 297.653 143.413 298.447 143.413 299.38V299.62C143.413 300.54 143.193 301.353 142.753 302.06C142.313 302.753 141.693 303.3 140.893 303.7C140.093 304.087 139.16 304.28 138.093 304.28ZM138.133 302C138.973 302 139.633 301.78 140.113 301.34C140.607 300.9 140.853 300.313 140.853 299.58V299.42C140.853 298.927 140.74 298.5 140.513 298.14C140.3 297.78 139.987 297.5 139.573 297.3C139.173 297.1 138.693 297 138.133 297C137.587 297 137.107 297.1 136.693 297.3C136.28 297.5 135.96 297.78 135.733 298.14C135.52 298.5 135.413 298.927 135.413 299.42V299.58C135.413 300.313 135.653 300.9 136.133 301.34C136.627 301.78 137.293 302 138.133 302ZM148.137 304L144.577 290H147.297L150.257 302.3H150.537L153.497 290H156.217L152.657 304H148.137Z" fill="white"/>
</svg>
