<svg width="540" height="345" viewBox="0 0 540 345" fill="none" xmlns="http://www.w3.org/2000/svg">
<g clip-path="url(#clip0_227_877)">
<mask id="mask0_227_877" style="mask-type:luminance" maskUnits="userSpaceOnUse" x="0" y="70" width="540" height="251">
<path d="M540 70.3966H0V320.397H540V70.3966Z" fill="white"/>
</mask>
<g mask="url(#mask0_227_877)">
<path d="M1 195.397V319.519H539V195.397M1 195.397V71.2738H539V195.397M1 195.397H539" stroke="black" stroke-width="2"/>
</g>
</g>
<path d="M308.641 343.386H230.576C227.496 343.386 225 340.7 225 337.387V301.395C225 298.082 227.496 295.397 230.576 295.397H308.641C311.721 295.397 314.217 298.082 314.217 301.395V337.387C314.217 340.7 311.721 343.386 308.641 343.386Z" fill="#CE6809"/>
<path d="M225 342.635H283.549V296.146H225V342.635Z" fill="#333333"/>
<path d="M283.549 313.392H314.218V301.395H283.549V313.392Z" fill="#E77A16"/>
<path d="M225 314.138H283.549V302.14H225V314.138Z" fill="#4C4C4C"/>
<path d="M322.212 331.509H316.636C315.096 331.509 313.848 330.166 313.848 328.51V310.514C313.848 308.857 315.096 307.514 316.636 307.514H322.212C323.752 307.514 325 308.857 325 310.514V328.51C325 330.166 323.752 331.509 322.212 331.509Z" fill="#333333"/>
<path d="M320.818 316.208H315.242C314.472 316.208 313.848 315.537 313.848 314.709V311.709C313.848 310.881 314.472 310.21 315.242 310.21H320.818C321.588 310.21 322.212 310.881 322.212 311.709V314.709C322.212 315.537 321.588 316.208 320.818 316.208Z" fill="#4C4C4C"/>
<path d="M308.641 343.397H230.576C227.496 343.397 225 340.711 225 337.398V301.406C225 298.093 227.496 295.407 230.576 295.407H308.641C311.721 295.407 314.217 298.093 314.217 301.406V337.398C314.217 340.711 311.721 343.397 308.641 343.397Z" stroke="#333333" stroke-width="2.78497"/>
<path d="M237.662 157.496L236.98 158.389L236.365 159.312L235.819 160.262L235.343 161.237L234.937 162.232L234.602 163.246L234.34 164.276L234.152 165.319L234.038 166.373L234 167.434L234.118 169.311L234.463 171.13L235.023 172.882L235.787 174.557L236.743 176.145L237.878 177.635L239.181 179.018L240.639 180.284L242.241 181.421L243.974 182.422L245.179 183.086L246.341 183.818L247.44 184.614L248.456 185.471L249.369 186.389L250.161 187.363L250.811 188.393L251.3 189.475L251.607 190.608L251.714 191.789L251.817 192.864L252.116 193.884L252.595 194.836L253.236 195.704L254.024 196.477L254.943 197.139L255.976 197.678L257.108 198.08L258.321 198.332L259.6 198.418H270.4L271.679 198.332L272.892 198.08L274.024 197.678L275.057 197.139L275.976 196.477L276.764 195.704L277.405 194.836L277.884 193.884L278.182 192.864L278.286 191.789L278.393 190.608L278.7 189.475L279.189 188.393L279.839 187.363L280.631 186.389L281.544 185.471L282.56 184.614L283.659 183.818L284.821 183.086L286.026 182.422L287.759 181.421L289.361 180.284L290.819 179.018L292.122 177.635L293.257 176.145L294.213 174.557L294.977 172.882L295.537 171.13L295.882 169.311L296 167.434L295.962 166.373L295.848 165.319L295.66 164.276L295.398 163.246L295.063 162.232L294.657 161.237L294.181 160.262L293.635 159.312L293.02 158.389L292.338 157.496L269.384 129.339L268.682 128.64L267.864 128.096L266.958 127.707L265.994 127.474L265 127.397L264.006 127.474L263.042 127.707L262.136 128.096L261.318 128.64L260.616 129.339L237.662 157.496Z" fill="#F2F2F2" stroke="#B3B3B3" stroke-width="2.79134"/>
<path d="M261.794 192.726V162.331L261.732 161.695L261.556 161.091L261.273 160.529L260.893 160.015L260.427 159.558L259.884 159.166L259.273 158.847L258.603 158.609L257.885 158.461L257.129 158.41L256.372 158.461L255.655 158.61L254.985 158.847L254.374 159.166L253.831 159.558L253.365 160.015L252.985 160.529L252.703 161.091L252.526 161.695L252.465 162.331V166.104L252.554 167.035L252.813 167.918L253.227 168.742L253.783 169.494L254.465 170.163L255.261 170.737L256.156 171.204L257.136 171.552L258.187 171.77L259.295 171.845L258.8 171.852H271.2L270.714 171.845L271.822 171.77L272.873 171.552L273.853 171.204L274.747 170.737L275.543 170.163L276.226 169.494L276.781 168.742L277.195 167.918L277.454 167.035L277.544 166.104V162.331L277.483 161.695L277.306 161.091L277.023 160.529L276.644 160.015L276.178 159.558L275.634 159.166L275.023 158.847L274.354 158.61L273.636 158.461L272.88 158.41L272.123 158.461L271.405 158.609L270.736 158.847L270.125 159.166L269.581 159.558L269.115 160.015L268.736 160.529L268.453 161.091L268.276 161.695L268.215 162.331V192.726" stroke="#B3B3B3" stroke-width="2.23307"/>
<path d="M251.715 190.973H278.286V193.951L278.17 195.159L277.834 196.304L277.297 197.373L276.577 198.348L275.692 199.216L274.66 199.96L273.499 200.566L272.228 201.017L270.866 201.299L269.429 201.397H260.572L259.135 201.299L257.772 201.017L256.501 200.566L255.341 199.96L254.309 199.216L253.424 198.348L252.703 197.373L252.166 196.304L251.831 195.159L251.715 193.951V190.973Z" fill="#141414" stroke="#141414" stroke-width="1.67481"/>
<path d="M251.715 190.973H278.286V193.951H251.715V190.973Z" fill="#808080" stroke="#808080" stroke-width="1.67481"/>
<path d="M258.653 142.385C265.226 142.385 270.554 146.865 270.554 152.39C270.554 157.916 265.226 162.396 258.653 162.396C252.079 162.396 246.751 157.916 246.751 152.39C246.751 146.865 252.079 142.385 258.653 142.385Z" fill="white" fill-opacity="0.3"/>
<rect x="244" y="205.397" width="43.027" height="20" rx="5" fill="black"/>
<path d="M254.064 222.397V208.397H260.144C261.024 208.397 261.791 208.55 262.444 208.857C263.097 209.163 263.604 209.597 263.964 210.157C264.324 210.717 264.504 211.377 264.504 212.137V212.377C264.504 213.217 264.304 213.897 263.904 214.417C263.504 214.937 263.011 215.317 262.424 215.557V215.917C262.957 215.943 263.371 216.13 263.664 216.477C263.957 216.81 264.104 217.257 264.104 217.817V222.397H261.464V218.197C261.464 217.877 261.377 217.617 261.204 217.417C261.044 217.217 260.771 217.117 260.384 217.117H256.704V222.397H254.064ZM256.704 214.717H259.864C260.491 214.717 260.977 214.55 261.324 214.217C261.684 213.87 261.864 213.417 261.864 212.857V212.657C261.864 212.097 261.691 211.65 261.344 211.317C260.997 210.97 260.504 210.797 259.864 210.797H256.704V214.717ZM266.221 222.397V220.717C266.221 219.743 266.381 218.937 266.701 218.297C267.021 217.643 267.481 217.11 268.081 216.697C268.694 216.27 269.441 215.923 270.321 215.657L271.661 215.237C272.154 215.077 272.568 214.883 272.901 214.657C273.234 214.417 273.488 214.13 273.661 213.797C273.848 213.463 273.941 213.083 273.941 212.657V212.577C273.941 211.91 273.714 211.383 273.261 210.997C272.808 210.597 272.188 210.397 271.401 210.397C270.628 210.397 270.001 210.61 269.521 211.037C269.054 211.45 268.821 212.05 268.821 212.837V213.197H266.261V212.877C266.261 211.863 266.488 211.003 266.941 210.297C267.394 209.59 268.008 209.05 268.781 208.677C269.568 208.303 270.441 208.117 271.401 208.117C272.361 208.117 273.228 208.303 274.001 208.677C274.774 209.037 275.381 209.55 275.821 210.217C276.274 210.87 276.501 211.643 276.501 212.537V212.737C276.501 213.63 276.314 214.39 275.941 215.017C275.581 215.63 275.088 216.137 274.461 216.537C273.834 216.923 273.121 217.243 272.321 217.497L271.041 217.897C270.468 218.07 270.021 218.263 269.701 218.477C269.381 218.677 269.154 218.903 269.021 219.157C268.901 219.397 268.841 219.69 268.841 220.037V220.117H276.381V222.397H266.221Z" fill="white"/>
<rect x="245.217" y="83.3966" width="43.027" height="20" rx="5" fill="black"/>
<path d="M255.697 100.397V86.3966H261.777C262.657 86.3966 263.424 86.5499 264.077 86.8566C264.73 87.1633 265.237 87.5966 265.597 88.1566C265.957 88.7166 266.137 89.3766 266.137 90.1366V90.3766C266.137 91.2166 265.937 91.8966 265.537 92.4166C265.137 92.9366 264.644 93.3166 264.057 93.5566V93.9166C264.59 93.9433 265.004 94.1299 265.297 94.4766C265.59 94.8099 265.737 95.2566 265.737 95.8166V100.397H263.097V96.1966C263.097 95.8766 263.01 95.6166 262.837 95.4166C262.677 95.2166 262.404 95.1166 262.017 95.1166H258.337V100.397H255.697ZM258.337 92.7166H261.497C262.124 92.7166 262.61 92.5499 262.957 92.2166C263.317 91.8699 263.497 91.4166 263.497 90.8566V90.6566C263.497 90.0966 263.324 89.6499 262.977 89.3166C262.63 88.9699 262.137 88.7966 261.497 88.7966H258.337V92.7166ZM272.174 100.397V88.2766H271.814L269.934 92.7166H267.254L270.114 86.3966H274.734V100.397H272.174Z" fill="white"/>
<path d="M278.857 64.7867L278.914 63.7617L279.078 62.7609L279.344 61.7877L279.703 60.8453L280.148 59.9371L280.673 59.0664L281.27 58.2365L281.932 57.4507L282.651 56.7124L283.421 56.0248L285.624 54.0142L287.653 51.8095L289.496 49.4346L291.139 46.9136L292.566 44.2705L293.765 41.5291L294.722 38.7136L295.423 35.8479L295.853 32.9559L296 30.0618L295.607 25.4121L294.471 21.0014L292.651 16.8885L290.212 13.1325L287.213 9.79246L283.718 6.92735L279.787 4.59619L275.482 2.858L270.866 1.77182L266 1.39664L261.134 1.77182L256.518 2.858L252.213 4.59619L248.282 6.92735L244.787 9.79246L241.788 13.1325L239.349 16.8885L237.529 21.0014L236.393 25.4121L236 30.0618L236.147 32.9559L236.577 35.8479L237.278 38.7136L238.235 41.5291L239.434 44.2705L240.861 46.9136L242.504 49.4346L244.347 51.8095L246.376 54.0142L248.579 56.0248L249.349 56.7124L250.068 57.4507L250.73 58.2365L251.327 59.0664L251.852 59.9371L252.297 60.8453L252.656 61.7877L252.922 62.7609L253.086 63.7617L253.143 64.7867L253.238 65.9741L253.514 67.1006L253.955 68.1509L254.546 69.1101L255.273 69.9631L256.121 70.6948L257.074 71.2902L258.118 71.7341L259.237 72.0115L260.417 72.1073H271.583L272.763 72.0115L273.882 71.7341L274.926 71.2902L275.879 70.6948L276.727 69.9631L277.454 69.1101L278.045 68.1509L278.486 67.1006L278.762 65.9741L278.857 64.7867Z" fill="#F2F2F2" stroke="#B3B3B3" stroke-width="2.78497"/>
<path d="M262.897 65.8223V34.1955L262.816 33.1787L262.58 32.2142L262.202 31.3148L261.696 30.4935L261.073 29.7631L260.347 29.1366L259.531 28.6269L258.637 28.2468L257.679 28.0093L256.669 27.9273L256.178 27.9273L255.247 28.0029L254.364 28.2218L253.541 28.5719L252.79 29.0414L252.121 29.6185L251.548 30.2913L251.081 31.0478L250.733 31.8762L250.516 32.7646L250.441 33.7011L250.516 34.6377L250.733 35.5261L251.081 36.3545L251.548 37.111L252.121 37.7838L252.79 38.3609L253.541 38.8304L254.364 39.1805L255.247 39.3993L256.178 39.4749L257.05 39.4749L256.992 39.483H275.011L274.958 39.4749L275.831 39.4749L276.761 39.3993L277.644 39.1805L278.467 38.8304L279.219 38.3609L279.887 37.7838L280.461 37.111L280.927 36.3545L281.275 35.5261L281.493 34.6377L281.568 33.7011L281.493 32.7646L281.275 31.8762L280.927 31.0478L280.461 30.2913L279.887 29.6185L279.219 29.0414L278.467 28.5719L277.644 28.2218L276.762 28.0029L275.831 27.9273L275.34 27.9273L274.329 28.0093L273.371 28.2468L272.477 28.6269L271.661 29.1366L270.936 29.7631L270.313 30.4935L269.807 31.3148L269.429 32.2142L269.193 33.1787L269.111 34.1955V65.8223" stroke="#B3B3B3" stroke-width="2.22798"/>
<path d="M253.143 63.8856H278.858V67.1744L278.751 68.5081L278.441 69.7733L277.946 70.953L277.281 72.0303L276.465 72.9884L275.513 73.8102L274.442 74.4789L273.27 74.9774L272.013 75.289L270.688 75.3966H261.313L259.988 75.289L258.731 74.9774L257.559 74.4789L256.488 73.8102L255.536 72.9884L254.72 72.0303L254.055 70.953L253.56 69.7733L253.25 68.5081L253.143 67.1744V63.8856Z" fill="#141414" stroke="#141414" stroke-width="1.67098"/>
<path d="M253.143 63.8898H278.858V67.1787H253.143V63.8898Z" fill="#808080" stroke="#808080" stroke-width="1.67098"/>
<defs>
<clipPath id="clip0_227_877">
<rect width="540" height="250" fill="white" transform="translate(0 70.3966)"/>
</clipPath>
</defs>
</svg>
