<svg width="400" height="328" viewBox="0 0 400 328" fill="none" xmlns="http://www.w3.org/2000/svg">
<path d="M385 74V273H17V74H385Z" stroke="black" stroke-width="2"/>
<path d="M269.224 74.207L268.997 24.9316L138 25.5346L138.227 74.8099" stroke="black" stroke-width="2"/>
<path d="M237.754 96.9894H159.689C156.609 96.9894 154.113 94.3037 154.113 90.9907V54.9987C154.113 51.6857 156.609 49 159.689 49H237.754C240.834 49 243.33 51.6857 243.33 54.9987V90.9907C243.33 94.3037 240.834 96.9894 237.754 96.9894Z" fill="#CE6809"/>
<path d="M154.113 96.2386H212.662V49.749H154.113V96.2386Z" fill="#333333"/>
<path d="M212.662 66.9954H243.33V54.998H212.662V66.9954Z" fill="#E77A16"/>
<path d="M154.113 67.7411H212.662V55.7438H154.113V67.7411Z" fill="#4C4C4C"/>
<path d="M251.325 85.1124H245.749C244.209 85.1124 242.961 83.7696 242.961 82.1131V64.1171C242.961 62.4606 244.209 61.1178 245.749 61.1178H251.325C252.865 61.1178 254.113 62.4606 254.113 64.1171V82.1131C254.113 83.7696 252.865 85.1124 251.325 85.1124Z" fill="#333333"/>
<path d="M249.931 69.8118H244.355C243.585 69.8118 242.961 69.1403 242.961 68.3121V65.3128C242.961 64.4845 243.585 63.8131 244.355 63.8131H249.931C250.701 63.8131 251.325 64.4845 251.325 65.3128V68.3121C251.325 69.1403 250.701 69.8118 249.931 69.8118Z" fill="#4C4C4C"/>
<path d="M237.754 97H159.689C156.609 97 154.113 94.3143 154.113 91.0013V55.0093C154.113 51.6964 156.609 49.0107 159.689 49.0107H237.754C240.834 49.0107 243.33 51.6964 243.33 55.0093V91.0013C243.33 94.3143 240.834 97 237.754 97Z" stroke="#333333" stroke-width="2.78497"/>
<rect x="183.113" y="15" width="40" height="20" rx="5" fill="black"/>
<path d="M189.632 32V19.88H189.272L187.392 24.32H184.712L187.572 18H192.192V32H189.632ZM194.355 32V30.32C194.355 29.3467 194.515 28.54 194.835 27.9C195.155 27.2467 195.615 26.7133 196.215 26.3C196.828 25.8733 197.575 25.5267 198.455 25.26L199.795 24.84C200.288 24.68 200.702 24.4867 201.035 24.26C201.368 24.02 201.622 23.7333 201.795 23.4C201.982 23.0667 202.075 22.6867 202.075 22.26V22.18C202.075 21.5133 201.848 20.9867 201.395 20.6C200.942 20.2 200.322 20 199.535 20C198.762 20 198.135 20.2133 197.655 20.64C197.188 21.0533 196.955 21.6533 196.955 22.44V22.8H194.395V22.48C194.395 21.4667 194.622 20.6067 195.075 19.9C195.528 19.1933 196.142 18.6533 196.915 18.28C197.702 17.9067 198.575 17.72 199.535 17.72C200.495 17.72 201.362 17.9067 202.135 18.28C202.908 18.64 203.515 19.1533 203.955 19.82C204.408 20.4733 204.635 21.2467 204.635 22.14V22.34C204.635 23.2333 204.448 23.9933 204.075 24.62C203.715 25.2333 203.222 25.74 202.595 26.14C201.968 26.5267 201.255 26.8467 200.455 27.1L199.175 27.5C198.602 27.6733 198.155 27.8667 197.835 28.08C197.515 28.28 197.288 28.5067 197.155 28.76C197.035 29 196.975 29.2933 196.975 29.64V29.72H204.515V32H194.355ZM209.31 32L205.75 18H208.47L211.43 30.3H211.71L214.67 18H217.39L213.83 32H209.31Z" fill="white"/>
<path d="M290 273.266V295.284H346.25V273.266" stroke="black" stroke-width="2"/>
<rect x="296" y="286" width="43.027" height="20" rx="5" fill="black"/>
<path d="M315.845 298.4V297.92C315.845 297.24 315.978 296.68 316.245 296.24C316.525 295.8 316.971 295.433 317.585 295.14L317.925 294.98C318.525 294.7 318.985 294.4 319.305 294.08C319.625 293.76 319.785 293.333 319.785 292.8C319.785 292.413 319.685 292.087 319.485 291.82C319.298 291.54 319.031 291.327 318.685 291.18C318.338 291.033 317.931 290.96 317.465 290.96C316.985 290.96 316.551 291.04 316.165 291.2C315.791 291.36 315.491 291.6 315.265 291.92C315.051 292.24 314.945 292.64 314.945 293.12V293.56H312.345V293.16C312.345 292.24 312.571 291.447 313.025 290.78C313.478 290.113 314.091 289.607 314.865 289.26C315.638 288.9 316.505 288.72 317.465 288.72C318.411 288.72 319.251 288.893 319.985 289.24C320.731 289.587 321.318 290.067 321.745 290.68C322.171 291.293 322.385 292 322.385 292.8C322.385 293.6 322.238 294.26 321.945 294.78C321.651 295.287 321.278 295.7 320.825 296.02C320.385 296.327 319.931 296.593 319.465 296.82L319.125 296.98C318.885 297.087 318.718 297.22 318.625 297.38C318.531 297.527 318.485 297.747 318.485 298.04V298.4H315.845ZM317.245 303.28C316.711 303.28 316.258 303.107 315.885 302.76C315.525 302.4 315.345 301.94 315.345 301.38C315.345 300.82 315.525 300.367 315.885 300.02C316.258 299.66 316.711 299.48 317.245 299.48C317.791 299.48 318.245 299.66 318.605 300.02C318.965 300.367 319.145 300.82 319.145 301.38C319.145 301.94 318.965 302.4 318.605 302.76C318.245 303.107 317.791 303.28 317.245 303.28Z" fill="white"/>
<rect x="273" y="195" width="88" height="123" rx="9" stroke="#E5E5E5" stroke-width="2"/>
<path d="M294.154 206L292.507 206.135L290.944 206.524L289.488 207.148L288.157 207.985L286.974 209.013L285.959 210.211L285.133 211.559L284.518 213.035L284.133 214.618L284 216.286V236.858L284.135 239.242L284.53 241.546L285.169 243.755L286.039 245.853L287.123 247.825L288.408 249.657L289.878 251.333L291.517 252.838L293.312 254.157L295.248 255.275L296.629 256.03L297.971 256.885L299.251 257.837L300.441 258.882L301.517 260.018L302.455 261.242L303.228 262.549L303.811 263.937L304.179 265.402L304.308 266.942L304.406 268.18L304.692 269.354L305.149 270.449L305.761 271.449L306.514 272.339L307.392 273.101L308.379 273.722L309.46 274.185L310.619 274.474L311.841 274.574H322.159L323.381 274.474L324.54 274.185L325.621 273.722L326.608 273.101L327.486 272.339L328.239 271.449L328.851 270.449L329.308 269.354L329.594 268.18L329.692 266.942L329.821 265.402L330.189 263.937L330.772 262.549L331.545 261.242L332.483 260.018L333.559 258.882L334.749 257.837L336.029 256.885L337.371 256.03L338.752 255.275L340.688 254.157L342.483 252.838L344.122 251.333L345.592 249.657L346.877 247.825L347.961 245.853L348.831 243.755L349.47 241.546L349.865 239.242L350 236.858V216.286L349.867 214.618L349.482 213.035L348.867 211.559L348.041 210.211L347.026 209.013L345.843 207.985L344.512 207.148L343.056 206.524L341.493 206.135L339.846 206H294.154Z" fill="#F2F2F2" stroke="#B3B3B3" stroke-width="2.78497"/>
<path d="M313.937 267.016V234.937L313.864 234.011L313.65 233.132L313.308 232.312L312.849 231.563L312.286 230.898L311.628 230.327L310.889 229.862L310.08 229.516L309.213 229.299L308.298 229.224L303.352 229.225L302.525 229.292L301.741 229.488L301.01 229.801L300.342 230.221L299.749 230.737L299.239 231.338L298.825 232.014L298.516 232.755L298.323 233.549L298.256 234.387L298.323 235.224L298.516 236.018L298.825 236.759L299.239 237.435L299.749 238.037L300.342 238.553L301.01 238.972L301.741 239.286L302.525 239.481L303.352 239.549L308.165 239.549L308.108 239.557H325.896L325.844 239.549L330.657 239.549L331.484 239.481L332.268 239.286L332.999 238.972L333.667 238.553L334.261 238.037L334.77 237.435L335.184 236.759L335.493 236.018L335.686 235.224L335.753 234.387L335.686 233.549L335.493 232.755L335.184 232.014L334.77 231.338L334.261 230.737L333.667 230.221L332.999 229.801L332.268 229.488L331.484 229.292L330.658 229.225L325.711 229.224L324.797 229.299L323.929 229.516L323.12 229.862L322.381 230.327L321.724 230.898L321.16 231.563L320.701 232.312L320.359 233.132L320.146 234.011L320.072 234.937V267.016" stroke="#B3B3B3" stroke-width="2.22798"/>
<path d="M304.308 266.001H329.692V269.43H304.308V266.001Z" fill="#808080" stroke="#808080" stroke-width="1.67098"/>
<path d="M304.308 266H329.692V269.428L329.581 270.819L329.261 272.138L328.748 273.367L328.06 274.491L327.214 275.489L326.228 276.346L325.119 277.043L323.905 277.563L322.603 277.888L321.231 278H312.769L311.397 277.888L310.095 277.563L308.881 277.043L307.772 276.346L306.786 275.489L305.94 274.491L305.252 273.367L304.739 272.138L304.418 270.819L304.308 269.428V266Z" fill="#141414" stroke="#141414" stroke-width="1.67098"/>
<path d="M60.2168 272.266V294.284H116.467V272.266" stroke="black" stroke-width="2"/>
<rect x="66.2168" y="285" width="43.027" height="20" rx="5" fill="black"/>
<path d="M75.7362 302V289.88H75.3762L73.4962 294.32H70.8162L73.6762 288H78.2962V302H75.7362ZM80.4591 302V300.32C80.4591 299.347 80.6191 298.54 80.9391 297.9C81.2591 297.247 81.7191 296.713 82.3191 296.3C82.9325 295.873 83.6791 295.527 84.5591 295.26L85.8991 294.84C86.3925 294.68 86.8058 294.487 87.1391 294.26C87.4725 294.02 87.7258 293.733 87.8991 293.4C88.0858 293.067 88.1791 292.687 88.1791 292.26V292.18C88.1791 291.513 87.9525 290.987 87.4991 290.6C87.0458 290.2 86.4258 290 85.6391 290C84.8658 290 84.2391 290.213 83.7591 290.64C83.2925 291.053 83.0591 291.653 83.0591 292.44V292.8H80.4991V292.48C80.4991 291.467 80.7258 290.607 81.1791 289.9C81.6325 289.193 82.2458 288.653 83.0191 288.28C83.8058 287.907 84.6791 287.72 85.6391 287.72C86.5991 287.72 87.4658 287.907 88.2391 288.28C89.0125 288.64 89.6191 289.153 90.0591 289.82C90.5125 290.473 90.7391 291.247 90.7391 292.14V292.34C90.7391 293.233 90.5525 293.993 90.1791 294.62C89.8191 295.233 89.3258 295.74 88.6991 296.14C88.0725 296.527 87.3591 296.847 86.5591 297.1L85.2791 297.5C84.7058 297.673 84.2591 297.867 83.9391 298.08C83.6191 298.28 83.3925 298.507 83.2591 298.76C83.1391 299 83.0791 299.293 83.0791 299.64V299.72H90.6191V302H80.4591ZM95.4141 302L91.8541 288H94.5741L97.5341 300.3H97.8141L100.774 288H103.494L99.9341 302H95.4141Z" fill="white"/>
<path d="M99.8572 266.39L99.9136 265.365L100.078 264.364L100.344 263.391L100.703 262.449L101.148 261.54L101.673 260.67L102.27 259.84L102.932 259.054L103.651 258.316L104.421 257.628L106.624 255.618L108.653 253.413L110.496 251.038L112.139 248.517L113.566 245.874L114.765 243.133L115.722 240.317L116.423 237.451L116.853 234.559L117 231.665L116.607 227.016L115.471 222.605L113.651 218.492L111.212 214.736L108.213 211.396L104.718 208.531L100.787 206.2L96.4823 204.461L91.8662 203.375L87 203L82.1338 203.375L77.5177 204.461L73.2133 206.2L69.2824 208.531L65.7868 211.396L62.7883 214.736L60.3485 218.492L58.5294 222.605L57.3927 227.016L57 231.665L57.1466 234.559L57.5772 237.451L58.2778 240.317L59.2347 243.133L60.4338 245.874L61.8614 248.517L63.5036 251.038L65.3465 253.413L67.3762 255.618L69.5789 257.628L70.3486 258.316L71.068 259.054L71.7298 259.84L72.3267 260.67L72.8516 261.54L73.2972 262.449L73.6564 263.391L73.9218 264.364L74.0864 265.365L74.1429 266.39L74.2381 267.578L74.5137 268.704L74.9548 269.754L75.5463 270.714L76.2733 271.567L77.1209 272.298L78.074 272.894L79.1176 273.337L80.2369 273.615L81.4167 273.711H92.5833L93.7632 273.615L94.8824 273.337L95.926 272.894L96.8791 272.298L97.7267 271.567L98.4537 270.714L99.0453 269.754L99.4863 268.704L99.7619 267.578L99.8572 266.39Z" fill="#F2F2F2" stroke="#B3B3B3" stroke-width="2.78497"/>
<path d="M83.8972 267.426V235.799L83.8157 234.782L83.5797 233.818L83.202 232.918L82.6955 232.097L82.073 231.367L81.3472 230.74L80.5311 230.23L79.6375 229.85L78.6791 229.613L77.6688 229.531L77.1776 229.531L76.247 229.606L75.3643 229.825L74.5412 230.175L73.7896 230.645L73.1211 231.222L72.5477 231.895L72.0812 232.651L71.7334 233.48L71.516 234.368L71.4409 235.305L71.516 236.241L71.7334 237.129L72.0812 237.958L72.5478 238.714L73.1212 239.387L73.7896 239.964L74.5413 240.434L75.3644 240.784L76.2472 241.003L77.1777 241.078L78.0503 241.078L77.9917 241.086H96.0111L95.9583 241.078L96.8308 241.078L97.7614 241.003L98.6441 240.784L99.4672 240.434L100.219 239.964L100.887 239.387L101.461 238.714L101.927 237.958L102.275 237.129L102.493 236.241L102.568 235.305L102.493 234.368L102.275 233.48L101.927 232.651L101.461 231.895L100.887 231.222L100.219 230.645L99.4673 230.175L98.6442 229.825L97.7615 229.606L96.831 229.531L96.3398 229.531L95.3295 229.613L94.3711 229.85L93.4774 230.23L92.6613 230.74L91.9356 231.367L91.3131 232.097L90.8065 232.918L90.4289 233.818L90.1928 234.782L90.1113 235.799V267.426" stroke="#B3B3B3" stroke-width="2.22798"/>
<path d="M74.1433 265.489H99.8576V268.778L99.7507 270.112L99.4411 271.377L98.9457 272.556L98.2813 273.634L97.4648 274.592L96.5128 275.414L95.4424 276.082L94.2702 276.581L93.0131 276.892L91.688 277H82.313L80.9878 276.892L79.7307 276.581L78.5585 276.082L77.4881 275.414L76.5361 274.592L75.7196 273.634L75.0552 272.556L74.5598 271.377L74.2502 270.112L74.1433 268.778V265.489Z" fill="#141414" stroke="#141414" stroke-width="1.67098"/>
<path d="M74.1433 265.493H99.8576V268.782H74.1433V265.493Z" fill="#808080" stroke="#808080" stroke-width="1.67098"/>
</svg>
