<svg width="558" height="381" viewBox="0 0 558 381" fill="none" xmlns="http://www.w3.org/2000/svg">
<mask id="mask0_178_422" style="mask-type:luminance" maskUnits="userSpaceOnUse" x="18" y="25" width="540" height="329">
<path d="M558 25.3818H18V353.382H558V25.3818Z" fill="white"/>
</mask>
<g mask="url(#mask0_178_422)">
<path d="M19 256.382V352.382H557V256.382M19 256.382H557M19 256.382V144.382M557 256.382V144.382M19 144.382V26.3818H557V144.382M19 144.382H557" stroke="black" stroke-width="2"/>
</g>
<path d="M329.641 49.3711H251.576C248.496 49.3711 246 46.6854 246 43.3724V7.38042C246 4.06744 248.496 1.38175 251.576 1.38175H329.641C332.721 1.38175 335.217 4.06744 335.217 7.38042V43.3724C335.217 46.6854 332.721 49.3711 329.641 49.3711Z" fill="#CE6809"/>
<path d="M246 48.6201H304.549V2.13044H246V48.6201Z" fill="#333333"/>
<path d="M304.549 19.377H335.218V7.37962H304.549V19.377Z" fill="#E77A16"/>
<path d="M246 20.123H304.549V8.12571H246V20.123Z" fill="#4C4C4C"/>
<path d="M343.212 37.4941H337.636C336.096 37.4941 334.848 36.1513 334.848 34.4948V16.4988C334.848 14.8423 336.096 13.4995 337.636 13.4995H343.212C344.752 13.4995 346 14.8423 346 16.4988V34.4948C346 36.1513 344.752 37.4941 343.212 37.4941Z" fill="#333333"/>
<path d="M341.818 22.1934H336.242C335.472 22.1934 334.848 21.5219 334.848 20.6937V17.6944C334.848 16.8661 335.472 16.1947 336.242 16.1947H341.818C342.588 16.1947 343.212 16.8661 343.212 17.6944V20.6937C343.212 21.5219 342.588 22.1934 341.818 22.1934Z" fill="#4C4C4C"/>
<path d="M329.641 49.3818H251.576C248.496 49.3818 246 46.6961 246 43.3832V7.39116C246 4.07819 248.496 1.39249 251.576 1.39249H329.641C332.721 1.39249 335.217 4.07819 335.217 7.39116V43.3832C335.217 46.6961 332.721 49.3818 329.641 49.3818Z" stroke="#333333" stroke-width="2.78497"/>
<rect x="109" y="321.382" width="58" height="58" rx="9" fill="#F7F7F7" stroke="#E5E5E5" stroke-width="2"/>
<circle cx="139" cy="351.545" r="15.625" fill="black"/>
<path d="M137.086 355.295V354.815C137.086 354.135 137.22 353.575 137.486 353.135C137.766 352.695 138.213 352.328 138.826 352.035L139.166 351.875C139.766 351.595 140.226 351.295 140.546 350.975C140.866 350.655 141.026 350.228 141.026 349.695C141.026 349.308 140.926 348.981 140.726 348.715C140.54 348.435 140.273 348.221 139.926 348.075C139.58 347.928 139.173 347.855 138.706 347.855C138.226 347.855 137.793 347.935 137.406 348.095C137.033 348.255 136.733 348.495 136.506 348.815C136.293 349.135 136.186 349.535 136.186 350.015V350.455H133.586V350.055C133.586 349.135 133.813 348.341 134.266 347.675C134.72 347.008 135.333 346.501 136.106 346.155C136.88 345.795 137.746 345.615 138.706 345.615C139.653 345.615 140.493 345.788 141.226 346.135C141.973 346.481 142.56 346.961 142.986 347.575C143.413 348.188 143.626 348.895 143.626 349.695C143.626 350.495 143.48 351.155 143.186 351.675C142.893 352.181 142.52 352.595 142.066 352.915C141.626 353.221 141.173 353.488 140.706 353.715L140.366 353.875C140.126 353.981 139.96 354.115 139.866 354.275C139.773 354.421 139.726 354.641 139.726 354.935V355.295H137.086ZM138.486 360.175C137.953 360.175 137.5 360.001 137.126 359.655C136.766 359.295 136.586 358.835 136.586 358.275C136.586 357.715 136.766 357.261 137.126 356.915C137.5 356.555 137.953 356.375 138.486 356.375C139.033 356.375 139.486 356.555 139.846 356.915C140.206 357.261 140.386 357.715 140.386 358.275C140.386 358.835 140.206 359.295 139.846 359.655C139.486 360.001 139.033 360.175 138.486 360.175Z" fill="white"/>
<circle cx="136" cy="255.382" r="21" fill="#463B3B"/>
<path d="M130.705 262.382V259.542H123.825V256.582L128.665 248.382H133.265V257.262H135.585V259.542H133.265V262.382H130.705ZM126.265 257.262H130.705V250.022H130.345L126.265 256.942V257.262ZM136.38 262.382L140.06 248.382H144.66L148.34 262.382H145.62L144.86 259.302H139.86L139.1 262.382H136.38ZM140.48 256.862H144.24L142.54 250.042H142.18L140.48 256.862Z" fill="white"/>
<circle cx="136" cy="145.382" r="21" fill="#463B3B"/>
<path d="M125.065 152.382V150.702C125.065 149.729 125.225 148.922 125.545 148.282C125.865 147.629 126.325 147.095 126.925 146.682C127.538 146.255 128.285 145.909 129.165 145.642L130.505 145.222C130.998 145.062 131.411 144.869 131.745 144.642C132.078 144.402 132.331 144.115 132.505 143.782C132.691 143.449 132.785 143.069 132.785 142.642V142.562C132.785 141.895 132.558 141.369 132.105 140.982C131.651 140.582 131.031 140.382 130.245 140.382C129.471 140.382 128.845 140.595 128.365 141.022C127.898 141.435 127.665 142.035 127.665 142.822V143.182H125.105V142.862C125.105 141.849 125.331 140.989 125.785 140.282C126.238 139.575 126.851 139.035 127.625 138.662C128.411 138.289 129.285 138.102 130.245 138.102C131.205 138.102 132.071 138.289 132.845 138.662C133.618 139.022 134.225 139.535 134.665 140.202C135.118 140.855 135.345 141.629 135.345 142.522V142.722C135.345 143.615 135.158 144.375 134.785 145.002C134.425 145.615 133.931 146.122 133.305 146.522C132.678 146.909 131.965 147.229 131.165 147.482L129.885 147.882C129.311 148.055 128.865 148.249 128.545 148.462C128.225 148.662 127.998 148.889 127.865 149.142C127.745 149.382 127.685 149.675 127.685 150.022V150.102H135.225V152.382H125.065ZM136.46 152.382L140.14 138.382H144.74L148.42 152.382H145.7L144.94 149.302H139.94L139.18 152.382H136.46ZM140.56 146.862H144.32L142.62 140.042H142.26L140.56 146.862Z" fill="white"/>
<circle cx="21" cy="74.3818" r="21" fill="#463B3B"/>
<path d="M10.2791 81.3818V69.2618H9.91914L8.03914 73.7018H5.35914L8.21914 67.3818H12.8391V81.3818H10.2791ZM19.3221 81.3818V69.2618H18.9621L17.0821 73.7018H14.4021L17.2621 67.3818H21.8821V81.3818H19.3221ZM23.5651 81.3818L27.2451 67.3818H31.8451L35.5251 81.3818H32.8051L32.0451 78.3018H27.0451L26.2851 81.3818H23.5651ZM27.6651 75.8618H31.4251L29.7251 69.0418H29.3651L27.6651 75.8618Z" fill="white"/>
<path d="M440.154 283.382L438.507 283.517L436.944 283.907L435.488 284.53L434.157 285.367L432.974 286.395L431.959 287.593L431.133 288.941L430.518 290.417L430.133 292L430 293.668V314.24L430.135 316.624L430.53 318.928L431.169 321.137L432.039 323.235L433.123 325.208L434.408 327.039L435.878 328.715L437.517 330.22L439.312 331.539L441.248 332.657L442.629 333.412L443.971 334.267L445.251 335.219L446.441 336.265L447.517 337.401L448.455 338.624L449.228 339.931L449.811 341.319L450.179 342.784L450.308 344.324L450.406 345.562L450.692 346.736L451.149 347.831L451.761 348.831L452.514 349.721L453.392 350.484L454.379 351.104L455.46 351.567L456.619 351.856L457.841 351.956H468.159L469.381 351.856L470.54 351.567L471.621 351.104L472.608 350.484L473.486 349.721L474.239 348.831L474.851 347.831L475.308 346.736L475.594 345.562L475.692 344.324L475.821 342.784L476.189 341.319L476.772 339.931L477.545 338.624L478.483 337.401L479.559 336.265L480.749 335.219L482.029 334.267L483.371 333.412L484.752 332.657L486.688 331.539L488.483 330.22L490.122 328.715L491.592 327.039L492.877 325.208L493.961 323.235L494.831 321.137L495.47 318.928L495.865 316.624L496 314.24V293.668L495.867 292L495.482 290.417L494.867 288.941L494.041 287.593L493.026 286.395L491.843 285.367L490.512 284.53L489.056 283.907L487.493 283.517L485.846 283.382H440.154Z" fill="#F2F2F2" stroke="#B3B3B3" stroke-width="2.78497"/>
<path d="M440.154 283.382L438.507 283.517L436.944 283.907L435.488 284.53L434.157 285.367L432.974 286.395L431.959 287.593L431.133 288.941L430.518 290.417L430.133 292L430 293.668V314.24L430.135 316.624L430.53 318.928L431.169 321.137L432.039 323.235L433.123 325.208L434.408 327.039L435.878 328.715L437.517 330.22L439.312 331.539L441.248 332.657L442.629 333.412L443.971 334.267L445.251 335.219L446.441 336.265L447.517 337.401L448.455 338.624L449.228 339.931L449.811 341.319L450.179 342.784L450.308 344.324L450.406 345.562L450.692 346.736L451.149 347.831L451.761 348.831L452.514 349.721L453.392 350.484L454.379 351.104L455.46 351.567L456.619 351.856L457.841 351.956H468.159L469.381 351.856L470.54 351.567L471.621 351.104L472.608 350.484L473.486 349.721L474.239 348.831L474.851 347.831L475.308 346.736L475.594 345.562L475.692 344.324L475.821 342.784L476.189 341.319L476.772 339.931L477.545 338.624L478.483 337.401L479.559 336.265L480.749 335.219L482.029 334.267L483.371 333.412L484.752 332.657L486.688 331.539L488.483 330.22L490.122 328.715L491.592 327.039L492.877 325.208L493.961 323.235L494.831 321.137L495.47 318.928L495.865 316.624L496 314.24V293.668L495.867 292L495.482 290.417L494.867 288.941L494.041 287.593L493.026 286.395L491.843 285.367L490.512 284.53L489.056 283.907L487.493 283.517L485.846 283.382H440.154Z" fill="#F2F2F2" stroke="#B3B3B3" stroke-width="2.78497"/>
<path d="M459.937 344.398V312.319L459.864 311.393L459.65 310.514L459.308 309.694L458.849 308.945L458.286 308.28L457.628 307.709L456.889 307.244L456.08 306.898L455.213 306.681L454.298 306.607L449.352 306.607L448.525 306.674L447.741 306.87L447.01 307.183L446.342 307.603L445.749 308.119L445.239 308.72L444.825 309.397L444.516 310.137L444.323 310.932L444.256 311.769L444.323 312.606L444.516 313.4L444.825 314.141L445.239 314.817L445.749 315.419L446.342 315.935L447.01 316.355L447.741 316.668L448.525 316.863L449.352 316.931L454.165 316.931L454.108 316.939H471.896L471.844 316.931L476.657 316.931L477.484 316.863L478.268 316.668L478.999 316.355L479.667 315.935L480.261 315.419L480.77 314.817L481.184 314.141L481.493 313.4L481.686 312.606L481.753 311.769L481.686 310.932L481.493 310.137L481.184 309.397L480.77 308.72L480.261 308.119L479.667 307.603L478.999 307.183L478.268 306.87L477.484 306.674L476.658 306.607L471.711 306.607L470.797 306.681L469.929 306.898L469.12 307.244L468.381 307.709L467.724 308.28L467.16 308.945L466.701 309.694L466.359 310.514L466.146 311.393L466.072 312.319V344.398" stroke="#B3B3B3" stroke-width="2.22798"/>
<path d="M450.308 343.383H475.692V346.812H450.308V343.383Z" fill="#808080" stroke="#808080" stroke-width="1.67098"/>
<path d="M450.308 343.381H475.692V346.81L475.581 348.2L475.261 349.519L474.748 350.749L474.06 351.872L473.214 352.871L472.228 353.728L471.119 354.425L469.905 354.945L468.603 355.27L467.231 355.382H458.769L457.397 355.27L456.095 354.945L454.881 354.425L453.772 353.728L452.786 352.871L451.94 351.872L451.252 350.749L450.739 349.519L450.418 348.2L450.308 346.81V343.381Z" fill="#141414" stroke="#141414" stroke-width="1.67098"/>
<path d="M267.662 313.48L266.98 314.373L266.365 315.296L265.819 316.246L265.343 317.221L264.937 318.216L264.602 319.23L264.34 320.26L264.152 321.303L264.038 322.357L264 323.418L264.118 325.295L264.463 327.114L265.023 328.866L265.787 330.541L266.743 332.129L267.878 333.619L269.181 335.002L270.639 336.268L272.241 337.405L273.974 338.406L275.179 339.07L276.341 339.802L277.44 340.598L278.456 341.455L279.369 342.373L280.161 343.347L280.811 344.377L281.3 345.459L281.607 346.592L281.714 347.773L281.817 348.848L282.116 349.868L282.595 350.82L283.236 351.688L284.024 352.461L284.943 353.123L285.976 353.662L287.108 354.064L288.321 354.316L289.6 354.402H300.4L301.679 354.316L302.892 354.064L304.024 353.662L305.057 353.123L305.976 352.461L306.764 351.688L307.405 350.82L307.884 349.868L308.182 348.848L308.286 347.773L308.393 346.592L308.7 345.459L309.189 344.377L309.839 343.347L310.631 342.373L311.544 341.455L312.56 340.598L313.659 339.802L314.821 339.07L316.026 338.406L317.759 337.405L319.361 336.268L320.819 335.002L322.122 333.619L323.257 332.129L324.213 330.541L324.977 328.866L325.537 327.114L325.882 325.295L326 323.418L325.962 322.357L325.848 321.303L325.66 320.26L325.398 319.23L325.063 318.216L324.657 317.221L324.181 316.246L323.635 315.296L323.02 314.373L322.338 313.48L299.384 285.323L298.682 284.624L297.864 284.08L296.958 283.691L295.994 283.458L295 283.381L294.006 283.458L293.042 283.691L292.136 284.08L291.318 284.624L290.616 285.323L267.662 313.48Z" fill="#F2F2F2" stroke="#B3B3B3" stroke-width="2.79134"/>
<path d="M291.794 348.71V318.315L291.732 317.679L291.556 317.075L291.273 316.513L290.893 315.999L290.427 315.542L289.884 315.15L289.273 314.831L288.603 314.593L287.885 314.445L287.129 314.394L286.372 314.445L285.655 314.594L284.985 314.831L284.374 315.15L283.831 315.542L283.365 315.999L282.985 316.513L282.703 317.075L282.526 317.679L282.465 318.315V322.088L282.554 323.019L282.813 323.902L283.227 324.726L283.783 325.478L284.465 326.147L285.261 326.721L286.156 327.188L287.136 327.536L288.187 327.754L289.295 327.829L288.8 327.836H301.2L300.714 327.829L301.822 327.754L302.873 327.536L303.853 327.188L304.747 326.721L305.543 326.147L306.226 325.478L306.781 324.726L307.195 323.902L307.454 323.019L307.544 322.088V318.315L307.483 317.679L307.306 317.075L307.023 316.513L306.644 315.999L306.178 315.542L305.634 315.15L305.023 314.831L304.354 314.594L303.636 314.445L302.88 314.394L302.123 314.445L301.405 314.593L300.736 314.831L300.125 315.15L299.581 315.542L299.115 315.999L298.736 316.513L298.453 317.075L298.276 317.679L298.215 318.315V348.71" stroke="#B3B3B3" stroke-width="2.23307"/>
<path d="M281.715 346.957H308.286V349.935L308.17 351.143L307.834 352.289L307.297 353.357L306.577 354.332L305.692 355.2L304.66 355.944L303.499 356.55L302.228 357.001L300.866 357.283L299.429 357.381H290.572L289.135 357.283L287.772 357.001L286.501 356.55L285.341 355.944L284.309 355.2L283.424 354.332L282.703 353.357L282.166 352.289L281.831 351.143L281.715 349.935V346.957Z" fill="#141414" stroke="#141414" stroke-width="1.67481"/>
<path d="M281.715 346.957H308.286V349.936H281.715V346.957Z" fill="#808080" stroke="#808080" stroke-width="1.67481"/>
<path d="M288.653 298.37C295.226 298.37 300.554 302.849 300.554 308.375C300.554 313.9 295.226 318.38 288.653 318.38C282.079 318.38 276.751 313.9 276.751 308.375C276.751 302.849 282.079 298.37 288.653 298.37Z" fill="white" fill-opacity="0.3"/>
<path d="M473.857 248.772L473.914 247.747L474.078 246.746L474.344 245.773L474.703 244.831L475.148 243.923L475.673 243.052L476.27 242.222L476.932 241.436L477.651 240.698L478.421 240.01L480.624 238L482.653 235.795L484.496 233.42L486.139 230.899L487.566 228.256L488.765 225.515L489.722 222.699L490.423 219.833L490.853 216.941L491 214.047L490.607 209.398L489.471 204.987L487.651 200.874L485.212 197.118L482.213 193.778L478.718 190.913L474.787 188.582L470.482 186.843L465.866 185.757L461 185.382L456.134 185.757L451.518 186.843L447.213 188.582L443.282 190.913L439.787 193.778L436.788 197.118L434.349 200.874L432.529 204.987L431.393 209.398L431 214.047L431.147 216.941L431.577 219.833L432.278 222.699L433.235 225.515L434.434 228.256L435.861 230.899L437.504 233.42L439.347 235.795L441.376 238L443.579 240.01L444.349 240.698L445.068 241.436L445.73 242.222L446.327 243.052L446.852 243.923L447.297 244.831L447.656 245.773L447.922 246.746L448.086 247.747L448.143 248.772L448.238 249.96L448.514 251.086L448.955 252.136L449.546 253.096L450.273 253.949L451.121 254.68L452.074 255.276L453.118 255.72L454.237 255.997L455.417 256.093H466.583L467.763 255.997L468.882 255.72L469.926 255.276L470.879 254.68L471.727 253.949L472.454 253.096L473.045 252.136L473.486 251.086L473.762 249.96L473.857 248.772Z" fill="#F2F2F2" stroke="#B3B3B3" stroke-width="2.78497"/>
<path d="M457.897 249.808V218.181L457.816 217.164L457.58 216.2L457.202 215.3L456.696 214.479L456.073 213.748L455.347 213.122L454.531 212.612L453.637 212.232L452.679 211.995L451.669 211.913L451.178 211.913L450.247 211.988L449.364 212.207L448.541 212.557L447.79 213.027L447.121 213.604L446.548 214.277L446.081 215.033L445.733 215.862L445.516 216.75L445.441 217.686L445.516 218.623L445.733 219.511L446.081 220.34L446.548 221.096L447.121 221.769L447.79 222.346L448.541 222.816L449.364 223.166L450.247 223.385L451.178 223.46L452.05 223.46L451.992 223.468H470.011L469.958 223.46L470.831 223.46L471.761 223.385L472.644 223.166L473.467 222.816L474.219 222.346L474.887 221.769L475.461 221.096L475.927 220.34L476.275 219.511L476.493 218.623L476.568 217.686L476.493 216.75L476.275 215.862L475.927 215.033L475.461 214.277L474.887 213.604L474.219 213.027L473.467 212.557L472.644 212.207L471.762 211.988L470.831 211.913L470.34 211.913L469.329 211.995L468.371 212.232L467.477 212.612L466.661 213.122L465.936 213.748L465.313 214.479L464.807 215.3L464.429 216.2L464.193 217.164L464.111 218.181V249.808" stroke="#B3B3B3" stroke-width="2.22798"/>
<path d="M448.143 247.871H473.858V251.16L473.751 252.493L473.441 253.759L472.946 254.938L472.281 256.016L471.465 256.974L470.513 257.795L469.442 258.464L468.27 258.963L467.013 259.274L465.688 259.382H456.313L454.988 259.274L453.731 258.963L452.559 258.464L451.488 257.795L450.536 256.974L449.72 256.016L449.055 254.938L448.56 253.759L448.25 252.493L448.143 251.16V247.871Z" fill="#141414" stroke="#141414" stroke-width="1.67098"/>
<path d="M448.143 247.875H473.858V251.164H448.143V247.875Z" fill="#808080" stroke="#808080" stroke-width="1.67098"/>
<path d="M271.154 188.382L269.507 188.517L267.944 188.907L266.488 189.53L265.157 190.367L263.974 191.395L262.959 192.593L262.133 193.941L261.518 195.417L261.133 197L261 198.668V219.24L261.135 221.624L261.53 223.928L262.169 226.137L263.039 228.235L264.123 230.208L265.408 232.039L266.878 233.715L268.517 235.22L270.312 236.539L272.248 237.657L273.629 238.412L274.971 239.267L276.251 240.219L277.441 241.265L278.517 242.401L279.455 243.624L280.228 244.931L280.811 246.319L281.179 247.784L281.308 249.324L281.406 250.562L281.692 251.736L282.149 252.831L282.761 253.831L283.514 254.721L284.392 255.484L285.379 256.104L286.46 256.567L287.619 256.856L288.841 256.956H299.159L300.381 256.856L301.54 256.567L302.621 256.104L303.608 255.484L304.486 254.721L305.239 253.831L305.851 252.831L306.308 251.736L306.594 250.562L306.692 249.324L306.821 247.784L307.189 246.319L307.772 244.931L308.545 243.624L309.483 242.401L310.559 241.265L311.749 240.219L313.029 239.267L314.371 238.412L315.752 237.657L317.688 236.539L319.483 235.22L321.122 233.715L322.592 232.039L323.877 230.208L324.961 228.235L325.831 226.137L326.47 223.928L326.865 221.624L327 219.24V198.668L326.867 197L326.482 195.417L325.867 193.941L325.041 192.593L324.026 191.395L322.843 190.367L321.512 189.53L320.056 188.907L318.493 188.517L316.846 188.382H271.154Z" fill="#F2F2F2" stroke="#B3B3B3" stroke-width="2.78497"/>
<path d="M271.154 188.382L269.507 188.517L267.944 188.907L266.488 189.53L265.157 190.367L263.974 191.395L262.959 192.593L262.133 193.941L261.518 195.417L261.133 197L261 198.668V219.24L261.135 221.624L261.53 223.928L262.169 226.137L263.039 228.235L264.123 230.208L265.408 232.039L266.878 233.715L268.517 235.22L270.312 236.539L272.248 237.657L273.629 238.412L274.971 239.267L276.251 240.219L277.441 241.265L278.517 242.401L279.455 243.624L280.228 244.931L280.811 246.319L281.179 247.784L281.308 249.324L281.406 250.562L281.692 251.736L282.149 252.831L282.761 253.831L283.514 254.721L284.392 255.484L285.379 256.104L286.46 256.567L287.619 256.856L288.841 256.956H299.159L300.381 256.856L301.54 256.567L302.621 256.104L303.608 255.484L304.486 254.721L305.239 253.831L305.851 252.831L306.308 251.736L306.594 250.562L306.692 249.324L306.821 247.784L307.189 246.319L307.772 244.931L308.545 243.624L309.483 242.401L310.559 241.265L311.749 240.219L313.029 239.267L314.371 238.412L315.752 237.657L317.688 236.539L319.483 235.22L321.122 233.715L322.592 232.039L323.877 230.208L324.961 228.235L325.831 226.137L326.47 223.928L326.865 221.624L327 219.24V198.668L326.867 197L326.482 195.417L325.867 193.941L325.041 192.593L324.026 191.395L322.843 190.367L321.512 189.53L320.056 188.907L318.493 188.517L316.846 188.382H271.154Z" fill="#F2F2F2" stroke="#B3B3B3" stroke-width="2.78497"/>
<path d="M290.937 249.398V217.319L290.864 216.393L290.65 215.514L290.308 214.694L289.849 213.945L289.286 213.28L288.628 212.709L287.889 212.244L287.08 211.898L286.213 211.681L285.298 211.607L280.352 211.607L279.525 211.674L278.741 211.87L278.01 212.183L277.342 212.603L276.749 213.119L276.239 213.72L275.825 214.397L275.516 215.137L275.323 215.932L275.256 216.769L275.323 217.606L275.516 218.4L275.825 219.141L276.239 219.817L276.749 220.419L277.342 220.935L278.01 221.355L278.741 221.668L279.525 221.863L280.352 221.931L285.165 221.931L285.108 221.939H302.896L302.844 221.931L307.657 221.931L308.484 221.863L309.268 221.668L309.999 221.355L310.667 220.935L311.261 220.419L311.77 219.817L312.184 219.141L312.493 218.4L312.686 217.606L312.753 216.769L312.686 215.932L312.493 215.137L312.184 214.397L311.77 213.72L311.261 213.119L310.667 212.603L309.999 212.183L309.268 211.87L308.484 211.674L307.658 211.607L302.711 211.607L301.797 211.681L300.929 211.898L300.12 212.244L299.381 212.709L298.724 213.28L298.16 213.945L297.701 214.694L297.359 215.514L297.146 216.393L297.072 217.319V249.398" stroke="#B3B3B3" stroke-width="2.22798"/>
<path d="M281.308 248.383H306.692V251.812H281.308V248.383Z" fill="#808080" stroke="#808080" stroke-width="1.67098"/>
<path d="M281.308 248.381H306.692V251.81L306.581 253.2L306.261 254.519L305.748 255.749L305.06 256.872L304.214 257.871L303.228 258.728L302.119 259.425L300.905 259.945L299.603 260.27L298.231 260.382H289.769L288.397 260.27L287.095 259.945L285.881 259.425L284.772 258.728L283.786 257.871L282.94 256.872L282.252 255.749L281.739 254.519L281.418 253.2L281.308 251.81V248.381Z" fill="#141414" stroke="#141414" stroke-width="1.67098"/>
<path d="M430.662 105.481L429.98 106.374L429.365 107.297L428.819 108.247L428.343 109.221L427.937 110.217L427.602 111.231L427.34 112.261L427.152 113.304L427.038 114.358L427 115.419L427.118 117.296L427.463 119.115L428.023 120.867L428.787 122.542L429.743 124.13L430.878 125.62L432.181 127.003L433.639 128.269L435.241 129.406L436.974 130.407L438.179 131.071L439.341 131.803L440.44 132.599L441.456 133.456L442.369 134.374L443.161 135.348L443.811 136.378L444.3 137.46L444.607 138.593L444.714 139.774L444.817 140.849L445.116 141.869L445.595 142.821L446.236 143.689L447.024 144.462L447.943 145.124L448.976 145.663L450.108 146.065L451.321 146.317L452.6 146.403H463.4L464.679 146.317L465.892 146.065L467.024 145.663L468.057 145.124L468.976 144.462L469.764 143.689L470.405 142.821L470.884 141.869L471.182 140.849L471.286 139.774L471.393 138.593L471.7 137.46L472.189 136.378L472.839 135.348L473.631 134.374L474.544 133.456L475.56 132.599L476.659 131.803L477.821 131.071L479.026 130.407L480.759 129.406L482.361 128.269L483.819 127.003L485.122 125.62L486.257 124.13L487.213 122.542L487.977 120.867L488.537 119.115L488.882 117.296L489 115.419L488.962 114.358L488.848 113.304L488.66 112.261L488.398 111.231L488.063 110.217L487.657 109.221L487.181 108.247L486.635 107.297L486.02 106.374L485.338 105.481L462.384 77.3236L461.682 76.6245L460.864 76.0807L459.958 75.6923L458.994 75.4593L458 75.3816L457.006 75.4593L456.042 75.6923L455.136 76.0807L454.318 76.6245L453.616 77.3236L430.662 105.481Z" fill="#F2F2F2" stroke="#B3B3B3" stroke-width="2.79134"/>
<path d="M454.794 140.711V110.316L454.732 109.68L454.556 109.076L454.273 108.514L453.893 108L453.427 107.543L452.884 107.151L452.273 106.832L451.603 106.594L450.885 106.446L450.129 106.395L449.372 106.446L448.655 106.595L447.985 106.832L447.374 107.151L446.831 107.543L446.365 108L445.985 108.514L445.703 109.076L445.526 109.68L445.465 110.316V114.089L445.554 115.02L445.813 115.903L446.227 116.727L446.783 117.479L447.465 118.148L448.261 118.722L449.156 119.189L450.136 119.537L451.187 119.755L452.295 119.83L451.8 119.837H464.2L463.714 119.83L464.822 119.755L465.873 119.537L466.853 119.189L467.747 118.722L468.543 118.148L469.226 117.479L469.781 116.727L470.195 115.903L470.454 115.02L470.544 114.089V110.316L470.483 109.68L470.306 109.076L470.023 108.514L469.644 108L469.178 107.543L468.634 107.151L468.023 106.832L467.354 106.595L466.636 106.446L465.88 106.395L465.123 106.446L464.405 106.594L463.736 106.832L463.125 107.151L462.581 107.543L462.115 108L461.736 108.514L461.453 109.076L461.276 109.68L461.215 110.316V140.711" stroke="#B3B3B3" stroke-width="2.23307"/>
<path d="M444.715 138.958H471.286V141.936L471.17 143.144L470.834 144.29L470.297 145.358L469.577 146.333L468.692 147.201L467.66 147.945L466.499 148.551L465.228 149.002L463.866 149.284L462.429 149.382H453.572L452.135 149.284L450.772 149.002L449.501 148.551L448.341 147.945L447.309 147.201L446.424 146.333L445.703 145.358L445.166 144.29L444.831 143.144L444.715 141.936V138.958Z" fill="#141414" stroke="#141414" stroke-width="1.67481"/>
<path d="M444.715 138.958H471.286V141.937H444.715V138.958Z" fill="#808080" stroke="#808080" stroke-width="1.67481"/>
<path d="M451.653 90.3705C458.226 90.3705 463.554 94.85 463.554 100.376C463.554 105.901 458.226 110.381 451.653 110.381C445.079 110.381 439.751 105.901 439.751 100.376C439.751 94.85 445.079 90.3705 451.653 90.3705Z" fill="white" fill-opacity="0.3"/>
<path d="M304.857 137.772L304.914 136.747L305.078 135.746L305.344 134.773L305.703 133.831L306.148 132.923L306.673 132.052L307.27 131.222L307.932 130.436L308.651 129.698L309.421 129.01L311.624 127L313.653 124.795L315.496 122.42L317.139 119.899L318.566 117.256L319.765 114.515L320.722 111.699L321.423 108.833L321.853 105.941L322 103.047L321.607 98.3976L320.471 93.9868L318.651 89.874L316.212 86.118L313.213 82.7779L309.718 79.9128L305.787 77.5817L301.482 75.8435L296.866 74.7573L292 74.3821L287.134 74.7573L282.518 75.8435L278.213 77.5817L274.282 79.9128L270.787 82.7779L267.788 86.118L265.349 89.874L263.529 93.9868L262.393 98.3976L262 103.047L262.147 105.941L262.577 108.833L263.278 111.699L264.235 114.515L265.434 117.256L266.861 119.899L268.504 122.42L270.347 124.795L272.376 127L274.579 129.01L275.349 129.698L276.068 130.436L276.73 131.222L277.327 132.052L277.852 132.923L278.297 133.831L278.656 134.773L278.922 135.746L279.086 136.747L279.143 137.772L279.238 138.96L279.514 140.086L279.955 141.136L280.546 142.096L281.273 142.949L282.121 143.68L283.074 144.276L284.118 144.72L285.237 144.997L286.417 145.093H297.583L298.763 144.997L299.882 144.72L300.926 144.276L301.879 143.68L302.727 142.949L303.454 142.096L304.045 141.136L304.486 140.086L304.762 138.96L304.857 137.772Z" fill="#F2F2F2" stroke="#B3B3B3" stroke-width="2.78497"/>
<path d="M288.897 138.808V107.181L288.816 106.164L288.58 105.2L288.202 104.3L287.696 103.479L287.073 102.748L286.347 102.122L285.531 101.612L284.637 101.232L283.679 100.995L282.669 100.913L282.178 100.913L281.247 100.988L280.364 101.207L279.541 101.557L278.79 102.027L278.121 102.604L277.548 103.277L277.081 104.033L276.733 104.862L276.516 105.75L276.441 106.686L276.516 107.623L276.733 108.511L277.081 109.34L277.548 110.096L278.121 110.769L278.79 111.346L279.541 111.816L280.364 112.166L281.247 112.385L282.178 112.46L283.05 112.46L282.992 112.468H301.011L300.958 112.46L301.831 112.46L302.761 112.385L303.644 112.166L304.467 111.816L305.219 111.346L305.887 110.769L306.461 110.096L306.927 109.34L307.275 108.511L307.493 107.623L307.568 106.686L307.493 105.75L307.275 104.862L306.927 104.033L306.461 103.277L305.887 102.604L305.219 102.027L304.467 101.557L303.644 101.207L302.762 100.988L301.831 100.913L301.34 100.913L300.329 100.995L299.371 101.232L298.477 101.612L297.661 102.122L296.936 102.748L296.313 103.479L295.807 104.3L295.429 105.2L295.193 106.164L295.111 107.181V138.808" stroke="#B3B3B3" stroke-width="2.22798"/>
<path d="M279.143 136.871H304.858V140.16L304.751 141.493L304.441 142.759L303.946 143.938L303.281 145.016L302.465 145.974L301.513 146.795L300.442 147.464L299.27 147.963L298.013 148.274L296.688 148.382H287.313L285.988 148.274L284.731 147.963L283.559 147.464L282.488 146.795L281.536 145.974L280.72 145.016L280.055 143.938L279.56 142.759L279.25 141.493L279.143 140.16V136.871Z" fill="#141414" stroke="#141414" stroke-width="1.67098"/>
<path d="M279.143 136.875H304.858V140.164H279.143V136.875Z" fill="#808080" stroke="#808080" stroke-width="1.67098"/>
</svg>
