<svg width="540" height="347" viewBox="0 0 540 347" fill="none" xmlns="http://www.w3.org/2000/svg">
<rect x="1" y="25.3818" width="538" height="274" stroke="black" stroke-width="2"/>
<path d="M312.641 49.3711H234.576C231.496 49.3711 229 46.6854 229 43.3724V7.38042C229 4.06744 231.496 1.38175 234.576 1.38175H312.641C315.721 1.38175 318.217 4.06744 318.217 7.38042V43.3724C318.217 46.6854 315.721 49.3711 312.641 49.3711Z" fill="#CE6809"/>
<path d="M229 48.6206H287.549V2.13093H229V48.6206Z" fill="#333333"/>
<path d="M287.549 19.3772H318.218V7.37986H287.549V19.3772Z" fill="#E77A16"/>
<path d="M229 20.123H287.549V8.12571H229V20.123Z" fill="#4C4C4C"/>
<path d="M326.212 37.4944H320.636C319.096 37.4944 317.848 36.1515 317.848 34.4951V16.499C317.848 14.8426 319.096 13.4997 320.636 13.4997H326.212C327.752 13.4997 329 14.8426 329 16.499V34.4951C329 36.1515 327.752 37.4944 326.212 37.4944Z" fill="#333333"/>
<path d="M324.818 22.1936H319.242C318.472 22.1936 317.848 21.5222 317.848 20.6939V17.6946C317.848 16.8664 318.472 16.1949 319.242 16.1949H324.818C325.588 16.1949 326.212 16.8664 326.212 17.6946V20.6939C326.212 21.5222 325.588 22.1936 324.818 22.1936Z" fill="#4C4C4C"/>
<path d="M312.641 49.3818H234.576C231.496 49.3818 229 46.6961 229 43.3832V7.39116C229 4.07819 231.496 1.39249 234.576 1.39249H312.641C315.721 1.39249 318.217 4.07819 318.217 7.39116V43.3832C318.217 46.6961 315.721 49.3818 312.641 49.3818Z" stroke="#333333" stroke-width="2.78497"/>
<rect x="427" y="220.382" width="88" height="123" rx="9" stroke="#E5E5E5" stroke-width="2"/>
<path d="M443.662 258.481L442.98 259.374L442.365 260.298L441.819 261.248L441.343 262.222L440.937 263.217L440.602 264.231L440.34 265.261L440.152 266.305L440.038 267.358L440 268.42L440.118 270.296L440.463 272.115L441.023 273.868L441.787 275.542L442.743 277.13L443.878 278.62L445.181 280.003L446.639 281.269L448.241 282.407L449.974 283.407L451.179 284.072L452.341 284.803L453.44 285.599L454.456 286.457L455.369 287.374L456.161 288.348L456.811 289.378L457.3 290.461L457.607 291.593L457.714 292.774L457.817 293.85L458.116 294.87L458.595 295.821L459.236 296.689L460.024 297.462L460.943 298.124L461.976 298.664L463.108 299.066L464.321 299.317L465.6 299.404H476.4L477.679 299.317L478.892 299.066L480.024 298.664L481.057 298.124L481.976 297.462L482.764 296.689L483.405 295.821L483.884 294.87L484.182 293.85L484.286 292.774L484.393 291.593L484.7 290.461L485.189 289.378L485.839 288.348L486.631 287.374L487.544 286.457L488.56 285.599L489.659 284.803L490.821 284.072L492.026 283.407L493.759 282.407L495.361 281.269L496.819 280.003L498.122 278.62L499.257 277.13L500.213 275.542L500.977 273.868L501.537 272.115L501.882 270.296L502 268.42L501.962 267.358L501.848 266.305L501.66 265.261L501.398 264.231L501.063 263.217L500.657 262.222L500.181 261.248L499.635 260.298L499.02 259.374L498.338 258.481L475.384 230.324L474.682 229.625L473.864 229.081L472.958 228.693L471.994 228.46L471 228.382L470.006 228.46L469.042 228.693L468.136 229.081L467.318 229.625L466.616 230.324L443.662 258.481Z" fill="#F2F2F2" stroke="#B3B3B3" stroke-width="2.79134"/>
<path d="M467.794 293.711V263.316L467.732 262.68L467.556 262.076L467.273 261.514L466.893 261L466.427 260.543L465.884 260.151L465.273 259.832L464.603 259.595L463.885 259.446L463.129 259.395L462.372 259.446L461.655 259.595L460.985 259.833L460.374 260.151L459.831 260.543L459.365 261L458.985 261.514L458.703 262.077L458.526 262.68L458.465 263.316V267.089L458.554 268.02L458.813 268.904L459.227 269.727L459.783 270.48L460.465 271.149L461.261 271.722L462.156 272.189L463.136 272.538L464.187 272.755L465.295 272.83L464.8 272.838H477.2L476.714 272.83L477.822 272.755L478.873 272.538L479.853 272.189L480.747 271.722L481.543 271.149L482.226 270.48L482.781 269.727L483.195 268.904L483.454 268.02L483.544 267.089V263.316L483.483 262.68L483.306 262.077L483.023 261.514L482.644 261L482.178 260.543L481.634 260.151L481.023 259.833L480.354 259.595L479.636 259.446L478.88 259.395L478.123 259.446L477.405 259.595L476.736 259.832L476.125 260.151L475.581 260.543L475.115 261L474.736 261.514L474.453 262.076L474.276 262.68L474.215 263.316V293.711" stroke="#B3B3B3" stroke-width="2.23307"/>
<path d="M457.715 291.958H484.286V294.936L484.17 296.144L483.834 297.29L483.297 298.358L482.577 299.333L481.692 300.201L480.66 300.945L479.499 301.551L478.228 302.002L476.866 302.284L475.429 302.382H466.572L465.135 302.284L463.772 302.002L462.501 301.551L461.341 300.945L460.309 300.201L459.424 299.333L458.703 298.358L458.166 297.29L457.831 296.144L457.715 294.936V291.958Z" fill="#141414" stroke="#141414" stroke-width="1.67481"/>
<path d="M457.715 291.958H484.286V294.936H457.715V291.958Z" fill="#808080" stroke="#808080" stroke-width="1.67481"/>
<path d="M464.653 243.371C471.226 243.371 476.554 247.85 476.554 253.376C476.554 258.901 471.226 263.381 464.653 263.381C458.079 263.381 452.751 258.901 452.751 253.376C452.751 247.85 458.079 243.371 464.653 243.371Z" fill="white" fill-opacity="0.3"/>
<path d="M442 298.648V320.666H498.25V298.648" stroke="black" stroke-width="2"/>
<rect x="448" y="311.382" width="43.027" height="20" rx="5" fill="black"/>
<path d="M458.221 328.382V326.702C458.221 325.729 458.381 324.922 458.701 324.282C459.021 323.629 459.481 323.095 460.081 322.682C460.694 322.255 461.441 321.909 462.321 321.642L463.661 321.222C464.154 321.062 464.568 320.869 464.901 320.642C465.234 320.402 465.488 320.115 465.661 319.782C465.848 319.449 465.941 319.069 465.941 318.642V318.562C465.941 317.895 465.714 317.369 465.261 316.982C464.808 316.582 464.188 316.382 463.401 316.382C462.628 316.382 462.001 316.595 461.521 317.022C461.054 317.435 460.821 318.035 460.821 318.822V319.182H458.261V318.862C458.261 317.849 458.488 316.989 458.941 316.282C459.394 315.575 460.008 315.035 460.781 314.662C461.568 314.289 462.441 314.102 463.401 314.102C464.361 314.102 465.228 314.289 466.001 314.662C466.774 315.022 467.381 315.535 467.821 316.202C468.274 316.855 468.501 317.629 468.501 318.522V318.722C468.501 319.615 468.314 320.375 467.941 321.002C467.581 321.615 467.088 322.122 466.461 322.522C465.834 322.909 465.121 323.229 464.321 323.482L463.041 323.882C462.468 324.055 462.021 324.249 461.701 324.462C461.381 324.662 461.154 324.889 461.021 325.142C460.901 325.382 460.841 325.675 460.841 326.022V326.102H468.381V328.382H458.221ZM473.176 328.382L469.616 314.382H472.336L475.296 326.682H475.576L478.536 314.382H481.256L477.696 328.382H473.176Z" fill="white"/>
<rect x="225" y="220.382" width="88" height="123" rx="9" stroke="#E5E5E5" stroke-width="2"/>
<path d="M243 300.382V322.4H299.25V300.382" stroke="black" stroke-width="2"/>
<rect x="249" y="313.116" width="43.027" height="20" rx="5" fill="black"/>
<path d="M263.861 330.116V327.276H256.981V324.316L261.821 316.116H266.421V324.996H268.741V327.276H266.421V330.116H263.861ZM259.421 324.996H263.861V317.756H263.501L259.421 324.676V324.996ZM273.096 330.116L269.536 316.116H272.256L275.216 328.416H275.496L278.456 316.116H281.176L277.616 330.116H273.096Z" fill="white"/>
<path d="M247.154 236.382L245.507 236.517L243.944 236.906L242.488 237.53L241.157 238.367L239.974 239.395L238.959 240.593L238.133 241.941L237.518 243.417L237.133 245L237 246.668V267.24L237.135 269.624L237.53 271.928L238.169 274.137L239.039 276.235L240.123 278.207L241.408 280.039L242.878 281.715L244.517 283.22L246.312 284.539L248.248 285.657L249.629 286.412L250.971 287.267L252.251 288.219L253.441 289.264L254.517 290.4L255.455 291.624L256.228 292.931L256.811 294.319L257.179 295.784L257.308 297.324L257.406 298.562L257.692 299.736L258.149 300.831L258.761 301.831L259.514 302.72L260.392 303.483L261.379 304.104L262.46 304.567L263.619 304.856L264.841 304.956H275.159L276.381 304.856L277.54 304.567L278.621 304.104L279.608 303.483L280.486 302.72L281.239 301.831L281.851 300.831L282.308 299.736L282.594 298.562L282.692 297.324L282.821 295.784L283.189 294.319L283.772 292.931L284.545 291.624L285.483 290.4L286.559 289.264L287.749 288.219L289.029 287.267L290.371 286.412L291.752 285.657L293.688 284.539L295.483 283.22L297.122 281.715L298.592 280.039L299.877 278.207L300.961 276.235L301.831 274.137L302.47 271.928L302.865 269.624L303 267.24V246.668L302.867 245L302.482 243.417L301.867 241.941L301.041 240.593L300.026 239.395L298.843 238.367L297.512 237.53L296.056 236.906L294.493 236.517L292.846 236.382H247.154Z" fill="#F2F2F2" stroke="#B3B3B3" stroke-width="2.78497"/>
<path d="M266.937 297.398V265.319L266.864 264.392L266.65 263.513L266.308 262.694L265.849 261.945L265.286 261.279L264.628 260.708L263.889 260.244L263.08 259.897L262.213 259.681L261.298 259.606L256.352 259.606L255.525 259.674L254.741 259.87L254.01 260.183L253.342 260.602L252.749 261.118L252.239 261.72L251.825 262.396L251.516 263.137L251.323 263.931L251.256 264.768L251.323 265.606L251.516 266.4L251.825 267.141L252.239 267.817L252.749 268.418L253.342 268.934L254.01 269.354L254.741 269.667L255.525 269.863L256.352 269.93L261.165 269.93L261.108 269.939H278.896L278.844 269.93L283.657 269.93L284.484 269.863L285.268 269.667L285.999 269.354L286.667 268.934L287.261 268.418L287.77 267.817L288.184 267.141L288.493 266.4L288.686 265.606L288.753 264.768L288.686 263.931L288.493 263.137L288.184 262.396L287.77 261.72L287.261 261.118L286.667 260.602L285.999 260.183L285.268 259.87L284.484 259.674L283.658 259.606L278.711 259.606L277.797 259.681L276.929 259.897L276.12 260.244L275.381 260.708L274.724 261.279L274.16 261.945L273.701 262.694L273.359 263.513L273.146 264.392L273.072 265.319V297.398" stroke="#B3B3B3" stroke-width="2.22798"/>
<path d="M257.308 296.383H282.692V299.812H257.308V296.383Z" fill="#808080" stroke="#808080" stroke-width="1.67098"/>
<path d="M257.308 296.381H282.692V299.81L282.581 301.2L282.261 302.519L281.748 303.749L281.06 304.872L280.214 305.871L279.228 306.728L278.119 307.425L276.905 307.945L275.603 308.27L274.231 308.382H265.769L264.397 308.27L263.095 307.945L261.881 307.425L260.772 306.728L259.786 305.871L258.94 304.872L258.252 303.749L257.739 302.519L257.418 301.2L257.308 299.81V296.381Z" fill="#141414" stroke="#141414" stroke-width="1.67098"/>
<rect x="25" y="220.382" width="88" height="123" rx="9" stroke="#E5E5E5" stroke-width="2"/>
<path d="M80.8572 292.772L80.9136 291.747L81.0782 290.746L81.3436 289.773L81.7028 288.831L82.1484 287.922L82.6733 287.052L83.2702 286.222L83.932 285.436L84.6514 284.698L85.4211 284.01L87.6238 281.999L89.6535 279.795L91.4964 277.42L93.1386 274.899L94.5662 272.256L95.7653 269.514L96.7222 266.699L97.4228 263.833L97.8534 260.941L98 258.047L97.6074 253.397L96.4706 248.987L94.6515 244.874L92.2117 241.118L89.2132 237.778L85.7176 234.913L81.7867 232.581L77.4823 230.843L72.8662 229.757L68 229.382L63.1338 229.757L58.5177 230.843L54.2133 232.581L50.2824 234.913L46.7868 237.778L43.7883 241.118L41.3485 244.874L39.5294 248.987L38.3927 253.397L38 258.047L38.1466 260.941L38.5772 263.833L39.2778 266.699L40.2347 269.514L41.4338 272.256L42.8614 274.899L44.5036 277.42L46.3465 279.795L48.3762 281.999L50.5789 284.01L51.3486 284.698L52.068 285.436L52.7298 286.222L53.3267 287.052L53.8516 287.922L54.2972 288.831L54.6564 289.773L54.9218 290.746L55.0864 291.747L55.1429 292.772L55.2381 293.959L55.5137 295.086L55.9548 296.136L56.5463 297.095L57.2733 297.948L58.1209 298.68L59.074 299.275L60.1176 299.719L61.2369 299.997L62.4167 300.093H73.5833L74.7632 299.997L75.8824 299.719L76.926 299.275L77.8791 298.68L78.7267 297.948L79.4537 297.095L80.0453 296.136L80.4863 295.086L80.7619 293.959L80.8572 292.772Z" fill="#F2F2F2" stroke="#B3B3B3" stroke-width="2.78497"/>
<path d="M64.8972 293.808V262.181L64.8157 261.164L64.5797 260.2L64.202 259.3L63.6955 258.479L63.073 257.748L62.3472 257.122L61.5311 256.612L60.6375 256.232L59.6791 255.995L58.6688 255.913L58.1776 255.913L57.247 255.988L56.3643 256.207L55.5412 256.557L54.7896 257.027L54.1211 257.604L53.5477 258.277L53.0812 259.033L52.7334 259.862L52.516 260.75L52.4409 261.686L52.516 262.623L52.7334 263.511L53.0812 264.34L53.5478 265.096L54.1212 265.769L54.7896 266.346L55.5413 266.816L56.3644 267.166L57.2472 267.385L58.1777 267.46L59.0503 267.46L58.9917 267.468H77.0111L76.9583 267.46L77.8308 267.46L78.7614 267.385L79.6441 267.166L80.4672 266.816L81.2189 266.346L81.8874 265.769L82.4608 265.096L82.9273 264.34L83.2752 263.511L83.4926 262.623L83.5676 261.686L83.4926 260.75L83.2752 259.862L82.9273 259.033L82.4608 258.277L81.8874 257.604L81.219 257.027L80.4673 256.557L79.6442 256.207L78.7615 255.988L77.831 255.913L77.3398 255.913L76.3295 255.995L75.3711 256.232L74.4774 256.612L73.6613 257.122L72.9356 257.748L72.3131 258.479L71.8065 259.3L71.4289 260.2L71.1928 261.164L71.1113 262.181V293.808" stroke="#B3B3B3" stroke-width="2.22798"/>
<path d="M55.1433 291.871H80.8576V295.16L80.7507 296.493L80.4411 297.759L79.9457 298.938L79.2813 300.016L78.4648 300.974L77.5128 301.795L76.4424 302.464L75.2702 302.963L74.0131 303.274L72.688 303.382H63.313L61.9878 303.274L60.7307 302.963L59.5585 302.464L58.4881 301.795L57.5361 300.974L56.7196 300.016L56.0552 298.938L55.5598 297.759L55.2502 296.493L55.1433 295.16V291.871Z" fill="#141414" stroke="#141414" stroke-width="1.67098"/>
<path d="M55.1433 291.875H80.8576V295.164H55.1433V291.875Z" fill="#808080" stroke="#808080" stroke-width="1.67098"/>
<path d="M41.2168 298.648V320.666H97.4668V298.648" stroke="black" stroke-width="2"/>
<rect x="47.2168" y="311.382" width="43.027" height="20" rx="5" fill="black"/>
<path d="M61.0312 328.662C59.9778 328.662 59.0445 328.475 58.2312 328.102C57.4178 327.729 56.7778 327.195 56.3112 326.502C55.8578 325.795 55.6312 324.962 55.6312 324.002V323.642H58.1912V323.922C58.1912 324.669 58.4512 325.269 58.9712 325.722C59.4912 326.162 60.1778 326.382 61.0312 326.382C61.8978 326.382 62.5645 326.175 63.0312 325.762C63.5112 325.349 63.7512 324.829 63.7512 324.202V324.002C63.7512 323.575 63.6445 323.229 63.4312 322.962C63.2178 322.695 62.9312 322.502 62.5712 322.382C62.2112 322.249 61.8045 322.182 61.3512 322.182H58.5512V319.382L63.0712 316.982V316.662H55.9912V314.382H65.9112V317.782L61.6912 320.022V320.342H62.4312C63.0578 320.342 63.6645 320.469 64.2512 320.722C64.8512 320.975 65.3445 321.369 65.7312 321.902C66.1178 322.422 66.3112 323.102 66.3112 323.942V324.182C66.3112 325.089 66.0912 325.882 65.6512 326.562C65.2112 327.229 64.5912 327.749 63.7912 328.122C63.0045 328.482 62.0845 328.662 61.0312 328.662ZM71.0391 328.382L67.4791 314.382H70.1991L73.1591 326.682H73.4391L76.3991 314.382H79.1191L75.5591 328.382H71.0391Z" fill="white"/>
</svg>
