<svg width="540" height="300" viewBox="0 0 540 300" fill="none" xmlns="http://www.w3.org/2000/svg">
<rect x="1" y="26.3818" width="538" height="218" stroke="black" stroke-width="2"/>
<path d="M309.713 49.3711H231.648C228.568 49.3711 226.072 46.6854 226.072 43.3724V7.38042C226.072 4.06744 228.568 1.38175 231.648 1.38175H309.713C312.792 1.38175 315.289 4.06744 315.289 7.38042V43.3724C315.289 46.6854 312.792 49.3711 309.713 49.3711Z" fill="#CE6809"/>
<path d="M226.072 48.6206H284.62V2.13093H226.072V48.6206Z" fill="#333333"/>
<path d="M284.621 19.3772H315.289V7.37986H284.621V19.3772Z" fill="#E77A16"/>
<path d="M226.072 20.123H284.62V8.12571H226.072V20.123Z" fill="#4C4C4C"/>
<path d="M323.284 37.4944H317.707C316.168 37.4944 314.919 36.1515 314.919 34.4951V16.499C314.919 14.8426 316.168 13.4997 317.707 13.4997H323.284C324.823 13.4997 326.072 14.8426 326.072 16.499V34.4951C326.072 36.1515 324.823 37.4944 323.284 37.4944Z" fill="#333333"/>
<path d="M321.89 22.1936H316.313C315.544 22.1936 314.919 21.5222 314.919 20.6939V17.6946C314.919 16.8664 315.544 16.1949 316.313 16.1949H321.89C322.659 16.1949 323.284 16.8664 323.284 17.6946V20.6939C323.284 21.5222 322.659 22.1936 321.89 22.1936Z" fill="#4C4C4C"/>
<path d="M309.713 49.3818H231.648C228.568 49.3818 226.072 46.6961 226.072 43.3832V7.39116C226.072 4.07819 228.568 1.39249 231.648 1.39249H309.713C312.792 1.39249 315.289 4.07819 315.289 7.39116V43.3832C315.289 46.6961 312.792 49.3818 309.713 49.3818Z" stroke="#333333" stroke-width="2.78497"/>
<path d="M441 243.648V265.666H497.25V243.648" stroke="black" stroke-width="2"/>
<rect x="447" y="256.382" width="43.027" height="20" rx="5" fill="black"/>
<path d="M457.221 273.382V271.702C457.221 270.729 457.381 269.922 457.701 269.282C458.021 268.629 458.481 268.095 459.081 267.682C459.694 267.255 460.441 266.909 461.321 266.642L462.661 266.222C463.154 266.062 463.568 265.869 463.901 265.642C464.234 265.402 464.488 265.115 464.661 264.782C464.848 264.449 464.941 264.069 464.941 263.642V263.562C464.941 262.895 464.714 262.369 464.261 261.982C463.808 261.582 463.188 261.382 462.401 261.382C461.628 261.382 461.001 261.595 460.521 262.022C460.054 262.435 459.821 263.035 459.821 263.822V264.182H457.261V263.862C457.261 262.849 457.488 261.989 457.941 261.282C458.394 260.575 459.008 260.035 459.781 259.662C460.568 259.289 461.441 259.102 462.401 259.102C463.361 259.102 464.228 259.289 465.001 259.662C465.774 260.022 466.381 260.535 466.821 261.202C467.274 261.855 467.501 262.629 467.501 263.522V263.722C467.501 264.615 467.314 265.375 466.941 266.002C466.581 266.615 466.088 267.122 465.461 267.522C464.834 267.909 464.121 268.229 463.321 268.482L462.041 268.882C461.468 269.055 461.021 269.249 460.701 269.462C460.381 269.662 460.154 269.889 460.021 270.142C459.901 270.382 459.841 270.675 459.841 271.022V271.102H467.381V273.382H457.221ZM472.176 273.382L468.616 259.382H471.336L474.296 271.682H474.576L477.536 259.382H480.256L476.696 273.382H472.176Z" fill="white"/>
<path d="M442.662 203.481L441.98 204.374L441.365 205.298L440.819 206.248L440.343 207.222L439.937 208.217L439.602 209.231L439.34 210.261L439.152 211.305L439.038 212.358L439 213.42L439.118 215.296L439.463 217.115L440.023 218.868L440.787 220.542L441.743 222.13L442.878 223.62L444.181 225.003L445.639 226.269L447.241 227.407L448.974 228.407L450.179 229.072L451.341 229.803L452.44 230.599L453.456 231.457L454.369 232.374L455.161 233.348L455.811 234.378L456.3 235.461L456.607 236.593L456.714 237.774L456.817 238.85L457.116 239.87L457.595 240.821L458.236 241.689L459.024 242.462L459.943 243.124L460.976 243.664L462.108 244.066L463.321 244.317L464.6 244.404H475.4L476.679 244.317L477.892 244.066L479.024 243.664L480.057 243.124L480.976 242.462L481.764 241.689L482.405 240.821L482.884 239.87L483.182 238.85L483.286 237.774L483.393 236.593L483.7 235.461L484.189 234.378L484.839 233.348L485.631 232.374L486.544 231.457L487.56 230.599L488.659 229.803L489.821 229.072L491.026 228.407L492.759 227.407L494.361 226.269L495.819 225.003L497.122 223.62L498.257 222.13L499.213 220.542L499.977 218.868L500.537 217.115L500.882 215.296L501 213.42L500.962 212.358L500.848 211.305L500.66 210.261L500.398 209.231L500.063 208.217L499.657 207.222L499.181 206.248L498.635 205.298L498.02 204.374L497.338 203.481L474.384 175.324L473.682 174.625L472.864 174.081L471.958 173.693L470.994 173.46L470 173.382L469.006 173.46L468.042 173.693L467.136 174.081L466.318 174.625L465.616 175.324L442.662 203.481Z" fill="#F2F2F2" stroke="#B3B3B3" stroke-width="2.79134"/>
<path d="M466.794 238.711V208.316L466.732 207.68L466.556 207.076L466.273 206.514L465.893 206L465.427 205.543L464.884 205.151L464.273 204.832L463.603 204.595L462.885 204.446L462.129 204.395L461.372 204.446L460.655 204.595L459.985 204.833L459.374 205.151L458.831 205.543L458.365 206L457.985 206.514L457.703 207.077L457.526 207.68L457.465 208.316V212.089L457.554 213.02L457.813 213.904L458.227 214.727L458.783 215.48L459.465 216.149L460.261 216.722L461.156 217.189L462.136 217.538L463.187 217.755L464.295 217.83L463.8 217.838H476.2L475.714 217.83L476.822 217.755L477.873 217.538L478.853 217.189L479.747 216.722L480.543 216.149L481.226 215.48L481.781 214.727L482.195 213.904L482.454 213.02L482.544 212.089V208.316L482.483 207.68L482.306 207.077L482.023 206.514L481.644 206L481.178 205.543L480.634 205.151L480.023 204.833L479.354 204.595L478.636 204.446L477.88 204.395L477.123 204.446L476.405 204.595L475.736 204.832L475.125 205.151L474.581 205.543L474.115 206L473.736 206.514L473.453 207.076L473.276 207.68L473.215 208.316V238.711" stroke="#B3B3B3" stroke-width="2.23307"/>
<path d="M456.715 236.958H483.286V239.936L483.17 241.144L482.834 242.29L482.297 243.358L481.577 244.333L480.692 245.201L479.66 245.945L478.499 246.551L477.228 247.002L475.866 247.284L474.429 247.382H465.572L464.135 247.284L462.772 247.002L461.501 246.551L460.341 245.945L459.309 245.201L458.424 244.333L457.703 243.358L457.166 242.29L456.831 241.144L456.715 239.936V236.958Z" fill="#141414" stroke="#141414" stroke-width="1.67481"/>
<path d="M456.715 236.958H483.286V239.936H456.715V236.958Z" fill="#808080" stroke="#808080" stroke-width="1.67481"/>
<path d="M463.653 188.371C470.226 188.371 475.554 192.85 475.554 198.376C475.554 203.901 470.226 208.381 463.653 208.381C457.079 208.381 451.751 203.901 451.751 198.376C451.751 192.85 457.079 188.371 463.653 188.371Z" fill="white" fill-opacity="0.3"/>
<path d="M245 243.648V265.666H301.25V243.648" stroke="black" stroke-width="2"/>
<rect x="251" y="256.382" width="43.027" height="20" rx="5" fill="black"/>
<path d="M267.361 273.382V270.542H260.481V267.582L265.321 259.382H269.921V268.262H272.241V270.542H269.921V273.382H267.361ZM262.921 268.262H267.361V261.022H267.001L262.921 267.942V268.262ZM276.596 273.382L273.036 259.382H275.756L278.716 271.682H278.996L281.956 259.382H284.676L281.116 273.382H276.596ZM264.057 299.382L260.497 285.382H263.217L266.177 297.682H266.457L269.417 285.382H272.137L268.577 299.382H264.057ZM276.42 299.382L272.86 285.382H275.58L278.54 297.682H278.82L281.78 285.382H284.5L280.94 299.382H276.42Z" fill="white"/>
<path d="M249.154 176.382L247.507 176.517L245.944 176.906L244.488 177.53L243.157 178.367L241.974 179.395L240.959 180.593L240.133 181.941L239.518 183.417L239.133 185L239 186.668V207.24L239.135 209.624L239.53 211.928L240.169 214.137L241.039 216.235L242.123 218.207L243.408 220.039L244.878 221.715L246.517 223.22L248.312 224.539L250.248 225.657L251.629 226.412L252.971 227.267L254.251 228.219L255.441 229.264L256.517 230.4L257.455 231.624L258.228 232.931L258.811 234.319L259.179 235.784L259.308 237.324L259.406 238.562L259.692 239.736L260.149 240.831L260.761 241.831L261.514 242.72L262.392 243.483L263.379 244.104L264.46 244.567L265.619 244.856L266.841 244.956H277.159L278.381 244.856L279.54 244.567L280.621 244.104L281.608 243.483L282.486 242.72L283.239 241.831L283.851 240.831L284.308 239.736L284.594 238.562L284.692 237.324L284.821 235.784L285.189 234.319L285.772 232.931L286.545 231.624L287.483 230.4L288.559 229.264L289.749 228.219L291.029 227.267L292.371 226.412L293.752 225.657L295.688 224.539L297.483 223.22L299.122 221.715L300.592 220.039L301.877 218.207L302.961 216.235L303.831 214.137L304.47 211.928L304.865 209.624L305 207.24V186.668L304.867 185L304.482 183.417L303.867 181.941L303.041 180.593L302.026 179.395L300.843 178.367L299.512 177.53L298.056 176.906L296.493 176.517L294.846 176.382H249.154Z" fill="#F2F2F2" stroke="#B3B3B3" stroke-width="2.78497"/>
<path d="M268.937 237.398V205.319L268.864 204.392L268.65 203.513L268.308 202.694L267.849 201.945L267.286 201.279L266.628 200.708L265.889 200.244L265.08 199.897L264.213 199.681L263.298 199.606L258.352 199.606L257.525 199.674L256.741 199.87L256.01 200.183L255.342 200.602L254.749 201.118L254.239 201.72L253.825 202.396L253.516 203.137L253.323 203.931L253.256 204.768L253.323 205.606L253.516 206.4L253.825 207.141L254.239 207.817L254.749 208.418L255.342 208.934L256.01 209.354L256.741 209.667L257.525 209.863L258.352 209.93L263.165 209.93L263.108 209.939H280.896L280.844 209.93L285.657 209.93L286.484 209.863L287.268 209.667L287.999 209.354L288.667 208.934L289.261 208.418L289.77 207.817L290.184 207.141L290.493 206.4L290.686 205.606L290.753 204.768L290.686 203.931L290.493 203.137L290.184 202.396L289.77 201.72L289.261 201.118L288.667 200.602L287.999 200.183L287.268 199.87L286.484 199.674L285.658 199.606L280.711 199.606L279.797 199.681L278.929 199.897L278.12 200.244L277.381 200.708L276.724 201.279L276.16 201.945L275.701 202.694L275.359 203.513L275.146 204.392L275.072 205.319V237.398" stroke="#B3B3B3" stroke-width="2.22798"/>
<path d="M259.308 236.383H284.692V239.812H259.308V236.383Z" fill="#808080" stroke="#808080" stroke-width="1.67098"/>
<path d="M259.308 236.381H284.692V239.81L284.581 241.2L284.261 242.519L283.748 243.749L283.06 244.872L282.214 245.871L281.228 246.728L280.119 247.425L278.905 247.945L277.603 248.27L276.231 248.382H267.769L266.397 248.27L265.095 247.945L263.881 247.425L262.772 246.728L261.786 245.871L260.94 244.872L260.252 243.749L259.739 242.519L259.418 241.2L259.308 239.81V236.381Z" fill="#141414" stroke="#141414" stroke-width="1.67098"/>
<path d="M45.2168 243.648V265.666H101.467V243.648" stroke="black" stroke-width="2"/>
<rect x="51.2168" y="256.382" width="43.027" height="20" rx="5" fill="black"/>
<path d="M66.0312 273.662C64.9778 273.662 64.0445 273.475 63.2312 273.102C62.4178 272.729 61.7778 272.195 61.3112 271.502C60.8578 270.795 60.6312 269.962 60.6312 269.002V268.642H63.1912V268.922C63.1912 269.669 63.4512 270.269 63.9712 270.722C64.4912 271.162 65.1778 271.382 66.0312 271.382C66.8978 271.382 67.5645 271.175 68.0312 270.762C68.5112 270.349 68.7512 269.829 68.7512 269.202V269.002C68.7512 268.575 68.6445 268.229 68.4312 267.962C68.2178 267.695 67.9312 267.502 67.5712 267.382C67.2112 267.249 66.8045 267.182 66.3512 267.182H63.5512V264.382L68.0712 261.982V261.662H60.9912V259.382H70.9112V262.782L66.6912 265.022V265.342H67.4312C68.0578 265.342 68.6645 265.469 69.2512 265.722C69.8512 265.975 70.3445 266.369 70.7312 266.902C71.1178 267.422 71.3112 268.102 71.3112 268.942V269.182C71.3112 270.089 71.0912 270.882 70.6512 271.562C70.2112 272.229 69.5912 272.749 68.7912 273.122C68.0045 273.482 67.0845 273.662 66.0312 273.662ZM76.0391 273.382L72.4791 259.382H75.1991L78.1591 271.682H78.4391L81.3991 259.382H84.1191L80.5591 273.382H76.0391Z" fill="white"/>
<path d="M84.8571 237.772L84.9136 236.747L85.0782 235.746L85.3436 234.773L85.7028 233.831L86.1484 232.922L86.6733 232.052L87.2702 231.222L87.932 230.436L88.6514 229.698L89.4211 229.01L91.6238 226.999L93.6535 224.795L95.4964 222.42L97.1386 219.899L98.5662 217.256L99.7653 214.514L100.722 211.699L101.423 208.833L101.853 205.941L102 203.047L101.607 198.397L100.471 193.987L98.6515 189.874L96.2117 186.118L93.2132 182.778L89.7176 179.913L85.7867 177.581L81.4823 175.843L76.8662 174.757L72 174.382L67.1338 174.757L62.5177 175.843L58.2133 177.581L54.2824 179.913L50.7868 182.778L47.7883 186.118L45.3485 189.874L43.5294 193.987L42.3927 198.397L42 203.047L42.1466 205.941L42.5772 208.833L43.2778 211.699L44.2347 214.514L45.4338 217.256L46.8614 219.899L48.5036 222.42L50.3465 224.795L52.3762 226.999L54.5789 229.01L55.3486 229.698L56.068 230.436L56.7298 231.222L57.3267 232.052L57.8516 232.922L58.2972 233.831L58.6564 234.773L58.9218 235.746L59.0864 236.747L59.1429 237.772L59.2381 238.959L59.5137 240.086L59.9548 241.136L60.5463 242.095L61.2733 242.948L62.1209 243.68L63.074 244.275L64.1176 244.719L65.2369 244.997L66.4167 245.093H77.5833L78.7632 244.997L79.8824 244.719L80.926 244.275L81.8791 243.68L82.7267 242.948L83.4537 242.095L84.0453 241.136L84.4863 240.086L84.7619 238.959L84.8571 237.772Z" fill="#F2F2F2" stroke="#B3B3B3" stroke-width="2.78497"/>
<path d="M68.8972 238.808V207.181L68.8157 206.164L68.5797 205.2L68.202 204.3L67.6955 203.479L67.073 202.748L66.3472 202.122L65.5311 201.612L64.6375 201.232L63.6791 200.995L62.6688 200.913L62.1776 200.913L61.247 200.988L60.3643 201.207L59.5412 201.557L58.7896 202.027L58.1211 202.604L57.5477 203.277L57.0812 204.033L56.7334 204.862L56.516 205.75L56.4409 206.686L56.516 207.623L56.7334 208.511L57.0812 209.34L57.5478 210.096L58.1212 210.769L58.7896 211.346L59.5413 211.816L60.3644 212.166L61.2472 212.385L62.1777 212.46L63.0503 212.46L62.9917 212.468H81.0111L80.9583 212.46L81.8308 212.46L82.7614 212.385L83.6441 212.166L84.4672 211.816L85.2189 211.346L85.8874 210.769L86.4608 210.096L86.9273 209.34L87.2752 208.511L87.4926 207.623L87.5676 206.686L87.4926 205.75L87.2752 204.862L86.9273 204.033L86.4608 203.277L85.8874 202.604L85.219 202.027L84.4673 201.557L83.6442 201.207L82.7615 200.988L81.831 200.913L81.3398 200.913L80.3295 200.995L79.3711 201.232L78.4774 201.612L77.6613 202.122L76.9356 202.748L76.3131 203.479L75.8065 204.3L75.4289 205.2L75.1928 206.164L75.1113 207.181V238.808" stroke="#B3B3B3" stroke-width="2.22798"/>
<path d="M59.1433 236.871H84.8576V240.16L84.7507 241.493L84.4411 242.759L83.9457 243.938L83.2813 245.016L82.4648 245.974L81.5128 246.795L80.4424 247.464L79.2702 247.963L78.0131 248.274L76.688 248.382H67.313L65.9878 248.274L64.7307 247.963L63.5585 247.464L62.4881 246.795L61.5361 245.974L60.7196 245.016L60.0552 243.938L59.5598 242.759L59.2502 241.493L59.1433 240.16V236.871Z" fill="#141414" stroke="#141414" stroke-width="1.67098"/>
<path d="M59.1433 236.875H84.8576V240.164H59.1433V236.875Z" fill="#808080" stroke="#808080" stroke-width="1.67098"/>
</svg>
