<svg width="400" height="300" viewBox="0 0 400 300" fill="none" xmlns="http://www.w3.org/2000/svg">
<rect x="18" y="73" width="368" height="203" stroke="black" stroke-width="2"/>
<path d="M260.224 275.207L259.997 225.932L129 226.535L129.227 275.81" stroke="black" stroke-width="2"/>
<path d="M228.754 297.989H150.689C147.609 297.989 145.113 295.304 145.113 291.991V255.999C145.113 252.686 147.609 250 150.689 250H228.754C231.834 250 234.33 252.686 234.33 255.999V291.991C234.33 295.304 231.834 297.989 228.754 297.989Z" fill="#CE6809"/>
<path d="M145.113 297.239H203.662V250.749H145.113V297.239Z" fill="#333333"/>
<path d="M203.662 267.995H234.33V255.998H203.662V267.995Z" fill="#E77A16"/>
<path d="M145.113 268.741H203.662V256.744H145.113V268.741Z" fill="#4C4C4C"/>
<path d="M242.325 286.112H236.748C235.209 286.112 233.96 284.77 233.96 283.113V265.117C233.96 263.461 235.209 262.118 236.748 262.118H242.325C243.864 262.118 245.113 263.461 245.113 265.117V283.113C245.113 284.77 243.864 286.112 242.325 286.112Z" fill="#333333"/>
<path d="M240.931 270.812H235.354C234.585 270.812 233.96 270.14 233.96 269.312V266.313C233.96 265.485 234.585 264.813 235.354 264.813H240.931C241.7 264.813 242.325 265.485 242.325 266.313V269.312C242.325 270.14 241.7 270.812 240.931 270.812Z" fill="#4C4C4C"/>
<path d="M228.754 298H150.689C147.609 298 145.113 295.314 145.113 292.001V256.009C145.113 252.696 147.609 250.011 150.689 250.011H228.754C231.834 250.011 234.33 252.696 234.33 256.009V292.001C234.33 295.314 231.834 298 228.754 298Z" stroke="#333333" stroke-width="2.78497"/>
<rect x="174.113" y="216" width="40" height="20" rx="5" fill="black"/>
<path d="M180.632 233V220.88H180.272L178.392 225.32H175.712L178.572 219H183.192V233H180.632ZM185.355 233V231.32C185.355 230.347 185.515 229.54 185.835 228.9C186.155 228.247 186.615 227.713 187.215 227.3C187.828 226.873 188.575 226.527 189.455 226.26L190.795 225.84C191.288 225.68 191.702 225.487 192.035 225.26C192.368 225.02 192.622 224.733 192.795 224.4C192.982 224.067 193.075 223.687 193.075 223.26V223.18C193.075 222.513 192.848 221.987 192.395 221.6C191.942 221.2 191.322 221 190.535 221C189.762 221 189.135 221.213 188.655 221.64C188.188 222.053 187.955 222.653 187.955 223.44V223.8H185.395V223.48C185.395 222.467 185.622 221.607 186.075 220.9C186.528 220.193 187.142 219.653 187.915 219.28C188.702 218.907 189.575 218.72 190.535 218.72C191.495 218.72 192.362 218.907 193.135 219.28C193.908 219.64 194.515 220.153 194.955 220.82C195.408 221.473 195.635 222.247 195.635 223.14V223.34C195.635 224.233 195.448 224.993 195.075 225.62C194.715 226.233 194.222 226.74 193.595 227.14C192.968 227.527 192.255 227.847 191.455 228.1L190.175 228.5C189.602 228.673 189.155 228.867 188.835 229.08C188.515 229.28 188.288 229.507 188.155 229.76C188.035 230 187.975 230.293 187.975 230.64V230.72H195.515V233H185.355ZM200.31 233L196.75 219H199.47L202.43 231.3H202.71L205.67 219H208.39L204.83 233H200.31Z" fill="white"/>
<rect x="307" y="240" width="58" height="58" rx="9" fill="#F7F7F7" stroke="#E5E5E5" stroke-width="2"/>
<circle cx="337" cy="270.163" r="15.625" fill="black"/>
<path d="M335.246 272.373V271.941C335.246 271.329 335.366 270.825 335.606 270.429C335.858 270.033 336.26 269.703 336.812 269.439L337.118 269.295C337.658 269.043 338.072 268.773 338.36 268.485C338.648 268.197 338.792 267.813 338.792 267.333C338.792 266.985 338.702 266.691 338.522 266.451C338.354 266.199 338.114 266.007 337.802 265.875C337.49 265.743 337.124 265.677 336.704 265.677C336.272 265.677 335.882 265.749 335.534 265.893C335.198 266.037 334.928 266.253 334.724 266.541C334.532 266.829 334.436 267.189 334.436 267.621V268.017H332.096V267.657C332.096 266.829 332.3 266.115 332.708 265.515C333.116 264.915 333.668 264.459 334.364 264.147C335.06 263.823 335.84 263.661 336.704 263.661C337.556 263.661 338.312 263.817 338.972 264.129C339.644 264.441 340.172 264.873 340.556 265.425C340.94 265.977 341.132 266.613 341.132 267.333C341.132 268.053 341 268.647 340.736 269.115C340.472 269.571 340.136 269.943 339.728 270.231C339.332 270.507 338.924 270.747 338.504 270.951L338.198 271.095C337.982 271.191 337.832 271.311 337.748 271.455C337.664 271.587 337.622 271.785 337.622 272.049V272.373H335.246ZM336.506 276.765C336.026 276.765 335.618 276.609 335.282 276.297C334.958 275.973 334.796 275.559 334.796 275.055C334.796 274.551 334.958 274.143 335.282 273.831C335.618 273.507 336.026 273.345 336.506 273.345C336.998 273.345 337.406 273.507 337.73 273.831C338.054 274.143 338.216 274.551 338.216 275.055C338.216 275.559 338.054 275.973 337.73 276.297C337.406 276.609 336.998 276.765 336.506 276.765Z" fill="white"/>
<path d="M312.662 34.0989L311.98 34.9925L311.365 35.9157L310.819 36.8658L310.343 37.8399L309.937 38.8354L309.602 39.8495L309.34 40.8796L309.152 41.9228L309.038 42.9764L309 44.0378L309.118 45.9142L309.463 47.7335L310.023 49.4857L310.787 51.1606L311.743 52.7483L312.878 54.2386L314.181 55.6215L315.639 56.8869L317.241 58.0248L318.974 59.025L320.179 59.6899L321.341 60.4213L322.44 61.217L323.456 62.0747L324.369 62.992L325.161 63.9666L325.811 64.9963L326.3 66.0787L326.607 67.2115L326.714 68.3924L326.817 69.4677L327.116 70.4878L327.595 71.439L328.236 72.3076L329.024 73.0801L329.943 73.7427L330.976 74.2818L332.108 74.6838L333.321 74.935L334.6 75.0217H345.4L346.679 74.935L347.892 74.6838L349.024 74.2818L350.057 73.7427L350.976 73.0801L351.764 72.3076L352.405 71.439L352.884 70.4878L353.182 69.4677L353.286 68.3924L353.393 67.2115L353.7 66.0787L354.189 64.9963L354.839 63.9666L355.631 62.992L356.544 62.0747L357.56 61.217L358.659 60.4213L359.821 59.6899L361.026 59.025L362.759 58.0248L364.361 56.8869L365.819 55.6215L367.122 54.2386L368.257 52.7483L369.213 51.1606L369.977 49.4857L370.537 47.7335L370.882 45.9142L371 44.0378L370.962 42.9764L370.848 41.9228L370.66 40.8796L370.398 39.8495L370.063 38.8354L369.657 37.8399L369.181 36.8658L368.635 35.9157L368.02 34.9925L367.338 34.0989L344.384 5.94201L343.682 5.2429L342.864 4.69913L341.958 4.31073L340.994 4.0777L340 4.00002L339.006 4.0777L338.042 4.31073L337.136 4.69913L336.318 5.2429L335.616 5.94201L312.662 34.0989Z" fill="#F2F2F2" stroke="#B3B3B3" stroke-width="2.79134"/>
<path d="M336.794 69.3293V38.9341L336.732 38.298L336.556 37.6947L336.273 37.132L335.893 36.6183L335.427 36.1614L334.884 35.7695L334.273 35.4506L333.603 35.2128L332.885 35.0643L332.129 35.013L331.372 35.0644L330.655 35.213L329.985 35.4508L329.374 35.7696L328.831 36.1615L328.365 36.6184L327.985 37.1322L327.703 37.6948L327.526 38.2981L327.465 38.9341V42.707L327.554 43.6383L327.813 44.5217L328.227 45.3455L328.783 46.0978L329.465 46.7667L330.261 47.3406L331.156 47.8075L332.136 48.1557L333.187 48.3733L334.295 48.4484L333.8 48.4557H346.2L345.714 48.4484L346.822 48.3733L347.873 48.1557L348.853 47.8075L349.747 47.3406L350.543 46.7667L351.226 46.0978L351.781 45.3455L352.195 44.5217L352.454 43.6383L352.544 42.707V38.9341L352.483 38.2981L352.306 37.6948L352.023 37.1322L351.644 36.6184L351.178 36.1615L350.634 35.7696L350.023 35.4508L349.354 35.213L348.636 35.0644L347.88 35.013L347.123 35.0643L346.405 35.2128L345.736 35.4506L345.125 35.7695L344.581 36.1614L344.115 36.6183L343.736 37.132L343.453 37.6947L343.276 38.298L343.215 38.9341V69.3293" stroke="#B3B3B3" stroke-width="2.23307"/>
<path d="M326.715 67.576H353.286V70.5543L353.17 71.762L352.835 72.9077L352.298 73.976L351.577 74.9516L350.692 75.8192L349.66 76.5634L348.499 77.1689L347.229 77.6204L345.866 77.9025L344.429 78H335.572L334.135 77.9025L332.772 77.6204L331.501 77.1689L330.341 76.5634L329.309 75.8192L328.424 74.9516L327.703 73.976L327.166 72.9077L326.831 71.762L326.715 70.5543V67.576Z" fill="#141414" stroke="#141414" stroke-width="1.67481"/>
<path d="M326.715 67.576H353.286V70.5543H326.715V67.576Z" fill="#808080" stroke="#808080" stroke-width="1.67481"/>
<path d="M333.653 18.9886C340.226 18.9886 345.554 23.468 345.554 28.9937C345.554 34.5194 340.226 38.9989 333.653 38.9989C327.079 38.9989 321.751 34.5194 321.751 28.9937C321.751 23.468 327.079 18.9886 333.653 18.9886Z" fill="white" fill-opacity="0.3"/>
<rect x="319" y="82" width="43.027" height="20" rx="5" fill="black"/>
<path d="M339.082 99V96.46H342.102C341.476 96.0733 340.942 95.6067 340.502 95.06C340.076 94.5 339.749 93.8733 339.522 93.18C339.309 92.4733 339.202 91.7067 339.202 90.88C339.202 89.6667 339.476 88.58 340.022 87.62C340.582 86.66 341.369 85.9 342.382 85.34C343.409 84.78 344.616 84.5 346.002 84.5C347.402 84.5 348.609 84.78 349.622 85.34C350.636 85.9 351.416 86.6667 351.962 87.64C352.522 88.6 352.802 89.6867 352.802 90.9C352.802 91.7267 352.689 92.4867 352.462 93.18C352.249 93.8733 351.922 94.5 351.482 95.06C351.042 95.6067 350.502 96.0733 349.862 96.46H352.922V99H347.042V96.28C347.776 95.9333 348.329 95.4933 348.702 94.96C349.089 94.4133 349.349 93.8267 349.482 93.2C349.616 92.56 349.682 91.9267 349.682 91.3C349.682 90.4067 349.529 89.6467 349.222 89.02C348.929 88.38 348.509 87.8867 347.962 87.54C347.416 87.1933 346.762 87.02 346.002 87.02C345.242 87.02 344.582 87.1933 344.022 87.54C343.476 87.8867 343.056 88.38 342.762 89.02C342.469 89.66 342.322 90.4267 342.322 91.32C342.322 91.9467 342.402 92.5733 342.562 93.2C342.722 93.8267 342.989 94.4067 343.362 94.94C343.749 95.4733 344.269 95.92 344.922 96.28V99H339.082Z" fill="white"/>
<path d="M332.058 99.28C330.992 99.28 330.065 99.08 329.278 98.68C328.492 98.28 327.885 97.7267 327.458 97.02C327.032 96.3133 326.818 95.5 326.818 94.58V89.8C326.818 88.6667 327.045 87.7267 327.498 86.98C327.965 86.22 328.598 85.6533 329.398 85.28C330.212 84.9067 331.138 84.72 332.178 84.72C333.218 84.72 334.118 84.8933 334.878 85.24C335.652 85.5867 336.245 86.0867 336.658 86.74C337.085 87.3933 337.298 88.1733 337.298 89.08H334.698C334.698 88.52 334.505 88.0333 334.118 87.62C333.732 87.2067 333.085 87 332.178 87C331.285 87 330.592 87.2333 330.098 87.7C329.618 88.1667 329.378 88.8133 329.378 89.64V91.08H329.738C329.965 90.8133 330.312 90.56 330.778 90.32C331.245 90.08 331.925 89.96 332.818 89.96C333.632 89.96 334.378 90.1333 335.058 90.48C335.752 90.8267 336.312 91.3333 336.738 92C337.165 92.6533 337.378 93.4467 337.378 94.38V94.62C337.378 95.54 337.158 96.3533 336.718 97.06C336.278 97.7533 335.658 98.3 334.858 98.7C334.058 99.0867 333.125 99.28 332.058 99.28ZM332.098 97C332.938 97 333.598 96.78 334.078 96.34C334.572 95.9 334.818 95.3133 334.818 94.58V94.42C334.818 93.9267 334.705 93.5 334.478 93.14C334.265 92.78 333.952 92.5 333.538 92.3C333.138 92.1 332.658 92 332.098 92C331.552 92 331.072 92.1 330.658 92.3C330.245 92.5 329.925 92.78 329.698 93.14C329.485 93.5 329.378 93.9267 329.378 94.42V94.58C329.378 95.3133 329.618 95.9 330.098 96.34C330.592 96.78 331.258 97 332.098 97Z" fill="white"/>
<path d="M182.154 6.99997L180.507 7.1346L178.944 7.52435L177.488 8.14808L176.157 8.98459L174.974 10.0127L173.959 11.2112L173.133 12.559L172.518 14.0349L172.133 15.6176L172 17.2861V37.8582L172.135 40.2422L172.53 42.5461L173.169 44.7547L174.039 46.8528L175.123 48.8254L176.408 50.6572L177.878 52.3332L179.517 53.8382L181.312 55.1571L183.248 56.2746L184.629 57.0297L185.971 57.8849L187.251 58.8368L188.441 59.8824L189.517 61.0184L190.455 62.2416L191.228 63.5487L191.811 64.9367L192.179 66.4022L192.308 67.942L192.406 69.1799L192.692 70.3543L193.149 71.4493L193.761 72.4493L194.514 73.3385L195.392 74.1013L196.379 74.722L197.46 75.1848L198.619 75.474L199.841 75.5739H210.159L211.381 75.474L212.54 75.1848L213.621 74.722L214.608 74.1013L215.486 73.3385L216.239 72.4493L216.851 71.4493L217.308 70.3543L217.594 69.1799L217.692 67.942L217.821 66.4022L218.189 64.9367L218.772 63.5487L219.545 62.2416L220.483 61.0184L221.559 59.8824L222.749 58.8368L224.029 57.8849L225.371 57.0297L226.752 56.2746L228.688 55.1571L230.483 53.8382L232.122 52.3332L233.592 50.6572L234.877 48.8254L235.961 46.8528L236.831 44.7547L237.47 42.5461L237.865 40.2422L238 37.8582V17.2861L237.867 15.6176L237.482 14.0349L236.867 12.559L236.041 11.2112L235.026 10.0127L233.843 8.98459L232.512 8.14808L231.056 7.52435L229.493 7.1346L227.846 6.99997H182.154Z" fill="#F2F2F2" stroke="#B3B3B3" stroke-width="2.78497"/>
<path d="M201.937 68.0162V35.9372L201.864 35.0106L201.65 34.1315L201.308 33.3118L200.849 32.5633L200.286 31.8976L199.628 31.3266L198.889 30.862L198.08 30.5156L197.213 30.2992L196.298 30.2244L191.352 30.2246L190.525 30.2922L189.741 30.4878L189.01 30.8009L188.342 31.2207L187.749 31.7366L187.239 32.3381L186.825 33.0144L186.516 33.7551L186.323 34.5494L186.256 35.3866L186.323 36.224L186.516 37.0182L186.825 37.7589L187.239 38.4353L187.749 39.0367L188.342 39.5527L189.01 39.9725L189.741 40.2855L190.525 40.4811L191.352 40.5487L196.165 40.5487L196.108 40.5572H213.896L213.844 40.5487L218.657 40.5487L219.484 40.4811L220.268 40.2855L220.999 39.9725L221.667 39.5527L222.261 39.0367L222.77 38.4353L223.184 37.7589L223.493 37.0182L223.686 36.224L223.753 35.3866L223.686 34.5494L223.493 33.7551L223.184 33.0144L222.77 32.3381L222.261 31.7366L221.667 31.2207L220.999 30.8009L220.268 30.4878L219.484 30.2922L218.658 30.2246L213.711 30.2244L212.797 30.2992L211.929 30.5156L211.12 30.862L210.381 31.3266L209.724 31.8976L209.16 32.5633L208.701 33.3118L208.359 34.1315L208.146 35.0106L208.072 35.9372V68.0162" stroke="#B3B3B3" stroke-width="2.22798"/>
<path d="M192.308 67.0009H217.692V70.4296H192.308V67.0009Z" fill="#808080" stroke="#808080" stroke-width="1.67098"/>
<path d="M192.308 66.9996H217.692V70.4283L217.582 71.8186L217.261 73.1376L216.748 74.3675L216.06 75.4906L215.214 76.4894L214.228 77.3462L213.119 78.0432L211.905 78.563L210.603 78.8878L209.231 79H200.769L199.397 78.8878L198.095 78.563L196.881 78.0432L195.772 77.3462L194.786 76.4894L193.94 75.4906L193.252 74.3675L192.739 73.1376L192.418 71.8186L192.308 70.4283V66.9996Z" fill="#141414" stroke="#141414" stroke-width="1.67098"/>
<rect x="185" y="85" width="43.027" height="20" rx="5" fill="black"/>
<path d="M206.082 102V99.46H209.102C208.476 99.0733 207.942 98.6067 207.502 98.06C207.076 97.5 206.749 96.8733 206.522 96.18C206.309 95.4733 206.202 94.7067 206.202 93.88C206.202 92.6667 206.476 91.58 207.022 90.62C207.582 89.66 208.369 88.9 209.382 88.34C210.409 87.78 211.616 87.5 213.002 87.5C214.402 87.5 215.609 87.78 216.622 88.34C217.636 88.9 218.416 89.6667 218.962 90.64C219.522 91.6 219.802 92.6867 219.802 93.9C219.802 94.7267 219.689 95.4867 219.462 96.18C219.249 96.8733 218.922 97.5 218.482 98.06C218.042 98.6067 217.502 99.0733 216.862 99.46H219.922V102H214.042V99.28C214.776 98.9333 215.329 98.4933 215.702 97.96C216.089 97.4133 216.349 96.8267 216.482 96.2C216.616 95.56 216.682 94.9267 216.682 94.3C216.682 93.4067 216.529 92.6467 216.222 92.02C215.929 91.38 215.509 90.8867 214.962 90.54C214.416 90.1933 213.762 90.02 213.002 90.02C212.242 90.02 211.582 90.1933 211.022 90.54C210.476 90.8867 210.056 91.38 209.762 92.02C209.469 92.66 209.322 93.4267 209.322 94.32C209.322 94.9467 209.402 95.5733 209.562 96.2C209.722 96.8267 209.989 97.4067 210.362 97.94C210.749 98.4733 211.269 98.92 211.922 99.28V102H206.082Z" fill="white"/>
<path d="M200.043 102V99.16H193.163V96.2L198.003 88H202.603V96.88H204.923V99.16H202.603V102H200.043ZM195.603 96.88H200.043V89.64H199.683L195.603 96.56V96.88Z" fill="white"/>
<path d="M75.8572 65.3901L75.9136 64.3651L76.0782 63.3643L76.3436 62.391L76.7028 61.4487L77.1484 60.5405L77.6733 59.6698L78.2702 58.8399L78.932 58.0541L79.6514 57.3158L80.4211 56.6282L82.6238 54.6176L84.6535 52.4129L86.4964 50.038L88.1386 47.517L89.5662 44.8739L90.7653 42.1325L91.7222 39.317L92.4228 36.4513L92.8534 33.5593L93 30.6652L92.6074 26.0155L91.4706 21.6048L89.6515 17.4919L87.2117 13.7359L84.2132 10.3959L80.7176 7.53074L76.7867 5.19958L72.4823 3.4614L67.8662 2.37521L63 2.00003L58.1338 2.37521L53.5177 3.4614L49.2133 5.19958L45.2824 7.53074L41.7868 10.3959L38.7883 13.7359L36.3485 17.4919L34.5294 21.6048L33.3927 26.0155L33 30.6652L33.1466 33.5593L33.5772 36.4513L34.2778 39.317L35.2347 42.1325L36.4338 44.8739L37.8614 47.517L39.5036 50.038L41.3465 52.4129L43.3762 54.6176L45.5789 56.6282L46.3486 57.3158L47.068 58.0541L47.7298 58.8399L48.3267 59.6698L48.8516 60.5405L49.2972 61.4487L49.6564 62.391L49.9218 63.3643L50.0864 64.3651L50.1429 65.3901L50.2381 66.5775L50.5137 67.704L50.9548 68.7543L51.5463 69.7135L52.2733 70.5665L53.1209 71.2982L54.074 71.8936L55.1176 72.3375L56.2369 72.6149L57.4167 72.7107H68.5833L69.7632 72.6149L70.8824 72.3375L71.926 71.8936L72.8791 71.2982L73.7267 70.5665L74.4537 69.7135L75.0453 68.7543L75.4863 67.704L75.7619 66.5775L75.8572 65.3901Z" fill="#F2F2F2" stroke="#B3B3B3" stroke-width="2.78497"/>
<path d="M59.8972 66.4257V34.7989L59.8157 33.7821L59.5797 32.8176L59.202 31.9182L58.6955 31.0969L58.073 30.3665L57.3472 29.74L56.5311 29.2303L55.6375 28.8502L54.6791 28.6127L53.6688 28.5307L53.1776 28.5307L52.247 28.6063L51.3643 28.8251L50.5412 29.1753L49.7896 29.6448L49.1211 30.2219L48.5477 30.8947L48.0812 31.6512L47.7334 32.4796L47.516 33.368L47.4409 34.3045L47.516 35.241L47.7334 36.1295L48.0812 36.9579L48.5478 37.7144L49.1212 38.3872L49.7896 38.9643L50.5413 39.4338L51.3644 39.7839L52.2472 40.0027L53.1777 40.0783L54.0503 40.0783L53.9917 40.0864H72.0111L71.9583 40.0783L72.8308 40.0783L73.7614 40.0027L74.6441 39.7839L75.4672 39.4338L76.2189 38.9643L76.8874 38.3872L77.4608 37.7144L77.9273 36.9579L78.2752 36.1295L78.4926 35.241L78.5676 34.3045L78.4926 33.368L78.2752 32.4796L77.9273 31.6512L77.4608 30.8947L76.8874 30.2219L76.219 29.6448L75.4673 29.1753L74.6442 28.8251L73.7615 28.6063L72.831 28.5307L72.3398 28.5307L71.3295 28.6127L70.3711 28.8502L69.4774 29.2303L68.6613 29.74L67.9356 30.3665L67.3131 31.0969L66.8065 31.9182L66.4289 32.8176L66.1928 33.7821L66.1113 34.7989V66.4257" stroke="#B3B3B3" stroke-width="2.22798"/>
<path d="M50.1433 64.489H75.8576V67.7778L75.7507 69.1115L75.4411 70.3767L74.9457 71.5564L74.2813 72.6337L73.4648 73.5918L72.5128 74.4136L71.4424 75.0823L70.2702 75.5808L69.0131 75.8924L67.688 76H58.313L56.9878 75.8924L55.7307 75.5808L54.5585 75.0823L53.4881 74.4136L52.5361 73.5918L51.7196 72.6337L51.0552 71.5564L50.5598 70.3767L50.2502 69.1115L50.1433 67.7778V64.489Z" fill="#141414" stroke="#141414" stroke-width="1.67098"/>
<path d="M50.1433 64.4932H75.8576V67.7821H50.1433V64.4932Z" fill="#808080" stroke="#808080" stroke-width="1.67098"/>
<rect x="43" y="82" width="43.027" height="20" rx="5" fill="black"/>
<path d="M63.0823 99V96.46H66.1023C65.4757 96.0733 64.9423 95.6067 64.5023 95.06C64.0757 94.5 63.749 93.8733 63.5223 93.18C63.309 92.4733 63.2023 91.7067 63.2023 90.88C63.2023 89.6667 63.4757 88.58 64.0223 87.62C64.5823 86.66 65.369 85.9 66.3823 85.34C67.409 84.78 68.6157 84.5 70.0023 84.5C71.4023 84.5 72.609 84.78 73.6223 85.34C74.6357 85.9 75.4157 86.6667 75.9623 87.64C76.5223 88.6 76.8023 89.6867 76.8023 90.9C76.8023 91.7267 76.689 92.4867 76.4623 93.18C76.249 93.8733 75.9223 94.5 75.4823 95.06C75.0423 95.6067 74.5023 96.0733 73.8623 96.46H76.9223V99H71.0423V96.28C71.7757 95.9333 72.329 95.4933 72.7023 94.96C73.089 94.4133 73.349 93.8267 73.4823 93.2C73.6157 92.56 73.6823 91.9267 73.6823 91.3C73.6823 90.4067 73.529 89.6467 73.2223 89.02C72.929 88.38 72.509 87.8867 71.9623 87.54C71.4157 87.1933 70.7623 87.02 70.0023 87.02C69.2423 87.02 68.5823 87.1933 68.0223 87.54C67.4757 87.8867 67.0557 88.38 66.7623 89.02C66.469 89.66 66.3223 90.4267 66.3223 91.32C66.3223 91.9467 66.4023 92.5733 66.5623 93.2C66.7223 93.8267 66.989 94.4067 67.3623 94.94C67.749 95.4733 68.269 95.92 68.9223 96.28V99H63.0823Z" fill="white"/>
<path d="M50.9025 99V97.32C50.9025 96.3467 51.0625 95.54 51.3825 94.9C51.7025 94.2467 52.1625 93.7133 52.7625 93.3C53.3758 92.8733 54.1225 92.5267 55.0025 92.26L56.3425 91.84C56.8358 91.68 57.2492 91.4867 57.5825 91.26C57.9158 91.02 58.1692 90.7333 58.3425 90.4C58.5292 90.0667 58.6225 89.6867 58.6225 89.26V89.18C58.6225 88.5133 58.3958 87.9867 57.9425 87.6C57.4892 87.2 56.8692 87 56.0825 87C55.3092 87 54.6825 87.2133 54.2025 87.64C53.7358 88.0533 53.5025 88.6533 53.5025 89.44V89.8H50.9425V89.48C50.9425 88.4667 51.1692 87.6067 51.6225 86.9C52.0758 86.1933 52.6892 85.6533 53.4625 85.28C54.2492 84.9067 55.1225 84.72 56.0825 84.72C57.0425 84.72 57.9092 84.9067 58.6825 85.28C59.4558 85.64 60.0625 86.1533 60.5025 86.82C60.9558 87.4733 61.1825 88.2467 61.1825 89.14V89.34C61.1825 90.2333 60.9958 90.9933 60.6225 91.62C60.2625 92.2333 59.7692 92.74 59.1425 93.14C58.5158 93.5267 57.8025 93.8467 57.0025 94.1L55.7225 94.5C55.1492 94.6733 54.7025 94.8667 54.3825 95.08C54.0625 95.28 53.8358 95.5067 53.7025 95.76C53.5825 96 53.5225 96.2933 53.5225 96.64V96.72H61.0625V99H50.9025Z" fill="white"/>
</svg>
