<svg width="400" height="300" viewBox="0 0 400 300" fill="none" xmlns="http://www.w3.org/2000/svg">
<rect x="18" y="73" width="368" height="203" stroke="black" stroke-width="2"/>
<path d="M255.103 275.922L254.915 233.986L134.899 234.554L135.087 276.489" stroke="black" stroke-width="2"/>
<path d="M225.026 288.182H162.573C160.11 288.182 158.113 286.223 158.113 283.807V257.563C158.113 255.147 160.11 253.189 162.573 253.189H225.026C227.489 253.189 229.486 255.147 229.486 257.563V283.807C229.486 286.223 227.489 288.182 225.026 288.182Z" fill="#CE6809"/>
<path d="M158.113 287.634H204.952V253.735H158.113V287.634Z" fill="#333333"/>
<path d="M204.952 266.311H229.487V257.563H204.952V266.311Z" fill="#E77A16"/>
<path d="M158.113 266.854H204.952V258.106H158.113V266.854Z" fill="#4C4C4C"/>
<path d="M235.882 279.521H231.421C230.189 279.521 229.191 278.542 229.191 277.334V264.212C229.191 263.004 230.189 262.025 231.421 262.025H235.882C237.114 262.025 238.113 263.004 238.113 264.212V277.334C238.113 278.542 237.114 279.521 235.882 279.521Z" fill="#333333"/>
<path d="M234.767 268.365H230.306C229.69 268.365 229.191 267.875 229.191 267.271V265.084C229.191 264.48 229.69 263.99 230.306 263.99H234.767C235.383 263.99 235.882 264.48 235.882 265.084V267.271C235.882 267.875 235.383 268.365 234.767 268.365Z" fill="#4C4C4C"/>
<path d="M225.026 288.189H162.573C160.11 288.189 158.113 286.231 158.113 283.815V257.571C158.113 255.155 160.11 253.197 162.573 253.197H225.026C227.489 253.197 229.486 255.155 229.486 257.571V283.815C229.486 286.231 227.489 288.189 225.026 288.189Z" stroke="#333333" stroke-width="2.78497"/>
<rect x="179.113" y="223.081" width="40" height="20.5405" rx="5" fill="black"/>
<path d="M193.102 239.252C192.142 239.252 191.308 239.072 190.6 238.712C189.892 238.352 189.346 237.854 188.962 237.218C188.578 236.582 188.386 235.85 188.386 235.022V230.72C188.386 229.7 188.59 228.854 188.998 228.182C189.418 227.498 189.988 226.988 190.708 226.652C191.44 226.316 192.274 226.148 193.21 226.148C194.146 226.148 194.956 226.304 195.64 226.616C196.336 226.928 196.87 227.378 197.242 227.966C197.626 228.554 197.818 229.256 197.818 230.072H195.478C195.478 229.568 195.304 229.13 194.956 228.758C194.608 228.386 194.026 228.2 193.21 228.2C192.406 228.2 191.782 228.41 191.338 228.83C190.906 229.25 190.69 229.832 190.69 230.576V231.872H191.014C191.218 231.632 191.53 231.404 191.95 231.188C192.37 230.972 192.982 230.864 193.786 230.864C194.518 230.864 195.19 231.02 195.802 231.332C196.426 231.644 196.93 232.1 197.314 232.7C197.698 233.288 197.89 234.002 197.89 234.842V235.058C197.89 235.886 197.692 236.618 197.296 237.254C196.9 237.878 196.342 238.37 195.622 238.73C194.902 239.078 194.062 239.252 193.102 239.252ZM193.138 237.2C193.894 237.2 194.488 237.002 194.92 236.606C195.364 236.21 195.586 235.682 195.586 235.022V234.878C195.586 234.434 195.484 234.05 195.28 233.726C195.088 233.402 194.806 233.15 194.434 232.97C194.074 232.79 193.642 232.7 193.138 232.7C192.646 232.7 192.214 232.79 191.842 232.97C191.47 233.15 191.182 233.402 190.978 233.726C190.786 234.05 190.69 234.434 190.69 234.878V235.022C190.69 235.682 190.906 236.21 191.338 236.606C191.782 237.002 192.382 237.2 193.138 237.2ZM202.141 239L198.937 226.4H201.385L204.049 237.47H204.301L206.965 226.4H209.413L206.209 239H202.141Z" fill="white"/>
<rect x="307" y="240" width="58" height="58" rx="9" fill="#F7F7F7" stroke="#E5E5E5" stroke-width="2"/>
<circle cx="337" cy="270.163" r="15.625" fill="black"/>
<path d="M335.246 272.373V271.941C335.246 271.329 335.366 270.825 335.606 270.429C335.858 270.033 336.26 269.703 336.812 269.439L337.118 269.295C337.658 269.043 338.072 268.773 338.36 268.485C338.648 268.197 338.792 267.813 338.792 267.333C338.792 266.985 338.702 266.691 338.522 266.451C338.354 266.199 338.114 266.007 337.802 265.875C337.49 265.743 337.124 265.677 336.704 265.677C336.272 265.677 335.882 265.749 335.534 265.893C335.198 266.037 334.928 266.253 334.724 266.541C334.532 266.829 334.436 267.189 334.436 267.621V268.017H332.096V267.657C332.096 266.829 332.3 266.115 332.708 265.515C333.116 264.915 333.668 264.459 334.364 264.147C335.06 263.823 335.84 263.661 336.704 263.661C337.556 263.661 338.312 263.817 338.972 264.129C339.644 264.441 340.172 264.873 340.556 265.425C340.94 265.977 341.132 266.613 341.132 267.333C341.132 268.053 341 268.647 340.736 269.115C340.472 269.571 340.136 269.943 339.728 270.231C339.332 270.507 338.924 270.747 338.504 270.951L338.198 271.095C337.982 271.191 337.832 271.311 337.748 271.455C337.664 271.587 337.622 271.785 337.622 272.049V272.373H335.246ZM336.506 276.765C336.026 276.765 335.618 276.609 335.282 276.297C334.958 275.973 334.796 275.559 334.796 275.055C334.796 274.551 334.958 274.143 335.282 273.831C335.618 273.507 336.026 273.345 336.506 273.345C336.998 273.345 337.406 273.507 337.73 273.831C338.054 274.143 338.216 274.551 338.216 275.055C338.216 275.559 338.054 275.973 337.73 276.297C337.406 276.609 336.998 276.765 336.506 276.765Z" fill="white"/>
<path d="M317.835 40.4046L317.307 41.1291L316.831 41.8776L316.408 42.6479L316.039 43.4378L315.725 44.2449L315.466 45.0672L315.263 45.9024L315.118 46.7482L315.03 47.6025L315 48.4631L315.091 49.9845L315.358 51.4596L315.792 52.8803L316.384 54.2384L317.124 55.5257L318.002 56.734L319.011 57.8553L320.14 58.8813L321.38 59.8039L322.722 60.6149L323.655 61.154L324.554 61.747L325.405 62.3922L326.191 63.0876L326.899 63.8314L327.512 64.6216L328.015 65.4565L328.393 66.3341L328.632 67.2526L328.714 68.2101L328.794 69.082L329.026 69.9091L329.396 70.6803L329.892 71.3846L330.502 72.0109L331.214 72.5481L332.014 72.9852L332.89 73.3112L333.829 73.5149L334.82 73.5852H343.18L344.171 73.5149L345.11 73.3112L345.986 72.9852L346.786 72.5481L347.498 72.0109L348.108 71.3846L348.604 70.6803L348.974 69.9091L349.206 69.082L349.286 68.2101L349.368 67.2526L349.607 66.3341L349.985 65.4565L350.488 64.6216L351.101 63.8314L351.809 63.0876L352.595 62.3922L353.446 61.747L354.345 61.154L355.278 60.6149L356.62 59.8039L357.86 58.8813L358.989 57.8553L359.998 56.734L360.876 55.5257L361.616 54.2384L362.208 52.8803L362.642 51.4596L362.909 49.9845L363 48.4631L362.97 47.6025L362.882 46.7482L362.737 45.9024L362.534 45.0672L362.275 44.2449L361.961 43.4378L361.592 42.6479L361.169 41.8777L360.693 41.1291L360.165 40.4046L342.394 17.5746L341.851 17.0078L341.217 16.5669L340.516 16.252L339.769 16.063L339 16L338.231 16.063L337.484 16.252L336.783 16.5669L336.149 17.0078L335.606 17.5746L317.835 40.4046Z" fill="#F2F2F2" stroke="#B3B3B3" stroke-width="2.79134"/>
<path d="M336.518 68.9698V44.325L336.47 43.8093L336.333 43.3201L336.115 42.8639L335.821 42.4473L335.46 42.0769L335.039 41.7591L334.566 41.5006L334.048 41.3078L333.492 41.1874L332.906 41.1458L332.321 41.1874L331.765 41.3079L331.247 41.5007L330.774 41.7593L330.353 42.077L329.992 42.4475L329.698 42.864L329.479 43.3202L329.343 43.8094L329.295 44.325V47.3841L329.365 48.1392L329.565 48.8555L329.886 49.5235L330.316 50.1334L330.844 50.6759L331.46 51.1411L332.153 51.5197L332.912 51.802L333.725 51.9784L334.583 52.0394L334.2 52.0453H343.8L343.424 52.0394L344.281 51.9784L345.095 51.802L345.854 51.5197L346.546 51.1411L347.163 50.6759L347.691 50.1334L348.121 49.5235L348.442 48.8555L348.642 48.1392L348.711 47.3841V44.325L348.664 43.8094L348.527 43.3202L348.308 42.864L348.015 42.4475L347.654 42.077L347.233 41.7593L346.76 41.5007L346.242 41.3079L345.686 41.1874L345.1 41.1458L344.515 41.1874L343.959 41.3078L343.441 41.5006L342.968 41.7591L342.547 42.0769L342.186 42.4473L341.892 42.8639L341.673 43.3201L341.536 43.8093L341.489 44.325V68.9698" stroke="#B3B3B3" stroke-width="2.23307"/>
<path d="M328.715 67.5481H349.286V69.9629L349.196 70.9422L348.936 71.8711L348.521 72.7373L347.963 73.5284L347.278 74.2318L346.479 74.8352L345.58 75.3262L344.596 75.6922L343.541 75.921L342.429 76H335.572L334.459 75.921L333.404 75.6922L332.42 75.3262L331.522 74.8352L330.723 74.2318L330.038 73.5284L329.48 72.7373L329.064 71.8711L328.804 70.9422L328.715 69.9629V67.5481Z" fill="#141414" stroke="#141414" stroke-width="1.67481"/>
<path d="M328.715 67.5481H349.286V69.9629H328.715V67.5481Z" fill="#808080" stroke="#808080" stroke-width="1.67481"/>
<path d="M334.086 28.153C339.175 28.153 343.3 31.785 343.3 36.2653C343.3 40.7456 339.175 44.3776 334.086 44.3776C328.997 44.3776 324.872 40.7456 324.872 36.2653C324.872 31.785 328.997 28.153 334.086 28.153Z" fill="white" fill-opacity="0.3"/>
<rect x="319" y="82" width="43.027" height="20" rx="5" fill="black"/>
<path d="M338.774 98V95.714H341.492C340.928 95.366 340.448 94.946 340.052 94.454C339.668 93.95 339.374 93.386 339.17 92.762C338.978 92.126 338.882 91.436 338.882 90.692C338.882 89.6 339.128 88.622 339.62 87.758C340.124 86.894 340.832 86.21 341.744 85.706C342.668 85.202 343.754 84.95 345.002 84.95C346.262 84.95 347.348 85.202 348.26 85.706C349.172 86.21 349.874 86.9 350.366 87.776C350.87 88.64 351.122 89.618 351.122 90.71C351.122 91.454 351.02 92.138 350.816 92.762C350.624 93.386 350.33 93.95 349.934 94.454C349.538 94.946 349.052 95.366 348.476 95.714H351.23V98H345.938V95.552C346.598 95.24 347.096 94.844 347.432 94.364C347.78 93.872 348.014 93.344 348.134 92.78C348.254 92.204 348.314 91.634 348.314 91.07C348.314 90.266 348.176 89.582 347.9 89.018C347.636 88.442 347.258 87.998 346.766 87.686C346.274 87.374 345.686 87.218 345.002 87.218C344.318 87.218 343.724 87.374 343.22 87.686C342.728 87.998 342.35 88.442 342.086 89.018C341.822 89.594 341.69 90.284 341.69 91.088C341.69 91.652 341.762 92.216 341.906 92.78C342.05 93.344 342.29 93.866 342.626 94.346C342.974 94.826 343.442 95.228 344.03 95.552V98H338.774Z" fill="white"/>
<path d="M333.053 98.252C332.093 98.252 331.259 98.072 330.551 97.712C329.843 97.352 329.297 96.854 328.913 96.218C328.529 95.582 328.337 94.85 328.337 94.022V89.72C328.337 88.7 328.541 87.854 328.949 87.182C329.369 86.498 329.939 85.988 330.659 85.652C331.391 85.316 332.225 85.148 333.161 85.148C334.097 85.148 334.907 85.304 335.591 85.616C336.287 85.928 336.821 86.378 337.193 86.966C337.577 87.554 337.769 88.256 337.769 89.072H335.429C335.429 88.568 335.255 88.13 334.907 87.758C334.559 87.386 333.977 87.2 333.161 87.2C332.357 87.2 331.733 87.41 331.289 87.83C330.857 88.25 330.641 88.832 330.641 89.576V90.872H330.965C331.169 90.632 331.481 90.404 331.901 90.188C332.321 89.972 332.933 89.864 333.737 89.864C334.469 89.864 335.141 90.02 335.753 90.332C336.377 90.644 336.881 91.1 337.265 91.7C337.649 92.288 337.841 93.002 337.841 93.842V94.058C337.841 94.886 337.643 95.618 337.247 96.254C336.851 96.878 336.293 97.37 335.573 97.73C334.853 98.078 334.013 98.252 333.053 98.252ZM333.089 96.2C333.845 96.2 334.439 96.002 334.871 95.606C335.315 95.21 335.537 94.682 335.537 94.022V93.878C335.537 93.434 335.435 93.05 335.231 92.726C335.039 92.402 334.757 92.15 334.385 91.97C334.025 91.79 333.593 91.7 333.089 91.7C332.597 91.7 332.165 91.79 331.793 91.97C331.421 92.15 331.133 92.402 330.929 92.726C330.737 93.05 330.641 93.434 330.641 93.878V94.022C330.641 94.682 330.857 95.21 331.289 95.606C331.733 96.002 332.333 96.2 333.089 96.2Z" fill="white"/>
<path d="M187 21L185.702 21.1047L184.471 21.4078L183.324 21.8929L182.275 22.5436L181.343 23.3432L180.544 24.2754L179.893 25.3237L179.408 26.4715L179.105 27.7026L179 29.0002V45.0008L179.106 46.8551L179.417 48.647L179.921 50.3647L180.606 51.9966L181.461 53.5308L182.473 54.9556L183.631 56.2592L184.923 57.4297L186.337 58.4555L187.862 59.3247L188.95 59.912L190.008 60.5771L191.016 61.3175L191.954 62.1308L192.802 63.0143L193.54 63.9657L194.149 64.9823L194.609 66.0618L194.899 67.2017L195 68.3993L195.078 69.3622L195.303 70.2755L195.663 71.1272L196.145 71.905L196.739 72.5966L197.43 73.1899L198.208 73.6727L199.06 74.0326L199.973 74.2575L200.936 74.3352H209.064L210.027 74.2575L210.94 74.0326L211.792 73.6727L212.57 73.1899L213.261 72.5966L213.855 71.905L214.337 71.1272L214.697 70.2755L214.922 69.3622L215 68.3993L215.101 67.2017L215.391 66.0618L215.851 64.9823L216.46 63.9657L217.198 63.0143L218.046 62.1308L218.984 61.3175L219.992 60.5771L221.05 59.912L222.138 59.3247L223.663 58.4555L225.077 57.4297L226.369 56.2592L227.527 54.9556L228.539 53.5308L229.394 51.9966L230.079 50.3647L230.583 48.647L230.894 46.8551L231 45.0008V29.0002L230.895 27.7026L230.592 26.4715L230.107 25.3237L229.456 24.2754L228.657 23.3432L227.725 22.5436L226.676 21.8929L225.529 21.4078L224.298 21.1047L223 21H187Z" fill="#F2F2F2" stroke="#B3B3B3" stroke-width="2.78497"/>
<path d="M202.587 68.457V43.5067L202.529 42.786L202.36 42.1022L202.091 41.4647L201.73 40.8825L201.286 40.3648L200.768 39.9207L200.186 39.5593L199.548 39.2899L198.864 39.1215L198.144 39.0634L194.247 39.0636L193.595 39.1161L192.978 39.2683L192.402 39.5117L191.876 39.8382L191.408 40.2395L191.007 40.7074L190.68 41.2334L190.437 41.8095L190.285 42.4272L190.232 43.0785L190.285 43.7297L190.437 44.3475L190.68 44.9235L191.007 45.4496L191.408 45.9174L191.876 46.3187L192.402 46.6452L192.978 46.8887L193.596 47.0408L194.247 47.0934L198.039 47.0934L197.994 47.1H212.009L211.968 47.0934L215.76 47.0934L216.412 47.0408L217.029 46.8887L217.605 46.6452L218.131 46.3187L218.599 45.9174L219 45.4496L219.327 44.9235L219.57 44.3475L219.723 43.7297L219.775 43.0785L219.723 42.4272L219.57 41.8095L219.327 41.2334L219 40.7074L218.599 40.2395L218.131 39.8382L217.605 39.5117L217.029 39.2683L216.412 39.1161L215.76 39.0636L211.863 39.0634L211.143 39.1215L210.459 39.2899L209.821 39.5593L209.239 39.9207L208.722 40.3648L208.277 40.8825L207.916 41.4647L207.647 42.1022L207.478 42.786L207.42 43.5067V68.457" stroke="#B3B3B3" stroke-width="2.22798"/>
<path d="M195 67.6673H215V70.3341H195V67.6673Z" fill="#808080" stroke="#808080" stroke-width="1.67098"/>
<path d="M195 67.6663H215V70.3331L214.913 71.4145L214.66 72.4404L214.256 73.3969L213.714 74.2705L213.047 75.0473L212.271 75.7137L211.397 76.2559L210.441 76.6601L209.415 76.9127L208.333 77H201.667L200.585 76.9127L199.559 76.6601L198.603 76.2559L197.729 75.7137L196.953 75.0473L196.286 74.2705L195.744 73.3969L195.34 72.4404L195.087 71.4145L195 70.3331V67.6663Z" fill="#141414" stroke="#141414" stroke-width="1.67098"/>
<rect x="185" y="83" width="43.027" height="20" rx="5" fill="black"/>
<path d="M204.774 99V96.714H207.492C206.928 96.366 206.448 95.946 206.052 95.454C205.668 94.95 205.374 94.386 205.17 93.762C204.978 93.126 204.882 92.436 204.882 91.692C204.882 90.6 205.128 89.622 205.62 88.758C206.124 87.894 206.832 87.21 207.744 86.706C208.668 86.202 209.754 85.95 211.002 85.95C212.262 85.95 213.348 86.202 214.26 86.706C215.172 87.21 215.874 87.9 216.366 88.776C216.87 89.64 217.122 90.618 217.122 91.71C217.122 92.454 217.02 93.138 216.816 93.762C216.624 94.386 216.33 94.95 215.934 95.454C215.538 95.946 215.052 96.366 214.476 96.714H217.23V99H211.938V96.552C212.598 96.24 213.096 95.844 213.432 95.364C213.78 94.872 214.014 94.344 214.134 93.78C214.254 93.204 214.314 92.634 214.314 92.07C214.314 91.266 214.176 90.582 213.9 90.018C213.636 89.442 213.258 88.998 212.766 88.686C212.274 88.374 211.686 88.218 211.002 88.218C210.318 88.218 209.724 88.374 209.22 88.686C208.728 88.998 208.35 89.442 208.086 90.018C207.822 90.594 207.69 91.284 207.69 92.088C207.69 92.652 207.762 93.216 207.906 93.78C208.05 94.344 208.29 94.866 208.626 95.346C208.974 95.826 209.442 96.228 210.03 96.552V99H204.774Z" fill="white"/>
<path d="M199.938 99V96.444H193.746V93.78L198.102 86.4H202.242V94.392H204.33V96.444H202.242V99H199.938ZM195.942 94.392H199.938V87.876H199.614L195.942 94.104V94.392Z" fill="white"/>
<path d="M73.7143 68.3974L73.7613 67.5663L73.8985 66.7548L74.1197 65.9657L74.419 65.2016L74.7904 64.4653L75.2278 63.7593L75.7252 63.0864L76.2767 62.4493L76.8761 61.8506L77.5176 61.2931L79.3532 59.6629L81.0446 57.8753L82.5803 55.9498L83.9488 53.9057L85.1385 51.7626L86.1378 49.5399L86.9352 47.257L87.519 44.9335L87.8778 42.5887L88 40.242L87.6728 36.4721L86.7255 32.8958L85.2095 29.561L83.1765 26.5156L80.6777 23.8075L77.7647 21.4844L74.4889 19.5943L70.9019 18.1849L67.0551 17.3042L63 17L58.9449 17.3042L55.0981 18.1849L51.5111 19.5943L48.2353 21.4844L45.3223 23.8075L42.8236 26.5156L40.7905 29.561L39.2745 32.8958L38.3272 36.4721L38 40.242L38.1222 42.5887L38.481 44.9335L39.0648 47.257L39.8622 49.5399L40.8615 51.7626L42.0512 53.9057L43.4197 55.9498L44.9554 57.8753L46.6469 59.6629L48.4824 61.2931L49.1239 61.8506L49.7233 62.4493L50.2748 63.0864L50.7723 63.7593L51.2097 64.4653L51.581 65.2016L51.8803 65.9657L52.1015 66.7548L52.2387 67.5663L52.2857 68.3974L52.3651 69.3602L52.5947 70.2735L52.9623 71.1251L53.4552 71.9029L54.0611 72.5945L54.7674 73.1878L55.5616 73.6705L56.4313 74.0304L57.364 74.2553L58.3473 74.333H67.6527L68.636 74.2553L69.5687 74.0304L70.4384 73.6705L71.2326 73.1878L71.9389 72.5945L72.5448 71.9029L73.0377 71.1251L73.4053 70.2735L73.635 69.3602L73.7143 68.3974Z" fill="#F2F2F2" stroke="#B3B3B3" stroke-width="2.78497"/>
<path d="M60.4143 69.2371V43.5937L60.3464 42.7693L60.1497 41.9873L59.835 41.2581L59.4129 40.5921L58.8941 39.9999L58.2893 39.4919L57.6092 39.0786L56.8645 38.7705L56.0659 38.5779L55.224 38.5114L54.8146 38.5114L54.0392 38.5727L53.3036 38.7502L52.6177 39.034L51.9913 39.4148L51.4342 39.8827L50.9564 40.4282L50.5676 41.0416L50.2778 41.7132L50.0966 42.4336L50.0341 43.1929L50.0966 43.9522L50.2778 44.6726L50.5677 45.3443L50.9564 45.9577L51.4343 46.5032L51.9913 46.9711L52.6177 47.3518L53.3037 47.6357L54.0393 47.8131L54.8147 47.8743L55.5419 47.8744L55.493 47.8809H70.5092L70.4652 47.8744L71.1923 47.8743L71.9678 47.8131L72.7034 47.6357L73.3893 47.3518L74.0157 46.9711L74.5728 46.5032L75.0506 45.9577L75.4394 45.3443L75.7293 44.6726L75.9104 43.9522L75.973 43.1929L75.9104 42.4336L75.7293 41.7132L75.4394 41.0416L75.0506 40.4282L74.5728 39.8827L74.0158 39.4148L73.3894 39.034L72.7035 38.7502L71.9679 38.5727L71.1924 38.5114L70.7831 38.5114L69.9412 38.5779L69.1425 38.7705L68.3978 39.0786L67.7177 39.4919L67.113 39.9999L66.5942 40.5921L66.1721 41.2581L65.8573 41.9873L65.6607 42.7693L65.5927 43.5937V69.2371" stroke="#B3B3B3" stroke-width="2.22798"/>
<path d="M52.2861 67.6667H73.7147V70.3334L73.6256 71.4147L73.3676 72.4405L72.9548 73.3971L72.4011 74.2706L71.7207 75.0474L70.9274 75.7137L70.0354 76.2559L69.0585 76.6601L68.011 76.9127L66.9067 77H59.0942L57.9899 76.9127L56.9423 76.6601L55.9655 76.2559L55.0734 75.7137L54.2802 75.0474L53.5997 74.2706L53.046 73.3971L52.6332 72.4405L52.3752 71.4147L52.2861 70.3334V67.6667Z" fill="#141414" stroke="#141414" stroke-width="1.67098"/>
<path d="M52.2861 67.6701H73.7147V70.3368H52.2861V67.6701Z" fill="#808080" stroke="#808080" stroke-width="1.67098"/>
<rect x="43" y="82" width="43.027" height="20" rx="5" fill="black"/>
<path d="M61.7741 97V94.714H64.4921C63.9281 94.366 63.4481 93.946 63.0521 93.454C62.6681 92.95 62.3741 92.386 62.1701 91.762C61.9781 91.126 61.8821 90.436 61.8821 89.692C61.8821 88.6 62.1281 87.622 62.6201 86.758C63.1241 85.894 63.8321 85.21 64.7441 84.706C65.6681 84.202 66.7541 83.95 68.0021 83.95C69.2621 83.95 70.3481 84.202 71.2601 84.706C72.1721 85.21 72.8741 85.9 73.3661 86.776C73.8701 87.64 74.1221 88.618 74.1221 89.71C74.1221 90.454 74.0201 91.138 73.8161 91.762C73.6241 92.386 73.3301 92.95 72.9341 93.454C72.5381 93.946 72.0521 94.366 71.4761 94.714H74.2301V97H68.9381V94.552C69.5981 94.24 70.0961 93.844 70.4321 93.364C70.7801 92.872 71.0141 92.344 71.1341 91.78C71.2541 91.204 71.3141 90.634 71.3141 90.07C71.3141 89.266 71.1761 88.582 70.9001 88.018C70.6361 87.442 70.2581 86.998 69.7661 86.686C69.2741 86.374 68.6861 86.218 68.0021 86.218C67.3181 86.218 66.7241 86.374 66.2201 86.686C65.7281 86.998 65.3501 87.442 65.0861 88.018C64.8221 88.594 64.6901 89.284 64.6901 90.088C64.6901 90.652 64.7621 91.216 64.9061 91.78C65.0501 92.344 65.2901 92.866 65.6261 93.346C65.9741 93.826 66.4421 94.228 67.0301 94.552V97H61.7741Z" fill="white"/>
<path d="M51.4123 97V95.488C51.4123 94.612 51.5563 93.886 51.8442 93.31C52.1323 92.722 52.5463 92.242 53.0863 91.87C53.6383 91.486 54.3103 91.174 55.1023 90.934L56.3083 90.556C56.7523 90.412 57.1243 90.238 57.4243 90.034C57.7243 89.818 57.9523 89.56 58.1083 89.26C58.2763 88.96 58.3603 88.618 58.3603 88.234V88.162C58.3603 87.562 58.1563 87.088 57.7483 86.74C57.3403 86.38 56.7823 86.2 56.0743 86.2C55.3783 86.2 54.8143 86.392 54.3823 86.776C53.9623 87.148 53.7523 87.688 53.7523 88.396V88.72H51.4483V88.432C51.4483 87.52 51.6523 86.746 52.0603 86.11C52.4683 85.474 53.0203 84.988 53.7163 84.652C54.4243 84.316 55.2103 84.148 56.0743 84.148C56.9383 84.148 57.7183 84.316 58.4143 84.652C59.1103 84.976 59.6563 85.438 60.0523 86.038C60.4603 86.626 60.6643 87.322 60.6643 88.126V88.306C60.6643 89.11 60.4963 89.794 60.1602 90.358C59.8363 90.91 59.3923 91.366 58.8283 91.726C58.2643 92.074 57.6223 92.362 56.9023 92.59L55.7503 92.95C55.2343 93.106 54.8323 93.28 54.5443 93.472C54.2563 93.652 54.0523 93.856 53.9323 94.084C53.8243 94.3 53.7703 94.564 53.7703 94.876V94.948H60.5563V97H51.4123Z" fill="white"/>
</svg>
