<svg width="560" height="395" viewBox="0 0 560 395" fill="none" xmlns="http://www.w3.org/2000/svg">
<mask id="mask0_176_4" style="mask-type:luminance" maskUnits="userSpaceOnUse" x="19" y="60" width="540" height="300">
<path d="M19 60H559V195V360H19V196.5V60Z" fill="white"/>
</mask>
<g mask="url(#mask0_176_4)">
<path d="M19 196.5L19.0028 197.5L559.003 196L559 195L558.997 194L18.9972 195.5L19 196.5ZM19 60V58H17V60H19ZM559 60H561V58H559V60ZM559 360V362H561V360H559ZM19 360H17V362H19V360ZM19 60V62H559V60V58H19V60ZM559 360V358H19V360V362H559V360ZM19 360H21V196.5H19H17V360H19ZM19 196.5H21V60H19H17V196.5H19ZM559 60H557V195H559H561V60H559ZM559 195H557V360H559H561V195H559Z" fill="black"/>
</g>
<path d="M319.641 84.9893H241.576C238.496 84.9893 236 82.3037 236 78.9907V42.9987C236 39.6857 238.496 37 241.576 37H319.641C322.721 37 325.217 39.6857 325.217 42.9987V78.9907C325.217 82.3037 322.721 84.9893 319.641 84.9893Z" fill="#CE6809"/>
<path d="M236 84.2387H294.549V37.749H236V84.2387Z" fill="#333333"/>
<path d="M294.549 54.9953H325.218V42.998H294.549V54.9953Z" fill="#E77A16"/>
<path d="M236 55.7411H294.549V43.7438H236V55.7411Z" fill="#4C4C4C"/>
<path d="M333.212 73.1125H327.636C326.096 73.1125 324.848 71.7696 324.848 70.1132V52.1171C324.848 50.4607 326.096 49.1178 327.636 49.1178H333.212C334.752 49.1178 336 50.4607 336 52.1171V70.1132C336 71.7696 334.752 73.1125 333.212 73.1125Z" fill="#333333"/>
<path d="M331.818 57.8118H326.242C325.472 57.8118 324.848 57.1403 324.848 56.3121V53.3128C324.848 52.4845 325.472 51.8131 326.242 51.8131H331.818C332.588 51.8131 333.212 52.4845 333.212 53.3128V56.3121C333.212 57.1403 332.588 57.8118 331.818 57.8118Z" fill="#4C4C4C"/>
<path d="M319.641 85H241.576C238.496 85 236 82.3143 236 79.0013V43.0093C236 39.6964 238.496 37.0107 241.576 37.0107H319.641C322.721 37.0107 325.217 39.6964 325.217 43.0093V79.0013C325.217 82.3143 322.721 85 319.641 85Z" stroke="#333333" stroke-width="2.78497"/>
<path d="M351.111 62.207L350.885 12.9316L219.887 13.5346L220.114 62.8099" stroke="black" stroke-width="2"/>
<rect x="265" y="3" width="40" height="20" rx="5" fill="black"/>
<path d="M271.519 20V7.88H271.159L269.279 12.32H266.599L269.459 6H274.079V20H271.519ZM276.242 20V18.32C276.242 17.3467 276.402 16.54 276.722 15.9C277.042 15.2467 277.502 14.7133 278.102 14.3C278.716 13.8733 279.462 13.5267 280.342 13.26L281.682 12.84C282.176 12.68 282.589 12.4867 282.922 12.26C283.256 12.02 283.509 11.7333 283.682 11.4C283.869 11.0667 283.962 10.6867 283.962 10.26V10.18C283.962 9.51333 283.736 8.98667 283.282 8.6C282.829 8.2 282.209 8 281.422 8C280.649 8 280.022 8.21333 279.542 8.64C279.076 9.05333 278.842 9.65333 278.842 10.44V10.8H276.282V10.48C276.282 9.46667 276.509 8.60667 276.962 7.9C277.416 7.19333 278.029 6.65333 278.802 6.28C279.589 5.90667 280.462 5.72 281.422 5.72C282.382 5.72 283.249 5.90667 284.022 6.28C284.796 6.64 285.402 7.15333 285.842 7.82C286.296 8.47333 286.522 9.24667 286.522 10.14V10.34C286.522 11.2333 286.336 11.9933 285.962 12.62C285.602 13.2333 285.109 13.74 284.482 14.14C283.856 14.5267 283.142 14.8467 282.342 15.1L281.062 15.5C280.489 15.6733 280.042 15.8667 279.722 16.08C279.402 16.28 279.176 16.5067 279.042 16.76C278.922 17 278.862 17.2933 278.862 17.64V17.72H286.402V20H276.242ZM291.197 20L287.637 6H290.357L293.317 18.3H293.597L296.557 6H299.277L295.717 20H291.197Z" fill="white"/>
<rect x="88" y="330" width="58" height="58" rx="9" fill="#F7F7F7" stroke="#E5E5E5" stroke-width="2"/>
<circle cx="118" cy="360.163" r="15.625" fill="black"/>
<path d="M116.086 363.913V363.433C116.086 362.753 116.22 362.193 116.486 361.753C116.766 361.313 117.213 360.946 117.826 360.653L118.166 360.493C118.766 360.213 119.226 359.913 119.546 359.593C119.866 359.273 120.026 358.846 120.026 358.313C120.026 357.926 119.926 357.599 119.726 357.333C119.54 357.053 119.273 356.839 118.926 356.693C118.58 356.546 118.173 356.473 117.706 356.473C117.226 356.473 116.793 356.553 116.406 356.713C116.033 356.873 115.733 357.113 115.506 357.433C115.293 357.753 115.186 358.153 115.186 358.633V359.073H112.586V358.673C112.586 357.753 112.813 356.959 113.266 356.293C113.72 355.626 114.333 355.119 115.106 354.773C115.88 354.413 116.746 354.233 117.706 354.233C118.653 354.233 119.493 354.406 120.226 354.753C120.973 355.099 121.56 355.579 121.986 356.193C122.413 356.806 122.626 357.513 122.626 358.313C122.626 359.113 122.48 359.773 122.186 360.293C121.893 360.799 121.52 361.213 121.066 361.533C120.626 361.839 120.173 362.106 119.706 362.333L119.366 362.493C119.126 362.599 118.96 362.733 118.866 362.893C118.773 363.039 118.726 363.259 118.726 363.553V363.913H116.086ZM117.486 368.793C116.953 368.793 116.5 368.619 116.126 368.273C115.766 367.913 115.586 367.453 115.586 366.893C115.586 366.333 115.766 365.879 116.126 365.533C116.5 365.173 116.953 364.993 117.486 364.993C118.033 364.993 118.486 365.173 118.846 365.533C119.206 365.879 119.386 366.333 119.386 366.893C119.386 367.453 119.206 367.913 118.846 368.273C118.486 368.619 118.033 368.793 117.486 368.793Z" fill="white"/>
<circle cx="116" cy="194" r="21" fill="#463B3B"/>
<path d="M105.065 201V199.32C105.065 198.347 105.225 197.54 105.545 196.9C105.865 196.247 106.325 195.713 106.925 195.3C107.538 194.873 108.285 194.527 109.165 194.26L110.505 193.84C110.998 193.68 111.411 193.487 111.745 193.26C112.078 193.02 112.331 192.733 112.505 192.4C112.691 192.067 112.785 191.687 112.785 191.26V191.18C112.785 190.513 112.558 189.987 112.105 189.6C111.651 189.2 111.031 189 110.245 189C109.471 189 108.845 189.213 108.365 189.64C107.898 190.053 107.665 190.653 107.665 191.44V191.8H105.105V191.48C105.105 190.467 105.331 189.607 105.785 188.9C106.238 188.193 106.851 187.653 107.625 187.28C108.411 186.907 109.285 186.72 110.245 186.72C111.205 186.72 112.071 186.907 112.845 187.28C113.618 187.64 114.225 188.153 114.665 188.82C115.118 189.473 115.345 190.247 115.345 191.14V191.34C115.345 192.233 115.158 192.993 114.785 193.62C114.425 194.233 113.931 194.74 113.305 195.14C112.678 195.527 111.965 195.847 111.165 196.1L109.885 196.5C109.311 196.673 108.865 196.867 108.545 197.08C108.225 197.28 107.998 197.507 107.865 197.76C107.745 198 107.685 198.293 107.685 198.64V198.72H115.225V201H105.065ZM116.46 201L120.14 187H124.74L128.42 201H125.7L124.94 197.92H119.94L119.18 201H116.46ZM120.56 195.48H124.32L122.62 188.66H122.26L120.56 195.48Z" fill="white"/>
<circle cx="21" cy="107" r="21" fill="#463B3B"/>
<path d="M15.226 114.28C14.1327 114.28 13.186 114.087 12.386 113.7C11.5993 113.313 10.9927 112.767 10.566 112.06C10.1393 111.353 9.92602 110.533 9.92602 109.6V109.4H12.526V109.58C12.526 110.247 12.746 110.82 13.186 111.3C13.6393 111.767 14.306 112 15.186 112C16.066 112 16.7393 111.767 17.206 111.3C17.686 110.82 17.926 110.2 17.926 109.44V109.24C17.926 108.493 17.686 107.9 17.206 107.46C16.7393 107.02 16.1527 106.8 15.446 106.8C15.0593 106.8 14.7393 106.853 14.486 106.96C14.2327 107.067 14.026 107.2 13.866 107.36C13.706 107.52 13.5727 107.68 13.466 107.84H10.366V100H19.926V102.32H12.926V105.74H13.286C13.4193 105.567 13.5993 105.4 13.826 105.24C14.0527 105.08 14.346 104.947 14.706 104.84C15.066 104.733 15.4927 104.68 15.986 104.68C16.8127 104.68 17.566 104.853 18.246 105.2C18.926 105.547 19.466 106.06 19.866 106.74C20.2793 107.407 20.486 108.233 20.486 109.22V109.46C20.486 110.447 20.2727 111.3 19.846 112.02C19.4327 112.74 18.8327 113.3 18.046 113.7C17.2593 114.087 16.3193 114.28 15.226 114.28ZM21.5182 114L25.1982 100H29.7982L33.4782 114H30.7582L29.9982 110.92H24.9982L24.2382 114H21.5182ZM25.6182 108.48H29.3782L27.6782 101.66H27.3182L25.6182 108.48Z" fill="white"/>
<rect x="267" y="372" width="43.027" height="20" rx="5" fill="black"/>
<path d="M286.082 389V386.46H289.102C288.476 386.073 287.942 385.607 287.502 385.06C287.076 384.5 286.749 383.873 286.522 383.18C286.309 382.473 286.202 381.707 286.202 380.88C286.202 379.667 286.476 378.58 287.022 377.62C287.582 376.66 288.369 375.9 289.382 375.34C290.409 374.78 291.616 374.5 293.002 374.5C294.402 374.5 295.609 374.78 296.622 375.34C297.636 375.9 298.416 376.667 298.962 377.64C299.522 378.6 299.802 379.687 299.802 380.9C299.802 381.727 299.689 382.487 299.462 383.18C299.249 383.873 298.922 384.5 298.482 385.06C298.042 385.607 297.502 386.073 296.862 386.46H299.922V389H294.042V386.28C294.776 385.933 295.329 385.493 295.702 384.96C296.089 384.413 296.349 383.827 296.482 383.2C296.616 382.56 296.682 381.927 296.682 381.3C296.682 380.407 296.529 379.647 296.222 379.02C295.929 378.38 295.509 377.887 294.962 377.54C294.416 377.193 293.762 377.02 293.002 377.02C292.242 377.02 291.582 377.193 291.022 377.54C290.476 377.887 290.056 378.38 289.762 379.02C289.469 379.66 289.322 380.427 289.322 381.32C289.322 381.947 289.402 382.573 289.562 383.2C289.722 383.827 289.989 384.407 290.362 384.94C290.749 385.473 291.269 385.92 291.922 386.28V389H286.082Z" fill="white"/>
<path d="M280.043 389V386.16H273.163V383.2L278.003 375H282.603V383.88H284.923V386.16H282.603V389H280.043ZM275.603 383.88H280.043V376.64H279.683L275.603 383.56V383.88Z" fill="white"/>
<path d="M263.154 293L261.507 293.135L259.944 293.524L258.488 294.148L257.157 294.985L255.974 296.013L254.959 297.211L254.133 298.559L253.518 300.035L253.133 301.618L253 303.286V323.858L253.135 326.242L253.53 328.546L254.169 330.755L255.039 332.853L256.123 334.825L257.408 336.657L258.878 338.333L260.517 339.838L262.312 341.157L264.248 342.275L265.629 343.03L266.971 343.885L268.251 344.837L269.441 345.882L270.517 347.018L271.455 348.242L272.228 349.549L272.811 350.937L273.179 352.402L273.308 353.942L273.406 355.18L273.692 356.354L274.149 357.449L274.761 358.449L275.514 359.339L276.392 360.101L277.379 360.722L278.46 361.185L279.619 361.474L280.841 361.574H291.159L292.381 361.474L293.54 361.185L294.621 360.722L295.608 360.101L296.486 359.339L297.239 358.449L297.851 357.449L298.308 356.354L298.594 355.18L298.692 353.942L298.821 352.402L299.189 350.937L299.772 349.549L300.545 348.242L301.483 347.018L302.559 345.882L303.749 344.837L305.029 343.885L306.371 343.03L307.752 342.275L309.688 341.157L311.483 339.838L313.122 338.333L314.592 336.657L315.877 334.825L316.961 332.853L317.831 330.755L318.47 328.546L318.865 326.242L319 323.858V303.286L318.867 301.618L318.482 300.035L317.867 298.559L317.041 297.211L316.026 296.013L314.843 294.985L313.512 294.148L312.056 293.524L310.493 293.135L308.846 293H263.154Z" fill="#F2F2F2" stroke="#B3B3B3" stroke-width="2.78497"/>
<path d="M282.937 354.016V321.937L282.864 321.011L282.65 320.131L282.308 319.312L281.849 318.563L281.286 317.898L280.628 317.327L279.889 316.862L279.08 316.516L278.213 316.299L277.298 316.224L272.352 316.225L271.525 316.292L270.741 316.488L270.01 316.801L269.342 317.221L268.749 317.737L268.239 318.338L267.825 319.014L267.516 319.755L267.323 320.549L267.256 321.387L267.323 322.224L267.516 323.018L267.825 323.759L268.239 324.435L268.749 325.037L269.342 325.553L270.01 325.972L270.741 326.285L271.525 326.481L272.352 326.549L277.165 326.549L277.108 326.557H294.896L294.844 326.549L299.657 326.549L300.484 326.481L301.268 326.285L301.999 325.972L302.667 325.553L303.261 325.037L303.77 324.435L304.184 323.759L304.493 323.018L304.686 322.224L304.753 321.387L304.686 320.549L304.493 319.755L304.184 319.014L303.77 318.338L303.261 317.737L302.667 317.221L301.999 316.801L301.268 316.488L300.484 316.292L299.658 316.225L294.711 316.224L293.797 316.299L292.929 316.516L292.12 316.862L291.381 317.327L290.724 317.898L290.16 318.563L289.701 319.312L289.359 320.131L289.146 321.011L289.072 321.937V354.016" stroke="#B3B3B3" stroke-width="2.22798"/>
<path d="M273.308 353.001H298.692V356.43H273.308V353.001Z" fill="#808080" stroke="#808080" stroke-width="1.67098"/>
<path d="M273.308 353H298.692V356.428L298.582 357.819L298.261 359.138L297.748 360.367L297.06 361.491L296.214 362.489L295.228 363.346L294.119 364.043L292.905 364.563L291.603 364.888L290.231 365H281.769L280.397 364.888L279.095 364.563L277.881 364.043L276.772 363.346L275.786 362.489L274.94 361.491L274.252 360.367L273.739 359.138L273.418 357.819L273.308 356.428V353Z" fill="#141414" stroke="#141414" stroke-width="1.67098"/>
<rect x="265" y="210" width="43.027" height="20" rx="5" fill="black"/>
<path d="M284.082 227V224.46H287.102C286.476 224.073 285.942 223.607 285.502 223.06C285.076 222.5 284.749 221.873 284.522 221.18C284.309 220.473 284.202 219.707 284.202 218.88C284.202 217.667 284.476 216.58 285.022 215.62C285.582 214.66 286.369 213.9 287.382 213.34C288.409 212.78 289.616 212.5 291.002 212.5C292.402 212.5 293.609 212.78 294.622 213.34C295.636 213.9 296.416 214.667 296.962 215.64C297.522 216.6 297.802 217.687 297.802 218.9C297.802 219.727 297.689 220.487 297.462 221.18C297.249 221.873 296.922 222.5 296.482 223.06C296.042 223.607 295.502 224.073 294.862 224.46H297.922V227H292.042V224.28C292.776 223.933 293.329 223.493 293.702 222.96C294.089 222.413 294.349 221.827 294.482 221.2C294.616 220.56 294.682 219.927 294.682 219.3C294.682 218.407 294.529 217.647 294.222 217.02C293.929 216.38 293.509 215.887 292.962 215.54C292.416 215.193 291.762 215.02 291.002 215.02C290.242 215.02 289.582 215.193 289.022 215.54C288.476 215.887 288.056 216.38 287.762 217.02C287.469 217.66 287.322 218.427 287.322 219.32C287.322 219.947 287.402 220.573 287.562 221.2C287.722 221.827 287.989 222.407 288.362 222.94C288.749 223.473 289.269 223.92 289.922 224.28V227H284.082Z" fill="white"/>
<path d="M277.058 227.28C275.992 227.28 275.065 227.08 274.278 226.68C273.492 226.28 272.885 225.727 272.458 225.02C272.032 224.313 271.818 223.5 271.818 222.58V217.8C271.818 216.667 272.045 215.727 272.498 214.98C272.965 214.22 273.598 213.653 274.398 213.28C275.212 212.907 276.138 212.72 277.178 212.72C278.218 212.72 279.118 212.893 279.878 213.24C280.652 213.587 281.245 214.087 281.658 214.74C282.085 215.393 282.298 216.173 282.298 217.08H279.698C279.698 216.52 279.505 216.033 279.118 215.62C278.732 215.207 278.085 215 277.178 215C276.285 215 275.592 215.233 275.098 215.7C274.618 216.167 274.378 216.813 274.378 217.64V219.08H274.738C274.965 218.813 275.312 218.56 275.778 218.32C276.245 218.08 276.925 217.96 277.818 217.96C278.632 217.96 279.378 218.133 280.058 218.48C280.752 218.827 281.312 219.333 281.738 220C282.165 220.653 282.378 221.447 282.378 222.38V222.62C282.378 223.54 282.158 224.353 281.718 225.06C281.278 225.753 280.658 226.3 279.858 226.7C279.058 227.087 278.125 227.28 277.058 227.28ZM277.098 225C277.938 225 278.598 224.78 279.078 224.34C279.572 223.9 279.818 223.313 279.818 222.58V222.42C279.818 221.927 279.705 221.5 279.478 221.14C279.265 220.78 278.952 220.5 278.538 220.3C278.138 220.1 277.658 220 277.098 220C276.552 220 276.072 220.1 275.658 220.3C275.245 220.5 274.925 220.78 274.698 221.14C274.485 221.5 274.378 221.927 274.378 222.42V222.58C274.378 223.313 274.618 223.9 275.098 224.34C275.592 224.78 276.258 225 277.098 225Z" fill="white"/>
<path d="M298.64 191.39L298.697 190.365L298.862 189.364L299.127 188.391L299.486 187.449L299.932 186.54L300.457 185.67L301.054 184.84L301.715 184.054L302.435 183.316L303.204 182.628L305.407 180.618L307.437 178.413L309.28 176.038L310.922 173.517L312.35 170.874L313.549 168.132L314.506 165.317L315.206 162.451L315.637 159.559L315.783 156.665L315.391 152.016L314.254 147.605L312.435 143.492L309.995 139.736L306.997 136.396L303.501 133.531L299.57 131.2L295.266 129.461L290.649 128.375L285.783 128L280.917 128.375L276.301 129.461L271.997 131.2L268.066 133.531L264.57 136.396L261.572 139.736L259.132 143.492L257.313 147.605L256.176 152.016L255.783 156.665L255.93 159.559L256.36 162.451L257.061 165.317L258.018 168.132L259.217 170.874L260.645 173.517L262.287 176.038L264.13 178.413L266.16 180.618L268.362 182.628L269.132 183.316L269.851 184.054L270.513 184.84L271.11 185.67L271.635 186.54L272.081 187.449L272.44 188.391L272.705 189.364L272.87 190.365L272.926 191.39L273.021 192.577L273.297 193.704L273.738 194.754L274.33 195.714L275.057 196.567L275.904 197.298L276.857 197.894L277.901 198.337L279.02 198.615L280.2 198.711H291.367L292.546 198.615L293.666 198.337L294.709 197.894L295.662 197.298L296.51 196.567L297.237 195.714L297.829 194.754L298.27 193.704L298.545 192.577L298.64 191.39Z" fill="#F2F2F2" stroke="#B3B3B3" stroke-width="2.78497"/>
<path d="M282.681 192.426V160.799L282.599 159.782L282.363 158.818L281.985 157.918L281.479 157.097L280.856 156.367L280.131 155.74L279.314 155.23L278.421 154.85L277.462 154.613L276.452 154.531L275.961 154.531L275.03 154.606L274.148 154.825L273.325 155.175L272.573 155.645L271.904 156.222L271.331 156.895L270.865 157.651L270.517 158.48L270.299 159.368L270.224 160.305L270.299 161.241L270.517 162.13L270.865 162.958L271.331 163.714L271.905 164.387L272.573 164.964L273.325 165.434L274.148 165.784L275.031 166.003L275.961 166.078L276.834 166.078L276.775 166.086H294.794L294.742 166.078L295.614 166.078L296.545 166.003L297.427 165.784L298.251 165.434L299.002 164.964L299.671 164.387L300.244 163.714L300.711 162.958L301.058 162.13L301.276 161.241L301.351 160.305L301.276 159.368L301.059 158.48L300.711 157.651L300.244 156.895L299.671 156.222L299.002 155.645L298.251 155.175L297.428 154.825L296.545 154.606L295.614 154.531L295.123 154.531L294.113 154.613L293.154 154.85L292.261 155.23L291.445 155.74L290.719 156.367L290.096 157.097L289.59 157.918L289.212 158.818L288.976 159.782L288.895 160.799V192.426" stroke="#B3B3B3" stroke-width="2.22798"/>
<path d="M272.927 190.489H298.641V193.778L298.534 195.112L298.224 196.377L297.729 197.556L297.065 198.634L296.248 199.592L295.296 200.414L294.226 201.082L293.054 201.581L291.796 201.892L290.471 202H281.096L279.771 201.892L278.514 201.581L277.342 201.082L276.271 200.414L275.319 199.592L274.503 198.634L273.839 197.556L273.343 196.377L273.034 195.112L272.927 193.778V190.489Z" fill="#141414" stroke="#141414" stroke-width="1.67098"/>
<path d="M272.927 190.493H298.641V193.782H272.927V190.493Z" fill="#808080" stroke="#808080" stroke-width="1.67098"/>
</svg>
