<svg width="560" height="395" viewBox="0 0 560 395" fill="none" xmlns="http://www.w3.org/2000/svg">
<mask id="mask0_213_59" style="mask-type:luminance" maskUnits="userSpaceOnUse" x="19" y="60" width="540" height="300">
<path d="M19 60H559V195V360H19V196.5V60Z" fill="white"/>
</mask>
<g mask="url(#mask0_213_59)">
<path d="M19 196.5L19.0028 197.5L559.003 196L559 195L558.997 194L18.9972 195.5L19 196.5ZM19 60V58H17V60H19ZM559 60H561V58H559V60ZM559 360V362H561V360H559ZM19 360H17V362H19V360ZM19 60V62H559V60V58H19V60ZM559 360V358H19V360V362H559V360ZM19 360H21V196.5H19H17V360H19ZM19 196.5H21V60H19H17V196.5H19ZM559 60H557V195H559H561V60H559ZM559 195H557V360H559H561V195H559Z" fill="black"/>
</g>
<path d="M319.641 84.9897H241.576C238.496 84.9897 236 82.3041 236 78.9911V42.9991C236 39.6861 238.496 37.0004 241.576 37.0004H319.641C322.721 37.0004 325.217 39.6861 325.217 42.9991V78.9911C325.217 82.3041 322.721 84.9897 319.641 84.9897Z" fill="#CE6809"/>
<path d="M236 84.2388H294.549V37.7491H236V84.2388Z" fill="#333333"/>
<path d="M294.549 54.9956H325.218V42.9983H294.549V54.9956Z" fill="#E77A16"/>
<path d="M236 55.7412H294.549V43.7439H236V55.7412Z" fill="#4C4C4C"/>
<path d="M333.212 73.1128H327.636C326.096 73.1128 324.848 71.7699 324.848 70.1135V52.1175C324.848 50.461 326.096 49.1181 327.636 49.1181H333.212C334.752 49.1181 336 50.461 336 52.1175V70.1135C336 71.7699 334.752 73.1128 333.212 73.1128Z" fill="#333333"/>
<path d="M331.818 57.812H326.242C325.472 57.812 324.848 57.1406 324.848 56.3123V53.313C324.848 52.4848 325.472 51.8133 326.242 51.8133H331.818C332.588 51.8133 333.212 52.4848 333.212 53.313V56.3123C333.212 57.1406 332.588 57.812 331.818 57.812Z" fill="#4C4C4C"/>
<path d="M319.641 85H241.576C238.496 85 236 82.3143 236 79.0013V43.0093C236 39.6964 238.496 37.0107 241.576 37.0107H319.641C322.721 37.0107 325.217 39.6964 325.217 43.0093V79.0013C325.217 82.3143 322.721 85 319.641 85Z" stroke="#333333" stroke-width="2.78497"/>
<circle cx="501" cy="357" r="21" fill="#463B3B"/>
<path d="M489.363 364V351.88H489.003L487.123 356.32H484.443L487.303 350H491.923V364H489.363ZM494.086 364V362.32C494.086 361.347 494.246 360.54 494.566 359.9C494.886 359.247 495.346 358.713 495.946 358.3C496.559 357.873 497.306 357.527 498.186 357.26L499.526 356.84C500.019 356.68 500.433 356.487 500.766 356.26C501.099 356.02 501.353 355.733 501.526 355.4C501.713 355.067 501.806 354.687 501.806 354.26V354.18C501.806 353.513 501.579 352.987 501.126 352.6C500.673 352.2 500.053 352 499.266 352C498.493 352 497.866 352.213 497.386 352.64C496.919 353.053 496.686 353.653 496.686 354.44V354.8H494.126V354.48C494.126 353.467 494.353 352.607 494.806 351.9C495.259 351.193 495.873 350.653 496.646 350.28C497.433 349.907 498.306 349.72 499.266 349.72C500.226 349.72 501.093 349.907 501.866 350.28C502.639 350.64 503.246 351.153 503.686 351.82C504.139 352.473 504.366 353.247 504.366 354.14V354.34C504.366 355.233 504.179 355.993 503.806 356.62C503.446 357.233 502.953 357.74 502.326 358.14C501.699 358.527 500.986 358.847 500.186 359.1L498.906 359.5C498.333 359.673 497.886 359.867 497.566 360.08C497.246 360.28 497.019 360.507 496.886 360.76C496.766 361 496.706 361.293 496.706 361.64V361.72H504.246V364H494.086ZM505.481 364L509.161 350H513.761L517.441 364H514.721L513.961 360.92H508.961L508.201 364H505.481ZM509.581 358.48H513.341L511.641 351.66H511.281L509.581 358.48Z" fill="white"/>
<rect x="57" y="326" width="58" height="58" rx="9" fill="#F7F7F7" stroke="#E5E5E5" stroke-width="2"/>
<circle cx="87" cy="356.164" r="15.625" fill="black"/>
<path d="M85.0863 359.913V359.433C85.0863 358.753 85.2196 358.193 85.4863 357.753C85.7663 357.313 86.2129 356.946 86.8263 356.653L87.1663 356.493C87.7663 356.213 88.2263 355.913 88.5463 355.593C88.8663 355.273 89.0263 354.846 89.0263 354.313C89.0263 353.926 88.9263 353.599 88.7263 353.333C88.5396 353.053 88.2729 352.839 87.9263 352.693C87.5796 352.546 87.1729 352.473 86.7063 352.473C86.2263 352.473 85.7929 352.553 85.4063 352.713C85.0329 352.873 84.7329 353.113 84.5063 353.433C84.2929 353.753 84.1863 354.153 84.1863 354.633V355.073H81.5863V354.673C81.5863 353.753 81.8129 352.959 82.2663 352.293C82.7196 351.626 83.3329 351.119 84.1063 350.773C84.8796 350.413 85.7463 350.233 86.7063 350.233C87.6529 350.233 88.4929 350.406 89.2263 350.753C89.9729 351.099 90.5596 351.579 90.9863 352.193C91.4129 352.806 91.6263 353.513 91.6263 354.313C91.6263 355.113 91.4796 355.773 91.1862 356.293C90.8929 356.799 90.5196 357.213 90.0663 357.533C89.6263 357.839 89.1729 358.106 88.7063 358.333L88.3663 358.493C88.1263 358.599 87.9596 358.733 87.8663 358.893C87.7729 359.039 87.7263 359.259 87.7263 359.553V359.913H85.0863ZM86.4863 364.793C85.9529 364.793 85.4996 364.619 85.1263 364.273C84.7663 363.913 84.5863 363.453 84.5863 362.893C84.5863 362.333 84.7663 361.879 85.1263 361.533C85.4996 361.173 85.9529 360.993 86.4863 360.993C87.0329 360.993 87.4863 361.173 87.8463 361.533C88.2063 361.879 88.3863 362.333 88.3863 362.893C88.3863 363.453 88.2063 363.913 87.8463 364.273C87.4863 364.619 87.0329 364.793 86.4863 364.793Z" fill="white"/>
<circle cx="83" cy="194" r="21" fill="#463B3B"/>
<path d="M71.3631 201V188.88H71.0031L69.1231 193.32H66.4431L69.3031 187H73.9231V201H71.3631ZM76.0861 201V199.32C76.0861 198.347 76.2461 197.54 76.5661 196.9C76.8861 196.247 77.3461 195.713 77.9461 195.3C78.5594 194.873 79.3061 194.527 80.1861 194.26L81.5261 193.84C82.0194 193.68 82.4328 193.487 82.7661 193.26C83.0994 193.02 83.3528 192.733 83.5261 192.4C83.7128 192.067 83.8061 191.687 83.8061 191.26V191.18C83.8061 190.513 83.5794 189.987 83.1261 189.6C82.6728 189.2 82.0528 189 81.2661 189C80.4928 189 79.8661 189.213 79.3861 189.64C78.9194 190.053 78.6861 190.653 78.6861 191.44V191.8H76.1261V191.48C76.1261 190.467 76.3528 189.607 76.8061 188.9C77.2594 188.193 77.8728 187.653 78.6461 187.28C79.4328 186.907 80.3061 186.72 81.2661 186.72C82.2261 186.72 83.0928 186.907 83.8661 187.28C84.6394 187.64 85.2461 188.153 85.6861 188.82C86.1394 189.473 86.3661 190.247 86.3661 191.14V191.34C86.3661 192.233 86.1794 192.993 85.8061 193.62C85.4461 194.233 84.9528 194.74 84.3261 195.14C83.6994 195.527 82.9861 195.847 82.1861 196.1L80.9061 196.5C80.3328 196.673 79.8861 196.867 79.5661 197.08C79.2461 197.28 79.0194 197.507 78.8861 197.76C78.7661 198 78.7061 198.293 78.7061 198.64V198.72H86.2461V201H76.0861ZM87.4811 201L91.1611 187H95.7611L99.4411 201H96.7211L95.9611 197.92H90.9611L90.2011 201H87.4811ZM91.5811 195.48H95.3411L93.6411 188.66H93.2811L91.5811 195.48Z" fill="white"/>
<circle cx="21" cy="102" r="21" fill="#463B3B"/>
<path d="M3.8732 109V107.32C3.8732 106.347 4.0332 105.54 4.3532 104.9C4.6732 104.247 5.1332 103.713 5.7332 103.3C6.34654 102.873 7.0932 102.527 7.9732 102.26L9.3132 101.84C9.80654 101.68 10.2199 101.487 10.5532 101.26C10.8865 101.02 11.1399 100.733 11.3132 100.4C11.4999 100.067 11.5932 99.6867 11.5932 99.26V99.18C11.5932 98.5133 11.3665 97.9867 10.9132 97.6C10.4599 97.2 9.83987 97 9.0532 97C8.27987 97 7.6532 97.2133 7.1732 97.64C6.70654 98.0533 6.4732 98.6533 6.4732 99.44V99.8H3.9132V99.48C3.9132 98.4667 4.13987 97.6067 4.5932 96.9C5.04654 96.1933 5.65987 95.6533 6.4332 95.28C7.21987 94.9067 8.0932 94.72 9.0532 94.72C10.0132 94.72 10.8799 94.9067 11.6532 95.28C12.4265 95.64 13.0332 96.1533 13.4732 96.82C13.9265 97.4733 14.1532 98.2467 14.1532 99.14V99.34C14.1532 100.233 13.9665 100.993 13.5932 101.62C13.2332 102.233 12.7399 102.74 12.1132 103.14C11.4865 103.527 10.7732 103.847 9.9732 104.1L8.6932 104.5C8.11987 104.673 7.6732 104.867 7.3532 105.08C7.0332 105.28 6.80654 105.507 6.6732 105.76C6.5532 106 6.4932 106.293 6.4932 106.64V106.72H14.0332V109H3.8732ZM21.9762 109V106.16H15.0962V103.2L19.9362 95H24.5362V103.88H26.8562V106.16H24.5362V109H21.9762ZM17.5362 103.88H21.9762V96.64H21.6162L17.5362 103.56V103.88ZM27.651 109L31.331 95H35.931L39.611 109H36.891L36.131 105.92H31.131L30.371 109H27.651ZM31.751 103.48H35.511L33.811 96.66H33.451L31.751 103.48Z" fill="white"/>
<path d="M369.662 319.098L368.98 319.991L368.365 320.915L367.819 321.865L367.343 322.839L366.937 323.834L366.602 324.848L366.34 325.878L366.152 326.922L366.038 327.975L366 329.037L366.118 330.913L366.463 332.732L367.023 334.484L367.787 336.159L368.743 337.747L369.878 339.237L371.181 340.62L372.639 341.886L374.241 343.024L375.974 344.024L377.179 344.689L378.341 345.42L379.44 346.216L380.456 347.073L381.369 347.991L382.161 348.965L382.811 349.995L383.3 351.077L383.607 352.21L383.714 353.391L383.817 354.467L384.116 355.487L384.595 356.438L385.236 357.306L386.024 358.079L386.943 358.741L387.976 359.281L389.108 359.683L390.321 359.934L391.6 360.021H402.4L403.679 359.934L404.892 359.683L406.024 359.281L407.057 358.741L407.976 358.079L408.764 357.306L409.405 356.438L409.884 355.487L410.182 354.467L410.286 353.391L410.393 352.21L410.7 351.077L411.189 349.995L411.839 348.965L412.631 347.991L413.544 347.073L414.56 346.216L415.659 345.42L416.821 344.689L418.026 344.024L419.759 343.024L421.361 341.886L422.819 340.62L424.122 339.237L425.257 337.747L426.213 336.159L426.977 334.484L427.537 332.732L427.882 330.913L428 329.037L427.962 327.975L427.848 326.922L427.66 325.878L427.398 324.848L427.063 323.834L426.657 322.839L426.181 321.865L425.635 320.915L425.02 319.991L424.338 319.098L401.384 290.941L400.682 290.242L399.864 289.698L398.958 289.31L397.994 289.076L397 288.999L396.006 289.076L395.042 289.31L394.136 289.698L393.318 290.242L392.616 290.941L369.662 319.098Z" fill="#F2F2F2" stroke="#B3B3B3" stroke-width="2.79134"/>
<path d="M393.794 354.328V323.933L393.732 323.297L393.556 322.693L393.273 322.131L392.893 321.617L392.427 321.16L391.884 320.768L391.273 320.449L390.603 320.212L389.885 320.063L389.129 320.012L388.372 320.063L387.655 320.212L386.985 320.45L386.374 320.768L385.831 321.16L385.365 321.617L384.985 322.131L384.703 322.694L384.526 323.297L384.465 323.933V327.706L384.554 328.637L384.813 329.52L385.227 330.344L385.783 331.097L386.465 331.766L387.261 332.339L388.156 332.806L389.136 333.154L390.187 333.372L391.295 333.447L390.8 333.455H403.2L402.714 333.447L403.822 333.372L404.873 333.154L405.853 332.806L406.747 332.339L407.543 331.766L408.226 331.097L408.781 330.344L409.195 329.52L409.454 328.637L409.544 327.706V323.933L409.483 323.297L409.306 322.694L409.023 322.131L408.644 321.617L408.178 321.16L407.634 320.768L407.023 320.45L406.354 320.212L405.636 320.063L404.88 320.012L404.123 320.063L403.405 320.212L402.736 320.449L402.125 320.768L401.581 321.16L401.115 321.617L400.736 322.131L400.453 322.693L400.276 323.297L400.215 323.933V354.328" stroke="#B3B3B3" stroke-width="2.23307"/>
<path d="M383.715 352.575H410.286V355.553L410.17 356.761L409.835 357.907L409.298 358.975L408.577 359.951L407.692 360.818L406.66 361.562L405.499 362.168L404.229 362.619L402.866 362.902L401.429 362.999H392.572L391.135 362.902L389.772 362.619L388.501 362.168L387.341 361.562L386.309 360.818L385.424 359.951L384.703 358.975L384.166 357.907L383.831 356.761L383.715 355.553V352.575Z" fill="#141414" stroke="#141414" stroke-width="1.67481"/>
<path d="M383.715 352.575H410.286V355.553H383.715V352.575Z" fill="#808080" stroke="#808080" stroke-width="1.67481"/>
<path d="M390.653 303.988C397.226 303.988 402.554 308.467 402.554 313.993C402.554 319.519 397.226 323.998 390.653 323.998C384.079 323.998 378.751 319.519 378.751 313.993C378.751 308.467 384.079 303.988 390.653 303.988Z" fill="white" fill-opacity="0.3"/>
<path d="M168.662 319.098L167.98 319.991L167.365 320.915L166.819 321.865L166.343 322.839L165.937 323.834L165.602 324.848L165.34 325.878L165.152 326.922L165.038 327.975L165 329.037L165.118 330.913L165.463 332.732L166.023 334.484L166.787 336.159L167.743 337.747L168.878 339.237L170.181 340.62L171.639 341.886L173.241 343.024L174.974 344.024L176.179 344.689L177.341 345.42L178.44 346.216L179.456 347.073L180.369 347.991L181.161 348.965L181.811 349.995L182.3 351.077L182.607 352.21L182.714 353.391L182.817 354.467L183.116 355.487L183.595 356.438L184.236 357.306L185.024 358.079L185.943 358.741L186.976 359.281L188.108 359.683L189.321 359.934L190.6 360.021H201.4L202.679 359.934L203.892 359.683L205.024 359.281L206.057 358.741L206.976 358.079L207.764 357.306L208.405 356.438L208.884 355.487L209.182 354.467L209.286 353.391L209.393 352.21L209.7 351.077L210.189 349.995L210.839 348.965L211.631 347.991L212.544 347.073L213.56 346.216L214.659 345.42L215.821 344.689L217.026 344.024L218.759 343.024L220.361 341.886L221.819 340.62L223.122 339.237L224.257 337.747L225.213 336.159L225.977 334.484L226.537 332.732L226.882 330.913L227 329.037L226.962 327.975L226.848 326.922L226.66 325.878L226.398 324.848L226.063 323.834L225.657 322.839L225.181 321.865L224.635 320.915L224.02 319.991L223.338 319.098L200.384 290.941L199.682 290.242L198.864 289.698L197.958 289.31L196.994 289.076L196 288.999L195.006 289.076L194.042 289.31L193.136 289.698L192.318 290.242L191.616 290.941L168.662 319.098Z" fill="#F2F2F2" stroke="#B3B3B3" stroke-width="2.79134"/>
<path d="M192.794 354.328V323.933L192.732 323.297L192.556 322.693L192.273 322.131L191.893 321.617L191.427 321.16L190.884 320.768L190.273 320.449L189.603 320.212L188.885 320.063L188.129 320.012L187.372 320.063L186.655 320.212L185.985 320.45L185.374 320.768L184.831 321.16L184.365 321.617L183.985 322.131L183.703 322.694L183.526 323.297L183.465 323.933V327.706L183.554 328.637L183.813 329.52L184.227 330.344L184.783 331.097L185.465 331.766L186.261 332.339L187.156 332.806L188.136 333.154L189.187 333.372L190.295 333.447L189.8 333.455H202.2L201.714 333.447L202.822 333.372L203.873 333.154L204.853 332.806L205.747 332.339L206.543 331.766L207.226 331.097L207.781 330.344L208.195 329.52L208.454 328.637L208.544 327.706V323.933L208.483 323.297L208.306 322.694L208.023 322.131L207.644 321.617L207.178 321.16L206.634 320.768L206.023 320.45L205.354 320.212L204.636 320.063L203.88 320.012L203.123 320.063L202.405 320.212L201.736 320.449L201.125 320.768L200.581 321.16L200.115 321.617L199.736 322.131L199.453 322.693L199.276 323.297L199.215 323.933V354.328" stroke="#B3B3B3" stroke-width="2.23307"/>
<path d="M182.715 352.575H209.286V355.553L209.17 356.761L208.835 357.907L208.298 358.975L207.577 359.951L206.692 360.818L205.66 361.562L204.499 362.168L203.229 362.619L201.866 362.902L200.429 362.999H191.572L190.135 362.902L188.772 362.619L187.501 362.168L186.341 361.562L185.309 360.818L184.424 359.951L183.703 358.975L183.166 357.907L182.831 356.761L182.715 355.553V352.575Z" fill="#141414" stroke="#141414" stroke-width="1.67481"/>
<path d="M182.715 352.575H209.286V355.553H182.715V352.575Z" fill="#808080" stroke="#808080" stroke-width="1.67481"/>
<path d="M189.653 303.988C196.226 303.988 201.554 308.467 201.554 313.993C201.554 319.519 196.226 323.998 189.653 323.998C183.079 323.998 177.751 319.519 177.751 313.993C177.751 308.467 183.079 303.988 189.653 303.988Z" fill="white" fill-opacity="0.3"/>
<path d="M300.857 190.39L300.914 189.365L301.078 188.364L301.344 187.391L301.703 186.448L302.148 185.54L302.673 184.67L303.27 183.84L303.932 183.054L304.651 182.316L305.421 181.628L307.624 179.617L309.653 177.413L311.496 175.038L313.139 172.517L314.566 169.874L315.765 167.132L316.722 164.317L317.423 161.451L317.853 158.559L318 155.665L317.607 151.015L316.471 146.605L314.651 142.492L312.212 138.736L309.213 135.396L305.718 132.53L301.787 130.199L297.482 128.461L292.866 127.375L288 127L283.134 127.375L278.518 128.461L274.213 130.199L270.282 132.53L266.787 135.396L263.788 138.736L261.349 142.492L259.529 146.605L258.393 151.015L258 155.665L258.147 158.559L258.577 161.451L259.278 164.317L260.235 167.132L261.434 169.874L262.861 172.517L264.504 175.038L266.347 177.413L268.376 179.617L270.579 181.628L271.349 182.316L272.068 183.054L272.73 183.84L273.327 184.67L273.852 185.54L274.297 186.448L274.656 187.391L274.922 188.364L275.086 189.365L275.143 190.39L275.238 191.577L275.514 192.704L275.955 193.754L276.546 194.713L277.273 195.566L278.121 196.298L279.074 196.893L280.118 197.337L281.237 197.615L282.417 197.71H293.583L294.763 197.615L295.882 197.337L296.926 196.893L297.879 196.298L298.727 195.566L299.454 194.713L300.045 193.754L300.486 192.704L300.762 191.577L300.857 190.39Z" fill="#F2F2F2" stroke="#B3B3B3" stroke-width="2.78497"/>
<path d="M284.897 191.426V159.799L284.816 158.782L284.58 157.818L284.202 156.918L283.696 156.097L283.073 155.367L282.347 154.74L281.531 154.23L280.637 153.85L279.679 153.613L278.669 153.531L278.178 153.531L277.247 153.606L276.364 153.825L275.541 154.175L274.79 154.645L274.121 155.222L273.548 155.895L273.081 156.651L272.733 157.48L272.516 158.368L272.441 159.305L272.516 160.241L272.733 161.13L273.081 161.958L273.548 162.715L274.121 163.387L274.79 163.964L275.541 164.434L276.364 164.784L277.247 165.003L278.178 165.078L279.05 165.078L278.992 165.087H297.011L296.958 165.078L297.831 165.078L298.761 165.003L299.644 164.784L300.467 164.434L301.219 163.964L301.887 163.387L302.461 162.715L302.927 161.958L303.275 161.13L303.493 160.241L303.568 159.305L303.493 158.368L303.275 157.48L302.927 156.651L302.461 155.895L301.887 155.222L301.219 154.645L300.467 154.175L299.644 153.825L298.762 153.606L297.831 153.531L297.34 153.531L296.329 153.613L295.371 153.85L294.477 154.23L293.661 154.74L292.936 155.367L292.313 156.097L291.807 156.918L291.429 157.818L291.193 158.782L291.111 159.799V191.426" stroke="#B3B3B3" stroke-width="2.22798"/>
<path d="M275.143 189.489H300.858V192.778L300.751 194.112L300.441 195.377L299.946 196.556L299.281 197.634L298.465 198.592L297.513 199.414L296.442 200.082L295.27 200.581L294.013 200.892L292.688 201H283.313L281.988 200.892L280.731 200.581L279.559 200.082L278.488 199.414L277.536 198.592L276.72 197.634L276.055 196.556L275.56 195.377L275.25 194.112L275.143 192.778V189.489Z" fill="#141414" stroke="#141414" stroke-width="1.67098"/>
<path d="M275.143 189.493H300.858V192.782H275.143V189.493Z" fill="#808080" stroke="#808080" stroke-width="1.67098"/>
</svg>
