<svg width="567" height="312" viewBox="0 0 567 312" fill="none" xmlns="http://www.w3.org/2000/svg">
<rect x="28" y="56" width="538" height="218" stroke="black" stroke-width="2"/>
<path d="M328.713 78.9893H250.648C247.568 78.9893 245.072 76.3036 245.072 72.9906V36.9986C245.072 33.6856 247.568 30.9999 250.648 30.9999H328.713C331.792 30.9999 334.289 33.6856 334.289 36.9986V72.9906C334.289 76.3036 331.792 78.9893 328.713 78.9893Z" fill="#CE6809"/>
<path d="M245.072 78.2388H303.62V31.7491H245.072V78.2388Z" fill="#333333"/>
<path d="M303.621 48.9954H334.289V36.998H303.621V48.9954Z" fill="#E77A16"/>
<path d="M245.072 49.7412H303.62V37.7439H245.072V49.7412Z" fill="#4C4C4C"/>
<path d="M342.284 67.1125H336.707C335.168 67.1125 333.919 65.7697 333.919 64.1132V46.1172C333.919 44.4607 335.168 43.1179 336.707 43.1179H342.284C343.823 43.1179 345.072 44.4607 345.072 46.1172V64.1132C345.072 65.7697 343.823 67.1125 342.284 67.1125Z" fill="#333333"/>
<path d="M340.89 51.8118H335.313C334.544 51.8118 333.919 51.1403 333.919 50.3121V47.3128C333.919 46.4845 334.544 45.8131 335.313 45.8131H340.89C341.659 45.8131 342.284 46.4845 342.284 47.3128V50.3121C342.284 51.1403 341.659 51.8118 340.89 51.8118Z" fill="#4C4C4C"/>
<path d="M328.713 79H250.648C247.568 79 245.072 76.3143 245.072 73.0013V37.0093C245.072 33.6964 247.568 31.0107 250.648 31.0107H328.713C331.792 31.0107 334.289 33.6964 334.289 37.0093V73.0013C334.289 76.3143 331.792 79 328.713 79Z" stroke="#333333" stroke-width="2.78497"/>
<path d="M360.183 56.207L359.997 15.8669L229 16.4698L229.186 56.8099" stroke="black" stroke-width="2"/>
<rect x="275.072" y="3" width="40" height="20" rx="5" fill="black"/>
<path d="M277.308 20V18.32C277.308 17.3467 277.468 16.54 277.788 15.9C278.108 15.2467 278.568 14.7133 279.168 14.3C279.781 13.8733 280.528 13.5267 281.408 13.26L282.748 12.84C283.241 12.68 283.655 12.4867 283.988 12.26C284.321 12.02 284.575 11.7333 284.748 11.4C284.935 11.0667 285.028 10.6867 285.028 10.26V10.18C285.028 9.51333 284.801 8.98667 284.348 8.6C283.895 8.2 283.275 8 282.488 8C281.715 8 281.088 8.21333 280.608 8.64C280.141 9.05333 279.908 9.65333 279.908 10.44V10.8H277.348V10.48C277.348 9.46667 277.575 8.60667 278.028 7.9C278.481 7.19333 279.095 6.65333 279.868 6.28C280.655 5.90667 281.528 5.72 282.488 5.72C283.448 5.72 284.315 5.90667 285.088 6.28C285.861 6.64 286.468 7.15333 286.908 7.82C287.361 8.47333 287.588 9.24667 287.588 10.14V10.34C287.588 11.2333 287.401 11.9933 287.028 12.62C286.668 13.2333 286.175 13.74 285.548 14.14C284.921 14.5267 284.208 14.8467 283.408 15.1L282.128 15.5C281.555 15.6733 281.108 15.8667 280.788 16.08C280.468 16.28 280.241 16.5067 280.108 16.76C279.988 17 279.928 17.2933 279.928 17.64V17.72H287.468V20H277.308ZM294.823 20.28C293.17 20.28 291.843 19.8267 290.843 18.92C289.843 18 289.343 16.6133 289.343 14.76V11.24C289.343 9.44 289.843 8.07333 290.843 7.14C291.843 6.19333 293.17 5.72 294.823 5.72C296.49 5.72 297.816 6.19333 298.803 7.14C299.803 8.07333 300.303 9.44 300.303 11.24V14.76C300.303 16.6133 299.803 18 298.803 18.92C297.816 19.8267 296.49 20.28 294.823 20.28ZM294.823 18C295.823 18 296.556 17.7267 297.023 17.18C297.503 16.6333 297.743 15.8533 297.743 14.84V11.12C297.743 10.0933 297.476 9.32 296.943 8.8C296.423 8.26667 295.716 8 294.823 8C293.903 8 293.183 8.27333 292.663 8.82C292.156 9.36667 291.903 10.1333 291.903 11.12V14.84C291.903 15.8933 292.143 16.6867 292.623 17.22C293.116 17.74 293.85 18 294.823 18ZM305.232 20L301.672 6H304.392L307.352 18.3H307.632L310.592 6H313.312L309.752 20H305.232Z" fill="white"/>
<rect x="1" y="78" width="58" height="58" rx="9" fill="#F7F7F7" stroke="#E5E5E5" stroke-width="2"/>
<circle cx="31" cy="108.164" r="15.625" fill="black"/>
<path d="M29.0863 111.913V111.433C29.0863 110.753 29.2196 110.193 29.4863 109.753C29.7663 109.313 30.2129 108.946 30.8263 108.653L31.1663 108.493C31.7663 108.213 32.2263 107.913 32.5463 107.593C32.8663 107.273 33.0263 106.846 33.0263 106.313C33.0263 105.926 32.9263 105.599 32.7263 105.333C32.5396 105.053 32.2729 104.839 31.9263 104.693C31.5796 104.546 31.1729 104.473 30.7063 104.473C30.2263 104.473 29.7929 104.553 29.4063 104.713C29.0329 104.873 28.7329 105.113 28.5063 105.433C28.2929 105.753 28.1863 106.153 28.1863 106.633V107.073H25.5863V106.673C25.5863 105.753 25.8129 104.959 26.2663 104.293C26.7196 103.626 27.3329 103.119 28.1063 102.773C28.8796 102.413 29.7463 102.233 30.7063 102.233C31.6529 102.233 32.4929 102.406 33.2263 102.753C33.9729 103.099 34.5596 103.579 34.9863 104.193C35.4129 104.806 35.6263 105.513 35.6263 106.313C35.6263 107.113 35.4796 107.773 35.1862 108.293C34.8929 108.799 34.5196 109.213 34.0663 109.533C33.6263 109.839 33.1729 110.106 32.7063 110.333L32.3663 110.493C32.1263 110.599 31.9596 110.733 31.8663 110.893C31.7729 111.039 31.7263 111.259 31.7263 111.553V111.913H29.0863ZM30.4863 116.793C29.9529 116.793 29.4996 116.619 29.1263 116.273C28.7663 115.913 28.5863 115.453 28.5863 114.893C28.5863 114.333 28.7663 113.879 29.1263 113.533C29.4996 113.173 29.9529 112.993 30.4863 112.993C31.0329 112.993 31.4863 113.173 31.8463 113.533C32.2063 113.879 32.3863 114.333 32.3863 114.893C32.3863 115.453 32.2063 115.913 31.8463 116.273C31.4863 116.619 31.0329 116.793 30.4863 116.793Z" fill="white"/>
<path d="M454.662 234.099L453.98 234.993L453.365 235.916L452.819 236.866L452.343 237.84L451.937 238.835L451.602 239.85L451.34 240.88L451.152 241.923L451.038 242.976L451 244.038L451.118 245.914L451.463 247.734L452.023 249.486L452.787 251.161L453.743 252.748L454.878 254.239L456.181 255.622L457.639 256.887L459.241 258.025L460.974 259.025L462.179 259.69L463.341 260.421L464.44 261.217L465.456 262.075L466.369 262.992L467.161 263.967L467.811 264.996L468.3 266.079L468.607 267.212L468.714 268.392L468.817 269.468L469.116 270.488L469.595 271.439L470.236 272.308L471.024 273.08L471.943 273.743L472.976 274.282L474.108 274.684L475.321 274.935L476.6 275.022H487.4L488.679 274.935L489.892 274.684L491.024 274.282L492.057 273.743L492.976 273.08L493.764 272.308L494.405 271.439L494.884 270.488L495.182 269.468L495.286 268.392L495.393 267.212L495.7 266.079L496.189 264.996L496.839 263.967L497.631 262.992L498.544 262.075L499.56 261.217L500.659 260.421L501.821 259.69L503.026 259.025L504.759 258.025L506.361 256.887L507.819 255.622L509.122 254.239L510.257 252.748L511.213 251.161L511.977 249.486L512.537 247.734L512.882 245.914L513 244.038L512.962 242.976L512.848 241.923L512.66 240.88L512.398 239.85L512.063 238.835L511.657 237.84L511.181 236.866L510.635 235.916L510.02 234.993L509.338 234.099L486.384 205.942L485.682 205.243L484.864 204.699L483.958 204.311L482.994 204.078L482 204L481.006 204.078L480.042 204.311L479.136 204.699L478.318 205.243L477.616 205.942L454.662 234.099Z" fill="#F2F2F2" stroke="#B3B3B3" stroke-width="2.79134"/>
<path d="M478.794 269.329V238.934L478.732 238.298L478.556 237.695L478.273 237.132L477.893 236.618L477.427 236.161L476.884 235.769L476.273 235.451L475.603 235.213L474.885 235.064L474.129 235.013L473.372 235.064L472.655 235.213L471.985 235.451L471.374 235.77L470.831 236.162L470.365 236.618L469.985 237.132L469.703 237.695L469.526 238.298L469.465 238.934V242.707L469.554 243.638L469.813 244.522L470.227 245.345L470.783 246.098L471.465 246.767L472.261 247.341L473.156 247.808L474.136 248.156L475.187 248.373L476.295 248.448L475.8 248.456H488.2L487.714 248.448L488.822 248.373L489.873 248.156L490.853 247.808L491.747 247.341L492.543 246.767L493.226 246.098L493.781 245.345L494.195 244.522L494.454 243.638L494.544 242.707V238.934L494.483 238.298L494.306 237.695L494.023 237.132L493.644 236.618L493.178 236.162L492.634 235.77L492.023 235.451L491.354 235.213L490.636 235.064L489.88 235.013L489.123 235.064L488.405 235.213L487.736 235.451L487.125 235.769L486.581 236.161L486.115 236.618L485.736 237.132L485.453 237.695L485.276 238.298L485.215 238.934V269.329" stroke="#B3B3B3" stroke-width="2.23307"/>
<path d="M468.715 267.576H495.286V270.554L495.17 271.762L494.835 272.908L494.298 273.976L493.577 274.952L492.692 275.819L491.66 276.563L490.499 277.169L489.229 277.62L487.866 277.903L486.429 278H477.572L476.135 277.903L474.772 277.62L473.501 277.169L472.341 276.563L471.309 275.819L470.424 274.952L469.703 273.976L469.166 272.908L468.831 271.762L468.715 270.554V267.576Z" fill="#141414" stroke="#141414" stroke-width="1.67481"/>
<path d="M468.715 267.576H495.286V270.554H468.715V267.576Z" fill="#808080" stroke="#808080" stroke-width="1.67481"/>
<path d="M475.653 218.989C482.226 218.989 487.554 223.468 487.554 228.994C487.554 234.52 482.226 238.999 475.653 238.999C469.079 238.999 463.751 234.52 463.751 228.994C463.751 223.468 469.079 218.989 475.653 218.989Z" fill="white" fill-opacity="0.3"/>
<rect x="461" y="282" width="43.027" height="20" rx="5" fill="black"/>
<path d="M481.082 299V296.46H484.102C483.476 296.073 482.942 295.607 482.502 295.06C482.076 294.5 481.749 293.873 481.522 293.18C481.309 292.473 481.202 291.707 481.202 290.88C481.202 289.667 481.476 288.58 482.022 287.62C482.582 286.66 483.369 285.9 484.382 285.34C485.409 284.78 486.616 284.5 488.002 284.5C489.402 284.5 490.609 284.78 491.622 285.34C492.636 285.9 493.416 286.667 493.962 287.64C494.522 288.6 494.802 289.687 494.802 290.9C494.802 291.727 494.689 292.487 494.462 293.18C494.249 293.873 493.922 294.5 493.482 295.06C493.042 295.607 492.502 296.073 491.862 296.46H494.922V299H489.042V296.28C489.776 295.933 490.329 295.493 490.702 294.96C491.089 294.413 491.349 293.827 491.482 293.2C491.616 292.56 491.682 291.927 491.682 291.3C491.682 290.407 491.529 289.647 491.222 289.02C490.929 288.38 490.509 287.887 489.962 287.54C489.416 287.193 488.762 287.02 488.002 287.02C487.242 287.02 486.582 287.193 486.022 287.54C485.476 287.887 485.056 288.38 484.762 289.02C484.469 289.66 484.322 290.427 484.322 291.32C484.322 291.947 484.402 292.573 484.562 293.2C484.722 293.827 484.989 294.407 485.362 294.94C485.749 295.473 486.269 295.92 486.922 296.28V299H481.082Z" fill="white"/>
<path d="M474.058 299.28C472.992 299.28 472.065 299.08 471.278 298.68C470.492 298.28 469.885 297.727 469.458 297.02C469.032 296.313 468.818 295.5 468.818 294.58V289.8C468.818 288.667 469.045 287.727 469.498 286.98C469.965 286.22 470.598 285.653 471.398 285.28C472.212 284.907 473.138 284.72 474.178 284.72C475.218 284.72 476.118 284.893 476.878 285.24C477.652 285.587 478.245 286.087 478.658 286.74C479.085 287.393 479.298 288.173 479.298 289.08H476.698C476.698 288.52 476.505 288.033 476.118 287.62C475.732 287.207 475.085 287 474.178 287C473.285 287 472.592 287.233 472.098 287.7C471.618 288.167 471.378 288.813 471.378 289.64V291.08H471.738C471.965 290.813 472.312 290.56 472.778 290.32C473.245 290.08 473.925 289.96 474.818 289.96C475.632 289.96 476.378 290.133 477.058 290.48C477.752 290.827 478.312 291.333 478.738 292C479.165 292.653 479.378 293.447 479.378 294.38V294.62C479.378 295.54 479.158 296.353 478.718 297.06C478.278 297.753 477.658 298.3 476.858 298.7C476.058 299.087 475.125 299.28 474.058 299.28ZM474.098 297C474.938 297 475.598 296.78 476.078 296.34C476.572 295.9 476.818 295.313 476.818 294.58V294.42C476.818 293.927 476.705 293.5 476.478 293.14C476.265 292.78 475.952 292.5 475.538 292.3C475.138 292.1 474.658 292 474.098 292C473.552 292 473.072 292.1 472.658 292.3C472.245 292.5 471.925 292.78 471.698 293.14C471.485 293.5 471.378 293.927 471.378 294.42V294.58C471.378 295.313 471.618 295.9 472.098 296.34C472.592 296.78 473.258 297 474.098 297Z" fill="white"/>
<path d="M273.154 207L271.507 207.135L269.944 207.524L268.488 208.148L267.157 208.985L265.974 210.013L264.959 211.211L264.133 212.559L263.518 214.035L263.133 215.618L263 217.286V237.858L263.135 240.242L263.53 242.546L264.169 244.755L265.039 246.853L266.123 248.826L267.408 250.657L268.878 252.333L270.517 253.838L272.312 255.157L274.248 256.275L275.629 257.03L276.971 257.885L278.251 258.837L279.441 259.883L280.517 261.019L281.455 262.242L282.228 263.549L282.811 264.937L283.179 266.402L283.308 267.942L283.406 269.18L283.692 270.354L284.149 271.449L284.761 272.449L285.514 273.339L286.392 274.101L287.379 274.722L288.46 275.185L289.619 275.474L290.841 275.574H301.159L302.381 275.474L303.54 275.185L304.621 274.722L305.608 274.101L306.486 273.339L307.239 272.449L307.851 271.449L308.308 270.354L308.594 269.18L308.692 267.942L308.821 266.402L309.189 264.937L309.772 263.549L310.545 262.242L311.483 261.019L312.559 259.883L313.749 258.837L315.029 257.885L316.371 257.03L317.752 256.275L319.688 255.157L321.483 253.838L323.122 252.333L324.592 250.657L325.877 248.826L326.961 246.853L327.831 244.755L328.47 242.546L328.865 240.242L329 237.858V217.286L328.867 215.618L328.482 214.035L327.867 212.559L327.041 211.211L326.026 210.013L324.843 208.985L323.512 208.148L322.056 207.524L320.493 207.135L318.846 207H273.154Z" fill="#F2F2F2" stroke="#B3B3B3" stroke-width="2.78497"/>
<path d="M292.937 268.016V235.937L292.864 235.01L292.65 234.131L292.308 233.312L291.849 232.563L291.286 231.897L290.628 231.326L289.889 230.862L289.08 230.515L288.213 230.299L287.298 230.224L282.352 230.224L281.525 230.292L280.741 230.488L280.01 230.801L279.342 231.221L278.749 231.736L278.239 232.338L277.825 233.014L277.516 233.755L277.323 234.549L277.256 235.387L277.323 236.224L277.516 237.018L277.825 237.759L278.239 238.435L278.749 239.037L279.342 239.553L280.01 239.972L280.741 240.285L281.525 240.481L282.352 240.549L287.165 240.549L287.108 240.557H304.896L304.844 240.549L309.657 240.549L310.484 240.481L311.268 240.285L311.999 239.972L312.667 239.553L313.261 239.037L313.77 238.435L314.184 237.759L314.493 237.018L314.686 236.224L314.753 235.387L314.686 234.549L314.493 233.755L314.184 233.014L313.77 232.338L313.261 231.736L312.667 231.221L311.999 230.801L311.268 230.488L310.484 230.292L309.658 230.224L304.711 230.224L303.797 230.299L302.929 230.515L302.12 230.862L301.381 231.326L300.724 231.897L300.16 232.563L299.701 233.312L299.359 234.131L299.146 235.01L299.072 235.937V268.016" stroke="#B3B3B3" stroke-width="2.22798"/>
<path d="M283.308 267.001H308.692V270.43H283.308V267.001Z" fill="#808080" stroke="#808080" stroke-width="1.67098"/>
<path d="M283.308 267H308.692V270.428L308.581 271.819L308.261 273.138L307.748 274.367L307.06 275.491L306.214 276.489L305.228 277.346L304.119 278.043L302.905 278.563L301.603 278.888L300.231 279H291.769L290.397 278.888L289.095 278.563L287.881 278.043L286.772 277.346L285.786 276.489L284.94 275.491L284.252 274.367L283.739 273.138L283.418 271.819L283.308 270.428V267Z" fill="#141414" stroke="#141414" stroke-width="1.67098"/>
<rect x="276" y="285" width="43.027" height="20" rx="5" fill="black"/>
<path d="M299.082 302V299.46H302.102C301.476 299.073 300.942 298.607 300.502 298.06C300.076 297.5 299.749 296.873 299.522 296.18C299.309 295.473 299.202 294.707 299.202 293.88C299.202 292.667 299.476 291.58 300.022 290.62C300.582 289.66 301.369 288.9 302.382 288.34C303.409 287.78 304.616 287.5 306.002 287.5C307.402 287.5 308.609 287.78 309.622 288.34C310.636 288.9 311.416 289.667 311.962 290.64C312.522 291.6 312.802 292.687 312.802 293.9C312.802 294.727 312.689 295.487 312.462 296.18C312.249 296.873 311.922 297.5 311.482 298.06C311.042 298.607 310.502 299.073 309.862 299.46H312.922V302H307.042V299.28C307.776 298.933 308.329 298.493 308.702 297.96C309.089 297.413 309.349 296.827 309.482 296.2C309.616 295.56 309.682 294.927 309.682 294.3C309.682 293.407 309.529 292.647 309.222 292.02C308.929 291.38 308.509 290.887 307.962 290.54C307.416 290.193 306.762 290.02 306.002 290.02C305.242 290.02 304.582 290.193 304.022 290.54C303.476 290.887 303.056 291.38 302.762 292.02C302.469 292.66 302.322 293.427 302.322 294.32C302.322 294.947 302.402 295.573 302.562 296.2C302.722 296.827 302.989 297.407 303.362 297.94C303.749 298.473 304.269 298.92 304.922 299.28V302H299.082Z" fill="white"/>
<path d="M282.154 302V289.88H281.794L279.914 294.32H277.234L280.094 288H284.714V302H282.154ZM292.517 302.28C290.864 302.28 289.537 301.827 288.537 300.92C287.537 300 287.037 298.613 287.037 296.76V293.24C287.037 291.44 287.537 290.073 288.537 289.14C289.537 288.193 290.864 287.72 292.517 287.72C294.184 287.72 295.51 288.193 296.497 289.14C297.497 290.073 297.997 291.44 297.997 293.24V296.76C297.997 298.613 297.497 300 296.497 300.92C295.51 301.827 294.184 302.28 292.517 302.28ZM292.517 300C293.517 300 294.25 299.727 294.717 299.18C295.197 298.633 295.437 297.853 295.437 296.84V293.12C295.437 292.093 295.17 291.32 294.637 290.8C294.117 290.267 293.41 290 292.517 290C291.597 290 290.877 290.273 290.357 290.82C289.85 291.367 289.597 292.133 289.597 293.12V296.84C289.597 297.893 289.837 298.687 290.317 299.22C290.81 299.74 291.544 300 292.517 300Z" fill="white"/>
<path d="M108.857 267.39L108.914 266.365L109.078 265.364L109.344 264.391L109.703 263.449L110.148 262.54L110.673 261.67L111.27 260.84L111.932 260.054L112.651 259.316L113.421 258.628L115.624 256.618L117.653 254.413L119.496 252.038L121.139 249.517L122.566 246.874L123.765 244.133L124.722 241.317L125.423 238.451L125.853 235.559L126 232.665L125.607 228.016L124.471 223.605L122.651 219.492L120.212 215.736L117.213 212.396L113.718 209.531L109.787 207.2L105.482 205.461L100.866 204.375L96 204L91.1338 204.375L86.5177 205.461L82.2133 207.2L78.2824 209.531L74.7868 212.396L71.7883 215.736L69.3485 219.492L67.5294 223.605L66.3927 228.016L66 232.665L66.1466 235.559L66.5772 238.451L67.2778 241.317L68.2347 244.133L69.4338 246.874L70.8614 249.517L72.5036 252.038L74.3465 254.413L76.3762 256.618L78.5789 258.628L79.3486 259.316L80.068 260.054L80.7298 260.84L81.3267 261.67L81.8516 262.54L82.2972 263.449L82.6564 264.391L82.9218 265.364L83.0864 266.365L83.1429 267.39L83.2381 268.578L83.5137 269.704L83.9548 270.754L84.5463 271.714L85.2733 272.567L86.1209 273.298L87.074 273.894L88.1176 274.337L89.2369 274.615L90.4167 274.711H101.583L102.763 274.615L103.882 274.337L104.926 273.894L105.879 273.298L106.727 272.567L107.454 271.714L108.045 270.754L108.486 269.704L108.762 268.578L108.857 267.39Z" fill="#F2F2F2" stroke="#B3B3B3" stroke-width="2.78497"/>
<path d="M92.8972 268.426V236.799L92.8157 235.782L92.5797 234.818L92.202 233.918L91.6955 233.097L91.073 232.367L90.3472 231.74L89.5311 231.23L88.6375 230.85L87.6791 230.613L86.6688 230.531L86.1776 230.531L85.247 230.606L84.3643 230.825L83.5412 231.175L82.7896 231.645L82.1211 232.222L81.5477 232.895L81.0812 233.651L80.7334 234.48L80.516 235.368L80.4409 236.305L80.516 237.241L80.7334 238.13L81.0812 238.958L81.5478 239.715L82.1212 240.387L82.7896 240.964L83.5413 241.434L84.3644 241.784L85.2472 242.003L86.1777 242.078L87.0503 242.078L86.9917 242.087H105.011L104.958 242.078L105.831 242.078L106.761 242.003L107.644 241.784L108.467 241.434L109.219 240.964L109.887 240.387L110.461 239.715L110.927 238.958L111.275 238.13L111.493 237.241L111.568 236.305L111.493 235.368L111.275 234.48L110.927 233.651L110.461 232.895L109.887 232.222L109.219 231.645L108.467 231.175L107.644 230.825L106.762 230.606L105.831 230.531L105.34 230.531L104.329 230.613L103.371 230.85L102.477 231.23L101.661 231.74L100.936 232.367L100.313 233.097L99.8065 233.918L99.4289 234.818L99.1928 235.782L99.1113 236.799V268.426" stroke="#B3B3B3" stroke-width="2.22798"/>
<path d="M83.1433 266.489H108.858V269.778L108.751 271.112L108.441 272.377L107.946 273.556L107.281 274.634L106.465 275.592L105.513 276.414L104.442 277.082L103.27 277.581L102.013 277.892L100.688 278H91.313L89.9878 277.892L88.7307 277.581L87.5585 277.082L86.4881 276.414L85.5361 275.592L84.7196 274.634L84.0552 273.556L83.5598 272.377L83.2502 271.112L83.1433 269.778V266.489Z" fill="#141414" stroke="#141414" stroke-width="1.67098"/>
<path d="M83.1433 266.493H108.858V269.782H83.1433V266.493Z" fill="#808080" stroke="#808080" stroke-width="1.67098"/>
<rect x="76" y="284" width="43.027" height="20" rx="5" fill="black"/>
<path d="M96.0823 301V298.46H99.1023C98.4757 298.073 97.9423 297.607 97.5023 297.06C97.0757 296.5 96.749 295.873 96.5223 295.18C96.309 294.473 96.2023 293.707 96.2023 292.88C96.2023 291.667 96.4757 290.58 97.0223 289.62C97.5823 288.66 98.369 287.9 99.3823 287.34C100.409 286.78 101.616 286.5 103.002 286.5C104.402 286.5 105.609 286.78 106.622 287.34C107.636 287.9 108.416 288.667 108.962 289.64C109.522 290.6 109.802 291.687 109.802 292.9C109.802 293.727 109.689 294.487 109.462 295.18C109.249 295.873 108.922 296.5 108.482 297.06C108.042 297.607 107.502 298.073 106.862 298.46H109.922V301H104.042V298.28C104.776 297.933 105.329 297.493 105.702 296.96C106.089 296.413 106.349 295.827 106.482 295.2C106.616 294.56 106.682 293.927 106.682 293.3C106.682 292.407 106.529 291.647 106.222 291.02C105.929 290.38 105.509 289.887 104.962 289.54C104.416 289.193 103.762 289.02 103.002 289.02C102.242 289.02 101.582 289.193 101.022 289.54C100.476 289.887 100.056 290.38 99.7623 291.02C99.469 291.66 99.3223 292.427 99.3223 293.32C99.3223 293.947 99.4023 294.573 99.5623 295.2C99.7223 295.827 99.989 296.407 100.362 296.94C100.749 297.473 101.269 297.92 101.922 298.28V301H96.0823Z" fill="white"/>
<path d="M90.0426 301V298.16H83.1626V295.2L88.0026 287H92.6026V295.88H94.9226V298.16H92.6026V301H90.0426ZM85.6026 295.88H90.0426V288.64H89.6826L85.6026 295.56V295.88Z" fill="white"/>
</svg>
