<svg width="542" height="347" viewBox="0 0 542 347" fill="none" xmlns="http://www.w3.org/2000/svg">
<path d="M108 245.382H1V25.3818H541V245.382H224" stroke="black" stroke-width="2"/>
<path d="M302.713 49.3711H224.648C221.568 49.3711 219.072 46.6854 219.072 43.3724V7.38042C219.072 4.06744 221.568 1.38175 224.648 1.38175H302.713C305.792 1.38175 308.289 4.06744 308.289 7.38042V43.3724C308.289 46.6854 305.792 49.3711 302.713 49.3711Z" fill="#CE6809"/>
<path d="M219.072 48.6206H277.62V2.13093H219.072V48.6206Z" fill="#333333"/>
<path d="M277.621 19.377H308.289V7.37962H277.621V19.377Z" fill="#E77A16"/>
<path d="M219.072 20.123H277.62V8.12571H219.072V20.123Z" fill="#4C4C4C"/>
<path d="M316.283 37.4941H310.707C309.168 37.4941 307.919 36.1513 307.919 34.4948V16.4988C307.919 14.8423 309.168 13.4995 310.707 13.4995H316.283C317.823 13.4995 319.071 14.8423 319.071 16.4988V34.4948C319.071 36.1513 317.823 37.4941 316.283 37.4941Z" fill="#333333"/>
<path d="M314.889 22.1934H309.313C308.543 22.1934 307.919 21.5219 307.919 20.6937V17.6944C307.919 16.8661 308.543 16.1947 309.313 16.1947H314.889C315.659 16.1947 316.283 16.8661 316.283 17.6944V20.6937C316.283 21.5219 315.659 22.1934 314.889 22.1934Z" fill="#4C4C4C"/>
<path d="M302.713 49.3818H224.648C221.568 49.3818 219.072 46.6961 219.072 43.3832V7.39116C219.072 4.07819 221.568 1.39249 224.648 1.39249H302.713C305.792 1.39249 308.289 4.07819 308.289 7.39116V43.3832C308.289 46.6961 305.792 49.3818 302.713 49.3818Z" stroke="#333333" stroke-width="2.78497"/>
<path d="M428.662 204.481L427.98 205.374L427.365 206.297L426.819 207.247L426.343 208.221L425.937 209.217L425.602 210.231L425.34 211.261L425.152 212.304L425.038 213.358L425 214.419L425.118 216.296L425.463 218.115L426.023 219.867L426.787 221.542L427.743 223.13L428.878 224.62L430.181 226.003L431.639 227.269L433.241 228.406L434.974 229.407L436.179 230.071L437.341 230.803L438.44 231.599L439.456 232.456L440.369 233.374L441.161 234.348L441.811 235.378L442.3 236.46L442.607 237.593L442.714 238.774L442.817 239.849L443.116 240.869L443.595 241.821L444.236 242.689L445.024 243.462L445.943 244.124L446.976 244.663L448.108 245.065L449.321 245.317L450.6 245.403H461.4L462.679 245.317L463.892 245.065L465.024 244.663L466.057 244.124L466.976 243.462L467.764 242.689L468.405 241.821L468.884 240.869L469.182 239.849L469.286 238.774L469.393 237.593L469.7 236.46L470.189 235.378L470.839 234.348L471.631 233.374L472.544 232.456L473.56 231.599L474.659 230.803L475.821 230.071L477.026 229.407L478.759 228.406L480.361 227.269L481.819 226.003L483.122 224.62L484.257 223.13L485.213 221.542L485.977 219.867L486.537 218.115L486.882 216.296L487 214.419L486.962 213.358L486.848 212.304L486.66 211.261L486.398 210.231L486.063 209.217L485.657 208.221L485.181 207.247L484.635 206.297L484.02 205.374L483.338 204.481L460.384 176.324L459.682 175.624L458.864 175.081L457.958 174.692L456.994 174.459L456 174.382L455.006 174.459L454.042 174.692L453.136 175.081L452.318 175.624L451.616 176.324L428.662 204.481Z" fill="#F2F2F2" stroke="#B3B3B3" stroke-width="2.79134"/>
<path d="M452.794 239.711V209.316L452.732 208.68L452.556 208.076L452.273 207.514L451.893 207L451.427 206.543L450.884 206.151L450.273 205.832L449.603 205.594L448.885 205.446L448.129 205.395L447.372 205.446L446.655 205.595L445.985 205.832L445.374 206.151L444.831 206.543L444.365 207L443.985 207.514L443.703 208.076L443.526 208.68L443.465 209.316V213.089L443.554 214.02L443.813 214.903L444.227 215.727L444.783 216.479L445.465 217.148L446.261 217.722L447.156 218.189L448.136 218.537L449.187 218.755L450.295 218.83L449.8 218.837H462.2L461.714 218.83L462.822 218.755L463.873 218.537L464.853 218.189L465.747 217.722L466.543 217.148L467.226 216.479L467.781 215.727L468.195 214.903L468.454 214.02L468.544 213.089V209.316L468.483 208.68L468.306 208.076L468.023 207.514L467.644 207L467.178 206.543L466.634 206.151L466.023 205.832L465.354 205.595L464.636 205.446L463.88 205.395L463.123 205.446L462.405 205.594L461.736 205.832L461.125 206.151L460.581 206.543L460.115 207L459.736 207.514L459.453 208.076L459.276 208.68L459.215 209.316V239.711" stroke="#B3B3B3" stroke-width="2.23307"/>
<path d="M442.715 237.958H469.286V240.936L469.17 242.144L468.835 243.29L468.298 244.358L467.577 245.333L466.692 246.201L465.66 246.945L464.499 247.551L463.229 248.002L461.866 248.284L460.429 248.382H451.572L450.135 248.284L448.772 248.002L447.501 247.551L446.341 246.945L445.309 246.201L444.424 245.333L443.703 244.358L443.166 243.29L442.831 242.144L442.715 240.936V237.958Z" fill="#141414" stroke="#141414" stroke-width="1.67481"/>
<path d="M442.715 237.958H469.286V240.936H442.715V237.958Z" fill="#808080" stroke="#808080" stroke-width="1.67481"/>
<path d="M449.653 189.371C456.226 189.371 461.554 193.85 461.554 199.376C461.554 204.901 456.226 209.381 449.653 209.381C443.079 209.381 437.751 204.901 437.751 199.376C437.751 193.85 443.079 189.371 449.653 189.371Z" fill="white" fill-opacity="0.3"/>
<rect x="435" y="256.382" width="45" height="20" rx="5" fill="black"/>
<path d="M457.082 273.382V270.842H460.102C459.476 270.455 458.942 269.989 458.502 269.442C458.076 268.882 457.749 268.255 457.522 267.562C457.309 266.855 457.202 266.089 457.202 265.262C457.202 264.049 457.476 262.962 458.022 262.002C458.582 261.042 459.369 260.282 460.382 259.722C461.409 259.162 462.616 258.882 464.002 258.882C465.402 258.882 466.609 259.162 467.622 259.722C468.636 260.282 469.416 261.049 469.962 262.022C470.522 262.982 470.802 264.069 470.802 265.282C470.802 266.109 470.689 266.869 470.462 267.562C470.249 268.255 469.922 268.882 469.482 269.442C469.042 269.989 468.502 270.455 467.862 270.842H470.922V273.382H465.042V270.662C465.776 270.315 466.329 269.875 466.702 269.342C467.089 268.795 467.349 268.209 467.482 267.582C467.616 266.942 467.682 266.309 467.682 265.682C467.682 264.789 467.529 264.029 467.222 263.402C466.929 262.762 466.509 262.269 465.962 261.922C465.416 261.575 464.762 261.402 464.002 261.402C463.242 261.402 462.582 261.575 462.022 261.922C461.476 262.269 461.056 262.762 460.762 263.402C460.469 264.042 460.322 264.809 460.322 265.702C460.322 266.329 460.402 266.955 460.562 267.582C460.722 268.209 460.989 268.789 461.362 269.322C461.749 269.855 462.269 270.302 462.922 270.662V273.382H457.082Z" fill="white"/>
<path d="M444.903 273.382V271.702C444.903 270.729 445.063 269.922 445.382 269.282C445.703 268.629 446.163 268.095 446.763 267.682C447.376 267.255 448.123 266.909 449.003 266.642L450.343 266.222C450.836 266.062 451.249 265.869 451.583 265.642C451.916 265.402 452.169 265.115 452.343 264.782C452.529 264.449 452.623 264.069 452.623 263.642V263.562C452.623 262.895 452.396 262.369 451.943 261.982C451.489 261.582 450.869 261.382 450.083 261.382C449.309 261.382 448.683 261.595 448.203 262.022C447.736 262.435 447.503 263.035 447.503 263.822V264.182H444.943V263.862C444.943 262.849 445.169 261.989 445.623 261.282C446.076 260.575 446.689 260.035 447.463 259.662C448.249 259.289 449.123 259.102 450.083 259.102C451.043 259.102 451.909 259.289 452.683 259.662C453.456 260.022 454.063 260.535 454.503 261.202C454.956 261.855 455.183 262.629 455.183 263.522V263.722C455.183 264.615 454.996 265.375 454.622 266.002C454.263 266.615 453.769 267.122 453.143 267.522C452.516 267.909 451.803 268.229 451.003 268.482L449.723 268.882C449.149 269.055 448.703 269.249 448.383 269.462C448.063 269.662 447.836 269.889 447.703 270.142C447.583 270.382 447.523 270.675 447.523 271.022V271.102H455.063V273.382H444.903Z" fill="white"/>
<path d="M141.154 246.382L139.507 246.517L137.944 246.907L136.488 247.53L135.157 248.367L133.974 249.395L132.959 250.593L132.133 251.941L131.518 253.417L131.133 255L131 256.668V277.24L131.135 279.624L131.53 281.928L132.169 284.137L133.039 286.235L134.123 288.208L135.408 290.039L136.878 291.715L138.517 293.22L140.312 294.539L142.248 295.657L143.629 296.412L144.971 297.267L146.251 298.219L147.441 299.265L148.517 300.401L149.455 301.624L150.228 302.931L150.811 304.319L151.179 305.784L151.308 307.324L151.406 308.562L151.692 309.736L152.149 310.831L152.761 311.831L153.514 312.721L154.392 313.484L155.379 314.104L156.46 314.567L157.619 314.856L158.841 314.956H169.159L170.381 314.856L171.54 314.567L172.621 314.104L173.608 313.484L174.486 312.721L175.239 311.831L175.851 310.831L176.308 309.736L176.594 308.562L176.692 307.324L176.821 305.784L177.189 304.319L177.772 302.931L178.545 301.624L179.483 300.401L180.559 299.265L181.749 298.219L183.029 297.267L184.371 296.412L185.752 295.657L187.688 294.539L189.483 293.22L191.122 291.715L192.592 290.039L193.877 288.208L194.961 286.235L195.831 284.137L196.47 281.928L196.865 279.624L197 277.24V256.668L196.867 255L196.482 253.417L195.867 251.941L195.041 250.593L194.026 249.395L192.843 248.367L191.512 247.53L190.056 246.907L188.493 246.517L186.846 246.382H141.154Z" fill="#F2F2F2" stroke="#B3B3B3" stroke-width="2.78497"/>
<path d="M160.937 307.398V275.319L160.864 274.393L160.65 273.514L160.308 272.694L159.849 271.945L159.286 271.28L158.628 270.709L157.889 270.244L157.08 269.898L156.213 269.681L155.298 269.607L150.352 269.607L149.525 269.674L148.741 269.87L148.01 270.183L147.342 270.603L146.749 271.119L146.239 271.72L145.825 272.397L145.516 273.137L145.323 273.932L145.256 274.769L145.323 275.606L145.516 276.4L145.825 277.141L146.239 277.817L146.749 278.419L147.342 278.935L148.01 279.355L148.741 279.668L149.525 279.863L150.352 279.931L155.165 279.931L155.108 279.939H172.896L172.844 279.931L177.657 279.931L178.484 279.863L179.268 279.668L179.999 279.355L180.667 278.935L181.261 278.419L181.77 277.817L182.184 277.141L182.493 276.4L182.686 275.606L182.753 274.769L182.686 273.932L182.493 273.137L182.184 272.397L181.77 271.72L181.261 271.119L180.667 270.603L179.999 270.183L179.268 269.87L178.484 269.674L177.658 269.607L172.711 269.607L171.797 269.681L170.929 269.898L170.12 270.244L169.381 270.709L168.724 271.28L168.16 271.945L167.701 272.694L167.359 273.514L167.146 274.393L167.072 275.319V307.398" stroke="#B3B3B3" stroke-width="2.22798"/>
<path d="M151.308 306.383H176.692V309.812H151.308V306.383Z" fill="#808080" stroke="#808080" stroke-width="1.67098"/>
<path d="M151.308 306.381H176.692V309.81L176.582 311.2L176.261 312.519L175.748 313.749L175.06 314.872L174.214 315.871L173.228 316.728L172.119 317.425L170.905 317.945L169.603 318.27L168.231 318.382H159.769L158.397 318.27L157.095 317.945L155.881 317.425L154.772 316.728L153.786 315.871L152.94 314.872L152.252 313.749L151.739 312.519L151.418 311.2L151.308 309.81V306.381Z" fill="#141414" stroke="#141414" stroke-width="1.67098"/>
<rect x="144" y="323.382" width="45" height="20" rx="5" fill="black"/>
<path d="M169.082 340.382V337.842H172.102C171.476 337.455 170.942 336.989 170.502 336.442C170.076 335.882 169.749 335.255 169.522 334.562C169.309 333.855 169.202 333.089 169.202 332.262C169.202 331.049 169.476 329.962 170.022 329.002C170.582 328.042 171.369 327.282 172.382 326.722C173.409 326.162 174.616 325.882 176.002 325.882C177.402 325.882 178.609 326.162 179.622 326.722C180.636 327.282 181.416 328.049 181.962 329.022C182.522 329.982 182.802 331.069 182.802 332.282C182.802 333.109 182.689 333.869 182.462 334.562C182.249 335.255 181.922 335.882 181.482 336.442C181.042 336.989 180.502 337.455 179.862 337.842H182.922V340.382H177.042V337.662C177.776 337.315 178.329 336.875 178.702 336.342C179.089 335.795 179.349 335.209 179.482 334.582C179.616 333.942 179.682 333.309 179.682 332.682C179.682 331.789 179.529 331.029 179.222 330.402C178.929 329.762 178.509 329.269 177.962 328.922C177.416 328.575 176.762 328.402 176.002 328.402C175.242 328.402 174.582 328.575 174.022 328.922C173.476 329.269 173.056 329.762 172.762 330.402C172.469 331.042 172.322 331.809 172.322 332.702C172.322 333.329 172.402 333.955 172.562 334.582C172.722 335.209 172.989 335.789 173.362 336.322C173.749 336.855 174.269 337.302 174.922 337.662V340.382H169.082Z" fill="white"/>
<path d="M152.701 340.382V328.262H152.341L150.461 332.702H147.781L150.641 326.382H155.261V340.382H152.701ZM157.424 340.382V338.702C157.424 337.729 157.584 336.922 157.904 336.282C158.224 335.629 158.684 335.095 159.284 334.682C159.897 334.255 160.644 333.909 161.524 333.642L162.864 333.222C163.357 333.062 163.771 332.869 164.104 332.642C164.437 332.402 164.691 332.115 164.864 331.782C165.051 331.449 165.144 331.069 165.144 330.642V330.562C165.144 329.895 164.917 329.369 164.464 328.982C164.011 328.582 163.391 328.382 162.604 328.382C161.831 328.382 161.204 328.595 160.724 329.022C160.257 329.435 160.024 330.035 160.024 330.822V331.182H157.464V330.862C157.464 329.849 157.691 328.989 158.144 328.282C158.597 327.575 159.211 327.035 159.984 326.662C160.771 326.289 161.644 326.102 162.604 326.102C163.564 326.102 164.431 326.289 165.204 326.662C165.977 327.022 166.584 327.535 167.024 328.202C167.477 328.855 167.704 329.629 167.704 330.522V330.722C167.704 331.615 167.517 332.375 167.144 333.002C166.784 333.615 166.291 334.122 165.664 334.522C165.037 334.909 164.324 335.229 163.524 335.482L162.244 335.882C161.671 336.055 161.224 336.249 160.904 336.462C160.584 336.662 160.357 336.889 160.224 337.142C160.104 337.382 160.044 337.675 160.044 338.022V338.102H167.584V340.382H157.424Z" fill="white"/>
<rect x="107" y="167.382" width="116" height="148" stroke="black" stroke-width="2"/>
<path d="M177.857 159.772L177.914 158.747L178.078 157.746L178.344 156.773L178.703 155.83L179.148 154.922L179.673 154.051L180.27 153.221L180.932 152.436L181.651 151.697L182.421 151.01L184.624 148.999L186.653 146.794L188.496 144.42L190.139 141.899L191.566 139.255L192.765 136.514L193.722 133.699L194.423 130.833L194.853 127.941L195 125.047L194.607 120.397L193.471 115.986L191.651 111.873L189.212 108.118L186.213 104.777L182.718 101.912L178.787 99.5812L174.482 97.843L169.866 96.7568L165 96.3816L160.134 96.7568L155.518 97.843L151.213 99.5812L147.282 101.912L143.787 104.777L140.788 108.118L138.349 111.873L136.529 115.986L135.393 120.397L135 125.047L135.147 127.941L135.577 130.833L136.278 133.699L137.235 136.514L138.434 139.255L139.861 141.899L141.504 144.42L143.347 146.794L145.376 148.999L147.579 151.01L148.349 151.697L149.068 152.436L149.73 153.221L150.327 154.051L150.852 154.922L151.297 155.83L151.656 156.773L151.922 157.746L152.086 158.747L152.143 159.772L152.238 160.959L152.514 162.086L152.955 163.136L153.546 164.095L154.273 164.948L155.121 165.68L156.074 166.275L157.118 166.719L158.237 166.996L159.417 167.092H170.583L171.763 166.996L172.882 166.719L173.926 166.275L174.879 165.68L175.727 164.948L176.454 164.095L177.045 163.136L177.486 162.086L177.762 160.959L177.857 159.772Z" fill="#F2F2F2" stroke="#B3B3B3" stroke-width="2.78497"/>
<path d="M161.897 160.808V129.181L161.816 128.164L161.58 127.2L161.202 126.3L160.696 125.479L160.073 124.748L159.347 124.122L158.531 123.612L157.637 123.232L156.679 122.995L155.669 122.913L155.178 122.913L154.247 122.988L153.364 123.207L152.541 123.557L151.79 124.027L151.121 124.604L150.548 125.277L150.081 126.033L149.733 126.862L149.516 127.75L149.441 128.686L149.516 129.623L149.733 130.511L150.081 131.34L150.548 132.096L151.121 132.769L151.79 133.346L152.541 133.816L153.364 134.166L154.247 134.385L155.178 134.46L156.05 134.46L155.992 134.468H174.011L173.958 134.46L174.831 134.46L175.761 134.385L176.644 134.166L177.467 133.816L178.219 133.346L178.887 132.769L179.461 132.096L179.927 131.34L180.275 130.511L180.493 129.623L180.568 128.686L180.493 127.75L180.275 126.862L179.927 126.033L179.461 125.277L178.887 124.604L178.219 124.027L177.467 123.557L176.644 123.207L175.762 122.988L174.831 122.913L174.34 122.913L173.329 122.995L172.371 123.232L171.477 123.612L170.661 124.122L169.936 124.748L169.313 125.479L168.807 126.3L168.429 127.2L168.193 128.164L168.111 129.181V160.808" stroke="#B3B3B3" stroke-width="2.22798"/>
<path d="M152.143 158.871H177.858V162.16L177.751 163.493L177.441 164.759L176.946 165.938L176.281 167.016L175.465 167.974L174.513 168.795L173.442 169.464L172.27 169.963L171.013 170.274L169.688 170.382H160.313L158.988 170.274L157.731 169.963L156.559 169.464L155.488 168.795L154.536 167.974L153.72 167.016L153.055 165.938L152.56 164.759L152.25 163.493L152.143 162.16V158.871Z" fill="#141414" stroke="#141414" stroke-width="1.67098"/>
<path d="M152.143 158.875H177.858V162.164H152.143V158.875Z" fill="#808080" stroke="#808080" stroke-width="1.67098"/>
<rect x="142" y="176.382" width="45" height="20" rx="5" fill="black"/>
<path d="M164.082 193.382V190.842H167.102C166.476 190.455 165.942 189.989 165.502 189.442C165.076 188.882 164.749 188.255 164.522 187.562C164.309 186.855 164.202 186.089 164.202 185.262C164.202 184.049 164.476 182.962 165.022 182.002C165.582 181.042 166.369 180.282 167.382 179.722C168.409 179.162 169.616 178.882 171.002 178.882C172.402 178.882 173.609 179.162 174.622 179.722C175.636 180.282 176.416 181.049 176.962 182.022C177.522 182.982 177.802 184.069 177.802 185.282C177.802 186.109 177.689 186.869 177.462 187.562C177.249 188.255 176.922 188.882 176.482 189.442C176.042 189.989 175.502 190.455 174.862 190.842H177.922V193.382H172.042V190.662C172.776 190.315 173.329 189.875 173.702 189.342C174.089 188.795 174.349 188.209 174.482 187.582C174.616 186.942 174.682 186.309 174.682 185.682C174.682 184.789 174.529 184.029 174.222 183.402C173.929 182.762 173.509 182.269 172.962 181.922C172.416 181.575 171.762 181.402 171.002 181.402C170.242 181.402 169.582 181.575 169.022 181.922C168.476 182.269 168.056 182.762 167.762 183.402C167.469 184.042 167.322 184.809 167.322 185.702C167.322 186.329 167.402 186.955 167.562 187.582C167.722 188.209 167.989 188.789 168.362 189.322C168.749 189.855 169.269 190.302 169.922 190.662V193.382H164.082Z" fill="white"/>
<path d="M158.043 193.382V190.542H151.163V187.582L156.003 179.382H160.603V188.262H162.923V190.542H160.603V193.382H158.043ZM153.603 188.262H158.043V181.022H157.683L153.603 187.942V188.262Z" fill="white"/>
</svg>
