<svg width="540" height="412" viewBox="0 0 540 412" fill="none" xmlns="http://www.w3.org/2000/svg">
<mask id="mask0_180_543" style="mask-type:luminance" maskUnits="userSpaceOnUse" x="0" y="54" width="540" height="300">
<path d="M0 54H540V189V354H0V190.5V54Z" fill="white"/>
</mask>
<g mask="url(#mask0_180_543)">
<path d="M0 190.5L0.00277781 191.5L540.003 190L540 189L539.997 188L-0.00277781 189.5L0 190.5ZM0 54V52H-2V54H0ZM540 54H542V52H540V54ZM540 354V356H542V354H540ZM0 354H-2V356H0V354ZM0 54V56H540V54V52H0V54ZM540 354V352H0V354V356H540V354ZM0 354H2V190.5H0H-2V354H0ZM0 190.5H2V54H0H-2V190.5H0ZM540 54H538V189H540H542V54H540ZM540 189H538V354H540H542V189H540Z" fill="black"/>
</g>
<path d="M300.641 78.9893H222.576C219.496 78.9893 217 76.3036 217 72.9906V36.9986C217 33.6856 219.496 30.9999 222.576 30.9999H300.641C303.721 30.9999 306.217 33.6856 306.217 36.9986V72.9906C306.217 76.3036 303.721 78.9893 300.641 78.9893Z" fill="#CE6809"/>
<path d="M217 78.2388H275.549V31.7491H217V78.2388Z" fill="#333333"/>
<path d="M275.549 48.9951H306.218V36.9978H275.549V48.9951Z" fill="#E77A16"/>
<path d="M217 49.7412H275.549V37.7439H217V49.7412Z" fill="#4C4C4C"/>
<path d="M314.212 67.1123H308.636C307.096 67.1123 305.848 65.7695 305.848 64.113V46.117C305.848 44.4605 307.096 43.1176 308.636 43.1176H314.212C315.752 43.1176 317 44.4605 317 46.117V64.113C317 65.7695 315.752 67.1123 314.212 67.1123Z" fill="#333333"/>
<path d="M312.818 51.8115H307.242C306.472 51.8115 305.848 51.1401 305.848 50.3119V47.3125C305.848 46.4843 306.472 45.8129 307.242 45.8129H312.818C313.588 45.8129 314.212 46.4843 314.212 47.3125V50.3119C314.212 51.1401 313.588 51.8115 312.818 51.8115Z" fill="#4C4C4C"/>
<path d="M300.641 79H222.576C219.496 79 217 76.3143 217 73.0013V37.0093C217 33.6964 219.496 31.0107 222.576 31.0107H300.641C303.721 31.0107 306.217 33.6964 306.217 37.0093V73.0013C306.217 76.3143 303.721 79 300.641 79Z" stroke="#333333" stroke-width="2.78497"/>
<path d="M332.111 56.207L331.926 15.8669L200.928 16.4698L201.114 56.8099" stroke="black" stroke-width="2"/>
<rect x="247" y="3" width="40" height="20" rx="5" fill="black"/>
<path d="M254.275 20V7.88H253.915L252.035 12.32H249.355L252.215 6H256.835V20H254.275ZM264.398 20.28C263.332 20.28 262.405 20.08 261.618 19.68C260.832 19.28 260.225 18.7267 259.798 18.02C259.372 17.3133 259.158 16.5 259.158 15.58V10.8C259.158 9.66667 259.385 8.72667 259.838 7.98C260.305 7.22 260.938 6.65333 261.738 6.28C262.552 5.90667 263.478 5.72 264.518 5.72C265.558 5.72 266.458 5.89333 267.218 6.24C267.992 6.58667 268.585 7.08667 268.998 7.74C269.425 8.39333 269.638 9.17333 269.638 10.08H267.038C267.038 9.52 266.845 9.03333 266.458 8.62C266.072 8.20667 265.425 8 264.518 8C263.625 8 262.932 8.23333 262.438 8.7C261.958 9.16667 261.718 9.81333 261.718 10.64V12.08H262.078C262.305 11.8133 262.652 11.56 263.118 11.32C263.585 11.08 264.265 10.96 265.158 10.96C265.972 10.96 266.718 11.1333 267.398 11.48C268.092 11.8267 268.652 12.3333 269.078 13C269.505 13.6533 269.718 14.4467 269.718 15.38V15.62C269.718 16.54 269.498 17.3533 269.058 18.06C268.618 18.7533 267.998 19.3 267.198 19.7C266.398 20.0867 265.465 20.28 264.398 20.28ZM264.438 18C265.278 18 265.938 17.78 266.418 17.34C266.912 16.9 267.158 16.3133 267.158 15.58V15.42C267.158 14.9267 267.045 14.5 266.818 14.14C266.605 13.78 266.292 13.5 265.878 13.3C265.478 13.1 264.998 13 264.438 13C263.892 13 263.412 13.1 262.998 13.3C262.585 13.5 262.265 13.78 262.038 14.14C261.825 14.5 261.718 14.9267 261.718 15.42V15.58C261.718 16.3133 261.958 16.9 262.438 17.34C262.932 17.78 263.598 18 264.438 18ZM274.441 20L270.881 6H273.601L276.561 18.3H276.841L279.801 6H282.521L278.961 20H274.441Z" fill="white"/>
<path d="M211.154 289L209.507 289.134L207.944 289.524L206.488 290.148L205.157 290.984L203.974 292.013L202.959 293.211L202.133 294.559L201.518 296.035L201.133 297.617L201 299.286V319.858L201.135 322.242L201.53 324.546L202.169 326.755L203.039 328.853L204.123 330.825L205.408 332.657L206.878 334.333L208.517 335.838L210.312 337.157L212.248 338.274L213.629 339.03L214.971 339.885L216.251 340.837L217.441 341.882L218.517 343.018L219.455 344.241L220.228 345.549L220.811 346.937L221.179 348.402L221.308 349.942L221.406 351.18L221.692 352.354L222.149 353.449L222.761 354.449L223.514 355.338L224.392 356.101L225.379 356.722L226.46 357.185L227.619 357.474L228.841 357.574H239.159L240.381 357.474L241.54 357.185L242.621 356.722L243.608 356.101L244.486 355.338L245.239 354.449L245.851 353.449L246.308 352.354L246.594 351.18L246.692 349.942L246.821 348.402L247.189 346.937L247.772 345.549L248.545 344.241L249.483 343.018L250.559 341.882L251.749 340.837L253.029 339.885L254.371 339.03L255.752 338.274L257.688 337.157L259.483 335.838L261.122 334.333L262.592 332.657L263.877 330.825L264.961 328.853L265.831 326.755L266.47 324.546L266.865 322.242L267 319.858V299.286L266.867 297.617L266.482 296.035L265.867 294.559L265.041 293.211L264.026 292.013L262.843 290.984L261.512 290.148L260.056 289.524L258.493 289.134L256.846 289H211.154Z" fill="#F2F2F2" stroke="#B3B3B3" stroke-width="2.78497"/>
<path d="M230.937 350.016V317.937L230.864 317.01L230.65 316.131L230.308 315.312L229.849 314.563L229.286 313.897L228.628 313.326L227.889 312.862L227.08 312.515L226.213 312.299L225.298 312.224L220.352 312.224L219.525 312.292L218.741 312.488L218.01 312.801L217.342 313.221L216.749 313.736L216.239 314.338L215.825 315.014L215.516 315.755L215.323 316.549L215.256 317.387L215.323 318.224L215.516 319.018L215.825 319.759L216.239 320.435L216.749 321.037L217.342 321.553L218.01 321.972L218.741 322.285L219.525 322.481L220.352 322.549L225.165 322.549L225.108 322.557H242.896L242.844 322.549L247.657 322.549L248.484 322.481L249.268 322.285L249.999 321.972L250.667 321.553L251.261 321.037L251.77 320.435L252.184 319.759L252.493 319.018L252.686 318.224L252.753 317.387L252.686 316.549L252.493 315.755L252.184 315.014L251.77 314.338L251.261 313.736L250.667 313.221L249.999 312.801L249.268 312.488L248.484 312.292L247.658 312.224L242.711 312.224L241.797 312.299L240.929 312.515L240.12 312.862L239.381 313.326L238.724 313.897L238.16 314.563L237.701 315.312L237.359 316.131L237.146 317.01L237.072 317.937V350.016" stroke="#B3B3B3" stroke-width="2.22798"/>
<path d="M221.308 349.001H246.692V352.43H221.308V349.001Z" fill="#808080" stroke="#808080" stroke-width="1.67098"/>
<path d="M221.308 349H246.692V352.428L246.581 353.819L246.261 355.138L245.748 356.367L245.06 357.491L244.214 358.489L243.228 359.346L242.119 360.043L240.905 360.563L239.603 360.888L238.231 361H229.769L228.397 360.888L227.095 360.563L225.881 360.043L224.772 359.346L223.786 358.489L222.94 357.491L222.252 356.367L221.739 355.138L221.418 353.819L221.308 352.428V349Z" fill="#141414" stroke="#141414" stroke-width="1.67098"/>
<path d="M206 353V375.018H262.25V353" stroke="black" stroke-width="2"/>
<rect x="213" y="365.734" width="43.027" height="20" rx="5" fill="black"/>
<path d="M231.399 378.134V377.654C231.399 376.974 231.532 376.414 231.799 375.974C232.079 375.534 232.525 375.168 233.139 374.874L233.479 374.714C234.079 374.434 234.539 374.134 234.859 373.814C235.179 373.494 235.339 373.068 235.339 372.534C235.339 372.148 235.239 371.821 235.039 371.554C234.852 371.274 234.585 371.061 234.239 370.914C233.892 370.768 233.485 370.694 233.019 370.694C232.539 370.694 232.105 370.774 231.719 370.934C231.345 371.094 231.045 371.334 230.819 371.654C230.605 371.974 230.499 372.374 230.499 372.854V373.294H227.899V372.894C227.899 371.974 228.125 371.181 228.579 370.514C229.032 369.848 229.645 369.341 230.419 368.994C231.192 368.634 232.059 368.454 233.019 368.454C233.965 368.454 234.805 368.628 235.539 368.974C236.285 369.321 236.872 369.801 237.299 370.414C237.725 371.028 237.939 371.734 237.939 372.534C237.939 373.334 237.792 373.994 237.499 374.514C237.205 375.021 236.832 375.434 236.379 375.754C235.939 376.061 235.485 376.328 235.019 376.554L234.679 376.714C234.439 376.821 234.272 376.954 234.179 377.114C234.085 377.261 234.039 377.481 234.039 377.774V378.134H231.399ZM232.799 383.014C232.265 383.014 231.812 382.841 231.439 382.494C231.079 382.134 230.899 381.674 230.899 381.114C230.899 380.554 231.079 380.101 231.439 379.754C231.812 379.394 232.265 379.214 232.799 379.214C233.345 379.214 233.799 379.394 234.159 379.754C234.519 380.101 234.699 380.554 234.699 381.114C234.699 381.674 234.519 382.134 234.159 382.494C233.799 382.841 233.345 383.014 232.799 383.014Z" fill="white"/>
<path d="M427.217 189.266V211.284H483.467V189.266" stroke="black" stroke-width="2"/>
<rect x="434.217" y="202" width="43.027" height="20" rx="5" fill="black"/>
<path d="M448.031 219.28C446.978 219.28 446.045 219.094 445.231 218.72C444.418 218.347 443.778 217.814 443.311 217.12C442.858 216.414 442.631 215.58 442.631 214.62V214.26H445.191V214.54C445.191 215.287 445.451 215.887 445.971 216.34C446.491 216.78 447.178 217 448.031 217C448.898 217 449.565 216.794 450.031 216.38C450.511 215.967 450.751 215.447 450.751 214.82V214.62C450.751 214.194 450.645 213.847 450.431 213.58C450.218 213.314 449.931 213.12 449.571 213C449.211 212.867 448.805 212.8 448.351 212.8H445.551V210L450.071 207.6V207.28H442.991V205H452.911V208.4L448.691 210.64V210.96H449.431C450.058 210.96 450.665 211.087 451.251 211.34C451.851 211.594 452.345 211.987 452.731 212.52C453.118 213.04 453.311 213.72 453.311 214.56V214.8C453.311 215.707 453.091 216.5 452.651 217.18C452.211 217.847 451.591 218.367 450.791 218.74C450.005 219.1 449.085 219.28 448.031 219.28ZM458.039 219L454.479 205H457.199L460.159 217.3H460.439L463.399 205H466.119L462.559 219H458.039Z" fill="white"/>
<path d="M466.857 183.39L466.914 182.365L467.078 181.364L467.344 180.391L467.703 179.448L468.148 178.54L468.673 177.67L469.27 176.84L469.932 176.054L470.651 175.316L471.421 174.628L473.624 172.617L475.653 170.413L477.496 168.038L479.139 165.517L480.566 162.874L481.765 160.132L482.722 157.317L483.423 154.451L483.853 151.559L484 148.665L483.607 144.015L482.471 139.605L480.651 135.492L478.212 131.736L475.213 128.396L471.718 125.53L467.787 123.199L463.482 121.461L458.866 120.375L454 120L449.134 120.375L444.518 121.461L440.213 123.199L436.282 125.53L432.787 128.396L429.788 131.736L427.349 135.492L425.529 139.605L424.393 144.015L424 148.665L424.147 151.559L424.577 154.451L425.278 157.317L426.235 160.132L427.434 162.874L428.861 165.517L430.504 168.038L432.347 170.413L434.376 172.617L436.579 174.628L437.349 175.316L438.068 176.054L438.73 176.84L439.327 177.67L439.852 178.54L440.297 179.448L440.656 180.391L440.922 181.364L441.086 182.365L441.143 183.39L441.238 184.577L441.514 185.704L441.955 186.754L442.546 187.713L443.273 188.566L444.121 189.298L445.074 189.893L446.118 190.337L447.237 190.615L448.417 190.71H459.583L460.763 190.615L461.882 190.337L462.926 189.893L463.879 189.298L464.727 188.566L465.454 187.713L466.045 186.754L466.486 185.704L466.762 184.577L466.857 183.39Z" fill="#F2F2F2" stroke="#B3B3B3" stroke-width="2.78497"/>
<path d="M450.897 184.426V152.799L450.816 151.782L450.58 150.818L450.202 149.918L449.696 149.097L449.073 148.367L448.347 147.74L447.531 147.23L446.637 146.85L445.679 146.613L444.669 146.531L444.178 146.531L443.247 146.606L442.364 146.825L441.541 147.175L440.79 147.645L440.121 148.222L439.548 148.895L439.081 149.651L438.733 150.48L438.516 151.368L438.441 152.305L438.516 153.241L438.733 154.13L439.081 154.958L439.548 155.715L440.121 156.387L440.79 156.964L441.541 157.434L442.364 157.784L443.247 158.003L444.178 158.078L445.05 158.078L444.992 158.087H463.011L462.958 158.078L463.831 158.078L464.761 158.003L465.644 157.784L466.467 157.434L467.219 156.964L467.887 156.387L468.461 155.715L468.927 154.958L469.275 154.13L469.493 153.241L469.568 152.305L469.493 151.368L469.275 150.48L468.927 149.651L468.461 148.895L467.887 148.222L467.219 147.645L466.467 147.175L465.644 146.825L464.762 146.606L463.831 146.531L463.34 146.531L462.329 146.613L461.371 146.85L460.477 147.23L459.661 147.74L458.936 148.367L458.313 149.097L457.807 149.918L457.429 150.818L457.193 151.782L457.111 152.799V184.426" stroke="#B3B3B3" stroke-width="2.22798"/>
<path d="M441.143 182.489H466.858V185.778L466.751 187.112L466.441 188.377L465.946 189.556L465.281 190.634L464.465 191.592L463.513 192.414L462.442 193.082L461.27 193.581L460.013 193.892L458.688 194H449.313L447.988 193.892L446.731 193.581L445.559 193.082L444.488 192.414L443.536 191.592L442.72 190.634L442.055 189.556L441.56 188.377L441.25 187.112L441.143 185.778V182.489Z" fill="#141414" stroke="#141414" stroke-width="1.67098"/>
<path d="M441.143 182.493H466.858V185.782H441.143V182.493Z" fill="#808080" stroke="#808080" stroke-width="1.67098"/>
<path d="M246.662 148.099L245.98 148.992L245.365 149.915L244.819 150.866L244.343 151.84L243.937 152.835L243.602 153.849L243.34 154.879L243.152 155.923L243.038 156.976L243 158.038L243.118 159.914L243.463 161.733L244.023 163.485L244.787 165.16L245.743 166.748L246.878 168.238L248.181 169.621L249.639 170.887L251.241 172.025L252.974 173.025L254.179 173.69L255.341 174.421L256.44 175.217L257.456 176.074L258.369 176.992L259.161 177.966L259.811 178.996L260.3 180.078L260.607 181.211L260.714 182.392L260.817 183.467L261.116 184.488L261.595 185.439L262.236 186.307L263.024 187.08L263.943 187.742L264.976 188.282L266.108 188.684L267.321 188.935L268.6 189.021H279.4L280.679 188.935L281.892 188.684L283.024 188.282L284.057 187.742L284.976 187.08L285.764 186.307L286.405 185.439L286.884 184.488L287.182 183.467L287.286 182.392L287.393 181.211L287.7 180.078L288.189 178.996L288.839 177.966L289.631 176.992L290.544 176.074L291.56 175.217L292.659 174.421L293.821 173.69L295.026 173.025L296.759 172.025L298.361 170.887L299.819 169.621L301.122 168.238L302.257 166.748L303.213 165.16L303.977 163.485L304.537 161.733L304.882 159.914L305 158.038L304.962 156.976L304.848 155.923L304.66 154.879L304.398 153.849L304.063 152.835L303.657 151.84L303.181 150.866L302.635 149.916L302.02 148.992L301.338 148.099L278.384 119.942L277.682 119.243L276.864 118.699L275.958 118.31L274.994 118.077L274 118L273.006 118.077L272.042 118.31L271.136 118.699L270.318 119.243L269.616 119.942L246.662 148.099Z" fill="#F2F2F2" stroke="#B3B3B3" stroke-width="2.79134"/>
<path d="M270.794 183.329V152.934L270.732 152.298L270.556 151.694L270.273 151.132L269.893 150.618L269.427 150.161L268.884 149.769L268.273 149.45L267.603 149.213L266.885 149.064L266.129 149.013L265.372 149.064L264.655 149.213L263.985 149.451L263.374 149.769L262.831 150.161L262.365 150.618L261.985 151.132L261.703 151.695L261.526 152.298L261.465 152.934V156.707L261.554 157.638L261.813 158.521L262.227 159.345L262.783 160.098L263.465 160.767L264.261 161.34L265.156 161.807L266.136 162.155L267.187 162.373L268.295 162.448L267.8 162.456H280.2L279.714 162.448L280.822 162.373L281.873 162.155L282.853 161.807L283.747 161.34L284.543 160.767L285.226 160.098L285.781 159.345L286.195 158.521L286.454 157.638L286.544 156.707V152.934L286.483 152.298L286.306 151.695L286.023 151.132L285.644 150.618L285.178 150.161L284.634 149.769L284.023 149.451L283.354 149.213L282.636 149.064L281.88 149.013L281.123 149.064L280.405 149.213L279.736 149.45L279.125 149.769L278.581 150.161L278.115 150.618L277.736 151.132L277.453 151.694L277.276 152.298L277.215 152.934V183.329" stroke="#B3B3B3" stroke-width="2.23307"/>
<path d="M260.715 181.576H287.286V184.554L287.17 185.762L286.834 186.908L286.297 187.976L285.577 188.952L284.692 189.819L283.66 190.563L282.499 191.169L281.228 191.62L279.866 191.903L278.429 192H269.572L268.135 191.903L266.772 191.62L265.501 191.169L264.341 190.563L263.309 189.819L262.424 188.952L261.703 187.976L261.166 186.908L260.831 185.762L260.715 184.554V181.576Z" fill="#141414" stroke="#141414" stroke-width="1.67481"/>
<path d="M260.715 181.576H287.286V184.554H260.715V181.576Z" fill="#808080" stroke="#808080" stroke-width="1.67481"/>
<path d="M267.653 132.989C274.226 132.989 279.554 137.468 279.554 142.994C279.554 148.52 274.226 152.999 267.653 152.999C261.079 152.999 255.751 148.52 255.751 142.994C255.751 137.468 261.079 132.989 267.653 132.989Z" fill="white" fill-opacity="0.3"/>
<path d="M246 189V211.018H302.25V189" stroke="black" stroke-width="2"/>
<rect x="253" y="201.734" width="43.027" height="20" rx="5" fill="black"/>
<path d="M267.861 218.734V215.894H260.981V212.934L265.821 204.734H270.421V213.614H272.741V215.894H270.421V218.734H267.861ZM263.421 213.614H267.861V206.374H267.501L263.421 213.294V213.614ZM277.096 218.734L273.536 204.734H276.256L279.216 217.034H279.496L282.456 204.734H285.176L281.616 218.734H277.096Z" fill="white"/>
<path d="M90.8572 184.39L90.9136 183.365L91.0782 182.364L91.3436 181.391L91.7028 180.448L92.1484 179.54L92.6733 178.67L93.2702 177.84L93.932 177.054L94.6514 176.316L95.4211 175.628L97.6238 173.617L99.6535 171.413L101.496 169.038L103.139 166.517L104.566 163.874L105.765 161.132L106.722 158.317L107.423 155.451L107.853 152.559L108 149.665L107.607 145.015L106.471 140.605L104.651 136.492L102.212 132.736L99.2132 129.396L95.7176 126.53L91.7867 124.199L87.4823 122.461L82.8662 121.375L78 121L73.1338 121.375L68.5177 122.461L64.2133 124.199L60.2824 126.53L56.7868 129.396L53.7883 132.736L51.3485 136.492L49.5294 140.605L48.3927 145.015L48 149.665L48.1466 152.559L48.5772 155.451L49.2778 158.317L50.2347 161.132L51.4338 163.874L52.8614 166.517L54.5036 169.038L56.3465 171.413L58.3762 173.617L60.5789 175.628L61.3486 176.316L62.068 177.054L62.7298 177.84L63.3267 178.67L63.8516 179.54L64.2972 180.448L64.6564 181.391L64.9218 182.364L65.0864 183.365L65.1429 184.39L65.2381 185.577L65.5137 186.704L65.9548 187.754L66.5463 188.713L67.2733 189.566L68.1209 190.298L69.074 190.893L70.1176 191.337L71.2369 191.615L72.4167 191.71H83.5833L84.7632 191.615L85.8824 191.337L86.926 190.893L87.8791 190.298L88.7267 189.566L89.4537 188.713L90.0453 187.754L90.4863 186.704L90.7619 185.577L90.8572 184.39Z" fill="#F2F2F2" stroke="#B3B3B3" stroke-width="2.78497"/>
<path d="M74.8972 185.426V153.799L74.8157 152.782L74.5797 151.818L74.202 150.918L73.6955 150.097L73.073 149.367L72.3472 148.74L71.5311 148.23L70.6375 147.85L69.6791 147.613L68.6688 147.531L68.1776 147.531L67.247 147.606L66.3643 147.825L65.5412 148.175L64.7896 148.645L64.1211 149.222L63.5477 149.895L63.0812 150.651L62.7334 151.48L62.516 152.368L62.4409 153.305L62.516 154.241L62.7334 155.13L63.0812 155.958L63.5478 156.715L64.1212 157.387L64.7896 157.964L65.5413 158.434L66.3644 158.784L67.2472 159.003L68.1777 159.078L69.0503 159.078L68.9917 159.087H87.0111L86.9583 159.078L87.8308 159.078L88.7614 159.003L89.6441 158.784L90.4672 158.434L91.2189 157.964L91.8874 157.387L92.4608 156.715L92.9273 155.958L93.2752 155.13L93.4926 154.241L93.5676 153.305L93.4926 152.368L93.2752 151.48L92.9273 150.651L92.4608 149.895L91.8874 149.222L91.219 148.645L90.4673 148.175L89.6442 147.825L88.7615 147.606L87.831 147.531L87.3398 147.531L86.3295 147.613L85.3711 147.85L84.4774 148.23L83.6613 148.74L82.9356 149.367L82.3131 150.097L81.8065 150.918L81.4289 151.818L81.1928 152.782L81.1113 153.799V185.426" stroke="#B3B3B3" stroke-width="2.22798"/>
<path d="M65.1433 183.489H90.8576V186.778L90.7507 188.112L90.4411 189.377L89.9457 190.556L89.2813 191.634L88.4648 192.592L87.5128 193.414L86.4424 194.082L85.2702 194.581L84.0131 194.892L82.688 195H73.313L71.9878 194.892L70.7307 194.581L69.5585 194.082L68.4881 193.414L67.5361 192.592L66.7196 191.634L66.0552 190.556L65.5598 189.377L65.2502 188.112L65.1433 186.778V183.489Z" fill="#141414" stroke="#141414" stroke-width="1.67098"/>
<path d="M65.1433 183.493H90.8576V186.782H65.1433V183.493Z" fill="#808080" stroke="#808080" stroke-width="1.67098"/>
<path d="M51.2168 190.266V212.284H107.467V190.266" stroke="black" stroke-width="2"/>
<rect x="57.2168" y="203" width="43.027" height="20" rx="5" fill="black"/>
<path d="M71.0391 220.28C69.9724 220.28 69.0257 220.12 68.1991 219.8C67.3857 219.48 66.7457 219.02 66.2791 218.42C65.8257 217.807 65.5991 217.087 65.5991 216.26V216.02C65.5991 215.38 65.7124 214.853 65.9391 214.44C66.1657 214.013 66.4457 213.68 66.7791 213.44C67.1257 213.2 67.4524 213.033 67.7591 212.94V212.58C67.4524 212.473 67.1457 212.3 66.8391 212.06C66.5324 211.82 66.2791 211.5 66.0791 211.1C65.8924 210.7 65.7991 210.22 65.7991 209.66V209.42C65.7991 208.687 66.0124 208.047 66.4391 207.5C66.8791 206.94 67.4924 206.507 68.2791 206.2C69.0657 205.88 69.9857 205.72 71.0391 205.72C72.0924 205.72 73.0124 205.88 73.7991 206.2C74.5857 206.507 75.1924 206.94 75.6191 207.5C76.0591 208.047 76.2791 208.687 76.2791 209.42V209.66C76.2791 210.22 76.1791 210.7 75.9791 211.1C75.7924 211.5 75.5457 211.82 75.2391 212.06C74.9457 212.3 74.6391 212.473 74.3191 212.58V212.94C74.6391 213.033 74.9657 213.2 75.2991 213.44C75.6324 213.68 75.9124 214.013 76.1391 214.44C76.3657 214.853 76.4791 215.38 76.4791 216.02V216.26C76.4791 217.087 76.2457 217.807 75.7791 218.42C75.3257 219.02 74.6857 219.48 73.8591 219.8C73.0457 220.12 72.1057 220.28 71.0391 220.28ZM71.0391 218C71.9591 218 72.6657 217.827 73.1591 217.48C73.6657 217.12 73.9191 216.647 73.9191 216.06V215.9C73.9191 215.313 73.6724 214.847 73.1791 214.5C72.6991 214.14 71.9857 213.96 71.0391 213.96C70.1057 213.96 69.3924 214.14 68.8991 214.5C68.4057 214.847 68.1591 215.313 68.1591 215.9V216.06C68.1591 216.647 68.4057 217.12 68.8991 217.48C69.4057 217.827 70.1191 218 71.0391 218ZM71.0391 211.68C71.8924 211.68 72.5524 211.527 73.0191 211.22C73.4857 210.913 73.7191 210.48 73.7191 209.92V209.76C73.7191 209.2 73.4791 208.767 72.9991 208.46C72.5191 208.153 71.8657 208 71.0391 208C70.2124 208 69.5591 208.153 69.0791 208.46C68.5991 208.767 68.3591 209.2 68.3591 209.76V209.92C68.3591 210.48 68.5924 210.913 69.0591 211.22C69.5257 211.527 70.1857 211.68 71.0391 211.68ZM80.9513 220L77.3913 206H80.1113L83.0713 218.3H83.3513L86.3113 206H89.0313L85.4713 220H80.9513Z" fill="white"/>
</svg>
