<svg width="560" height="369" viewBox="0 0 560 369" fill="none" xmlns="http://www.w3.org/2000/svg">
<mask id="mask0_213_59" style="mask-type:luminance" maskUnits="userSpaceOnUse" x="19" y="34" width="540" height="300">
<path d="M19 34H559V169V334H19V170.5V34Z" fill="white"/>
</mask>
<g mask="url(#mask0_213_59)">
<path d="M19 170.5L19.0028 171.5L559.003 170L559 169L558.997 168L18.9972 169.5L19 170.5ZM19 34V32H17V34H19ZM559 34H561V32H559V34ZM559 334V336H561V334H559ZM19 334H17V336H19V334ZM19 34V36H559V34V32H19V34ZM559 334V332H19V334V336H559V334ZM19 334H21V170.5H19H17V334H19ZM19 170.5H21V34H19H17V170.5H19ZM559 34H557V169H559H561V34H559ZM559 169H557V334H559H561V169H559Z" fill="black"/>
</g>
<path d="M319.641 58.9893H241.576C238.496 58.9893 236 56.3036 236 52.9906V16.9986C236 13.6856 238.496 10.9999 241.576 10.9999H319.641C322.721 10.9999 325.217 13.6856 325.217 16.9986V52.9906C325.217 56.3036 322.721 58.9893 319.641 58.9893Z" fill="#CE6809"/>
<path d="M236 58.2385H294.549V11.7488H236V58.2385Z" fill="#333333"/>
<path d="M294.549 28.9951H325.217V16.9978H294.549V28.9951Z" fill="#E77A16"/>
<path d="M236 29.741H294.549V17.7436H236V29.741Z" fill="#4C4C4C"/>
<path d="M333.212 47.1123H327.636C326.096 47.1123 324.848 45.7695 324.848 44.113V26.117C324.848 24.4605 326.096 23.1176 327.636 23.1176H333.212C334.752 23.1176 336 24.4605 336 26.117V44.113C336 45.7695 334.752 47.1123 333.212 47.1123Z" fill="#333333"/>
<path d="M331.818 31.8118H326.242C325.472 31.8118 324.848 31.1403 324.848 30.3121V27.3128C324.848 26.4845 325.472 25.8131 326.242 25.8131H331.818C332.588 25.8131 333.212 26.4845 333.212 27.3128V30.3121C333.212 31.1403 332.588 31.8118 331.818 31.8118Z" fill="#4C4C4C"/>
<path d="M319.641 59H241.576C238.496 59 236 56.3143 236 53.0013V17.0093C236 13.6964 238.496 11.0107 241.576 11.0107H319.641C322.721 11.0107 325.217 13.6964 325.217 17.0093V53.0013C325.217 56.3143 322.721 59 319.641 59Z" stroke="#333333" stroke-width="2.78497"/>
<circle cx="501" cy="331" r="21" fill="#463B3B"/>
<path d="M489.363 338V325.88H489.003L487.123 330.32H484.443L487.303 324H491.923V338H489.363ZM494.086 338V336.32C494.086 335.347 494.246 334.54 494.566 333.9C494.886 333.247 495.346 332.713 495.946 332.3C496.559 331.873 497.306 331.527 498.186 331.26L499.526 330.84C500.019 330.68 500.433 330.487 500.766 330.26C501.099 330.02 501.353 329.733 501.526 329.4C501.713 329.067 501.806 328.687 501.806 328.26V328.18C501.806 327.513 501.579 326.987 501.126 326.6C500.673 326.2 500.053 326 499.266 326C498.493 326 497.866 326.213 497.386 326.64C496.919 327.053 496.686 327.653 496.686 328.44V328.8H494.126V328.48C494.126 327.467 494.353 326.607 494.806 325.9C495.259 325.193 495.873 324.653 496.646 324.28C497.433 323.907 498.306 323.72 499.266 323.72C500.226 323.72 501.093 323.907 501.866 324.28C502.639 324.64 503.246 325.153 503.686 325.82C504.139 326.473 504.366 327.247 504.366 328.14V328.34C504.366 329.233 504.179 329.993 503.806 330.62C503.446 331.233 502.953 331.74 502.326 332.14C501.699 332.527 500.986 332.847 500.186 333.1L498.906 333.5C498.333 333.673 497.886 333.867 497.566 334.08C497.246 334.28 497.019 334.507 496.886 334.76C496.766 335 496.706 335.293 496.706 335.64V335.72H504.246V338H494.086ZM505.481 338L509.161 324H513.761L517.441 338H514.721L513.961 334.92H508.961L508.201 338H505.481ZM509.581 332.48H513.341L511.641 325.66H511.281L509.581 332.48Z" fill="white"/>
<rect x="57" y="300" width="58" height="58" rx="9" fill="#F7F7F7" stroke="#E5E5E5" stroke-width="2"/>
<circle cx="87" cy="330.164" r="15.625" fill="black"/>
<path d="M85.0863 333.913V333.433C85.0863 332.753 85.2196 332.193 85.4863 331.753C85.7663 331.313 86.2129 330.946 86.8263 330.653L87.1663 330.493C87.7663 330.213 88.2263 329.913 88.5463 329.593C88.8663 329.273 89.0263 328.846 89.0263 328.313C89.0263 327.926 88.9263 327.599 88.7263 327.333C88.5396 327.053 88.2729 326.839 87.9263 326.693C87.5796 326.546 87.1729 326.473 86.7063 326.473C86.2263 326.473 85.7929 326.553 85.4063 326.713C85.0329 326.873 84.7329 327.113 84.5063 327.433C84.2929 327.753 84.1863 328.153 84.1863 328.633V329.073H81.5863V328.673C81.5863 327.753 81.8129 326.959 82.2663 326.293C82.7196 325.626 83.3329 325.119 84.1063 324.773C84.8796 324.413 85.7463 324.233 86.7063 324.233C87.6529 324.233 88.4929 324.406 89.2263 324.753C89.9729 325.099 90.5596 325.579 90.9863 326.193C91.4129 326.806 91.6263 327.513 91.6263 328.313C91.6263 329.113 91.4796 329.773 91.1862 330.293C90.8929 330.799 90.5196 331.213 90.0663 331.533C89.6263 331.839 89.1729 332.106 88.7063 332.333L88.3663 332.493C88.1263 332.599 87.9596 332.733 87.8663 332.893C87.7729 333.039 87.7263 333.259 87.7263 333.553V333.913H85.0863ZM86.4863 338.793C85.9529 338.793 85.4996 338.619 85.1263 338.273C84.7663 337.913 84.5863 337.453 84.5863 336.893C84.5863 336.333 84.7663 335.879 85.1263 335.533C85.4996 335.173 85.9529 334.993 86.4863 334.993C87.0329 334.993 87.4863 335.173 87.8463 335.533C88.2063 335.879 88.3863 336.333 88.3863 336.893C88.3863 337.453 88.2063 337.913 87.8463 338.273C87.4863 338.619 87.0329 338.793 86.4863 338.793Z" fill="white"/>
<circle cx="83" cy="168" r="21" fill="#463B3B"/>
<path d="M71.3631 175V162.88H71.0031L69.1231 167.32H66.4431L69.3031 161H73.9231V175H71.3631ZM76.0861 175V173.32C76.0861 172.347 76.2461 171.54 76.5661 170.9C76.8861 170.247 77.3461 169.713 77.9461 169.3C78.5594 168.873 79.3061 168.527 80.1861 168.26L81.5261 167.84C82.0194 167.68 82.4328 167.487 82.7661 167.26C83.0994 167.02 83.3528 166.733 83.5261 166.4C83.7128 166.067 83.8061 165.687 83.8061 165.26V165.18C83.8061 164.513 83.5794 163.987 83.1261 163.6C82.6728 163.2 82.0528 163 81.2661 163C80.4928 163 79.8661 163.213 79.3861 163.64C78.9194 164.053 78.6861 164.653 78.6861 165.44V165.8H76.1261V165.48C76.1261 164.467 76.3528 163.607 76.8061 162.9C77.2594 162.193 77.8728 161.653 78.6461 161.28C79.4328 160.907 80.3061 160.72 81.2661 160.72C82.2261 160.72 83.0928 160.907 83.8661 161.28C84.6394 161.64 85.2461 162.153 85.6861 162.82C86.1394 163.473 86.3661 164.247 86.3661 165.14V165.34C86.3661 166.233 86.1794 166.993 85.8061 167.62C85.4461 168.233 84.9528 168.74 84.3261 169.14C83.6994 169.527 82.9861 169.847 82.1861 170.1L80.9061 170.5C80.3328 170.673 79.8861 170.867 79.5661 171.08C79.2461 171.28 79.0194 171.507 78.8861 171.76C78.7661 172 78.7061 172.293 78.7061 172.64V172.72H86.2461V175H76.0861ZM87.4811 175L91.1611 161H95.7611L99.4411 175H96.7211L95.9611 171.92H90.9611L90.2011 175H87.4811ZM91.5811 169.48H95.3411L93.6411 162.66H93.2811L91.5811 169.48Z" fill="white"/>
<circle cx="21" cy="76" r="21" fill="#463B3B"/>
<path d="M3.8732 83V81.32C3.8732 80.3467 4.0332 79.54 4.3532 78.9C4.6732 78.2467 5.1332 77.7133 5.7332 77.3C6.34654 76.8733 7.0932 76.5267 7.9732 76.26L9.3132 75.84C9.80654 75.68 10.2199 75.4867 10.5532 75.26C10.8865 75.02 11.1399 74.7333 11.3132 74.4C11.4999 74.0667 11.5932 73.6867 11.5932 73.26V73.18C11.5932 72.5133 11.3665 71.9867 10.9132 71.6C10.4599 71.2 9.83987 71 9.0532 71C8.27987 71 7.6532 71.2133 7.1732 71.64C6.70654 72.0533 6.4732 72.6533 6.4732 73.44V73.8H3.9132V73.48C3.9132 72.4667 4.13987 71.6067 4.5932 70.9C5.04654 70.1933 5.65987 69.6533 6.4332 69.28C7.21987 68.9067 8.0932 68.72 9.0532 68.72C10.0132 68.72 10.8799 68.9067 11.6532 69.28C12.4265 69.64 13.0332 70.1533 13.4732 70.82C13.9265 71.4733 14.1532 72.2467 14.1532 73.14V73.34C14.1532 74.2333 13.9665 74.9933 13.5932 75.62C13.2332 76.2333 12.7399 76.74 12.1132 77.14C11.4865 77.5267 10.7732 77.8467 9.9732 78.1L8.6932 78.5C8.11987 78.6733 7.6732 78.8667 7.3532 79.08C7.0332 79.28 6.80654 79.5067 6.6732 79.76C6.5532 80 6.4932 80.2933 6.4932 80.64V80.72H14.0332V83H3.8732ZM21.9762 83V80.16H15.0962V77.2L19.9362 69H24.5362V77.88H26.8562V80.16H24.5362V83H21.9762ZM17.5362 77.88H21.9762V70.64H21.6162L17.5362 77.56V77.88ZM27.651 83L31.331 69H35.931L39.611 83H36.891L36.131 79.92H31.131L30.371 83H27.651ZM31.751 77.48H35.511L33.811 70.66H33.451L31.751 77.48Z" fill="white"/>
<path d="M369.662 293.098L368.98 293.991L368.365 294.915L367.819 295.865L367.343 296.839L366.937 297.834L366.602 298.848L366.34 299.878L366.152 300.922L366.038 301.975L366 303.037L366.118 304.913L366.463 306.732L367.023 308.484L367.787 310.159L368.743 311.747L369.878 313.237L371.181 314.62L372.639 315.886L374.241 317.024L375.974 318.024L377.179 318.689L378.341 319.42L379.44 320.216L380.456 321.073L381.369 321.991L382.161 322.965L382.811 323.995L383.3 325.077L383.607 326.21L383.714 327.391L383.817 328.467L384.116 329.487L384.595 330.438L385.236 331.306L386.024 332.079L386.943 332.741L387.976 333.281L389.108 333.683L390.321 333.934L391.6 334.021H402.4L403.679 333.934L404.892 333.683L406.024 333.281L407.057 332.741L407.976 332.079L408.764 331.306L409.405 330.438L409.884 329.487L410.182 328.467L410.286 327.391L410.393 326.21L410.7 325.077L411.189 323.995L411.839 322.965L412.631 321.991L413.544 321.073L414.56 320.216L415.659 319.42L416.821 318.689L418.026 318.024L419.759 317.024L421.361 315.886L422.819 314.62L424.122 313.237L425.257 311.747L426.213 310.159L426.977 308.484L427.537 306.732L427.882 304.913L428 303.037L427.962 301.975L427.848 300.922L427.66 299.878L427.398 298.848L427.063 297.834L426.657 296.839L426.181 295.865L425.635 294.915L425.02 293.991L424.338 293.098L401.384 264.941L400.682 264.242L399.864 263.698L398.958 263.31L397.994 263.076L397 262.999L396.006 263.076L395.042 263.31L394.136 263.698L393.318 264.242L392.616 264.941L369.662 293.098Z" fill="#F2F2F2" stroke="#B3B3B3" stroke-width="2.79134"/>
<path d="M393.794 328.328V297.933L393.733 297.297L393.556 296.693L393.273 296.131L392.894 295.617L392.427 295.16L391.884 294.768L391.273 294.449L390.603 294.212L389.886 294.063L389.129 294.012L388.372 294.063L387.655 294.212L386.986 294.45L386.374 294.768L385.831 295.16L385.365 295.617L384.985 296.131L384.703 296.694L384.526 297.297L384.465 297.933V301.706L384.554 302.637L384.813 303.52L385.227 304.344L385.783 305.097L386.465 305.766L387.261 306.339L388.156 306.806L389.136 307.154L390.187 307.372L391.295 307.447L390.8 307.455H403.2L402.714 307.447L403.822 307.372L404.873 307.154L405.853 306.806L406.748 306.339L407.543 305.766L408.226 305.097L408.781 304.344L409.196 303.52L409.454 302.637L409.544 301.706V297.933L409.483 297.297L409.306 296.694L409.023 296.131L408.644 295.617L408.178 295.16L407.634 294.768L407.023 294.45L406.354 294.212L405.636 294.063L404.88 294.012L404.123 294.063L403.405 294.212L402.736 294.449L402.125 294.768L401.581 295.16L401.115 295.617L400.736 296.131L400.453 296.693L400.276 297.297L400.215 297.933V328.328" stroke="#B3B3B3" stroke-width="2.23307"/>
<path d="M383.715 326.575H410.286V329.553L410.17 330.761L409.835 331.906L409.298 332.975L408.577 333.95L407.692 334.818L406.66 335.562L405.499 336.168L404.229 336.619L402.866 336.901L401.429 336.999H392.572L391.135 336.901L389.772 336.619L388.501 336.168L387.341 335.562L386.309 334.818L385.424 333.95L384.703 332.975L384.166 331.906L383.831 330.761L383.715 329.553V326.575Z" fill="#141414" stroke="#141414" stroke-width="1.67481"/>
<path d="M383.715 326.575H410.286V329.553H383.715V326.575Z" fill="#808080" stroke="#808080" stroke-width="1.67481"/>
<path d="M390.653 277.987C397.226 277.987 402.554 282.467 402.554 287.993C402.554 293.518 397.226 297.998 390.653 297.998C384.079 297.998 378.751 293.518 378.751 287.993C378.751 282.467 384.079 277.987 390.653 277.987Z" fill="white" fill-opacity="0.3"/>
<path d="M168.662 293.098L167.98 293.991L167.365 294.915L166.819 295.865L166.343 296.839L165.937 297.834L165.602 298.848L165.34 299.878L165.152 300.922L165.038 301.975L165 303.037L165.118 304.913L165.463 306.732L166.023 308.484L166.787 310.159L167.743 311.747L168.878 313.237L170.181 314.62L171.639 315.886L173.241 317.024L174.974 318.024L176.179 318.689L177.341 319.42L178.44 320.216L179.456 321.073L180.369 321.991L181.161 322.965L181.811 323.995L182.3 325.077L182.607 326.21L182.714 327.391L182.817 328.467L183.116 329.487L183.595 330.438L184.236 331.306L185.024 332.079L185.943 332.741L186.976 333.281L188.108 333.683L189.321 333.934L190.6 334.021H201.4L202.679 333.934L203.892 333.683L205.024 333.281L206.057 332.741L206.976 332.079L207.764 331.306L208.405 330.438L208.884 329.487L209.182 328.467L209.286 327.391L209.393 326.21L209.7 325.077L210.189 323.995L210.839 322.965L211.631 321.991L212.544 321.073L213.56 320.216L214.659 319.42L215.821 318.689L217.026 318.024L218.759 317.024L220.361 315.886L221.819 314.62L223.122 313.237L224.257 311.747L225.213 310.159L225.977 308.484L226.537 306.732L226.882 304.913L227 303.037L226.962 301.975L226.848 300.922L226.66 299.878L226.398 298.848L226.063 297.834L225.657 296.839L225.181 295.865L224.635 294.915L224.02 293.991L223.338 293.098L200.384 264.941L199.682 264.242L198.864 263.698L197.958 263.31L196.994 263.076L196 262.999L195.006 263.076L194.042 263.31L193.136 263.698L192.318 264.242L191.616 264.941L168.662 293.098Z" fill="#F2F2F2" stroke="#B3B3B3" stroke-width="2.79134"/>
<path d="M192.794 328.328V297.933L192.733 297.297L192.556 296.693L192.273 296.131L191.894 295.617L191.427 295.16L190.884 294.768L190.273 294.449L189.603 294.212L188.886 294.063L188.129 294.012L187.372 294.063L186.655 294.212L185.986 294.45L185.374 294.768L184.831 295.16L184.365 295.617L183.985 296.131L183.703 296.694L183.526 297.297L183.465 297.933V301.706L183.554 302.637L183.813 303.52L184.227 304.344L184.783 305.097L185.465 305.766L186.261 306.339L187.156 306.806L188.136 307.154L189.187 307.372L190.295 307.447L189.8 307.455H202.2L201.714 307.447L202.822 307.372L203.873 307.154L204.853 306.806L205.748 306.339L206.543 305.766L207.226 305.097L207.781 304.344L208.196 303.52L208.454 302.637L208.544 301.706V297.933L208.483 297.297L208.306 296.694L208.023 296.131L207.644 295.617L207.178 295.16L206.634 294.768L206.023 294.45L205.354 294.212L204.636 294.063L203.88 294.012L203.123 294.063L202.405 294.212L201.736 294.449L201.125 294.768L200.581 295.16L200.115 295.617L199.736 296.131L199.453 296.693L199.276 297.297L199.215 297.933V328.328" stroke="#B3B3B3" stroke-width="2.23307"/>
<path d="M182.715 326.575H209.286V329.553L209.17 330.761L208.835 331.906L208.298 332.975L207.577 333.95L206.692 334.818L205.66 335.562L204.499 336.168L203.229 336.619L201.866 336.901L200.429 336.999H191.572L190.135 336.901L188.772 336.619L187.501 336.168L186.341 335.562L185.309 334.818L184.424 333.95L183.703 332.975L183.166 331.906L182.831 330.761L182.715 329.553V326.575Z" fill="#141414" stroke="#141414" stroke-width="1.67481"/>
<path d="M182.715 326.575H209.286V329.553H182.715V326.575Z" fill="#808080" stroke="#808080" stroke-width="1.67481"/>
<path d="M189.653 277.987C196.226 277.987 201.554 282.467 201.554 287.993C201.554 293.518 196.226 297.998 189.653 297.998C183.079 297.998 177.751 293.518 177.751 287.993C177.751 282.467 183.079 277.987 189.653 277.987Z" fill="white" fill-opacity="0.3"/>
<path d="M300.857 164.39L300.914 163.365L301.078 162.364L301.344 161.391L301.703 160.449L302.148 159.54L302.673 158.67L303.27 157.84L303.932 157.054L304.651 156.316L305.421 155.628L307.624 153.618L309.653 151.413L311.496 149.038L313.139 146.517L314.566 143.874L315.765 141.133L316.722 138.317L317.423 135.451L317.853 132.559L318 129.665L317.607 125.016L316.471 120.605L314.651 116.492L312.212 112.736L309.213 109.396L305.718 106.531L301.787 104.2L297.482 102.461L292.866 101.375L288 101L283.134 101.375L278.518 102.461L274.213 104.2L270.282 106.531L266.787 109.396L263.788 112.736L261.349 116.492L259.529 120.605L258.393 125.016L258 129.665L258.147 132.559L258.577 135.451L259.278 138.317L260.235 141.133L261.434 143.874L262.861 146.517L264.504 149.038L266.347 151.413L268.376 153.618L270.579 155.628L271.349 156.316L272.068 157.054L272.73 157.84L273.327 158.67L273.852 159.54L274.297 160.449L274.656 161.391L274.922 162.364L275.086 163.365L275.143 164.39L275.238 165.578L275.514 166.704L275.955 167.754L276.546 168.714L277.273 169.567L278.121 170.298L279.074 170.894L280.118 171.337L281.237 171.615L282.417 171.711H293.583L294.763 171.615L295.882 171.337L296.926 170.894L297.879 170.298L298.727 169.567L299.454 168.714L300.045 167.754L300.486 166.704L300.762 165.578L300.857 164.39Z" fill="#F2F2F2" stroke="#B3B3B3" stroke-width="2.78497"/>
<path d="M284.897 165.426V133.799L284.816 132.782L284.58 131.818L284.202 130.918L283.695 130.097L283.073 129.367L282.347 128.74L281.531 128.23L280.637 127.85L279.679 127.613L278.669 127.531L278.178 127.531L277.247 127.606L276.364 127.825L275.541 128.175L274.79 128.645L274.121 129.222L273.548 129.895L273.081 130.651L272.733 131.48L272.516 132.368L272.441 133.305L272.516 134.241L272.733 135.13L273.081 135.958L273.548 136.715L274.121 137.387L274.79 137.964L275.541 138.434L276.364 138.784L277.247 139.003L278.178 139.078L279.05 139.078L278.992 139.087H297.011L296.958 139.078L297.831 139.078L298.761 139.003L299.644 138.784L300.467 138.434L301.219 137.964L301.887 137.387L302.461 136.715L302.927 135.958L303.275 135.13L303.493 134.241L303.568 133.305L303.493 132.368L303.275 131.48L302.927 130.651L302.461 129.895L301.887 129.222L301.219 128.645L300.467 128.175L299.644 127.825L298.761 127.606L297.831 127.531L297.34 127.531L296.329 127.613L295.371 127.85L294.477 128.23L293.661 128.74L292.936 129.367L292.313 130.097L291.807 130.918L291.429 131.818L291.193 132.782L291.111 133.799V165.426" stroke="#B3B3B3" stroke-width="2.22798"/>
<path d="M275.143 163.489H300.858V166.778L300.751 168.112L300.441 169.377L299.946 170.556L299.281 171.634L298.465 172.592L297.513 173.414L296.442 174.082L295.27 174.581L294.013 174.892L292.688 175H283.313L281.988 174.892L280.731 174.581L279.558 174.082L278.488 173.414L277.536 172.592L276.72 171.634L276.055 170.556L275.56 169.377L275.25 168.112L275.143 166.778V163.489Z" fill="#141414" stroke="#141414" stroke-width="1.67098"/>
<path d="M275.143 163.493H300.858V166.782H275.143V163.493Z" fill="#808080" stroke="#808080" stroke-width="1.67098"/>
</svg>
