<svg width="561" height="395" viewBox="0 0 561 395" fill="none" xmlns="http://www.w3.org/2000/svg">
<mask id="mask0_176_212" style="mask-type:luminance" maskUnits="userSpaceOnUse" x="20" y="60" width="540" height="300">
<path d="M20 60H560V195V360H20V196.5V60Z" fill="white"/>
</mask>
<g mask="url(#mask0_176_212)">
<path d="M20 196.5L20.0028 197.5L560.003 196L560 195L559.997 194L19.9972 195.5L20 196.5ZM20 60V58H18V60H20ZM560 60H562V58H560V60ZM560 360V362H562V360H560ZM20 360H18V362H20V360ZM20 60V62H560V60V58H20V60ZM560 360V358H20V360V362H560V360ZM20 360H22V196.5H20H18V360H20ZM20 196.5H22V60H20H18V196.5H20ZM560 60H558V195H560H562V60H560ZM560 195H558V360H560H562V195H560Z" fill="black"/>
</g>
<path d="M320.641 84.9893H242.576C239.496 84.9893 237 82.3036 237 78.9906V42.9986C237 39.6856 239.496 36.9999 242.576 36.9999H320.641C323.721 36.9999 326.217 39.6856 326.217 42.9986V78.9906C326.217 82.3036 323.721 84.9893 320.641 84.9893Z" fill="#CE6809"/>
<path d="M237 84.2388H295.549V37.7491H237V84.2388Z" fill="#333333"/>
<path d="M295.549 54.9951H326.218V42.9978H295.549V54.9951Z" fill="#E77A16"/>
<path d="M237 55.7412H295.549V43.7439H237V55.7412Z" fill="#4C4C4C"/>
<path d="M334.212 73.1123H328.636C327.096 73.1123 325.848 71.7695 325.848 70.113V52.117C325.848 50.4605 327.096 49.1176 328.636 49.1176H334.212C335.752 49.1176 337 50.4605 337 52.117V70.113C337 71.7695 335.752 73.1123 334.212 73.1123Z" fill="#333333"/>
<path d="M332.818 57.8115H327.242C326.472 57.8115 325.848 57.1401 325.848 56.3119V53.3125C325.848 52.4843 326.472 51.8129 327.242 51.8129H332.818C333.588 51.8129 334.212 52.4843 334.212 53.3125V56.3119C334.212 57.1401 333.588 57.8115 332.818 57.8115Z" fill="#4C4C4C"/>
<path d="M320.641 85H242.576C239.496 85 237 82.3143 237 79.0013V43.0093C237 39.6964 239.496 37.0107 242.576 37.0107H320.641C323.721 37.0107 326.217 39.6964 326.217 43.0093V79.0013C326.217 82.3143 323.721 85 320.641 85Z" stroke="#333333" stroke-width="2.78497"/>
<path d="M352.111 62.207L351.926 21.8669L220.928 22.4698L221.114 62.8099" stroke="black" stroke-width="2"/>
<rect x="267" y="9" width="40" height="20" rx="5" fill="black"/>
<path d="M273.473 26V13.88H273.113L271.233 18.32H268.553L271.413 12H276.033V26H273.473ZM283.835 26.28C282.182 26.28 280.855 25.8267 279.855 24.92C278.855 24 278.355 22.6133 278.355 20.76V17.24C278.355 15.44 278.855 14.0733 279.855 13.14C280.855 12.1933 282.182 11.72 283.835 11.72C285.502 11.72 286.829 12.1933 287.815 13.14C288.815 14.0733 289.315 15.44 289.315 17.24V20.76C289.315 22.6133 288.815 24 287.815 24.92C286.829 25.8267 285.502 26.28 283.835 26.28ZM283.835 24C284.835 24 285.569 23.7267 286.035 23.18C286.515 22.6333 286.755 21.8533 286.755 20.84V17.12C286.755 16.0933 286.489 15.32 285.955 14.8C285.435 14.2667 284.729 14 283.835 14C282.915 14 282.195 14.2733 281.675 14.82C281.169 15.3667 280.915 16.1333 280.915 17.12V20.84C280.915 21.8933 281.155 22.6867 281.635 23.22C282.129 23.74 282.862 24 283.835 24ZM294.244 26L290.684 12H293.404L296.364 24.3H296.644L299.604 12H302.324L298.764 26H294.244Z" fill="white"/>
<circle cx="86" cy="194" r="21" fill="#463B3B"/>
<path d="M80.3006 201V188.88H79.9406L78.0606 193.32H75.3806L78.2406 187H82.8606V201H80.3006ZM84.5436 201L88.2236 187H92.8236L96.5036 201H93.7836L93.0236 197.92H88.0236L87.2636 201H84.5436ZM88.6436 195.48H92.4036L90.7036 188.66H90.3436L88.6436 195.48Z" fill="white"/>
<circle cx="21" cy="102" r="21" fill="#463B3B"/>
<path d="M15.226 109.28C14.1327 109.28 13.186 109.087 12.386 108.7C11.5993 108.313 10.9927 107.767 10.566 107.06C10.1393 106.353 9.92602 105.533 9.92602 104.6V104.4H12.526V104.58C12.526 105.247 12.746 105.82 13.186 106.3C13.6393 106.767 14.306 107 15.186 107C16.066 107 16.7393 106.767 17.206 106.3C17.686 105.82 17.926 105.2 17.926 104.44V104.24C17.926 103.493 17.686 102.9 17.206 102.46C16.7393 102.02 16.1527 101.8 15.446 101.8C15.0593 101.8 14.7393 101.853 14.486 101.96C14.2327 102.067 14.026 102.2 13.866 102.36C13.706 102.52 13.5727 102.68 13.466 102.84H10.366V95H19.926V97.32H12.926V100.74H13.286C13.4193 100.567 13.5993 100.4 13.826 100.24C14.0527 100.08 14.346 99.9467 14.706 99.84C15.066 99.7333 15.4927 99.68 15.986 99.68C16.8127 99.68 17.566 99.8533 18.246 100.2C18.926 100.547 19.466 101.06 19.866 101.74C20.2793 102.407 20.486 103.233 20.486 104.22V104.46C20.486 105.447 20.2727 106.3 19.846 107.02C19.4327 107.74 18.8327 108.3 18.046 108.7C17.2593 109.087 16.3193 109.28 15.226 109.28ZM21.5182 109L25.1982 95H29.7982L33.4782 109H30.7582L29.9982 105.92H24.9982L24.2382 109H21.5182ZM25.6182 103.48H29.3782L27.6782 96.66H27.3182L25.6182 103.48Z" fill="white"/>
<path d="M448.154 294L446.507 294.134L444.944 294.524L443.488 295.148L442.157 295.984L440.974 297.013L439.959 298.211L439.133 299.559L438.518 301.035L438.133 302.617L438 304.286V324.858L438.135 327.242L438.53 329.546L439.169 331.755L440.039 333.853L441.123 335.825L442.408 337.657L443.878 339.333L445.517 340.838L447.312 342.157L449.248 343.274L450.629 344.03L451.971 344.885L453.251 345.837L454.441 346.882L455.517 348.018L456.455 349.241L457.228 350.549L457.811 351.937L458.179 353.402L458.308 354.942L458.406 356.18L458.692 357.354L459.149 358.449L459.761 359.449L460.514 360.338L461.392 361.101L462.379 361.722L463.46 362.185L464.619 362.474L465.841 362.574H476.159L477.381 362.474L478.54 362.185L479.621 361.722L480.608 361.101L481.486 360.338L482.239 359.449L482.851 358.449L483.308 357.354L483.594 356.18L483.692 354.942L483.821 353.402L484.189 351.937L484.772 350.549L485.545 349.241L486.483 348.018L487.559 346.882L488.749 345.837L490.029 344.885L491.371 344.03L492.752 343.274L494.688 342.157L496.483 340.838L498.122 339.333L499.592 337.657L500.877 335.825L501.961 333.853L502.831 331.755L503.47 329.546L503.865 327.242L504 324.858V304.286L503.867 302.617L503.482 301.035L502.867 299.559L502.041 298.211L501.026 297.013L499.843 295.984L498.512 295.148L497.056 294.524L495.493 294.134L493.846 294H448.154Z" fill="#F2F2F2" stroke="#B3B3B3" stroke-width="2.78497"/>
<path d="M467.937 355.016V322.937L467.864 322.01L467.65 321.131L467.308 320.312L466.849 319.563L466.286 318.897L465.628 318.326L464.889 317.862L464.08 317.515L463.213 317.299L462.298 317.224L457.352 317.224L456.525 317.292L455.741 317.488L455.01 317.801L454.342 318.221L453.749 318.736L453.239 319.338L452.825 320.014L452.516 320.755L452.323 321.549L452.256 322.387L452.323 323.224L452.516 324.018L452.825 324.759L453.239 325.435L453.749 326.037L454.342 326.553L455.01 326.972L455.741 327.285L456.525 327.481L457.352 327.549L462.165 327.549L462.108 327.557H479.896L479.844 327.549L484.657 327.549L485.484 327.481L486.268 327.285L486.999 326.972L487.667 326.553L488.261 326.037L488.77 325.435L489.184 324.759L489.493 324.018L489.686 323.224L489.753 322.387L489.686 321.549L489.493 320.755L489.184 320.014L488.77 319.338L488.261 318.736L487.667 318.221L486.999 317.801L486.268 317.488L485.484 317.292L484.658 317.224L479.711 317.224L478.797 317.299L477.929 317.515L477.12 317.862L476.381 318.326L475.724 318.897L475.16 319.563L474.701 320.312L474.359 321.131L474.146 322.01L474.072 322.937V355.016" stroke="#B3B3B3" stroke-width="2.22798"/>
<path d="M458.308 354.001H483.692V357.43H458.308V354.001Z" fill="#808080" stroke="#808080" stroke-width="1.67098"/>
<path d="M458.308 354H483.692V357.428L483.582 358.819L483.261 360.138L482.748 361.367L482.06 362.491L481.214 363.489L480.228 364.346L479.119 365.043L477.905 365.563L476.603 365.888L475.231 366H466.769L465.397 365.888L464.095 365.563L462.881 365.043L461.772 364.346L460.786 363.489L459.94 362.491L459.252 361.367L458.739 360.138L458.418 358.819L458.308 357.428V354Z" fill="#141414" stroke="#141414" stroke-width="1.67098"/>
<path d="M444 358V380.018H500.25V358" stroke="black" stroke-width="2"/>
<rect x="450" y="370.734" width="43.027" height="20" rx="5" fill="black"/>
<path d="M463.814 388.014C462.761 388.014 461.828 387.827 461.014 387.454C460.201 387.081 459.561 386.547 459.094 385.854C458.641 385.147 458.414 384.314 458.414 383.354V382.994H460.974V383.274C460.974 384.021 461.234 384.621 461.754 385.074C462.274 385.514 462.961 385.734 463.814 385.734C464.681 385.734 465.348 385.527 465.814 385.114C466.294 384.701 466.534 384.181 466.534 383.554V383.354C466.534 382.927 466.428 382.581 466.214 382.314C466.001 382.047 465.714 381.854 465.354 381.734C464.994 381.601 464.588 381.534 464.134 381.534H461.334V378.734L465.854 376.334V376.014H458.774V373.734H468.694V377.134L464.474 379.374V379.694H465.214C465.841 379.694 466.448 379.821 467.034 380.074C467.634 380.327 468.128 380.721 468.514 381.254C468.901 381.774 469.094 382.454 469.094 383.294V383.534C469.094 384.441 468.874 385.234 468.434 385.914C467.994 386.581 467.374 387.101 466.574 387.474C465.788 387.834 464.868 388.014 463.814 388.014ZM473.822 387.734L470.262 373.734H472.982L475.942 386.034H476.222L479.182 373.734H481.902L478.342 387.734H473.822Z" fill="white"/>
<path d="M176.662 322.099L175.98 322.992L175.365 323.915L174.819 324.866L174.343 325.84L173.937 326.835L173.602 327.849L173.34 328.879L173.152 329.923L173.038 330.976L173 332.038L173.118 333.914L173.463 335.733L174.023 337.485L174.787 339.16L175.743 340.748L176.878 342.238L178.181 343.621L179.639 344.887L181.241 346.025L182.974 347.025L184.179 347.69L185.341 348.421L186.44 349.217L187.456 350.074L188.369 350.992L189.161 351.966L189.811 352.996L190.3 354.078L190.607 355.211L190.714 356.392L190.817 357.467L191.116 358.488L191.595 359.439L192.236 360.307L193.024 361.08L193.943 361.742L194.976 362.282L196.108 362.684L197.321 362.935L198.6 363.021H209.4L210.679 362.935L211.892 362.684L213.024 362.282L214.057 361.742L214.976 361.08L215.764 360.307L216.405 359.439L216.884 358.488L217.182 357.467L217.286 356.392L217.393 355.211L217.7 354.078L218.189 352.996L218.839 351.966L219.631 350.992L220.544 350.074L221.56 349.217L222.659 348.421L223.821 347.69L225.026 347.025L226.759 346.025L228.361 344.887L229.819 343.621L231.122 342.238L232.257 340.748L233.213 339.16L233.977 337.485L234.537 335.733L234.882 333.914L235 332.038L234.962 330.976L234.848 329.923L234.66 328.879L234.398 327.849L234.063 326.835L233.657 325.84L233.181 324.866L232.635 323.916L232.02 322.992L231.338 322.099L208.384 293.942L207.682 293.243L206.864 292.699L205.958 292.31L204.994 292.077L204 292L203.006 292.077L202.042 292.31L201.136 292.699L200.318 293.243L199.616 293.942L176.662 322.099Z" fill="#F9FEE4" stroke="#C4DE19" stroke-width="2.79134"/>
<path d="M200.794 357.329V326.934L200.732 326.298L200.556 325.694L200.273 325.132L199.893 324.618L199.427 324.161L198.884 323.769L198.273 323.45L197.603 323.213L196.885 323.064L196.129 323.013L195.372 323.064L194.655 323.213L193.985 323.451L193.374 323.769L192.831 324.161L192.365 324.618L191.985 325.132L191.703 325.695L191.526 326.298L191.465 326.934V330.707L191.554 331.638L191.813 332.521L192.227 333.345L192.783 334.098L193.465 334.767L194.261 335.34L195.156 335.807L196.136 336.155L197.187 336.373L198.295 336.448L197.8 336.456H210.2L209.714 336.448L210.822 336.373L211.873 336.155L212.853 335.807L213.747 335.34L214.543 334.767L215.226 334.098L215.781 333.345L216.195 332.521L216.454 331.638L216.544 330.707V326.934L216.483 326.298L216.306 325.695L216.023 325.132L215.644 324.618L215.178 324.161L214.634 323.769L214.023 323.451L213.354 323.213L212.636 323.064L211.88 323.013L211.123 323.064L210.405 323.213L209.736 323.45L209.125 323.769L208.581 324.161L208.115 324.618L207.736 325.132L207.453 325.694L207.276 326.298L207.215 326.934V357.329" stroke="#C4DE19" stroke-width="2.23307"/>
<path d="M190.715 355.576H217.286V358.554L217.17 359.762L216.835 360.908L216.298 361.976L215.577 362.952L214.692 363.819L213.66 364.563L212.499 365.169L211.229 365.62L209.866 365.903L208.429 366H199.572L198.135 365.903L196.772 365.62L195.501 365.169L194.341 364.563L193.309 363.819L192.424 362.952L191.703 361.976L191.166 360.908L190.831 359.762L190.715 358.554V355.576Z" fill="#141414" stroke="#C4DE19" stroke-width="1.67481"/>
<path d="M190.715 355.576H217.286V358.554H190.715V355.576Z" fill="#C4DE19" stroke="#C4DE19" stroke-width="1.67481"/>
<path d="M197.653 306.989C204.226 306.989 209.554 311.468 209.554 316.994C209.554 322.52 204.226 326.999 197.653 326.999C191.079 326.999 185.751 322.52 185.751 316.994C185.751 311.468 191.079 306.989 197.653 306.989Z" fill="white" fill-opacity="0.3"/>
<path d="M447.217 195.266V217.284H503.467V195.266" stroke="black" stroke-width="2"/>
<rect x="453.217" y="208" width="43.027" height="20" rx="5" fill="black"/>
<path d="M467.093 225.28C466.027 225.28 465.1 225.08 464.313 224.68C463.527 224.28 462.92 223.727 462.493 223.02C462.067 222.313 461.853 221.5 461.853 220.58V215.8C461.853 214.667 462.08 213.727 462.533 212.98C463 212.22 463.633 211.653 464.433 211.28C465.247 210.907 466.173 210.72 467.213 210.72C468.253 210.72 469.153 210.893 469.913 211.24C470.687 211.587 471.28 212.087 471.693 212.74C472.12 213.393 472.333 214.173 472.333 215.08H469.733C469.733 214.52 469.54 214.033 469.153 213.62C468.767 213.207 468.12 213 467.213 213C466.32 213 465.627 213.233 465.133 213.7C464.653 214.167 464.413 214.813 464.413 215.64V217.08H464.773C465 216.813 465.347 216.56 465.813 216.32C466.28 216.08 466.96 215.96 467.853 215.96C468.667 215.96 469.413 216.133 470.093 216.48C470.787 216.827 471.347 217.333 471.773 218C472.2 218.653 472.413 219.447 472.413 220.38V220.62C472.413 221.54 472.193 222.353 471.753 223.06C471.313 223.753 470.693 224.3 469.893 224.7C469.093 225.087 468.16 225.28 467.093 225.28ZM467.133 223C467.973 223 468.633 222.78 469.113 222.34C469.607 221.9 469.853 221.313 469.853 220.58V220.42C469.853 219.927 469.74 219.5 469.513 219.14C469.3 218.78 468.987 218.5 468.573 218.3C468.173 218.1 467.693 218 467.133 218C466.587 218 466.107 218.1 465.693 218.3C465.28 218.5 464.96 218.78 464.733 219.14C464.52 219.5 464.413 219.927 464.413 220.42V220.58C464.413 221.313 464.653 221.9 465.133 222.34C465.627 222.78 466.293 223 467.133 223ZM477.137 225L473.577 211H476.297L479.257 223.3H479.537L482.497 211H485.217L481.657 225H477.137Z" fill="white"/>
<path d="M486.857 189.39L486.914 188.365L487.078 187.364L487.344 186.391L487.703 185.448L488.148 184.54L488.673 183.67L489.27 182.84L489.932 182.054L490.651 181.316L491.421 180.628L493.624 178.617L495.653 176.413L497.496 174.038L499.139 171.517L500.566 168.874L501.765 166.132L502.722 163.317L503.423 160.451L503.853 157.559L504 154.665L503.607 150.015L502.471 145.605L500.651 141.492L498.212 137.736L495.213 134.396L491.718 131.53L487.787 129.199L483.482 127.461L478.866 126.375L474 126L469.134 126.375L464.518 127.461L460.213 129.199L456.282 131.53L452.787 134.396L449.788 137.736L447.349 141.492L445.529 145.605L444.393 150.015L444 154.665L444.147 157.559L444.577 160.451L445.278 163.317L446.235 166.132L447.434 168.874L448.861 171.517L450.504 174.038L452.347 176.413L454.376 178.617L456.579 180.628L457.349 181.316L458.068 182.054L458.73 182.84L459.327 183.67L459.852 184.54L460.297 185.448L460.656 186.391L460.922 187.364L461.086 188.365L461.143 189.39L461.238 190.577L461.514 191.704L461.955 192.754L462.546 193.713L463.273 194.566L464.121 195.298L465.074 195.893L466.118 196.337L467.237 196.615L468.417 196.71H479.583L480.763 196.615L481.882 196.337L482.926 195.893L483.879 195.298L484.727 194.566L485.454 193.713L486.045 192.754L486.486 191.704L486.762 190.577L486.857 189.39Z" fill="#F2F2F2" stroke="#B3B3B3" stroke-width="2.78497"/>
<path d="M470.897 190.426V158.799L470.816 157.782L470.58 156.818L470.202 155.918L469.696 155.097L469.073 154.367L468.347 153.74L467.531 153.23L466.637 152.85L465.679 152.613L464.669 152.531L464.178 152.531L463.247 152.606L462.364 152.825L461.541 153.175L460.79 153.645L460.121 154.222L459.548 154.895L459.081 155.651L458.733 156.48L458.516 157.368L458.441 158.305L458.516 159.241L458.733 160.13L459.081 160.958L459.548 161.715L460.121 162.387L460.79 162.964L461.541 163.434L462.364 163.784L463.247 164.003L464.178 164.078L465.05 164.078L464.992 164.087H483.011L482.958 164.078L483.831 164.078L484.761 164.003L485.644 163.784L486.467 163.434L487.219 162.964L487.887 162.387L488.461 161.715L488.927 160.958L489.275 160.13L489.493 159.241L489.568 158.305L489.493 157.368L489.275 156.48L488.927 155.651L488.461 154.895L487.887 154.222L487.219 153.645L486.467 153.175L485.644 152.825L484.762 152.606L483.831 152.531L483.34 152.531L482.329 152.613L481.371 152.85L480.477 153.23L479.661 153.74L478.936 154.367L478.313 155.097L477.807 155.918L477.429 156.818L477.193 157.782L477.111 158.799V190.426" stroke="#B3B3B3" stroke-width="2.22798"/>
<path d="M461.143 188.489H486.858V191.778L486.751 193.112L486.441 194.377L485.946 195.556L485.281 196.634L484.465 197.592L483.513 198.414L482.442 199.082L481.27 199.581L480.013 199.892L478.688 200H469.313L467.988 199.892L466.731 199.581L465.559 199.082L464.488 198.414L463.536 197.592L462.72 196.634L462.055 195.556L461.56 194.377L461.25 193.112L461.143 191.778V188.489Z" fill="#141414" stroke="#141414" stroke-width="1.67098"/>
<path d="M461.143 188.493H486.858V191.782H461.143V188.493Z" fill="#808080" stroke="#808080" stroke-width="1.67098"/>
<path d="M216.857 189.39L216.914 188.365L217.078 187.364L217.344 186.391L217.703 185.448L218.148 184.54L218.673 183.67L219.27 182.84L219.932 182.054L220.651 181.316L221.421 180.628L223.624 178.617L225.653 176.413L227.496 174.038L229.139 171.517L230.566 168.874L231.765 166.132L232.722 163.317L233.423 160.451L233.853 157.559L234 154.665L233.607 150.015L232.471 145.605L230.651 141.492L228.212 137.736L225.213 134.396L221.718 131.53L217.787 129.199L213.482 127.461L208.866 126.375L204 126L199.134 126.375L194.518 127.461L190.213 129.199L186.282 131.53L182.787 134.396L179.788 137.736L177.349 141.492L175.529 145.605L174.393 150.015L174 154.665L174.147 157.559L174.577 160.451L175.278 163.317L176.235 166.132L177.434 168.874L178.861 171.517L180.504 174.038L182.347 176.413L184.376 178.617L186.579 180.628L187.349 181.316L188.068 182.054L188.73 182.84L189.327 183.67L189.852 184.54L190.297 185.448L190.656 186.391L190.922 187.364L191.086 188.365L191.143 189.39L191.238 190.577L191.514 191.704L191.955 192.754L192.546 193.713L193.273 194.566L194.121 195.298L195.074 195.893L196.118 196.337L197.237 196.615L198.417 196.71H209.583L210.763 196.615L211.882 196.337L212.926 195.893L213.879 195.298L214.727 194.566L215.454 193.713L216.045 192.754L216.486 191.704L216.762 190.577L216.857 189.39Z" fill="#F2F2F2" stroke="#B3B3B3" stroke-width="2.78497"/>
<path d="M200.897 190.426V158.799L200.816 157.782L200.58 156.818L200.202 155.918L199.696 155.097L199.073 154.367L198.347 153.74L197.531 153.23L196.637 152.85L195.679 152.613L194.669 152.531L194.178 152.531L193.247 152.606L192.364 152.825L191.541 153.175L190.79 153.645L190.121 154.222L189.548 154.895L189.081 155.651L188.733 156.48L188.516 157.368L188.441 158.305L188.516 159.241L188.733 160.13L189.081 160.958L189.548 161.715L190.121 162.387L190.79 162.964L191.541 163.434L192.364 163.784L193.247 164.003L194.178 164.078L195.05 164.078L194.992 164.087H213.011L212.958 164.078L213.831 164.078L214.761 164.003L215.644 163.784L216.467 163.434L217.219 162.964L217.887 162.387L218.461 161.715L218.927 160.958L219.275 160.13L219.493 159.241L219.568 158.305L219.493 157.368L219.275 156.48L218.927 155.651L218.461 154.895L217.887 154.222L217.219 153.645L216.467 153.175L215.644 152.825L214.762 152.606L213.831 152.531L213.34 152.531L212.329 152.613L211.371 152.85L210.477 153.23L209.661 153.74L208.936 154.367L208.313 155.097L207.807 155.918L207.429 156.818L207.193 157.782L207.111 158.799V190.426" stroke="#B3B3B3" stroke-width="2.22798"/>
<path d="M191.143 188.489H216.858V191.778L216.751 193.112L216.441 194.377L215.946 195.556L215.281 196.634L214.465 197.592L213.513 198.414L212.442 199.082L211.27 199.581L210.013 199.892L208.688 200H199.313L197.988 199.892L196.731 199.581L195.559 199.082L194.488 198.414L193.536 197.592L192.72 196.634L192.055 195.556L191.56 194.377L191.25 193.112L191.143 191.778V188.489Z" fill="#141414" stroke="#141414" stroke-width="1.67098"/>
<path d="M191.143 188.493H216.858V191.782H191.143V188.493Z" fill="#808080" stroke="#808080" stroke-width="1.67098"/>
<path d="M177.217 195.266V217.284H233.467V195.266" stroke="black" stroke-width="2"/>
<rect x="183.217" y="208" width="43.027" height="20" rx="5" fill="black"/>
<path d="M198.078 225V222.16H191.198V219.2L196.038 211H200.638V219.88H202.958V222.16H200.638V225H198.078ZM193.638 219.88H198.078V212.64H197.718L193.638 219.56V219.88ZM207.312 225L203.752 211H206.472L209.432 223.3H209.712L212.672 211H215.392L211.832 225H207.312Z" fill="white"/>
</svg>
