<svg width="560" height="395" viewBox="0 0 560 395" fill="none" xmlns="http://www.w3.org/2000/svg">
<mask id="mask0_215_160" style="mask-type:luminance" maskUnits="userSpaceOnUse" x="19" y="60" width="540" height="300">
<path d="M19 60H559V195V360H19V196.5V60Z" fill="white"/>
</mask>
<g mask="url(#mask0_215_160)">
<path d="M19 196.5L19.0028 197.5L559.003 196L559 195L558.997 194L18.9972 195.5L19 196.5ZM19 60V58H17V60H19ZM559 60H561V58H559V60ZM559 360V362H561V360H559ZM19 360H17V362H19V360ZM19 60V62H559V60V58H19V60ZM559 360V358H19V360V362H559V360ZM19 360H21V196.5H19H17V360H19ZM19 196.5H21V60H19H17V196.5H19ZM559 60H557V195H559H561V60H559ZM559 195H557V360H559H561V195H559Z" fill="black"/>
</g>
<path d="M319.641 84.9893H241.576C238.496 84.9893 236 82.3036 236 78.9906V42.9986C236 39.6856 238.496 36.9999 241.576 36.9999H319.641C322.721 36.9999 325.217 39.6856 325.217 42.9986V78.9906C325.217 82.3036 322.721 84.9893 319.641 84.9893Z" fill="#CE6809"/>
<path d="M236 84.2383H294.549V37.7486H236V84.2383Z" fill="#333333"/>
<path d="M294.549 54.9951H325.218V42.9978H294.549V54.9951Z" fill="#E77A16"/>
<path d="M236 55.7412H294.549V43.7439H236V55.7412Z" fill="#4C4C4C"/>
<path d="M333.212 73.1123H327.636C326.096 73.1123 324.848 71.7695 324.848 70.113V52.117C324.848 50.4605 326.096 49.1176 327.636 49.1176H333.212C334.752 49.1176 336 50.4605 336 52.117V70.113C336 71.7695 334.752 73.1123 333.212 73.1123Z" fill="#333333"/>
<path d="M331.818 57.8115H326.242C325.472 57.8115 324.848 57.1401 324.848 56.3119V53.3125C324.848 52.4843 325.472 51.8129 326.242 51.8129H331.818C332.588 51.8129 333.212 52.4843 333.212 53.3125V56.3119C333.212 57.1401 332.588 57.8115 331.818 57.8115Z" fill="#4C4C4C"/>
<path d="M319.641 85H241.576C238.496 85 236 82.3143 236 79.0013V43.0093C236 39.6964 238.496 37.0107 241.576 37.0107H319.641C322.721 37.0107 325.217 39.6964 325.217 43.0093V79.0013C325.217 82.3143 322.721 85 319.641 85Z" stroke="#333333" stroke-width="2.78497"/>
<path d="M351.111 62.207L350.926 21.8669L219.928 22.4698L220.114 62.8099" stroke="black" stroke-width="2"/>
<rect x="266" y="9" width="40" height="20" rx="5" fill="black"/>
<path d="M282.399 21.4V20.92C282.399 20.24 282.532 19.68 282.799 19.24C283.079 18.8 283.525 18.4333 284.139 18.14L284.479 17.98C285.079 17.7 285.539 17.4 285.859 17.08C286.179 16.76 286.339 16.3333 286.339 15.8C286.339 15.4133 286.239 15.0867 286.039 14.82C285.852 14.54 285.585 14.3267 285.239 14.18C284.892 14.0333 284.485 13.96 284.019 13.96C283.539 13.96 283.105 14.04 282.719 14.2C282.345 14.36 282.045 14.6 281.819 14.92C281.605 15.24 281.499 15.64 281.499 16.12V16.56H278.899V16.16C278.899 15.24 279.125 14.4467 279.579 13.78C280.032 13.1133 280.645 12.6067 281.419 12.26C282.192 11.9 283.059 11.72 284.019 11.72C284.965 11.72 285.805 11.8933 286.539 12.24C287.285 12.5867 287.872 13.0667 288.299 13.68C288.725 14.2933 288.939 15 288.939 15.8C288.939 16.6 288.792 17.26 288.499 17.78C288.205 18.2867 287.832 18.7 287.379 19.02C286.939 19.3267 286.485 19.5933 286.019 19.82L285.679 19.98C285.439 20.0867 285.272 20.22 285.179 20.38C285.085 20.5267 285.039 20.7467 285.039 21.04V21.4H282.399ZM283.799 26.28C283.265 26.28 282.812 26.1067 282.439 25.76C282.079 25.4 281.899 24.94 281.899 24.38C281.899 23.82 282.079 23.3667 282.439 23.02C282.812 22.66 283.265 22.48 283.799 22.48C284.345 22.48 284.799 22.66 285.159 23.02C285.519 23.3667 285.699 23.82 285.699 24.38C285.699 24.94 285.519 25.4 285.159 25.76C284.799 26.1067 284.345 26.28 283.799 26.28Z" fill="white"/>
<circle cx="88" cy="358" r="21" fill="#463B3B"/>
<path d="M77.0646 365V363.32C77.0646 362.347 77.2246 361.54 77.5446 360.9C77.8646 360.247 78.3246 359.713 78.9246 359.3C79.5379 358.873 80.2846 358.527 81.1646 358.26L82.5046 357.84C82.9979 357.68 83.4113 357.487 83.7446 357.26C84.0779 357.02 84.3313 356.733 84.5046 356.4C84.6913 356.067 84.7846 355.687 84.7846 355.26V355.18C84.7846 354.513 84.5579 353.987 84.1046 353.6C83.6513 353.2 83.0313 353 82.2446 353C81.4713 353 80.8446 353.213 80.3646 353.64C79.8979 354.053 79.6646 354.653 79.6646 355.44V355.8H77.1046V355.48C77.1046 354.467 77.3313 353.607 77.7846 352.9C78.2379 352.193 78.8513 351.653 79.6246 351.28C80.4113 350.907 81.2846 350.72 82.2446 350.72C83.2046 350.72 84.0713 350.907 84.8446 351.28C85.6179 351.64 86.2246 352.153 86.6646 352.82C87.1179 353.473 87.3446 354.247 87.3446 355.14V355.34C87.3446 356.233 87.1579 356.993 86.7846 357.62C86.4246 358.233 85.9313 358.74 85.3046 359.14C84.6779 359.527 83.9646 359.847 83.1646 360.1L81.8846 360.5C81.3113 360.673 80.8646 360.867 80.5446 361.08C80.2246 361.28 79.9979 361.507 79.8646 361.76C79.7446 362 79.6846 362.293 79.6846 362.64V362.72H87.2246V365H77.0646ZM88.4596 365L92.1396 351H96.7396L100.42 365H97.6996L96.9396 361.92H91.9396L91.1796 365H88.4596ZM92.5596 359.48H96.3196L94.6196 352.66H94.2596L92.5596 359.48Z" fill="white"/>
<circle cx="85" cy="194" r="21" fill="#463B3B"/>
<path d="M74.0646 201V199.32C74.0646 198.347 74.2246 197.54 74.5446 196.9C74.8646 196.247 75.3246 195.713 75.9246 195.3C76.5379 194.873 77.2846 194.527 78.1646 194.26L79.5046 193.84C79.9979 193.68 80.4113 193.487 80.7446 193.26C81.0779 193.02 81.3313 192.733 81.5046 192.4C81.6913 192.067 81.7846 191.687 81.7846 191.26V191.18C81.7846 190.513 81.5579 189.987 81.1046 189.6C80.6513 189.2 80.0313 189 79.2446 189C78.4713 189 77.8446 189.213 77.3646 189.64C76.8979 190.053 76.6646 190.653 76.6646 191.44V191.8H74.1046V191.48C74.1046 190.467 74.3313 189.607 74.7846 188.9C75.2379 188.193 75.8513 187.653 76.6246 187.28C77.4113 186.907 78.2846 186.72 79.2446 186.72C80.2046 186.72 81.0713 186.907 81.8446 187.28C82.6179 187.64 83.2246 188.153 83.6646 188.82C84.1179 189.473 84.3446 190.247 84.3446 191.14V191.34C84.3446 192.233 84.1579 192.993 83.7846 193.62C83.4246 194.233 82.9313 194.74 82.3046 195.14C81.6779 195.527 80.9646 195.847 80.1646 196.1L78.8846 196.5C78.3113 196.673 77.8646 196.867 77.5446 197.08C77.2246 197.28 76.9979 197.507 76.8646 197.76C76.7446 198 76.6846 198.293 76.6846 198.64V198.72H84.2246V201H74.0646ZM85.4596 201L89.1396 187H93.7396L97.4196 201H94.6996L93.9396 197.92H88.9396L88.1796 201H85.4596ZM89.5596 195.48H93.3196L91.6196 188.66H91.2596L89.5596 195.48Z" fill="white"/>
<circle cx="21" cy="102" r="21" fill="#463B3B"/>
<path d="M15.7047 109V106.16H8.82469V103.2L13.6647 95H18.2647V103.88H20.5847V106.16H18.2647V109H15.7047ZM11.2647 103.88H15.7047V96.64H15.3447L11.2647 103.56V103.88ZM21.3795 109L25.0595 95H29.6595L33.3395 109H30.6195L29.8595 105.92H24.8595L24.0995 109H21.3795ZM25.4795 103.48H29.2395L27.5395 96.66H27.1795L25.4795 103.48Z" fill="white"/>
<path d="M442.154 293.999L440.507 294.134L438.944 294.524L437.488 295.147L436.157 295.984L434.974 297.012L433.959 298.211L433.133 299.558L432.518 301.034L432.133 302.617L432 304.285V324.858L432.135 327.242L432.53 329.545L433.169 331.754L434.039 333.852L435.123 335.825L436.408 337.657L437.878 339.333L439.517 340.838L441.312 342.156L443.248 343.274L444.629 344.029L445.971 344.884L447.251 345.836L448.441 346.882L449.517 348.018L450.455 349.241L451.228 350.548L451.811 351.936L452.179 353.402L452.308 354.941L452.406 356.179L452.692 357.354L453.149 358.449L453.761 359.449L454.514 360.338L455.392 361.101L456.379 361.721L457.46 362.184L458.619 362.473L459.841 362.573H470.159L471.381 362.473L472.54 362.184L473.621 361.721L474.608 361.101L475.486 360.338L476.239 359.449L476.851 358.449L477.308 357.354L477.594 356.179L477.692 354.941L477.821 353.402L478.189 351.936L478.772 350.548L479.545 349.241L480.483 348.018L481.559 346.882L482.749 345.836L484.029 344.884L485.371 344.029L486.752 343.274L488.688 342.156L490.483 340.838L492.122 339.333L493.592 337.657L494.877 335.825L495.961 333.852L496.831 331.754L497.47 329.545L497.865 327.242L498 324.858V304.285L497.867 302.617L497.482 301.034L496.867 299.558L496.041 298.211L495.026 297.012L493.843 295.984L492.512 295.147L491.056 294.524L489.493 294.134L487.846 293.999H442.154Z" fill="#F2F2F2" stroke="#B3B3B3" stroke-width="2.78497"/>
<path d="M461.937 355.016V322.937L461.864 322.01L461.65 321.131L461.308 320.311L460.849 319.563L460.286 318.897L459.628 318.326L458.889 317.861L458.08 317.515L457.213 317.299L456.298 317.224L451.352 317.224L450.525 317.292L449.741 317.487L449.01 317.8L448.342 318.22L447.749 318.736L447.239 319.337L446.825 320.014L446.516 320.754L446.323 321.549L446.256 322.386L446.323 323.223L446.516 324.018L446.825 324.758L447.239 325.435L447.749 326.036L448.342 326.552L449.01 326.972L449.741 327.285L450.525 327.48L451.352 327.548L456.165 327.548L456.108 327.557H473.896L473.844 327.548L478.657 327.548L479.484 327.48L480.268 327.285L480.999 326.972L481.667 326.552L482.261 326.036L482.77 325.435L483.184 324.758L483.493 324.018L483.686 323.223L483.753 322.386L483.686 321.549L483.493 320.754L483.184 320.014L482.77 319.337L482.261 318.736L481.667 318.22L480.999 317.8L480.268 317.487L479.484 317.292L478.658 317.224L473.711 317.224L472.797 317.299L471.929 317.515L471.12 317.861L470.381 318.326L469.724 318.897L469.16 319.563L468.701 320.311L468.359 321.131L468.146 322.01L468.072 322.937V355.016" stroke="#B3B3B3" stroke-width="2.22798"/>
<path d="M452.308 354.001H477.692V357.43H452.308V354.001Z" fill="#808080" stroke="#808080" stroke-width="1.67098"/>
<path d="M452.308 354H477.692V357.428L477.582 358.819L477.261 360.138L476.748 361.367L476.06 362.491L475.214 363.489L474.228 364.346L473.119 365.043L471.905 365.563L470.603 365.888L469.231 366H460.769L459.397 365.888L458.095 365.563L456.881 365.043L455.772 364.346L454.786 363.489L453.94 362.491L453.252 361.367L452.739 360.138L452.418 358.819L452.308 357.428V354Z" fill="#141414" stroke="#141414" stroke-width="1.67098"/>
<path d="M441 358V380.018H497.25V358" stroke="black" stroke-width="2"/>
<rect x="447" y="370.734" width="43.027" height="20" rx="5" fill="black"/>
<path d="M456.519 387.734V375.614H456.159L454.279 380.054H451.599L454.459 373.734H459.079V387.734H456.519ZM461.242 387.734V386.054C461.242 385.081 461.402 384.274 461.722 383.634C462.042 382.981 462.502 382.448 463.102 382.034C463.716 381.608 464.462 381.261 465.342 380.994L466.682 380.574C467.176 380.414 467.589 380.221 467.922 379.994C468.256 379.754 468.509 379.468 468.682 379.134C468.869 378.801 468.962 378.421 468.962 377.994V377.914C468.962 377.248 468.736 376.721 468.282 376.334C467.829 375.934 467.209 375.734 466.422 375.734C465.649 375.734 465.022 375.948 464.542 376.374C464.076 376.788 463.842 377.388 463.842 378.174V378.534H461.282V378.214C461.282 377.201 461.509 376.341 461.962 375.634C462.416 374.928 463.029 374.388 463.802 374.014C464.589 373.641 465.462 373.454 466.422 373.454C467.382 373.454 468.249 373.641 469.022 374.014C469.796 374.374 470.402 374.888 470.842 375.554C471.296 376.208 471.522 376.981 471.522 377.874V378.074C471.522 378.968 471.336 379.728 470.962 380.354C470.602 380.968 470.109 381.474 469.482 381.874C468.856 382.261 468.142 382.581 467.342 382.834L466.062 383.234C465.489 383.408 465.042 383.601 464.722 383.814C464.402 384.014 464.176 384.241 464.042 384.494C463.922 384.734 463.862 385.028 463.862 385.374V385.454H471.402V387.734H461.242ZM476.197 387.734L472.637 373.734H475.357L478.317 386.034H478.597L481.557 373.734H484.277L480.717 387.734H476.197Z" fill="white"/>
<path d="M177.154 295.999L175.507 296.134L173.944 296.524L172.488 297.147L171.157 297.984L169.974 299.012L168.959 300.211L168.133 301.558L167.518 303.034L167.133 304.617L167 306.285V326.858L167.135 329.242L167.53 331.545L168.169 333.754L169.039 335.852L170.123 337.825L171.408 339.657L172.878 341.333L174.517 342.838L176.312 344.156L178.248 345.274L179.629 346.029L180.971 346.884L182.251 347.836L183.441 348.882L184.517 350.018L185.455 351.241L186.228 352.548L186.811 353.936L187.179 355.402L187.308 356.941L187.406 358.179L187.692 359.354L188.149 360.449L188.761 361.449L189.514 362.338L190.392 363.101L191.379 363.721L192.46 364.184L193.619 364.473L194.841 364.573H205.159L206.381 364.473L207.54 364.184L208.621 363.721L209.608 363.101L210.486 362.338L211.239 361.449L211.851 360.449L212.308 359.354L212.594 358.179L212.692 356.941L212.821 355.402L213.189 353.936L213.772 352.548L214.545 351.241L215.483 350.018L216.559 348.882L217.749 347.836L219.029 346.884L220.371 346.029L221.752 345.274L223.688 344.156L225.483 342.838L227.122 341.333L228.592 339.657L229.877 337.825L230.961 335.852L231.831 333.754L232.47 331.545L232.865 329.242L233 326.858V306.285L232.867 304.617L232.482 303.034L231.867 301.558L231.041 300.211L230.026 299.012L228.843 297.984L227.512 297.147L226.056 296.524L224.493 296.134L222.846 295.999H177.154Z" fill="#F2F2F2" stroke="#B3B3B3" stroke-width="2.78497"/>
<path d="M196.937 357.016V324.937L196.864 324.01L196.65 323.131L196.308 322.311L195.849 321.563L195.286 320.897L194.628 320.326L193.889 319.861L193.08 319.515L192.213 319.299L191.298 319.224L186.352 319.224L185.525 319.292L184.741 319.487L184.01 319.8L183.342 320.22L182.749 320.736L182.239 321.337L181.825 322.014L181.516 322.754L181.323 323.549L181.256 324.386L181.323 325.223L181.516 326.018L181.825 326.758L182.239 327.435L182.749 328.036L183.342 328.552L184.01 328.972L184.741 329.285L185.525 329.48L186.352 329.548L191.165 329.548L191.108 329.557H208.896L208.844 329.548L213.657 329.548L214.484 329.48L215.268 329.285L215.999 328.972L216.667 328.552L217.261 328.036L217.77 327.435L218.184 326.758L218.493 326.018L218.686 325.223L218.753 324.386L218.686 323.549L218.493 322.754L218.184 322.014L217.77 321.337L217.261 320.736L216.667 320.22L215.999 319.8L215.268 319.487L214.484 319.292L213.658 319.224L208.711 319.224L207.797 319.299L206.929 319.515L206.12 319.861L205.381 320.326L204.724 320.897L204.16 321.563L203.701 322.311L203.359 323.131L203.146 324.01L203.072 324.937V357.016" stroke="#B3B3B3" stroke-width="2.22798"/>
<path d="M187.308 356.001H212.692V359.43H187.308V356.001Z" fill="#808080" stroke="#808080" stroke-width="1.67098"/>
<path d="M187.308 356H212.692V359.428L212.582 360.819L212.261 362.138L211.748 363.367L211.06 364.491L210.214 365.489L209.228 366.346L208.119 367.043L206.905 367.563L205.603 367.888L204.231 368H195.769L194.397 367.888L193.095 367.563L191.881 367.043L190.772 366.346L189.786 365.489L188.94 364.491L188.252 363.367L187.739 362.138L187.418 360.819L187.308 359.428V356Z" fill="#141414" stroke="#141414" stroke-width="1.67098"/>
<path d="M176 360V382.018H232.25V360" stroke="black" stroke-width="2"/>
<rect x="182" y="372.734" width="43.027" height="20" rx="5" fill="black"/>
<path d="M190.519 389.734V377.614H190.159L188.279 382.054H185.599L188.459 375.734H193.079V389.734H190.519ZM195.242 389.734V388.054C195.242 387.081 195.402 386.274 195.722 385.634C196.042 384.981 196.502 384.448 197.102 384.034C197.716 383.608 198.462 383.261 199.342 382.994L200.682 382.574C201.176 382.414 201.589 382.221 201.922 381.994C202.256 381.754 202.509 381.468 202.682 381.134C202.869 380.801 202.962 380.421 202.962 379.994V379.914C202.962 379.248 202.736 378.721 202.282 378.334C201.829 377.934 201.209 377.734 200.422 377.734C199.649 377.734 199.022 377.948 198.542 378.374C198.076 378.788 197.842 379.388 197.842 380.174V380.534H195.282V380.214C195.282 379.201 195.509 378.341 195.962 377.634C196.416 376.928 197.029 376.388 197.802 376.014C198.589 375.641 199.462 375.454 200.422 375.454C201.382 375.454 202.249 375.641 203.022 376.014C203.796 376.374 204.402 376.888 204.842 377.554C205.296 378.208 205.522 378.981 205.522 379.874V380.074C205.522 380.968 205.336 381.728 204.962 382.354C204.602 382.968 204.109 383.474 203.482 383.874C202.856 384.261 202.142 384.581 201.342 384.834L200.062 385.234C199.489 385.408 199.042 385.601 198.722 385.814C198.402 386.014 198.176 386.241 198.042 386.494C197.922 386.734 197.862 387.028 197.862 387.374V387.454H205.402V389.734H195.242ZM210.197 389.734L206.637 375.734H209.357L212.317 388.034H212.597L215.557 375.734H218.277L214.717 389.734H210.197Z" fill="white"/>
<path d="M446.217 195.266V217.284H502.467V195.266" stroke="black" stroke-width="2"/>
<rect x="452.217" y="208" width="43.027" height="20" rx="5" fill="black"/>
<path d="M460.316 225V212.88H459.956L458.076 217.32H455.396L458.256 211H462.876V225H460.316ZM471.599 225V222.16H464.719V219.2L469.559 211H474.159V219.88H476.479V222.16H474.159V225H471.599ZM467.159 219.88H471.599V212.64H471.239L467.159 219.56V219.88ZM480.834 225L477.274 211H479.994L482.954 223.3H483.234L486.194 211H488.914L485.354 225H480.834Z" fill="white"/>
<path d="M485.857 189.389L485.914 188.364L486.078 187.364L486.344 186.39L486.703 185.448L487.148 184.54L487.673 183.669L488.27 182.839L488.932 182.053L489.651 181.315L490.421 180.627L492.624 178.617L494.653 176.412L496.496 174.037L498.139 171.516L499.566 168.873L500.765 166.132L501.722 163.316L502.423 160.451L502.853 157.559L503 154.664L502.607 150.015L501.471 145.604L499.651 141.491L497.212 137.735L494.213 134.395L490.718 131.53L486.787 129.199L482.482 127.461L477.866 126.374L473 125.999L468.134 126.374L463.518 127.461L459.213 129.199L455.282 131.53L451.787 134.395L448.788 137.735L446.349 141.491L444.529 145.604L443.393 150.015L443 154.664L443.147 157.559L443.577 160.451L444.278 163.316L445.235 166.132L446.434 168.873L447.861 171.516L449.504 174.037L451.347 176.412L453.376 178.617L455.579 180.627L456.349 181.315L457.068 182.053L457.73 182.839L458.327 183.669L458.852 184.54L459.297 185.448L459.656 186.39L459.922 187.364L460.086 188.364L460.143 189.389L460.238 190.577L460.514 191.703L460.955 192.754L461.546 193.713L462.273 194.566L463.121 195.298L464.074 195.893L465.118 196.337L466.237 196.614L467.417 196.71H478.583L479.763 196.614L480.882 196.337L481.926 195.893L482.879 195.298L483.727 194.566L484.454 193.713L485.045 192.754L485.486 191.703L485.762 190.577L485.857 189.389Z" fill="#F2F2F2" stroke="#B3B3B3" stroke-width="2.78497"/>
<path d="M469.897 190.426V158.799L469.816 157.782L469.58 156.818L469.202 155.918L468.696 155.097L468.073 154.367L467.347 153.74L466.531 153.23L465.637 152.85L464.679 152.613L463.669 152.531L463.178 152.531L462.247 152.606L461.364 152.825L460.541 153.175L459.79 153.645L459.121 154.222L458.548 154.895L458.081 155.651L457.733 156.48L457.516 157.368L457.441 158.305L457.516 159.241L457.733 160.13L458.081 160.958L458.548 161.715L459.121 162.387L459.79 162.964L460.541 163.434L461.364 163.784L462.247 164.003L463.178 164.078L464.05 164.078L463.992 164.087H482.011L481.958 164.078L482.831 164.078L483.761 164.003L484.644 163.784L485.467 163.434L486.219 162.964L486.887 162.387L487.461 161.715L487.927 160.958L488.275 160.13L488.493 159.241L488.568 158.305L488.493 157.368L488.275 156.48L487.927 155.651L487.461 154.895L486.887 154.222L486.219 153.645L485.467 153.175L484.644 152.825L483.762 152.606L482.831 152.531L482.34 152.531L481.329 152.613L480.371 152.85L479.477 153.23L478.661 153.74L477.936 154.367L477.313 155.097L476.807 155.918L476.429 156.818L476.193 157.782L476.111 158.799V190.426" stroke="#B3B3B3" stroke-width="2.22798"/>
<path d="M460.143 188.489H485.858V191.778L485.751 193.112L485.441 194.377L484.946 195.556L484.281 196.634L483.465 197.592L482.513 198.414L481.442 199.082L480.27 199.581L479.013 199.892L477.688 200H468.313L466.988 199.892L465.731 199.581L464.559 199.082L463.488 198.414L462.536 197.592L461.72 196.634L461.055 195.556L460.56 194.377L460.25 193.112L460.143 191.778V188.489Z" fill="#141414" stroke="#141414" stroke-width="1.67098"/>
<path d="M460.143 188.493H485.858V191.782H460.143V188.493Z" fill="#808080" stroke="#808080" stroke-width="1.67098"/>
<path d="M215.857 189.389L215.914 188.364L216.078 187.364L216.344 186.39L216.703 185.448L217.148 184.54L217.673 183.669L218.27 182.839L218.932 182.053L219.651 181.315L220.421 180.627L222.624 178.617L224.653 176.412L226.496 174.037L228.139 171.516L229.566 168.873L230.765 166.132L231.722 163.316L232.423 160.451L232.853 157.559L233 154.664L232.607 150.015L231.471 145.604L229.651 141.491L227.212 137.735L224.213 134.395L220.718 131.53L216.787 129.199L212.482 127.461L207.866 126.374L203 125.999L198.134 126.374L193.518 127.461L189.213 129.199L185.282 131.53L181.787 134.395L178.788 137.735L176.349 141.491L174.529 145.604L173.393 150.015L173 154.664L173.147 157.559L173.577 160.451L174.278 163.316L175.235 166.132L176.434 168.873L177.861 171.516L179.504 174.037L181.347 176.412L183.376 178.617L185.579 180.627L186.349 181.315L187.068 182.053L187.73 182.839L188.327 183.669L188.852 184.54L189.297 185.448L189.656 186.39L189.922 187.364L190.086 188.364L190.143 189.389L190.238 190.577L190.514 191.703L190.955 192.754L191.546 193.713L192.273 194.566L193.121 195.298L194.074 195.893L195.118 196.337L196.237 196.614L197.417 196.71H208.583L209.763 196.614L210.882 196.337L211.926 195.893L212.879 195.298L213.727 194.566L214.454 193.713L215.045 192.754L215.486 191.703L215.762 190.577L215.857 189.389Z" fill="#F2F2F2" stroke="#B3B3B3" stroke-width="2.78497"/>
<path d="M199.897 190.426V158.799L199.816 157.782L199.58 156.818L199.202 155.918L198.696 155.097L198.073 154.367L197.347 153.74L196.531 153.23L195.637 152.85L194.679 152.613L193.669 152.531L193.178 152.531L192.247 152.606L191.364 152.825L190.541 153.175L189.79 153.645L189.121 154.222L188.548 154.895L188.081 155.651L187.733 156.48L187.516 157.368L187.441 158.305L187.516 159.241L187.733 160.13L188.081 160.958L188.548 161.715L189.121 162.387L189.79 162.964L190.541 163.434L191.364 163.784L192.247 164.003L193.178 164.078L194.05 164.078L193.992 164.087H212.011L211.958 164.078L212.831 164.078L213.761 164.003L214.644 163.784L215.467 163.434L216.219 162.964L216.887 162.387L217.461 161.715L217.927 160.958L218.275 160.13L218.493 159.241L218.568 158.305L218.493 157.368L218.275 156.48L217.927 155.651L217.461 154.895L216.887 154.222L216.219 153.645L215.467 153.175L214.644 152.825L213.762 152.606L212.831 152.531L212.34 152.531L211.329 152.613L210.371 152.85L209.477 153.23L208.661 153.74L207.936 154.367L207.313 155.097L206.807 155.918L206.429 156.818L206.193 157.782L206.111 158.799V190.426" stroke="#B3B3B3" stroke-width="2.22798"/>
<path d="M190.143 188.489H215.858V191.778L215.751 193.112L215.441 194.377L214.946 195.556L214.281 196.634L213.465 197.592L212.513 198.414L211.442 199.082L210.27 199.581L209.013 199.892L207.688 200H198.313L196.988 199.892L195.731 199.581L194.559 199.082L193.488 198.414L192.536 197.592L191.72 196.634L191.055 195.556L190.56 194.377L190.25 193.112L190.143 191.778V188.489Z" fill="#141414" stroke="#141414" stroke-width="1.67098"/>
<path d="M190.143 188.493H215.858V191.782H190.143V188.493Z" fill="#808080" stroke="#808080" stroke-width="1.67098"/>
<path d="M176.217 195.266V217.284H232.467V195.266" stroke="black" stroke-width="2"/>
<rect x="182.217" y="208" width="43.027" height="20" rx="5" fill="black"/>
<path d="M190.189 225V212.88H189.829L187.949 217.32H185.269L188.129 211H192.749V225H190.189ZM200.552 225.28C198.899 225.28 197.572 224.827 196.572 223.92C195.572 223 195.072 221.613 195.072 219.76V216.24C195.072 214.44 195.572 213.073 196.572 212.14C197.572 211.193 198.899 210.72 200.552 210.72C202.219 210.72 203.545 211.193 204.532 212.14C205.532 213.073 206.032 214.44 206.032 216.24V219.76C206.032 221.613 205.532 223 204.532 223.92C203.545 224.827 202.219 225.28 200.552 225.28ZM200.552 223C201.552 223 202.285 222.727 202.752 222.18C203.232 221.633 203.472 220.853 203.472 219.84V216.12C203.472 215.093 203.205 214.32 202.672 213.8C202.152 213.267 201.445 213 200.552 213C199.632 213 198.912 213.273 198.392 213.82C197.885 214.367 197.632 215.133 197.632 216.12V219.84C197.632 220.893 197.872 221.687 198.352 222.22C198.845 222.74 199.579 223 200.552 223ZM210.961 225L207.401 211H210.121L213.081 223.3H213.361L216.321 211H219.041L215.481 225H210.961Z" fill="white"/>
</svg>
