<svg width="400" height="300" viewBox="0 0 400 300" fill="none" xmlns="http://www.w3.org/2000/svg">
<path d="M267.283 199.978H111.152C104.993 199.978 100 194.382 100 187.48V112.497C100 105.595 104.993 100 111.152 100H267.283C273.442 100 278.435 105.595 278.435 112.497V187.48C278.435 194.382 273.442 199.978 267.283 199.978Z" fill="#CE6809"/>
<path d="M100 198.414H217.098V101.561H100V198.414Z" fill="#333333"/>
<path d="M217.098 137.491H278.435V112.496H217.098V137.491Z" fill="#E77A16"/>
<path d="M100 139.044H217.098V114.05H100V139.044Z" fill="#4C4C4C"/>
<path d="M294.424 175.234H283.272C280.192 175.234 277.696 172.437 277.696 168.986V131.494C277.696 128.043 280.192 125.246 283.272 125.246H294.424C297.503 125.246 300 128.043 300 131.494V168.986C300 172.437 297.503 175.234 294.424 175.234Z" fill="#333333"/>
<path d="M291.636 143.358H280.484C278.944 143.358 277.696 141.959 277.696 140.234V133.985C277.696 132.26 278.944 130.861 280.484 130.861H291.636C293.176 130.861 294.424 132.26 294.424 133.985V140.234C294.424 141.959 293.176 143.358 291.636 143.358Z" fill="#4C4C4C"/>
<path d="M267.283 200H111.152C104.993 200 100 194.405 100 187.503V112.52C100 105.618 104.993 100.023 111.152 100.023H267.283C273.442 100.023 278.435 105.618 278.435 112.52V187.503C278.435 194.405 273.442 200 267.283 200Z" stroke="#333333" stroke-width="2.78497"/>
</svg>
