<svg width="540" height="422" viewBox="0 0 540 422" fill="none" xmlns="http://www.w3.org/2000/svg">
<mask id="mask0_227_470" style="mask-type:luminance" maskUnits="userSpaceOnUse" x="0" y="26" width="540" height="383">
<path d="M540 26.3813H0V408.381H540V26.3813Z" fill="white"/>
</mask>
<g mask="url(#mask0_227_470)">
<path d="M1 268.381V391.381H539V268.381M1 268.381H539M1 268.381V144.381M539 268.381V144.381M1 144.381V27.5396H539V144.381M1 144.381H539" stroke="black" stroke-width="2"/>
</g>
<path d="M302.641 51.5938H224.576C221.496 51.5938 219 48.7836 219 45.3172V7.658C219 4.19157 221.496 1.38147 224.576 1.38147H302.641C305.721 1.38147 308.217 4.19157 308.217 7.658V45.3172C308.217 48.7836 305.721 51.5938 302.641 51.5938Z" fill="#CE6809"/>
<path d="M219 50.8081H277.549V2.16496H219V50.8081Z" fill="#333333"/>
<path d="M277.549 20.2102H308.218V7.65713H277.549V20.2102Z" fill="#E77A16"/>
<path d="M219 20.9905H277.549V8.43741H219V20.9905Z" fill="#4C4C4C"/>
<path d="M316.212 39.1665H310.636C309.096 39.1665 307.848 37.7615 307.848 36.0282V17.1986C307.848 15.4654 309.096 14.0604 310.636 14.0604H316.212C317.752 14.0604 319 15.4654 319 17.1986V36.0282C319 37.7615 317.752 39.1665 316.212 39.1665Z" fill="#333333"/>
<path d="M314.818 23.1572H309.242C308.472 23.1572 307.848 22.4547 307.848 21.5881V18.4498C307.848 17.5832 308.472 16.8807 309.242 16.8807H314.818C315.588 16.8807 316.212 17.5832 316.212 18.4498V21.5881C316.212 22.4547 315.588 23.1572 314.818 23.1572Z" fill="#4C4C4C"/>
<path d="M302.641 51.6047H224.576C221.496 51.6047 219 48.7946 219 45.3282V7.66899C219 4.20256 221.496 1.39245 224.576 1.39245H302.641C305.721 1.39245 308.217 4.20256 308.217 7.66899V45.3282C308.217 48.7946 305.721 51.6047 302.641 51.6047Z" stroke="#333333" stroke-width="2.78497"/>
<path d="M242.662 350.48L241.98 351.374L241.365 352.297L240.819 353.247L240.343 354.221L239.937 355.217L239.602 356.231L239.34 357.261L239.152 358.304L239.038 359.358L239 360.419L239.118 362.296L239.463 364.115L240.023 365.867L240.787 367.542L241.743 369.13L242.878 370.62L244.181 372.003L245.639 373.268L247.241 374.406L248.974 375.406L250.179 376.071L251.341 376.803L252.44 377.598L253.456 378.456L254.369 379.373L255.161 380.348L255.811 381.378L256.3 382.46L256.607 383.593L256.714 384.774L256.817 385.849L257.116 386.869L257.595 387.82L258.236 388.689L259.024 389.461L259.943 390.124L260.976 390.663L262.108 391.065L263.321 391.316L264.6 391.403H275.4L276.679 391.316L277.892 391.065L279.024 390.663L280.057 390.124L280.976 389.461L281.764 388.689L282.405 387.82L282.884 386.869L283.182 385.849L283.286 384.774L283.393 383.593L283.7 382.46L284.189 381.378L284.839 380.348L285.631 379.373L286.544 378.456L287.56 377.598L288.659 376.803L289.821 376.071L291.026 375.406L292.759 374.406L294.361 373.268L295.819 372.003L297.122 370.62L298.257 369.13L299.213 367.542L299.977 365.867L300.537 364.115L300.882 362.296L301 360.419L300.962 359.358L300.848 358.304L300.66 357.261L300.398 356.231L300.063 355.217L299.657 354.221L299.181 353.247L298.635 352.297L298.02 351.374L297.338 350.48L274.384 322.323L273.682 321.624L272.864 321.08L271.958 320.692L270.994 320.459L270 320.381L269.006 320.459L268.042 320.692L267.136 321.08L266.318 321.624L265.616 322.323L242.662 350.48Z" fill="#F2F2F2" stroke="#B3B3B3" stroke-width="2.79134"/>
<path d="M266.794 385.711V355.315L266.732 354.679L266.556 354.076L266.273 353.513L265.893 353L265.427 352.543L264.884 352.151L264.273 351.832L263.603 351.594L262.885 351.446L262.129 351.394L261.372 351.446L260.655 351.594L259.985 351.832L259.374 352.151L258.831 352.543L258.365 353L257.985 353.514L257.703 354.076L257.526 354.679L257.465 355.315V359.088L257.554 360.02L257.813 360.903L258.227 361.727L258.783 362.479L259.465 363.148L260.261 363.722L261.156 364.189L262.136 364.537L263.187 364.755L264.295 364.83L263.8 364.837H276.2L275.714 364.83L276.822 364.755L277.873 364.537L278.853 364.189L279.747 363.722L280.543 363.148L281.226 362.479L281.781 361.727L282.195 360.903L282.454 360.02L282.544 359.088V355.315L282.483 354.679L282.306 354.076L282.023 353.514L281.644 353L281.178 352.543L280.634 352.151L280.023 351.832L279.354 351.594L278.636 351.446L277.88 351.394L277.123 351.446L276.405 351.594L275.736 351.832L275.125 352.151L274.581 352.543L274.115 353L273.736 353.513L273.453 354.076L273.276 354.679L273.215 355.315V385.711" stroke="#B3B3B3" stroke-width="2.23307"/>
<path d="M256.715 383.957H283.286V386.936L283.17 388.143L282.835 389.289L282.298 390.357L281.577 391.333L280.692 392.201L279.66 392.945L278.499 393.55L277.229 394.002L275.866 394.284L274.429 394.381H265.572L264.135 394.284L262.772 394.002L261.501 393.55L260.341 392.945L259.309 392.201L258.424 391.333L257.703 390.357L257.166 389.289L256.831 388.143L256.715 386.936V383.957Z" fill="#141414" stroke="#141414" stroke-width="1.67481"/>
<path d="M256.715 383.957H283.286V386.936H256.715V383.957Z" fill="#808080" stroke="#808080" stroke-width="1.67481"/>
<path d="M263.653 335.37C270.226 335.37 275.554 339.85 275.554 345.375C275.554 350.901 270.226 355.38 263.653 355.38C257.079 355.38 251.751 350.901 251.751 345.375C251.751 339.85 257.079 335.37 263.653 335.37Z" fill="white" fill-opacity="0.3"/>
<rect x="249" y="398.381" width="43.027" height="20" rx="5" fill="black"/>
<path d="M269.082 415.381V412.841H272.102C271.476 412.455 270.942 411.988 270.502 411.441C270.076 410.881 269.749 410.255 269.522 409.561C269.309 408.855 269.202 408.088 269.202 407.261C269.202 406.048 269.476 404.961 270.022 404.001C270.582 403.041 271.369 402.281 272.382 401.721C273.409 401.161 274.616 400.881 276.002 400.881C277.402 400.881 278.609 401.161 279.622 401.721C280.636 402.281 281.416 403.048 281.962 404.021C282.522 404.981 282.802 406.068 282.802 407.281C282.802 408.108 282.689 408.868 282.462 409.561C282.249 410.255 281.922 410.881 281.482 411.441C281.042 411.988 280.502 412.455 279.862 412.841H282.922V415.381H277.042V412.661C277.776 412.315 278.329 411.875 278.702 411.341C279.089 410.795 279.349 410.208 279.482 409.581C279.616 408.941 279.682 408.308 279.682 407.681C279.682 406.788 279.529 406.028 279.222 405.401C278.929 404.761 278.509 404.268 277.962 403.921C277.416 403.575 276.762 403.401 276.002 403.401C275.242 403.401 274.582 403.575 274.022 403.921C273.476 404.268 273.056 404.761 272.762 405.401C272.469 406.041 272.322 406.808 272.322 407.701C272.322 408.328 272.402 408.955 272.562 409.581C272.722 410.208 272.989 410.788 273.362 411.321C273.749 411.855 274.269 412.301 274.922 412.661V415.381H269.082Z" fill="white"/>
<path d="M256.903 415.381V413.701C256.903 412.728 257.063 411.921 257.382 411.281C257.703 410.628 258.163 410.095 258.763 409.681C259.376 409.255 260.123 408.908 261.003 408.641L262.343 408.221C262.836 408.061 263.249 407.868 263.583 407.641C263.916 407.401 264.169 407.115 264.343 406.781C264.529 406.448 264.623 406.068 264.623 405.641V405.561C264.623 404.895 264.396 404.368 263.943 403.981C263.489 403.581 262.869 403.381 262.083 403.381C261.309 403.381 260.683 403.595 260.203 404.021C259.736 404.435 259.503 405.035 259.503 405.821V406.181H256.943V405.861C256.943 404.848 257.169 403.988 257.623 403.281C258.076 402.575 258.689 402.035 259.463 401.661C260.249 401.288 261.123 401.101 262.083 401.101C263.043 401.101 263.909 401.288 264.683 401.661C265.456 402.021 266.063 402.535 266.503 403.201C266.956 403.855 267.183 404.628 267.183 405.521V405.721C267.183 406.615 266.996 407.375 266.622 408.001C266.263 408.615 265.769 409.121 265.143 409.521C264.516 409.908 263.803 410.228 263.003 410.481L261.723 410.881C261.149 411.055 260.703 411.248 260.383 411.461C260.063 411.661 259.836 411.888 259.703 412.141C259.583 412.381 259.523 412.675 259.523 413.021V413.101H267.063V415.381H256.903Z" fill="white"/>
<rect x="249" y="281.381" width="43.027" height="20" rx="5" fill="black"/>
<path d="M269.082 298.381V295.841H272.102C271.476 295.455 270.942 294.988 270.502 294.441C270.076 293.881 269.749 293.255 269.522 292.561C269.309 291.855 269.202 291.088 269.202 290.261C269.202 289.048 269.476 287.961 270.022 287.001C270.582 286.041 271.369 285.281 272.382 284.721C273.409 284.161 274.616 283.881 276.002 283.881C277.402 283.881 278.609 284.161 279.622 284.721C280.636 285.281 281.416 286.048 281.962 287.021C282.522 287.981 282.802 289.068 282.802 290.281C282.802 291.108 282.689 291.868 282.462 292.561C282.249 293.255 281.922 293.881 281.482 294.441C281.042 294.988 280.502 295.455 279.862 295.841H282.922V298.381H277.042V295.661C277.776 295.315 278.329 294.875 278.702 294.341C279.089 293.795 279.349 293.208 279.482 292.581C279.616 291.941 279.682 291.308 279.682 290.681C279.682 289.788 279.529 289.028 279.222 288.401C278.929 287.761 278.509 287.268 277.962 286.921C277.416 286.575 276.762 286.401 276.002 286.401C275.242 286.401 274.582 286.575 274.022 286.921C273.476 287.268 273.056 287.761 272.762 288.401C272.469 289.041 272.322 289.808 272.322 290.701C272.322 291.328 272.402 291.955 272.562 292.581C272.722 293.208 272.989 293.788 273.362 294.321C273.749 294.855 274.269 295.301 274.922 295.661V298.381H269.082Z" fill="white"/>
<path d="M256.903 298.381V296.701C256.903 295.728 257.063 294.921 257.382 294.281C257.703 293.628 258.163 293.095 258.763 292.681C259.376 292.255 260.123 291.908 261.003 291.641L262.343 291.221C262.836 291.061 263.249 290.868 263.583 290.641C263.916 290.401 264.169 290.115 264.343 289.781C264.529 289.448 264.623 289.068 264.623 288.641V288.561C264.623 287.895 264.396 287.368 263.943 286.981C263.489 286.581 262.869 286.381 262.083 286.381C261.309 286.381 260.683 286.595 260.203 287.021C259.736 287.435 259.503 288.035 259.503 288.821V289.181H256.943V288.861C256.943 287.848 257.169 286.988 257.623 286.281C258.076 285.575 258.689 285.035 259.463 284.661C260.249 284.288 261.123 284.101 262.083 284.101C263.043 284.101 263.909 284.288 264.683 284.661C265.456 285.021 266.063 285.535 266.503 286.201C266.956 286.855 267.183 287.628 267.183 288.521V288.721C267.183 289.615 266.996 290.375 266.622 291.001C266.263 291.615 265.769 292.121 265.143 292.521C264.516 292.908 263.803 293.228 263.003 293.481L261.723 293.881C261.149 294.055 260.703 294.248 260.383 294.461C260.063 294.661 259.836 294.888 259.703 295.141C259.583 295.381 259.523 295.675 259.523 296.021V296.101H267.063V298.381H256.903Z" fill="white"/>
<path d="M246.154 202.381L244.507 202.516L242.944 202.906L241.488 203.53L240.157 204.366L238.974 205.394L237.959 206.593L237.133 207.94L236.518 209.416L236.133 210.999L236 212.668V233.24L236.135 235.624L236.53 237.928L237.169 240.136L238.039 242.234L239.123 244.207L240.408 246.039L241.878 247.715L243.517 249.22L245.312 250.539L247.248 251.656L248.629 252.411L249.971 253.266L251.251 254.218L252.441 255.264L253.517 256.4L254.455 257.623L255.228 258.93L255.811 260.318L256.179 261.784L256.308 263.323L256.406 264.561L256.692 265.736L257.149 266.831L257.761 267.831L258.514 268.72L259.392 269.483L260.379 270.103L261.46 270.566L262.619 270.855L263.841 270.955H274.159L275.381 270.855L276.54 270.566L277.621 270.103L278.608 269.483L279.486 268.72L280.239 267.831L280.851 266.831L281.308 265.736L281.594 264.561L281.692 263.323L281.821 261.784L282.189 260.318L282.772 258.93L283.545 257.623L284.483 256.4L285.559 255.264L286.749 254.218L288.029 253.266L289.371 252.411L290.752 251.656L292.688 250.539L294.483 249.22L296.122 247.715L297.592 246.039L298.877 244.207L299.961 242.234L300.831 240.136L301.47 237.928L301.865 235.624L302 233.24V212.668L301.867 210.999L301.482 209.416L300.867 207.94L300.041 206.593L299.026 205.394L297.843 204.366L296.512 203.53L295.056 202.906L293.493 202.516L291.846 202.381H246.154Z" fill="#F2F2F2" stroke="#B3B3B3" stroke-width="2.78497"/>
<path d="M265.937 263.397V231.318L265.864 230.392L265.65 229.513L265.308 228.693L264.849 227.944L264.286 227.279L263.628 226.708L262.889 226.243L262.08 225.897L261.213 225.68L260.298 225.606L255.352 225.606L254.525 225.673L253.741 225.869L253.01 226.182L252.342 226.602L251.749 227.118L251.239 227.719L250.825 228.396L250.516 229.136L250.323 229.931L250.256 230.768L250.323 231.605L250.516 232.399L250.825 233.14L251.239 233.816L251.749 234.418L252.342 234.934L253.01 235.354L253.741 235.667L254.525 235.862L255.352 235.93L260.165 235.93L260.108 235.938H277.896L277.844 235.93L282.657 235.93L283.484 235.862L284.268 235.667L284.999 235.354L285.667 234.934L286.261 234.418L286.77 233.816L287.184 233.14L287.493 232.399L287.686 231.605L287.753 230.768L287.686 229.931L287.493 229.136L287.184 228.396L286.77 227.719L286.261 227.118L285.667 226.602L284.999 226.182L284.268 225.869L283.484 225.673L282.658 225.606L277.711 225.606L276.797 225.68L275.929 225.897L275.12 226.243L274.381 226.708L273.724 227.279L273.16 227.944L272.701 228.693L272.359 229.513L272.146 230.392L272.072 231.318V263.397" stroke="#B3B3B3" stroke-width="2.22798"/>
<path d="M256.308 262.382H281.692V265.811H256.308V262.382Z" fill="#808080" stroke="#808080" stroke-width="1.67098"/>
<path d="M256.308 262.381H281.692V265.81L281.582 267.2L281.261 268.519L280.748 269.749L280.06 270.872L279.214 271.871L278.228 272.728L277.119 273.425L275.905 273.944L274.603 274.269L273.231 274.381H264.769L263.397 274.269L262.095 273.944L260.881 273.425L259.772 272.728L258.786 271.871L257.94 270.872L257.252 269.749L256.739 268.519L256.418 267.2L256.308 265.81V262.381Z" fill="#141414" stroke="#141414" stroke-width="1.67098"/>
<rect x="247.217" y="157.381" width="43.027" height="20" rx="5" fill="black"/>
<path d="M266.299 174.381V171.841H269.319C268.692 171.455 268.159 170.988 267.719 170.441C267.292 169.881 266.966 169.255 266.739 168.561C266.526 167.855 266.419 167.088 266.419 166.261C266.419 165.048 266.692 163.961 267.239 163.001C267.799 162.041 268.586 161.281 269.599 160.721C270.626 160.161 271.832 159.881 273.219 159.881C274.619 159.881 275.826 160.161 276.839 160.721C277.852 161.281 278.632 162.048 279.179 163.021C279.739 163.981 280.019 165.068 280.019 166.281C280.019 167.108 279.906 167.868 279.679 168.561C279.466 169.255 279.139 169.881 278.699 170.441C278.259 170.988 277.719 171.455 277.079 171.841H280.139V174.381H274.259V171.661C274.992 171.315 275.546 170.875 275.919 170.341C276.306 169.795 276.566 169.208 276.699 168.581C276.832 167.941 276.899 167.308 276.899 166.681C276.899 165.788 276.746 165.028 276.439 164.401C276.146 163.761 275.726 163.268 275.179 162.921C274.632 162.575 273.979 162.401 273.219 162.401C272.459 162.401 271.799 162.575 271.239 162.921C270.692 163.268 270.272 163.761 269.979 164.401C269.686 165.041 269.539 165.808 269.539 166.701C269.539 167.328 269.619 167.955 269.779 168.581C269.939 169.208 270.206 169.788 270.579 170.321C270.966 170.855 271.486 171.301 272.139 171.661V174.381H266.299Z" fill="white"/>
<path d="M254.119 174.381V172.701C254.119 171.728 254.279 170.921 254.599 170.281C254.919 169.628 255.379 169.095 255.979 168.681C256.593 168.255 257.339 167.908 258.219 167.641L259.559 167.221C260.053 167.061 260.466 166.868 260.799 166.641C261.133 166.401 261.386 166.115 261.559 165.781C261.746 165.448 261.839 165.068 261.839 164.641V164.561C261.839 163.895 261.613 163.368 261.159 162.981C260.706 162.581 260.086 162.381 259.299 162.381C258.526 162.381 257.899 162.595 257.419 163.021C256.953 163.435 256.719 164.035 256.719 164.821V165.181H254.159V164.861C254.159 163.848 254.386 162.988 254.839 162.281C255.293 161.575 255.906 161.035 256.679 160.661C257.466 160.288 258.339 160.101 259.299 160.101C260.259 160.101 261.126 160.288 261.899 160.661C262.673 161.021 263.279 161.535 263.719 162.201C264.173 162.855 264.399 163.628 264.399 164.521V164.721C264.399 165.615 264.213 166.375 263.839 167.001C263.479 167.615 262.986 168.121 262.359 168.521C261.733 168.908 261.019 169.228 260.219 169.481L258.939 169.881C258.366 170.055 257.919 170.248 257.599 170.461C257.279 170.661 257.053 170.888 256.919 171.141C256.799 171.381 256.739 171.675 256.739 172.021V172.101H264.279V174.381H254.119Z" fill="white"/>
<path d="M280.857 138.771L280.914 137.746L281.078 136.746L281.344 135.772L281.703 134.83L282.148 133.922L282.673 133.051L283.27 132.221L283.932 131.435L284.651 130.697L285.421 130.01L287.624 127.999L289.653 125.794L291.496 123.419L293.139 120.898L294.566 118.255L295.765 115.514L296.722 112.698L297.423 109.833L297.853 106.941L298 104.047L297.607 99.3969L296.471 94.9861L294.651 90.8732L292.212 87.1173L289.213 83.7772L285.718 80.9121L281.787 78.5809L277.482 76.8427L272.866 75.7566L268 75.3814L263.134 75.7566L258.518 76.8427L254.213 78.5809L250.282 80.9121L246.787 83.7772L243.788 87.1173L241.349 90.8732L239.529 94.9861L238.393 99.3969L238 104.047L238.147 106.941L238.577 109.833L239.278 112.698L240.235 115.514L241.434 118.255L242.861 120.898L244.504 123.419L246.347 125.794L248.376 127.999L250.579 130.01L251.349 130.697L252.068 131.435L252.73 132.221L253.327 133.051L253.852 133.922L254.297 134.83L254.656 135.772L254.922 136.746L255.086 137.746L255.143 138.771L255.238 139.959L255.514 141.085L255.955 142.136L256.546 143.095L257.273 143.948L258.121 144.68L259.074 145.275L260.118 145.719L261.237 145.996L262.417 146.092H273.583L274.763 145.996L275.882 145.719L276.926 145.275L277.879 144.68L278.727 143.948L279.454 143.095L280.045 142.136L280.486 141.085L280.762 139.959L280.857 138.771Z" fill="#F2F2F2" stroke="#B3B3B3" stroke-width="2.78497"/>
<path d="M264.897 139.807V108.18L264.816 107.164L264.58 106.199L264.202 105.3L263.696 104.478L263.073 103.748L262.347 103.121L261.531 102.612L260.637 102.232L259.679 101.994L258.669 101.912L258.178 101.912L257.247 101.988L256.364 102.207L255.541 102.557L254.79 103.026L254.121 103.603L253.548 104.276L253.081 105.033L252.733 105.861L252.516 106.749L252.441 107.686L252.516 108.623L252.733 109.511L253.081 110.339L253.548 111.096L254.121 111.769L254.79 112.346L255.541 112.815L256.364 113.165L257.247 113.384L258.178 113.46L259.05 113.46L258.992 113.468H277.011L276.958 113.46L277.831 113.46L278.761 113.384L279.644 113.165L280.467 112.815L281.219 112.346L281.887 111.769L282.461 111.096L282.927 110.339L283.275 109.511L283.493 108.623L283.568 107.686L283.493 106.749L283.275 105.861L282.927 105.033L282.461 104.276L281.887 103.603L281.219 103.026L280.467 102.557L279.644 102.207L278.762 101.988L277.831 101.912L277.34 101.912L276.329 101.994L275.371 102.232L274.477 102.612L273.661 103.121L272.936 103.748L272.313 104.478L271.807 105.3L271.429 106.199L271.193 107.164L271.111 108.18V139.807" stroke="#B3B3B3" stroke-width="2.22798"/>
<path d="M255.143 137.87H280.858V141.159L280.751 142.493L280.441 143.758L279.946 144.938L279.281 146.015L278.465 146.973L277.513 147.795L276.442 148.464L275.27 148.962L274.013 149.274L272.688 149.381H263.313L261.988 149.274L260.731 148.962L259.559 148.464L258.488 147.795L257.536 146.973L256.72 146.015L256.055 144.938L255.56 143.758L255.25 142.493L255.143 141.159V137.87Z" fill="#141414" stroke="#141414" stroke-width="1.67098"/>
<path d="M255.143 137.875H280.858V141.164H255.143V137.875Z" fill="#808080" stroke="#808080" stroke-width="1.67098"/>
</svg>
