<svg width="300" height="150" viewBox="0 0 300 150" fill="none" xmlns="http://www.w3.org/2000/svg">
<path d="M200.462 124.983H83.3641C78.7447 124.983 75 120.787 75 115.61V59.3729C75 54.1964 78.7447 50 83.3641 50H200.462C205.081 50 208.826 54.1964 208.826 59.3729V115.61C208.826 120.787 205.081 124.983 200.462 124.983Z" fill="#CE6809"/>
<path d="M75 123.811H162.823V51.1706H75V123.811Z" fill="#333333"/>
<path d="M162.823 78.1179H208.826V59.372H162.823V78.1179Z" fill="#E77A16"/>
<path d="M75 79.2831H162.823V60.5373H75V79.2831Z" fill="#4C4C4C"/>
<path d="M220.818 106.426H212.454C210.144 106.426 208.272 104.328 208.272 101.739V73.6206C208.272 71.0324 210.144 68.9342 212.454 68.9342H220.818C223.128 68.9342 225 71.0324 225 73.6206V101.739C225 104.328 223.128 106.426 220.818 106.426Z" fill="#333333"/>
<path d="M218.727 82.5184H210.363C209.208 82.5184 208.272 81.4693 208.272 80.1752V75.4888C208.272 74.1946 209.208 73.1455 210.363 73.1455H218.727C219.882 73.1455 220.818 74.1946 220.818 75.4888V80.1752C220.818 81.4693 219.882 82.5184 218.727 82.5184Z" fill="#4C4C4C"/>
<path d="M200.462 125H83.3641C78.7447 125 75 120.804 75 115.627V59.3897C75 54.2131 78.7447 50.0168 83.3641 50.0168H200.462C205.081 50.0168 208.826 54.2131 208.826 59.3897V115.627C208.826 120.804 205.081 125 200.462 125Z" stroke="#333333" stroke-width="2.78497"/>
</svg>
