<svg width="542" height="449" viewBox="0 0 542 449" fill="none" xmlns="http://www.w3.org/2000/svg">
<path d="M317.383 347.612V268.576H215.601V347.612M317.383 347.612V417.382H215.601V347.612M317.383 347.612H541.005V160.651M215.601 347.612H1.00464L1.87468 160.651M1.87468 160.651L2.50882 24.3818H541.005V160.651M1.87468 160.651H541.005" stroke="black" stroke-width="2"/>
<path d="M321.646 49.3711H243.581C240.501 49.3711 238.005 46.6854 238.005 43.3724V7.38042C238.005 4.06744 240.501 1.38175 243.581 1.38175H321.646C324.725 1.38175 327.222 4.06744 327.222 7.38042V43.3724C327.222 46.6854 324.725 49.3711 321.646 49.3711Z" fill="#CE6809"/>
<path d="M238.005 48.6206H296.554V2.13093H238.005V48.6206Z" fill="#333333"/>
<path d="M296.554 19.377H327.222V7.37962H296.554V19.377Z" fill="#E77A16"/>
<path d="M238.005 20.123H296.554V8.12571H238.005V20.123Z" fill="#4C4C4C"/>
<path d="M335.217 37.4941H329.64C328.101 37.4941 326.852 36.1513 326.852 34.4948V16.4988C326.852 14.8423 328.101 13.4995 329.64 13.4995H335.217C336.756 13.4995 338.005 14.8423 338.005 16.4988V34.4948C338.005 36.1513 336.756 37.4941 335.217 37.4941Z" fill="#333333"/>
<path d="M333.823 22.1934H328.246C327.477 22.1934 326.852 21.5219 326.852 20.6937V17.6944C326.852 16.8661 327.477 16.1947 328.246 16.1947H333.823C334.592 16.1947 335.217 16.8661 335.217 17.6944V20.6937C335.217 21.5219 334.592 22.1934 333.823 22.1934Z" fill="#4C4C4C"/>
<path d="M321.646 49.3818H243.581C240.501 49.3818 238.005 46.6961 238.005 43.3832V7.39116C238.005 4.07819 240.501 1.39249 243.581 1.39249H321.646C324.725 1.39249 327.222 4.07819 327.222 7.39116V43.3832C327.222 46.6961 324.725 49.3818 321.646 49.3818Z" stroke="#333333" stroke-width="2.78497"/>
<path d="M240.667 377.481L239.985 378.374L239.37 379.297L238.824 380.247L238.347 381.221L237.941 382.217L237.607 383.231L237.345 384.261L237.157 385.304L237.043 386.358L237.005 387.419L237.122 389.296L237.467 391.115L238.028 392.867L238.792 394.542L239.748 396.13L240.883 397.62L242.185 399.003L243.644 400.269L245.245 401.406L246.979 402.407L248.184 403.071L249.345 403.803L250.444 404.599L251.46 405.456L252.374 406.374L253.166 407.348L253.816 408.378L254.304 409.46L254.612 410.593L254.719 411.774L254.822 412.849L255.121 413.869L255.599 414.821L256.24 415.689L257.029 416.462L257.948 417.124L258.981 417.663L260.112 418.065L261.326 418.317L262.605 418.403H273.404L274.684 418.317L275.897 418.065L277.028 417.663L278.062 417.124L278.981 416.462L279.769 415.689L280.41 414.821L280.888 413.869L281.187 412.849L281.29 411.774L281.397 410.593L281.705 409.46L282.194 408.378L282.844 407.348L283.635 406.374L284.549 405.456L285.565 404.599L286.664 403.803L287.826 403.071L289.031 402.407L290.764 401.406L292.366 400.269L293.824 399.003L295.127 397.62L296.262 396.13L297.217 394.542L297.981 392.867L298.542 391.115L298.887 389.296L299.005 387.419L298.967 386.358L298.853 385.304L298.664 384.261L298.403 383.231L298.068 382.217L297.662 381.221L297.185 380.247L296.639 379.297L296.024 378.374L295.342 377.481L272.388 349.324L271.687 348.624L270.869 348.081L269.963 347.692L268.998 347.459L268.005 347.382L267.011 347.459L266.047 347.692L265.141 348.081L264.322 348.624L263.621 349.324L240.667 377.481Z" fill="#F2F2F2" stroke="#B3B3B3" stroke-width="2.79134"/>
<path d="M264.798 412.711V382.316L264.737 381.68L264.56 381.076L264.277 380.514L263.898 380L263.432 379.543L262.888 379.151L262.277 378.832L261.608 378.594L260.89 378.446L260.134 378.395L259.377 378.446L258.659 378.595L257.99 378.832L257.379 379.151L256.836 379.543L256.369 380L255.99 380.514L255.707 381.076L255.531 381.68L255.469 382.316V386.089L255.559 387.02L255.818 387.903L256.232 388.727L256.787 389.479L257.47 390.148L258.266 390.722L259.161 391.189L260.14 391.537L261.191 391.755L262.299 391.83L261.805 391.837H274.205L273.719 391.83L274.826 391.755L275.877 391.537L276.857 391.189L277.752 390.722L278.548 390.148L279.231 389.479L279.786 388.727L280.2 387.903L280.459 387.02L280.548 386.089V382.316L280.487 381.68L280.31 381.076L280.028 380.514L279.648 380L279.182 379.543L278.639 379.151L278.028 378.832L277.358 378.595L276.641 378.446L275.884 378.395L275.128 378.446L274.41 378.594L273.741 378.832L273.129 379.151L272.586 379.543L272.12 380L271.74 380.514L271.457 381.076L271.281 381.68L271.22 382.316V412.711" stroke="#B3B3B3" stroke-width="2.23307"/>
<path d="M254.719 410.958H281.291V413.936L281.175 415.144L280.839 416.29L280.302 417.358L279.582 418.333L278.697 419.201L277.665 419.945L276.504 420.551L275.233 421.002L273.87 421.284L272.434 421.382H263.577L262.14 421.284L260.777 421.002L259.506 420.551L258.346 419.945L257.314 419.201L256.428 418.333L255.708 417.358L255.171 416.29L254.835 415.144L254.719 413.936V410.958Z" fill="#141414" stroke="#141414" stroke-width="1.67481"/>
<path d="M254.719 410.958H281.291V413.936H254.719V410.958Z" fill="#808080" stroke="#808080" stroke-width="1.67481"/>
<path d="M261.657 362.371C268.23 362.371 273.559 366.85 273.559 372.376C273.559 377.901 268.23 382.381 261.657 382.381C255.084 382.381 249.755 377.901 249.755 372.376C249.755 366.85 255.084 362.371 261.657 362.371Z" fill="white" fill-opacity="0.3"/>
<rect x="247.005" y="425.382" width="45" height="20" rx="5" fill="black"/>
<path d="M272.087 442.382V439.842H275.107C274.48 439.455 273.947 438.989 273.507 438.442C273.08 437.882 272.754 437.255 272.527 436.562C272.314 435.855 272.207 435.089 272.207 434.262C272.207 433.049 272.48 431.962 273.027 431.002C273.587 430.042 274.374 429.282 275.387 428.722C276.414 428.162 277.62 427.882 279.007 427.882C280.407 427.882 281.614 428.162 282.627 428.722C283.64 429.282 284.42 430.049 284.967 431.022C285.527 431.982 285.807 433.069 285.807 434.282C285.807 435.109 285.694 435.869 285.467 436.562C285.254 437.255 284.927 437.882 284.487 438.442C284.047 438.989 283.507 439.455 282.867 439.842H285.927V442.382H280.047V439.662C280.78 439.315 281.334 438.875 281.707 438.342C282.094 437.795 282.354 437.209 282.487 436.582C282.62 435.942 282.687 435.309 282.687 434.682C282.687 433.789 282.534 433.029 282.227 432.402C281.934 431.762 281.514 431.269 280.967 430.922C280.42 430.575 279.767 430.402 279.007 430.402C278.247 430.402 277.587 430.575 277.027 430.922C276.48 431.269 276.06 431.762 275.767 432.402C275.474 433.042 275.327 433.809 275.327 434.702C275.327 435.329 275.407 435.955 275.567 436.582C275.727 437.209 275.994 437.789 276.367 438.322C276.754 438.855 277.274 439.302 277.927 439.662V442.382H272.087Z" fill="white"/>
<path d="M255.706 442.382V430.262H255.346L253.466 434.702H250.786L253.646 428.382H258.266V442.382H255.706ZM260.429 442.382V440.702C260.429 439.729 260.589 438.922 260.909 438.282C261.229 437.629 261.689 437.095 262.289 436.682C262.902 436.255 263.649 435.909 264.529 435.642L265.869 435.222C266.362 435.062 266.775 434.869 267.109 434.642C267.442 434.402 267.695 434.115 267.869 433.782C268.055 433.449 268.149 433.069 268.149 432.642V432.562C268.149 431.895 267.922 431.369 267.469 430.982C267.015 430.582 266.395 430.382 265.609 430.382C264.835 430.382 264.209 430.595 263.729 431.022C263.262 431.435 263.029 432.035 263.029 432.822V433.182H260.469V432.862C260.469 431.849 260.695 430.989 261.149 430.282C261.602 429.575 262.215 429.035 262.989 428.662C263.775 428.289 264.649 428.102 265.609 428.102C266.569 428.102 267.435 428.289 268.209 428.662C268.982 429.022 269.589 429.535 270.029 430.202C270.482 430.855 270.709 431.629 270.709 432.522V432.722C270.709 433.615 270.522 434.375 270.149 435.002C269.789 435.615 269.295 436.122 268.669 436.522C268.042 436.909 267.329 437.229 266.529 437.482L265.249 437.882C264.675 438.055 264.229 438.249 263.909 438.462C263.589 438.662 263.362 438.889 263.229 439.142C263.109 439.382 263.049 439.675 263.049 440.022V440.102H270.589V442.382H260.429Z" fill="white"/>
<path d="M241.667 230.481L240.985 231.374L240.37 232.297L239.824 233.247L239.347 234.221L238.941 235.217L238.607 236.231L238.345 237.261L238.157 238.304L238.043 239.358L238.005 240.419L238.122 242.296L238.467 244.115L239.028 245.867L239.792 247.542L240.748 249.13L241.883 250.62L243.185 252.003L244.644 253.269L246.245 254.406L247.979 255.407L249.184 256.071L250.345 256.803L251.444 257.599L252.46 258.456L253.374 259.374L254.166 260.348L254.816 261.378L255.304 262.46L255.612 263.593L255.719 264.774L255.822 265.849L256.121 266.869L256.599 267.821L257.24 268.689L258.029 269.462L258.948 270.124L259.981 270.663L261.112 271.065L262.326 271.317L263.605 271.403H274.404L275.684 271.317L276.897 271.065L278.028 270.663L279.062 270.124L279.981 269.462L280.769 268.689L281.41 267.821L281.888 266.869L282.187 265.849L282.29 264.774L282.397 263.593L282.705 262.46L283.194 261.378L283.844 260.348L284.635 259.374L285.549 258.456L286.565 257.599L287.664 256.803L288.826 256.071L290.031 255.407L291.764 254.406L293.366 253.269L294.824 252.003L296.127 250.62L297.262 249.13L298.217 247.542L298.981 245.867L299.542 244.115L299.887 242.296L300.005 240.419L299.967 239.358L299.853 238.304L299.664 237.261L299.403 236.231L299.068 235.217L298.662 234.221L298.185 233.247L297.639 232.297L297.024 231.374L296.342 230.481L273.388 202.324L272.687 201.624L271.869 201.081L270.963 200.692L269.998 200.459L269.005 200.382L268.011 200.459L267.047 200.692L266.141 201.081L265.322 201.624L264.621 202.324L241.667 230.481Z" fill="#F2F2F2" stroke="#B3B3B3" stroke-width="2.79134"/>
<path d="M265.798 265.711V235.316L265.737 234.68L265.56 234.076L265.277 233.514L264.898 233L264.432 232.543L263.888 232.151L263.277 231.832L262.608 231.594L261.89 231.446L261.134 231.395L260.377 231.446L259.659 231.595L258.99 231.832L258.379 232.151L257.836 232.543L257.369 233L256.99 233.514L256.707 234.076L256.531 234.68L256.469 235.316V239.089L256.559 240.02L256.818 240.903L257.232 241.727L257.787 242.479L258.47 243.148L259.266 243.722L260.161 244.189L261.14 244.537L262.191 244.755L263.299 244.83L262.805 244.837H275.205L274.719 244.83L275.826 244.755L276.877 244.537L277.857 244.189L278.752 243.722L279.548 243.148L280.231 242.479L280.786 241.727L281.2 240.903L281.459 240.02L281.548 239.089V235.316L281.487 234.68L281.31 234.076L281.028 233.514L280.648 233L280.182 232.543L279.639 232.151L279.028 231.832L278.358 231.595L277.641 231.446L276.884 231.395L276.128 231.446L275.41 231.594L274.741 231.832L274.129 232.151L273.586 232.543L273.12 233L272.74 233.514L272.457 234.076L272.281 234.68L272.22 235.316V265.711" stroke="#B3B3B3" stroke-width="2.23307"/>
<path d="M255.719 263.958H282.291V266.936L282.175 268.144L281.839 269.29L281.302 270.358L280.582 271.333L279.697 272.201L278.665 272.945L277.504 273.551L276.233 274.002L274.87 274.284L273.434 274.382H264.577L263.14 274.284L261.777 274.002L260.506 273.551L259.346 272.945L258.314 272.201L257.428 271.333L256.708 270.358L256.171 269.29L255.835 268.144L255.719 266.936V263.958Z" fill="#141414" stroke="#141414" stroke-width="1.67481"/>
<path d="M255.719 263.958H282.291V266.936H255.719V263.958Z" fill="#808080" stroke="#808080" stroke-width="1.67481"/>
<path d="M262.657 215.371C269.23 215.371 274.559 219.85 274.559 225.376C274.559 230.901 269.23 235.381 262.657 235.381C256.084 235.381 250.755 230.901 250.755 225.376C250.755 219.85 256.084 215.371 262.657 215.371Z" fill="white" fill-opacity="0.3"/>
<rect x="247.005" y="278.382" width="45" height="20" rx="5" fill="black"/>
<path d="M268.087 295.382V292.842H271.107C270.48 292.455 269.947 291.989 269.507 291.442C269.08 290.882 268.754 290.255 268.527 289.562C268.314 288.855 268.207 288.089 268.207 287.262C268.207 286.049 268.48 284.962 269.027 284.002C269.587 283.042 270.374 282.282 271.387 281.722C272.414 281.162 273.62 280.882 275.007 280.882C276.407 280.882 277.614 281.162 278.627 281.722C279.64 282.282 280.42 283.049 280.967 284.022C281.527 284.982 281.807 286.069 281.807 287.282C281.807 288.109 281.694 288.869 281.467 289.562C281.254 290.255 280.927 290.882 280.487 291.442C280.047 291.989 279.507 292.455 278.867 292.842H281.927V295.382H276.047V292.662C276.78 292.315 277.334 291.875 277.707 291.342C278.094 290.795 278.354 290.209 278.487 289.582C278.62 288.942 278.687 288.309 278.687 287.682C278.687 286.789 278.534 286.029 278.227 285.402C277.934 284.762 277.514 284.269 276.967 283.922C276.42 283.575 275.767 283.402 275.007 283.402C274.247 283.402 273.587 283.575 273.027 283.922C272.48 284.269 272.06 284.762 271.767 285.402C271.474 286.042 271.327 286.809 271.327 287.702C271.327 288.329 271.407 288.955 271.567 289.582C271.727 290.209 271.994 290.789 272.367 291.322C272.754 291.855 273.274 292.302 273.927 292.662V295.382H268.087Z" fill="white"/>
<path d="M263.047 295.382V292.542H256.167V289.582L261.007 281.382H265.607V290.262H267.927V292.542H265.607V295.382H263.047ZM258.607 290.262H263.047V283.022H262.687L258.607 289.942V290.262Z" fill="white"/>
<path d="M442.667 120.481L441.985 121.374L441.37 122.297L440.824 123.247L440.347 124.221L439.941 125.217L439.607 126.231L439.345 127.261L439.157 128.304L439.043 129.358L439.005 130.419L439.122 132.296L439.467 134.115L440.028 135.867L440.792 137.542L441.748 139.13L442.883 140.62L444.185 142.003L445.644 143.269L447.245 144.406L448.979 145.407L450.184 146.071L451.345 146.803L452.444 147.599L453.46 148.456L454.374 149.374L455.166 150.348L455.816 151.378L456.304 152.46L456.612 153.593L456.719 154.774L456.822 155.849L457.121 156.869L457.599 157.821L458.24 158.689L459.029 159.462L459.948 160.124L460.981 160.663L462.112 161.065L463.326 161.317L464.605 161.403H475.404L476.684 161.317L477.897 161.065L479.028 160.663L480.062 160.124L480.981 159.462L481.769 158.689L482.41 157.821L482.888 156.869L483.187 155.849L483.29 154.774L483.397 153.593L483.705 152.46L484.194 151.378L484.844 150.348L485.635 149.374L486.549 148.456L487.565 147.599L488.664 146.803L489.826 146.071L491.031 145.407L492.764 144.406L494.366 143.269L495.824 142.003L497.127 140.62L498.262 139.13L499.217 137.542L499.981 135.867L500.542 134.115L500.887 132.296L501.005 130.419L500.967 129.358L500.853 128.304L500.664 127.261L500.403 126.231L500.068 125.217L499.662 124.221L499.185 123.247L498.639 122.297L498.024 121.374L497.342 120.481L474.388 92.3236L473.687 91.6245L472.869 91.0807L471.963 90.6923L470.998 90.4593L470.005 90.3816L469.011 90.4593L468.047 90.6923L467.141 91.0807L466.322 91.6245L465.621 92.3236L442.667 120.481Z" fill="#F2F2F2" stroke="#B3B3B3" stroke-width="2.79134"/>
<path d="M466.798 155.711V125.316L466.737 124.68L466.56 124.076L466.277 123.514L465.898 123L465.432 122.543L464.888 122.151L464.277 121.832L463.608 121.594L462.89 121.446L462.134 121.395L461.377 121.446L460.659 121.595L459.99 121.832L459.379 122.151L458.836 122.543L458.369 123L457.99 123.514L457.707 124.076L457.531 124.68L457.469 125.316V129.089L457.559 130.02L457.818 130.903L458.232 131.727L458.787 132.479L459.47 133.148L460.266 133.722L461.161 134.189L462.14 134.537L463.191 134.755L464.299 134.83L463.805 134.837H476.205L475.719 134.83L476.826 134.755L477.877 134.537L478.857 134.189L479.752 133.722L480.548 133.148L481.231 132.479L481.786 131.727L482.2 130.903L482.459 130.02L482.548 129.089V125.316L482.487 124.68L482.31 124.076L482.028 123.514L481.648 123L481.182 122.543L480.639 122.151L480.028 121.832L479.358 121.595L478.641 121.446L477.884 121.395L477.128 121.446L476.41 121.594L475.741 121.832L475.129 122.151L474.586 122.543L474.12 123L473.74 123.514L473.457 124.076L473.281 124.68L473.22 125.316V155.711" stroke="#B3B3B3" stroke-width="2.23307"/>
<path d="M456.719 153.958H483.291V156.936L483.175 158.144L482.839 159.29L482.302 160.358L481.582 161.333L480.697 162.201L479.665 162.945L478.504 163.551L477.233 164.002L475.87 164.284L474.434 164.382H465.577L464.14 164.284L462.777 164.002L461.506 163.551L460.346 162.945L459.314 162.201L458.428 161.333L457.708 160.358L457.171 159.29L456.835 158.144L456.719 156.936V153.958Z" fill="#141414" stroke="#141414" stroke-width="1.67481"/>
<path d="M456.719 153.958H483.291V156.936H456.719V153.958Z" fill="#808080" stroke="#808080" stroke-width="1.67481"/>
<path d="M463.657 105.371C470.23 105.371 475.559 109.85 475.559 115.376C475.559 120.901 470.23 125.381 463.657 125.381C457.084 125.381 451.755 120.901 451.755 115.376C451.755 109.85 457.084 105.371 463.657 105.371Z" fill="white" fill-opacity="0.3"/>
<rect x="452.005" y="169.382" width="45" height="20" rx="5" fill="black"/>
<path d="M471.087 186.382V183.842H474.107C473.48 183.455 472.947 182.989 472.507 182.442C472.08 181.882 471.754 181.255 471.527 180.562C471.314 179.855 471.207 179.089 471.207 178.262C471.207 177.049 471.48 175.962 472.027 175.002C472.587 174.042 473.374 173.282 474.387 172.722C475.414 172.162 476.62 171.882 478.007 171.882C479.407 171.882 480.614 172.162 481.627 172.722C482.64 173.282 483.42 174.049 483.967 175.022C484.527 175.982 484.807 177.069 484.807 178.282C484.807 179.109 484.694 179.869 484.467 180.562C484.254 181.255 483.927 181.882 483.487 182.442C483.047 182.989 482.507 183.455 481.867 183.842H484.927V186.382H479.047V183.662C479.78 183.315 480.334 182.875 480.707 182.342C481.094 181.795 481.354 181.209 481.487 180.582C481.62 179.942 481.687 179.309 481.687 178.682C481.687 177.789 481.534 177.029 481.227 176.402C480.934 175.762 480.514 175.269 479.967 174.922C479.42 174.575 478.767 174.402 478.007 174.402C477.247 174.402 476.587 174.575 476.027 174.922C475.48 175.269 475.06 175.762 474.767 176.402C474.474 177.042 474.327 177.809 474.327 178.702C474.327 179.329 474.407 179.955 474.567 180.582C474.727 181.209 474.994 181.789 475.367 182.322C475.754 182.855 476.274 183.302 476.927 183.662V186.382H471.087Z" fill="white"/>
<path d="M465.643 186.382V174.262H465.283L463.403 178.702H460.723L463.583 172.382H468.203V186.382H465.643Z" fill="white"/>
<path d="M248.158 92.3817L246.511 92.5163L244.949 92.9061L243.492 93.5298L242.162 94.3663L240.979 95.3944L239.964 96.5929L239.138 97.9407L238.522 99.4166L238.138 100.999L238.005 102.668V123.24L238.14 125.624L238.534 127.928L239.174 130.136L240.043 132.235L241.128 134.207L242.413 136.039L243.882 137.715L245.522 139.22L247.317 140.539L249.252 141.656L250.633 142.411L251.976 143.267L253.255 144.219L254.446 145.264L255.522 146.4L256.459 147.623L257.232 148.93L257.815 150.318L258.184 151.784L258.312 153.324L258.411 154.562L258.696 155.736L259.153 156.831L259.766 157.831L260.519 158.72L261.397 159.483L262.384 160.104L263.465 160.566L264.624 160.856L265.846 160.956H276.163L277.385 160.856L278.544 160.566L279.625 160.104L280.613 159.483L281.49 158.72L282.243 157.831L282.856 156.831L283.313 155.736L283.598 154.562L283.697 153.324L283.825 151.784L284.194 150.318L284.777 148.93L285.55 147.623L286.487 146.4L287.564 145.264L288.754 144.219L290.033 143.267L291.376 142.411L292.757 141.656L294.692 140.539L296.487 139.22L298.127 137.715L299.597 136.039L300.881 134.207L301.966 132.235L302.835 130.136L303.475 127.928L303.87 125.624L304.005 123.24V102.668L303.872 100.999L303.487 99.4166L302.871 97.9407L302.046 96.5929L301.031 95.3944L299.848 94.3663L298.517 93.5298L297.06 92.9061L295.498 92.5163L293.851 92.3817H248.158Z" fill="#F2F2F2" stroke="#B3B3B3" stroke-width="2.78497"/>
<path d="M267.942 153.398V121.319L267.868 120.392L267.654 119.513L267.312 118.694L266.854 117.945L266.29 117.279L265.633 116.708L264.894 116.244L264.085 115.897L263.217 115.681L262.302 115.606L257.356 115.606L256.53 115.674L255.746 115.87L255.015 116.183L254.347 116.602L253.753 117.118L253.244 117.72L252.829 118.396L252.521 119.137L252.327 119.931L252.261 120.768L252.327 121.606L252.521 122.4L252.83 123.141L253.244 123.817L253.753 124.418L254.347 124.934L255.015 125.354L255.746 125.667L256.53 125.863L257.356 125.93L262.17 125.93L262.112 125.939H279.901L279.848 125.93L284.662 125.93L285.489 125.863L286.273 125.667L287.004 125.354L287.671 124.934L288.265 124.418L288.774 123.817L289.189 123.141L289.498 122.4L289.691 121.606L289.758 120.768L289.691 119.931L289.498 119.137L289.189 118.396L288.774 117.72L288.265 117.118L287.671 116.602L287.004 116.183L286.273 115.87L285.489 115.674L284.662 115.606L279.716 115.606L278.801 115.681L277.933 115.897L277.124 116.244L276.385 116.708L275.728 117.279L275.165 117.945L274.706 118.694L274.364 119.513L274.15 120.392L274.076 121.319V153.398" stroke="#B3B3B3" stroke-width="2.22798"/>
<path d="M258.312 152.383H283.697V155.812H258.312V152.383Z" fill="#808080" stroke="#808080" stroke-width="1.67098"/>
<path d="M258.312 152.381H283.697V155.81L283.586 157.2L283.266 158.519L282.753 159.749L282.064 160.872L281.219 161.871L280.233 162.728L279.124 163.425L277.91 163.945L276.608 164.27L275.235 164.382H266.774L265.401 164.27L264.099 163.945L262.885 163.425L261.777 162.728L260.791 161.871L259.945 160.872L259.257 159.749L258.744 158.519L258.423 157.2L258.312 155.81V152.381Z" fill="#141414" stroke="#141414" stroke-width="1.67098"/>
<rect x="251.005" y="168.382" width="45" height="20" rx="5" fill="black"/>
<path d="M273.087 185.382V182.842H276.107C275.48 182.455 274.947 181.989 274.507 181.442C274.08 180.882 273.754 180.255 273.527 179.562C273.314 178.855 273.207 178.089 273.207 177.262C273.207 176.049 273.48 174.962 274.027 174.002C274.587 173.042 275.374 172.282 276.387 171.722C277.414 171.162 278.62 170.882 280.007 170.882C281.407 170.882 282.614 171.162 283.627 171.722C284.64 172.282 285.42 173.049 285.967 174.022C286.527 174.982 286.807 176.069 286.807 177.282C286.807 178.109 286.694 178.869 286.467 179.562C286.254 180.255 285.927 180.882 285.487 181.442C285.047 181.989 284.507 182.455 283.867 182.842H286.927V185.382H281.047V182.662C281.78 182.315 282.334 181.875 282.707 181.342C283.094 180.795 283.354 180.209 283.487 179.582C283.62 178.942 283.687 178.309 283.687 177.682C283.687 176.789 283.534 176.029 283.227 175.402C282.934 174.762 282.514 174.269 281.967 173.922C281.42 173.575 280.767 173.402 280.007 173.402C279.247 173.402 278.587 173.575 278.027 173.922C277.48 174.269 277.06 174.762 276.767 175.402C276.474 176.042 276.327 176.809 276.327 177.702C276.327 178.329 276.407 178.955 276.567 179.582C276.727 180.209 276.994 180.789 277.367 181.322C277.754 181.855 278.274 182.302 278.927 182.662V185.382H273.087Z" fill="white"/>
<path d="M266.001 185.662C264.947 185.662 264.014 185.475 263.201 185.102C262.387 184.729 261.747 184.195 261.281 183.502C260.827 182.795 260.601 181.962 260.601 181.002V180.642H263.161V180.922C263.161 181.669 263.421 182.269 263.941 182.722C264.461 183.162 265.147 183.382 266.001 183.382C266.867 183.382 267.534 183.175 268.001 182.762C268.481 182.349 268.721 181.829 268.721 181.202V181.002C268.721 180.575 268.614 180.229 268.401 179.962C268.187 179.695 267.901 179.502 267.541 179.382C267.181 179.249 266.774 179.182 266.321 179.182H263.521V176.382L268.041 173.982V173.662H260.961V171.382H270.881V174.782L266.661 177.022V177.342H267.401C268.027 177.342 268.634 177.469 269.221 177.722C269.821 177.975 270.314 178.369 270.701 178.902C271.087 179.422 271.281 180.102 271.281 180.942V181.182C271.281 182.089 271.061 182.882 270.621 183.562C270.181 184.229 269.561 184.749 268.761 185.122C267.974 185.482 267.054 185.662 266.001 185.662Z" fill="white"/>
<path d="M82.8618 153.772L82.9182 152.747L83.0828 151.746L83.3483 150.773L83.7074 149.83L84.1531 148.922L84.6779 148.051L85.2749 147.221L85.9366 146.436L86.656 145.697L87.4258 145.01L89.6284 142.999L91.6581 140.794L93.501 138.42L95.1432 135.899L96.5708 133.255L97.77 130.514L98.7268 127.699L99.4275 124.833L99.858 121.941L100.005 119.047L99.612 114.397L98.4752 109.986L96.6561 105.873L94.2164 102.118L91.2178 98.7774L87.7223 95.9123L83.7914 93.5812L79.487 91.843L74.8708 90.7568L70.0046 90.3816L65.1385 90.7568L60.5223 91.843L56.2179 93.5812L52.287 95.9123L48.7914 98.7774L45.7929 102.118L43.3532 105.873L41.5341 109.986L40.3973 114.397L40.0046 119.047L40.1512 121.941L40.5818 124.833L41.2824 127.699L42.2393 130.514L43.4385 133.255L44.8661 135.899L46.5083 138.42L48.3512 140.794L50.3809 142.999L52.5835 145.01L53.3533 145.697L54.0727 146.436L54.7344 147.221L55.3313 148.051L55.8562 148.922L56.3018 149.83L56.661 150.773L56.9265 151.746L57.091 152.747L57.1475 153.772L57.2427 154.959L57.5183 156.086L57.9594 157.136L58.5509 158.095L59.278 158.948L60.1255 159.68L61.0786 160.275L62.1222 160.719L63.2415 160.996L64.4213 161.092H75.5879L76.7678 160.996L77.887 160.719L78.9307 160.275L79.8838 159.68L80.7313 158.948L81.4584 158.095L82.0499 157.136L82.491 156.086L82.7666 154.959L82.8618 153.772Z" fill="#F2F2F2" stroke="#B3B3B3" stroke-width="2.78497"/>
<path d="M66.9019 154.808V123.181L66.8204 122.164L66.5843 121.2L66.2067 120.3L65.7001 119.479L65.0776 118.748L64.3519 118.122L63.5357 117.612L62.6421 117.232L61.6837 116.995L60.6734 116.913L60.1822 116.913L59.2517 116.988L58.369 117.207L57.5459 117.557L56.7942 118.027L56.1258 118.604L55.5524 119.277L55.0859 120.033L54.738 120.862L54.5206 121.75L54.4456 122.686L54.5206 123.623L54.738 124.511L55.0859 125.34L55.5524 126.096L56.1258 126.769L56.7943 127.346L57.546 127.816L58.3691 128.166L59.2518 128.385L60.1824 128.46L61.0549 128.46L60.9963 128.468H79.0158L78.9629 128.46L79.8355 128.46L80.766 128.385L81.6488 128.166L82.4719 127.816L83.2236 127.346L83.892 126.769L84.4654 126.096L84.9319 125.34L85.2798 124.511L85.4972 123.623L85.5723 122.686L85.4972 121.75L85.2798 120.862L84.932 120.033L84.4654 119.277L83.8921 118.604L83.2236 118.027L82.472 117.557L81.6489 117.207L80.7662 116.988L79.8356 116.913L79.3444 116.913L78.3341 116.995L77.3757 117.232L76.4821 117.612L75.666 118.122L74.9402 118.748L74.3177 119.479L73.8112 120.3L73.4335 121.2L73.1975 122.164L73.116 123.181V154.808" stroke="#B3B3B3" stroke-width="2.22798"/>
<path d="M57.1479 152.871H82.8622V156.16L82.7553 157.493L82.4457 158.759L81.9504 159.938L81.286 161.016L80.4694 161.974L79.5175 162.795L78.447 163.464L77.2748 163.963L76.0177 164.274L74.6926 164.382H65.3176L63.9924 164.274L62.7354 163.963L61.5632 163.464L60.4927 162.795L59.5408 161.974L58.7242 161.016L58.0598 159.938L57.5644 158.759L57.2549 157.493L57.1479 156.16V152.871Z" fill="#141414" stroke="#141414" stroke-width="1.67098"/>
<path d="M57.1479 152.875H82.8622V156.164H57.1479V152.875Z" fill="#808080" stroke="#808080" stroke-width="1.67098"/>
<rect x="49.0046" y="169.382" width="45" height="20" rx="5" fill="black"/>
<path d="M71.087 186.382V183.842H74.107C73.4803 183.455 72.947 182.989 72.507 182.442C72.0803 181.882 71.7536 181.255 71.527 180.562C71.3136 179.855 71.207 179.089 71.207 178.262C71.207 177.049 71.4803 175.962 72.027 175.002C72.587 174.042 73.3736 173.282 74.387 172.722C75.4136 172.162 76.6203 171.882 78.007 171.882C79.407 171.882 80.6136 172.162 81.627 172.722C82.6403 173.282 83.4203 174.049 83.967 175.022C84.527 175.982 84.807 177.069 84.807 178.282C84.807 179.109 84.6936 179.869 84.467 180.562C84.2536 181.255 83.927 181.882 83.487 182.442C83.047 182.989 82.507 183.455 81.867 183.842H84.927V186.382H79.047V183.662C79.7803 183.315 80.3336 182.875 80.707 182.342C81.0936 181.795 81.3536 181.209 81.487 180.582C81.6203 179.942 81.687 179.309 81.687 178.682C81.687 177.789 81.5336 177.029 81.227 176.402C80.9336 175.762 80.5136 175.269 79.967 174.922C79.4203 174.575 78.767 174.402 78.007 174.402C77.247 174.402 76.587 174.575 76.027 174.922C75.4803 175.269 75.0603 175.762 74.767 176.402C74.4736 177.042 74.327 177.809 74.327 178.702C74.327 179.329 74.407 179.955 74.567 180.582C74.727 181.209 74.9936 181.789 75.367 182.322C75.7536 182.855 76.2736 183.302 76.927 183.662V186.382H71.087Z" fill="white"/>
<path d="M58.9071 186.382V184.702C58.9071 183.729 59.0671 182.922 59.3871 182.282C59.7071 181.629 60.1671 181.095 60.7671 180.682C61.3805 180.255 62.1271 179.909 63.0071 179.642L64.3471 179.222C64.8405 179.062 65.2538 178.869 65.5871 178.642C65.9205 178.402 66.1738 178.115 66.3471 177.782C66.5338 177.449 66.6271 177.069 66.6271 176.642V176.562C66.6271 175.895 66.4005 175.369 65.9471 174.982C65.4938 174.582 64.8738 174.382 64.0871 174.382C63.3138 174.382 62.6871 174.595 62.2071 175.022C61.7405 175.435 61.5071 176.035 61.5071 176.822V177.182H58.9471V176.862C58.9471 175.849 59.1738 174.989 59.6271 174.282C60.0805 173.575 60.6938 173.035 61.4671 172.662C62.2538 172.289 63.1271 172.102 64.0871 172.102C65.0471 172.102 65.9138 172.289 66.6871 172.662C67.4605 173.022 68.0671 173.535 68.5071 174.202C68.9605 174.855 69.1871 175.629 69.1871 176.522V176.722C69.1871 177.615 69.0005 178.375 68.6271 179.002C68.2671 179.615 67.7738 180.122 67.1471 180.522C66.5205 180.909 65.8071 181.229 65.0071 181.482L63.7271 181.882C63.1538 182.055 62.7071 182.249 62.3871 182.462C62.0671 182.662 61.8405 182.889 61.7071 183.142C61.5871 183.382 61.5271 183.675 61.5271 184.022V184.102H69.0671V186.382H58.9071Z" fill="white"/>
</svg>
