<svg width="561" height="395" viewBox="0 0 561 395" fill="none" xmlns="http://www.w3.org/2000/svg">
<mask id="mask0_179_2" style="mask-type:luminance" maskUnits="userSpaceOnUse" x="20" y="60" width="540" height="300">
<path d="M20 60H560V195V360H20V196.5V60Z" fill="white"/>
</mask>
<g mask="url(#mask0_179_2)">
<path d="M20 196.5L20.0028 197.5L560.003 196L560 195L559.997 194L19.9972 195.5L20 196.5ZM20 60V58H18V60H20ZM560 60H562V58H560V60ZM560 360V362H562V360H560ZM20 360H18V362H20V360ZM20 60V62H560V60V58H20V60ZM560 360V358H20V360V362H560V360ZM20 360H22V196.5H20H18V360H20ZM20 196.5H22V60H20H18V196.5H20ZM560 60H558V195H560H562V60H560ZM560 195H558V360H560H562V195H560Z" fill="black"/>
</g>
<path d="M320.641 84.9893H242.576C239.496 84.9893 237 82.3036 237 78.9906V42.9986C237 39.6856 239.496 36.9999 242.576 36.9999H320.641C323.721 36.9999 326.217 39.6856 326.217 42.9986V78.9906C326.217 82.3036 323.721 84.9893 320.641 84.9893Z" fill="#CE6809"/>
<path d="M237 84.2388H295.549V37.7491H237V84.2388Z" fill="#333333"/>
<path d="M295.549 54.9951H326.218V42.9978H295.549V54.9951Z" fill="#E77A16"/>
<path d="M237 55.7412H295.549V43.7439H237V55.7412Z" fill="#4C4C4C"/>
<path d="M334.212 73.1123H328.636C327.096 73.1123 325.848 71.7695 325.848 70.113V52.117C325.848 50.4605 327.096 49.1176 328.636 49.1176H334.212C335.752 49.1176 337 50.4605 337 52.117V70.113C337 71.7695 335.752 73.1123 334.212 73.1123Z" fill="#333333"/>
<path d="M332.818 57.8115H327.242C326.472 57.8115 325.848 57.1401 325.848 56.3119V53.3125C325.848 52.4843 326.472 51.8129 327.242 51.8129H332.818C333.588 51.8129 334.212 52.4843 334.212 53.3125V56.3119C334.212 57.1401 333.588 57.8115 332.818 57.8115Z" fill="#4C4C4C"/>
<path d="M320.641 85H242.576C239.496 85 237 82.3143 237 79.0013V43.0093C237 39.6964 239.496 37.0107 242.576 37.0107H320.641C323.721 37.0107 326.217 39.6964 326.217 43.0093V79.0013C326.217 82.3143 323.721 85 320.641 85Z" stroke="#333333" stroke-width="2.78497"/>
<path d="M352.111 62.207L351.926 21.8669L220.928 22.4698L221.114 62.8099" stroke="black" stroke-width="2"/>
<rect x="267" y="9" width="40" height="20" rx="5" fill="black"/>
<path d="M273.461 26V13.88H273.101L271.221 18.32H268.541L271.401 12H276.021V26H273.461ZM283.344 26.28C282.277 26.28 281.33 26.12 280.504 25.8C279.69 25.48 279.05 25.02 278.584 24.42C278.13 23.8067 277.904 23.0867 277.904 22.26V22.02C277.904 21.38 278.017 20.8533 278.244 20.44C278.47 20.0133 278.75 19.68 279.084 19.44C279.43 19.2 279.757 19.0333 280.064 18.94V18.58C279.757 18.4733 279.45 18.3 279.144 18.06C278.837 17.82 278.584 17.5 278.384 17.1C278.197 16.7 278.104 16.22 278.104 15.66V15.42C278.104 14.6867 278.317 14.0467 278.744 13.5C279.184 12.94 279.797 12.5067 280.584 12.2C281.37 11.88 282.29 11.72 283.344 11.72C284.397 11.72 285.317 11.88 286.104 12.2C286.89 12.5067 287.497 12.94 287.924 13.5C288.364 14.0467 288.584 14.6867 288.584 15.42V15.66C288.584 16.22 288.484 16.7 288.284 17.1C288.097 17.5 287.85 17.82 287.544 18.06C287.25 18.3 286.944 18.4733 286.624 18.58V18.94C286.944 19.0333 287.27 19.2 287.604 19.44C287.937 19.68 288.217 20.0133 288.444 20.44C288.67 20.8533 288.784 21.38 288.784 22.02V22.26C288.784 23.0867 288.55 23.8067 288.084 24.42C287.63 25.02 286.99 25.48 286.164 25.8C285.35 26.12 284.41 26.28 283.344 26.28ZM283.344 24C284.264 24 284.97 23.8267 285.464 23.48C285.97 23.12 286.224 22.6467 286.224 22.06V21.9C286.224 21.3133 285.977 20.8467 285.484 20.5C285.004 20.14 284.29 19.96 283.344 19.96C282.41 19.96 281.697 20.14 281.204 20.5C280.71 20.8467 280.464 21.3133 280.464 21.9V22.06C280.464 22.6467 280.71 23.12 281.204 23.48C281.71 23.8267 282.424 24 283.344 24ZM283.344 17.68C284.197 17.68 284.857 17.5267 285.324 17.22C285.79 16.9133 286.024 16.48 286.024 15.92V15.76C286.024 15.2 285.784 14.7667 285.304 14.46C284.824 14.1533 284.17 14 283.344 14C282.517 14 281.864 14.1533 281.384 14.46C280.904 14.7667 280.664 15.2 280.664 15.76V15.92C280.664 16.48 280.897 16.9133 281.364 17.22C281.83 17.5267 282.49 17.68 283.344 17.68ZM293.256 26L289.696 12H292.416L295.376 24.3H295.656L298.616 12H301.336L297.776 26H293.256Z" fill="white"/>
<circle cx="89" cy="358" r="21" fill="#463B3B"/>
<path d="M83.1581 365.28C82.1048 365.28 81.1715 365.093 80.3581 364.72C79.5448 364.347 78.9048 363.813 78.4381 363.12C77.9848 362.413 77.7581 361.58 77.7581 360.62V360.26H80.3181V360.54C80.3181 361.287 80.5781 361.887 81.0981 362.34C81.6181 362.78 82.3048 363 83.1581 363C84.0248 363 84.6915 362.793 85.1581 362.38C85.6381 361.967 85.8781 361.447 85.8781 360.82V360.62C85.8781 360.193 85.7715 359.847 85.5581 359.58C85.3448 359.313 85.0581 359.12 84.6981 359C84.3381 358.867 83.9315 358.8 83.4781 358.8H80.6781V356L85.1981 353.6V353.28H78.1181V351H88.0381V354.4L83.8181 356.64V356.96H84.5581C85.1848 356.96 85.7915 357.087 86.3781 357.34C86.9781 357.593 87.4715 357.987 87.8581 358.52C88.2448 359.04 88.4381 359.72 88.4381 360.56V360.8C88.4381 361.707 88.2181 362.5 87.7781 363.18C87.3381 363.847 86.7181 364.367 85.9181 364.74C85.1315 365.1 84.2115 365.28 83.1581 365.28ZM89.6061 365L93.2861 351H97.8861L101.566 365H98.8461L98.0861 361.92H93.0861L92.3261 365H89.6061ZM93.7061 359.48H97.4661L95.7661 352.66H95.4061L93.7061 359.48Z" fill="white"/>
<circle cx="21" cy="102" r="21" fill="#463B3B"/>
<path d="M14.4805 109.28C13.4405 109.28 12.5338 109.107 11.7605 108.76C11.0005 108.413 10.4071 107.913 9.98047 107.26C9.56714 106.607 9.36047 105.827 9.36047 104.92H11.9605C11.9605 105.48 12.1538 105.967 12.5405 106.38C12.9405 106.793 13.5871 107 14.4805 107C15.3871 107 16.0805 106.767 16.5605 106.3C17.0405 105.82 17.2805 105.173 17.2805 104.36V102.92H16.9205C16.6938 103.187 16.3471 103.44 15.8805 103.68C15.4271 103.92 14.7471 104.04 13.8405 104.04C13.0405 104.04 12.2938 103.867 11.6005 103.52C10.9071 103.173 10.3471 102.673 9.92047 102.02C9.4938 101.353 9.28047 100.553 9.28047 99.62V99.38C9.28047 98.4467 9.50047 97.6333 9.94047 96.94C10.3805 96.2467 11.0005 95.7067 11.8005 95.32C12.6005 94.92 13.5338 94.72 14.6005 94.72C15.6671 94.72 16.5938 94.92 17.3805 95.32C18.1671 95.72 18.7738 96.2733 19.2005 96.98C19.6271 97.6867 19.8405 98.5 19.8405 99.42V104.2C19.8405 105.333 19.6071 106.28 19.1405 107.04C18.6871 107.787 18.0538 108.347 17.2405 108.72C16.4405 109.093 15.5205 109.28 14.4805 109.28ZM14.5605 102C15.1205 102 15.6005 101.9 16.0005 101.7C16.4138 101.5 16.7271 101.22 16.9405 100.86C17.1671 100.5 17.2805 100.073 17.2805 99.58V99.42C17.2805 98.6733 17.0338 98.0867 16.5405 97.66C16.0605 97.22 15.4005 97 14.5605 97C13.7205 97 13.0538 97.22 12.5605 97.66C12.0805 98.0867 11.8405 98.6733 11.8405 99.42V99.58C11.8405 100.073 11.9471 100.5 12.1605 100.86C12.3871 101.22 12.7071 101.5 13.1205 101.7C13.5338 101.9 14.0138 102 14.5605 102ZM21.2038 109L24.8838 95H29.4838L33.1638 109H30.4438L29.6838 105.92H24.6838L23.9238 109H21.2038ZM25.3038 103.48H29.0638L27.3638 96.66H27.0038L25.3038 103.48Z" fill="white"/>
<path d="M443.154 294L441.507 294.134L439.944 294.524L438.488 295.148L437.157 295.984L435.974 297.013L434.959 298.211L434.133 299.559L433.518 301.035L433.133 302.617L433 304.286V324.858L433.135 327.242L433.53 329.546L434.169 331.755L435.039 333.853L436.123 335.825L437.408 337.657L438.878 339.333L440.517 340.838L442.312 342.157L444.248 343.274L445.629 344.03L446.971 344.885L448.251 345.837L449.441 346.882L450.517 348.018L451.455 349.241L452.228 350.549L452.811 351.937L453.179 353.402L453.308 354.942L453.406 356.18L453.692 357.354L454.149 358.449L454.761 359.449L455.514 360.338L456.392 361.101L457.379 361.722L458.46 362.185L459.619 362.474L460.841 362.574H471.159L472.381 362.474L473.54 362.185L474.621 361.722L475.608 361.101L476.486 360.338L477.239 359.449L477.851 358.449L478.308 357.354L478.594 356.18L478.692 354.942L478.821 353.402L479.189 351.937L479.772 350.549L480.545 349.241L481.483 348.018L482.559 346.882L483.749 345.837L485.029 344.885L486.371 344.03L487.752 343.274L489.688 342.157L491.483 340.838L493.122 339.333L494.592 337.657L495.877 335.825L496.961 333.853L497.831 331.755L498.47 329.546L498.865 327.242L499 324.858V304.286L498.867 302.617L498.482 301.035L497.867 299.559L497.041 298.211L496.026 297.013L494.843 295.984L493.512 295.148L492.056 294.524L490.493 294.134L488.846 294H443.154Z" fill="#F2F2F2" stroke="#B3B3B3" stroke-width="2.78497"/>
<path d="M462.937 355.016V322.937L462.864 322.01L462.65 321.131L462.308 320.312L461.849 319.563L461.286 318.897L460.628 318.326L459.889 317.862L459.08 317.515L458.213 317.299L457.298 317.224L452.352 317.224L451.525 317.292L450.741 317.488L450.01 317.801L449.342 318.221L448.749 318.736L448.239 319.338L447.825 320.014L447.516 320.755L447.323 321.549L447.256 322.387L447.323 323.224L447.516 324.018L447.825 324.759L448.239 325.435L448.749 326.037L449.342 326.553L450.01 326.972L450.741 327.285L451.525 327.481L452.352 327.549L457.165 327.549L457.108 327.557H474.896L474.844 327.549L479.657 327.549L480.484 327.481L481.268 327.285L481.999 326.972L482.667 326.553L483.261 326.037L483.77 325.435L484.184 324.759L484.493 324.018L484.686 323.224L484.753 322.387L484.686 321.549L484.493 320.755L484.184 320.014L483.77 319.338L483.261 318.736L482.667 318.221L481.999 317.801L481.268 317.488L480.484 317.292L479.658 317.224L474.711 317.224L473.797 317.299L472.929 317.515L472.12 317.862L471.381 318.326L470.724 318.897L470.16 319.563L469.701 320.312L469.359 321.131L469.146 322.01L469.072 322.937V355.016" stroke="#B3B3B3" stroke-width="2.22798"/>
<path d="M453.308 354.001H478.692V357.43H453.308V354.001Z" fill="#808080" stroke="#808080" stroke-width="1.67098"/>
<path d="M453.308 354H478.692V357.428L478.582 358.819L478.261 360.138L477.748 361.367L477.06 362.491L476.214 363.489L475.228 364.346L474.119 365.043L472.905 365.563L471.603 365.888L470.231 366H461.769L460.397 365.888L459.095 365.563L457.881 365.043L456.772 364.346L455.786 363.489L454.94 362.491L454.252 361.367L453.739 360.138L453.418 358.819L453.308 357.428V354Z" fill="#141414" stroke="#141414" stroke-width="1.67098"/>
<path d="M178.154 296L176.507 296.134L174.944 296.524L173.488 297.148L172.157 297.984L170.974 299.013L169.959 300.211L169.133 301.559L168.518 303.035L168.133 304.617L168 306.286V326.858L168.135 329.242L168.53 331.546L169.169 333.755L170.039 335.853L171.123 337.825L172.408 339.657L173.878 341.333L175.517 342.838L177.312 344.157L179.248 345.274L180.629 346.03L181.971 346.885L183.251 347.837L184.441 348.882L185.517 350.018L186.455 351.241L187.228 352.549L187.811 353.937L188.179 355.402L188.308 356.942L188.406 358.18L188.692 359.354L189.149 360.449L189.761 361.449L190.514 362.338L191.392 363.101L192.379 363.722L193.46 364.185L194.619 364.474L195.841 364.574H206.159L207.381 364.474L208.54 364.185L209.621 363.722L210.608 363.101L211.486 362.338L212.239 361.449L212.851 360.449L213.308 359.354L213.594 358.18L213.692 356.942L213.821 355.402L214.189 353.937L214.772 352.549L215.545 351.241L216.483 350.018L217.559 348.882L218.749 347.837L220.029 346.885L221.371 346.03L222.752 345.274L224.688 344.157L226.483 342.838L228.122 341.333L229.592 339.657L230.877 337.825L231.961 335.853L232.831 333.755L233.47 331.546L233.865 329.242L234 326.858V306.286L233.867 304.617L233.482 303.035L232.867 301.559L232.041 300.211L231.026 299.013L229.843 297.984L228.512 297.148L227.056 296.524L225.493 296.134L223.846 296H178.154Z" fill="#F2F2F2" stroke="#B3B3B3" stroke-width="2.78497"/>
<path d="M197.937 357.016V324.937L197.864 324.01L197.65 323.131L197.308 322.312L196.849 321.563L196.286 320.897L195.628 320.326L194.889 319.862L194.08 319.515L193.213 319.299L192.298 319.224L187.352 319.224L186.525 319.292L185.741 319.488L185.01 319.801L184.342 320.221L183.749 320.736L183.239 321.338L182.825 322.014L182.516 322.755L182.323 323.549L182.256 324.387L182.323 325.224L182.516 326.018L182.825 326.759L183.239 327.435L183.749 328.037L184.342 328.553L185.01 328.972L185.741 329.285L186.525 329.481L187.352 329.549L192.165 329.549L192.108 329.557H209.896L209.844 329.549L214.657 329.549L215.484 329.481L216.268 329.285L216.999 328.972L217.667 328.553L218.261 328.037L218.77 327.435L219.184 326.759L219.493 326.018L219.686 325.224L219.753 324.387L219.686 323.549L219.493 322.755L219.184 322.014L218.77 321.338L218.261 320.736L217.667 320.221L216.999 319.801L216.268 319.488L215.484 319.292L214.658 319.224L209.711 319.224L208.797 319.299L207.929 319.515L207.12 319.862L206.381 320.326L205.724 320.897L205.16 321.563L204.701 322.312L204.359 323.131L204.146 324.01L204.072 324.937V357.016" stroke="#B3B3B3" stroke-width="2.22798"/>
<path d="M188.308 356.001H213.692V359.43H188.308V356.001Z" fill="#808080" stroke="#808080" stroke-width="1.67098"/>
<path d="M188.308 356H213.692V359.428L213.582 360.819L213.261 362.138L212.748 363.367L212.06 364.491L211.214 365.489L210.228 366.346L209.119 367.043L207.905 367.563L206.603 367.888L205.231 368H196.769L195.397 367.888L194.095 367.563L192.881 367.043L191.772 366.346L190.786 365.489L189.94 364.491L189.252 363.367L188.739 362.138L188.418 360.819L188.308 359.428V356Z" fill="#141414" stroke="#141414" stroke-width="1.67098"/>
<path d="M438.662 156.099L437.98 156.992L437.365 157.915L436.819 158.866L436.343 159.84L435.937 160.835L435.602 161.849L435.34 162.879L435.152 163.923L435.038 164.976L435 166.038L435.118 167.914L435.463 169.733L436.023 171.485L436.787 173.16L437.743 174.748L438.878 176.238L440.181 177.621L441.639 178.887L443.241 180.025L444.974 181.025L446.179 181.69L447.341 182.421L448.44 183.217L449.456 184.074L450.369 184.992L451.161 185.966L451.811 186.996L452.3 188.078L452.607 189.211L452.714 190.392L452.817 191.467L453.116 192.488L453.595 193.439L454.236 194.307L455.024 195.08L455.943 195.742L456.976 196.282L458.108 196.684L459.321 196.935L460.6 197.021H471.4L472.679 196.935L473.892 196.684L475.024 196.282L476.057 195.742L476.976 195.08L477.764 194.307L478.405 193.439L478.884 192.488L479.182 191.467L479.286 190.392L479.393 189.211L479.7 188.078L480.189 186.996L480.839 185.966L481.631 184.992L482.544 184.074L483.56 183.217L484.659 182.421L485.821 181.69L487.026 181.025L488.759 180.025L490.361 178.887L491.819 177.621L493.122 176.238L494.257 174.748L495.213 173.16L495.977 171.485L496.537 169.733L496.882 167.914L497 166.038L496.962 164.976L496.848 163.923L496.66 162.879L496.398 161.849L496.063 160.835L495.657 159.84L495.181 158.866L494.635 157.916L494.02 156.992L493.338 156.099L470.384 127.942L469.682 127.243L468.864 126.699L467.958 126.31L466.994 126.077L466 126L465.006 126.077L464.042 126.31L463.136 126.699L462.318 127.243L461.616 127.942L438.662 156.099Z" fill="#F9FEE4" stroke="#C4DE19" stroke-width="2.79134"/>
<path d="M462.794 191.329V160.934L462.732 160.298L462.556 159.694L462.273 159.132L461.893 158.618L461.427 158.161L460.884 157.769L460.273 157.45L459.603 157.213L458.885 157.064L458.129 157.013L457.372 157.064L456.655 157.213L455.985 157.451L455.374 157.769L454.831 158.161L454.365 158.618L453.985 159.132L453.703 159.695L453.526 160.298L453.465 160.934V164.707L453.554 165.638L453.813 166.521L454.227 167.345L454.783 168.098L455.465 168.767L456.261 169.34L457.156 169.807L458.136 170.155L459.187 170.373L460.295 170.448L459.8 170.456H472.2L471.714 170.448L472.822 170.373L473.873 170.155L474.853 169.807L475.747 169.34L476.543 168.767L477.226 168.098L477.781 167.345L478.195 166.521L478.454 165.638L478.544 164.707V160.934L478.483 160.298L478.306 159.695L478.023 159.132L477.644 158.618L477.178 158.161L476.634 157.769L476.023 157.451L475.354 157.213L474.636 157.064L473.88 157.013L473.123 157.064L472.405 157.213L471.736 157.45L471.125 157.769L470.581 158.161L470.115 158.618L469.736 159.132L469.453 159.694L469.276 160.298L469.215 160.934V191.329" stroke="#C4DE19" stroke-width="2.23307"/>
<path d="M452.715 189.576H479.286V192.554L479.17 193.762L478.835 194.908L478.298 195.976L477.577 196.952L476.692 197.819L475.66 198.563L474.499 199.169L473.229 199.62L471.866 199.903L470.429 200H461.572L460.135 199.903L458.772 199.62L457.501 199.169L456.341 198.563L455.309 197.819L454.424 196.952L453.703 195.976L453.166 194.908L452.831 193.762L452.715 192.554V189.576Z" fill="#141414" stroke="#C4DE19" stroke-width="1.67481"/>
<path d="M452.715 189.576H479.286V192.554H452.715V189.576Z" fill="#C4DE19" stroke="#C4DE19" stroke-width="1.67481"/>
<path d="M459.653 140.989C466.226 140.989 471.554 145.468 471.554 150.994C471.554 156.52 466.226 160.999 459.653 160.999C453.079 160.999 447.751 156.52 447.751 150.994C447.751 145.468 453.079 140.989 459.653 140.989Z" fill="white" fill-opacity="0.3"/>
<path d="M216.857 189.39L216.914 188.365L217.078 187.364L217.344 186.391L217.703 185.448L218.148 184.54L218.673 183.67L219.27 182.84L219.932 182.054L220.651 181.316L221.421 180.628L223.624 178.617L225.653 176.413L227.496 174.038L229.139 171.517L230.566 168.874L231.765 166.132L232.722 163.317L233.423 160.451L233.853 157.559L234 154.665L233.607 150.015L232.471 145.605L230.651 141.492L228.212 137.736L225.213 134.396L221.718 131.53L217.787 129.199L213.482 127.461L208.866 126.375L204 126L199.134 126.375L194.518 127.461L190.213 129.199L186.282 131.53L182.787 134.396L179.788 137.736L177.349 141.492L175.529 145.605L174.393 150.015L174 154.665L174.147 157.559L174.577 160.451L175.278 163.317L176.235 166.132L177.434 168.874L178.861 171.517L180.504 174.038L182.347 176.413L184.376 178.617L186.579 180.628L187.349 181.316L188.068 182.054L188.73 182.84L189.327 183.67L189.852 184.54L190.297 185.448L190.656 186.391L190.922 187.364L191.086 188.365L191.143 189.39L191.238 190.577L191.514 191.704L191.955 192.754L192.546 193.713L193.273 194.566L194.121 195.298L195.074 195.893L196.118 196.337L197.237 196.615L198.417 196.71H209.583L210.763 196.615L211.882 196.337L212.926 195.893L213.879 195.298L214.727 194.566L215.454 193.713L216.045 192.754L216.486 191.704L216.762 190.577L216.857 189.39Z" fill="#F2F2F2" stroke="#B3B3B3" stroke-width="2.78497"/>
<path d="M200.897 190.426V158.799L200.816 157.782L200.58 156.818L200.202 155.918L199.696 155.097L199.073 154.367L198.347 153.74L197.531 153.23L196.637 152.85L195.679 152.613L194.669 152.531L194.178 152.531L193.247 152.606L192.364 152.825L191.541 153.175L190.79 153.645L190.121 154.222L189.548 154.895L189.081 155.651L188.733 156.48L188.516 157.368L188.441 158.305L188.516 159.241L188.733 160.13L189.081 160.958L189.548 161.715L190.121 162.387L190.79 162.964L191.541 163.434L192.364 163.784L193.247 164.003L194.178 164.078L195.05 164.078L194.992 164.087H213.011L212.958 164.078L213.831 164.078L214.761 164.003L215.644 163.784L216.467 163.434L217.219 162.964L217.887 162.387L218.461 161.715L218.927 160.958L219.275 160.13L219.493 159.241L219.568 158.305L219.493 157.368L219.275 156.48L218.927 155.651L218.461 154.895L217.887 154.222L217.219 153.645L216.467 153.175L215.644 152.825L214.762 152.606L213.831 152.531L213.34 152.531L212.329 152.613L211.371 152.85L210.477 153.23L209.661 153.74L208.936 154.367L208.313 155.097L207.807 155.918L207.429 156.818L207.193 157.782L207.111 158.799V190.426" stroke="#B3B3B3" stroke-width="2.22798"/>
<path d="M191.143 188.489H216.858V191.778L216.751 193.112L216.441 194.377L215.946 195.556L215.281 196.634L214.465 197.592L213.513 198.414L212.442 199.082L211.27 199.581L210.013 199.892L208.688 200H199.313L197.988 199.892L196.731 199.581L195.559 199.082L194.488 198.414L193.536 197.592L192.72 196.634L192.055 195.556L191.56 194.377L191.25 193.112L191.143 191.778V188.489Z" fill="#141414" stroke="#141414" stroke-width="1.67098"/>
<path d="M191.143 188.493H216.858V191.782H191.143V188.493Z" fill="#808080" stroke="#808080" stroke-width="1.67098"/>
</svg>
