<svg width="561" height="395" viewBox="0 0 561 395" fill="none" xmlns="http://www.w3.org/2000/svg">
<mask id="mask0_176_55" style="mask-type:luminance" maskUnits="userSpaceOnUse" x="20" y="60" width="540" height="300">
<path d="M20 60H560V195V360H20V196.5V60Z" fill="white"/>
</mask>
<g mask="url(#mask0_176_55)">
<path d="M20 196.5L20.0028 197.5L560.003 196L560 195L559.997 194L19.9972 195.5L20 196.5ZM20 60V58H18V60H20ZM560 60H562V58H560V60ZM560 360V362H562V360H560ZM20 360H18V362H20V360ZM20 60V62H560V60V58H20V60ZM560 360V358H20V360V362H560V360ZM20 360H22V196.5H20H18V360H20ZM20 196.5H22V60H20H18V196.5H20ZM560 60H558V195H560H562V60H560ZM560 195H558V360H560H562V195H560Z" fill="black"/>
</g>
<path d="M320.641 84.9893H242.576C239.496 84.9893 237 82.3036 237 78.9906V42.9986C237 39.6856 239.496 36.9999 242.576 36.9999H320.641C323.721 36.9999 326.217 39.6856 326.217 42.9986V78.9906C326.217 82.3036 323.721 84.9893 320.641 84.9893Z" fill="#CE6809"/>
<path d="M237 84.2388H295.549V37.7491H237V84.2388Z" fill="#333333"/>
<path d="M295.549 54.9954H326.218V42.998H295.549V54.9954Z" fill="#E77A16"/>
<path d="M237 55.7412H295.549V43.7439H237V55.7412Z" fill="#4C4C4C"/>
<path d="M334.212 73.1125H328.636C327.096 73.1125 325.848 71.7697 325.848 70.1132V52.1172C325.848 50.4607 327.096 49.1179 328.636 49.1179H334.212C335.752 49.1179 337 50.4607 337 52.1172V70.1132C337 71.7697 335.752 73.1125 334.212 73.1125Z" fill="#333333"/>
<path d="M332.818 57.8118H327.242C326.472 57.8118 325.848 57.1403 325.848 56.3121V53.3128C325.848 52.4845 326.472 51.8131 327.242 51.8131H332.818C333.588 51.8131 334.212 52.4845 334.212 53.3128V56.3121C334.212 57.1403 333.588 57.8118 332.818 57.8118Z" fill="#4C4C4C"/>
<path d="M320.641 85H242.576C239.496 85 237 82.3143 237 79.0013V43.0093C237 39.6964 239.496 37.0107 242.576 37.0107H320.641C323.721 37.0107 326.217 39.6964 326.217 43.0093V79.0013C326.217 82.3143 323.721 85 320.641 85Z" stroke="#333333" stroke-width="2.78497"/>
<path d="M352.111 62.207L351.926 21.8669L220.928 22.4698L221.114 62.8099" stroke="black" stroke-width="2"/>
<rect x="267" y="9" width="40" height="20" rx="5" fill="black"/>
<path d="M273.461 26V13.88H273.101L271.221 18.32H268.541L271.401 12H276.021V26H273.461ZM283.344 26.28C282.277 26.28 281.33 26.12 280.504 25.8C279.69 25.48 279.05 25.02 278.584 24.42C278.13 23.8067 277.904 23.0867 277.904 22.26V22.02C277.904 21.38 278.017 20.8533 278.244 20.44C278.47 20.0133 278.75 19.68 279.084 19.44C279.43 19.2 279.757 19.0333 280.064 18.94V18.58C279.757 18.4733 279.45 18.3 279.144 18.06C278.837 17.82 278.584 17.5 278.384 17.1C278.197 16.7 278.104 16.22 278.104 15.66V15.42C278.104 14.6867 278.317 14.0467 278.744 13.5C279.184 12.94 279.797 12.5067 280.584 12.2C281.37 11.88 282.29 11.72 283.344 11.72C284.397 11.72 285.317 11.88 286.104 12.2C286.89 12.5067 287.497 12.94 287.924 13.5C288.364 14.0467 288.584 14.6867 288.584 15.42V15.66C288.584 16.22 288.484 16.7 288.284 17.1C288.097 17.5 287.85 17.82 287.544 18.06C287.25 18.3 286.944 18.4733 286.624 18.58V18.94C286.944 19.0333 287.27 19.2 287.604 19.44C287.937 19.68 288.217 20.0133 288.444 20.44C288.67 20.8533 288.784 21.38 288.784 22.02V22.26C288.784 23.0867 288.55 23.8067 288.084 24.42C287.63 25.02 286.99 25.48 286.164 25.8C285.35 26.12 284.41 26.28 283.344 26.28ZM283.344 24C284.264 24 284.97 23.8267 285.464 23.48C285.97 23.12 286.224 22.6467 286.224 22.06V21.9C286.224 21.3133 285.977 20.8467 285.484 20.5C285.004 20.14 284.29 19.96 283.344 19.96C282.41 19.96 281.697 20.14 281.204 20.5C280.71 20.8467 280.464 21.3133 280.464 21.9V22.06C280.464 22.6467 280.71 23.12 281.204 23.48C281.71 23.8267 282.424 24 283.344 24ZM283.344 17.68C284.197 17.68 284.857 17.5267 285.324 17.22C285.79 16.9133 286.024 16.48 286.024 15.92V15.76C286.024 15.2 285.784 14.7667 285.304 14.46C284.824 14.1533 284.17 14 283.344 14C282.517 14 281.864 14.1533 281.384 14.46C280.904 14.7667 280.664 15.2 280.664 15.76V15.92C280.664 16.48 280.897 16.9133 281.364 17.22C281.83 17.5267 282.49 17.68 283.344 17.68ZM293.256 26L289.696 12H292.416L295.376 24.3H295.656L298.616 12H301.336L297.776 26H293.256Z" fill="white"/>
<circle cx="89" cy="358" r="21" fill="#463B3B"/>
<path d="M83.7047 365V362.16H76.8247V359.2L81.6647 351H86.2647V359.88H88.5847V362.16H86.2647V365H83.7047ZM79.2647 359.88H83.7047V352.64H83.3447L79.2647 359.56V359.88ZM89.3795 365L93.0595 351H97.6595L101.34 365H98.6195L97.8595 361.92H92.8595L92.0995 365H89.3795ZM93.4795 359.48H97.2395L95.5395 352.66H95.1795L93.4795 359.48Z" fill="white"/>
<circle cx="86" cy="194" r="21" fill="#463B3B"/>
<path d="M75.0646 201V199.32C75.0646 198.347 75.2246 197.54 75.5446 196.9C75.8646 196.247 76.3246 195.713 76.9246 195.3C77.5379 194.873 78.2846 194.527 79.1646 194.26L80.5046 193.84C80.9979 193.68 81.4113 193.487 81.7446 193.26C82.0779 193.02 82.3313 192.733 82.5046 192.4C82.6913 192.067 82.7846 191.687 82.7846 191.26V191.18C82.7846 190.513 82.5579 189.987 82.1046 189.6C81.6513 189.2 81.0313 189 80.2446 189C79.4713 189 78.8446 189.213 78.3646 189.64C77.8979 190.053 77.6646 190.653 77.6646 191.44V191.8H75.1046V191.48C75.1046 190.467 75.3313 189.607 75.7846 188.9C76.2379 188.193 76.8513 187.653 77.6246 187.28C78.4113 186.907 79.2846 186.72 80.2446 186.72C81.2046 186.72 82.0713 186.907 82.8446 187.28C83.6179 187.64 84.2246 188.153 84.6646 188.82C85.1179 189.473 85.3446 190.247 85.3446 191.14V191.34C85.3446 192.233 85.1579 192.993 84.7846 193.62C84.4246 194.233 83.9313 194.74 83.3046 195.14C82.6779 195.527 81.9646 195.847 81.1646 196.1L79.8846 196.5C79.3113 196.673 78.8646 196.867 78.5446 197.08C78.2246 197.28 77.9979 197.507 77.8646 197.76C77.7446 198 77.6846 198.293 77.6846 198.64V198.72H85.2246V201H75.0646ZM86.4596 201L90.1396 187H94.7396L98.4196 201H95.6996L94.9396 197.92H89.9396L89.1796 201H86.4596ZM90.5596 195.48H94.3196L92.6196 188.66H92.2596L90.5596 195.48Z" fill="white"/>
<circle cx="21" cy="102" r="21" fill="#463B3B"/>
<path d="M14.7205 109.28C13.6538 109.28 12.7271 109.08 11.9405 108.68C11.1538 108.28 10.5471 107.727 10.1205 107.02C9.6938 106.313 9.48047 105.5 9.48047 104.58V99.8C9.48047 98.6667 9.70714 97.7267 10.1605 96.98C10.6271 96.22 11.2605 95.6533 12.0605 95.28C12.8738 94.9067 13.8005 94.72 14.8405 94.72C15.8805 94.72 16.7805 94.8933 17.5405 95.24C18.3138 95.5867 18.9071 96.0867 19.3205 96.74C19.7471 97.3933 19.9605 98.1733 19.9605 99.08H17.3605C17.3605 98.52 17.1671 98.0333 16.7805 97.62C16.3938 97.2067 15.7471 97 14.8405 97C13.9471 97 13.2538 97.2333 12.7605 97.7C12.2805 98.1667 12.0405 98.8133 12.0405 99.64V101.08H12.4005C12.6271 100.813 12.9738 100.56 13.4405 100.32C13.9071 100.08 14.5871 99.96 15.4805 99.96C16.2938 99.96 17.0405 100.133 17.7205 100.48C18.4138 100.827 18.9738 101.333 19.4005 102C19.8271 102.653 20.0405 103.447 20.0405 104.38V104.62C20.0405 105.54 19.8205 106.353 19.3805 107.06C18.9405 107.753 18.3205 108.3 17.5205 108.7C16.7205 109.087 15.7871 109.28 14.7205 109.28ZM14.7605 107C15.6005 107 16.2605 106.78 16.7405 106.34C17.2338 105.9 17.4805 105.313 17.4805 104.58V104.42C17.4805 103.927 17.3671 103.5 17.1405 103.14C16.9271 102.78 16.6138 102.5 16.2005 102.3C15.8005 102.1 15.3205 102 14.7605 102C14.2138 102 13.7338 102.1 13.3205 102.3C12.9071 102.5 12.5871 102.78 12.3605 103.14C12.1471 103.5 12.0405 103.927 12.0405 104.42V104.58C12.0405 105.313 12.2805 105.9 12.7605 106.34C13.2538 106.78 13.9205 107 14.7605 107ZM21.2038 109L24.8838 95H29.4838L33.1638 109H30.4438L29.6838 105.92H24.6838L23.9238 109H21.2038ZM25.3038 103.48H29.0638L27.3638 96.66H27.0038L25.3038 103.48Z" fill="white"/>
<path d="M443.154 294L441.507 294.135L439.944 294.524L438.488 295.148L437.157 295.985L435.974 297.013L434.959 298.211L434.133 299.559L433.518 301.035L433.133 302.618L433 304.286V324.858L433.135 327.242L433.53 329.546L434.169 331.755L435.039 333.853L436.123 335.826L437.408 337.657L438.878 339.333L440.517 340.838L442.312 342.157L444.248 343.275L445.629 344.03L446.971 344.885L448.251 345.837L449.441 346.883L450.517 348.019L451.455 349.242L452.228 350.549L452.811 351.937L453.179 353.402L453.308 354.942L453.406 356.18L453.692 357.354L454.149 358.449L454.761 359.449L455.514 360.339L456.392 361.101L457.379 361.722L458.46 362.185L459.619 362.474L460.841 362.574H471.159L472.381 362.474L473.54 362.185L474.621 361.722L475.608 361.101L476.486 360.339L477.239 359.449L477.851 358.449L478.308 357.354L478.594 356.18L478.692 354.942L478.821 353.402L479.189 351.937L479.772 350.549L480.545 349.242L481.483 348.019L482.559 346.883L483.749 345.837L485.029 344.885L486.371 344.03L487.752 343.275L489.688 342.157L491.483 340.838L493.122 339.333L494.592 337.657L495.877 335.826L496.961 333.853L497.831 331.755L498.47 329.546L498.865 327.242L499 324.858V304.286L498.867 302.618L498.482 301.035L497.867 299.559L497.041 298.211L496.026 297.013L494.843 295.985L493.512 295.148L492.056 294.524L490.493 294.135L488.846 294H443.154Z" fill="#F2F2F2" stroke="#B3B3B3" stroke-width="2.78497"/>
<path d="M462.937 355.016V322.937L462.864 322.01L462.65 321.131L462.308 320.312L461.849 319.563L461.286 318.897L460.628 318.326L459.889 317.862L459.08 317.515L458.213 317.299L457.298 317.224L452.352 317.224L451.525 317.292L450.741 317.488L450.01 317.801L449.342 318.221L448.749 318.736L448.239 319.338L447.825 320.014L447.516 320.755L447.323 321.549L447.256 322.387L447.323 323.224L447.516 324.018L447.825 324.759L448.239 325.435L448.749 326.037L449.342 326.553L450.01 326.972L450.741 327.285L451.525 327.481L452.352 327.549L457.165 327.549L457.108 327.557H474.896L474.844 327.549L479.657 327.549L480.484 327.481L481.268 327.285L481.999 326.972L482.667 326.553L483.261 326.037L483.77 325.435L484.184 324.759L484.493 324.018L484.686 323.224L484.753 322.387L484.686 321.549L484.493 320.755L484.184 320.014L483.77 319.338L483.261 318.736L482.667 318.221L481.999 317.801L481.268 317.488L480.484 317.292L479.658 317.224L474.711 317.224L473.797 317.299L472.929 317.515L472.12 317.862L471.381 318.326L470.724 318.897L470.16 319.563L469.701 320.312L469.359 321.131L469.146 322.01L469.072 322.937V355.016" stroke="#B3B3B3" stroke-width="2.22798"/>
<path d="M453.308 354.001H478.692V357.43H453.308V354.001Z" fill="#808080" stroke="#808080" stroke-width="1.67098"/>
<path d="M453.308 354H478.692V357.428L478.581 358.819L478.261 360.138L477.748 361.367L477.06 362.491L476.214 363.489L475.228 364.346L474.119 365.043L472.905 365.563L471.603 365.888L470.231 366H461.769L460.397 365.888L459.095 365.563L457.881 365.043L456.772 364.346L455.786 363.489L454.94 362.491L454.252 361.367L453.739 360.138L453.418 358.819L453.308 357.428V354Z" fill="#141414" stroke="#141414" stroke-width="1.67098"/>
<path d="M442 358V380.018H498.25V358" stroke="black" stroke-width="2"/>
<rect x="448" y="370.734" width="43.027" height="20" rx="5" fill="black"/>
<path d="M456.973 387.734V375.614H456.613L454.733 380.054H452.053L454.913 373.734H459.533V387.734H456.973ZM467.335 388.014C465.682 388.014 464.355 387.561 463.355 386.654C462.355 385.734 461.855 384.347 461.855 382.494V378.974C461.855 377.174 462.355 375.807 463.355 374.874C464.355 373.927 465.682 373.454 467.335 373.454C469.002 373.454 470.329 373.927 471.315 374.874C472.315 375.807 472.815 377.174 472.815 378.974V382.494C472.815 384.347 472.315 385.734 471.315 386.654C470.329 387.561 469.002 388.014 467.335 388.014ZM467.335 385.734C468.335 385.734 469.069 385.461 469.535 384.914C470.015 384.367 470.255 383.587 470.255 382.574V378.854C470.255 377.827 469.989 377.054 469.455 376.534C468.935 376.001 468.229 375.734 467.335 375.734C466.415 375.734 465.695 376.007 465.175 376.554C464.669 377.101 464.415 377.867 464.415 378.854V382.574C464.415 383.627 464.655 384.421 465.135 384.954C465.629 385.474 466.362 385.734 467.335 385.734ZM477.744 387.734L474.184 373.734H476.904L479.864 386.034H480.144L483.104 373.734H485.824L482.264 387.734H477.744Z" fill="white"/>
<path d="M178.154 296L176.507 296.135L174.944 296.524L173.488 297.148L172.157 297.985L170.974 299.013L169.959 300.211L169.133 301.559L168.518 303.035L168.133 304.618L168 306.286V326.858L168.135 329.242L168.53 331.546L169.169 333.755L170.039 335.853L171.123 337.826L172.408 339.657L173.878 341.333L175.517 342.838L177.312 344.157L179.248 345.275L180.629 346.03L181.971 346.885L183.251 347.837L184.441 348.883L185.517 350.019L186.455 351.242L187.228 352.549L187.811 353.937L188.179 355.402L188.308 356.942L188.406 358.18L188.692 359.354L189.149 360.449L189.761 361.449L190.514 362.339L191.392 363.101L192.379 363.722L193.46 364.185L194.619 364.474L195.841 364.574H206.159L207.381 364.474L208.54 364.185L209.621 363.722L210.608 363.101L211.486 362.339L212.239 361.449L212.851 360.449L213.308 359.354L213.594 358.18L213.692 356.942L213.821 355.402L214.189 353.937L214.772 352.549L215.545 351.242L216.483 350.019L217.559 348.883L218.749 347.837L220.029 346.885L221.371 346.03L222.752 345.275L224.688 344.157L226.483 342.838L228.122 341.333L229.592 339.657L230.877 337.826L231.961 335.853L232.831 333.755L233.47 331.546L233.865 329.242L234 326.858V306.286L233.867 304.618L233.482 303.035L232.867 301.559L232.041 300.211L231.026 299.013L229.843 297.985L228.512 297.148L227.056 296.524L225.493 296.135L223.846 296H178.154Z" fill="#F2F2F2" stroke="#B3B3B3" stroke-width="2.78497"/>
<path d="M197.937 357.016V324.937L197.864 324.01L197.65 323.131L197.308 322.312L196.849 321.563L196.286 320.897L195.628 320.326L194.889 319.862L194.08 319.515L193.213 319.299L192.298 319.224L187.352 319.224L186.525 319.292L185.741 319.488L185.01 319.801L184.342 320.221L183.749 320.736L183.239 321.338L182.825 322.014L182.516 322.755L182.323 323.549L182.256 324.387L182.323 325.224L182.516 326.018L182.825 326.759L183.239 327.435L183.749 328.037L184.342 328.553L185.01 328.972L185.741 329.285L186.525 329.481L187.352 329.549L192.165 329.549L192.108 329.557H209.896L209.844 329.549L214.657 329.549L215.484 329.481L216.268 329.285L216.999 328.972L217.667 328.553L218.261 328.037L218.77 327.435L219.184 326.759L219.493 326.018L219.686 325.224L219.753 324.387L219.686 323.549L219.493 322.755L219.184 322.014L218.77 321.338L218.261 320.736L217.667 320.221L216.999 319.801L216.268 319.488L215.484 319.292L214.658 319.224L209.711 319.224L208.797 319.299L207.929 319.515L207.12 319.862L206.381 320.326L205.724 320.897L205.16 321.563L204.701 322.312L204.359 323.131L204.146 324.01L204.072 324.937V357.016" stroke="#B3B3B3" stroke-width="2.22798"/>
<path d="M188.308 356.001H213.692V359.43H188.308V356.001Z" fill="#808080" stroke="#808080" stroke-width="1.67098"/>
<path d="M188.308 356H213.692V359.428L213.581 360.819L213.261 362.138L212.748 363.367L212.06 364.491L211.214 365.489L210.228 366.346L209.119 367.043L207.905 367.563L206.603 367.888L205.231 368H196.769L195.397 367.888L194.095 367.563L192.881 367.043L191.772 366.346L190.786 365.489L189.94 364.491L189.252 363.367L188.739 362.138L188.418 360.819L188.308 359.428V356Z" fill="#141414" stroke="#141414" stroke-width="1.67098"/>
<path d="M177 360V382.018H233.25V360" stroke="black" stroke-width="2"/>
<rect x="183" y="372.734" width="43.027" height="20" rx="5" fill="black"/>
<path d="M196.822 390.014C195.756 390.014 194.809 389.854 193.982 389.534C193.169 389.214 192.529 388.754 192.062 388.154C191.609 387.541 191.382 386.821 191.382 385.994V385.754C191.382 385.114 191.496 384.587 191.722 384.174C191.949 383.747 192.229 383.414 192.562 383.174C192.909 382.934 193.236 382.767 193.542 382.674V382.314C193.236 382.207 192.929 382.034 192.622 381.794C192.316 381.554 192.062 381.234 191.862 380.834C191.676 380.434 191.582 379.954 191.582 379.394V379.154C191.582 378.421 191.796 377.781 192.222 377.234C192.662 376.674 193.276 376.241 194.062 375.934C194.849 375.614 195.769 375.454 196.822 375.454C197.876 375.454 198.796 375.614 199.582 375.934C200.369 376.241 200.976 376.674 201.402 377.234C201.842 377.781 202.062 378.421 202.062 379.154V379.394C202.062 379.954 201.962 380.434 201.762 380.834C201.576 381.234 201.329 381.554 201.022 381.794C200.729 382.034 200.422 382.207 200.102 382.314V382.674C200.422 382.767 200.749 382.934 201.082 383.174C201.416 383.414 201.696 383.747 201.922 384.174C202.149 384.587 202.262 385.114 202.262 385.754V385.994C202.262 386.821 202.029 387.541 201.562 388.154C201.109 388.754 200.469 389.214 199.642 389.534C198.829 389.854 197.889 390.014 196.822 390.014ZM196.822 387.734C197.742 387.734 198.449 387.561 198.942 387.214C199.449 386.854 199.702 386.381 199.702 385.794V385.634C199.702 385.047 199.456 384.581 198.962 384.234C198.482 383.874 197.769 383.694 196.822 383.694C195.889 383.694 195.176 383.874 194.682 384.234C194.189 384.581 193.942 385.047 193.942 385.634V385.794C193.942 386.381 194.189 386.854 194.682 387.214C195.189 387.561 195.902 387.734 196.822 387.734ZM196.822 381.414C197.676 381.414 198.336 381.261 198.802 380.954C199.269 380.647 199.502 380.214 199.502 379.654V379.494C199.502 378.934 199.262 378.501 198.782 378.194C198.302 377.887 197.649 377.734 196.822 377.734C195.996 377.734 195.342 377.887 194.862 378.194C194.382 378.501 194.142 378.934 194.142 379.494V379.654C194.142 380.214 194.376 380.647 194.842 380.954C195.309 381.261 195.969 381.414 196.822 381.414ZM206.734 389.734L203.174 375.734H205.894L208.854 388.034H209.134L212.094 375.734H214.814L211.254 389.734H206.734Z" fill="white"/>
<path d="M447.217 195.266V217.284H503.467V195.266" stroke="black" stroke-width="2"/>
<rect x="453.217" y="208" width="43.027" height="20" rx="5" fill="black"/>
<path d="M461.59 225V212.88H461.23L459.35 217.32H456.67L459.53 211H464.15V225H461.59ZM471.553 225.28C470.499 225.28 469.566 225.093 468.753 224.72C467.939 224.347 467.299 223.813 466.833 223.12C466.379 222.413 466.153 221.58 466.153 220.62V220.26H468.713V220.54C468.713 221.287 468.973 221.887 469.493 222.34C470.013 222.78 470.699 223 471.553 223C472.419 223 473.086 222.793 473.553 222.38C474.033 221.967 474.273 221.447 474.273 220.82V220.62C474.273 220.193 474.166 219.847 473.953 219.58C473.739 219.313 473.453 219.12 473.093 219C472.733 218.867 472.326 218.8 471.873 218.8H469.073V216L473.593 213.6V213.28H466.513V211H476.433V214.4L472.213 216.64V216.96H472.953C473.579 216.96 474.186 217.087 474.773 217.34C475.373 217.593 475.866 217.987 476.253 218.52C476.639 219.04 476.833 219.72 476.833 220.56V220.8C476.833 221.707 476.613 222.5 476.173 223.18C475.733 223.847 475.113 224.367 474.313 224.74C473.526 225.1 472.606 225.28 471.553 225.28ZM481.561 225L478.001 211H480.721L483.681 223.3H483.961L486.921 211H489.641L486.081 225H481.561Z" fill="white"/>
<path d="M486.857 189.39L486.914 188.365L487.078 187.364L487.344 186.391L487.703 185.449L488.148 184.54L488.673 183.67L489.27 182.84L489.932 182.054L490.651 181.316L491.421 180.628L493.624 178.618L495.653 176.413L497.496 174.038L499.139 171.517L500.566 168.874L501.765 166.133L502.722 163.317L503.423 160.451L503.853 157.559L504 154.665L503.607 150.016L502.471 145.605L500.651 141.492L498.212 137.736L495.213 134.396L491.718 131.531L487.787 129.2L483.482 127.461L478.866 126.375L474 126L469.134 126.375L464.518 127.461L460.213 129.2L456.282 131.531L452.787 134.396L449.788 137.736L447.349 141.492L445.529 145.605L444.393 150.016L444 154.665L444.147 157.559L444.577 160.451L445.278 163.317L446.235 166.133L447.434 168.874L448.861 171.517L450.504 174.038L452.347 176.413L454.376 178.618L456.579 180.628L457.349 181.316L458.068 182.054L458.73 182.84L459.327 183.67L459.852 184.54L460.297 185.449L460.656 186.391L460.922 187.364L461.086 188.365L461.143 189.39L461.238 190.578L461.514 191.704L461.955 192.754L462.546 193.714L463.273 194.567L464.121 195.298L465.074 195.894L466.118 196.337L467.237 196.615L468.417 196.711H479.583L480.763 196.615L481.882 196.337L482.926 195.894L483.879 195.298L484.727 194.567L485.454 193.714L486.045 192.754L486.486 191.704L486.762 190.578L486.857 189.39Z" fill="#F2F2F2" stroke="#B3B3B3" stroke-width="2.78497"/>
<path d="M470.897 190.426V158.799L470.816 157.782L470.58 156.818L470.202 155.918L469.696 155.097L469.073 154.367L468.347 153.74L467.531 153.23L466.637 152.85L465.679 152.613L464.669 152.531L464.178 152.531L463.247 152.606L462.364 152.825L461.541 153.175L460.79 153.645L460.121 154.222L459.548 154.895L459.081 155.651L458.733 156.48L458.516 157.368L458.441 158.305L458.516 159.241L458.733 160.13L459.081 160.958L459.548 161.715L460.121 162.387L460.79 162.964L461.541 163.434L462.364 163.784L463.247 164.003L464.178 164.078L465.05 164.078L464.992 164.087H483.011L482.958 164.078L483.831 164.078L484.761 164.003L485.644 163.784L486.467 163.434L487.219 162.964L487.887 162.387L488.461 161.715L488.927 160.958L489.275 160.13L489.493 159.241L489.568 158.305L489.493 157.368L489.275 156.48L488.927 155.651L488.461 154.895L487.887 154.222L487.219 153.645L486.467 153.175L485.644 152.825L484.762 152.606L483.831 152.531L483.34 152.531L482.329 152.613L481.371 152.85L480.477 153.23L479.661 153.74L478.936 154.367L478.313 155.097L477.807 155.918L477.429 156.818L477.193 157.782L477.111 158.799V190.426" stroke="#B3B3B3" stroke-width="2.22798"/>
<path d="M461.143 188.489H486.858V191.778L486.751 193.112L486.441 194.377L485.946 195.556L485.281 196.634L484.465 197.592L483.513 198.414L482.442 199.082L481.27 199.581L480.013 199.892L478.688 200H469.313L467.988 199.892L466.731 199.581L465.559 199.082L464.488 198.414L463.536 197.592L462.72 196.634L462.055 195.556L461.56 194.377L461.25 193.112L461.143 191.778V188.489Z" fill="#141414" stroke="#141414" stroke-width="1.67098"/>
<path d="M461.143 188.493H486.858V191.782H461.143V188.493Z" fill="#808080" stroke="#808080" stroke-width="1.67098"/>
<path d="M216.857 189.39L216.914 188.365L217.078 187.364L217.344 186.391L217.703 185.449L218.148 184.54L218.673 183.67L219.27 182.84L219.932 182.054L220.651 181.316L221.421 180.628L223.624 178.618L225.653 176.413L227.496 174.038L229.139 171.517L230.566 168.874L231.765 166.133L232.722 163.317L233.423 160.451L233.853 157.559L234 154.665L233.607 150.016L232.471 145.605L230.651 141.492L228.212 137.736L225.213 134.396L221.718 131.531L217.787 129.2L213.482 127.461L208.866 126.375L204 126L199.134 126.375L194.518 127.461L190.213 129.2L186.282 131.531L182.787 134.396L179.788 137.736L177.349 141.492L175.529 145.605L174.393 150.016L174 154.665L174.147 157.559L174.577 160.451L175.278 163.317L176.235 166.133L177.434 168.874L178.861 171.517L180.504 174.038L182.347 176.413L184.376 178.618L186.579 180.628L187.349 181.316L188.068 182.054L188.73 182.84L189.327 183.67L189.852 184.54L190.297 185.449L190.656 186.391L190.922 187.364L191.086 188.365L191.143 189.39L191.238 190.578L191.514 191.704L191.955 192.754L192.546 193.714L193.273 194.567L194.121 195.298L195.074 195.894L196.118 196.337L197.237 196.615L198.417 196.711H209.583L210.763 196.615L211.882 196.337L212.926 195.894L213.879 195.298L214.727 194.567L215.454 193.714L216.045 192.754L216.486 191.704L216.762 190.578L216.857 189.39Z" fill="#F2F2F2" stroke="#B3B3B3" stroke-width="2.78497"/>
<path d="M200.897 190.426V158.799L200.816 157.782L200.58 156.818L200.202 155.918L199.696 155.097L199.073 154.367L198.347 153.74L197.531 153.23L196.637 152.85L195.679 152.613L194.669 152.531L194.178 152.531L193.247 152.606L192.364 152.825L191.541 153.175L190.79 153.645L190.121 154.222L189.548 154.895L189.081 155.651L188.733 156.48L188.516 157.368L188.441 158.305L188.516 159.241L188.733 160.13L189.081 160.958L189.548 161.715L190.121 162.387L190.79 162.964L191.541 163.434L192.364 163.784L193.247 164.003L194.178 164.078L195.05 164.078L194.992 164.087H213.011L212.958 164.078L213.831 164.078L214.761 164.003L215.644 163.784L216.467 163.434L217.219 162.964L217.887 162.387L218.461 161.715L218.927 160.958L219.275 160.13L219.493 159.241L219.568 158.305L219.493 157.368L219.275 156.48L218.927 155.651L218.461 154.895L217.887 154.222L217.219 153.645L216.467 153.175L215.644 152.825L214.762 152.606L213.831 152.531L213.34 152.531L212.329 152.613L211.371 152.85L210.477 153.23L209.661 153.74L208.936 154.367L208.313 155.097L207.807 155.918L207.429 156.818L207.193 157.782L207.111 158.799V190.426" stroke="#B3B3B3" stroke-width="2.22798"/>
<path d="M191.143 188.489H216.858V191.778L216.751 193.112L216.441 194.377L215.946 195.556L215.281 196.634L214.465 197.592L213.513 198.414L212.442 199.082L211.27 199.581L210.013 199.892L208.688 200H199.313L197.988 199.892L196.731 199.581L195.559 199.082L194.488 198.414L193.536 197.592L192.72 196.634L192.055 195.556L191.56 194.377L191.25 193.112L191.143 191.778V188.489Z" fill="#141414" stroke="#141414" stroke-width="1.67098"/>
<path d="M191.143 188.493H216.858V191.782H191.143V188.493Z" fill="#808080" stroke="#808080" stroke-width="1.67098"/>
<path d="M177.217 195.266V217.284H233.467V195.266" stroke="black" stroke-width="2"/>
<rect x="183.217" y="208" width="43.027" height="20" rx="5" fill="black"/>
<path d="M197.099 225.28C196.006 225.28 195.059 225.087 194.259 224.7C193.472 224.313 192.866 223.767 192.439 223.06C192.012 222.353 191.799 221.533 191.799 220.6V220.4H194.399V220.58C194.399 221.247 194.619 221.82 195.059 222.3C195.512 222.767 196.179 223 197.059 223C197.939 223 198.612 222.767 199.079 222.3C199.559 221.82 199.799 221.2 199.799 220.44V220.24C199.799 219.493 199.559 218.9 199.079 218.46C198.612 218.02 198.026 217.8 197.319 217.8C196.932 217.8 196.612 217.853 196.359 217.96C196.106 218.067 195.899 218.2 195.739 218.36C195.579 218.52 195.446 218.68 195.339 218.84H192.239V211H201.799V213.32H194.799V216.74H195.159C195.292 216.567 195.472 216.4 195.699 216.24C195.926 216.08 196.219 215.947 196.579 215.84C196.939 215.733 197.366 215.68 197.859 215.68C198.686 215.68 199.439 215.853 200.119 216.2C200.799 216.547 201.339 217.06 201.739 217.74C202.152 218.407 202.359 219.233 202.359 220.22V220.46C202.359 221.447 202.146 222.3 201.719 223.02C201.306 223.74 200.706 224.3 199.919 224.7C199.132 225.087 198.192 225.28 197.099 225.28ZM206.951 225L203.391 211H206.111L209.071 223.3H209.351L212.311 211H215.031L211.471 225H206.951Z" fill="white"/>
</svg>
