<svg width="540" height="279" viewBox="0 0 540 279" fill="none" xmlns="http://www.w3.org/2000/svg">
<rect x="1" y="26.3818" width="538" height="218" stroke="black" stroke-width="2"/>
<path d="M301.713 49.3711H223.648C220.568 49.3711 218.072 46.6854 218.072 43.3724V7.38042C218.072 4.06744 220.568 1.38175 223.648 1.38175H301.713C304.792 1.38175 307.289 4.06744 307.289 7.38042V43.3724C307.289 46.6854 304.792 49.3711 301.713 49.3711Z" fill="#CE6809"/>
<path d="M218.072 48.6206H276.62V2.13093H218.072V48.6206Z" fill="#333333"/>
<path d="M276.621 19.377H307.289V7.37962H276.621V19.377Z" fill="#E77A16"/>
<path d="M218.072 20.123H276.62V8.12571H218.072V20.123Z" fill="#4C4C4C"/>
<path d="M315.284 37.4941H309.707C308.168 37.4941 306.919 36.1513 306.919 34.4948V16.4988C306.919 14.8423 308.168 13.4995 309.707 13.4995H315.284C316.823 13.4995 318.072 14.8423 318.072 16.4988V34.4948C318.072 36.1513 316.823 37.4941 315.284 37.4941Z" fill="#333333"/>
<path d="M313.89 22.1934H308.313C307.544 22.1934 306.919 21.5219 306.919 20.6937V17.6944C306.919 16.8661 307.544 16.1947 308.313 16.1947H313.89C314.659 16.1947 315.284 16.8661 315.284 17.6944V20.6937C315.284 21.5219 314.659 22.1934 313.89 22.1934Z" fill="#4C4C4C"/>
<path d="M301.713 49.3818H223.648C220.568 49.3818 218.072 46.6961 218.072 43.3832V7.39116C218.072 4.07819 220.568 1.39249 223.648 1.39249H301.713C304.792 1.39249 307.289 4.07819 307.289 7.39116V43.3832C307.289 46.6961 304.792 49.3818 301.713 49.3818Z" stroke="#333333" stroke-width="2.78497"/>
<path d="M427.662 204.481L426.98 205.374L426.365 206.297L425.819 207.247L425.343 208.221L424.937 209.217L424.602 210.231L424.34 211.261L424.152 212.304L424.038 213.358L424 214.419L424.118 216.296L424.463 218.115L425.023 219.867L425.787 221.542L426.743 223.13L427.878 224.62L429.181 226.003L430.639 227.269L432.241 228.406L433.974 229.407L435.179 230.071L436.341 230.803L437.44 231.599L438.456 232.456L439.369 233.374L440.161 234.348L440.811 235.378L441.3 236.46L441.607 237.593L441.714 238.774L441.817 239.849L442.116 240.869L442.595 241.821L443.236 242.689L444.024 243.462L444.943 244.124L445.976 244.663L447.108 245.065L448.321 245.317L449.6 245.403H460.4L461.679 245.317L462.892 245.065L464.024 244.663L465.057 244.124L465.976 243.462L466.764 242.689L467.405 241.821L467.884 240.869L468.182 239.849L468.286 238.774L468.393 237.593L468.7 236.46L469.189 235.378L469.839 234.348L470.631 233.374L471.544 232.456L472.56 231.599L473.659 230.803L474.821 230.071L476.026 229.407L477.759 228.406L479.361 227.269L480.819 226.003L482.122 224.62L483.257 223.13L484.213 221.542L484.977 219.867L485.537 218.115L485.882 216.296L486 214.419L485.962 213.358L485.848 212.304L485.66 211.261L485.398 210.231L485.063 209.217L484.657 208.221L484.181 207.247L483.635 206.297L483.02 205.374L482.338 204.481L459.384 176.324L458.682 175.624L457.864 175.081L456.958 174.692L455.994 174.459L455 174.382L454.006 174.459L453.042 174.692L452.136 175.081L451.318 175.624L450.616 176.324L427.662 204.481Z" fill="#F2F2F2" stroke="#B3B3B3" stroke-width="2.79134"/>
<path d="M451.794 239.711V209.316L451.732 208.68L451.556 208.076L451.273 207.514L450.893 207L450.427 206.543L449.884 206.151L449.273 205.832L448.603 205.594L447.885 205.446L447.129 205.395L446.372 205.446L445.655 205.595L444.985 205.832L444.374 206.151L443.831 206.543L443.365 207L442.985 207.514L442.703 208.076L442.526 208.68L442.465 209.316V213.089L442.554 214.02L442.813 214.903L443.227 215.727L443.783 216.479L444.465 217.148L445.261 217.722L446.156 218.189L447.136 218.537L448.187 218.755L449.295 218.83L448.8 218.837H461.2L460.714 218.83L461.822 218.755L462.873 218.537L463.853 218.189L464.747 217.722L465.543 217.148L466.226 216.479L466.781 215.727L467.195 214.903L467.454 214.02L467.544 213.089V209.316L467.483 208.68L467.306 208.076L467.023 207.514L466.644 207L466.178 206.543L465.634 206.151L465.023 205.832L464.354 205.595L463.636 205.446L462.88 205.395L462.123 205.446L461.405 205.594L460.736 205.832L460.125 206.151L459.581 206.543L459.115 207L458.736 207.514L458.453 208.076L458.276 208.68L458.215 209.316V239.711" stroke="#B3B3B3" stroke-width="2.23307"/>
<path d="M441.715 237.958H468.286V240.936L468.17 242.144L467.834 243.29L467.297 244.358L466.577 245.333L465.692 246.201L464.66 246.945L463.499 247.551L462.228 248.002L460.866 248.284L459.429 248.382H450.572L449.135 248.284L447.772 248.002L446.501 247.551L445.341 246.945L444.309 246.201L443.424 245.333L442.703 244.358L442.166 243.29L441.831 242.144L441.715 240.936V237.958Z" fill="#141414" stroke="#141414" stroke-width="1.67481"/>
<path d="M441.715 237.958H468.286V240.936H441.715V237.958Z" fill="#808080" stroke="#808080" stroke-width="1.67481"/>
<path d="M448.653 189.371C455.226 189.371 460.554 193.85 460.554 199.376C460.554 204.901 455.226 209.381 448.653 209.381C442.079 209.381 436.751 204.901 436.751 199.376C436.751 193.85 442.079 189.371 448.653 189.371Z" fill="white" fill-opacity="0.3"/>
<rect x="434" y="252.382" width="43.027" height="20" rx="5" fill="black"/>
<path d="M453.85 269.382L458.97 255.382H462.03L467.13 269.382H464.27L460.49 258.462L456.69 269.382H453.85ZM456.11 266.202L456.83 264.102H463.95L464.65 266.202H456.11Z" fill="white"/>
<path d="M447.058 269.662C445.992 269.662 445.065 269.462 444.278 269.062C443.492 268.662 442.885 268.109 442.458 267.402C442.032 266.695 441.818 265.882 441.818 264.962V260.182C441.818 259.049 442.045 258.109 442.498 257.362C442.965 256.602 443.598 256.035 444.398 255.662C445.212 255.289 446.138 255.102 447.178 255.102C448.218 255.102 449.118 255.275 449.878 255.622C450.652 255.969 451.245 256.469 451.658 257.122C452.085 257.775 452.298 258.555 452.298 259.462H449.698C449.698 258.902 449.505 258.415 449.118 258.002C448.732 257.589 448.085 257.382 447.178 257.382C446.285 257.382 445.592 257.615 445.098 258.082C444.618 258.549 444.378 259.195 444.378 260.022V261.462H444.738C444.965 261.195 445.312 260.942 445.778 260.702C446.245 260.462 446.925 260.342 447.818 260.342C448.632 260.342 449.378 260.515 450.058 260.862C450.752 261.209 451.312 261.715 451.738 262.382C452.165 263.035 452.378 263.829 452.378 264.762V265.002C452.378 265.922 452.158 266.735 451.718 267.442C451.278 268.135 450.658 268.682 449.858 269.082C449.058 269.469 448.125 269.662 447.058 269.662ZM447.098 267.382C447.938 267.382 448.598 267.162 449.078 266.722C449.572 266.282 449.818 265.695 449.818 264.962V264.802C449.818 264.309 449.705 263.882 449.478 263.522C449.265 263.162 448.952 262.882 448.538 262.682C448.138 262.482 447.658 262.382 447.098 262.382C446.552 262.382 446.072 262.482 445.658 262.682C445.245 262.882 444.925 263.162 444.698 263.522C444.485 263.882 444.378 264.309 444.378 264.802V264.962C444.378 265.695 444.618 266.282 445.098 266.722C445.592 267.162 446.258 267.382 447.098 267.382Z" fill="white"/>
<path d="M246.154 177.382L244.507 177.516L242.944 177.906L241.488 178.53L240.157 179.366L238.974 180.394L237.959 181.593L237.133 182.941L236.518 184.417L236.133 185.999L236 187.668V208.24L236.135 210.624L236.53 212.928L237.169 215.136L238.039 217.235L239.123 219.207L240.408 221.039L241.878 222.715L243.517 224.22L245.312 225.539L247.248 226.656L248.629 227.411L249.971 228.267L251.251 229.219L252.441 230.264L253.517 231.4L254.455 232.623L255.228 233.93L255.811 235.318L256.179 236.784L256.308 238.324L256.406 239.562L256.692 240.736L257.149 241.831L257.761 242.831L258.514 243.72L259.392 244.483L260.379 245.104L261.46 245.566L262.619 245.856L263.841 245.956H274.159L275.381 245.856L276.54 245.566L277.621 245.104L278.608 244.483L279.486 243.72L280.239 242.831L280.851 241.831L281.308 240.736L281.594 239.562L281.692 238.324L281.821 236.784L282.189 235.318L282.772 233.93L283.545 232.623L284.483 231.4L285.559 230.264L286.749 229.219L288.029 228.267L289.371 227.411L290.752 226.656L292.688 225.539L294.483 224.22L296.122 222.715L297.592 221.039L298.877 219.207L299.961 217.235L300.831 215.136L301.47 212.928L301.865 210.624L302 208.24V187.668L301.867 185.999L301.482 184.417L300.867 182.941L300.041 181.593L299.026 180.394L297.843 179.366L296.512 178.53L295.056 177.906L293.493 177.516L291.846 177.382H246.154Z" fill="#F2F2F2" stroke="#B3B3B3" stroke-width="2.78497"/>
<path d="M265.937 238.398V206.319L265.864 205.392L265.65 204.513L265.308 203.694L264.849 202.945L264.286 202.279L263.628 201.708L262.889 201.244L262.08 200.897L261.213 200.681L260.298 200.606L255.352 200.606L254.525 200.674L253.741 200.87L253.01 201.183L252.342 201.602L251.749 202.118L251.239 202.72L250.825 203.396L250.516 204.137L250.323 204.931L250.256 205.768L250.323 206.606L250.516 207.4L250.825 208.141L251.239 208.817L251.749 209.418L252.342 209.934L253.01 210.354L253.741 210.667L254.525 210.863L255.352 210.93L260.165 210.93L260.108 210.939H277.896L277.844 210.93L282.657 210.93L283.484 210.863L284.268 210.667L284.999 210.354L285.667 209.934L286.261 209.418L286.77 208.817L287.184 208.141L287.493 207.4L287.686 206.606L287.753 205.768L287.686 204.931L287.493 204.137L287.184 203.396L286.77 202.72L286.261 202.118L285.667 201.602L284.999 201.183L284.268 200.87L283.484 200.674L282.658 200.606L277.711 200.606L276.797 200.681L275.929 200.897L275.12 201.244L274.381 201.708L273.724 202.279L273.16 202.945L272.701 203.694L272.359 204.513L272.146 205.392L272.072 206.319V238.398" stroke="#B3B3B3" stroke-width="2.22798"/>
<path d="M256.308 237.383H281.692V240.812H256.308V237.383Z" fill="#808080" stroke="#808080" stroke-width="1.67098"/>
<path d="M256.308 237.381H281.692V240.81L281.581 242.2L281.261 243.519L280.748 244.749L280.06 245.872L279.214 246.871L278.228 247.728L277.119 248.425L275.905 248.945L274.603 249.27L273.231 249.382H264.769L263.397 249.27L262.095 248.945L260.881 248.425L259.772 247.728L258.786 246.871L257.94 245.872L257.252 244.749L256.739 243.519L256.418 242.2L256.308 240.81V237.381Z" fill="#141414" stroke="#141414" stroke-width="1.67098"/>
<rect x="249" y="255.382" width="43.027" height="20" rx="5" fill="black"/>
<path d="M273.35 272.382L278.47 258.382H281.53L286.63 272.382H283.77L279.99 261.462L276.19 272.382H273.35ZM275.61 269.202L276.33 267.102H283.45L284.15 269.202H275.61Z" fill="white"/>
<path d="M257.701 272.382V260.262H257.341L255.461 264.702H252.781L255.641 258.382H260.261V272.382H257.701ZM262.424 272.382V270.702C262.424 269.729 262.584 268.922 262.904 268.282C263.224 267.629 263.684 267.095 264.284 266.682C264.897 266.255 265.644 265.909 266.524 265.642L267.864 265.222C268.357 265.062 268.771 264.869 269.104 264.642C269.437 264.402 269.691 264.115 269.864 263.782C270.051 263.449 270.144 263.069 270.144 262.642V262.562C270.144 261.895 269.917 261.369 269.464 260.982C269.011 260.582 268.391 260.382 267.604 260.382C266.831 260.382 266.204 260.595 265.724 261.022C265.257 261.435 265.024 262.035 265.024 262.822V263.182H262.464V262.862C262.464 261.849 262.691 260.989 263.144 260.282C263.597 259.575 264.211 259.035 264.984 258.662C265.771 258.289 266.644 258.102 267.604 258.102C268.564 258.102 269.431 258.289 270.204 258.662C270.977 259.022 271.584 259.535 272.024 260.202C272.477 260.855 272.704 261.629 272.704 262.522V262.722C272.704 263.615 272.517 264.375 272.144 265.002C271.784 265.615 271.291 266.122 270.664 266.522C270.037 266.909 269.324 267.229 268.524 267.482L267.244 267.882C266.671 268.055 266.224 268.249 265.904 268.462C265.584 268.662 265.357 268.889 265.224 269.142C265.104 269.382 265.044 269.675 265.044 270.022V270.102H272.584V272.382H262.424Z" fill="white"/>
<path d="M81.8572 237.772L81.9136 236.747L82.0782 235.746L82.3436 234.773L82.7028 233.83L83.1484 232.922L83.6733 232.051L84.2702 231.221L84.932 230.436L85.6514 229.697L86.4211 229.01L88.6238 226.999L90.6535 224.794L92.4964 222.42L94.1386 219.899L95.5662 217.255L96.7653 214.514L97.7222 211.699L98.4228 208.833L98.8534 205.941L99 203.047L98.6074 198.397L97.4706 193.986L95.6515 189.873L93.2117 186.118L90.2132 182.777L86.7176 179.912L82.7867 177.581L78.4823 175.843L73.8662 174.757L69 174.382L64.1338 174.757L59.5177 175.843L55.2133 177.581L51.2824 179.912L47.7868 182.777L44.7883 186.118L42.3485 189.873L40.5294 193.986L39.3927 198.397L39 203.047L39.1466 205.941L39.5772 208.833L40.2778 211.699L41.2347 214.514L42.4338 217.255L43.8614 219.899L45.5036 222.42L47.3465 224.794L49.3762 226.999L51.5789 229.01L52.3486 229.697L53.068 230.436L53.7298 231.221L54.3267 232.051L54.8516 232.922L55.2972 233.83L55.6564 234.773L55.9218 235.746L56.0864 236.747L56.1429 237.772L56.2381 238.959L56.5137 240.086L56.9548 241.136L57.5463 242.095L58.2733 242.948L59.1209 243.68L60.074 244.275L61.1176 244.719L62.2369 244.996L63.4167 245.092H74.5833L75.7632 244.996L76.8824 244.719L77.926 244.275L78.8791 243.68L79.7267 242.948L80.4537 242.095L81.0453 241.136L81.4863 240.086L81.7619 238.959L81.8572 237.772Z" fill="#F2F2F2" stroke="#B3B3B3" stroke-width="2.78497"/>
<path d="M65.8972 238.808V207.181L65.8157 206.164L65.5797 205.2L65.202 204.3L64.6955 203.479L64.073 202.748L63.3472 202.122L62.5311 201.612L61.6375 201.232L60.6791 200.995L59.6688 200.913L59.1776 200.913L58.247 200.988L57.3643 201.207L56.5412 201.557L55.7896 202.027L55.1211 202.604L54.5477 203.277L54.0812 204.033L53.7334 204.862L53.516 205.75L53.4409 206.686L53.516 207.623L53.7334 208.511L54.0812 209.34L54.5478 210.096L55.1212 210.769L55.7896 211.346L56.5413 211.816L57.3644 212.166L58.2472 212.385L59.1777 212.46L60.0503 212.46L59.9917 212.468H78.0111L77.9583 212.46L78.8308 212.46L79.7614 212.385L80.6441 212.166L81.4672 211.816L82.2189 211.346L82.8874 210.769L83.4608 210.096L83.9273 209.34L84.2752 208.511L84.4926 207.623L84.5676 206.686L84.4926 205.75L84.2752 204.862L83.9273 204.033L83.4608 203.277L82.8874 202.604L82.219 202.027L81.4673 201.557L80.6442 201.207L79.7615 200.988L78.831 200.913L78.3398 200.913L77.3295 200.995L76.3711 201.232L75.4774 201.612L74.6613 202.122L73.9356 202.748L73.3131 203.479L72.8065 204.3L72.4289 205.2L72.1928 206.164L72.1113 207.181V238.808" stroke="#B3B3B3" stroke-width="2.22798"/>
<path d="M56.1433 236.871H81.8576V240.16L81.7507 241.493L81.4411 242.759L80.9457 243.938L80.2813 245.016L79.4648 245.974L78.5128 246.795L77.4424 247.464L76.2702 247.963L75.0131 248.274L73.688 248.382H64.313L62.9878 248.274L61.7307 247.963L60.5585 247.464L59.4881 246.795L58.5361 245.974L57.7196 245.016L57.0552 243.938L56.5598 242.759L56.2502 241.493L56.1433 240.16V236.871Z" fill="#141414" stroke="#141414" stroke-width="1.67098"/>
<path d="M56.1433 236.875H81.8576V240.164H56.1433V236.875Z" fill="#808080" stroke="#808080" stroke-width="1.67098"/>
<rect x="49" y="254.382" width="43.027" height="20" rx="5" fill="black"/>
<path d="M68.3502 271.382L73.4702 257.382H76.5302L81.6302 271.382H78.7702L74.9902 260.462L71.1902 271.382H68.3502ZM70.6102 268.202L71.3302 266.102H78.4502L79.1502 268.202H70.6102Z" fill="white"/>
<path d="M63.0426 271.382V268.542H56.1626V265.582L61.0026 257.382H65.6026V266.262H67.9226V268.542H65.6026V271.382H63.0426ZM58.6026 266.262H63.0426V259.022H62.6826L58.6026 265.942V266.262Z" fill="white"/>
</svg>
