<svg width="560" height="389" viewBox="0 0 560 389" fill="none" xmlns="http://www.w3.org/2000/svg">
<g clip-path="url(#clip0_159_231)">
<mask id="mask0_159_231" style="mask-type:luminance" maskUnits="userSpaceOnUse" x="20" y="60" width="540" height="285">
<path d="M560 60H20V345H560V60Z" fill="white"/>
</mask>
<g mask="url(#mask0_159_231)">
<path d="M21 202.5V344H559V202.5M21 202.5V61H559V202.5M21 202.5H559" stroke="black" stroke-width="2"/>
</g>
</g>
<path d="M331.754 84.9893H253.689C250.609 84.9893 248.113 82.3036 248.113 78.9907V42.9986C248.113 39.6857 250.609 37 253.689 37H331.754C334.834 37 337.33 39.6857 337.33 42.9986V78.9907C337.33 82.3036 334.834 84.9893 331.754 84.9893Z" fill="#CE6809"/>
<path d="M248.113 84.2387H306.662V37.749H248.113V84.2387Z" fill="#333333"/>
<path d="M306.662 54.9953H337.33V42.998H306.662V54.9953Z" fill="#E77A16"/>
<path d="M248.113 55.7411H306.662V43.7438H248.113V55.7411Z" fill="#4C4C4C"/>
<path d="M345.325 73.1125H339.748C338.209 73.1125 336.96 71.7696 336.96 70.1132V52.1171C336.96 50.4607 338.209 49.1178 339.748 49.1178H345.325C346.864 49.1178 348.113 50.4607 348.113 52.1171V70.1132C348.113 71.7696 346.864 73.1125 345.325 73.1125Z" fill="#333333"/>
<path d="M343.931 57.8118H338.354C337.585 57.8118 336.96 57.1403 336.96 56.3121V53.3128C336.96 52.4845 337.585 51.8131 338.354 51.8131H343.931C344.7 51.8131 345.325 52.4845 345.325 53.3128V56.3121C345.325 57.1403 344.7 57.8118 343.931 57.8118Z" fill="#4C4C4C"/>
<path d="M331.754 85H253.689C250.609 85 248.113 82.3143 248.113 79.0013V43.0093C248.113 39.6964 250.609 37.0107 253.689 37.0107H331.754C334.834 37.0107 337.33 39.6964 337.33 43.0093V79.0013C337.33 82.3143 334.834 85 331.754 85Z" stroke="#333333" stroke-width="2.78497"/>
<path d="M363.224 62.207L362.997 12.9316L232 13.5346L232.227 62.8099" stroke="black" stroke-width="2"/>
<rect x="277.113" y="3" width="40" height="20" rx="5" fill="black"/>
<path d="M284.519 20V7.88H284.159L282.279 12.32H279.599L282.459 6H287.079V20H284.519ZM289.242 20V18.32C289.242 17.3467 289.402 16.54 289.722 15.9C290.042 15.2467 290.502 14.7133 291.102 14.3C291.716 13.8733 292.462 13.5267 293.342 13.26L294.682 12.84C295.176 12.68 295.589 12.4867 295.922 12.26C296.256 12.02 296.509 11.7333 296.682 11.4C296.869 11.0667 296.962 10.6867 296.962 10.26V10.18C296.962 9.51333 296.736 8.98667 296.282 8.6C295.829 8.2 295.209 8 294.422 8C293.649 8 293.022 8.21333 292.542 8.64C292.076 9.05333 291.842 9.65333 291.842 10.44V10.8H289.282V10.48C289.282 9.46667 289.509 8.60667 289.962 7.9C290.416 7.19333 291.029 6.65333 291.802 6.28C292.589 5.90667 293.462 5.72 294.422 5.72C295.382 5.72 296.249 5.90667 297.022 6.28C297.796 6.64 298.402 7.15333 298.842 7.82C299.296 8.47333 299.522 9.24667 299.522 10.14V10.34C299.522 11.2333 299.336 11.9933 298.962 12.62C298.602 13.2333 298.109 13.74 297.482 14.14C296.856 14.5267 296.142 14.8467 295.342 15.1L294.062 15.5C293.489 15.6733 293.042 15.8667 292.722 16.08C292.402 16.28 292.176 16.5067 292.042 16.76C291.922 17 291.862 17.2933 291.862 17.64V17.72H299.402V20H289.242ZM304.197 20L300.637 6H303.357L306.317 18.3H306.597L309.557 6H312.277L308.717 20H304.197Z" fill="white"/>
<circle cx="98" cy="342" r="21" fill="#463B3B"/>
<path d="M92.7047 349V346.16H85.8247V343.2L90.6647 335H95.2647V343.88H97.5847V346.16H95.2647V349H92.7047ZM88.2647 343.88H92.7047V336.64H92.3447L88.2647 343.56V343.88ZM98.3795 349L102.06 335H106.66L110.34 349H107.62L106.86 345.92H101.86L101.1 349H98.3795ZM102.48 343.48H106.24L104.54 336.66H104.18L102.48 343.48Z" fill="white"/>
<circle cx="97" cy="202" r="21" fill="#463B3B"/>
<path d="M91.1581 209.28C90.1048 209.28 89.1715 209.093 88.3581 208.72C87.5448 208.347 86.9048 207.813 86.4381 207.12C85.9848 206.413 85.7581 205.58 85.7581 204.62V204.26H88.3181V204.54C88.3181 205.287 88.5781 205.887 89.0981 206.34C89.6181 206.78 90.3048 207 91.1581 207C92.0248 207 92.6915 206.793 93.1581 206.38C93.6381 205.967 93.8781 205.447 93.8781 204.82V204.62C93.8781 204.193 93.7715 203.847 93.5581 203.58C93.3448 203.313 93.0581 203.12 92.6981 203C92.3381 202.867 91.9315 202.8 91.4781 202.8H88.6781V200L93.1981 197.6V197.28H86.1181V195H96.0381V198.4L91.8181 200.64V200.96H92.5581C93.1848 200.96 93.7915 201.087 94.3781 201.34C94.9781 201.593 95.4715 201.987 95.8581 202.52C96.2448 203.04 96.4381 203.72 96.4381 204.56V204.8C96.4381 205.707 96.2181 206.5 95.7781 207.18C95.3381 207.847 94.7181 208.367 93.9181 208.74C93.1315 209.1 92.2115 209.28 91.1581 209.28ZM97.6061 209L101.286 195H105.886L109.566 209H106.846L106.086 205.92H101.086L100.326 209H97.6061ZM101.706 203.48H105.466L103.766 196.66H103.406L101.706 203.48Z" fill="white"/>
<circle cx="21" cy="113" r="21" fill="#463B3B"/>
<path d="M11.745 120V119.48C11.745 118.96 11.785 118.52 11.865 118.16C11.945 117.787 12.1183 117.367 12.385 116.9L17.085 108.6V108.28H9.645V106H19.725V109.04L14.765 117.9C14.5917 118.207 14.4717 118.48 14.405 118.72C14.3383 118.96 14.305 119.253 14.305 119.6V120H11.745ZM20.5592 120L24.2392 106H28.8392L32.5192 120H29.7992L29.0392 116.92H24.0392L23.2792 120H20.5592ZM24.6592 114.48H28.4192L26.7192 107.66H26.3592L24.6592 114.48Z" fill="white"/>
<path d="M270 343.266V365.284H326.25V343.266" stroke="black" stroke-width="2"/>
<rect x="276" y="356" width="43.027" height="20" rx="5" fill="black"/>
<path d="M288.401 373V372.48C288.401 371.96 288.441 371.52 288.521 371.16C288.601 370.787 288.775 370.367 289.041 369.9L293.741 361.6V361.28H286.301V359H296.381V362.04L291.421 370.9C291.248 371.207 291.128 371.48 291.061 371.72C290.995 371.96 290.961 372.253 290.961 372.6V373H288.401ZM300.775 373L297.215 359H299.935L302.895 371.3H303.175L306.135 359H308.855L305.295 373H300.775Z" fill="white"/>
<path d="M271.662 303.099L270.98 303.993L270.365 304.916L269.819 305.866L269.343 306.84L268.937 307.835L268.602 308.85L268.34 309.88L268.152 310.923L268.038 311.976L268 313.038L268.118 314.914L268.463 316.734L269.023 318.486L269.787 320.161L270.743 321.748L271.878 323.239L273.181 324.622L274.639 325.887L276.241 327.025L277.974 328.025L279.179 328.69L280.341 329.421L281.44 330.217L282.456 331.075L283.369 331.992L284.161 332.967L284.811 333.996L285.3 335.079L285.607 336.212L285.714 337.392L285.817 338.468L286.116 339.488L286.595 340.439L287.236 341.308L288.024 342.08L288.943 342.743L289.976 343.282L291.108 343.684L292.321 343.935L293.6 344.022H304.4L305.679 343.935L306.892 343.684L308.024 343.282L309.057 342.743L309.976 342.08L310.764 341.308L311.405 340.439L311.884 339.488L312.182 338.468L312.286 337.392L312.393 336.212L312.7 335.079L313.189 333.996L313.839 332.967L314.631 331.992L315.544 331.075L316.56 330.217L317.659 329.421L318.821 328.69L320.026 328.025L321.759 327.025L323.361 325.887L324.819 324.622L326.122 323.239L327.257 321.748L328.213 320.161L328.977 318.486L329.537 316.734L329.882 314.914L330 313.038L329.962 311.976L329.848 310.923L329.66 309.88L329.398 308.85L329.063 307.835L328.657 306.84L328.181 305.866L327.635 304.916L327.02 303.993L326.338 303.099L303.384 274.942L302.682 274.243L301.864 273.699L300.958 273.311L299.994 273.078L299 273L298.006 273.078L297.042 273.311L296.136 273.699L295.318 274.243L294.616 274.942L271.662 303.099Z" fill="#F2F2F2" stroke="#B3B3B3" stroke-width="2.79134"/>
<path d="M295.794 338.329V307.934L295.732 307.298L295.556 306.695L295.273 306.132L294.893 305.618L294.427 305.161L293.884 304.769L293.273 304.451L292.603 304.213L291.885 304.064L291.129 304.013L290.372 304.064L289.655 304.213L288.985 304.451L288.374 304.77L287.831 305.162L287.365 305.618L286.985 306.132L286.703 306.695L286.526 307.298L286.465 307.934V311.707L286.554 312.638L286.813 313.522L287.227 314.345L287.783 315.098L288.465 315.767L289.261 316.341L290.156 316.808L291.136 317.156L292.187 317.373L293.295 317.448L292.8 317.456H305.2L304.714 317.448L305.822 317.373L306.873 317.156L307.853 316.808L308.747 316.341L309.543 315.767L310.226 315.098L310.781 314.345L311.195 313.522L311.454 312.638L311.544 311.707V307.934L311.483 307.298L311.306 306.695L311.023 306.132L310.644 305.618L310.178 305.162L309.634 304.77L309.023 304.451L308.354 304.213L307.636 304.064L306.88 304.013L306.123 304.064L305.405 304.213L304.736 304.451L304.125 304.769L303.581 305.161L303.115 305.618L302.736 306.132L302.453 306.695L302.276 307.298L302.215 307.934V338.329" stroke="#B3B3B3" stroke-width="2.23307"/>
<path d="M285.715 336.576H312.286V339.554L312.17 340.762L311.835 341.908L311.298 342.976L310.577 343.952L309.692 344.819L308.66 345.563L307.499 346.169L306.229 346.62L304.866 346.903L303.429 347H294.572L293.135 346.903L291.772 346.62L290.501 346.169L289.341 345.563L288.309 344.819L287.424 343.952L286.703 342.976L286.166 341.908L285.831 340.762L285.715 339.554V336.576Z" fill="#141414" stroke="#141414" stroke-width="1.67481"/>
<path d="M285.715 336.576H312.286V339.554H285.715V336.576Z" fill="#808080" stroke="#808080" stroke-width="1.67481"/>
<path d="M292.653 287.989C299.226 287.989 304.554 292.468 304.554 297.994C304.554 303.519 299.226 307.999 292.653 307.999C286.079 307.999 280.751 303.519 280.751 297.994C280.751 292.468 286.079 287.989 292.653 287.989Z" fill="white" fill-opacity="0.3"/>
<path d="M270 203.266V225.284H326.25V203.266" stroke="black" stroke-width="2"/>
<rect x="276" y="216" width="43.027" height="20" rx="5" fill="black"/>
<path d="M284.519 233V220.88H284.159L282.279 225.32H279.599L282.459 219H287.079V233H284.519ZM289.242 233V231.32C289.242 230.347 289.402 229.54 289.722 228.9C290.042 228.247 290.502 227.713 291.102 227.3C291.716 226.873 292.462 226.527 293.342 226.26L294.682 225.84C295.176 225.68 295.589 225.487 295.922 225.26C296.256 225.02 296.509 224.733 296.682 224.4C296.869 224.067 296.962 223.687 296.962 223.26V223.18C296.962 222.513 296.736 221.987 296.282 221.6C295.829 221.2 295.209 221 294.422 221C293.649 221 293.022 221.213 292.542 221.64C292.076 222.053 291.842 222.653 291.842 223.44V223.8H289.282V223.48C289.282 222.467 289.509 221.607 289.962 220.9C290.416 220.193 291.029 219.653 291.802 219.28C292.589 218.907 293.462 218.72 294.422 218.72C295.382 218.72 296.249 218.907 297.022 219.28C297.796 219.64 298.402 220.153 298.842 220.82C299.296 221.473 299.522 222.247 299.522 223.14V223.34C299.522 224.233 299.336 224.993 298.962 225.62C298.602 226.233 298.109 226.74 297.482 227.14C296.856 227.527 296.142 227.847 295.342 228.1L294.062 228.5C293.489 228.673 293.042 228.867 292.722 229.08C292.402 229.28 292.176 229.507 292.042 229.76C291.922 230 291.862 230.293 291.862 230.64V230.72H299.402V233H289.242ZM304.197 233L300.637 219H303.357L306.317 231.3H306.597L309.557 219H312.277L308.717 233H304.197Z" fill="white"/>
<path d="M309.64 197.39L309.697 196.365L309.862 195.364L310.127 194.391L310.486 193.449L310.932 192.54L311.457 191.67L312.054 190.84L312.715 190.054L313.435 189.316L314.204 188.628L316.407 186.618L318.437 184.413L320.28 182.038L321.922 179.517L323.35 176.874L324.549 174.133L325.506 171.317L326.206 168.451L326.637 165.559L326.783 162.665L326.391 158.016L325.254 153.605L323.435 149.492L320.995 145.736L317.997 142.396L314.501 139.531L310.57 137.2L306.266 135.461L301.649 134.375L296.783 134L291.917 134.375L287.301 135.461L282.997 137.2L279.066 139.531L275.57 142.396L272.572 145.736L270.132 149.492L268.313 153.605L267.176 158.016L266.783 162.665L266.93 165.559L267.36 168.451L268.061 171.317L269.018 174.133L270.217 176.874L271.645 179.517L273.287 182.038L275.13 184.413L277.16 186.618L279.362 188.628L280.132 189.316L280.851 190.054L281.513 190.84L282.11 191.67L282.635 192.54L283.081 193.449L283.44 194.391L283.705 195.364L283.87 196.365L283.926 197.39L284.021 198.578L284.297 199.704L284.738 200.754L285.33 201.714L286.057 202.567L286.904 203.298L287.857 203.894L288.901 204.337L290.02 204.615L291.2 204.711H302.367L303.546 204.615L304.666 204.337L305.709 203.894L306.662 203.298L307.51 202.567L308.237 201.714L308.829 200.754L309.27 199.704L309.545 198.578L309.64 197.39Z" fill="#F2F2F2" stroke="#B3B3B3" stroke-width="2.78497"/>
<path d="M293.681 198.426V166.799L293.599 165.782L293.363 164.818L292.985 163.918L292.479 163.097L291.856 162.367L291.131 161.74L290.314 161.23L289.421 160.85L288.462 160.613L287.452 160.531L286.961 160.531L286.03 160.606L285.148 160.825L284.325 161.175L283.573 161.645L282.904 162.222L282.331 162.895L281.865 163.651L281.517 164.48L281.299 165.368L281.224 166.305L281.299 167.241L281.517 168.129L281.865 168.958L282.331 169.714L282.905 170.387L283.573 170.964L284.325 171.434L285.148 171.784L286.031 172.003L286.961 172.078L287.834 172.078L287.775 172.086H305.794L305.742 172.078L306.614 172.078L307.545 172.003L308.427 171.784L309.251 171.434L310.002 170.964L310.671 170.387L311.244 169.714L311.711 168.958L312.058 168.129L312.276 167.241L312.351 166.305L312.276 165.368L312.059 164.48L311.711 163.651L311.244 162.895L310.671 162.222L310.002 161.645L309.251 161.175L308.428 160.825L307.545 160.606L306.614 160.531L306.123 160.531L305.113 160.613L304.154 160.85L303.261 161.23L302.445 161.74L301.719 162.367L301.096 163.097L300.59 163.918L300.212 164.818L299.976 165.782L299.895 166.799V198.426" stroke="#B3B3B3" stroke-width="2.22798"/>
<path d="M283.927 196.489H309.641V199.778L309.534 201.112L309.224 202.377L308.729 203.556L308.065 204.634L307.248 205.592L306.296 206.414L305.226 207.082L304.054 207.581L302.796 207.892L301.471 208H292.096L290.771 207.892L289.514 207.581L288.342 207.082L287.271 206.414L286.319 205.592L285.503 204.634L284.839 203.556L284.343 202.377L284.034 201.112L283.927 199.778V196.489Z" fill="#141414" stroke="#141414" stroke-width="1.67098"/>
<path d="M283.927 196.493H309.641V199.782H283.927V196.493Z" fill="#808080" stroke="#808080" stroke-width="1.67098"/>
<defs>
<clipPath id="clip0_159_231">
<rect width="540" height="285" fill="white" transform="translate(20 60)"/>
</clipPath>
</defs>
</svg>
