<svg width="540" height="354" viewBox="0 0 540 354" fill="none" xmlns="http://www.w3.org/2000/svg">
<mask id="mask0_227_347" style="mask-type:luminance" maskUnits="userSpaceOnUse" x="0" y="24" width="540" height="301">
<path d="M0 24.3818H540V159.382V324.382H0V160.882V24.3818Z" fill="white"/>
</mask>
<g mask="url(#mask0_227_347)">
<path d="M0 160.882L0.00277781 161.882L540.003 160.382L540 159.382L539.997 158.382L-0.00277781 159.882L0 160.882ZM0 24.3818V22.3818H-2V24.3818H0ZM540 24.3818H542V22.3818H540V24.3818ZM540 324.382V326.382H542V324.382H540ZM0 324.382H-2V326.382H0V324.382ZM0 24.3818V26.3818H540V24.3818V22.3818H0V24.3818ZM540 324.382V322.382H0V324.382V326.382H540V324.382ZM0 324.382H2V160.882H0H-2V324.382H0ZM0 160.882H2V24.3818H0H-2V160.882H0ZM540 24.3818H538V159.382H540H542V24.3818H540ZM540 159.382H538V324.382H540H542V159.382H540Z" fill="black"/>
</g>
<path d="M306.641 49.3711H228.576C225.496 49.3711 223 46.6854 223 43.3724V7.38042C223 4.06744 225.496 1.38175 228.576 1.38175H306.641C309.721 1.38175 312.217 4.06744 312.217 7.38042V43.3724C312.217 46.6854 309.721 49.3711 306.641 49.3711Z" fill="#CE6809"/>
<path d="M223 48.6206H281.549V2.13093H223V48.6206Z" fill="#333333"/>
<path d="M281.549 19.3772H312.218V7.37986H281.549V19.3772Z" fill="#E77A16"/>
<path d="M223 20.123H281.549V8.12571H223V20.123Z" fill="#4C4C4C"/>
<path d="M320.212 37.4944H314.636C313.096 37.4944 311.848 36.1515 311.848 34.4951V16.499C311.848 14.8426 313.096 13.4997 314.636 13.4997H320.212C321.752 13.4997 323 14.8426 323 16.499V34.4951C323 36.1515 321.752 37.4944 320.212 37.4944Z" fill="#333333"/>
<path d="M318.818 22.1936H313.242C312.472 22.1936 311.848 21.5222 311.848 20.6939V17.6946C311.848 16.8664 312.472 16.1949 313.242 16.1949H318.818C319.588 16.1949 320.212 16.8664 320.212 17.6946V20.6939C320.212 21.5222 319.588 22.1936 318.818 22.1936Z" fill="#4C4C4C"/>
<path d="M306.641 49.3818H228.576C225.496 49.3818 223 46.6961 223 43.3832V7.39116C223 4.07819 225.496 1.39249 228.576 1.39249H306.641C309.721 1.39249 312.217 4.07819 312.217 7.39116V43.3832C312.217 46.6961 309.721 49.3818 306.641 49.3818Z" stroke="#333333" stroke-width="2.78497"/>
<path d="M416.662 282.481L415.98 283.374L415.365 284.298L414.819 285.248L414.343 286.222L413.937 287.217L413.602 288.231L413.34 289.261L413.152 290.305L413.038 291.358L413 292.42L413.118 294.296L413.463 296.115L414.023 297.868L414.787 299.542L415.743 301.13L416.878 302.62L418.181 304.003L419.639 305.269L421.241 306.407L422.974 307.407L424.179 308.072L425.341 308.803L426.44 309.599L427.456 310.457L428.369 311.374L429.161 312.348L429.811 313.378L430.3 314.461L430.607 315.593L430.714 316.774L430.817 317.85L431.116 318.87L431.595 319.821L432.236 320.689L433.024 321.462L433.943 322.124L434.976 322.664L436.108 323.066L437.321 323.317L438.6 323.404H449.4L450.679 323.317L451.892 323.066L453.024 322.664L454.057 322.124L454.976 321.462L455.764 320.689L456.405 319.821L456.884 318.87L457.182 317.85L457.286 316.774L457.393 315.593L457.7 314.461L458.189 313.378L458.839 312.348L459.631 311.374L460.544 310.457L461.56 309.599L462.659 308.803L463.821 308.072L465.026 307.407L466.759 306.407L468.361 305.269L469.819 304.003L471.122 302.62L472.257 301.13L473.213 299.542L473.977 297.868L474.537 296.115L474.882 294.296L475 292.42L474.962 291.358L474.848 290.305L474.66 289.261L474.398 288.231L474.063 287.217L473.657 286.222L473.181 285.248L472.635 284.298L472.02 283.374L471.338 282.481L448.384 254.324L447.682 253.625L446.864 253.081L445.958 252.693L444.994 252.46L444 252.382L443.006 252.46L442.042 252.693L441.136 253.081L440.318 253.625L439.616 254.324L416.662 282.481Z" fill="#F2F2F2" stroke="#B3B3B3" stroke-width="2.79134"/>
<path d="M440.794 317.711V287.316L440.733 286.68L440.556 286.076L440.273 285.514L439.894 285L439.427 284.543L438.884 284.151L438.273 283.832L437.603 283.595L436.886 283.446L436.129 283.395L435.372 283.446L434.655 283.595L433.986 283.833L433.374 284.151L432.831 284.543L432.365 285L431.985 285.514L431.703 286.077L431.526 286.68L431.465 287.316V291.089L431.554 292.02L431.813 292.904L432.227 293.727L432.783 294.48L433.465 295.149L434.261 295.722L435.156 296.189L436.136 296.538L437.187 296.755L438.295 296.83L437.8 296.838H450.2L449.714 296.83L450.822 296.755L451.873 296.538L452.853 296.189L453.748 295.722L454.543 295.149L455.226 294.48L455.781 293.727L456.196 292.904L456.454 292.02L456.544 291.089V287.316L456.483 286.68L456.306 286.077L456.023 285.514L455.644 285L455.178 284.543L454.634 284.151L454.023 283.833L453.354 283.595L452.636 283.446L451.88 283.395L451.123 283.446L450.405 283.595L449.736 283.832L449.125 284.151L448.581 284.543L448.115 285L447.736 285.514L447.453 286.076L447.276 286.68L447.215 287.316V317.711" stroke="#B3B3B3" stroke-width="2.23307"/>
<path d="M430.715 315.958H457.286V318.936L457.17 320.144L456.835 321.29L456.298 322.358L455.577 323.333L454.692 324.201L453.66 324.945L452.499 325.551L451.229 326.002L449.866 326.284L448.429 326.382H439.572L438.135 326.284L436.772 326.002L435.501 325.551L434.341 324.945L433.309 324.201L432.424 323.333L431.703 322.358L431.166 321.29L430.831 320.144L430.715 318.936V315.958Z" fill="#141414" stroke="#141414" stroke-width="1.67481"/>
<path d="M430.715 315.958H457.286V318.936H430.715V315.958Z" fill="#808080" stroke="#808080" stroke-width="1.67481"/>
<path d="M437.653 267.371C444.226 267.371 449.554 271.85 449.554 277.376C449.554 282.901 444.226 287.381 437.653 287.381C431.079 287.381 425.751 282.901 425.751 277.376C425.751 271.85 431.079 267.371 437.653 267.371Z" fill="white" fill-opacity="0.3"/>
<rect x="423" y="330.382" width="43.027" height="20" rx="5" fill="black"/>
<path d="M443.082 347.382V344.842H446.102C445.476 344.455 444.942 343.989 444.502 343.442C444.076 342.882 443.749 342.255 443.522 341.562C443.309 340.855 443.202 340.089 443.202 339.262C443.202 338.049 443.476 336.962 444.022 336.002C444.582 335.042 445.369 334.282 446.382 333.722C447.409 333.162 448.616 332.882 450.002 332.882C451.402 332.882 452.609 333.162 453.622 333.722C454.636 334.282 455.416 335.049 455.962 336.022C456.522 336.982 456.802 338.069 456.802 339.282C456.802 340.109 456.689 340.869 456.462 341.562C456.249 342.255 455.922 342.882 455.482 343.442C455.042 343.989 454.502 344.455 453.862 344.842H456.922V347.382H451.042V344.662C451.776 344.315 452.329 343.875 452.702 343.342C453.089 342.795 453.349 342.209 453.482 341.582C453.616 340.942 453.682 340.309 453.682 339.682C453.682 338.789 453.529 338.029 453.222 337.402C452.929 336.762 452.509 336.269 451.962 335.922C451.416 335.575 450.762 335.402 450.002 335.402C449.242 335.402 448.582 335.575 448.022 335.922C447.476 336.269 447.056 336.762 446.762 337.402C446.469 338.042 446.322 338.809 446.322 339.702C446.322 340.329 446.402 340.955 446.562 341.582C446.722 342.209 446.989 342.789 447.362 343.322C447.749 343.855 448.269 344.302 448.922 344.662V347.382H443.082Z" fill="white"/>
<path d="M436.004 347.662C434.937 347.662 433.991 347.502 433.164 347.182C432.351 346.862 431.711 346.402 431.244 345.802C430.791 345.189 430.564 344.469 430.564 343.642V343.402C430.564 342.762 430.677 342.235 430.904 341.822C431.131 341.395 431.411 341.062 431.744 340.822C432.091 340.582 432.417 340.415 432.724 340.322V339.962C432.417 339.855 432.111 339.682 431.804 339.442C431.497 339.202 431.244 338.882 431.044 338.482C430.857 338.082 430.764 337.602 430.764 337.042V336.802C430.764 336.069 430.977 335.429 431.404 334.882C431.844 334.322 432.457 333.889 433.244 333.582C434.031 333.262 434.951 333.102 436.004 333.102C437.057 333.102 437.977 333.262 438.764 333.582C439.551 333.889 440.157 334.322 440.584 334.882C441.024 335.429 441.244 336.069 441.244 336.802V337.042C441.244 337.602 441.144 338.082 440.944 338.482C440.757 338.882 440.511 339.202 440.204 339.442C439.911 339.682 439.604 339.855 439.284 339.962V340.322C439.604 340.415 439.931 340.582 440.264 340.822C440.597 341.062 440.877 341.395 441.104 341.822C441.331 342.235 441.444 342.762 441.444 343.402V343.642C441.444 344.469 441.211 345.189 440.744 345.802C440.291 346.402 439.651 346.862 438.824 347.182C438.011 347.502 437.071 347.662 436.004 347.662ZM436.004 345.382C436.924 345.382 437.631 345.209 438.124 344.862C438.631 344.502 438.884 344.029 438.884 343.442V343.282C438.884 342.695 438.637 342.229 438.144 341.882C437.664 341.522 436.951 341.342 436.004 341.342C435.071 341.342 434.357 341.522 433.864 341.882C433.371 342.229 433.124 342.695 433.124 343.282V343.442C433.124 344.029 433.371 344.502 433.864 344.862C434.371 345.209 435.084 345.382 436.004 345.382ZM436.004 339.062C436.857 339.062 437.517 338.909 437.984 338.602C438.451 338.295 438.684 337.862 438.684 337.302V337.142C438.684 336.582 438.444 336.149 437.964 335.842C437.484 335.535 436.831 335.382 436.004 335.382C435.177 335.382 434.524 335.535 434.044 335.842C433.564 336.149 433.324 336.582 433.324 337.142V337.302C433.324 337.862 433.557 338.295 434.024 338.602C434.491 338.909 435.151 339.062 436.004 339.062Z" fill="white"/>
<path d="M45.6624 282.481L44.9801 283.374L44.3654 284.298L43.8192 285.248L43.3426 286.222L42.9366 287.217L42.6021 288.231L42.3402 289.261L42.1519 290.305L42.0381 291.358L42 292.42L42.1177 294.296L42.4628 296.115L43.0234 297.868L43.7875 299.542L44.743 301.13L45.8781 302.62L47.1807 304.003L48.6389 305.269L50.2406 306.407L51.974 307.407L53.1791 308.072L54.3408 308.803L55.4396 309.599L56.4557 310.457L57.3694 311.374L58.1611 312.348L58.8111 313.378L59.2998 314.461L59.6074 315.593L59.7143 316.774L59.8175 317.85L60.1163 318.87L60.5945 319.821L61.2358 320.689L62.024 321.462L62.9429 322.124L63.9762 322.664L65.1077 323.066L66.3211 323.317L67.6003 323.404H78.3997L79.6789 323.317L80.8923 323.066L82.0238 322.664L83.0571 322.124L83.976 321.462L84.7642 320.689L85.4055 319.821L85.8837 318.87L86.1825 317.85L86.2857 316.774L86.3926 315.593L86.7002 314.461L87.1889 313.378L87.8389 312.348L88.6306 311.374L89.5443 310.457L90.5604 309.599L91.6592 308.803L92.8209 308.072L94.026 307.407L95.7594 306.407L97.3611 305.269L98.8193 304.003L100.122 302.62L101.257 301.13L102.213 299.542L102.977 297.868L103.537 296.115L103.882 294.296L104 292.42L103.962 291.358L103.848 290.305L103.66 289.261L103.398 288.231L103.063 287.217L102.657 286.222L102.181 285.248L101.635 284.298L101.02 283.374L100.338 282.481L77.3837 254.324L76.6823 253.625L75.8639 253.081L74.958 252.693L73.9936 252.46L73 252.382L72.0064 252.46L71.042 252.693L70.1361 253.081L69.3177 253.625L68.6163 254.324L45.6624 282.481Z" fill="#F2F2F2" stroke="#B3B3B3" stroke-width="2.79134"/>
<path d="M69.7935 317.711V287.316L69.7325 286.68L69.5557 286.076L69.2729 285.514L68.8935 285L68.4273 284.543L67.8837 284.151L67.2725 283.832L66.6032 283.595L65.8855 283.446L65.1289 283.395L64.3723 283.446L63.6547 283.595L62.9855 283.833L62.3743 284.151L61.8309 284.543L61.3647 285L60.9854 285.514L60.7026 286.077L60.5259 286.68L60.4648 287.316V291.089L60.5542 292.02L60.813 292.904L61.2272 293.727L61.7826 294.48L62.4652 295.149L63.261 295.722L64.1559 296.189L65.1358 296.538L66.1867 296.755L67.2945 296.83L66.7999 296.838H79.1999L78.714 296.83L79.8218 296.755L80.8727 296.538L81.8526 296.189L82.7475 295.722L83.5433 295.149L84.2259 294.48L84.7813 293.727L85.1954 292.904L85.4542 292.02L85.5436 291.089V287.316L85.4826 286.68L85.3058 286.077L85.023 285.514L84.6437 285L84.1776 284.543L83.6341 284.151L83.023 283.833L82.3538 283.595L81.6361 283.446L80.8796 283.395L80.123 283.446L79.4052 283.595L78.7359 283.832L78.1247 284.151L77.5812 284.543L77.115 285L76.7356 285.514L76.4528 286.076L76.276 286.68L76.2149 287.316V317.711" stroke="#B3B3B3" stroke-width="2.23307"/>
<path d="M59.7147 315.958H86.2862V318.936L86.1702 320.144L85.8346 321.29L85.2975 322.358L84.5772 323.333L83.692 324.201L82.6599 324.945L81.4994 325.551L80.2286 326.002L78.8657 326.284L77.429 326.382H68.5719L67.1352 326.284L65.7723 326.002L64.5015 325.551L63.341 324.945L62.3089 324.201L61.4236 323.333L60.7033 322.358L60.1663 321.29L59.8306 320.144L59.7147 318.936V315.958Z" fill="#141414" stroke="#141414" stroke-width="1.67481"/>
<path d="M59.7147 315.958H86.2862V318.936H59.7147V315.958Z" fill="#808080" stroke="#808080" stroke-width="1.67481"/>
<path d="M66.6525 267.371C73.2257 267.371 78.5543 271.85 78.5543 277.376C78.5543 282.901 73.2257 287.381 66.6525 287.381C60.0793 287.381 54.7507 282.901 54.7507 277.376C54.7507 271.85 60.0793 267.371 66.6525 267.371Z" fill="white" fill-opacity="0.3"/>
<rect x="52" y="330.382" width="43.027" height="20" rx="5" fill="black"/>
<path d="M76.0823 347.382V344.842H79.1023C78.4757 344.455 77.9423 343.989 77.5023 343.442C77.0757 342.882 76.749 342.255 76.5223 341.562C76.309 340.855 76.2023 340.089 76.2023 339.262C76.2023 338.049 76.4757 336.962 77.0223 336.002C77.5823 335.042 78.369 334.282 79.3823 333.722C80.409 333.162 81.6157 332.882 83.0023 332.882C84.4023 332.882 85.609 333.162 86.6223 333.722C87.6357 334.282 88.4157 335.049 88.9623 336.022C89.5223 336.982 89.8023 338.069 89.8023 339.282C89.8023 340.109 89.689 340.869 89.4623 341.562C89.249 342.255 88.9223 342.882 88.4823 343.442C88.0423 343.989 87.5023 344.455 86.8623 344.842H89.9223V347.382H84.0423V344.662C84.7757 344.315 85.329 343.875 85.7023 343.342C86.089 342.795 86.349 342.209 86.4823 341.582C86.6157 340.942 86.6823 340.309 86.6823 339.682C86.6823 338.789 86.529 338.029 86.2223 337.402C85.929 336.762 85.509 336.269 84.9623 335.922C84.4157 335.575 83.7623 335.402 83.0023 335.402C82.2423 335.402 81.5823 335.575 81.0223 335.922C80.4757 336.269 80.0557 336.762 79.7623 337.402C79.469 338.042 79.3223 338.809 79.3223 339.702C79.3223 340.329 79.4023 340.955 79.5623 341.582C79.7223 342.209 79.989 342.789 80.3623 343.322C80.749 343.855 81.269 344.302 81.9223 344.662V347.382H76.0823Z" fill="white"/>
<path d="M59.4569 347.382V335.262H59.0969L57.2169 339.702H54.5369L57.3969 333.382H62.0169V347.382H59.4569ZM69.5798 347.662C68.5132 347.662 67.5865 347.462 66.7998 347.062C66.0132 346.662 65.4065 346.109 64.9798 345.402C64.5532 344.695 64.3398 343.882 64.3398 342.962V338.182C64.3398 337.049 64.5665 336.109 65.0198 335.362C65.4865 334.602 66.1198 334.035 66.9198 333.662C67.7332 333.289 68.6598 333.102 69.6998 333.102C70.7398 333.102 71.6398 333.275 72.3998 333.622C73.1732 333.969 73.7665 334.469 74.1798 335.122C74.6065 335.775 74.8198 336.555 74.8198 337.462H72.2198C72.2198 336.902 72.0265 336.415 71.6398 336.002C71.2532 335.589 70.6065 335.382 69.6998 335.382C68.8065 335.382 68.1132 335.615 67.6198 336.082C67.1398 336.549 66.8998 337.195 66.8998 338.022V339.462H67.2598C67.4865 339.195 67.8332 338.942 68.2998 338.702C68.7665 338.462 69.4465 338.342 70.3398 338.342C71.1532 338.342 71.8998 338.515 72.5798 338.862C73.2732 339.209 73.8332 339.715 74.2598 340.382C74.6865 341.035 74.8998 341.829 74.8998 342.762V343.002C74.8998 343.922 74.6798 344.735 74.2398 345.442C73.7998 346.135 73.1798 346.682 72.3798 347.082C71.5798 347.469 70.6465 347.662 69.5798 347.662ZM69.6198 345.382C70.4598 345.382 71.1198 345.162 71.5998 344.722C72.0932 344.282 72.3398 343.695 72.3398 342.962V342.802C72.3398 342.309 72.2265 341.882 71.9998 341.522C71.7865 341.162 71.4732 340.882 71.0598 340.682C70.6598 340.482 70.1798 340.382 69.6198 340.382C69.0732 340.382 68.5932 340.482 68.1798 340.682C67.7665 340.882 67.4465 341.162 67.2198 341.522C67.0065 341.882 66.8998 342.309 66.8998 342.802V342.962C66.8998 343.695 67.1398 344.282 67.6198 344.722C68.1132 345.162 68.7798 345.382 69.6198 345.382Z" fill="white"/>
<rect x="422" y="171.382" width="43.027" height="20" rx="5" fill="black"/>
<path d="M442.082 188.382V185.842H445.102C444.476 185.455 443.942 184.989 443.502 184.442C443.076 183.882 442.749 183.255 442.522 182.562C442.309 181.855 442.202 181.089 442.202 180.262C442.202 179.049 442.476 177.962 443.022 177.002C443.582 176.042 444.369 175.282 445.382 174.722C446.409 174.162 447.616 173.882 449.002 173.882C450.402 173.882 451.609 174.162 452.622 174.722C453.636 175.282 454.416 176.049 454.962 177.022C455.522 177.982 455.802 179.069 455.802 180.282C455.802 181.109 455.689 181.869 455.462 182.562C455.249 183.255 454.922 183.882 454.482 184.442C454.042 184.989 453.502 185.455 452.862 185.842H455.922V188.382H450.042V185.662C450.776 185.315 451.329 184.875 451.702 184.342C452.089 183.795 452.349 183.209 452.482 182.582C452.616 181.942 452.682 181.309 452.682 180.682C452.682 179.789 452.529 179.029 452.222 178.402C451.929 177.762 451.509 177.269 450.962 176.922C450.416 176.575 449.762 176.402 449.002 176.402C448.242 176.402 447.582 176.575 447.022 176.922C446.476 177.269 446.056 177.762 445.762 178.402C445.469 179.042 445.322 179.809 445.322 180.702C445.322 181.329 445.402 181.955 445.562 182.582C445.722 183.209 445.989 183.789 446.362 184.322C446.749 184.855 447.269 185.302 447.922 185.662V188.382H442.082Z" fill="white"/>
<path d="M436.043 188.382V185.542H429.163V182.582L434.003 174.382H438.603V183.262H440.923V185.542H438.603V188.382H436.043ZM431.603 183.262H436.043V176.022H435.683L431.603 182.942V183.262Z" fill="white"/>
<path d="M418.154 92.3819L416.507 92.5166L414.944 92.9063L413.488 93.53L412.157 94.3665L410.974 95.3947L409.959 96.5932L409.133 97.941L408.518 99.4168L408.133 101L408 102.668V123.24L408.135 125.624L408.53 127.928L409.169 130.137L410.039 132.235L411.123 134.207L412.408 136.039L413.878 137.715L415.517 139.22L417.312 140.539L419.248 141.657L420.629 142.412L421.971 143.267L423.251 144.219L424.441 145.264L425.517 146.4L426.455 147.624L427.228 148.931L427.811 150.319L428.179 151.784L428.308 153.324L428.406 154.562L428.692 155.736L429.149 156.831L429.761 157.831L430.514 158.72L431.392 159.483L432.379 160.104L433.46 160.567L434.619 160.856L435.841 160.956H446.159L447.381 160.856L448.54 160.567L449.621 160.104L450.608 159.483L451.486 158.72L452.239 157.831L452.851 156.831L453.308 155.736L453.594 154.562L453.692 153.324L453.821 151.784L454.189 150.319L454.772 148.931L455.545 147.624L456.483 146.4L457.559 145.264L458.749 144.219L460.029 143.267L461.371 142.412L462.752 141.657L464.688 140.539L466.483 139.22L468.122 137.715L469.592 136.039L470.877 134.207L471.961 132.235L472.831 130.137L473.47 127.928L473.865 125.624L474 123.24V102.668L473.867 101L473.482 99.4168L472.867 97.941L472.041 96.5932L471.026 95.3947L469.843 94.3665L468.512 93.53L467.056 92.9063L465.493 92.5166L463.846 92.3819H418.154Z" fill="#F2F2F2" stroke="#B3B3B3" stroke-width="2.78497"/>
<path d="M437.937 153.398V121.319L437.864 120.392L437.65 119.513L437.308 118.694L436.849 117.945L436.286 117.279L435.628 116.708L434.889 116.244L434.08 115.897L433.213 115.681L432.298 115.606L427.352 115.606L426.525 115.674L425.741 115.87L425.01 116.183L424.342 116.602L423.749 117.118L423.239 117.72L422.825 118.396L422.516 119.137L422.323 119.931L422.256 120.768L422.323 121.606L422.516 122.4L422.825 123.141L423.239 123.817L423.749 124.418L424.342 124.934L425.01 125.354L425.741 125.667L426.525 125.863L427.352 125.93L432.165 125.93L432.108 125.939H449.896L449.844 125.93L454.657 125.93L455.484 125.863L456.268 125.667L456.999 125.354L457.667 124.934L458.261 124.418L458.77 123.817L459.184 123.141L459.493 122.4L459.686 121.606L459.753 120.768L459.686 119.931L459.493 119.137L459.184 118.396L458.77 117.72L458.261 117.118L457.667 116.602L456.999 116.183L456.268 115.87L455.484 115.674L454.658 115.606L449.711 115.606L448.797 115.681L447.929 115.897L447.12 116.244L446.381 116.708L445.724 117.279L445.16 117.945L444.701 118.694L444.359 119.513L444.146 120.392L444.072 121.319V153.398" stroke="#B3B3B3" stroke-width="2.22798"/>
<path d="M428.308 152.383H453.692V155.812H428.308V152.383Z" fill="#808080" stroke="#808080" stroke-width="1.67098"/>
<path d="M428.308 152.381H453.692V155.81L453.582 157.2L453.261 158.519L452.748 159.749L452.06 160.872L451.214 161.871L450.228 162.728L449.119 163.425L447.905 163.945L446.603 164.27L445.231 164.382H436.769L435.397 164.27L434.095 163.945L432.881 163.425L431.772 162.728L430.786 161.871L429.94 160.872L429.252 159.749L428.739 158.519L428.418 157.2L428.308 155.81V152.381Z" fill="#141414" stroke="#141414" stroke-width="1.67098"/>
<rect x="55" y="172.382" width="43.027" height="20" rx="5" fill="black"/>
<path d="M75.0823 189.382V186.842H78.1023C77.4757 186.455 76.9423 185.989 76.5023 185.442C76.0757 184.882 75.749 184.255 75.5223 183.562C75.309 182.855 75.2023 182.089 75.2023 181.262C75.2023 180.049 75.4757 178.962 76.0223 178.002C76.5823 177.042 77.369 176.282 78.3823 175.722C79.409 175.162 80.6157 174.882 82.0023 174.882C83.4023 174.882 84.609 175.162 85.6223 175.722C86.6357 176.282 87.4157 177.049 87.9623 178.022C88.5223 178.982 88.8023 180.069 88.8023 181.282C88.8023 182.109 88.689 182.869 88.4623 183.562C88.249 184.255 87.9223 184.882 87.4823 185.442C87.0423 185.989 86.5023 186.455 85.8623 186.842H88.9223V189.382H83.0423V186.662C83.7757 186.315 84.329 185.875 84.7023 185.342C85.089 184.795 85.349 184.209 85.4823 183.582C85.6157 182.942 85.6823 182.309 85.6823 181.682C85.6823 180.789 85.529 180.029 85.2223 179.402C84.929 178.762 84.509 178.269 83.9623 177.922C83.4157 177.575 82.7623 177.402 82.0023 177.402C81.2423 177.402 80.5823 177.575 80.0223 177.922C79.4757 178.269 79.0557 178.762 78.7623 179.402C78.469 180.042 78.3223 180.809 78.3223 181.702C78.3223 182.329 78.4023 182.955 78.5623 183.582C78.7223 184.209 78.989 184.789 79.3623 185.322C79.749 185.855 80.269 186.302 80.9223 186.662V189.382H75.0823Z" fill="white"/>
<path d="M68.0039 189.662C66.9372 189.662 65.9906 189.502 65.1639 189.182C64.3506 188.862 63.7106 188.402 63.2439 187.802C62.7906 187.189 62.5639 186.469 62.5639 185.642V185.402C62.5639 184.762 62.6772 184.235 62.9039 183.822C63.1306 183.395 63.4106 183.062 63.7439 182.822C64.0906 182.582 64.4172 182.415 64.7239 182.322V181.962C64.4172 181.855 64.1106 181.682 63.8039 181.442C63.4972 181.202 63.2439 180.882 63.0439 180.482C62.8572 180.082 62.7639 179.602 62.7639 179.042V178.802C62.7639 178.069 62.9772 177.429 63.4039 176.882C63.8439 176.322 64.4572 175.889 65.2439 175.582C66.0306 175.262 66.9506 175.102 68.0039 175.102C69.0572 175.102 69.9772 175.262 70.7639 175.582C71.5506 175.889 72.1572 176.322 72.5839 176.882C73.0239 177.429 73.2439 178.069 73.2439 178.802V179.042C73.2439 179.602 73.1439 180.082 72.9439 180.482C72.7572 180.882 72.5106 181.202 72.2039 181.442C71.9106 181.682 71.6039 181.855 71.2839 181.962V182.322C71.6039 182.415 71.9306 182.582 72.2639 182.822C72.5972 183.062 72.8772 183.395 73.1039 183.822C73.3306 184.235 73.4439 184.762 73.4439 185.402V185.642C73.4439 186.469 73.2106 187.189 72.7439 187.802C72.2906 188.402 71.6506 188.862 70.8239 189.182C70.0106 189.502 69.0706 189.662 68.0039 189.662ZM68.0039 187.382C68.9239 187.382 69.6306 187.209 70.1239 186.862C70.6306 186.502 70.8839 186.029 70.8839 185.442V185.282C70.8839 184.695 70.6372 184.229 70.1439 183.882C69.6639 183.522 68.9506 183.342 68.0039 183.342C67.0706 183.342 66.3572 183.522 65.8639 183.882C65.3706 184.229 65.1239 184.695 65.1239 185.282V185.442C65.1239 186.029 65.3706 186.502 65.8639 186.862C66.3706 187.209 67.0839 187.382 68.0039 187.382ZM68.0039 181.062C68.8572 181.062 69.5172 180.909 69.9839 180.602C70.4506 180.295 70.6839 179.862 70.6839 179.302V179.142C70.6839 178.582 70.4439 178.149 69.9639 177.842C69.4839 177.535 68.8306 177.382 68.0039 177.382C67.1772 177.382 66.5239 177.535 66.0439 177.842C65.5639 178.149 65.3239 178.582 65.3239 179.142V179.302C65.3239 179.862 65.5572 180.295 66.0239 180.602C66.4906 180.909 67.1506 181.062 68.0039 181.062Z" fill="white"/>
<path d="M52.1538 93.3819L50.5068 93.5166L48.9444 93.9063L47.4876 94.53L46.1571 95.3665L44.974 96.3947L43.9591 97.5932L43.1334 98.941L42.5177 100.417L42.1329 102L42 103.668V124.24L42.1349 126.624L42.5296 128.928L43.1692 131.137L44.0388 133.235L45.1233 135.207L46.4079 137.039L47.8775 138.715L49.5174 140.22L51.3124 141.539L53.2477 142.657L54.6287 143.412L55.9714 144.267L57.2506 145.219L58.441 146.264L59.5174 147.4L60.4547 148.624L61.2276 149.931L61.8108 151.319L62.1793 152.784L62.3077 154.324L62.4063 155.562L62.6918 156.736L63.1486 157.831L63.7613 158.831L64.5143 159.72L65.3921 160.483L66.3792 161.104L67.4602 161.567L68.6194 161.856L69.8414 161.956H80.1586L81.3806 161.856L82.5398 161.567L83.6208 161.104L84.6079 160.483L85.4857 159.72L86.2387 158.831L86.8514 157.831L87.3082 156.736L87.5937 155.562L87.6923 154.324L87.8207 152.784L88.1892 151.319L88.7724 149.931L89.5453 148.624L90.4826 147.4L91.559 146.264L92.7494 145.219L94.0286 144.267L95.3713 143.412L96.7523 142.657L98.6876 141.539L100.483 140.22L102.122 138.715L103.592 137.039L104.877 135.207L105.961 133.235L106.831 131.137L107.47 128.928L107.865 126.624L108 124.24V103.668L107.867 102L107.482 100.417L106.867 98.941L106.041 97.5932L105.026 96.3947L103.843 95.3665L102.512 94.53L101.056 93.9063L99.4932 93.5166L97.8462 93.3819H52.1538Z" fill="#F2F2F2" stroke="#B3B3B3" stroke-width="2.78497"/>
<path d="M71.9373 154.398V122.319L71.8635 121.392L71.6498 120.513L71.3079 119.694L70.8492 118.945L70.2855 118.279L69.6284 117.708L68.8895 117.244L68.0803 116.897L67.2125 116.681L66.2978 116.606L61.3516 116.606L60.5251 116.674L59.741 116.87L59.0099 117.183L58.3422 117.602L57.7485 118.118L57.2392 118.72L56.8248 119.396L56.5159 120.137L56.3228 120.931L56.2561 121.768L56.3228 122.606L56.5159 123.4L56.8249 124.141L57.2393 124.817L57.7486 125.418L58.3423 125.934L59.01 126.354L59.7411 126.667L60.5252 126.863L61.3517 126.93L66.1653 126.93L66.1075 126.939H83.8959L83.8437 126.93L88.6574 126.93L89.4839 126.863L90.268 126.667L90.9991 126.354L91.6668 125.934L92.2605 125.418L92.7698 124.817L93.1842 124.141L93.4932 123.4L93.6863 122.606L93.753 121.768L93.6863 120.931L93.4932 120.137L93.1842 119.396L92.7699 118.72L92.2606 118.118L91.6668 117.602L90.9992 117.183L90.2681 116.87L89.484 116.674L88.6575 116.606L83.7113 116.606L82.7966 116.681L81.9288 116.897L81.1196 117.244L80.3807 117.708L79.7236 118.279L79.1599 118.945L78.7012 119.694L78.3593 120.513L78.1456 121.392L78.0717 122.319V154.398" stroke="#B3B3B3" stroke-width="2.22798"/>
<path d="M62.3077 153.383H87.6923V156.812H62.3077V153.383Z" fill="#808080" stroke="#808080" stroke-width="1.67098"/>
<path d="M62.3077 153.381H87.6923V156.81L87.5816 158.2L87.261 159.519L86.7479 160.749L86.0598 161.872L85.214 162.871L84.2281 163.728L83.1194 164.425L81.9053 164.945L80.6033 165.27L79.2308 165.382H70.7693L69.3968 165.27L68.0948 164.945L66.8807 164.425L65.772 163.728L64.7861 162.871L63.9403 161.872L63.2522 160.749L62.7391 159.519L62.4185 158.2L62.3077 156.81V153.381Z" fill="#141414" stroke="#141414" stroke-width="1.67098"/>
</svg>
