<svg width="540" height="361" viewBox="0 0 540 361" fill="none" xmlns="http://www.w3.org/2000/svg">
<path d="M539 322H1V149.272L539 148.275V322ZM539 24V146.275L1 147.272V24H539Z" stroke="black" stroke-width="2"/>
<path d="M65.5385 257L63.9913 257.135L62.5236 257.524L61.155 258.148L59.9052 258.985L58.7938 260.013L57.8404 261.211L57.0647 262.559L56.4863 264.035L56.1248 265.618L56 267.286V287.858L56.1267 290.242L56.4975 292.546L57.0984 294.755L57.9152 296.853L58.934 298.825L60.1407 300.657L61.5213 302.333L63.0618 303.838L64.748 305.157L66.566 306.275L67.8633 307.03L69.1247 307.885L70.3263 308.837L71.4446 309.882L72.4558 311.018L73.3362 312.242L74.0623 313.549L74.6102 314.937L74.9563 316.402L75.0769 317.942L75.1696 319.18L75.4377 320.354L75.8669 321.449L76.4424 322.449L77.1498 323.339L77.9744 324.101L78.9017 324.722L79.9171 325.185L81.0061 325.474L82.1541 325.574H91.8459L92.9939 325.474L94.0829 325.185L95.0983 324.722L96.0256 324.101L96.8502 323.339L97.5576 322.449L98.1331 321.449L98.5623 320.354L98.8305 319.18L98.9231 317.942L99.0437 316.402L99.3898 314.937L99.9377 313.549L100.664 312.242L101.544 311.018L102.555 309.882L103.674 308.837L104.875 307.885L106.137 307.03L107.434 306.275L109.252 305.157L110.938 303.838L112.479 302.333L113.859 300.657L115.066 298.825L116.085 296.853L116.902 294.755L117.502 292.546L117.873 290.242L118 287.858V267.286L117.875 265.618L117.514 264.035L116.935 262.559L116.16 261.211L115.206 260.013L114.095 258.985L112.845 258.148L111.476 257.524L110.009 257.135L108.462 257H65.5385Z" fill="#F2F2F2" stroke="#B3B3B3" stroke-width="2.78497"/>
<path d="M84.123 318.016V285.937L84.0536 285.011L83.8529 284.131L83.5316 283.312L83.1008 282.563L82.5713 281.898L81.954 281.327L81.2598 280.862L80.4997 280.516L79.6845 280.299L78.8252 280.224L74.1788 280.225L73.4023 280.292L72.6658 280.488L71.979 280.801L71.3518 281.221L70.7941 281.737L70.3156 282.338L69.9264 283.014L69.6361 283.755L69.4547 284.549L69.3921 285.387L69.4547 286.224L69.6361 287.018L69.9264 287.759L70.3157 288.435L70.7941 289.037L71.3519 289.553L71.9791 289.972L72.6659 290.285L73.4024 290.481L74.1789 290.549L78.7008 290.549L78.6464 290.557H95.3568L95.3078 290.549L99.8297 290.549L100.606 290.481L101.343 290.285L102.029 289.972L102.657 289.553L103.214 289.037L103.693 288.435L104.082 287.759L104.372 287.018L104.554 286.224L104.616 285.387L104.554 284.549L104.372 283.755L104.082 283.014L103.693 282.338L103.214 281.737L102.657 281.221L102.03 280.801L101.343 280.488L100.606 280.292L99.8298 280.225L95.1834 280.224L94.324 280.299L93.5089 280.516L92.7487 280.862L92.0546 281.327L91.4373 281.898L90.9077 282.563L90.4769 283.312L90.1557 284.131L89.9549 285.011L89.8856 285.937V318.016" stroke="#B3B3B3" stroke-width="2.22798"/>
<path d="M75.077 317.001H98.9231V320.43H75.077V317.001Z" fill="#808080" stroke="#808080" stroke-width="1.67098"/>
<path d="M75.077 317H98.9231V320.428L98.8191 321.819L98.5179 323.138L98.0359 324.367L97.3895 325.491L96.595 326.489L95.6688 327.346L94.6273 328.043L93.4868 328.563L92.2637 328.888L90.9744 329H83.0257L81.7364 328.888L80.5133 328.563L79.3728 328.043L78.3313 327.346L77.4051 326.489L76.6106 325.491L75.9642 324.367L75.4822 323.138L75.181 321.819L75.077 320.428V317Z" fill="#141414" stroke="#141414" stroke-width="1.67098"/>
<path d="M416.538 256L414.991 256.135L413.524 256.524L412.155 257.148L410.905 257.985L409.794 259.013L408.84 260.211L408.065 261.559L407.486 263.035L407.125 264.618L407 266.286V286.858L407.127 289.242L407.498 291.546L408.098 293.755L408.915 295.853L409.934 297.825L411.141 299.657L412.521 301.333L414.062 302.838L415.748 304.157L417.566 305.275L418.863 306.03L420.125 306.885L421.326 307.837L422.445 308.882L423.456 310.018L424.336 311.242L425.062 312.549L425.61 313.937L425.956 315.402L426.077 316.942L426.17 318.18L426.438 319.354L426.867 320.449L427.442 321.449L428.15 322.339L428.974 323.101L429.902 323.722L430.917 324.185L432.006 324.474L433.154 324.574H442.846L443.994 324.474L445.083 324.185L446.098 323.722L447.026 323.101L447.85 322.339L448.558 321.449L449.133 320.449L449.562 319.354L449.83 318.18L449.923 316.942L450.044 315.402L450.39 313.937L450.938 312.549L451.664 311.242L452.544 310.018L453.555 308.882L454.674 307.837L455.875 306.885L457.137 306.03L458.434 305.275L460.252 304.157L461.938 302.838L463.479 301.333L464.859 299.657L466.066 297.825L467.085 295.853L467.902 293.755L468.502 291.546L468.873 289.242L469 286.858V266.286L468.875 264.618L468.514 263.035L467.935 261.559L467.16 260.211L466.206 259.013L465.095 257.985L463.845 257.148L462.476 256.524L461.009 256.135L459.462 256H416.538Z" fill="#F2F2F2" stroke="#B3B3B3" stroke-width="2.78497"/>
<path d="M435.123 317.016V284.937L435.054 284.011L434.853 283.131L434.532 282.312L434.101 281.563L433.571 280.898L432.954 280.327L432.26 279.862L431.5 279.516L430.685 279.299L429.825 279.224L425.179 279.225L424.402 279.292L423.666 279.488L422.979 279.801L422.352 280.221L421.794 280.737L421.316 281.338L420.926 282.014L420.636 282.755L420.455 283.549L420.392 284.387L420.455 285.224L420.636 286.018L420.926 286.759L421.316 287.435L421.794 288.037L422.352 288.553L422.979 288.972L423.666 289.285L424.402 289.481L425.179 289.549L429.701 289.549L429.646 289.557H446.357L446.308 289.549L450.83 289.549L451.606 289.481L452.343 289.285L453.029 288.972L453.657 288.553L454.214 288.037L454.693 287.435L455.082 286.759L455.372 286.018L455.554 285.224L455.616 284.387L455.554 283.549L455.372 282.755L455.082 282.014L454.693 281.338L454.214 280.737L453.657 280.221L453.03 279.801L452.343 279.488L451.606 279.292L450.83 279.225L446.183 279.224L445.324 279.299L444.509 279.516L443.749 279.862L443.055 280.327L442.437 280.898L441.908 281.563L441.477 282.312L441.156 283.131L440.955 284.011L440.886 284.937V317.016" stroke="#B3B3B3" stroke-width="2.22798"/>
<path d="M426.077 316.001H449.923V319.43H426.077V316.001Z" fill="#808080" stroke="#808080" stroke-width="1.67098"/>
<path d="M426.077 316H449.923V319.428L449.819 320.819L449.518 322.138L449.036 323.367L448.389 324.491L447.595 325.489L446.669 326.346L445.627 327.043L444.487 327.563L443.264 327.888L441.974 328H434.026L432.736 327.888L431.513 327.563L430.373 327.043L429.331 326.346L428.405 325.489L427.611 324.491L426.964 323.367L426.482 322.138L426.181 320.819L426.077 319.428V316Z" fill="#141414" stroke="#141414" stroke-width="1.67098"/>
<path d="M57.6624 107.099L56.9801 107.993L56.3654 108.916L55.8192 109.866L55.3426 110.84L54.9366 111.835L54.6021 112.849L54.3402 113.88L54.1519 114.923L54.0381 115.976L54 117.038L54.1177 118.914L54.4628 120.733L55.0234 122.486L55.7875 124.161L56.743 125.748L57.8781 127.239L59.1807 128.621L60.6389 129.887L62.2406 131.025L63.974 132.025L65.1791 132.69L66.3408 133.421L67.4396 134.217L68.4557 135.075L69.3694 135.992L70.1611 136.967L70.8111 137.996L71.2998 139.079L71.6074 140.211L71.7143 141.392L71.8175 142.468L72.1163 143.488L72.5945 144.439L73.2358 145.308L74.024 146.08L74.9429 146.743L75.9762 147.282L77.1077 147.684L78.3211 147.935L79.6003 148.022H90.3997L91.6789 147.935L92.8923 147.684L94.0238 147.282L95.0571 146.743L95.976 146.08L96.7642 145.308L97.4055 144.439L97.8837 143.488L98.1825 142.468L98.2857 141.392L98.3926 140.211L98.7002 139.079L99.1889 137.996L99.8389 136.967L100.631 135.992L101.544 135.075L102.56 134.217L103.659 133.421L104.821 132.69L106.026 132.025L107.759 131.025L109.361 129.887L110.819 128.621L112.122 127.239L113.257 125.748L114.213 124.161L114.977 122.486L115.537 120.733L115.882 118.914L116 117.038L115.962 115.976L115.848 114.923L115.66 113.88L115.398 112.849L115.063 111.835L114.657 110.84L114.181 109.866L113.635 108.916L113.02 107.993L112.338 107.099L89.3837 78.942L88.6823 78.2429L87.8639 77.6991L86.958 77.3107L85.9936 77.0777L85 77L84.0064 77.0777L83.042 77.3107L82.1361 77.6991L81.3177 78.2429L80.6163 78.942L57.6624 107.099Z" fill="#F2F2F2" stroke="#B3B3B3" stroke-width="2.79134"/>
<path d="M81.7936 142.329V111.934L81.7325 111.298L81.5558 110.695L81.2729 110.132L80.8936 109.618L80.4273 109.161L79.8838 108.769L79.2726 108.451L78.6033 108.213L77.8856 108.064L77.1289 108.013L76.3724 108.064L75.6547 108.213L74.9855 108.451L74.3744 108.77L73.8309 109.161L73.3648 109.618L72.9855 110.132L72.7027 110.695L72.5259 111.298L72.4649 111.934V115.707L72.5543 116.638L72.8131 117.522L73.2272 118.345L73.7826 119.098L74.4653 119.767L75.261 120.341L76.1559 120.807L77.1359 121.156L78.1868 121.373L79.2946 121.448L78.8 121.456H91.2L90.714 121.448L91.8218 121.373L92.8727 121.156L93.8526 120.807L94.7475 120.341L95.5433 119.767L96.226 119.098L96.7814 118.345L97.1955 117.522L97.4543 116.638L97.5437 115.707V111.934L97.4826 111.298L97.3059 110.695L97.0231 110.132L96.6438 109.618L96.1776 109.161L95.6342 108.77L95.0231 108.451L94.3539 108.213L93.6362 108.064L92.8796 108.013L92.123 108.064L91.4053 108.213L90.736 108.451L90.1248 108.769L89.5813 109.161L89.115 109.618L88.7357 110.132L88.4528 110.695L88.2761 111.298L88.215 111.934V142.329" stroke="#B3B3B3" stroke-width="2.23307"/>
<path d="M71.7147 140.576H98.2862V143.554L98.1702 144.762L97.8346 145.908L97.2975 146.976L96.5772 147.952L95.692 148.819L94.6599 149.563L93.4994 150.169L92.2286 150.62L90.8657 150.903L89.429 151H80.5719L79.1352 150.903L77.7723 150.62L76.5015 150.169L75.341 149.563L74.3089 148.819L73.4236 147.952L72.7033 146.976L72.1663 145.908L71.8306 144.762L71.7147 143.554V140.576Z" fill="#141414" stroke="#141414" stroke-width="1.67481"/>
<path d="M71.7147 140.576H98.2862V143.554H71.7147V140.576Z" fill="#808080" stroke="#808080" stroke-width="1.67481"/>
<path d="M78.6526 91.9886C85.2258 91.9886 90.5544 96.4681 90.5544 101.994C90.5544 107.519 85.2258 111.999 78.6526 111.999C72.0794 111.999 66.7508 107.519 66.7508 101.994C66.7508 96.4681 72.0794 91.9886 78.6526 91.9886Z" fill="white" fill-opacity="0.3"/>
<path d="M410.662 106.099L409.98 106.993L409.365 107.916L408.819 108.866L408.343 109.84L407.937 110.835L407.602 111.849L407.34 112.88L407.152 113.923L407.038 114.976L407 116.038L407.118 117.914L407.463 119.733L408.023 121.486L408.787 123.161L409.743 124.748L410.878 126.239L412.181 127.621L413.639 128.887L415.241 130.025L416.974 131.025L418.179 131.69L419.341 132.421L420.44 133.217L421.456 134.075L422.369 134.992L423.161 135.967L423.811 136.996L424.3 138.079L424.607 139.211L424.714 140.392L424.817 141.468L425.116 142.488L425.595 143.439L426.236 144.308L427.024 145.08L427.943 145.743L428.976 146.282L430.108 146.684L431.321 146.935L432.6 147.022H443.4L444.679 146.935L445.892 146.684L447.024 146.282L448.057 145.743L448.976 145.08L449.764 144.308L450.405 143.439L450.884 142.488L451.182 141.468L451.286 140.392L451.393 139.211L451.7 138.079L452.189 136.996L452.839 135.967L453.631 134.992L454.544 134.075L455.56 133.217L456.659 132.421L457.821 131.69L459.026 131.025L460.759 130.025L462.361 128.887L463.819 127.621L465.122 126.239L466.257 124.748L467.213 123.161L467.977 121.486L468.537 119.733L468.882 117.914L469 116.038L468.962 114.976L468.848 113.923L468.66 112.88L468.398 111.849L468.063 110.835L467.657 109.84L467.181 108.866L466.635 107.916L466.02 106.993L465.338 106.099L442.384 77.942L441.682 77.2429L440.864 76.6991L439.958 76.3107L438.994 76.0777L438 76L437.006 76.0777L436.042 76.3107L435.136 76.6991L434.318 77.2429L433.616 77.942L410.662 106.099Z" fill="#F2F2F2" stroke="#B3B3B3" stroke-width="2.79134"/>
<path d="M434.794 141.329V110.934L434.733 110.298L434.556 109.695L434.273 109.132L433.894 108.618L433.427 108.161L432.884 107.769L432.273 107.451L431.603 107.213L430.886 107.064L430.129 107.013L429.372 107.064L428.655 107.213L427.986 107.451L427.374 107.77L426.831 108.161L426.365 108.618L425.985 109.132L425.703 109.695L425.526 110.298L425.465 110.934V114.707L425.554 115.638L425.813 116.522L426.227 117.345L426.783 118.098L427.465 118.767L428.261 119.341L429.156 119.807L430.136 120.156L431.187 120.373L432.295 120.448L431.8 120.456H444.2L443.714 120.448L444.822 120.373L445.873 120.156L446.853 119.807L447.748 119.341L448.543 118.767L449.226 118.098L449.781 117.345L450.196 116.522L450.454 115.638L450.544 114.707V110.934L450.483 110.298L450.306 109.695L450.023 109.132L449.644 108.618L449.178 108.161L448.634 107.77L448.023 107.451L447.354 107.213L446.636 107.064L445.88 107.013L445.123 107.064L444.405 107.213L443.736 107.451L443.125 107.769L442.581 108.161L442.115 108.618L441.736 109.132L441.453 109.695L441.276 110.298L441.215 110.934V141.329" stroke="#B3B3B3" stroke-width="2.23307"/>
<path d="M424.715 139.576H451.286V142.554L451.17 143.762L450.835 144.908L450.298 145.976L449.577 146.952L448.692 147.819L447.66 148.563L446.499 149.169L445.229 149.62L443.866 149.903L442.429 150H433.572L432.135 149.903L430.772 149.62L429.501 149.169L428.341 148.563L427.309 147.819L426.424 146.952L425.703 145.976L425.166 144.908L424.831 143.762L424.715 142.554V139.576Z" fill="#141414" stroke="#141414" stroke-width="1.67481"/>
<path d="M424.715 139.576H451.286V142.554H424.715V139.576Z" fill="#808080" stroke="#808080" stroke-width="1.67481"/>
<path d="M431.653 90.9886C438.226 90.9886 443.554 95.4681 443.554 100.994C443.554 106.519 438.226 110.999 431.653 110.999C425.079 110.999 419.751 106.519 419.751 100.994C419.751 95.4681 425.079 90.9886 431.653 90.9886Z" fill="white" fill-opacity="0.3"/>
<rect x="62" y="340" width="52.6087" height="20" rx="5" fill="black"/>
<path d="M86.6546 356V353.714H89.3726C88.8086 353.366 88.3286 352.946 87.9326 352.454C87.5486 351.95 87.2546 351.386 87.0506 350.762C86.8586 350.126 86.7626 349.436 86.7626 348.692C86.7626 347.6 87.0086 346.622 87.5006 345.758C88.0046 344.894 88.7126 344.21 89.6246 343.706C90.5486 343.202 91.6346 342.95 92.8826 342.95C94.1426 342.95 95.2286 343.202 96.1406 343.706C97.0526 344.21 97.7546 344.9 98.2466 345.776C98.7506 346.64 99.0026 347.618 99.0026 348.71C99.0026 349.454 98.9006 350.138 98.6966 350.762C98.5046 351.386 98.2106 351.95 97.8146 352.454C97.4186 352.946 96.9326 353.366 96.3566 353.714H99.1106V356H93.8186V353.552C94.4786 353.24 94.9766 352.844 95.3126 352.364C95.6606 351.872 95.8946 351.344 96.0146 350.78C96.1346 350.204 96.1946 349.634 96.1946 349.07C96.1946 348.266 96.0566 347.582 95.7806 347.018C95.5166 346.442 95.1386 345.998 94.6466 345.686C94.1546 345.374 93.5666 345.218 92.8826 345.218C92.1986 345.218 91.6046 345.374 91.1006 345.686C90.6086 345.998 90.2306 346.442 89.9666 347.018C89.7026 347.594 89.5706 348.284 89.5706 349.088C89.5706 349.652 89.6426 350.216 89.7866 350.78C89.9306 351.344 90.1706 351.866 90.5066 352.346C90.8546 352.826 91.3226 353.228 91.9106 353.552V356H86.6546Z" fill="white"/>
<path d="M74.8525 356V354.488C74.8525 353.612 74.9965 352.886 75.2845 352.31C75.5725 351.722 75.9865 351.242 76.5265 350.87C77.0785 350.486 77.7505 350.174 78.5425 349.934L79.7485 349.556C80.1925 349.412 80.5645 349.238 80.8645 349.034C81.1645 348.818 81.3925 348.56 81.5485 348.26C81.7165 347.96 81.8005 347.618 81.8005 347.234V347.162C81.8005 346.562 81.5965 346.088 81.1885 345.74C80.7805 345.38 80.2225 345.2 79.5145 345.2C78.8185 345.2 78.2545 345.392 77.8225 345.776C77.4025 346.148 77.1925 346.688 77.1925 347.396V347.72H74.8885V347.432C74.8885 346.52 75.0925 345.746 75.5005 345.11C75.9085 344.474 76.4605 343.988 77.1565 343.652C77.8645 343.316 78.6505 343.148 79.5145 343.148C80.3785 343.148 81.1585 343.316 81.8545 343.652C82.5505 343.976 83.0965 344.438 83.4925 345.038C83.9005 345.626 84.1045 346.322 84.1045 347.126V347.306C84.1045 348.11 83.9365 348.794 83.6005 349.358C83.2765 349.91 82.8325 350.366 82.2685 350.726C81.7045 351.074 81.0625 351.362 80.3425 351.59L79.1905 351.95C78.6745 352.106 78.2725 352.28 77.9845 352.472C77.6965 352.652 77.4925 352.856 77.3725 353.084C77.2645 353.3 77.2105 353.564 77.2105 353.876V353.948H83.9965V356H74.8525Z" fill="white"/>
<rect x="60" y="159" width="52.6087" height="20" rx="5" fill="black"/>
<path d="M84.6546 175V172.714H87.3726C86.8086 172.366 86.3286 171.946 85.9326 171.454C85.5486 170.95 85.2546 170.386 85.0506 169.762C84.8586 169.126 84.7626 168.436 84.7626 167.692C84.7626 166.6 85.0086 165.622 85.5006 164.758C86.0046 163.894 86.7126 163.21 87.6246 162.706C88.5486 162.202 89.6346 161.95 90.8826 161.95C92.1426 161.95 93.2286 162.202 94.1406 162.706C95.0526 163.21 95.7546 163.9 96.2466 164.776C96.7506 165.64 97.0026 166.618 97.0026 167.71C97.0026 168.454 96.9006 169.138 96.6966 169.762C96.5046 170.386 96.2106 170.95 95.8146 171.454C95.4186 171.946 94.9326 172.366 94.3566 172.714H97.1106V175H91.8186V172.552C92.4786 172.24 92.9766 171.844 93.3126 171.364C93.6606 170.872 93.8946 170.344 94.0146 169.78C94.1346 169.204 94.1946 168.634 94.1946 168.07C94.1946 167.266 94.0566 166.582 93.7806 166.018C93.5166 165.442 93.1386 164.998 92.6466 164.686C92.1546 164.374 91.5666 164.218 90.8826 164.218C90.1986 164.218 89.6046 164.374 89.1006 164.686C88.6086 164.998 88.2306 165.442 87.9666 166.018C87.7026 166.594 87.5706 167.284 87.5706 168.088C87.5706 168.652 87.6426 169.216 87.7866 169.78C87.9306 170.344 88.1706 170.866 88.5066 171.346C88.8546 171.826 89.3226 172.228 89.9106 172.552V175H84.6546Z" fill="white"/>
<path d="M78.3786 175V172.444H72.1866V169.78L76.5426 162.4H80.6826V170.392H82.7706V172.444H80.6826V175H78.3786ZM74.3826 170.392H78.3786V163.876H78.0546L74.3826 170.104V170.392Z" fill="white"/>
<rect x="413" y="157" width="52.6087" height="20" rx="5" fill="black"/>
<path d="M437.655 173V170.714H440.373C439.809 170.366 439.329 169.946 438.933 169.454C438.549 168.95 438.255 168.386 438.051 167.762C437.859 167.126 437.763 166.436 437.763 165.692C437.763 164.6 438.009 163.622 438.501 162.758C439.005 161.894 439.713 161.21 440.625 160.706C441.549 160.202 442.635 159.95 443.883 159.95C445.143 159.95 446.229 160.202 447.141 160.706C448.053 161.21 448.755 161.9 449.247 162.776C449.751 163.64 450.003 164.618 450.003 165.71C450.003 166.454 449.901 167.138 449.697 167.762C449.505 168.386 449.211 168.95 448.815 169.454C448.419 169.946 447.933 170.366 447.357 170.714H450.111V173H444.819V170.552C445.479 170.24 445.977 169.844 446.313 169.364C446.661 168.872 446.895 168.344 447.015 167.78C447.135 167.204 447.195 166.634 447.195 166.07C447.195 165.266 447.057 164.582 446.781 164.018C446.517 163.442 446.139 162.998 445.647 162.686C445.155 162.374 444.567 162.218 443.883 162.218C443.199 162.218 442.605 162.374 442.101 162.686C441.609 162.998 441.231 163.442 440.967 164.018C440.703 164.594 440.571 165.284 440.571 166.088C440.571 166.652 440.643 167.216 440.787 167.78C440.931 168.344 441.171 168.866 441.507 169.346C441.855 169.826 442.323 170.228 442.911 170.552V173H437.655Z" fill="white"/>
<path d="M425.852 173V171.488C425.852 170.612 425.996 169.886 426.284 169.31C426.572 168.722 426.986 168.242 427.526 167.87C428.078 167.486 428.75 167.174 429.542 166.934L430.748 166.556C431.192 166.412 431.564 166.238 431.864 166.034C432.164 165.818 432.392 165.56 432.548 165.26C432.716 164.96 432.8 164.618 432.8 164.234V164.162C432.8 163.562 432.596 163.088 432.188 162.74C431.78 162.38 431.222 162.2 430.514 162.2C429.818 162.2 429.254 162.392 428.822 162.776C428.402 163.148 428.192 163.688 428.192 164.396V164.72H425.888V164.432C425.888 163.52 426.092 162.746 426.5 162.11C426.908 161.474 427.46 160.988 428.156 160.652C428.864 160.316 429.65 160.148 430.514 160.148C431.378 160.148 432.158 160.316 432.854 160.652C433.55 160.976 434.096 161.438 434.492 162.038C434.9 162.626 435.104 163.322 435.104 164.126V164.306C435.104 165.11 434.936 165.794 434.6 166.358C434.276 166.91 433.832 167.366 433.268 167.726C432.704 168.074 432.062 168.362 431.342 168.59L430.19 168.95C429.674 169.106 429.272 169.28 428.984 169.472C428.696 169.652 428.492 169.856 428.372 170.084C428.264 170.3 428.21 170.564 428.21 170.876V170.948H434.996V173H425.852Z" fill="white"/>
<rect x="412" y="335" width="52.6087" height="20" rx="5" fill="black"/>
<path d="M436.655 351V348.714H439.373C438.809 348.366 438.329 347.946 437.933 347.454C437.549 346.95 437.255 346.386 437.051 345.762C436.859 345.126 436.763 344.436 436.763 343.692C436.763 342.6 437.009 341.622 437.501 340.758C438.005 339.894 438.713 339.21 439.625 338.706C440.549 338.202 441.635 337.95 442.883 337.95C444.143 337.95 445.229 338.202 446.141 338.706C447.053 339.21 447.755 339.9 448.247 340.776C448.751 341.64 449.003 342.618 449.003 343.71C449.003 344.454 448.901 345.138 448.697 345.762C448.505 346.386 448.211 346.95 447.815 347.454C447.419 347.946 446.933 348.366 446.357 348.714H449.111V351H443.819V348.552C444.479 348.24 444.977 347.844 445.313 347.364C445.661 346.872 445.895 346.344 446.015 345.78C446.135 345.204 446.195 344.634 446.195 344.07C446.195 343.266 446.057 342.582 445.781 342.018C445.517 341.442 445.139 340.998 444.647 340.686C444.155 340.374 443.567 340.218 442.883 340.218C442.199 340.218 441.605 340.374 441.101 340.686C440.609 340.998 440.231 341.442 439.967 342.018C439.703 342.594 439.571 343.284 439.571 344.088C439.571 344.652 439.643 345.216 439.787 345.78C439.931 346.344 440.171 346.866 440.507 347.346C440.855 347.826 441.323 348.228 441.911 348.552V351H436.655Z" fill="white"/>
<path d="M424.852 351V349.488C424.852 348.612 424.996 347.886 425.284 347.31C425.572 346.722 425.986 346.242 426.526 345.87C427.078 345.486 427.75 345.174 428.542 344.934L429.748 344.556C430.192 344.412 430.564 344.238 430.864 344.034C431.164 343.818 431.392 343.56 431.548 343.26C431.716 342.96 431.8 342.618 431.8 342.234V342.162C431.8 341.562 431.596 341.088 431.188 340.74C430.78 340.38 430.222 340.2 429.514 340.2C428.818 340.2 428.254 340.392 427.822 340.776C427.402 341.148 427.192 341.688 427.192 342.396V342.72H424.888V342.432C424.888 341.52 425.092 340.746 425.5 340.11C425.908 339.474 426.46 338.988 427.156 338.652C427.864 338.316 428.65 338.148 429.514 338.148C430.378 338.148 431.158 338.316 431.854 338.652C432.55 338.976 433.096 339.438 433.492 340.038C433.9 340.626 434.104 341.322 434.104 342.126V342.306C434.104 343.11 433.936 343.794 433.6 344.358C433.276 344.91 432.832 345.366 432.268 345.726C431.704 346.074 431.062 346.362 430.342 346.59L429.19 346.95C428.674 347.106 428.272 347.28 427.984 347.472C427.696 347.652 427.492 347.856 427.372 348.084C427.264 348.3 427.21 348.564 427.21 348.876V348.948H433.996V351H424.852Z" fill="white"/>
<path d="M303.641 49.9893H225.576C222.496 49.9893 220 47.3037 220 43.9907V7.99867C220 4.6857 222.496 2 225.576 2H303.641C306.721 2 309.217 4.6857 309.217 7.99867V43.9907C309.217 47.3037 306.721 49.9893 303.641 49.9893Z" fill="#CE6809"/>
<path d="M220 49.2387H278.549V2.74901H220V49.2387Z" fill="#333333"/>
<path d="M278.549 19.9953H309.218V7.99796H278.549V19.9953Z" fill="#E77A16"/>
<path d="M220 20.7411H278.549V8.74378H220V20.7411Z" fill="#4C4C4C"/>
<path d="M317.212 38.1125H311.636C310.096 38.1125 308.848 36.7696 308.848 35.1132V17.1171C308.848 15.4607 310.096 14.1178 311.636 14.1178H317.212C318.752 14.1178 320 15.4607 320 17.1171V35.1132C320 36.7696 318.752 38.1125 317.212 38.1125Z" fill="#333333"/>
<path d="M315.818 22.8118H310.242C309.472 22.8118 308.848 22.1403 308.848 21.3121V18.3128C308.848 17.4845 309.472 16.8131 310.242 16.8131H315.818C316.588 16.8131 317.212 17.4845 317.212 18.3128V21.3121C317.212 22.1403 316.588 22.8118 315.818 22.8118Z" fill="#4C4C4C"/>
<path d="M303.641 50H225.576C222.496 50 220 47.3143 220 44.0013V8.00933C220 4.69635 222.496 2.01066 225.576 2.01066H303.641C306.721 2.01066 309.217 4.69635 309.217 8.00933V44.0013C309.217 47.3143 306.721 50 303.641 50Z" stroke="#333333" stroke-width="2.78497"/>
</svg>
