<svg width="540" height="392" viewBox="0 0 540 392" fill="none" xmlns="http://www.w3.org/2000/svg">
<g clip-path="url(#clip0_159_131)">
<path d="M1 205.5V347H539V205.5M1 205.5V64H539V205.5M1 205.5H539" stroke="black" stroke-width="2"/>
</g>
<path d="M310.754 86.9893H232.689C229.609 86.9893 227.113 84.3037 227.113 80.9907V44.9987C227.113 41.6857 229.609 39 232.689 39H310.754C313.834 39 316.33 41.6857 316.33 44.9987V80.9907C316.33 84.3037 313.834 86.9893 310.754 86.9893Z" fill="#CE6809"/>
<path d="M227.113 86.2387H285.662V39.749H227.113V86.2387Z" fill="#333333"/>
<path d="M285.662 56.9953H316.33V44.998H285.662V56.9953Z" fill="#E77A16"/>
<path d="M227.113 57.7411H285.662V45.7438H227.113V57.7411Z" fill="#4C4C4C"/>
<path d="M324.325 75.1125H318.749C317.209 75.1125 315.961 73.7696 315.961 72.1132V54.1171C315.961 52.4607 317.209 51.1178 318.749 51.1178H324.325C325.865 51.1178 327.113 52.4607 327.113 54.1171V72.1132C327.113 73.7696 325.865 75.1125 324.325 75.1125Z" fill="#333333"/>
<path d="M322.931 59.8118H317.355C316.585 59.8118 315.961 59.1403 315.961 58.3121V55.3128C315.961 54.4845 316.585 53.8131 317.355 53.8131H322.931C323.701 53.8131 324.325 54.4845 324.325 55.3128V58.3121C324.325 59.1403 323.701 59.8118 322.931 59.8118Z" fill="#4C4C4C"/>
<path d="M310.754 87H232.689C229.609 87 227.113 84.3143 227.113 81.0013V45.0093C227.113 41.6964 229.609 39.0107 232.689 39.0107H310.754C313.834 39.0107 316.33 41.6964 316.33 45.0093V81.0013C316.33 84.3143 313.834 87 310.754 87Z" stroke="#333333" stroke-width="2.78497"/>
<path d="M342.224 64.207L341.997 14.9316L211 15.5346L211.227 64.8099" stroke="black" stroke-width="2"/>
<rect x="256.113" y="5" width="40" height="20" rx="5" fill="black"/>
<path d="M262.632 22V9.88H262.272L260.392 14.32H257.712L260.572 8H265.192V22H262.632ZM267.355 22V20.32C267.355 19.3467 267.515 18.54 267.835 17.9C268.155 17.2467 268.615 16.7133 269.215 16.3C269.828 15.8733 270.575 15.5267 271.455 15.26L272.795 14.84C273.288 14.68 273.702 14.4867 274.035 14.26C274.368 14.02 274.622 13.7333 274.795 13.4C274.982 13.0667 275.075 12.6867 275.075 12.26V12.18C275.075 11.5133 274.848 10.9867 274.395 10.6C273.942 10.2 273.322 10 272.535 10C271.762 10 271.135 10.2133 270.655 10.64C270.188 11.0533 269.955 11.6533 269.955 12.44V12.8H267.395V12.48C267.395 11.4667 267.622 10.6067 268.075 9.9C268.528 9.19333 269.142 8.65333 269.915 8.28C270.702 7.90667 271.575 7.72 272.535 7.72C273.495 7.72 274.362 7.90667 275.135 8.28C275.908 8.64 276.515 9.15333 276.955 9.82C277.408 10.4733 277.635 11.2467 277.635 12.14V12.34C277.635 13.2333 277.448 13.9933 277.075 14.62C276.715 15.2333 276.222 15.74 275.595 16.14C274.968 16.5267 274.255 16.8467 273.455 17.1L272.175 17.5C271.602 17.6733 271.155 17.8667 270.835 18.08C270.515 18.28 270.288 18.5067 270.155 18.76C270.035 19 269.975 19.2933 269.975 19.64V19.72H277.515V22H267.355ZM282.31 22L278.75 8H281.47L284.43 20.3H284.71L287.67 8H290.39L286.83 22H282.31Z" fill="white"/>
<rect x="225" y="268" width="88" height="123" rx="9" stroke="#E5E5E5" stroke-width="2"/>
<path d="M242 346.266V368.284H298.25V346.266" stroke="black" stroke-width="2"/>
<rect x="248" y="359" width="43.027" height="20" rx="5" fill="black"/>
<path d="M267.845 371.4V370.92C267.845 370.24 267.978 369.68 268.245 369.24C268.525 368.8 268.971 368.433 269.585 368.14L269.925 367.98C270.525 367.7 270.985 367.4 271.305 367.08C271.625 366.76 271.785 366.333 271.785 365.8C271.785 365.413 271.685 365.087 271.485 364.82C271.298 364.54 271.031 364.327 270.685 364.18C270.338 364.033 269.931 363.96 269.465 363.96C268.985 363.96 268.551 364.04 268.165 364.2C267.791 364.36 267.491 364.6 267.265 364.92C267.051 365.24 266.945 365.64 266.945 366.12V366.56H264.345V366.16C264.345 365.24 264.571 364.447 265.025 363.78C265.478 363.113 266.091 362.607 266.865 362.26C267.638 361.9 268.505 361.72 269.465 361.72C270.411 361.72 271.251 361.893 271.985 362.24C272.731 362.587 273.318 363.067 273.745 363.68C274.171 364.293 274.385 365 274.385 365.8C274.385 366.6 274.238 367.26 273.945 367.78C273.651 368.287 273.278 368.7 272.825 369.02C272.385 369.327 271.931 369.593 271.465 369.82L271.125 369.98C270.885 370.087 270.718 370.22 270.625 370.38C270.531 370.527 270.485 370.747 270.485 371.04V371.4H267.845ZM269.245 376.28C268.711 376.28 268.258 376.107 267.885 375.76C267.525 375.4 267.345 374.94 267.345 374.38C267.345 373.82 267.525 373.367 267.885 373.02C268.258 372.66 268.711 372.48 269.245 372.48C269.791 372.48 270.245 372.66 270.605 373.02C270.965 373.367 271.145 373.82 271.145 374.38C271.145 374.94 270.965 375.4 270.605 375.76C270.245 376.107 269.791 376.28 269.245 376.28Z" fill="white"/>
<path d="M246.154 279L244.507 279.135L242.944 279.524L241.488 280.148L240.157 280.985L238.974 282.013L237.959 283.211L237.133 284.559L236.518 286.035L236.133 287.618L236 289.286V309.858L236.135 312.242L236.53 314.546L237.169 316.755L238.039 318.853L239.123 320.825L240.408 322.657L241.878 324.333L243.517 325.838L245.312 327.157L247.248 328.275L248.629 329.03L249.971 329.885L251.251 330.837L252.441 331.882L253.517 333.018L254.455 334.242L255.228 335.549L255.811 336.937L256.179 338.402L256.308 339.942L256.406 341.18L256.692 342.354L257.149 343.449L257.761 344.449L258.514 345.339L259.392 346.101L260.379 346.722L261.46 347.185L262.619 347.474L263.841 347.574H274.159L275.381 347.474L276.54 347.185L277.621 346.722L278.608 346.101L279.486 345.339L280.239 344.449L280.851 343.449L281.308 342.354L281.594 341.18L281.692 339.942L281.821 338.402L282.189 336.937L282.772 335.549L283.545 334.242L284.483 333.018L285.559 331.882L286.749 330.837L288.029 329.885L289.371 329.03L290.752 328.275L292.688 327.157L294.483 325.838L296.122 324.333L297.592 322.657L298.877 320.825L299.961 318.853L300.831 316.755L301.47 314.546L301.865 312.242L302 309.858V289.286L301.867 287.618L301.482 286.035L300.867 284.559L300.041 283.211L299.026 282.013L297.843 280.985L296.512 280.148L295.056 279.524L293.493 279.135L291.846 279H246.154Z" fill="#F2F2F2" stroke="#B3B3B3" stroke-width="2.78497"/>
<path d="M265.937 340.016V307.937L265.864 307.011L265.65 306.131L265.308 305.312L264.849 304.563L264.286 303.898L263.628 303.327L262.889 302.862L262.08 302.516L261.213 302.299L260.298 302.224L255.352 302.225L254.525 302.292L253.741 302.488L253.01 302.801L252.342 303.221L251.749 303.737L251.239 304.338L250.825 305.014L250.516 305.755L250.323 306.549L250.256 307.387L250.323 308.224L250.516 309.018L250.825 309.759L251.239 310.435L251.749 311.037L252.342 311.553L253.01 311.972L253.741 312.285L254.525 312.481L255.352 312.549L260.165 312.549L260.108 312.557H277.896L277.844 312.549L282.657 312.549L283.484 312.481L284.268 312.285L284.999 311.972L285.667 311.553L286.261 311.037L286.77 310.435L287.184 309.759L287.493 309.018L287.686 308.224L287.753 307.387L287.686 306.549L287.493 305.755L287.184 305.014L286.77 304.338L286.261 303.737L285.667 303.221L284.999 302.801L284.268 302.488L283.484 302.292L282.658 302.225L277.711 302.224L276.797 302.299L275.929 302.516L275.12 302.862L274.381 303.327L273.724 303.898L273.16 304.563L272.701 305.312L272.359 306.131L272.146 307.011L272.072 307.937V340.016" stroke="#B3B3B3" stroke-width="2.22798"/>
<path d="M256.308 339.001H281.692V342.43H256.308V339.001Z" fill="#808080" stroke="#808080" stroke-width="1.67098"/>
<path d="M256.308 339H281.692V342.428L281.581 343.819L281.261 345.138L280.748 346.367L280.06 347.491L279.214 348.489L278.228 349.346L277.119 350.043L275.905 350.563L274.603 350.888L273.231 351H264.769L263.397 350.888L262.095 350.563L260.881 350.043L259.772 349.346L258.786 348.489L257.94 347.491L257.252 346.367L256.739 345.138L256.418 343.819L256.308 342.428V339Z" fill="#141414" stroke="#141414" stroke-width="1.67098"/>
<path d="M242 204.266V226.284H298.25V204.266" stroke="black" stroke-width="2"/>
<rect x="248" y="217" width="43.027" height="20" rx="5" fill="black"/>
<path d="M257.519 234V221.88H257.159L255.279 226.32H252.599L255.459 220H260.079V234H257.519ZM262.242 234V232.32C262.242 231.347 262.402 230.54 262.722 229.9C263.042 229.247 263.502 228.713 264.102 228.3C264.716 227.873 265.462 227.527 266.342 227.26L267.682 226.84C268.176 226.68 268.589 226.487 268.922 226.26C269.256 226.02 269.509 225.733 269.682 225.4C269.869 225.067 269.962 224.687 269.962 224.26V224.18C269.962 223.513 269.736 222.987 269.282 222.6C268.829 222.2 268.209 222 267.422 222C266.649 222 266.022 222.213 265.542 222.64C265.076 223.053 264.842 223.653 264.842 224.44V224.8H262.282V224.48C262.282 223.467 262.509 222.607 262.962 221.9C263.416 221.193 264.029 220.653 264.802 220.28C265.589 219.907 266.462 219.72 267.422 219.72C268.382 219.72 269.249 219.907 270.022 220.28C270.796 220.64 271.402 221.153 271.842 221.82C272.296 222.473 272.522 223.247 272.522 224.14V224.34C272.522 225.233 272.336 225.993 271.962 226.62C271.602 227.233 271.109 227.74 270.482 228.14C269.856 228.527 269.142 228.847 268.342 229.1L267.062 229.5C266.489 229.673 266.042 229.867 265.722 230.08C265.402 230.28 265.176 230.507 265.042 230.76C264.922 231 264.862 231.293 264.862 231.64V231.72H272.402V234H262.242ZM277.197 234L273.637 220H276.357L279.317 232.3H279.597L282.557 220H285.277L281.717 234H277.197Z" fill="white"/>
<path d="M281.64 198.39L281.697 197.365L281.861 196.364L282.127 195.391L282.486 194.449L282.932 193.54L283.457 192.67L284.053 191.84L284.715 191.054L285.435 190.316L286.204 189.628L288.407 187.618L290.437 185.413L292.28 183.038L293.922 180.517L295.349 177.874L296.549 175.132L297.505 172.317L298.206 169.451L298.637 166.559L298.783 163.665L298.391 159.016L297.254 154.605L295.435 150.492L292.995 146.736L289.996 143.396L286.501 140.531L282.57 138.2L278.266 136.461L273.649 135.375L268.783 135L263.917 135.375L259.301 136.461L254.996 138.2L251.066 140.531L247.57 143.396L244.571 146.736L242.132 150.492L240.313 154.605L239.176 159.016L238.783 163.665L238.93 166.559L239.36 169.451L240.061 172.317L241.018 175.132L242.217 177.874L243.645 180.517L245.287 183.038L247.13 185.413L249.159 187.618L251.362 189.628L252.132 190.316L252.851 191.054L253.513 191.84L254.11 192.67L254.635 193.54L255.08 194.449L255.44 195.391L255.705 196.364L255.87 197.365L255.926 198.39L256.021 199.577L256.297 200.704L256.738 201.754L257.329 202.714L258.057 203.567L258.904 204.298L259.857 204.894L260.901 205.337L262.02 205.615L263.2 205.711H274.367L275.546 205.615L276.666 205.337L277.709 204.894L278.662 204.298L279.51 203.567L280.237 202.714L280.828 201.754L281.27 200.704L281.545 199.577L281.64 198.39Z" fill="#F2F2F2" stroke="#B3B3B3" stroke-width="2.78497"/>
<path d="M265.68 199.426V167.799L265.599 166.782L265.363 165.818L264.985 164.918L264.479 164.097L263.856 163.367L263.13 162.74L262.314 162.23L261.421 161.85L260.462 161.613L259.452 161.531L258.961 161.531L258.03 161.606L257.148 161.825L256.324 162.175L255.573 162.645L254.904 163.222L254.331 163.895L253.864 164.651L253.517 165.48L253.299 166.368L253.224 167.305L253.299 168.241L253.517 169.13L253.864 169.958L254.331 170.714L254.904 171.387L255.573 171.964L256.325 172.434L257.148 172.784L258.03 173.003L258.961 173.078L259.833 173.078L259.775 173.086H277.794L277.741 173.078L278.614 173.078L279.545 173.003L280.427 172.784L281.25 172.434L282.002 171.964L282.671 171.387L283.244 170.714L283.711 169.958L284.058 169.13L284.276 168.241L284.351 167.305L284.276 166.368L284.058 165.48L283.711 164.651L283.244 163.895L282.671 163.222L282.002 162.645L281.251 162.175L280.427 161.825L279.545 161.606L278.614 161.531L278.123 161.531L277.113 161.613L276.154 161.85L275.261 162.23L274.445 162.74L273.719 163.367L273.096 164.097L272.59 164.918L272.212 165.818L271.976 166.782L271.895 167.799V199.426" stroke="#B3B3B3" stroke-width="2.22798"/>
<path d="M255.927 197.489H281.641V200.778L281.534 202.112L281.224 203.377L280.729 204.556L280.065 205.634L279.248 206.592L278.296 207.414L277.226 208.082L276.053 208.581L274.796 208.892L273.471 209H264.096L262.771 208.892L261.514 208.581L260.342 208.082L259.271 207.414L258.319 206.592L257.503 205.634L256.838 204.556L256.343 203.377L256.033 202.112L255.927 200.778V197.489Z" fill="#141414" stroke="#141414" stroke-width="1.67098"/>
<path d="M255.927 197.493H281.641V200.782H255.927V197.493Z" fill="#808080" stroke="#808080" stroke-width="1.67098"/>
<defs>
<clipPath id="clip0_159_131">
<rect width="540" height="285" fill="white" transform="translate(0 63)"/>
</clipPath>
</defs>
</svg>
