<svg width="540" height="315" viewBox="0 0 540 315" fill="none" xmlns="http://www.w3.org/2000/svg">
<rect x="1" y="62" width="538" height="218" stroke="black" stroke-width="2"/>
<path d="M305.754 84.9894H227.689C224.609 84.9894 222.113 82.3037 222.113 78.9907V42.9987C222.113 39.6857 224.609 37 227.689 37H305.754C308.833 37 311.33 39.6857 311.33 42.9987V78.9907C311.33 82.3037 308.833 84.9894 305.754 84.9894Z" fill="#CE6809"/>
<path d="M222.113 84.2386H280.661V37.749H222.113V84.2386Z" fill="#333333"/>
<path d="M280.662 54.9954H311.33V42.998H280.662V54.9954Z" fill="#E77A16"/>
<path d="M222.113 55.7411H280.661V43.7438H222.113V55.7411Z" fill="#4C4C4C"/>
<path d="M319.325 73.1124H313.748C312.209 73.1124 310.96 71.7696 310.96 70.1131V52.1171C310.96 50.4606 312.209 49.1178 313.748 49.1178H319.325C320.864 49.1178 322.113 50.4606 322.113 52.1171V70.1131C322.113 71.7696 320.864 73.1124 319.325 73.1124Z" fill="#333333"/>
<path d="M317.931 57.8118H312.354C311.585 57.8118 310.96 57.1403 310.96 56.3121V53.3128C310.96 52.4845 311.585 51.8131 312.354 51.8131H317.931C318.7 51.8131 319.325 52.4845 319.325 53.3128V56.3121C319.325 57.1403 318.7 57.8118 317.931 57.8118Z" fill="#4C4C4C"/>
<path d="M305.754 85H227.689C224.609 85 222.113 82.3143 222.113 79.0013V43.0093C222.113 39.6964 224.609 37.0107 227.689 37.0107H305.754C308.833 37.0107 311.33 39.6964 311.33 43.0093V79.0013C311.33 82.3143 308.833 85 305.754 85Z" stroke="#333333" stroke-width="2.78497"/>
<path d="M337.224 62.207L336.997 12.9316L206 13.5346L206.227 62.8099" stroke="black" stroke-width="2"/>
<rect x="251.113" y="3" width="40" height="20" rx="5" fill="black"/>
<path d="M258.461 20V7.88H258.101L256.221 12.32H253.541L256.401 6H261.021V20H258.461ZM268.344 20.28C267.277 20.28 266.33 20.12 265.504 19.8C264.69 19.48 264.05 19.02 263.584 18.42C263.13 17.8067 262.904 17.0867 262.904 16.26V16.02C262.904 15.38 263.017 14.8533 263.244 14.44C263.47 14.0133 263.75 13.68 264.084 13.44C264.43 13.2 264.757 13.0333 265.064 12.94V12.58C264.757 12.4733 264.45 12.3 264.144 12.06C263.837 11.82 263.584 11.5 263.384 11.1C263.197 10.7 263.104 10.22 263.104 9.66V9.42C263.104 8.68667 263.317 8.04667 263.744 7.5C264.184 6.94 264.797 6.50667 265.584 6.2C266.37 5.88 267.29 5.72 268.344 5.72C269.397 5.72 270.317 5.88 271.104 6.2C271.89 6.50667 272.497 6.94 272.924 7.5C273.364 8.04667 273.584 8.68667 273.584 9.42V9.66C273.584 10.22 273.484 10.7 273.284 11.1C273.097 11.5 272.85 11.82 272.544 12.06C272.25 12.3 271.944 12.4733 271.624 12.58V12.94C271.944 13.0333 272.27 13.2 272.604 13.44C272.937 13.68 273.217 14.0133 273.444 14.44C273.67 14.8533 273.784 15.38 273.784 16.02V16.26C273.784 17.0867 273.55 17.8067 273.084 18.42C272.63 19.02 271.99 19.48 271.164 19.8C270.35 20.12 269.41 20.28 268.344 20.28ZM268.344 18C269.264 18 269.97 17.8267 270.464 17.48C270.97 17.12 271.224 16.6467 271.224 16.06V15.9C271.224 15.3133 270.977 14.8467 270.484 14.5C270.004 14.14 269.29 13.96 268.344 13.96C267.41 13.96 266.697 14.14 266.204 14.5C265.71 14.8467 265.464 15.3133 265.464 15.9V16.06C265.464 16.6467 265.71 17.12 266.204 17.48C266.71 17.8267 267.424 18 268.344 18ZM268.344 11.68C269.197 11.68 269.857 11.5267 270.324 11.22C270.79 10.9133 271.024 10.48 271.024 9.92V9.76C271.024 9.2 270.784 8.76667 270.304 8.46C269.824 8.15333 269.17 8 268.344 8C267.517 8 266.864 8.15333 266.384 8.46C265.904 8.76667 265.664 9.2 265.664 9.76V9.92C265.664 10.48 265.897 10.9133 266.364 11.22C266.83 11.5267 267.49 11.68 268.344 11.68ZM278.256 20L274.696 6H277.416L280.376 18.3H280.656L283.616 6H286.336L282.776 20H278.256Z" fill="white"/>
<path d="M403 279.266V301.284H459.25V279.266" stroke="black" stroke-width="2"/>
<rect x="409" y="292" width="43.027" height="20" rx="5" fill="black"/>
<path d="M428.899 304.4V303.92C428.899 303.24 429.032 302.68 429.299 302.24C429.579 301.8 430.025 301.433 430.639 301.14L430.979 300.98C431.579 300.7 432.039 300.4 432.359 300.08C432.679 299.76 432.839 299.333 432.839 298.8C432.839 298.413 432.739 298.087 432.539 297.82C432.352 297.54 432.085 297.327 431.739 297.18C431.392 297.033 430.985 296.96 430.519 296.96C430.039 296.96 429.605 297.04 429.219 297.2C428.845 297.36 428.545 297.6 428.319 297.92C428.105 298.24 427.999 298.64 427.999 299.12V299.56H425.399V299.16C425.399 298.24 425.625 297.447 426.079 296.78C426.532 296.113 427.145 295.607 427.919 295.26C428.692 294.9 429.559 294.72 430.519 294.72C431.465 294.72 432.305 294.893 433.039 295.24C433.785 295.587 434.372 296.067 434.799 296.68C435.225 297.293 435.439 298 435.439 298.8C435.439 299.6 435.292 300.26 434.999 300.78C434.705 301.287 434.332 301.7 433.879 302.02C433.439 302.327 432.985 302.593 432.519 302.82L432.179 302.98C431.939 303.087 431.772 303.22 431.679 303.38C431.585 303.527 431.539 303.747 431.539 304.04V304.4H428.899ZM430.299 309.28C429.765 309.28 429.312 309.107 428.939 308.76C428.579 308.4 428.399 307.94 428.399 307.38C428.399 306.82 428.579 306.367 428.939 306.02C429.312 305.66 429.765 305.48 430.299 305.48C430.845 305.48 431.299 305.66 431.659 306.02C432.019 306.367 432.199 306.82 432.199 307.38C432.199 307.94 432.019 308.4 431.659 308.76C431.299 309.107 430.845 309.28 430.299 309.28Z" fill="white"/>
<path d="M407.154 212L405.507 212.135L403.944 212.524L402.488 213.148L401.157 213.985L399.974 215.013L398.959 216.211L398.133 217.559L397.518 219.035L397.133 220.618L397 222.286V242.858L397.135 245.242L397.53 247.546L398.169 249.755L399.039 251.853L400.123 253.825L401.408 255.657L402.878 257.333L404.517 258.838L406.312 260.157L408.248 261.275L409.629 262.03L410.971 262.885L412.251 263.837L413.441 264.882L414.517 266.018L415.455 267.242L416.228 268.549L416.811 269.937L417.179 271.402L417.308 272.942L417.406 274.18L417.692 275.354L418.149 276.449L418.761 277.449L419.514 278.339L420.392 279.101L421.379 279.722L422.46 280.185L423.619 280.474L424.841 280.574H435.159L436.381 280.474L437.54 280.185L438.621 279.722L439.608 279.101L440.486 278.339L441.239 277.449L441.851 276.449L442.308 275.354L442.594 274.18L442.692 272.942L442.821 271.402L443.189 269.937L443.772 268.549L444.545 267.242L445.483 266.018L446.559 264.882L447.749 263.837L449.029 262.885L450.371 262.03L451.752 261.275L453.688 260.157L455.483 258.838L457.122 257.333L458.592 255.657L459.877 253.825L460.961 251.853L461.831 249.755L462.47 247.546L462.865 245.242L463 242.858V222.286L462.867 220.618L462.482 219.035L461.867 217.559L461.041 216.211L460.026 215.013L458.843 213.985L457.512 213.148L456.056 212.524L454.493 212.135L452.846 212H407.154Z" fill="#F2F2F2" stroke="#B3B3B3" stroke-width="2.78497"/>
<path d="M426.937 273.016V240.937L426.864 240.011L426.65 239.132L426.308 238.312L425.849 237.563L425.286 236.898L424.628 236.327L423.889 235.862L423.08 235.516L422.213 235.299L421.298 235.224L416.352 235.225L415.525 235.292L414.741 235.488L414.01 235.801L413.342 236.221L412.749 236.737L412.239 237.338L411.825 238.014L411.516 238.755L411.323 239.549L411.256 240.387L411.323 241.224L411.516 242.018L411.825 242.759L412.239 243.435L412.749 244.037L413.342 244.553L414.01 244.972L414.741 245.286L415.525 245.481L416.352 245.549L421.165 245.549L421.108 245.557H438.896L438.844 245.549L443.657 245.549L444.484 245.481L445.268 245.286L445.999 244.972L446.667 244.553L447.261 244.037L447.77 243.435L448.184 242.759L448.493 242.018L448.686 241.224L448.753 240.387L448.686 239.549L448.493 238.755L448.184 238.014L447.77 237.338L447.261 236.737L446.667 236.221L445.999 235.801L445.268 235.488L444.484 235.292L443.658 235.225L438.711 235.224L437.797 235.299L436.929 235.516L436.12 235.862L435.381 236.327L434.724 236.898L434.16 237.563L433.701 238.312L433.359 239.132L433.146 240.011L433.072 240.937V273.016" stroke="#B3B3B3" stroke-width="2.22798"/>
<path d="M417.308 272.001H442.692V275.43H417.308V272.001Z" fill="#808080" stroke="#808080" stroke-width="1.67098"/>
<path d="M417.308 272H442.692V275.428L442.581 276.819L442.261 278.138L441.748 279.367L441.06 280.491L440.214 281.489L439.228 282.346L438.119 283.043L436.905 283.563L435.603 283.888L434.231 284H425.769L424.397 283.888L423.095 283.563L421.881 283.043L420.772 282.346L419.786 281.489L418.94 280.491L418.252 279.367L417.739 278.138L417.418 276.819L417.308 275.428V272Z" fill="#141414" stroke="#141414" stroke-width="1.67098"/>
<path d="M72.2168 279.266V301.284H128.467V279.266" stroke="black" stroke-width="2"/>
<rect x="78.2168" y="292" width="43.027" height="20" rx="5" fill="black"/>
<path d="M93.0312 309.28C91.9778 309.28 91.0445 309.093 90.2312 308.72C89.4178 308.347 88.7778 307.813 88.3112 307.12C87.8578 306.413 87.6312 305.58 87.6312 304.62V304.26H90.1912V304.54C90.1912 305.287 90.4512 305.887 90.9712 306.34C91.4912 306.78 92.1778 307 93.0312 307C93.8978 307 94.5645 306.793 95.0312 306.38C95.5112 305.967 95.7512 305.447 95.7512 304.82V304.62C95.7512 304.193 95.6445 303.847 95.4312 303.58C95.2178 303.313 94.9312 303.12 94.5712 303C94.2112 302.867 93.8045 302.8 93.3512 302.8H90.5512V300L95.0712 297.6V297.28H87.9912V295H97.9112V298.4L93.6912 300.64V300.96H94.4312C95.0578 300.96 95.6645 301.087 96.2512 301.34C96.8512 301.593 97.3445 301.987 97.7312 302.52C98.1178 303.04 98.3112 303.72 98.3112 304.56V304.8C98.3112 305.707 98.0912 306.5 97.6512 307.18C97.2112 307.847 96.5912 308.367 95.7912 308.74C95.0045 309.1 94.0845 309.28 93.0312 309.28ZM103.039 309L99.4791 295H102.199L105.159 307.3H105.439L108.399 295H111.119L107.559 309H103.039Z" fill="white"/>
<path d="M111.857 273.39L111.914 272.365L112.078 271.364L112.344 270.391L112.703 269.449L113.148 268.54L113.673 267.67L114.27 266.84L114.932 266.054L115.651 265.316L116.421 264.628L118.624 262.618L120.653 260.413L122.496 258.038L124.139 255.517L125.566 252.874L126.765 250.133L127.722 247.317L128.423 244.451L128.853 241.559L129 238.665L128.607 234.016L127.471 229.605L125.651 225.492L123.212 221.736L120.213 218.396L116.718 215.531L112.787 213.2L108.482 211.461L103.866 210.375L99 210L94.1338 210.375L89.5177 211.461L85.2133 213.2L81.2824 215.531L77.7868 218.396L74.7883 221.736L72.3485 225.492L70.5294 229.605L69.3927 234.016L69 238.665L69.1466 241.559L69.5772 244.451L70.2778 247.317L71.2347 250.133L72.4338 252.874L73.8614 255.517L75.5036 258.038L77.3465 260.413L79.3762 262.618L81.5789 264.628L82.3486 265.316L83.068 266.054L83.7298 266.84L84.3267 267.67L84.8516 268.54L85.2972 269.449L85.6564 270.391L85.9218 271.364L86.0864 272.365L86.1429 273.39L86.2381 274.578L86.5137 275.704L86.9548 276.754L87.5463 277.714L88.2733 278.567L89.1209 279.298L90.074 279.894L91.1176 280.337L92.2369 280.615L93.4167 280.711H104.583L105.763 280.615L106.882 280.337L107.926 279.894L108.879 279.298L109.727 278.567L110.454 277.714L111.045 276.754L111.486 275.704L111.762 274.578L111.857 273.39Z" fill="#F2F2F2" stroke="#B3B3B3" stroke-width="2.78497"/>
<path d="M95.8972 274.426V242.799L95.8157 241.782L95.5797 240.818L95.202 239.918L94.6955 239.097L94.073 238.367L93.3472 237.74L92.5311 237.23L91.6375 236.85L90.6791 236.613L89.6688 236.531L89.1776 236.531L88.247 236.606L87.3643 236.825L86.5412 237.175L85.7896 237.645L85.1211 238.222L84.5477 238.895L84.0812 239.651L83.7334 240.48L83.516 241.368L83.4409 242.305L83.516 243.241L83.7334 244.129L84.0812 244.958L84.5478 245.714L85.1212 246.387L85.7896 246.964L86.5413 247.434L87.3644 247.784L88.2472 248.003L89.1777 248.078L90.0503 248.078L89.9917 248.086H108.011L107.958 248.078L108.831 248.078L109.761 248.003L110.644 247.784L111.467 247.434L112.219 246.964L112.887 246.387L113.461 245.714L113.927 244.958L114.275 244.129L114.493 243.241L114.568 242.305L114.493 241.368L114.275 240.48L113.927 239.651L113.461 238.895L112.887 238.222L112.219 237.645L111.467 237.175L110.644 236.825L109.762 236.606L108.831 236.531L108.34 236.531L107.329 236.613L106.371 236.85L105.477 237.23L104.661 237.74L103.936 238.367L103.313 239.097L102.807 239.918L102.429 240.818L102.193 241.782L102.111 242.799V274.426" stroke="#B3B3B3" stroke-width="2.22798"/>
<path d="M86.1433 272.489H111.858V275.778L111.751 277.112L111.441 278.377L110.946 279.556L110.281 280.634L109.465 281.592L108.513 282.414L107.442 283.082L106.27 283.581L105.013 283.892L103.688 284H94.313L92.9878 283.892L91.7307 283.581L90.5585 283.082L89.4881 282.414L88.5361 281.592L87.7196 280.634L87.0552 279.556L86.5598 278.377L86.2502 277.112L86.1433 275.778V272.489Z" fill="#141414" stroke="#141414" stroke-width="1.67098"/>
<path d="M86.1433 272.493H111.858V275.782H86.1433V272.493Z" fill="#808080" stroke="#808080" stroke-width="1.67098"/>
</svg>
