<svg width="540" height="348" viewBox="0 0 540 348" fill="none" xmlns="http://www.w3.org/2000/svg">
<rect x="1" y="27" width="538" height="274" stroke="black" stroke-width="2"/>
<rect x="43" y="314" width="43.027" height="20" rx="5" fill="black"/>
<path d="M37 301.266V323.284H93.25V301.266" stroke="black" stroke-width="2"/>
<path d="M63.666 330V327.714H66.384C65.82 327.366 65.34 326.946 64.944 326.454C64.56 325.95 64.266 325.386 64.062 324.762C63.87 324.126 63.774 323.436 63.774 322.692C63.774 321.6 64.02 320.622 64.512 319.758C65.016 318.894 65.724 318.21 66.636 317.706C67.56 317.202 68.646 316.95 69.894 316.95C71.154 316.95 72.24 317.202 73.152 317.706C74.064 318.21 74.766 318.9 75.258 319.776C75.762 320.64 76.014 321.618 76.014 322.71C76.014 323.454 75.912 324.138 75.708 324.762C75.516 325.386 75.222 325.95 74.826 326.454C74.43 326.946 73.944 327.366 73.368 327.714H76.122V330H70.83V327.552C71.49 327.24 71.988 326.844 72.324 326.364C72.672 325.872 72.906 325.344 73.026 324.78C73.146 324.204 73.206 323.634 73.206 323.07C73.206 322.266 73.068 321.582 72.792 321.018C72.528 320.442 72.15 319.998 71.658 319.686C71.166 319.374 70.578 319.218 69.894 319.218C69.21 319.218 68.616 319.374 68.112 319.686C67.62 319.998 67.242 320.442 66.978 321.018C66.714 321.594 66.582 322.284 66.582 323.088C66.582 323.652 66.654 324.216 66.798 324.78C66.942 325.344 67.182 325.866 67.518 326.346C67.866 326.826 68.334 327.228 68.922 327.552V330H63.666Z" fill="white"/>
<path d="M56.4424 330.252C55.4944 330.252 54.6544 330.084 53.9224 329.748C53.1904 329.412 52.6144 328.932 52.1944 328.308C51.7864 327.672 51.5824 326.922 51.5824 326.058V325.734H53.8864V325.986C53.8864 326.658 54.1204 327.198 54.5884 327.606C55.0564 328.002 55.6744 328.2 56.4424 328.2C57.2224 328.2 57.8224 328.014 58.2424 327.642C58.6744 327.27 58.8904 326.802 58.8904 326.238V326.058C58.8904 325.674 58.7944 325.362 58.6024 325.122C58.4104 324.882 58.1524 324.708 57.8284 324.6C57.5044 324.48 57.1384 324.42 56.7304 324.42H54.2104V321.9L58.2784 319.74V319.452H51.9064V317.4H60.8344V320.46L57.0364 322.476V322.764H57.7024C58.2664 322.764 58.8124 322.878 59.3404 323.106C59.8804 323.334 60.3244 323.688 60.6724 324.168C61.0204 324.636 61.1944 325.248 61.1944 326.004V326.22C61.1944 327.036 60.9964 327.75 60.6004 328.362C60.2044 328.962 59.6464 329.43 58.9264 329.766C58.2184 330.09 57.3904 330.252 56.4424 330.252Z" fill="white"/>
<rect x="20" y="223" width="88" height="123" rx="9" stroke="#E5E5E5" stroke-width="2"/>
<path d="M76.6404 295.39L76.6969 294.365L76.8615 293.364L77.1269 292.391L77.4861 291.449L77.9317 290.54L78.4566 289.67L79.0535 288.84L79.7153 288.054L80.4347 287.316L81.2044 286.628L83.4071 284.618L85.4368 282.413L87.2797 280.038L88.9218 277.517L90.3495 274.874L91.5486 272.132L92.5055 269.317L93.2061 266.451L93.6367 263.559L93.7833 260.665L93.3906 256.016L92.2539 251.605L90.4348 247.492L87.995 243.736L84.9965 240.396L81.5009 237.531L77.57 235.2L73.2656 233.461L68.6495 232.375L63.7833 232L58.9171 232.375L54.301 233.461L49.9966 235.2L46.0657 237.531L42.5701 240.396L39.5716 243.736L37.1318 247.492L35.3127 251.605L34.1759 256.016L33.7833 260.665L33.9299 263.559L34.3605 266.451L35.0611 269.317L36.0179 272.132L37.2171 274.874L38.6447 277.517L40.2869 280.038L42.1298 282.413L44.1595 284.618L46.3622 286.628L47.1319 287.316L47.8513 288.054L48.5131 288.84L49.11 289.67L49.6349 290.54L50.0805 291.449L50.4397 292.391L50.7051 293.364L50.8697 294.365L50.9262 295.39L51.0214 296.577L51.297 297.704L51.738 298.754L52.3296 299.714L53.0566 300.567L53.9042 301.298L54.8573 301.894L55.9009 302.337L57.0201 302.615L58.2 302.711H69.3666L70.5464 302.615L71.6657 302.337L72.7093 301.894L73.6624 301.298L74.51 300.567L75.237 299.714L75.8285 298.754L76.2696 297.704L76.5452 296.577L76.6404 295.39Z" fill="#F2F2F2" stroke="#B3B3B3" stroke-width="2.78497"/>
<path d="M60.6805 296.426V264.799L60.599 263.782L60.363 262.818L59.9853 261.918L59.4788 261.097L58.8562 260.367L58.1305 259.74L57.3144 259.23L56.4207 258.85L55.4623 258.613L54.4521 258.531L53.9608 258.531L53.0303 258.606L52.1476 258.825L51.3245 259.175L50.5728 259.645L49.9044 260.222L49.331 260.895L48.8645 261.651L48.5166 262.48L48.2993 263.368L48.2242 264.305L48.2993 265.241L48.5166 266.13L48.8645 266.958L49.331 267.714L49.9044 268.387L50.5729 268.964L51.3246 269.434L52.1477 269.784L53.0304 270.003L53.961 270.078L54.8335 270.078L54.775 270.086H72.7944L72.7415 270.078L73.6141 270.078L74.5446 270.003L75.4274 269.784L76.2505 269.434L77.0022 268.964L77.6706 268.387L78.244 267.714L78.7106 266.958L79.0584 266.13L79.2758 265.241L79.3509 264.305L79.2758 263.368L79.0584 262.48L78.7106 261.651L78.2441 260.895L77.6707 260.222L77.0023 259.645L76.2506 259.175L75.4275 258.825L74.5448 258.606L73.6143 258.531L73.123 258.531L72.1127 258.613L71.1544 258.85L70.2607 259.23L69.4446 259.74L68.7189 260.367L68.0963 261.097L67.5898 261.918L67.2121 262.818L66.9761 263.782L66.8946 264.799V296.426" stroke="#B3B3B3" stroke-width="2.22798"/>
<path d="M50.9266 294.489H76.6408V297.778L76.5339 299.112L76.2244 300.377L75.729 301.556L75.0646 302.634L74.248 303.592L73.2961 304.414L72.2256 305.082L71.0534 305.581L69.7964 305.892L68.4712 306H59.0962L57.771 305.892L56.514 305.581L55.3418 305.082L54.2713 304.414L53.3194 303.592L52.5028 302.634L51.8384 301.556L51.3431 300.377L51.0335 299.112L50.9266 297.778V294.489Z" fill="#141414" stroke="#141414" stroke-width="1.67098"/>
<path d="M50.9266 294.493H76.6408V297.782H50.9266V294.493Z" fill="#808080" stroke="#808080" stroke-width="1.67098"/>
<rect x="255" y="315" width="43.027" height="20" rx="5" fill="black"/>
<path d="M249 302.266V324.284H305.25V302.266" stroke="black" stroke-width="2"/>
<path d="M275.666 331V328.714H278.384C277.82 328.366 277.34 327.946 276.944 327.454C276.56 326.95 276.266 326.386 276.062 325.762C275.87 325.126 275.774 324.436 275.774 323.692C275.774 322.6 276.02 321.622 276.512 320.758C277.016 319.894 277.724 319.21 278.636 318.706C279.56 318.202 280.646 317.95 281.894 317.95C283.154 317.95 284.24 318.202 285.152 318.706C286.064 319.21 286.766 319.9 287.258 320.776C287.762 321.64 288.014 322.618 288.014 323.71C288.014 324.454 287.912 325.138 287.708 325.762C287.516 326.386 287.222 326.95 286.826 327.454C286.43 327.946 285.944 328.366 285.368 328.714H288.122V331H282.83V328.552C283.49 328.24 283.988 327.844 284.324 327.364C284.672 326.872 284.906 326.344 285.026 325.78C285.146 325.204 285.206 324.634 285.206 324.07C285.206 323.266 285.068 322.582 284.792 322.018C284.528 321.442 284.15 320.998 283.658 320.686C283.166 320.374 282.578 320.218 281.894 320.218C281.21 320.218 280.616 320.374 280.112 320.686C279.62 320.998 279.242 321.442 278.978 322.018C278.714 322.594 278.582 323.284 278.582 324.088C278.582 324.652 278.654 325.216 278.798 325.78C278.942 326.344 279.182 326.866 279.518 327.346C279.866 327.826 280.334 328.228 280.922 328.552V331H275.666Z" fill="white"/>
<path d="M269.384 331V328.444H263.192V325.78L267.548 318.4H271.688V326.392H273.776V328.444H271.688V331H269.384ZM265.388 326.392H269.384V319.876H269.06L265.388 326.104V326.392Z" fill="white"/>
<rect x="232" y="224" width="88" height="123" rx="9" stroke="#E5E5E5" stroke-width="2"/>
<path d="M253.154 235L251.507 235.135L249.944 235.524L248.488 236.148L247.157 236.985L245.974 238.013L244.959 239.211L244.133 240.559L243.518 242.035L243.133 243.618L243 245.286V265.858L243.135 268.242L243.53 270.546L244.169 272.755L245.039 274.853L246.123 276.825L247.408 278.657L248.878 280.333L250.517 281.838L252.312 283.157L254.248 284.275L255.629 285.03L256.971 285.885L258.251 286.837L259.441 287.882L260.517 289.018L261.455 290.242L262.228 291.549L262.811 292.937L263.179 294.402L263.308 295.942L263.406 297.18L263.692 298.354L264.149 299.449L264.761 300.449L265.514 301.339L266.392 302.101L267.379 302.722L268.46 303.185L269.619 303.474L270.841 303.574H281.159L282.381 303.474L283.54 303.185L284.621 302.722L285.608 302.101L286.486 301.339L287.239 300.449L287.851 299.449L288.308 298.354L288.594 297.18L288.692 295.942L288.821 294.402L289.189 292.937L289.772 291.549L290.545 290.242L291.483 289.018L292.559 287.882L293.749 286.837L295.029 285.885L296.371 285.03L297.752 284.275L299.688 283.157L301.483 281.838L303.122 280.333L304.592 278.657L305.877 276.825L306.961 274.853L307.831 272.755L308.47 270.546L308.865 268.242L309 265.858V245.286L308.867 243.618L308.482 242.035L307.867 240.559L307.041 239.211L306.026 238.013L304.843 236.985L303.512 236.148L302.056 235.524L300.493 235.135L298.846 235H253.154Z" fill="#F2F2F2" stroke="#B3B3B3" stroke-width="2.78497"/>
<path d="M272.937 296.016V263.937L272.864 263.011L272.65 262.131L272.308 261.312L271.849 260.563L271.286 259.898L270.628 259.327L269.889 258.862L269.08 258.516L268.213 258.299L267.298 258.224L262.352 258.225L261.525 258.292L260.741 258.488L260.01 258.801L259.342 259.221L258.749 259.737L258.239 260.338L257.825 261.014L257.516 261.755L257.323 262.549L257.256 263.387L257.323 264.224L257.516 265.018L257.825 265.759L258.239 266.435L258.749 267.037L259.342 267.553L260.01 267.972L260.741 268.285L261.525 268.481L262.352 268.549L267.165 268.549L267.108 268.557H284.896L284.844 268.549L289.657 268.549L290.484 268.481L291.268 268.285L291.999 267.972L292.667 267.553L293.261 267.037L293.77 266.435L294.184 265.759L294.493 265.018L294.686 264.224L294.753 263.387L294.686 262.549L294.493 261.755L294.184 261.014L293.77 260.338L293.261 259.737L292.667 259.221L291.999 258.801L291.268 258.488L290.484 258.292L289.658 258.225L284.711 258.224L283.797 258.299L282.929 258.516L282.12 258.862L281.381 259.327L280.724 259.898L280.16 260.563L279.701 261.312L279.359 262.131L279.146 263.011L279.072 263.937V296.016" stroke="#B3B3B3" stroke-width="2.22798"/>
<path d="M263.308 295.001H288.692V298.43H263.308V295.001Z" fill="#808080" stroke="#808080" stroke-width="1.67098"/>
<path d="M263.308 295H288.692V298.428L288.582 299.819L288.261 301.138L287.748 302.367L287.06 303.491L286.214 304.489L285.228 305.346L284.119 306.043L282.905 306.563L281.603 306.888L280.231 307H271.769L270.397 306.888L269.095 306.563L267.881 306.043L266.772 305.346L265.786 304.489L264.94 303.491L264.252 302.367L263.739 301.138L263.418 299.819L263.308 298.428V295Z" fill="#141414" stroke="#141414" stroke-width="1.67098"/>
<rect x="448" y="314" width="43.027" height="20" rx="5" fill="black"/>
<path d="M442 301.266V323.284H498.25V301.266" stroke="black" stroke-width="2"/>
<path d="M468.666 330V327.714H471.384C470.82 327.366 470.34 326.946 469.944 326.454C469.56 325.95 469.266 325.386 469.062 324.762C468.87 324.126 468.774 323.436 468.774 322.692C468.774 321.6 469.02 320.622 469.512 319.758C470.016 318.894 470.724 318.21 471.636 317.706C472.56 317.202 473.646 316.95 474.894 316.95C476.154 316.95 477.24 317.202 478.152 317.706C479.064 318.21 479.766 318.9 480.258 319.776C480.762 320.64 481.014 321.618 481.014 322.71C481.014 323.454 480.912 324.138 480.708 324.762C480.516 325.386 480.222 325.95 479.826 326.454C479.43 326.946 478.944 327.366 478.368 327.714H481.122V330H475.83V327.552C476.49 327.24 476.988 326.844 477.324 326.364C477.672 325.872 477.906 325.344 478.026 324.78C478.146 324.204 478.206 323.634 478.206 323.07C478.206 322.266 478.068 321.582 477.792 321.018C477.528 320.442 477.15 319.998 476.658 319.686C476.166 319.374 475.578 319.218 474.894 319.218C474.21 319.218 473.616 319.374 473.112 319.686C472.62 319.998 472.242 320.442 471.978 321.018C471.714 321.594 471.582 322.284 471.582 323.088C471.582 323.652 471.654 324.216 471.798 324.78C471.942 325.344 472.182 325.866 472.518 326.346C472.866 326.826 473.334 327.228 473.922 327.552V330H468.666Z" fill="white"/>
<path d="M456.858 330V328.488C456.858 327.612 457.002 326.886 457.29 326.31C457.578 325.722 457.992 325.242 458.532 324.87C459.084 324.486 459.756 324.174 460.548 323.934L461.754 323.556C462.198 323.412 462.57 323.238 462.87 323.034C463.17 322.818 463.398 322.56 463.554 322.26C463.722 321.96 463.806 321.618 463.806 321.234V321.162C463.806 320.562 463.602 320.088 463.194 319.74C462.786 319.38 462.228 319.2 461.52 319.2C460.824 319.2 460.26 319.392 459.828 319.776C459.408 320.148 459.198 320.688 459.198 321.396V321.72H456.894V321.432C456.894 320.52 457.098 319.746 457.506 319.11C457.914 318.474 458.466 317.988 459.162 317.652C459.87 317.316 460.656 317.148 461.52 317.148C462.384 317.148 463.164 317.316 463.86 317.652C464.556 317.976 465.102 318.438 465.498 319.038C465.906 319.626 466.11 320.322 466.11 321.126V321.306C466.11 322.11 465.942 322.794 465.606 323.358C465.282 323.91 464.838 324.366 464.274 324.726C463.71 325.074 463.068 325.362 462.348 325.59L461.196 325.95C460.68 326.106 460.278 326.28 459.99 326.472C459.702 326.652 459.498 326.856 459.378 327.084C459.27 327.3 459.216 327.564 459.216 327.876V327.948H466.002V330H456.858Z" fill="white"/>
<rect x="425" y="223" width="88" height="123" rx="9" stroke="#E5E5E5" stroke-width="2"/>
<path d="M443.662 261.099L442.98 261.993L442.365 262.916L441.819 263.866L441.343 264.84L440.937 265.835L440.602 266.85L440.34 267.88L440.152 268.923L440.038 269.976L440 271.038L440.118 272.914L440.463 274.733L441.023 276.486L441.787 278.161L442.743 279.748L443.878 281.239L445.181 282.621L446.639 283.887L448.241 285.025L449.974 286.025L451.179 286.69L452.341 287.421L453.44 288.217L454.456 289.075L455.369 289.992L456.161 290.967L456.811 291.996L457.3 293.079L457.607 294.212L457.714 295.392L457.817 296.468L458.116 297.488L458.595 298.439L459.236 299.308L460.024 300.08L460.943 300.743L461.976 301.282L463.108 301.684L464.321 301.935L465.6 302.022H476.4L477.679 301.935L478.892 301.684L480.024 301.282L481.057 300.743L481.976 300.08L482.764 299.308L483.405 298.439L483.884 297.488L484.182 296.468L484.286 295.392L484.393 294.212L484.7 293.079L485.189 291.996L485.839 290.967L486.631 289.992L487.544 289.075L488.56 288.217L489.659 287.421L490.821 286.69L492.026 286.025L493.759 285.025L495.361 283.887L496.819 282.621L498.122 281.239L499.257 279.748L500.213 278.161L500.977 276.486L501.537 274.733L501.882 272.914L502 271.038L501.962 269.976L501.848 268.923L501.66 267.88L501.398 266.85L501.063 265.835L500.657 264.84L500.181 263.866L499.635 262.916L499.02 261.993L498.338 261.099L475.384 232.942L474.682 232.243L473.864 231.699L472.958 231.311L471.994 231.078L471 231L470.006 231.078L469.042 231.311L468.136 231.699L467.318 232.243L466.616 232.942L443.662 261.099Z" fill="#F2F2F2" stroke="#B3B3B3" stroke-width="2.79134"/>
<path d="M467.794 296.329V265.934L467.733 265.298L467.556 264.695L467.273 264.132L466.894 263.618L466.427 263.161L465.884 262.769L465.273 262.451L464.603 262.213L463.886 262.064L463.129 262.013L462.372 262.064L461.655 262.213L460.986 262.451L460.374 262.77L459.831 263.161L459.365 263.618L458.985 264.132L458.703 264.695L458.526 265.298L458.465 265.934V269.707L458.554 270.638L458.813 271.522L459.227 272.345L459.783 273.098L460.465 273.767L461.261 274.341L462.156 274.807L463.136 275.156L464.187 275.373L465.295 275.448L464.8 275.456H477.2L476.714 275.448L477.822 275.373L478.873 275.156L479.853 274.807L480.748 274.341L481.543 273.767L482.226 273.098L482.781 272.345L483.196 271.522L483.454 270.638L483.544 269.707V265.934L483.483 265.298L483.306 264.695L483.023 264.132L482.644 263.618L482.178 263.161L481.634 262.77L481.023 262.451L480.354 262.213L479.636 262.064L478.88 262.013L478.123 262.064L477.405 262.213L476.736 262.451L476.125 262.769L475.581 263.161L475.115 263.618L474.736 264.132L474.453 264.695L474.276 265.298L474.215 265.934V296.329" stroke="#B3B3B3" stroke-width="2.23307"/>
<path d="M457.715 294.576H484.286V297.554L484.17 298.762L483.835 299.908L483.298 300.976L482.577 301.952L481.692 302.819L480.66 303.563L479.499 304.169L478.229 304.62L476.866 304.903L475.429 305H466.572L465.135 304.903L463.772 304.62L462.501 304.169L461.341 303.563L460.309 302.819L459.424 301.952L458.703 300.976L458.166 299.908L457.831 298.762L457.715 297.554V294.576Z" fill="#141414" stroke="#141414" stroke-width="1.67481"/>
<path d="M457.715 294.576H484.286V297.554H457.715V294.576Z" fill="#808080" stroke="#808080" stroke-width="1.67481"/>
<path d="M464.653 245.989C471.226 245.989 476.554 250.468 476.554 255.994C476.554 261.519 471.226 265.999 464.653 265.999C458.079 265.999 452.751 261.519 452.751 255.994C452.751 250.468 458.079 245.989 464.653 245.989Z" fill="white" fill-opacity="0.3"/>
<path d="M314.641 49.9893H236.576C233.496 49.9893 231 47.3037 231 43.9907V7.99867C231 4.6857 233.496 2 236.576 2H314.641C317.721 2 320.217 4.6857 320.217 7.99867V43.9907C320.217 47.3037 317.721 49.9893 314.641 49.9893Z" fill="#CE6809"/>
<path d="M231 49.2387H289.549V2.749H231V49.2387Z" fill="#333333"/>
<path d="M289.549 19.9953H320.218V7.99796H289.549V19.9953Z" fill="#E77A16"/>
<path d="M231 20.7411H289.549V8.74378H231V20.7411Z" fill="#4C4C4C"/>
<path d="M328.212 38.1125H322.636C321.096 38.1125 319.848 36.7696 319.848 35.1132V17.1171C319.848 15.4607 321.096 14.1178 322.636 14.1178H328.212C329.752 14.1178 331 15.4607 331 17.1171V35.1132C331 36.7696 329.752 38.1125 328.212 38.1125Z" fill="#333333"/>
<path d="M326.818 22.8118H321.242C320.472 22.8118 319.848 22.1403 319.848 21.3121V18.3128C319.848 17.4845 320.472 16.8131 321.242 16.8131H326.818C327.588 16.8131 328.212 17.4845 328.212 18.3128V21.3121C328.212 22.1403 327.588 22.8118 326.818 22.8118Z" fill="#4C4C4C"/>
<path d="M314.641 50H236.576C233.496 50 231 47.3143 231 44.0013V8.00933C231 4.69635 233.496 2.01066 236.576 2.01066H314.641C317.721 2.01066 320.217 4.69635 320.217 8.00933V44.0013C320.217 47.3143 317.721 50 314.641 50Z" stroke="#333333" stroke-width="2.78497"/>
</svg>
