<svg width="540" height="406" viewBox="0 0 540 406" fill="none" xmlns="http://www.w3.org/2000/svg">
<path d="M539 361H1V199.497L539 198.002V361ZM539 63V196.002L1 197.497V63H539Z" stroke="black" stroke-width="2"/>
<rect x="245" y="373" width="43.027" height="20" rx="5" fill="black"/>
<path d="M239 360.266V382.284H295.25V360.266" stroke="black" stroke-width="2"/>
<path d="M264.845 385.4V384.92C264.845 384.24 264.978 383.68 265.245 383.24C265.525 382.8 265.971 382.433 266.585 382.14L266.925 381.98C267.525 381.7 267.985 381.4 268.305 381.08C268.625 380.76 268.785 380.333 268.785 379.8C268.785 379.413 268.685 379.087 268.485 378.82C268.298 378.54 268.031 378.327 267.685 378.18C267.338 378.033 266.931 377.96 266.465 377.96C265.985 377.96 265.551 378.04 265.165 378.2C264.791 378.36 264.491 378.6 264.265 378.92C264.051 379.24 263.945 379.64 263.945 380.12V380.56H261.345V380.16C261.345 379.24 261.571 378.447 262.025 377.78C262.478 377.113 263.091 376.607 263.865 376.26C264.638 375.9 265.505 375.72 266.465 375.72C267.411 375.72 268.251 375.893 268.985 376.24C269.731 376.587 270.318 377.067 270.745 377.68C271.171 378.293 271.385 379 271.385 379.8C271.385 380.6 271.238 381.26 270.945 381.78C270.651 382.287 270.278 382.7 269.825 383.02C269.385 383.327 268.931 383.593 268.465 383.82L268.125 383.98C267.885 384.087 267.718 384.22 267.625 384.38C267.531 384.527 267.485 384.747 267.485 385.04V385.4H264.845ZM266.245 390.28C265.711 390.28 265.258 390.107 264.885 389.76C264.525 389.4 264.345 388.94 264.345 388.38C264.345 387.82 264.525 387.367 264.885 387.02C265.258 386.66 265.711 386.48 266.245 386.48C266.791 386.48 267.245 386.66 267.605 387.02C267.965 387.367 268.145 387.82 268.145 388.38C268.145 388.94 267.965 389.4 267.605 389.76C267.245 390.107 266.791 390.28 266.245 390.28Z" fill="white"/>
<rect x="222" y="282" width="88" height="123" rx="9" stroke="#E5E5E5" stroke-width="2"/>
<path d="M243.154 293L241.507 293.134L239.944 293.524L238.488 294.148L237.157 294.984L235.974 296.013L234.959 297.211L234.133 298.559L233.518 300.035L233.133 301.617L233 303.286V323.858L233.135 326.242L233.53 328.546L234.169 330.755L235.039 332.853L236.123 334.825L237.408 336.657L238.878 338.333L240.517 339.838L242.312 341.157L244.248 342.274L245.629 343.03L246.971 343.885L248.251 344.837L249.441 345.882L250.517 347.018L251.455 348.241L252.228 349.549L252.811 350.937L253.179 352.402L253.308 353.942L253.406 355.18L253.692 356.354L254.149 357.449L254.761 358.449L255.514 359.338L256.392 360.101L257.379 360.722L258.46 361.185L259.619 361.474L260.841 361.574H271.159L272.381 361.474L273.54 361.185L274.621 360.722L275.608 360.101L276.486 359.338L277.239 358.449L277.851 357.449L278.308 356.354L278.594 355.18L278.692 353.942L278.821 352.402L279.189 350.937L279.772 349.549L280.545 348.241L281.483 347.018L282.559 345.882L283.749 344.837L285.029 343.885L286.371 343.03L287.752 342.274L289.688 341.157L291.483 339.838L293.122 338.333L294.592 336.657L295.877 334.825L296.961 332.853L297.831 330.755L298.47 328.546L298.865 326.242L299 323.858V303.286L298.867 301.617L298.482 300.035L297.867 298.559L297.041 297.211L296.026 296.013L294.843 294.984L293.512 294.148L292.056 293.524L290.493 293.134L288.846 293H243.154Z" fill="#F2F2F2" stroke="#B3B3B3" stroke-width="2.78497"/>
<path d="M262.937 354.016V321.937L262.864 321.01L262.65 320.131L262.308 319.312L261.849 318.563L261.286 317.897L260.628 317.326L259.889 316.862L259.08 316.515L258.213 316.299L257.298 316.224L252.352 316.224L251.525 316.292L250.741 316.488L250.01 316.801L249.342 317.221L248.749 317.736L248.239 318.338L247.825 319.014L247.516 319.755L247.323 320.549L247.256 321.387L247.323 322.224L247.516 323.018L247.825 323.759L248.239 324.435L248.749 325.037L249.342 325.553L250.01 325.972L250.741 326.285L251.525 326.481L252.352 326.549L257.165 326.549L257.108 326.557H274.896L274.844 326.549L279.657 326.549L280.484 326.481L281.268 326.285L281.999 325.972L282.667 325.553L283.261 325.037L283.77 324.435L284.184 323.759L284.493 323.018L284.686 322.224L284.753 321.387L284.686 320.549L284.493 319.755L284.184 319.014L283.77 318.338L283.261 317.736L282.667 317.221L281.999 316.801L281.268 316.488L280.484 316.292L279.658 316.224L274.711 316.224L273.797 316.299L272.929 316.515L272.12 316.862L271.381 317.326L270.724 317.897L270.16 318.563L269.701 319.312L269.359 320.131L269.146 321.01L269.072 321.937V354.016" stroke="#B3B3B3" stroke-width="2.22798"/>
<path d="M253.308 353.001H278.692V356.43H253.308V353.001Z" fill="#808080" stroke="#808080" stroke-width="1.67098"/>
<path d="M253.308 353H278.692V356.428L278.582 357.819L278.261 359.138L277.748 360.367L277.06 361.491L276.214 362.489L275.228 363.346L274.119 364.043L272.905 364.563L271.603 364.888L270.231 365H261.769L260.397 364.888L259.095 364.563L257.881 364.043L256.772 363.346L255.786 362.489L254.94 361.491L254.252 360.367L253.739 359.138L253.418 357.819L253.308 356.428V353Z" fill="#141414" stroke="#141414" stroke-width="1.67098"/>
<rect x="245" y="210" width="43.027" height="20" rx="5" fill="black"/>
<path d="M239 197.266V219.284H295.25V197.266" stroke="black" stroke-width="2"/>
<path d="M273.231 227L268.131 213H271.011L274.891 224.24L278.791 213H281.651L276.551 227H273.231Z" fill="white"/>
<path d="M252.701 227V214.88H252.341L250.461 219.32H247.781L250.641 213H255.261V227H252.701ZM257.424 227V225.32C257.424 224.347 257.584 223.54 257.904 222.9C258.224 222.247 258.684 221.713 259.284 221.3C259.897 220.873 260.644 220.527 261.524 220.26L262.864 219.84C263.357 219.68 263.771 219.487 264.104 219.26C264.437 219.02 264.691 218.733 264.864 218.4C265.051 218.067 265.144 217.687 265.144 217.26V217.18C265.144 216.513 264.917 215.987 264.464 215.6C264.011 215.2 263.391 215 262.604 215C261.831 215 261.204 215.213 260.724 215.64C260.257 216.053 260.024 216.653 260.024 217.44V217.8H257.464V217.48C257.464 216.467 257.691 215.607 258.144 214.9C258.597 214.193 259.211 213.653 259.984 213.28C260.771 212.907 261.644 212.72 262.604 212.72C263.564 212.72 264.431 212.907 265.204 213.28C265.977 213.64 266.584 214.153 267.024 214.82C267.477 215.473 267.704 216.247 267.704 217.14V217.34C267.704 218.233 267.517 218.993 267.144 219.62C266.784 220.233 266.291 220.74 265.664 221.14C265.037 221.527 264.324 221.847 263.524 222.1L262.244 222.5C261.671 222.673 261.224 222.867 260.904 223.08C260.584 223.28 260.357 223.507 260.224 223.76C260.104 224 260.044 224.293 260.044 224.64V224.72H267.584V227H257.424Z" fill="white"/>
<rect x="222" y="119" width="88" height="123" rx="9" stroke="#E5E5E5" stroke-width="2"/>
<path d="M278.64 191.39L278.697 190.365L278.862 189.364L279.127 188.391L279.486 187.448L279.932 186.54L280.457 185.67L281.054 184.84L281.715 184.054L282.435 183.316L283.204 182.628L285.407 180.617L287.437 178.413L289.28 176.038L290.922 173.517L292.35 170.874L293.549 168.132L294.506 165.317L295.206 162.451L295.637 159.559L295.783 156.665L295.391 152.015L294.254 147.605L292.435 143.492L289.995 139.736L286.997 136.396L283.501 133.53L279.57 131.199L275.266 129.461L270.649 128.375L265.783 128L260.917 128.375L256.301 129.461L251.997 131.199L248.066 133.53L244.57 136.396L241.572 139.736L239.132 143.492L237.313 147.605L236.176 152.015L235.783 156.665L235.93 159.559L236.36 162.451L237.061 165.317L238.018 168.132L239.217 170.874L240.645 173.517L242.287 176.038L244.13 178.413L246.16 180.617L248.362 182.628L249.132 183.316L249.851 184.054L250.513 184.84L251.11 185.67L251.635 186.54L252.081 187.448L252.44 188.391L252.705 189.364L252.87 190.365L252.926 191.39L253.021 192.577L253.297 193.704L253.738 194.754L254.33 195.713L255.057 196.566L255.904 197.298L256.857 197.893L257.901 198.337L259.02 198.615L260.2 198.71H271.367L272.546 198.615L273.666 198.337L274.709 197.893L275.662 197.298L276.51 196.566L277.237 195.713L277.829 194.754L278.27 193.704L278.545 192.577L278.64 191.39Z" fill="#F2F2F2" stroke="#B3B3B3" stroke-width="2.78497"/>
<path d="M262.681 192.426V160.799L262.599 159.782L262.363 158.818L261.985 157.918L261.479 157.097L260.856 156.367L260.13 155.74L259.314 155.23L258.421 154.85L257.462 154.613L256.452 154.531L255.961 154.531L255.03 154.606L254.148 154.825L253.324 155.175L252.573 155.645L251.904 156.222L251.331 156.895L250.864 157.651L250.517 158.48L250.299 159.368L250.224 160.305L250.299 161.241L250.517 162.13L250.865 162.958L251.331 163.715L251.904 164.387L252.573 164.964L253.325 165.434L254.148 165.784L255.03 166.003L255.961 166.078L256.834 166.078L256.775 166.087H274.794L274.742 166.078L275.614 166.078L276.545 166.003L277.427 165.784L278.25 165.434L279.002 164.964L279.671 164.387L280.244 163.715L280.711 162.958L281.058 162.13L281.276 161.241L281.351 160.305L281.276 159.368L281.058 158.48L280.711 157.651L280.244 156.895L279.671 156.222L279.002 155.645L278.251 155.175L277.427 154.825L276.545 154.606L275.614 154.531L275.123 154.531L274.113 154.613L273.154 154.85L272.261 155.23L271.445 155.74L270.719 156.367L270.096 157.097L269.59 157.918L269.212 158.818L268.976 159.782L268.895 160.799V192.426" stroke="#B3B3B3" stroke-width="2.22798"/>
<path d="M252.927 190.489H278.641V193.778L278.534 195.112L278.224 196.377L277.729 197.556L277.065 198.634L276.248 199.592L275.296 200.414L274.226 201.082L273.053 201.581L271.796 201.892L270.471 202H261.096L259.771 201.892L258.514 201.581L257.342 201.082L256.271 200.414L255.319 199.592L254.503 198.634L253.838 197.556L253.343 196.377L253.034 195.112L252.927 193.778V190.489Z" fill="#141414" stroke="#141414" stroke-width="1.67098"/>
<path d="M252.927 190.493H278.641V193.782H252.927V190.493Z" fill="#808080" stroke="#808080" stroke-width="1.67098"/>
<path d="M331.111 62.207L330.885 12.9316L199.887 13.5346L200.114 62.8099" stroke="black" stroke-width="2"/>
<path d="M299.641 84.9893H221.576C218.497 84.9893 216 82.3036 216 78.9906V42.9986C216 39.6856 218.497 36.9999 221.576 36.9999H299.641C302.721 36.9999 305.217 39.6856 305.217 42.9986V78.9906C305.217 82.3036 302.721 84.9893 299.641 84.9893Z" fill="#CE6809"/>
<path d="M216 84.2388H274.549V37.7491H216V84.2388Z" fill="#333333"/>
<path d="M274.549 54.9951H305.218V42.9978H274.549V54.9951Z" fill="#E77A16"/>
<path d="M216 55.7412H274.549V43.7439H216V55.7412Z" fill="#4C4C4C"/>
<path d="M313.212 73.1123H307.636C306.096 73.1123 304.848 71.7695 304.848 70.113V52.117C304.848 50.4605 306.096 49.1176 307.636 49.1176H313.212C314.752 49.1176 316 50.4605 316 52.117V70.113C316 71.7695 314.752 73.1123 313.212 73.1123Z" fill="#333333"/>
<path d="M311.818 57.8115H306.242C305.472 57.8115 304.848 57.1401 304.848 56.3119V53.3125C304.848 52.4843 305.472 51.8129 306.242 51.8129H311.818C312.588 51.8129 313.212 52.4843 313.212 53.3125V56.3119C313.212 57.1401 312.588 57.8115 311.818 57.8115Z" fill="#4C4C4C"/>
<path d="M299.641 85H221.576C218.497 85 216 82.3143 216 79.0013V43.0093C216 39.6964 218.497 37.0107 221.576 37.0107H299.641C302.721 37.0107 305.217 39.6964 305.217 43.0093V79.0013C305.217 82.3143 302.721 85 299.641 85Z" stroke="#333333" stroke-width="2.78497"/>
<rect x="245" y="3" width="40" height="20" rx="5" fill="black"/>
<path d="M271.84 21L266.74 7H269.62L273.5 18.24L277.4 7H280.26L275.16 21H271.84Z" fill="white"/>
<path d="M251.201 20V7.88H250.841L248.961 12.32H246.281L249.141 6H253.761V20H251.201ZM255.924 20V18.32C255.924 17.3467 256.084 16.54 256.404 15.9C256.724 15.2467 257.184 14.7133 257.784 14.3C258.397 13.8733 259.144 13.5267 260.024 13.26L261.364 12.84C261.857 12.68 262.271 12.4867 262.604 12.26C262.937 12.02 263.191 11.7333 263.364 11.4C263.551 11.0667 263.644 10.6867 263.644 10.26V10.18C263.644 9.51333 263.417 8.98667 262.964 8.6C262.511 8.2 261.891 8 261.104 8C260.331 8 259.704 8.21333 259.224 8.64C258.757 9.05333 258.524 9.65333 258.524 10.44V10.8H255.964V10.48C255.964 9.46667 256.191 8.60667 256.644 7.9C257.097 7.19333 257.711 6.65333 258.484 6.28C259.271 5.90667 260.144 5.72 261.104 5.72C262.064 5.72 262.931 5.90667 263.704 6.28C264.477 6.64 265.084 7.15333 265.524 7.82C265.977 8.47333 266.204 9.24667 266.204 10.14V10.34C266.204 11.2333 266.017 11.9933 265.644 12.62C265.284 13.2333 264.791 13.74 264.164 14.14C263.537 14.5267 262.824 14.8467 262.024 15.1L260.744 15.5C260.171 15.6733 259.724 15.8667 259.404 16.08C259.084 16.28 258.857 16.5067 258.724 16.76C258.604 17 258.544 17.2933 258.544 17.64V17.72H266.084V20H255.924Z" fill="white"/>
</svg>
