<svg width="536" height="401" viewBox="0 0 536 401" fill="none" xmlns="http://www.w3.org/2000/svg">
<path d="M535 70V383H1V70H535Z" stroke="black" stroke-width="2"/>
<path d="M308.641 402.989H230.576C227.496 402.989 225 400.304 225 396.991V360.999C225 357.686 227.496 355 230.576 355H308.641C311.721 355 314.217 357.686 314.217 360.999V396.991C314.217 400.304 311.721 402.989 308.641 402.989Z" fill="#CE6809"/>
<path d="M225 402.239H283.549V355.749H225V402.239Z" fill="#333333"/>
<path d="M283.549 372.995H314.218V360.998H283.549V372.995Z" fill="#E77A16"/>
<path d="M225 373.741H283.549V361.744H225V373.741Z" fill="#4C4C4C"/>
<path d="M322.212 391.113H316.636C315.096 391.113 313.848 389.77 313.848 388.113V370.117C313.848 368.461 315.096 367.118 316.636 367.118H322.212C323.752 367.118 325 368.461 325 370.117V388.113C325 389.77 323.752 391.113 322.212 391.113Z" fill="#333333"/>
<path d="M320.818 375.812H315.242C314.472 375.812 313.848 375.14 313.848 374.312V371.313C313.848 370.485 314.472 369.813 315.242 369.813H320.818C321.588 369.813 322.212 370.485 322.212 371.313V374.312C322.212 375.14 321.588 375.812 320.818 375.812Z" fill="#4C4C4C"/>
<path d="M308.641 403H230.576C227.496 403 225 400.314 225 397.001V361.009C225 357.696 227.496 355.011 230.576 355.011H308.641C311.721 355.011 314.217 357.696 314.217 361.009V397.001C314.217 400.314 311.721 403 308.641 403Z" stroke="#333333" stroke-width="2.78497"/>
<path d="M242.662 262.099L241.98 262.993L241.365 263.916L240.819 264.866L240.343 265.84L239.937 266.835L239.602 267.85L239.34 268.88L239.152 269.923L239.038 270.976L239 272.038L239.118 273.914L239.463 275.734L240.023 277.486L240.787 279.161L241.743 280.748L242.878 282.239L244.181 283.622L245.639 284.887L247.241 286.025L248.974 287.025L250.179 287.69L251.341 288.421L252.44 289.217L253.456 290.075L254.369 290.992L255.161 291.967L255.811 292.996L256.3 294.079L256.607 295.212L256.714 296.392L256.817 297.468L257.116 298.488L257.595 299.439L258.236 300.308L259.024 301.08L259.943 301.743L260.976 302.282L262.108 302.684L263.321 302.935L264.6 303.022H275.4L276.679 302.935L277.892 302.684L279.024 302.282L280.057 301.743L280.976 301.08L281.764 300.308L282.405 299.439L282.884 298.488L283.182 297.468L283.286 296.392L283.393 295.212L283.7 294.079L284.189 292.996L284.839 291.967L285.631 290.992L286.544 290.075L287.56 289.217L288.659 288.421L289.821 287.69L291.026 287.025L292.759 286.025L294.361 284.887L295.819 283.622L297.122 282.239L298.257 280.748L299.213 279.161L299.977 277.486L300.537 275.734L300.882 273.914L301 272.038L300.962 270.976L300.848 269.923L300.66 268.88L300.398 267.85L300.063 266.835L299.657 265.84L299.181 264.866L298.635 263.916L298.02 262.993L297.338 262.099L274.384 233.942L273.682 233.243L272.864 232.699L271.958 232.311L270.994 232.078L270 232L269.006 232.078L268.042 232.311L267.136 232.699L266.318 233.243L265.616 233.942L242.662 262.099Z" fill="#F2F2F2" stroke="#B3B3B3" stroke-width="2.79134"/>
<path d="M266.794 297.329V266.934L266.732 266.298L266.556 265.695L266.273 265.132L265.893 264.618L265.427 264.161L264.884 263.769L264.273 263.451L263.603 263.213L262.885 263.064L262.129 263.013L261.372 263.064L260.655 263.213L259.985 263.451L259.374 263.77L258.831 264.162L258.365 264.618L257.985 265.132L257.703 265.695L257.526 266.298L257.465 266.934V270.707L257.554 271.638L257.813 272.522L258.227 273.345L258.783 274.098L259.465 274.767L260.261 275.341L261.156 275.808L262.136 276.156L263.187 276.373L264.295 276.448L263.8 276.456H276.2L275.714 276.448L276.822 276.373L277.873 276.156L278.853 275.808L279.747 275.341L280.543 274.767L281.226 274.098L281.781 273.345L282.195 272.522L282.454 271.638L282.544 270.707V266.934L282.483 266.298L282.306 265.695L282.023 265.132L281.644 264.618L281.178 264.162L280.634 263.77L280.023 263.451L279.354 263.213L278.636 263.064L277.88 263.013L277.123 263.064L276.405 263.213L275.736 263.451L275.125 263.769L274.581 264.161L274.115 264.618L273.736 265.132L273.453 265.695L273.276 266.298L273.215 266.934V297.329" stroke="#B3B3B3" stroke-width="2.23307"/>
<path d="M256.715 295.576H283.286V298.554L283.17 299.762L282.835 300.908L282.298 301.976L281.577 302.952L280.692 303.819L279.66 304.563L278.499 305.169L277.229 305.62L275.866 305.903L274.429 306H265.572L264.135 305.903L262.772 305.62L261.501 305.169L260.341 304.563L259.309 303.819L258.424 302.952L257.703 301.976L257.166 300.908L256.831 299.762L256.715 298.554V295.576Z" fill="#141414" stroke="#141414" stroke-width="1.67481"/>
<path d="M256.715 295.576H283.286V298.554H256.715V295.576Z" fill="#808080" stroke="#808080" stroke-width="1.67481"/>
<path d="M263.653 246.989C270.226 246.989 275.554 251.468 275.554 256.994C275.554 262.52 270.226 266.999 263.653 266.999C257.079 266.999 251.751 262.52 251.751 256.994C251.751 251.468 257.079 246.989 263.653 246.989Z" fill="white" fill-opacity="0.3"/>
<rect x="249" y="310" width="43.027" height="20" rx="5" fill="black"/>
<path d="M269.082 327V324.46H272.102C271.476 324.073 270.942 323.607 270.502 323.06C270.076 322.5 269.749 321.873 269.522 321.18C269.309 320.473 269.202 319.707 269.202 318.88C269.202 317.667 269.476 316.58 270.022 315.62C270.582 314.66 271.369 313.9 272.382 313.34C273.409 312.78 274.616 312.5 276.002 312.5C277.402 312.5 278.609 312.78 279.622 313.34C280.636 313.9 281.416 314.667 281.962 315.64C282.522 316.6 282.802 317.687 282.802 318.9C282.802 319.727 282.689 320.487 282.462 321.18C282.249 321.873 281.922 322.5 281.482 323.06C281.042 323.607 280.502 324.073 279.862 324.46H282.922V327H277.042V324.28C277.776 323.933 278.329 323.493 278.702 322.96C279.089 322.413 279.349 321.827 279.482 321.2C279.616 320.56 279.682 319.927 279.682 319.3C279.682 318.407 279.529 317.647 279.222 317.02C278.929 316.38 278.509 315.887 277.962 315.54C277.416 315.193 276.762 315.02 276.002 315.02C275.242 315.02 274.582 315.193 274.022 315.54C273.476 315.887 273.056 316.38 272.762 317.02C272.469 317.66 272.322 318.427 272.322 319.32C272.322 319.947 272.402 320.573 272.562 321.2C272.722 321.827 272.989 322.407 273.362 322.94C273.749 323.473 274.269 323.92 274.922 324.28V327H269.082Z" fill="white"/>
<path d="M256.903 327V325.32C256.903 324.347 257.063 323.54 257.382 322.9C257.703 322.247 258.163 321.713 258.763 321.3C259.376 320.873 260.123 320.527 261.003 320.26L262.343 319.84C262.836 319.68 263.249 319.487 263.583 319.26C263.916 319.02 264.169 318.733 264.343 318.4C264.529 318.067 264.623 317.687 264.623 317.26V317.18C264.623 316.513 264.396 315.987 263.943 315.6C263.489 315.2 262.869 315 262.083 315C261.309 315 260.683 315.213 260.203 315.64C259.736 316.053 259.503 316.653 259.503 317.44V317.8H256.943V317.48C256.943 316.467 257.169 315.607 257.623 314.9C258.076 314.193 258.689 313.653 259.463 313.28C260.249 312.907 261.123 312.72 262.083 312.72C263.043 312.72 263.909 312.907 264.683 313.28C265.456 313.64 266.063 314.153 266.503 314.82C266.956 315.473 267.183 316.247 267.183 317.14V317.34C267.183 318.233 266.996 318.993 266.622 319.62C266.263 320.233 265.769 320.74 265.143 321.14C264.516 321.527 263.803 321.847 263.003 322.1L261.723 322.5C261.149 322.673 260.703 322.867 260.383 323.08C260.063 323.28 259.836 323.507 259.703 323.76C259.583 324 259.523 324.293 259.523 324.64V324.72H267.063V327H256.903Z" fill="white"/>
<path d="M247.154 115L245.507 115.135L243.944 115.524L242.488 116.148L241.157 116.985L239.974 118.013L238.959 119.211L238.133 120.559L237.518 122.035L237.133 123.618L237 125.286V145.858L237.135 148.242L237.53 150.546L238.169 152.755L239.039 154.853L240.123 156.826L241.408 158.657L242.878 160.333L244.517 161.838L246.312 163.157L248.248 164.275L249.629 165.03L250.971 165.885L252.251 166.837L253.441 167.883L254.517 169.019L255.455 170.242L256.228 171.549L256.811 172.937L257.179 174.402L257.308 175.942L257.406 177.18L257.692 178.354L258.149 179.449L258.761 180.449L259.514 181.339L260.392 182.101L261.379 182.722L262.46 183.185L263.619 183.474L264.841 183.574H275.159L276.381 183.474L277.54 183.185L278.621 182.722L279.608 182.101L280.486 181.339L281.239 180.449L281.851 179.449L282.308 178.354L282.594 177.18L282.692 175.942L282.821 174.402L283.189 172.937L283.772 171.549L284.545 170.242L285.483 169.019L286.559 167.883L287.749 166.837L289.029 165.885L290.371 165.03L291.752 164.275L293.688 163.157L295.483 161.838L297.122 160.333L298.592 158.657L299.877 156.826L300.961 154.853L301.831 152.755L302.47 150.546L302.865 148.242L303 145.858V125.286L302.867 123.618L302.482 122.035L301.867 120.559L301.041 119.211L300.026 118.013L298.843 116.985L297.512 116.148L296.056 115.524L294.493 115.135L292.846 115H247.154Z" fill="#F2F2F2" stroke="#B3B3B3" stroke-width="2.78497"/>
<path d="M266.937 176.016V143.937L266.864 143.01L266.65 142.131L266.308 141.312L265.849 140.563L265.286 139.897L264.628 139.326L263.889 138.862L263.08 138.515L262.213 138.299L261.298 138.224L256.352 138.224L255.525 138.292L254.741 138.488L254.01 138.801L253.342 139.221L252.749 139.736L252.239 140.338L251.825 141.014L251.516 141.755L251.323 142.549L251.256 143.387L251.323 144.224L251.516 145.018L251.825 145.759L252.239 146.435L252.749 147.037L253.342 147.553L254.01 147.972L254.741 148.285L255.525 148.481L256.352 148.549L261.165 148.549L261.108 148.557H278.896L278.844 148.549L283.657 148.549L284.484 148.481L285.268 148.285L285.999 147.972L286.667 147.553L287.261 147.037L287.77 146.435L288.184 145.759L288.493 145.018L288.686 144.224L288.753 143.387L288.686 142.549L288.493 141.755L288.184 141.014L287.77 140.338L287.261 139.736L286.667 139.221L285.999 138.801L285.268 138.488L284.484 138.292L283.658 138.224L278.711 138.224L277.797 138.299L276.929 138.515L276.12 138.862L275.381 139.326L274.724 139.897L274.16 140.563L273.701 141.312L273.359 142.131L273.146 143.01L273.072 143.937V176.016" stroke="#B3B3B3" stroke-width="2.22798"/>
<path d="M257.308 175.001H282.692V178.43H257.308V175.001Z" fill="#808080" stroke="#808080" stroke-width="1.67098"/>
<path d="M257.308 175H282.692V178.428L282.582 179.819L282.261 181.138L281.748 182.367L281.06 183.491L280.214 184.489L279.228 185.346L278.119 186.043L276.905 186.563L275.603 186.888L274.231 187H265.769L264.397 186.888L263.095 186.563L261.881 186.043L260.772 185.346L259.786 184.489L258.94 183.491L258.252 182.367L257.739 181.138L257.418 179.819L257.308 178.428V175Z" fill="#141414" stroke="#141414" stroke-width="1.67098"/>
<rect x="250" y="193" width="43.027" height="20" rx="5" fill="black"/>
<path d="M271.082 210V207.46H274.102C273.476 207.073 272.942 206.607 272.502 206.06C272.076 205.5 271.749 204.873 271.522 204.18C271.309 203.473 271.202 202.707 271.202 201.88C271.202 200.667 271.476 199.58 272.022 198.62C272.582 197.66 273.369 196.9 274.382 196.34C275.409 195.78 276.616 195.5 278.002 195.5C279.402 195.5 280.609 195.78 281.622 196.34C282.636 196.9 283.416 197.667 283.962 198.64C284.522 199.6 284.802 200.687 284.802 201.9C284.802 202.727 284.689 203.487 284.462 204.18C284.249 204.873 283.922 205.5 283.482 206.06C283.042 206.607 282.502 207.073 281.862 207.46H284.922V210H279.042V207.28C279.776 206.933 280.329 206.493 280.702 205.96C281.089 205.413 281.349 204.827 281.482 204.2C281.616 203.56 281.682 202.927 281.682 202.3C281.682 201.407 281.529 200.647 281.222 200.02C280.929 199.38 280.509 198.887 279.962 198.54C279.416 198.193 278.762 198.02 278.002 198.02C277.242 198.02 276.582 198.193 276.022 198.54C275.476 198.887 275.056 199.38 274.762 200.02C274.469 200.66 274.322 201.427 274.322 202.32C274.322 202.947 274.402 203.573 274.562 204.2C274.722 204.827 274.989 205.407 275.362 205.94C275.749 206.473 276.269 206.92 276.922 207.28V210H271.082Z" fill="white"/>
<path d="M258.903 210V208.32C258.903 207.347 259.063 206.54 259.382 205.9C259.703 205.247 260.163 204.713 260.763 204.3C261.376 203.873 262.123 203.527 263.003 203.26L264.343 202.84C264.836 202.68 265.249 202.487 265.583 202.26C265.916 202.02 266.169 201.733 266.343 201.4C266.529 201.067 266.623 200.687 266.623 200.26V200.18C266.623 199.513 266.396 198.987 265.943 198.6C265.489 198.2 264.869 198 264.083 198C263.309 198 262.683 198.213 262.203 198.64C261.736 199.053 261.503 199.653 261.503 200.44V200.8H258.943V200.48C258.943 199.467 259.169 198.607 259.623 197.9C260.076 197.193 260.689 196.653 261.463 196.28C262.249 195.907 263.123 195.72 264.083 195.72C265.043 195.72 265.909 195.907 266.683 196.28C267.456 196.64 268.063 197.153 268.503 197.82C268.956 198.473 269.183 199.247 269.183 200.14V200.34C269.183 201.233 268.996 201.993 268.622 202.62C268.263 203.233 267.769 203.74 267.143 204.14C266.516 204.527 265.803 204.847 265.003 205.1L263.723 205.5C263.149 205.673 262.703 205.867 262.383 206.08C262.063 206.28 261.836 206.507 261.703 206.76C261.583 207 261.523 207.293 261.523 207.64V207.72H269.063V210H258.903Z" fill="white"/>
<path d="M283.857 62.3901L283.914 61.3651L284.078 60.3643L284.344 59.391L284.703 58.4487L285.148 57.5405L285.673 56.6698L286.27 55.8399L286.932 55.0541L287.651 54.3158L288.421 53.6282L290.624 51.6176L292.653 49.4129L294.496 47.038L296.139 44.517L297.566 41.8739L298.765 39.1325L299.722 36.317L300.423 33.4513L300.853 30.5593L301 27.6652L300.607 23.0155L299.471 18.6048L297.651 14.4919L295.212 10.7359L292.213 7.39585L288.718 4.53074L284.787 2.19958L280.482 0.461395L275.866 -0.624786L271 -0.999969L266.134 -0.624786L261.518 0.461395L257.213 2.19958L253.282 4.53074L249.787 7.39585L246.788 10.7359L244.349 14.4919L242.529 18.6048L241.393 23.0155L241 27.6652L241.147 30.5593L241.577 33.4513L242.278 36.317L243.235 39.1325L244.434 41.8739L245.861 44.517L247.504 47.038L249.347 49.4129L251.376 51.6176L253.579 53.6282L254.349 54.3158L255.068 55.0541L255.73 55.8399L256.327 56.6698L256.852 57.5405L257.297 58.4487L257.656 59.391L257.922 60.3643L258.086 61.3651L258.143 62.3901L258.238 63.5775L258.514 64.704L258.955 65.7543L259.546 66.7135L260.273 67.5665L261.121 68.2982L262.074 68.8936L263.118 69.3375L264.237 69.6149L265.417 69.7107H276.583L277.763 69.6149L278.882 69.3375L279.926 68.8936L280.879 68.2982L281.727 67.5665L282.454 66.7135L283.045 65.7543L283.486 64.704L283.762 63.5775L283.857 62.3901Z" fill="#F2F2F2" stroke="#B3B3B3" stroke-width="2.78497"/>
<path d="M267.897 63.4258V31.799L267.816 30.7823L267.58 29.8177L267.202 28.9184L266.696 28.097L266.073 27.3666L265.347 26.7401L264.531 26.2304L263.637 25.8503L262.679 25.6128L261.669 25.5308L261.178 25.5309L260.247 25.6065L259.364 25.8253L258.541 26.1754L257.79 26.6449L257.121 27.222L256.548 27.8948L256.081 28.6513L255.733 29.4797L255.516 30.3681L255.441 31.3046L255.516 32.2412L255.733 33.1296L256.081 33.958L256.548 34.7145L257.121 35.3873L257.79 35.9644L258.541 36.4339L259.364 36.7841L260.247 37.0029L261.178 37.0784L262.05 37.0784L261.992 37.0866H280.011L279.958 37.0784L280.831 37.0784L281.761 37.0029L282.644 36.7841L283.467 36.4339L284.219 35.9644L284.887 35.3873L285.461 34.7145L285.927 33.958L286.275 33.1296L286.493 32.2412L286.568 31.3046L286.493 30.3681L286.275 29.4797L285.927 28.6513L285.461 27.8948L284.887 27.222L284.219 26.6449L283.467 26.1754L282.644 25.8253L281.762 25.6065L280.831 25.5309L280.34 25.5308L279.329 25.6128L278.371 25.8503L277.477 26.2304L276.661 26.7401L275.936 27.3666L275.313 28.097L274.807 28.9184L274.429 29.8177L274.193 30.7823L274.111 31.799V63.4258" stroke="#B3B3B3" stroke-width="2.22798"/>
<path d="M258.143 61.489H283.858V64.7778L283.751 66.1115L283.441 67.3767L282.946 68.5564L282.281 69.6337L281.465 70.5918L280.513 71.4136L279.442 72.0823L278.27 72.5808L277.013 72.8924L275.688 73H266.313L264.988 72.8924L263.731 72.5808L262.559 72.0823L261.488 71.4136L260.536 70.5918L259.72 69.6337L259.055 68.5564L258.56 67.3767L258.25 66.1115L258.143 64.7778V61.489Z" fill="#141414" stroke="#141414" stroke-width="1.67098"/>
<path d="M258.143 61.4934H283.858V64.7822H258.143V61.4934Z" fill="#808080" stroke="#808080" stroke-width="1.67098"/>
<rect x="251" y="79" width="43.027" height="20" rx="5" fill="black"/>
<path d="M271.082 96V93.46H274.102C273.476 93.0733 272.942 92.6067 272.502 92.06C272.076 91.5 271.749 90.8733 271.522 90.18C271.309 89.4733 271.202 88.7067 271.202 87.88C271.202 86.6667 271.476 85.58 272.022 84.62C272.582 83.66 273.369 82.9 274.382 82.34C275.409 81.78 276.616 81.5 278.002 81.5C279.402 81.5 280.609 81.78 281.622 82.34C282.636 82.9 283.416 83.6667 283.962 84.64C284.522 85.6 284.802 86.6867 284.802 87.9C284.802 88.7267 284.689 89.4867 284.462 90.18C284.249 90.8733 283.922 91.5 283.482 92.06C283.042 92.6067 282.502 93.0733 281.862 93.46H284.922V96H279.042V93.28C279.776 92.9333 280.329 92.4933 280.702 91.96C281.089 91.4133 281.349 90.8267 281.482 90.2C281.616 89.56 281.682 88.9267 281.682 88.3C281.682 87.4067 281.529 86.6467 281.222 86.02C280.929 85.38 280.509 84.8867 279.962 84.54C279.416 84.1933 278.762 84.02 278.002 84.02C277.242 84.02 276.582 84.1933 276.022 84.54C275.476 84.8867 275.056 85.38 274.762 86.02C274.469 86.66 274.322 87.4267 274.322 88.32C274.322 88.9467 274.402 89.5733 274.562 90.2C274.722 90.8267 274.989 91.4067 275.362 91.94C275.749 92.4733 276.269 92.92 276.922 93.28V96H271.082Z" fill="white"/>
<path d="M258.903 96V94.32C258.903 93.3467 259.063 92.54 259.382 91.9C259.703 91.2467 260.163 90.7133 260.763 90.3C261.376 89.8733 262.123 89.5267 263.003 89.26L264.343 88.84C264.836 88.68 265.249 88.4867 265.583 88.26C265.916 88.02 266.169 87.7333 266.343 87.4C266.529 87.0667 266.623 86.6867 266.623 86.26V86.18C266.623 85.5133 266.396 84.9867 265.943 84.6C265.489 84.2 264.869 84 264.083 84C263.309 84 262.683 84.2133 262.203 84.64C261.736 85.0533 261.503 85.6533 261.503 86.44V86.8H258.943V86.48C258.943 85.4667 259.169 84.6067 259.623 83.9C260.076 83.1933 260.689 82.6533 261.463 82.28C262.249 81.9067 263.123 81.72 264.083 81.72C265.043 81.72 265.909 81.9067 266.683 82.28C267.456 82.64 268.063 83.1533 268.503 83.82C268.956 84.4733 269.183 85.2467 269.183 86.14V86.34C269.183 87.2333 268.996 87.9933 268.622 88.62C268.263 89.2333 267.769 89.74 267.143 90.14C266.516 90.5267 265.803 90.8467 265.003 91.1L263.723 91.5C263.149 91.6733 262.703 91.8667 262.383 92.08C262.063 92.28 261.836 92.5067 261.703 92.76C261.583 93 261.523 93.2933 261.523 93.64V93.72H269.063V96H258.903Z" fill="white"/>
</svg>
