<svg width="400" height="383" viewBox="0 0 400 383" fill="none" xmlns="http://www.w3.org/2000/svg">
<path d="M263 158H323.5H384V341H20V158H142" stroke="black" stroke-width="2"/>
<path d="M383 244H262V75H322.5H383V159.5" stroke="black" stroke-width="2"/>
<path d="M21 245H142V160.5V76H21V160.5" stroke="black" stroke-width="2"/>
<path d="M229.913 357.991H167.461C164.997 357.991 163 355.865 163 353.243V324.749C163 322.126 164.997 320 167.461 320H229.913C232.377 320 234.374 322.126 234.374 324.749V353.243C234.374 355.865 232.377 357.991 229.913 357.991Z" fill="#CE6809"/>
<path d="M163 357.397H209.839V320.593H163V357.397Z" fill="#333333"/>
<path d="M209.839 334.246H234.374V324.748H209.839V334.246Z" fill="#E77A16"/>
<path d="M163 334.837H209.839V325.339H163V334.837Z" fill="#4C4C4C"/>
<path d="M240.77 348.589H236.309C235.077 348.589 234.078 347.526 234.078 346.215V331.968C234.078 330.656 235.077 329.593 236.309 329.593H240.77C242.001 329.593 243 330.656 243 331.968V346.215C243 347.526 242.001 348.589 240.77 348.589Z" fill="#333333"/>
<path d="M239.654 336.476H235.193C234.578 336.476 234.078 335.945 234.078 335.289V332.914C234.078 332.259 234.578 331.727 235.193 331.727H239.654C240.27 331.727 240.77 332.259 240.77 332.914V335.289C240.77 335.945 240.27 336.476 239.654 336.476Z" fill="#4C4C4C"/>
<path d="M229.913 358H167.461C164.997 358 163 355.874 163 353.251V324.757C163 322.135 164.997 320.008 167.461 320.008H229.913C232.377 320.008 234.374 322.135 234.374 324.757V353.251C234.374 355.874 232.377 358 229.913 358Z" stroke="#333333" stroke-width="2.78497"/>
<path d="M308 14L306.702 14.1197L305.471 14.4661L304.324 15.0206L303.275 15.7641L302.343 16.678L301.544 17.7434L300.893 18.9414L300.408 20.2533L300.105 21.6601L300 23.1432V41.4296L300.106 43.5487L300.417 45.5966L300.921 47.5598L301.606 49.4248L302.461 51.1782L303.473 52.8065L304.631 54.2962L305.923 55.634L307.337 56.8063L308.862 57.7997L309.95 58.4709L311.008 59.2311L312.016 60.0772L312.954 61.0067L313.802 62.0164L314.54 63.1037L315.149 64.2656L315.609 65.4993L315.899 66.802L316 68.1707L316.078 69.2711L316.303 70.3149L316.663 71.2883L317.145 72.1772L317.739 72.9676L318.43 73.6457L319.208 74.1974L320.06 74.6087L320.973 74.8658L321.936 74.9546H330.064L331.027 74.8658L331.94 74.6087L332.792 74.1974L333.57 73.6457L334.261 72.9676L334.855 72.1772L335.337 71.2883L335.697 70.3149L335.922 69.2711L336 68.1707L336.101 66.802L336.391 65.4993L336.851 64.2656L337.46 63.1037L338.198 62.0164L339.046 61.0067L339.984 60.0772L340.992 59.2311L342.05 58.4709L343.138 57.7997L344.663 56.8063L346.077 55.634L347.369 54.2962L348.527 52.8065L349.539 51.1782L350.394 49.4248L351.079 47.5598L351.583 45.5966L351.894 43.5487L352 41.4296V23.1432L351.895 21.6601L351.592 20.2533L351.107 18.9414L350.456 17.7434L349.657 16.678L348.725 15.7641L347.676 15.0206L346.529 14.4661L345.298 14.1197L344 14H308Z" fill="#F2F2F2" stroke="#B3B3B3" stroke-width="2.78497"/>
<path d="M323.587 68.2366V39.7219L323.529 38.8982L323.361 38.1168L323.091 37.3882L322.73 36.7228L322.286 36.1311L321.768 35.6236L321.186 35.2106L320.548 34.9027L319.864 34.7103L319.144 34.6439L315.247 34.644L314.596 34.7041L313.978 34.878L313.402 35.1562L312.876 35.5294L312.408 35.988L312.007 36.5227L311.68 37.1239L311.437 37.7822L311.285 38.4882L311.232 39.2325L311.285 39.9768L311.437 40.6828L311.68 41.3411L312.007 41.9424L312.408 42.477L312.876 42.9356L313.402 43.3088L313.978 43.587L314.596 43.7609L315.247 43.821L319.039 43.821L318.994 43.8285H333.009L332.968 43.821L336.76 43.821L337.412 43.7609L338.029 43.587L338.605 43.3088L339.131 42.9356L339.599 42.477L340.001 41.9424L340.327 41.3411L340.57 40.6828L340.723 39.9768L340.775 39.2325L340.723 38.4882L340.57 37.7822L340.327 37.1239L340.001 36.5227L339.599 35.988L339.131 35.5294L338.605 35.1562L338.029 34.878L337.412 34.7041L336.76 34.644L332.864 34.6439L332.143 34.7103L331.459 34.9027L330.822 35.2106L330.239 35.6236L329.722 36.1311L329.278 36.7228L328.916 37.3882L328.647 38.1168L328.478 38.8982L328.42 39.7219V68.2366" stroke="#B3B3B3" stroke-width="2.22798"/>
<path d="M316 67.3341H336V70.3818H316V67.3341Z" fill="#808080" stroke="#808080" stroke-width="1.67098"/>
<path d="M316 67.333H336V70.3807L335.913 71.6166L335.66 72.789L335.256 73.8822L334.714 74.8806L334.047 75.7684L333.271 76.5299L332.397 77.1495L331.441 77.6116L330.415 77.9003L329.333 78H322.667L321.585 77.9003L320.56 77.6116L319.603 77.1495L318.729 76.5299L317.953 75.7684L317.286 74.8806L316.744 73.8822L316.34 72.789L316.087 71.6166L316 70.3807V67.333Z" fill="#141414" stroke="#141414" stroke-width="1.67098"/>
<path d="M191 57L189.702 57.1197L188.471 57.4661L187.324 58.0206L186.275 58.7641L185.343 59.678L184.544 60.7434L183.893 61.9414L183.408 63.2533L183.105 64.6601L183 66.1432V84.4296L183.106 86.5487L183.417 88.5966L183.921 90.5598L184.606 92.4248L185.461 94.1782L186.473 95.8065L187.631 97.2962L188.923 98.634L190.337 99.8063L191.862 100.8L192.95 101.471L194.008 102.231L195.016 103.077L195.954 104.007L196.802 105.016L197.54 106.104L198.149 107.266L198.609 108.499L198.899 109.802L199 111.171L199.078 112.271L199.303 113.315L199.663 114.288L200.145 115.177L200.739 115.968L201.43 116.646L202.208 117.197L203.06 117.609L203.973 117.866L204.936 117.955H213.064L214.027 117.866L214.94 117.609L215.792 117.197L216.57 116.646L217.261 115.968L217.855 115.177L218.337 114.288L218.697 113.315L218.922 112.271L219 111.171L219.101 109.802L219.391 108.499L219.851 107.266L220.46 106.104L221.198 105.016L222.046 104.007L222.984 103.077L223.992 102.231L225.05 101.471L226.138 100.8L227.663 99.8063L229.077 98.634L230.369 97.2962L231.527 95.8065L232.539 94.1782L233.394 92.4248L234.079 90.5598L234.583 88.5966L234.894 86.5487L235 84.4296V66.1432L234.895 64.6601L234.592 63.2533L234.107 61.9414L233.456 60.7434L232.657 59.678L231.725 58.7641L230.676 58.0206L229.529 57.4661L228.298 57.1197L227 57H191Z" fill="#F2F2F2" stroke="#B3B3B3" stroke-width="2.78497"/>
<path d="M206.587 111.237V82.7219L206.529 81.8982L206.361 81.1168L206.091 80.3882L205.73 79.7228L205.286 79.1311L204.768 78.6236L204.186 78.2106L203.548 77.9027L202.864 77.7103L202.144 77.6439L198.247 77.644L197.596 77.7041L196.978 77.878L196.402 78.1562L195.876 78.5294L195.408 78.988L195.007 79.5227L194.68 80.1239L194.437 80.7822L194.285 81.4882L194.232 82.2325L194.285 82.9768L194.437 83.6828L194.68 84.3411L195.007 84.9424L195.408 85.477L195.876 85.9356L196.402 86.3088L196.978 86.587L197.596 86.7609L198.247 86.821L202.039 86.821L201.994 86.8285H216.009L215.968 86.821L219.76 86.821L220.412 86.7609L221.029 86.587L221.605 86.3088L222.131 85.9356L222.599 85.477L223.001 84.9424L223.327 84.3411L223.57 83.6828L223.723 82.9768L223.775 82.2325L223.723 81.4882L223.57 80.7822L223.327 80.1239L223.001 79.5227L222.599 78.988L222.131 78.5294L221.605 78.1562L221.029 77.878L220.412 77.7041L219.76 77.644L215.864 77.6439L215.143 77.7103L214.459 77.9027L213.822 78.2106L213.239 78.6236L212.722 79.1311L212.278 79.7228L211.916 80.3882L211.647 81.1168L211.478 81.8982L211.42 82.7219V111.237" stroke="#B3B3B3" stroke-width="2.22798"/>
<path d="M199 110.334H219V113.382H199V110.334Z" fill="#808080" stroke="#808080" stroke-width="1.67098"/>
<path d="M199 110.333H219V113.381L218.913 114.617L218.66 115.789L218.256 116.882L217.714 117.881L217.047 118.768L216.271 119.53L215.397 120.15L214.441 120.612L213.415 120.9L212.333 121H205.667L204.585 120.9L203.56 120.612L202.603 120.15L201.729 119.53L200.953 118.768L200.286 117.881L199.744 116.882L199.34 115.789L199.087 114.617L199 113.381V110.333Z" fill="#141414" stroke="#141414" stroke-width="1.67098"/>
<path d="M309 97L307.702 97.1197L306.471 97.4661L305.324 98.0206L304.275 98.7641L303.343 99.678L302.544 100.743L301.893 101.941L301.408 103.253L301.105 104.66L301 106.143V124.43L301.106 126.549L301.417 128.597L301.921 130.56L302.606 132.425L303.461 134.178L304.473 135.806L305.631 137.296L306.923 138.634L308.337 139.806L309.862 140.8L310.95 141.471L312.008 142.231L313.016 143.077L313.954 144.007L314.802 145.016L315.54 146.104L316.149 147.266L316.609 148.499L316.899 149.802L317 151.171L317.078 152.271L317.303 153.315L317.663 154.288L318.145 155.177L318.739 155.968L319.43 156.646L320.208 157.197L321.06 157.609L321.973 157.866L322.936 157.955H331.064L332.027 157.866L332.94 157.609L333.792 157.197L334.57 156.646L335.261 155.968L335.855 155.177L336.337 154.288L336.697 153.315L336.922 152.271L337 151.171L337.101 149.802L337.391 148.499L337.851 147.266L338.46 146.104L339.198 145.016L340.046 144.007L340.984 143.077L341.992 142.231L343.05 141.471L344.138 140.8L345.663 139.806L347.077 138.634L348.369 137.296L349.527 135.806L350.539 134.178L351.394 132.425L352.079 130.56L352.583 128.597L352.894 126.549L353 124.43V106.143L352.895 104.66L352.592 103.253L352.107 101.941L351.456 100.743L350.657 99.678L349.725 98.7641L348.676 98.0206L347.529 97.4661L346.298 97.1197L345 97H309Z" fill="#F2F2F2" stroke="#B3B3B3" stroke-width="2.78497"/>
<path d="M324.587 151.237V122.722L324.529 121.898L324.361 121.117L324.091 120.388L323.73 119.723L323.286 119.131L322.768 118.624L322.186 118.211L321.548 117.903L320.864 117.71L320.144 117.644L316.247 117.644L315.596 117.704L314.978 117.878L314.402 118.156L313.876 118.529L313.408 118.988L313.007 119.523L312.68 120.124L312.437 120.782L312.285 121.488L312.232 122.232L312.285 122.977L312.437 123.683L312.68 124.341L313.007 124.942L313.408 125.477L313.876 125.936L314.402 126.309L314.978 126.587L315.596 126.761L316.247 126.821L320.039 126.821L319.994 126.829H334.009L333.968 126.821L337.76 126.821L338.412 126.761L339.029 126.587L339.605 126.309L340.131 125.936L340.599 125.477L341.001 124.942L341.327 124.341L341.57 123.683L341.723 122.977L341.775 122.232L341.723 121.488L341.57 120.782L341.327 120.124L341.001 119.523L340.599 118.988L340.131 118.529L339.605 118.156L339.029 117.878L338.412 117.704L337.76 117.644L333.864 117.644L333.143 117.71L332.459 117.903L331.822 118.211L331.239 118.624L330.722 119.131L330.278 119.723L329.916 120.388L329.647 121.117L329.478 121.898L329.42 122.722V151.237" stroke="#B3B3B3" stroke-width="2.22798"/>
<path d="M317 150.334H337V153.382H317V150.334Z" fill="#808080" stroke="#808080" stroke-width="1.67098"/>
<path d="M317 150.333H337V153.381L336.913 154.617L336.66 155.789L336.256 156.882L335.714 157.881L335.047 158.768L334.271 159.53L333.397 160.15L332.441 160.612L331.415 160.9L330.333 161H323.667L322.585 160.9L321.56 160.612L320.603 160.15L319.729 159.53L318.953 158.768L318.286 157.881L317.744 156.882L317.34 155.789L317.087 154.617L317 153.381V150.333Z" fill="#141414" stroke="#141414" stroke-width="1.67098"/>
<path d="M309 182L307.702 182.12L306.471 182.466L305.324 183.021L304.275 183.764L303.343 184.678L302.544 185.743L301.893 186.941L301.408 188.253L301.105 189.66L301 191.143V209.43L301.106 211.549L301.417 213.597L301.921 215.56L302.606 217.425L303.461 219.178L304.473 220.806L305.631 222.296L306.923 223.634L308.337 224.806L309.862 225.8L310.95 226.471L312.008 227.231L313.016 228.077L313.954 229.007L314.802 230.016L315.54 231.104L316.149 232.266L316.609 233.499L316.899 234.802L317 236.171L317.078 237.271L317.303 238.315L317.663 239.288L318.145 240.177L318.739 240.968L319.43 241.646L320.208 242.197L321.06 242.609L321.973 242.866L322.936 242.955H331.064L332.027 242.866L332.94 242.609L333.792 242.197L334.57 241.646L335.261 240.968L335.855 240.177L336.337 239.288L336.697 238.315L336.922 237.271L337 236.171L337.101 234.802L337.391 233.499L337.851 232.266L338.46 231.104L339.198 230.016L340.046 229.007L340.984 228.077L341.992 227.231L343.05 226.471L344.138 225.8L345.663 224.806L347.077 223.634L348.369 222.296L349.527 220.806L350.539 219.178L351.394 217.425L352.079 215.56L352.583 213.597L352.894 211.549L353 209.43V191.143L352.895 189.66L352.592 188.253L352.107 186.941L351.456 185.743L350.657 184.678L349.725 183.764L348.676 183.021L347.529 182.466L346.298 182.12L345 182H309Z" fill="#F2F2F2" stroke="#B3B3B3" stroke-width="2.78497"/>
<path d="M324.587 236.237V207.722L324.529 206.898L324.361 206.117L324.091 205.388L323.73 204.723L323.286 204.131L322.768 203.624L322.186 203.211L321.548 202.903L320.864 202.71L320.144 202.644L316.247 202.644L315.596 202.704L314.978 202.878L314.402 203.156L313.876 203.529L313.408 203.988L313.007 204.523L312.68 205.124L312.437 205.782L312.285 206.488L312.232 207.232L312.285 207.977L312.437 208.683L312.68 209.341L313.007 209.942L313.408 210.477L313.876 210.936L314.402 211.309L314.978 211.587L315.596 211.761L316.247 211.821L320.039 211.821L319.994 211.829H334.009L333.968 211.821L337.76 211.821L338.412 211.761L339.029 211.587L339.605 211.309L340.131 210.936L340.599 210.477L341.001 209.942L341.327 209.341L341.57 208.683L341.723 207.977L341.775 207.232L341.723 206.488L341.57 205.782L341.327 205.124L341.001 204.523L340.599 203.988L340.131 203.529L339.605 203.156L339.029 202.878L338.412 202.704L337.76 202.644L333.864 202.644L333.143 202.71L332.459 202.903L331.822 203.211L331.239 203.624L330.722 204.131L330.278 204.723L329.916 205.388L329.647 206.117L329.478 206.898L329.42 207.722V236.237" stroke="#B3B3B3" stroke-width="2.22798"/>
<path d="M317 235.334H337V238.382H317V235.334Z" fill="#808080" stroke="#808080" stroke-width="1.67098"/>
<path d="M317 235.333H337V238.381L336.913 239.617L336.66 240.789L336.256 241.882L335.714 242.881L335.047 243.768L334.271 244.53L333.397 245.15L332.441 245.612L331.415 245.9L330.333 246H323.667L322.585 245.9L321.56 245.612L320.603 245.15L319.729 244.53L318.953 243.768L318.286 242.881L317.744 241.882L317.34 240.789L317.087 239.617L317 238.381V235.333Z" fill="#141414" stroke="#141414" stroke-width="1.67098"/>
<path d="M92.4286 69.5475L92.4766 68.6493L92.6165 67.7723L92.8421 66.9195L93.1474 66.0937L93.5262 65.2979L93.9723 64.5349L94.4797 63.8077L95.0422 63.1191L95.6537 62.4721L96.308 61.8696L98.1802 60.1078L99.9055 58.1758L101.472 56.0948L102.868 53.8857L104.081 51.5696L105.101 49.1674L105.914 46.7002L106.509 44.189L106.875 41.6549L107 39.1188L106.666 35.0444L105.7 31.1793L104.154 27.5753L102.08 24.284L99.5312 21.3572L96.56 18.8466L93.2187 16.8038L89.56 15.2807L85.6362 14.3289L81.5 14.0001L77.3638 14.3289L73.44 15.2807L69.7813 16.8038L66.44 18.8466L63.4688 21.3572L60.92 24.284L58.8463 27.5753L57.3 31.1793L56.3338 35.0444L56 39.1188L56.1246 41.6549L56.4906 44.189L57.0861 46.7002L57.8995 49.1674L58.9188 51.5696L60.1322 53.8857L61.5281 56.0948L63.0945 58.1758L64.8198 60.1078L66.692 61.8696L67.3463 62.4721L67.9578 63.1191L68.5203 63.8077L69.0277 64.5349L69.4738 65.2979L69.8526 66.0937L70.1579 66.9195L70.3836 67.7723L70.5234 68.6493L70.5714 69.5475L70.6524 70.588L70.8866 71.5751L71.2615 72.4955L71.7643 73.3361L72.3823 74.0835L73.1027 74.7247L73.9129 75.2464L74.8 75.6354L75.7513 75.8784L76.7542 75.9624H86.2458L87.2487 75.8784L88.2 75.6354L89.0871 75.2464L89.8973 74.7247L90.6177 74.0835L91.2357 73.3361L91.7385 72.4955L92.1134 71.5751L92.3477 70.588L92.4286 69.5475Z" fill="#F2F2F2" stroke="#B3B3B3" stroke-width="2.78497"/>
<path d="M78.8627 70.4548V42.741L78.7934 41.85L78.5928 41.0048L78.2717 40.2167L77.8412 39.497L77.312 38.857L76.6951 38.3079L76.0014 37.8613L75.2418 37.5282L74.4272 37.3201L73.5685 37.2483L73.1509 37.2483L72.36 37.3145L71.6097 37.5063L70.91 37.8131L70.2711 38.2245L69.703 38.7302L69.2156 39.3198L68.819 39.9827L68.5234 40.7086L68.3386 41.4871L68.2748 42.3077L68.3386 43.1284L68.5234 43.9069L68.8191 44.6328L69.2156 45.2958L69.703 45.8853L70.2712 46.391L70.9101 46.8024L71.6098 47.1092L72.3601 47.301L73.1511 47.3672L73.8927 47.3672L73.8429 47.3743H89.1595L89.1145 47.3672L89.8562 47.3672L90.6472 47.301L91.3975 47.1092L92.0971 46.8024L92.7361 46.391L93.3043 45.8853L93.7917 45.2958L94.1882 44.6328L94.4839 43.9069L94.6687 43.1284L94.7325 42.3077L94.6687 41.4871L94.4839 40.7086L94.1882 39.9827L93.7917 39.3198L93.3043 38.7302L92.7361 38.2245L92.0972 37.8131L91.3976 37.5063L90.6473 37.3145L89.8563 37.2483L89.4388 37.2483L88.5801 37.3201L87.7654 37.5282L87.0058 37.8613L86.3121 38.3079L85.6953 38.857L85.1661 39.497L84.7356 40.2167L84.4145 41.0048L84.2139 41.85L84.1446 42.741V70.4548" stroke="#B3B3B3" stroke-width="2.22798"/>
<path d="M70.5718 68.7578H92.4289V71.6398L92.338 72.8085L92.0749 73.9171L91.6538 74.9509L91.0891 75.8949L90.395 76.7345L89.5859 77.4546L88.676 78.0405L87.6796 78.4774L86.6111 78.7504L85.4847 78.8447H77.516L76.3896 78.7504L75.3211 78.4774L74.3247 78.0405L73.4148 77.4546L72.6057 76.7345L71.9116 75.8949L71.3469 74.9509L70.9258 73.9171L70.6627 72.8085L70.5718 71.6398V68.7578Z" fill="#141414" stroke="#141414" stroke-width="1.67098"/>
<path d="M70.5718 68.7616H92.4289V71.6436H70.5718V68.7616Z" fill="#808080" stroke="#808080" stroke-width="1.67098"/>
<path d="M91.4286 152.547L91.4766 151.649L91.6165 150.772L91.8421 149.92L92.1474 149.094L92.5262 148.298L92.9723 147.535L93.4797 146.808L94.0422 146.119L94.6537 145.472L95.308 144.87L97.1802 143.108L98.9055 141.176L100.472 139.095L101.868 136.886L103.081 134.57L104.101 132.167L104.914 129.7L105.509 127.189L105.875 124.655L106 122.119L105.666 118.044L104.7 114.179L103.154 110.575L101.08 107.284L98.5312 104.357L95.56 101.847L92.2187 99.8038L88.56 98.2807L84.6362 97.3289L80.5 97.0001L76.3638 97.3289L72.44 98.2807L68.7813 99.8038L65.44 101.847L62.4688 104.357L59.92 107.284L57.8463 110.575L56.3 114.179L55.3338 118.044L55 122.119L55.1246 124.655L55.4906 127.189L56.0861 129.7L56.8995 132.167L57.9188 134.57L59.1322 136.886L60.5281 139.095L62.0945 141.176L63.8198 143.108L65.692 144.87L66.3463 145.472L66.9578 146.119L67.5203 146.808L68.0277 147.535L68.4738 148.298L68.8526 149.094L69.1579 149.92L69.3836 150.772L69.5234 151.649L69.5714 152.547L69.6524 153.588L69.8866 154.575L70.2615 155.496L70.7643 156.336L71.3823 157.084L72.1027 157.725L72.9129 158.246L73.8 158.635L74.7513 158.878L75.7542 158.962H85.2458L86.2487 158.878L87.2 158.635L88.0871 158.246L88.8973 157.725L89.6177 157.084L90.2357 156.336L90.7385 155.496L91.1134 154.575L91.3477 153.588L91.4286 152.547Z" fill="#F2F2F2" stroke="#B3B3B3" stroke-width="2.78497"/>
<path d="M77.8627 153.455V125.741L77.7934 124.85L77.5928 124.005L77.2717 123.217L76.8412 122.497L76.312 121.857L75.6951 121.308L75.0014 120.861L74.2418 120.528L73.4272 120.32L72.5685 120.248L72.1509 120.248L71.36 120.315L70.6097 120.506L69.91 120.813L69.2711 121.225L68.703 121.73L68.2156 122.32L67.819 122.983L67.5234 123.709L67.3386 124.487L67.2748 125.308L67.3386 126.128L67.5234 126.907L67.8191 127.633L68.2156 128.296L68.703 128.885L69.2712 129.391L69.9101 129.802L70.6098 130.109L71.3601 130.301L72.1511 130.367L72.8927 130.367L72.8429 130.374H88.1595L88.1145 130.367L88.8562 130.367L89.6472 130.301L90.3975 130.109L91.0971 129.802L91.7361 129.391L92.3043 128.885L92.7917 128.296L93.1882 127.633L93.4839 126.907L93.6687 126.128L93.7325 125.308L93.6687 124.487L93.4839 123.709L93.1882 122.983L92.7917 122.32L92.3043 121.73L91.7361 121.225L91.0972 120.813L90.3976 120.506L89.6473 120.315L88.8563 120.248L88.4388 120.248L87.5801 120.32L86.7654 120.528L86.0058 120.861L85.3121 121.308L84.6953 121.857L84.1661 122.497L83.7356 123.217L83.4145 124.005L83.2139 124.85L83.1446 125.741V153.455" stroke="#B3B3B3" stroke-width="2.22798"/>
<path d="M69.5718 151.758H91.4289V154.64L91.338 155.808L91.0749 156.917L90.6538 157.951L90.0891 158.895L89.395 159.734L88.5859 160.455L87.676 161.041L86.6796 161.477L85.6111 161.75L84.4847 161.845H76.516L75.3896 161.75L74.3211 161.477L73.3247 161.041L72.4148 160.455L71.6057 159.734L70.9116 158.895L70.3469 157.951L69.9258 156.917L69.6627 155.808L69.5718 154.64V151.758Z" fill="#141414" stroke="#141414" stroke-width="1.67098"/>
<path d="M69.5718 151.762H91.4289V154.644H69.5718V151.762Z" fill="#808080" stroke="#808080" stroke-width="1.67098"/>
<path d="M90.4286 237.547L90.4766 236.649L90.6165 235.772L90.8421 234.92L91.1474 234.094L91.5262 233.298L91.9723 232.535L92.4797 231.808L93.0422 231.119L93.6537 230.472L94.308 229.87L96.1802 228.108L97.9055 226.176L99.4719 224.095L100.868 221.886L102.081 219.57L103.101 217.167L103.914 214.7L104.509 212.189L104.875 209.655L105 207.119L104.666 203.044L103.7 199.179L102.154 195.575L100.08 192.284L97.5312 189.357L94.56 186.847L91.2187 184.804L87.56 183.281L83.6362 182.329L79.5 182L75.3638 182.329L71.44 183.281L67.7813 184.804L64.44 186.847L61.4688 189.357L58.92 192.284L56.8463 195.575L55.3 199.179L54.3338 203.044L54 207.119L54.1246 209.655L54.4906 212.189L55.0861 214.7L55.8995 217.167L56.9188 219.57L58.1322 221.886L59.5281 224.095L61.0945 226.176L62.8198 228.108L64.692 229.87L65.3463 230.472L65.9578 231.119L66.5203 231.808L67.0277 232.535L67.4738 233.298L67.8526 234.094L68.1579 234.92L68.3836 235.772L68.5234 236.649L68.5714 237.547L68.6524 238.588L68.8866 239.575L69.2615 240.496L69.7643 241.336L70.3823 242.084L71.1027 242.725L71.9129 243.246L72.8 243.635L73.7513 243.878L74.7542 243.962H84.2458L85.2487 243.878L86.2 243.635L87.0871 243.246L87.8973 242.725L88.6177 242.084L89.2357 241.336L89.7385 240.496L90.1134 239.575L90.3477 238.588L90.4286 237.547Z" fill="#F2F2F2" stroke="#B3B3B3" stroke-width="2.78497"/>
<path d="M76.8627 238.455V210.741L76.7934 209.85L76.5928 209.005L76.2717 208.217L75.8412 207.497L75.312 206.857L74.6951 206.308L74.0014 205.861L73.2418 205.528L72.4272 205.32L71.5685 205.248L71.1509 205.248L70.36 205.315L69.6097 205.506L68.91 205.813L68.2711 206.225L67.703 206.73L67.2156 207.32L66.819 207.983L66.5234 208.709L66.3386 209.487L66.2748 210.308L66.3386 211.128L66.5234 211.907L66.8191 212.633L67.2156 213.296L67.703 213.885L68.2712 214.391L68.9101 214.802L69.6098 215.109L70.3601 215.301L71.1511 215.367L71.8927 215.367L71.8429 215.374H87.1595L87.1145 215.367L87.8562 215.367L88.6472 215.301L89.3975 215.109L90.0971 214.802L90.7361 214.391L91.3043 213.885L91.7917 213.296L92.1882 212.633L92.4839 211.907L92.6687 211.128L92.7325 210.308L92.6687 209.487L92.4839 208.709L92.1882 207.983L91.7917 207.32L91.3043 206.73L90.7361 206.225L90.0972 205.813L89.3976 205.506L88.6473 205.315L87.8563 205.248L87.4388 205.248L86.5801 205.32L85.7654 205.528L85.0058 205.861L84.3121 206.308L83.6953 206.857L83.1661 207.497L82.7356 208.217L82.4145 209.005L82.2139 209.85L82.1446 210.741V238.455" stroke="#B3B3B3" stroke-width="2.22798"/>
<path d="M68.5718 236.758H90.4289V239.64L90.338 240.808L90.0749 241.917L89.6538 242.951L89.0891 243.895L88.395 244.734L87.5859 245.455L86.676 246.041L85.6796 246.477L84.6111 246.75L83.4847 246.845H75.516L74.3896 246.75L73.3211 246.477L72.3247 246.041L71.4148 245.455L70.6057 244.734L69.9116 243.895L69.3469 242.951L68.9258 241.917L68.6627 240.808L68.5718 239.64V236.758Z" fill="#141414" stroke="#141414" stroke-width="1.67098"/>
<path d="M68.5718 236.762H90.4289V239.644H68.5718V236.762Z" fill="#808080" stroke="#808080" stroke-width="1.67098"/>
<path d="M263 118H142V209H263" stroke="black" stroke-width="2"/>
<path d="M192 148L190.702 148.12L189.471 148.466L188.324 149.021L187.275 149.764L186.343 150.678L185.544 151.743L184.893 152.941L184.408 154.253L184.105 155.66L184 157.143V175.43L184.106 177.549L184.417 179.597L184.921 181.56L185.606 183.425L186.461 185.178L187.473 186.806L188.631 188.296L189.923 189.634L191.337 190.806L192.862 191.8L193.95 192.471L195.008 193.231L196.016 194.077L196.954 195.007L197.802 196.016L198.54 197.104L199.149 198.266L199.609 199.499L199.899 200.802L200 202.171L200.078 203.271L200.303 204.315L200.663 205.288L201.145 206.177L201.739 206.968L202.43 207.646L203.208 208.197L204.06 208.609L204.973 208.866L205.936 208.955H214.064L215.027 208.866L215.94 208.609L216.792 208.197L217.57 207.646L218.261 206.968L218.855 206.177L219.337 205.288L219.697 204.315L219.922 203.271L220 202.171L220.101 200.802L220.391 199.499L220.851 198.266L221.46 197.104L222.198 196.016L223.046 195.007L223.984 194.077L224.992 193.231L226.05 192.471L227.138 191.8L228.663 190.806L230.077 189.634L231.369 188.296L232.527 186.806L233.539 185.178L234.394 183.425L235.079 181.56L235.583 179.597L235.894 177.549L236 175.43V157.143L235.895 155.66L235.592 154.253L235.107 152.941L234.456 151.743L233.657 150.678L232.725 149.764L231.676 149.021L230.529 148.466L229.298 148.12L228 148H192Z" fill="#F2F2F2" stroke="#B3B3B3" stroke-width="2.78497"/>
<path d="M207.587 202.237V173.722L207.529 172.898L207.361 172.117L207.091 171.388L206.73 170.723L206.286 170.131L205.768 169.624L205.186 169.211L204.548 168.903L203.864 168.71L203.144 168.644L199.247 168.644L198.596 168.704L197.978 168.878L197.402 169.156L196.876 169.529L196.408 169.988L196.007 170.523L195.68 171.124L195.437 171.782L195.285 172.488L195.232 173.232L195.285 173.977L195.437 174.683L195.68 175.341L196.007 175.942L196.408 176.477L196.876 176.936L197.402 177.309L197.978 177.587L198.596 177.761L199.247 177.821L203.039 177.821L202.994 177.829H217.009L216.968 177.821L220.76 177.821L221.412 177.761L222.029 177.587L222.605 177.309L223.131 176.936L223.599 176.477L224.001 175.942L224.327 175.341L224.57 174.683L224.723 173.977L224.775 173.232L224.723 172.488L224.57 171.782L224.327 171.124L224.001 170.523L223.599 169.988L223.131 169.529L222.605 169.156L222.029 168.878L221.412 168.704L220.76 168.644L216.864 168.644L216.143 168.71L215.459 168.903L214.822 169.211L214.239 169.624L213.722 170.131L213.278 170.723L212.916 171.388L212.647 172.117L212.478 172.898L212.42 173.722V202.237" stroke="#B3B3B3" stroke-width="2.22798"/>
<path d="M200 201.334H220V204.382H200V201.334Z" fill="#808080" stroke="#808080" stroke-width="1.67098"/>
<path d="M200 201.333H220V204.381L219.913 205.617L219.66 206.789L219.256 207.882L218.714 208.881L218.047 209.768L217.271 210.53L216.397 211.15L215.441 211.612L214.415 211.9L213.333 212H206.667L205.585 211.9L204.56 211.612L203.603 211.15L202.729 210.53L201.953 209.768L201.286 208.881L200.744 207.882L200.34 206.789L200.087 205.617L200 204.381V201.333Z" fill="#141414" stroke="#141414" stroke-width="1.67098"/>
<path d="M265 341V281C265 279.895 264.105 279 263 279H142C140.895 279 140 279.895 140 281V341" stroke="black" stroke-width="2"/>
</svg>
