<svg width="135" height="168" viewBox="0 0 135 168" fill="none" xmlns="http://www.w3.org/2000/svg">
<path d="M73.4739 13.5487C74.4129 12.6902 75.5711 12.0038 76.8697 11.5363C78.1683 11.0687 79.5769 10.831 81.0001 10.8391C83.1279 10.8355 85.2023 11.3739 86.9247 12.377C88.6471 13.3801 89.9287 14.796 90.5851 16.421C91.3052 18.0699 91.3052 19.8663 90.5851 21.5152C89.9287 23.1402 88.6471 24.5561 86.9247 25.5592C85.2023 26.5623 83.1279 27.1007 81.0001 27.0971C79.9187 27.1076 78.8438 26.9607 77.8276 26.6636C76.1415 26.2437 74.6341 25.4557 73.4739 24.3875C71.8009 22.902 70.8746 20.9707 70.8746 18.9681C70.8746 16.9655 71.8009 15.0342 73.4739 13.5487Z" fill="#FA7928"/>
<path d="M47.25 140.903H33.75V149.032H47.25V140.903Z" fill="#FCAC55"/>
<path d="M54 157.16C53.9974 158.047 54.1335 158.93 54.405 159.789L54 159.87H33.75V149.031H54V157.16Z" fill="#AEB8C1"/>
<path d="M97.8748 13.5478L135 21.6768V29.8058L104.625 21.6768H91.1248L90.5848 21.5142C91.3049 19.8654 91.3049 18.0689 90.5848 16.42L91.1248 16.2574L97.0648 12.6807L97.8748 13.5478Z" fill="#0948A1"/>
<path d="M81 27.0976C83.1278 27.1012 85.2022 26.5627 86.9246 25.5596C88.647 24.5566 89.9286 23.1406 90.585 21.5156L91.125 21.6782H104.625V32.5169H77.625V27.0976L77.8275 26.664C78.8437 26.9612 79.9186 27.1081 81 27.0976Z" fill="#AEB8C1"/>
<path d="M104.625 8.12903L97.065 12.6813L91.125 16.2581L90.585 16.4206C89.9286 14.7956 88.647 13.3797 86.9246 12.3766C85.2022 11.3736 83.1278 10.8351 81 10.8387V5.41935C81 5.41935 87.75 0 128.25 0H129.938C131.28 0 132.568 0.428225 133.517 1.19047C134.467 1.95271 135 2.98654 135 4.06452C135 5.14249 134.467 6.17632 133.517 6.93856C132.568 7.70081 131.28 8.12903 129.938 8.12903H104.625ZM37.125 13.5484H73.4738C71.8008 15.0338 70.8745 16.9651 70.8745 18.9677C70.8745 20.9704 71.8008 22.9017 73.4738 24.3871H50.625C23.625 24.3871 13.5 27.0968 13.5 48.7742C13.5 66.2245 30.7463 94.7303 40.6013 109.579C44.9771 116.216 47.26 123.612 47.25 131.121V140.903H33.75V132.828C33.7532 125.873 31.7915 119.008 28.0125 112.75C18.3938 96.8168 0 64.0568 0 46.0645C0 27.0968 13.5 13.5484 37.125 13.5484Z" fill="#0867D3"/>
<path d="M108 89.4195C110.307 91.1342 112.109 93.2396 113.277 95.583C114.444 97.9263 114.948 100.449 114.75 102.968C114.75 108.387 108 113.807 91.1252 113.807C74.2502 113.807 67.5002 108.387 67.5002 102.968C67.3028 100.449 67.8061 97.9263 68.9736 95.583C70.1411 93.2396 71.9435 91.1342 74.2502 89.4195C75.1333 90.9952 76.5515 92.3394 78.3422 93.2979C80.133 94.2564 82.2238 94.7904 84.3752 94.8388C82.9239 93.1588 81.0002 91.804 81.0002 89.4195C81.0002 83.1059 91.1252 75.8711 91.1252 75.8711C91.1252 75.8711 101.25 83.1059 101.25 89.4195C101.25 91.804 99.3264 93.1588 97.8752 94.8388C100.027 94.7904 102.117 94.2564 103.908 93.2979C105.699 92.3394 107.117 90.9952 108 89.4195Z" fill="#FCAC55"/>
<path d="M128.25 146.322V157.161C128.25 160.036 126.828 162.792 124.296 164.825C121.764 166.858 118.331 168 114.75 168H67.5002C64.4897 167.999 61.5658 167.191 59.1931 165.703C56.8205 164.216 55.1352 162.134 54.4052 159.789C54.1336 158.93 53.9976 158.047 54.0002 157.161V146.322H128.25Z" fill="#0867D3"/>
<path d="M81.0001 89.4198C81.0001 91.8043 82.9239 93.1592 84.3751 94.8392C82.2238 94.7908 80.1329 94.2567 78.3422 93.2982C76.5514 92.3397 75.1332 90.9956 74.2501 89.4198C71.9435 91.1346 70.141 93.24 68.9735 95.5833C67.806 97.9267 67.3027 100.449 67.5001 102.968C67.5001 108.388 74.2501 113.807 91.1251 113.807C108 113.807 114.75 108.388 114.75 102.968C114.948 100.449 114.444 97.9267 113.277 95.5833C112.109 93.24 110.307 91.1346 108 89.4198C107.117 90.9956 105.699 92.3397 103.908 93.2982C102.117 94.2567 100.026 94.7908 97.8751 94.8392C99.3264 93.1592 101.25 91.8043 101.25 89.4198C101.25 83.1063 91.1251 75.8714 91.1251 75.8714C91.1251 75.8714 81.0001 83.1063 81.0001 89.4198ZM128.25 48.7747V146.323H54.0001V48.7747C54.0001 44.4628 56.1336 40.3275 59.9312 37.2785C63.7288 34.2295 68.8795 32.5166 74.2501 32.5166H108C113.371 32.5166 118.521 34.2295 122.319 37.2785C126.117 40.3275 128.25 44.4628 128.25 48.7747Z" fill="#E6F3FF"/>
<path d="M54 157.16V149.031H47.25V151.741C47.25 153.178 46.5388 154.557 45.273 155.573C44.0071 156.589 42.2902 157.16 40.5 157.16H33.75V159.87H54L54.405 159.789C54.1335 158.93 53.9974 158.047 54 157.16Z" fill="#98A0A8"/>
<path d="M40.5 140.903V143.613C40.5 144.332 40.1444 145.021 39.5115 145.529C38.8786 146.037 38.0201 146.323 37.125 146.323H33.75V149.032H47.25V140.903H40.5Z" fill="#FA7928"/>
<path d="M81 24.3866C84.7279 24.3866 87.75 21.9602 87.75 18.9672C87.75 15.9742 84.7279 13.5479 81 13.5479C77.2721 13.5479 74.25 15.9742 74.25 18.9672C74.25 21.9602 77.2721 24.3866 81 24.3866Z" fill="#FEBF62"/>
<path d="M94.5 29.8072C93.6049 29.8072 92.7464 29.5218 92.1135 29.0136C91.4806 28.5054 91.125 27.8162 91.125 27.0976V21.6782L90.585 21.5156C89.9286 23.1406 88.647 24.5566 86.9246 25.5596C85.2022 26.5627 83.1278 27.1012 81 27.0976C79.9186 27.1081 78.8437 26.9612 77.8275 26.664L77.625 27.0976V32.5169H104.625V29.8072H94.5Z" fill="#98A0A8"/>
<path d="M104.625 18.9671H103.336C102.761 18.9669 102.195 18.8487 101.693 18.6237C101.191 18.3987 100.768 18.0744 100.466 17.6817C100.164 17.2889 99.9917 16.8406 99.9658 16.3794C99.9399 15.9181 100.061 15.4592 100.318 15.0462L100.845 14.1981L97.8748 13.5478L97.0648 12.6807L91.1248 16.2574L90.5848 16.42C91.3049 18.0689 91.3049 19.8654 90.5848 21.5142L91.1248 21.6768H104.625L135 29.8058V27.0961L104.625 18.9671Z" fill="#272E48"/>
<path d="M131.625 5.41898H104.625L97.7603 9.0933C96.7717 9.62146 95.6271 9.93088 94.4419 9.99035C93.2568 10.0498 92.0731 9.85723 91.0103 9.43201L81 5.41898V10.8383C83.1278 10.8347 85.2022 11.3732 86.9246 12.3763C88.647 13.3793 89.9286 14.7952 90.585 16.4203L91.125 16.2577L97.065 12.6809L104.625 8.12866H129.938C131.28 8.12866 132.568 7.70043 133.517 6.93819C134.467 6.17594 135 5.14212 135 4.06414C134.999 3.7715 134.959 3.4798 134.879 3.19434C134.747 3.81258 134.349 4.37409 133.755 4.78074C133.16 5.18739 132.406 5.4133 131.625 5.41898ZM73.4738 13.548H64.125C64.125 14.9853 63.4139 16.3638 62.148 17.3801C60.8821 18.3964 59.1652 18.9674 57.375 18.9674H39.6259C34.1573 18.8955 28.7338 19.7727 23.7263 21.5389C18.4337 23.3188 13.9589 26.3728 10.9185 30.2799C7.87813 34.187 6.42174 38.755 6.75004 43.3545C6.75004 74.1716 32.5823 111.213 39.0488 120C40.0019 121.301 40.5031 122.783 40.5 124.293C40.497 126.007 39.8459 127.68 38.6328 129.091C37.4197 130.502 35.7017 131.584 33.7062 132.194C33.7062 132.405 33.75 132.614 33.75 132.828V140.903H47.25V131.121C47.2601 123.612 44.9772 116.215 40.6013 109.579C30.7463 94.7299 13.5 66.2241 13.5 48.7738C13.5 27.0964 23.625 24.3867 50.625 24.3867H73.4738C71.8008 22.9013 70.8746 20.97 70.8746 18.9674C70.8746 16.9647 71.8008 15.0334 73.4738 13.548Z" fill="#0948A1"/>
<path d="M104.625 104.322C104.227 100.814 102.75 97.4413 100.329 94.5047C99.5249 94.6749 98.7037 94.7864 97.875 94.838C98.3475 94.2961 98.8538 93.7731 99.3431 93.2474C96.3428 89.5623 92.853 86.709 91.125 86.709C89.397 86.709 85.9073 89.5623 82.9069 93.2474C83.3963 93.7731 83.9025 94.2907 84.375 94.838C83.5463 94.7864 82.7251 94.6749 81.9214 94.5047C79.4995 97.4413 78.0233 100.814 77.625 104.322C77.625 111.055 85.5326 113.806 91.125 113.806C96.7174 113.806 104.625 111.055 104.625 104.322Z" fill="#F39535"/>
<path d="M97.875 108.116C97.875 109.553 97.1638 110.931 95.898 111.948C94.6321 112.964 92.9152 113.535 91.125 113.535C89.3348 113.535 87.6179 112.964 86.352 111.948C85.0862 110.931 84.375 109.553 84.375 108.116C84.375 104.075 89.4375 97.5479 91.125 97.5479C92.8125 97.5479 97.875 104.075 97.875 108.116Z" fill="#F26B31"/>
<path d="M118.125 159.871H97.8752C92.4987 159.869 87.2453 158.579 82.788 156.165C78.3307 153.751 74.8724 150.324 72.8563 146.322H54.0002V157.161C53.9976 158.047 54.1336 158.93 54.4052 159.789C55.1352 162.134 56.8205 164.216 59.1931 165.703C61.5658 167.191 64.4897 167.999 67.5002 168H114.75C118.331 168 121.764 166.858 124.296 164.825C126.828 162.792 128.25 160.036 128.25 157.161V151.742C128.25 153.898 127.183 155.965 125.285 157.49C123.386 159.014 120.81 159.871 118.125 159.871Z" fill="#0948A1"/>
<path d="M70.8751 138.194V109.041C69.8274 108.266 68.9877 107.328 68.4074 106.284C67.827 105.24 67.5183 104.112 67.5001 102.968C67.399 99.3394 68.5683 95.7606 70.8751 92.6389V46.065C70.8751 42.4717 72.653 39.0256 75.8177 36.4848C78.9824 33.944 83.2746 32.5166 87.7501 32.5166H74.2501C68.8795 32.5166 63.7288 34.2295 59.9312 37.2785C56.1336 40.3275 54.0001 44.4628 54.0001 48.7747V146.323H72.8562C71.5479 143.742 70.8752 140.981 70.8751 138.194Z" fill="#C3DDFF"/>
<path d="M124.875 79.9356C124.875 77.6908 122.608 75.8711 119.812 75.8711C117.016 75.8711 114.75 77.6908 114.75 79.9356V126C114.75 128.245 117.016 130.065 119.812 130.065C122.608 130.065 124.875 128.245 124.875 126V79.9356Z" fill="white"/>
<path d="M124.875 63.6778C124.875 61.433 122.608 59.6133 119.812 59.6133C117.016 59.6133 114.75 61.433 114.75 63.6778V69.0972C114.75 71.3419 117.016 73.1617 119.812 73.1617C122.608 73.1617 124.875 71.3419 124.875 69.0972V63.6778Z" fill="white"/>
</svg>
