<svg width="82" height="100" viewBox="0 0 82 100" fill="none" xmlns="http://www.w3.org/2000/svg">
<path d="M44.5557 8.0661C45.1147 7.55509 45.8041 7.14652 46.5771 6.86824C47.35 6.58991 48.1885 6.44842 49.0356 6.45324C50.3022 6.4511 51.5369 6.77158 52.5622 7.36866C53.5874 7.96574 54.3503 8.80854 54.741 9.7758C55.1696 10.7573 55.1696 11.8266 54.741 12.8081C54.3503 13.7753 53.5874 14.6181 52.5622 15.2152C51.5369 15.8123 50.3022 16.1328 49.0356 16.1306C48.3919 16.1369 47.7521 16.0494 47.1472 15.8726C46.1436 15.6226 45.2463 15.1536 44.5557 14.5178C43.5599 13.6335 43.0085 12.484 43.0085 11.2919C43.0085 10.0999 43.5599 8.95033 44.5557 8.0661Z" fill="#FA7928"/>
<path d="M28.9461 83.8672H20.9104V88.7059H28.9461V83.8672Z" fill="#FCAC55"/>
<path d="M32.964 93.5496C32.9624 94.0776 33.0434 94.6032 33.205 95.1145L32.964 95.1627H20.9104V88.7109H32.964V93.5496Z" fill="#AEB8C1"/>
<path d="M59.08 8.06301L81.1783 12.9017V17.7404L63.098 12.9017H55.0622L54.7407 12.8049C55.1694 11.8235 55.1694 10.7541 54.7407 9.77265L55.0622 9.67586L58.5979 7.54688L59.08 8.06301Z" fill="#0948A1"/>
<path d="M49.0355 16.1273C50.3021 16.1294 51.5368 15.8089 52.5621 15.2118C53.5873 14.6148 54.3502 13.7719 54.7409 12.8047L55.0623 12.9015H63.098V19.3531H47.0266V16.1273L47.1471 15.8692C47.752 16.0461 48.3918 16.1336 49.0355 16.1273Z" fill="#AEB8C1"/>
<path d="M63.0981 4.83871L58.5981 7.54839L55.0624 9.67744L54.7409 9.77417C54.3502 8.80691 53.5874 7.96411 52.5621 7.36702C51.5369 6.77 50.3021 6.44946 49.0356 6.45161V3.2258C49.0356 3.2258 53.0534 0 77.1606 0H78.1653C78.9641 0 79.7308 0.254896 80.2957 0.708613C80.8612 1.16233 81.1784 1.7777 81.1784 2.41936C81.1784 3.06101 80.8612 3.67638 80.2957 4.1301C79.7308 4.58382 78.9641 4.83871 78.1653 4.83871H63.0981ZM22.9195 8.06452H44.5557C43.5599 8.94869 43.0085 10.0983 43.0085 11.2903C43.0085 12.4824 43.5599 13.632 44.5557 14.5161H30.9552C14.8838 14.5161 8.857 16.129 8.857 29.0323C8.857 39.4193 19.1227 56.3871 24.9887 65.2256C27.5934 69.1762 28.9522 73.5786 28.9463 78.0482V83.8708H20.9106V79.0643C20.9125 74.9244 19.7448 70.8381 17.4954 67.1131C11.77 57.629 0.821289 38.129 0.821289 27.4193C0.821289 16.129 8.857 8.06452 22.9195 8.06452Z" fill="#0867D3"/>
<path d="M65.107 53.2286C66.4802 54.2492 67.5528 55.5025 68.2481 56.8973C68.9427 58.2922 69.2427 59.7938 69.1249 61.2932C69.1249 64.5188 65.107 67.745 55.0625 67.745C45.0178 67.745 41 64.5188 41 61.2932C40.8825 59.7938 41.1821 58.2922 41.877 56.8973C42.572 55.5025 43.6448 54.2492 45.0178 53.2286C45.5435 54.1665 46.3877 54.9666 47.4536 55.5372C48.5195 56.1077 49.764 56.4255 51.0446 56.4544C50.1808 55.4544 49.0357 54.6479 49.0357 53.2286C49.0357 49.4705 55.0625 45.1641 55.0625 45.1641C55.0625 45.1641 61.0892 49.4705 61.0892 53.2286C61.0892 54.6479 59.9442 55.4544 59.0803 56.4544C60.3612 56.4255 61.6052 56.1077 62.6713 55.5372C63.7374 54.9666 64.5814 54.1665 65.107 53.2286Z" fill="#FCAC55"/>
<path d="M77.1604 87.0938V93.5455C77.1604 95.2568 76.314 96.8973 74.8069 98.1074C73.2997 99.3176 71.2563 99.9973 69.1247 99.9973H40.9998C39.2079 99.9967 37.4675 99.5158 36.0551 98.6301C34.6429 97.7449 33.6397 96.5057 33.2052 95.1098C33.0435 94.5985 32.9626 94.0729 32.9641 93.5455V87.0938H77.1604Z" fill="#0867D3"/>
<path d="M49.0355 53.2225C49.0355 54.6419 50.1807 55.4483 51.0445 56.4483C49.7639 56.4195 48.5194 56.1016 47.4535 55.5311C46.3875 54.9606 45.5433 54.1605 45.0177 53.2225C43.6447 54.2432 42.5718 55.4964 41.8769 56.8913C41.1819 58.2861 40.8823 59.7875 40.9998 61.2869C40.9998 64.5131 45.0177 67.7387 55.0623 67.7387C65.1069 67.7387 69.1248 64.5131 69.1248 61.2869C69.2426 59.7875 68.9426 58.2861 68.248 56.8913C67.5527 55.4964 66.4801 54.2432 65.1069 53.2225C64.5813 54.1605 63.7373 54.9606 62.6712 55.5311C61.6051 56.1016 60.3605 56.4195 59.0802 56.4483C59.9441 55.4483 61.0891 54.6419 61.0891 53.2225C61.0891 49.4645 55.0623 45.158 55.0623 45.158C55.0623 45.158 49.0355 49.4645 49.0355 53.2225ZM77.1605 29.029V87.0935H32.9641V29.029C32.9641 26.4624 34.2341 24.0009 36.4945 22.186C38.755 20.3711 41.8209 19.3516 45.0177 19.3516H65.1069C68.3039 19.3516 71.3694 20.3711 73.6301 22.186C75.8908 24.0009 77.1605 26.4624 77.1605 29.029Z" fill="#E6F3FF"/>
<path d="M32.964 93.5496V88.7109H28.9461V90.324C28.9461 91.1794 28.5228 92.0002 27.7693 92.605C27.0158 93.2097 25.9939 93.5496 24.9283 93.5496H20.9104V95.1627H32.964L33.205 95.1145C33.0434 94.6032 32.9624 94.0776 32.964 93.5496Z" fill="#98A0A8"/>
<path d="M24.9283 83.8672V85.4803C24.9283 85.9083 24.7166 86.3184 24.3399 86.6208C23.9631 86.9231 23.4521 87.0934 22.9193 87.0934H20.9104V88.7059H28.9461V83.8672H24.9283Z" fill="#FA7928"/>
<path d="M49.0354 14.5141C51.2544 14.5141 53.0533 13.0698 53.0533 11.2883C53.0533 9.50673 51.2544 8.0625 49.0354 8.0625C46.8164 8.0625 45.0176 9.50673 45.0176 11.2883C45.0176 13.0698 46.8164 14.5141 49.0354 14.5141Z" fill="#FEBF62"/>
<path d="M57.0713 17.7402C56.5385 17.7402 56.0274 17.5703 55.6507 17.2678C55.274 16.9653 55.0623 16.555 55.0623 16.1273V12.9015L54.7409 12.8047C54.3502 13.7719 53.5873 14.6148 52.5621 15.2118C51.5368 15.8089 50.3021 16.1294 49.0355 16.1273C48.3918 16.1336 47.752 16.0461 47.1471 15.8692L47.0266 16.1273V19.3531H63.098V17.7402H57.0713Z" fill="#98A0A8"/>
<path d="M63.098 11.2888H62.3307C61.9885 11.2887 61.6516 11.2183 61.3527 11.0844C61.0539 10.9504 60.8022 10.7574 60.6224 10.5237C60.4426 10.2899 60.3401 10.023 60.3246 9.74848C60.3092 9.4739 60.3813 9.20074 60.5343 8.95491L60.848 8.45009L59.08 8.06301L58.5979 7.54688L55.0622 9.67586L54.7407 9.77265C55.1694 10.7541 55.1694 11.8235 54.7407 12.8049L55.0622 12.9017H63.098L81.1783 17.7404V16.1275L63.098 11.2888Z" fill="#272E48"/>
<path d="M79.1694 3.22263H63.098L59.0118 5.40972C58.4234 5.7241 57.7421 5.90828 57.0366 5.94368C56.3312 5.97907 55.6266 5.86444 54.994 5.61134L49.0355 3.22263V6.44841C50.302 6.44627 51.5368 6.76681 52.562 7.36389C53.5873 7.96091 54.3501 8.80371 54.7408 9.77103L55.0623 9.67425L58.598 7.5452L63.098 4.83553H78.1652C78.964 4.83553 79.7307 4.58063 80.2956 4.12692C80.8611 3.6732 81.1783 3.05783 81.1783 2.41618C81.1777 2.24199 81.1539 2.06835 81.1063 1.89844C81.0277 2.26644 80.7908 2.60067 80.4373 2.84272C80.0831 3.08478 79.6343 3.21925 79.1694 3.22263ZM44.5556 8.06133H38.9908C38.9908 8.91687 38.5676 9.7374 37.814 10.3423C37.0605 10.9473 36.0386 11.2872 34.973 11.2872H24.408C21.1529 11.2444 17.9246 11.7665 14.944 12.8178C11.7936 13.8773 9.13005 15.6951 7.32029 18.0208C5.51055 20.3464 4.64365 23.0655 4.83907 25.8033C4.83907 44.1468 20.2154 66.1953 24.0645 71.4256C24.6318 72.2 24.9302 73.0822 24.9283 73.981C24.9265 75.0012 24.539 75.997 23.8169 76.8369C23.0948 77.6768 22.0722 78.3209 20.8844 78.684C20.8844 78.8095 20.9105 78.934 20.9105 79.0613V83.8679H28.9462V78.0453C28.9522 73.5756 27.5933 69.1726 24.9886 65.2226C19.1226 56.3839 8.8569 39.4162 8.8569 29.0291C8.8569 16.1259 14.8837 14.5129 30.9551 14.5129H44.5556C43.5598 13.6288 43.0084 12.4792 43.0084 11.2872C43.0084 10.0951 43.5598 8.9455 44.5556 8.06133Z" fill="#0948A1"/>
<path d="M63.098 62.0933C62.8611 60.0052 61.982 57.9976 60.5409 56.2497C60.0623 56.351 59.5735 56.4173 59.0802 56.4481C59.3614 56.1255 59.6628 55.8142 59.9541 55.5013C58.1682 53.3078 56.0909 51.6094 55.0623 51.6094C54.0338 51.6094 51.9566 53.3078 50.1706 55.5013C50.4619 55.8142 50.7632 56.1223 51.0445 56.4481C50.5512 56.4173 50.0624 56.351 49.584 56.2497C48.1424 57.9976 47.2637 60.0052 47.0266 62.0933C47.0266 66.101 51.7335 67.7385 55.0623 67.7385C58.3911 67.7385 63.098 66.101 63.098 62.0933Z" fill="#F39535"/>
<path d="M59.0801 64.353C59.0801 65.2084 58.6568 66.0286 57.9034 66.634C57.1499 67.2388 56.1279 67.5786 55.0623 67.5786C53.9967 67.5786 52.9747 67.2388 52.2212 66.634C51.4678 66.0286 51.0444 65.2084 51.0444 64.353C51.0444 61.9477 54.0578 58.0625 55.0623 58.0625C56.0668 58.0625 59.0801 61.9477 59.0801 64.353Z" fill="#F26B31"/>
<path d="M71.1337 95.1586H59.0802C55.8799 95.1574 52.7529 94.3896 50.0997 92.9527C47.4466 91.5158 45.3881 89.4759 44.188 87.0938H32.9641V93.5455C32.9626 94.0729 33.0435 94.5985 33.2052 95.1098C33.6397 96.5057 34.6429 97.7449 36.0551 98.6301C37.4675 99.5158 39.2079 99.9967 40.9998 99.9973H69.1247C71.2563 99.9973 73.2997 99.3176 74.8069 98.1074C76.314 96.8973 77.1604 95.2568 77.1604 93.5455V90.3199C77.1604 91.6033 76.5253 92.8336 75.3956 93.7414C74.2652 94.6485 72.7319 95.1586 71.1337 95.1586Z" fill="#0948A1"/>
<path d="M43.0088 82.2548V64.9018C42.3851 64.4405 41.8853 63.8822 41.5399 63.2607C41.1944 62.6393 41.0107 61.9679 40.9998 61.2869C40.9396 59.127 41.6357 56.9968 43.0088 55.1386V27.4161C43.0088 25.2772 44.067 23.226 45.9508 21.7136C47.8345 20.2012 50.3894 19.3516 53.0534 19.3516H45.0177C41.8209 19.3516 38.755 20.3711 36.4945 22.186C34.2341 24.0009 32.9641 26.4624 32.9641 29.029V87.0935H44.188C43.4092 85.5572 43.0088 83.9137 43.0088 82.2548Z" fill="#C3DDFF"/>
<path d="M75.1515 47.5834C75.1515 46.2472 73.8021 45.1641 72.1378 45.1641C70.4736 45.1641 69.1248 46.2472 69.1248 47.5834V75.0027C69.1248 76.339 70.4736 77.4223 72.1378 77.4223C73.8021 77.4223 75.1515 76.339 75.1515 75.0027V47.5834Z" fill="white"/>
<path d="M75.1515 37.9037C75.1515 36.5675 73.8021 35.4844 72.1378 35.4844C70.4736 35.4844 69.1248 36.5675 69.1248 37.9037V41.1296C69.1248 42.4657 70.4736 43.5489 72.1378 43.5489C73.8021 43.5489 75.1515 42.4657 75.1515 41.1296V37.9037Z" fill="white"/>
</svg>
