<svg width="200" height="200" viewBox="0 0 200 200" fill="none" xmlns="http://www.w3.org/2000/svg">
<mask id="mask0_202_219" style="mask-type:luminance" maskUnits="userSpaceOnUse" x="0" y="0" width="200" height="200">
<path d="M200 0H0V200H200V0Z" fill="white"/>
</mask>
<g mask="url(#mask0_202_219)">
<path d="M20.8317 136.666C23.3079 140.191 28.1906 141.044 31.7154 138.568C35.2401 136.091 36.0933 131.209 33.6171 127.684C31.1409 124.159 26.2582 123.306 22.7334 125.782C19.2087 128.259 18.3555 133.141 20.8317 136.666Z" fill="#FEEE00"/>
<path d="M22.7416 125.785C26.2576 123.315 31.1463 124.158 33.6254 127.687C35.3141 130.091 35.4534 133.143 34.2352 135.622C34.0833 134.373 33.6371 133.14 32.8647 132.04C30.3857 128.511 25.4969 127.669 21.9809 130.139C20.8813 130.911 20.0434 131.92 19.477 133.043C19.1716 130.298 20.3252 127.483 22.7416 125.785Z" fill="#FFB403"/>
<path d="M170.707 45.3202C165.542 45.1027 161.164 49.1272 160.946 54.2923C160.729 59.4573 164.753 63.8361 169.918 64.0536C175.083 64.2711 179.462 60.2462 179.679 55.0812C179.897 49.9161 175.872 45.5377 170.707 45.3202Z" fill="#FEEE00"/>
<path d="M170.707 45.3199C175.874 45.5375 179.897 49.9136 179.679 55.0809C179.537 58.4684 177.616 61.3591 174.847 62.8844C175.781 61.5007 176.35 59.8671 176.426 58.0718C176.643 52.9045 172.621 48.5281 167.453 48.3105C165.658 48.2349 163.982 48.665 162.525 49.4794C164.278 46.8476 167.319 45.1773 170.707 45.3199Z" fill="#FFB403"/>
<path d="M175.751 167.36C171.967 166.515 168.202 168.905 167.357 172.689C166.512 176.473 168.902 180.239 172.686 181.084C176.47 181.929 180.236 179.538 181.081 175.754C181.926 171.97 179.535 168.205 175.751 167.36Z" fill="#FEEE00"/>
<path d="M181.081 175.753C180.236 179.535 176.468 181.928 172.686 181.083C170.017 180.487 168.028 178.426 167.4 175.932C168.225 176.613 169.204 177.104 170.317 177.352C174.099 178.197 177.868 175.804 178.712 172.022C178.961 170.909 178.933 169.814 178.668 168.779C180.658 170.408 181.677 173.085 181.081 175.753Z" fill="#FFB403"/>
<path d="M106.174 15.0261C103.687 12.0521 99.2439 11.6565 96.2699 14.1441C93.296 16.6317 92.9003 21.0747 95.3879 24.0487C97.8756 27.0226 102.319 27.4183 105.293 24.9306C108.266 22.443 108.662 18.0001 106.174 15.0261Z" fill="#FEEE00"/>
<path d="M105.293 24.9289C102.32 27.4151 97.8742 27.0191 95.388 24.0469C93.6336 21.9494 93.3103 19.1033 94.3302 16.7427C94.5702 17.7846 95.0484 18.7699 95.7802 19.6448C98.2664 22.617 102.712 23.0129 105.684 20.5267C106.559 19.7949 107.204 18.9096 107.624 17.9265C108.211 20.4302 107.39 23.1744 105.293 24.9289Z" fill="#FFB403"/>
<path d="M26.2868 114.843C26.2868 111.119 23.256 108.088 19.5314 108.088C15.8067 108.088 12.7759 111.119 12.7759 114.843C12.7759 118.568 15.8067 121.599 19.5314 121.599C23.256 121.599 26.2868 118.568 26.2868 114.843Z" fill="#FEEE00"/>
<path d="M26.2867 114.845C26.2867 118.57 23.2564 121.601 19.5312 121.601C16.6553 121.601 14.2039 119.806 13.2388 117.277C13.9916 117.586 14.8216 117.74 15.6709 117.74C19.396 117.74 22.4264 114.71 22.4264 110.985C22.4264 110.135 22.272 109.306 21.9632 108.553C24.4917 109.518 26.2867 111.969 26.2867 114.845Z" fill="#FFB403"/>
<path d="M152.344 44.3945C149.682 44.3945 147.516 46.5604 147.516 49.2221C147.516 51.8837 149.682 54.0496 152.344 54.0496C155.005 54.0496 157.171 51.8837 157.171 49.2221C157.171 46.5604 155.005 44.3945 152.344 44.3945Z" fill="#FEEE00"/>
<path d="M157.171 49.2211C157.171 51.8831 155.006 54.0486 152.344 54.0486C150.289 54.0486 148.537 52.766 147.847 50.9591C148.385 51.1798 148.978 51.2902 149.585 51.2902C152.247 51.2902 154.413 49.1245 154.413 46.4625C154.413 45.8555 154.303 45.2626 154.082 44.7246C155.889 45.4143 157.171 47.1659 157.171 49.2211Z" fill="#FFB403"/>
<path d="M102.344 175.188C99.4178 175.188 97.0367 177.57 97.0367 180.496C97.0367 183.422 99.4178 185.803 102.344 185.803C105.27 185.803 107.651 183.422 107.651 180.496C107.651 177.57 105.27 175.188 102.344 175.188Z" fill="#FEEE00"/>
<path d="M107.651 180.5C107.651 183.426 105.27 185.807 102.344 185.807C100.084 185.807 98.1588 184.397 97.4006 182.41C97.9921 182.653 98.6439 182.774 99.3112 182.774C102.238 182.774 104.618 180.394 104.618 177.467C104.618 176.8 104.497 176.148 104.254 175.557C106.241 176.315 107.651 178.24 107.651 180.5Z" fill="#FFB403"/>
<path d="M169.556 96.2226C166.87 100.506 162.431 103.001 158.529 105.189C151.23 109.272 145.969 112.23 151.972 124.339C156.064 132.582 154.484 141.656 148.054 146.925C143.994 150.222 137.438 152.086 129.871 148.99C129.239 148.743 128.591 148.451 127.927 148.111C126.758 147.495 125.558 146.787 124.357 145.924C119.159 142.242 115.083 140.716 112.176 141.379C111.955 141.425 111.75 141.471 111.545 141.548C111.181 141.687 110.818 141.857 110.486 142.072C110.486 142.072 110.486 142.072 110.486 142.088C108.622 143.274 107.247 145.77 106.284 149.652C104.625 156.416 101.844 167.708 95.2091 171.498C93.6608 172.377 91.9861 172.823 90.2167 172.823C89.1582 172.823 88.0683 172.669 86.9466 172.346C84.8928 171.776 83.3287 170.759 82.1913 169.449C81.67 168.864 81.2276 168.201 80.8643 167.493C77.831 161.654 79.7426 152.394 80.9274 146.679L81.0854 145.908C81.4487 144.183 81.2908 142.611 80.6905 141.364C80.264 140.408 79.5688 139.653 78.6525 139.176H78.6365C76.4249 138.02 73.5496 138.775 71.1166 141.148C65.5397 146.586 60.0736 146.802 56.4558 145.107C56.1714 144.984 55.9029 144.83 55.6342 144.676C55.3498 144.522 55.0972 144.337 54.8444 144.152C50.974 141.271 49.0464 134.97 52.8222 128.499C54.9549 124.879 55.1919 121.196 53.4542 118.901C51.5741 116.405 47.4666 115.697 41.9056 116.913C36.7554 118.023 31.9526 116.651 28.6982 113.154C25.0803 109.226 23.9745 103.417 25.8387 97.9634C28.6665 89.7056 36.5341 88.5501 43.4854 87.5179C47.2929 86.9632 50.8791 86.4395 53.3278 84.8526C55.0341 83.7433 56.0767 82.0178 56.2504 79.9996C56.5822 76.5023 54.3863 72.3426 50.0575 68.2753C44.7966 63.3299 43.0274 57.3215 45.0496 51.3745C45.8553 48.9865 47.2772 46.7987 49.0939 44.9191C49.6626 44.3337 50.2629 43.7791 50.9105 43.2861C53.7541 41.0061 57.2299 39.4498 60.8793 39.003C68.0519 38.1249 74.7345 41.5296 79.2213 48.3239C80.959 50.9737 86.6463 52.9459 91.5122 51.6517C91.6229 51.6208 91.7493 51.5902 91.8599 51.5593C91.9704 51.5285 92.0651 51.4976 92.1758 51.4514C95.0037 50.5116 98.2109 48.0621 98.0529 41.8995C97.8791 34.9821 101.892 29.3894 108.274 27.6176C109.791 27.2017 111.466 27.0169 113.172 27.1402C115.352 27.2788 117.579 27.8797 119.665 29.0813C121.829 30.3138 123.82 32.178 125.368 34.7816C128.401 39.8504 126.948 45.5662 125.684 50.6195C124.499 55.2875 123.488 59.324 125.874 62.0048C129.049 65.5791 133.441 65.0091 139.523 64.2234C144.674 63.5454 150.535 62.7752 156.98 64.5778C163.458 66.3957 169.003 71.372 171.499 77.5807C173.932 83.6971 173.253 90.3065 169.556 96.2226Z" fill="#A700F4"/>
<path d="M112.177 141.378C111.956 141.424 111.75 141.471 111.545 141.548C109.143 142.41 107.421 145.06 106.284 149.651C104.625 156.415 101.844 167.708 95.2092 171.498C93.6609 172.376 91.9863 172.823 90.2169 172.823C89.1584 172.823 88.0685 172.669 86.9467 172.345C84.8929 171.775 83.3289 170.758 82.1914 169.449C93.7873 170.481 95.3671 164.226 98.432 149.297C100.565 138.882 107.753 139.73 112.177 141.378Z" fill="#550082"/>
<path d="M92.1758 51.4516C87.1047 54.7794 76.8831 59.6479 69.9951 50.6968C63.1072 41.7302 53.707 43.3632 49.094 44.9193C52.1746 41.7609 56.4085 39.5579 60.8794 39.0032C68.052 38.1251 74.7345 41.5298 79.2213 48.3241C81.0065 51.0356 86.9152 53.0385 91.86 51.5595C91.9705 51.5287 92.0652 51.4978 92.1758 51.4516Z" fill="#550082"/>
<path d="M78.6365 139.177C76.4248 138.021 73.5496 138.776 71.1166 141.149C65.0974 147.019 59.2046 146.803 55.6342 144.677C59.3153 143.691 62.2536 140.332 66.8352 136.974C71.7959 133.353 76.7566 137.313 78.6365 139.177Z" fill="#550082"/>
<path d="M169.556 96.223C166.87 100.506 162.431 103.002 158.529 105.19C151.23 109.272 145.969 112.23 151.972 124.34C156.064 132.582 154.484 141.656 148.054 146.926C143.647 150.5 136.3 152.395 127.927 148.112C148.418 149.006 145.827 135.433 141.087 121.567C136.481 108.092 147.407 103.079 153.726 99.9976C160.045 96.9163 164.785 89.2132 161.625 81.5099C158.465 73.8066 147.563 72.266 139.508 72.266C131.608 72.266 122.129 72.266 118.559 67.4746C114.988 62.6677 115.81 61.4816 118.97 46.0752C120.976 36.3074 118.97 29.128 113.172 27.1406C117.611 27.418 122.335 29.6825 125.368 34.782C128.401 39.8509 126.948 45.5666 125.684 50.62C124.499 55.288 123.488 59.3244 125.874 62.0053C129.049 65.5796 133.441 65.0095 139.523 64.2238C144.674 63.5458 150.535 62.7757 156.98 64.5782C163.458 66.3961 169.003 71.3724 171.499 77.5812C173.932 83.6976 173.253 90.307 169.556 96.223Z" fill="#550082"/>
<path d="M170.381 158.47L166.199 122.632C166.141 122.074 165.776 121.588 165.268 121.369L132.135 107.087C131.629 106.852 131.036 106.936 130.587 107.259L101.639 128.801C101.188 129.139 100.963 129.694 101.022 130.236L105.205 166.075C105.278 166.635 105.628 167.119 106.136 167.338L139.267 181.635C139.418 181.685 139.554 181.733 139.693 181.751C140.097 181.8 140.503 181.692 140.817 181.447L169.765 159.906C170.215 159.568 170.455 159.03 170.381 158.47ZM138.824 171.254L113.96 160.537L110.836 133.644L132.577 117.468L157.444 128.17L160.567 155.062L138.824 171.254Z" fill="#03D5DC"/>
<path d="M170.381 158.47L166.199 122.632C166.141 122.074 165.776 121.588 165.268 121.369L132.135 107.087C131.629 106.852 131.036 106.936 130.587 107.259L101.639 128.801C101.188 129.139 100.963 129.694 101.022 130.236L105.205 166.075C105.278 166.635 105.628 167.119 106.136 167.338L139.267 181.635C139.418 181.685 139.554 181.733 139.693 181.751C140.097 181.8 140.503 181.692 140.817 181.447L169.765 159.906C170.215 159.568 170.455 159.03 170.381 158.47ZM139.418 176.427L109.785 163.646L106.052 131.578L131.969 112.293L161.619 125.061L165.351 157.129L139.418 176.427Z" fill="#0195B7"/>
<path d="M136.799 113.339L132.616 77.5C132.559 76.942 132.191 76.4719 131.683 76.2521L98.5523 61.9552C98.0285 61.7334 97.4532 61.8046 97.0042 62.1274L68.0544 83.6844C67.6054 84.0072 67.3646 84.5601 67.4376 85.12L71.6202 120.959C71.6777 121.517 72.045 121.987 72.5534 122.207L105.684 136.503C105.818 136.567 105.971 136.602 106.111 136.619C106.514 136.668 106.905 136.559 107.232 136.331L136.182 114.774C136.631 114.451 136.872 113.899 136.799 113.339ZM105.242 126.122L80.3771 115.405L77.2536 88.5124L98.9946 72.3363L123.859 83.0532L126.983 109.946L105.242 126.122Z" fill="#0195B7"/>
<path d="M136.799 113.339L132.616 77.5C132.559 76.942 132.191 76.4719 131.683 76.2521L98.5523 61.9552C98.0285 61.7334 97.4532 61.8046 97.0042 62.1274L68.0544 83.6844C67.6054 84.0072 67.3646 84.5601 67.4376 85.12L71.6202 120.959C71.6777 121.517 72.045 121.987 72.5534 122.207L105.684 136.503C105.818 136.567 105.971 136.602 106.111 136.619C106.514 136.668 106.905 136.559 107.232 136.331L136.182 114.774C136.631 114.451 136.872 113.899 136.799 113.339ZM105.843 131.359L76.1498 118.555L72.4096 86.4228L98.3934 67.0993L128.086 79.9039L131.827 112.036L105.843 131.359Z" fill="#03D5DC"/>
<path d="M103.214 68.2218L99.0312 32.3834C98.9581 31.8235 98.6081 31.3396 98.1 31.1198L64.9694 16.8231C64.4456 16.6013 63.8547 16.6704 63.4195 17.0105L34.4715 38.5522C34.0207 38.8904 33.7816 39.4278 33.8547 39.9878L38.0373 75.8264C38.0948 76.3844 38.4605 76.8699 38.9686 77.0897L72.1011 91.3711C72.2349 91.4347 72.3862 91.4849 72.5257 91.5021C72.9134 91.5496 73.3202 91.4421 73.6491 91.199L102.597 69.6574C103.048 69.3192 103.273 68.7644 103.214 68.2218ZM71.6588 80.9899L46.7924 70.2886L43.669 43.3958L65.4117 27.2042L90.2762 37.9209L93.3997 64.814L71.6588 80.9899Z" fill="#03D5DC"/>
<path d="M103.214 68.2218L99.0312 32.3834C98.9581 31.8235 98.6081 31.3396 98.1 31.1198L64.9694 16.8231C64.4456 16.6013 63.8547 16.6704 63.4195 17.0105L34.4715 38.5522C34.0207 38.8904 33.7816 39.4278 33.8547 39.9878L38.0373 75.8264C38.0948 76.3844 38.4605 76.8699 38.9686 77.0897L72.1011 91.3711C72.2349 91.4347 72.3862 91.4849 72.5257 91.5021C72.9134 91.5496 73.3202 91.4421 73.6491 91.199L102.597 69.6574C103.048 69.3192 103.273 68.7644 103.214 68.2218ZM72.2716 86.2603L42.5301 73.4653L38.7938 41.3021L64.8008 21.9184L94.5384 34.7444L98.2748 66.9076L72.2716 86.2603Z" fill="#0195B7"/>
<path d="M70.406 17.6564C67.8887 14.2764 63.0918 13.5715 59.708 16.0884C58.0706 17.3076 57.0047 19.0918 56.7086 21.1128C56.4126 23.133 56.9207 25.148 58.1398 26.7862C59.4379 28.5287 61.341 29.5597 63.3448 29.8055C65.2269 30.0364 67.199 29.5734 68.8378 28.3544C70.4767 27.1346 71.5411 25.3502 71.8372 23.3299C72.1332 21.3097 71.6251 19.2945 70.406 17.6564Z" fill="#FBFAD4"/>
<path d="M71.8422 23.3363C71.5338 25.3472 70.4836 27.1286 68.8382 28.3595C67.1948 29.575 65.2291 30.0271 63.3473 29.7962C61.3439 29.5505 59.4356 28.5307 58.14 26.785C57.5065 25.9216 57.0548 24.9574 56.8401 23.9451C57.7326 24.4552 58.6948 24.7735 59.6965 24.8964C61.5783 25.1272 63.546 24.6599 65.1895 23.4443C66.8177 22.2269 67.8832 20.4473 68.1782 18.4193C68.3259 17.4668 68.2895 16.5073 68.0637 15.5861C68.958 16.0809 69.7657 16.7808 70.4125 17.6613C71.6299 19.2895 72.1372 21.3083 71.8422 23.3363Z" fill="#DDD685"/>
<path d="M101.106 29.8672C99.8628 28.1976 98.0434 27.111 95.9835 26.8091C93.9306 26.4882 91.8688 27.0254 90.1977 28.2691C86.7503 30.8365 86.0337 35.7294 88.6005 39.1758C89.8435 40.8468 91.6629 41.9329 93.7229 42.2347C93.7847 42.2438 93.8466 42.2522 93.9086 42.2598C95.9064 42.5049 97.8879 41.9811 99.5085 40.7748C102.956 38.2088 103.673 33.3152 101.106 29.8672Z" fill="#FBFAD4"/>
<path d="M99.5033 40.7664C97.8932 41.9824 95.9124 42.5092 93.9007 42.2624L93.7149 42.2396C91.6643 41.9251 89.8481 40.8543 88.593 39.1766C87.9336 38.279 87.4884 37.2977 87.2522 36.279C88.0886 36.7586 89.006 37.091 89.9945 37.2279L90.1801 37.2507C92.1763 37.4956 94.1728 36.9711 95.781 35.7703C98.3388 33.8693 99.3894 30.6839 98.7272 27.7596C99.6527 28.2816 100.461 28.9932 101.107 29.8735C103.669 33.3138 102.959 38.206 99.5033 40.7664Z" fill="#DDD685"/>
<path d="M105.358 61.7571C102.794 58.3153 97.9098 57.5972 94.4641 60.1602C92.7952 61.4023 91.7112 63.2196 91.4098 65.2768C91.1082 67.3348 91.6257 69.3859 92.8672 71.054C94.1891 72.8285 96.1269 73.8791 98.1673 74.1294C100.084 74.3645 102.092 73.8923 103.761 72.651C105.428 71.4095 106.514 69.5923 106.815 67.5343C107.117 65.4771 106.599 63.4252 105.358 61.7571Z" fill="#FBFAD4"/>
<path d="M106.813 67.5318C106.513 69.597 105.428 71.4093 103.754 72.6471C102.096 73.8868 100.077 74.3607 98.161 74.1256C96.1209 73.8753 94.195 72.8232 92.8757 71.0457C92.2133 70.1801 91.7687 69.2 91.5347 68.1673C92.4282 68.6849 93.4234 69.0109 94.4434 69.136C96.3597 69.3711 98.3787 68.8973 100.037 67.6574C101.71 66.4196 102.797 64.5921 103.096 62.5423C103.233 61.5551 103.196 60.5778 102.966 59.6399C103.874 60.1593 104.699 60.8563 105.357 61.7529C106.595 63.4265 107.112 65.482 106.813 67.5318Z" fill="#DDD685"/>
<path d="M132.06 84.4967C130.8 85.4277 129.261 85.8366 127.711 85.6464L127.567 85.6287C125.961 85.3952 124.552 84.5514 123.588 83.2622C122.614 81.9594 122.212 80.3612 122.456 78.7689C122.62 77.6302 123.088 76.6021 123.814 75.752C124.102 75.3969 124.446 75.0733 124.823 74.7902C125.332 74.4136 125.881 74.1148 126.468 73.9064L126.48 73.9078C127.373 73.5905 128.335 73.5012 129.317 73.6462C130.922 73.8917 132.332 74.7235 133.295 76.0247C135.283 78.7081 134.732 82.507 132.06 84.4967Z" fill="#FBFAD4"/>
<path d="M132.06 84.4954C130.799 85.4264 129.261 85.8352 127.711 85.6451L127.567 85.6274C125.961 85.3938 124.552 84.55 123.588 83.2608C123.085 82.5892 122.727 81.8257 122.545 81.0228C123.196 81.3832 123.909 81.6413 124.664 81.7462L124.808 81.7639C126.371 81.9555 127.909 81.5466 129.158 80.6142C131.157 79.1275 131.973 76.654 131.435 74.3802C132.154 74.7856 132.781 75.3383 133.295 76.0233C135.283 78.7067 134.732 82.5057 132.06 84.4954Z" fill="#DDD685"/>
<path d="M138.587 107.152C136.17 103.907 131.565 103.23 128.316 105.647C126.743 106.818 125.72 108.531 125.436 110.471C125.151 112.411 125.639 114.346 126.81 115.919C128.056 117.592 129.883 118.582 131.807 118.818C133.615 119.039 135.508 118.595 137.082 117.424C138.654 116.253 139.677 114.54 139.961 112.6C140.245 110.66 139.758 108.725 138.587 107.152Z" fill="#FBFAD4"/>
<path d="M139.957 112.602C139.675 114.535 138.652 116.243 137.087 117.427C135.509 118.594 133.62 119.043 131.813 118.821C129.889 118.585 128.059 117.591 126.815 115.915C126.191 115.099 125.771 114.175 125.551 113.201C126.395 113.675 127.333 113.982 128.295 114.1C130.102 114.322 132.004 113.89 133.569 112.706C135.147 111.539 136.17 109.83 136.453 107.883C136.58 106.967 136.546 106.046 136.329 105.161C137.187 105.636 137.963 106.308 138.584 107.153C139.753 108.717 140.24 110.655 139.957 112.602Z" fill="#DDD685"/>
<path d="M166.015 130.125C164.625 131.151 162.929 131.602 161.219 131.392L161.06 131.373C159.29 131.115 157.736 130.185 156.674 128.75C155.613 127.315 155.168 125.566 155.426 123.795C155.625 122.393 156.265 121.127 157.221 120.128C157.469 119.862 157.74 119.626 158.036 119.407C158.642 118.957 159.317 118.609 160.016 118.399C160.969 118.086 161.975 117.994 162.991 118.159C164.762 118.416 166.315 119.347 167.377 120.782C169.584 123.729 168.963 127.917 166.015 130.125Z" fill="#FBFAD4"/>
<path d="M166.015 130.124C164.625 131.151 162.929 131.602 161.219 131.392L161.06 131.373C159.289 131.115 157.736 130.185 156.674 128.75C156.121 127.996 155.738 127.169 155.538 126.283C156.254 126.694 157.041 126.965 157.874 127.081C157.927 127.088 157.979 127.107 158.032 127.114C159.741 127.323 161.438 126.872 162.83 125.833C165.02 124.205 165.921 121.464 165.328 118.956C166.12 119.403 166.824 120.028 167.377 120.782C169.584 123.729 168.963 127.917 166.015 130.124Z" fill="#DDD685"/>
<path d="M171.606 152.692C170.548 151.271 169 150.347 167.247 150.09C165.504 149.823 163.746 150.273 162.325 151.331C159.392 153.514 158.782 157.678 160.964 160.612C162.09 162.125 163.741 163.019 165.48 163.232C167.114 163.433 168.825 163.03 170.245 161.973C171.667 160.914 172.59 159.366 172.847 157.614C173.104 155.86 172.663 154.113 171.606 152.692Z" fill="#FBFAD4"/>
<path d="M172.842 157.611C172.586 159.371 171.661 160.914 170.249 161.971C168.821 163.038 167.116 163.431 165.483 163.23C163.745 163.017 162.09 162.133 160.966 160.618C160.403 159.867 160.026 159.019 159.825 158.153C160.599 158.595 161.447 158.873 162.316 158.979C163.949 159.18 165.656 158.774 167.082 157.72C168.494 156.664 169.42 155.107 169.675 153.36C169.791 152.519 169.76 151.687 169.564 150.888C170.351 151.332 171.039 151.937 171.601 152.688C172.669 154.115 173.109 155.867 172.842 157.611Z" fill="#DDD685"/>
<path d="M42.5125 43.5937C42.74 42.0408 42.3495 40.492 41.4124 39.2328C39.4761 36.6352 35.7904 36.0922 33.1894 38.0274C31.9308 38.9646 31.1115 40.3361 30.8839 41.8895C30.6564 43.4424 31.0469 44.9913 31.984 46.2505C32.9818 47.5899 34.4444 48.3828 35.9846 48.5717C37.4314 48.7492 38.9473 48.3928 40.207 47.4558C41.4656 46.5186 42.2848 45.1471 42.5125 43.5937Z" fill="#FBFAD4"/>
<path d="M42.5139 43.5912C42.2872 45.1501 41.4682 46.5178 40.2049 47.4523C38.9533 48.3881 37.4293 48.7459 35.9827 48.5684C34.4427 48.3795 32.9775 47.5839 31.9802 46.2538C31.4933 45.5902 31.1577 44.8504 30.9809 44.0709C31.6669 44.463 32.4067 44.7077 33.1766 44.8021C34.6231 44.9796 36.1355 44.6204 37.3987 43.686C38.662 42.7517 39.4826 41.3722 39.7079 39.8249C39.8111 39.0798 39.7833 38.3421 39.6096 37.634C40.2957 38.026 40.9178 38.5523 41.415 39.2291C42.3494 40.4923 42.7392 42.044 42.5139 43.5912Z" fill="#DDD685"/>
<path d="M43.3397 65.9968C41.2885 65.6724 39.2305 66.2127 37.5615 67.4548C34.1188 70.0181 33.4031 74.9044 35.9649 78.3477C37.2063 80.0158 39.0234 81.1005 41.082 81.4021C41.1438 81.4112 41.2056 81.4195 41.2675 81.4271C43.2627 81.6719 45.2417 81.1487 46.8585 79.9447C48.5259 78.7031 49.6113 76.886 49.9129 74.828C50.2143 72.7708 49.6969 70.7189 48.4555 69.0508C47.214 67.3834 45.397 66.2982 43.3397 65.9968Z" fill="#FBFAD4"/>
<path d="M49.9077 74.8314C49.6092 76.8812 48.5221 78.7089 46.8641 79.9486C45.2426 81.1459 43.2643 81.6716 41.2707 81.4271L41.0852 81.4043C39.02 81.1039 37.2079 80.0187 35.9701 78.3453C35.3094 77.4642 34.8648 76.4842 34.6289 75.4669C35.4642 75.9459 36.3825 76.2625 37.3678 76.4148L37.5531 76.4375C39.5467 76.6821 41.5251 76.1562 43.133 74.9416C44.8064 73.7038 45.8916 71.8914 46.192 69.8263C46.3287 68.8391 46.2919 67.862 46.0619 66.9241C46.9863 67.4454 47.7913 68.1715 48.4518 69.0525C49.6896 70.7259 50.2081 72.7662 49.9077 74.8314Z" fill="#DDD685"/>
<path d="M77.5212 87.8112C77.2891 89.405 76.4439 90.8259 75.1547 91.7899C73.8534 92.7523 72.2956 93.1224 70.8056 92.9396C69.2194 92.745 67.7099 91.9255 66.6841 90.5434C65.7202 89.2542 65.3185 87.6558 65.5521 86.05C65.7842 84.4563 66.628 83.0474 67.9187 82.0713C68.0941 81.9343 68.2785 81.8227 68.475 81.7126L68.4884 81.7021C68.8034 81.5211 69.1273 81.3657 69.4589 81.2478C69.4843 81.2388 69.51 81.2298 69.5475 81.2222C71.9813 80.3743 74.776 81.1562 76.3892 83.3178C77.3652 84.6085 77.7669 86.2069 77.5212 87.8112Z" fill="#FBFAD4"/>
<path d="M77.5211 87.8119C77.289 89.4057 76.4437 90.8267 75.1545 91.7906C73.8532 92.7531 72.2954 93.1231 70.8055 92.9403C69.2192 92.7457 67.7098 91.9262 66.684 90.5441C66.1809 89.8725 65.8352 89.1105 65.6533 88.3075C66.3614 88.6993 67.1232 88.9513 67.9164 89.0486C69.4063 89.2314 70.9629 88.8735 72.2656 87.8989C73.5548 86.935 74.3984 85.526 74.632 83.9202C74.7368 83.1646 74.7083 82.4049 74.5293 81.6756C75.2375 82.0674 75.877 82.6214 76.3891 83.3186C77.3651 84.6093 77.7667 86.2077 77.5211 87.8119Z" fill="#DDD685"/>
<path d="M83.0528 119.885C82.7696 121.832 81.7466 123.54 80.1832 124.709C78.6526 125.853 76.7871 126.349 74.9074 126.118L74.7326 126.097C72.7872 125.799 71.0768 124.79 69.9097 123.212C67.5114 119.975 68.1619 115.395 71.3577 112.977C71.374 112.964 71.3903 112.951 71.4065 112.939C71.9447 112.531 72.5322 112.204 73.1526 111.97C74.3169 111.521 75.5784 111.365 76.8554 111.566C78.8026 111.849 80.5114 112.872 81.6803 114.436C82.862 116.016 83.349 117.954 83.0528 119.885Z" fill="#FBFAD4"/>
<path d="M83.0528 119.884C82.7695 121.831 81.7465 123.539 80.1832 124.708C78.6526 125.852 76.7871 126.348 74.9074 126.117L74.7326 126.096C72.7872 125.798 71.0768 124.789 69.9096 123.211C69.2869 122.381 68.882 121.458 68.6596 120.499C69.4472 120.951 70.3129 121.249 71.2292 121.376L71.4041 121.398C73.284 121.628 75.1491 121.133 76.678 120.004C78.2413 118.835 79.2645 117.126 79.5477 115.179C79.6767 114.248 79.6419 113.327 79.4249 112.442C80.2965 112.934 81.072 113.606 81.6802 114.435C82.862 116.015 83.3489 117.953 83.0528 119.884Z" fill="#DDD685"/>
<path d="M111.729 133.031C111.987 131.267 111.544 129.507 110.479 128.077C108.281 125.126 104.093 124.511 101.138 126.708C99.7085 127.772 98.778 129.33 98.5194 131.095C98.2609 132.859 98.7046 134.618 99.7691 136.049C100.903 137.57 102.564 138.47 104.314 138.685C105.957 138.886 107.679 138.482 109.11 137.418C110.541 136.353 111.47 134.795 111.729 133.031Z" fill="#FBFAD4"/>
<path d="M111.735 133.025C111.464 134.794 110.547 136.35 109.112 137.411C107.676 138.486 105.959 138.881 104.316 138.679C102.567 138.464 100.901 137.574 99.7694 136.05C99.2163 135.296 98.835 134.456 98.6344 133.57C99.4137 134.016 100.254 134.293 101.128 134.401C102.772 134.602 104.49 134.194 105.924 133.133C107.346 132.07 108.278 130.503 108.534 128.745C108.665 127.9 108.633 127.063 108.434 126.272C109.213 126.717 109.906 127.326 110.472 128.082C111.548 129.505 111.991 131.268 111.735 133.025Z" fill="#DDD685"/>
<path d="M110.345 157.385C108.596 157.127 106.844 157.569 105.422 158.627C102.489 160.81 101.879 164.974 104.063 167.907C105.121 169.328 106.669 170.252 108.421 170.509C108.474 170.517 108.526 170.524 108.579 170.531C110.279 170.739 111.965 170.294 113.344 169.267C116.277 167.083 116.887 162.92 114.703 159.987C113.645 158.566 112.097 157.642 110.345 157.385Z" fill="#FBFAD4"/>
<path d="M113.343 169.267C111.962 170.287 110.277 170.735 108.578 170.527L108.42 170.507C106.674 170.253 105.117 169.327 104.062 167.901C103.499 167.151 103.132 166.33 102.931 165.464C103.643 165.872 104.425 166.141 105.253 166.256L105.411 166.276C107.109 166.484 108.795 166.036 110.176 165.016C112.354 163.385 113.248 160.675 112.671 158.186C113.459 158.63 114.146 159.235 114.709 159.986C116.888 162.926 116.27 167.087 113.343 169.267Z" fill="#DDD685"/>
<path d="M134.305 171.266C131.042 173.694 130.362 178.325 132.791 181.59C134.044 183.272 135.882 184.267 137.814 184.504C139.632 184.727 141.534 184.279 143.115 183.103C144.695 181.926 145.724 180.204 146.01 178.254C146.295 176.304 145.805 174.36 144.629 172.779C142.198 169.518 137.57 168.838 134.305 171.266Z" fill="#FBFAD4"/>
<path d="M146.014 178.253C145.729 180.211 144.7 181.928 143.115 183.101C141.528 184.274 139.63 184.725 137.814 184.502C135.88 184.265 134.041 183.266 132.79 181.582C132.164 180.747 131.743 179.818 131.519 178.854C132.381 179.346 133.324 179.655 134.291 179.774C136.107 179.996 138.005 179.545 139.591 178.372C141.179 177.185 142.193 175.466 142.49 173.525C142.62 172.589 142.585 171.663 142.367 170.774C143.228 171.267 143.993 171.94 144.634 172.777C145.807 174.363 146.298 176.296 146.014 178.253Z" fill="#DDD685"/>
</g>
</svg>
