<svg width="85" height="90" viewBox="0 0 85 90" fill="none" xmlns="http://www.w3.org/2000/svg">
<path d="M4.41606 65.338C5.65416 67.1005 8.09551 67.527 9.85791 66.289C11.6203 65.0505 12.0469 62.6095 10.8088 60.847C9.57066 59.0845 7.12931 58.658 5.36691 59.896C3.60456 61.1345 3.17796 63.5755 4.41606 65.338Z" fill="#FEEE00"/>
<path d="M5.37099 59.8952C7.12899 58.6602 9.57334 59.0817 10.8129 60.8462C11.6572 62.0482 11.7269 63.5742 11.1178 64.8137C11.0418 64.1892 10.8187 63.5727 10.4325 63.0227C9.19304 61.2587 6.74864 60.8372 4.99064 62.0722C4.44084 62.4582 4.02189 62.9627 3.73869 63.5242C3.58599 62.1517 4.16279 60.7442 5.37099 59.8952Z" fill="#FFB403"/>
<path d="M79.3537 19.6605C76.7712 19.5517 74.5822 21.564 74.4732 24.1465C74.3647 26.729 76.3767 28.9184 78.9592 29.0272C81.5417 29.1359 83.7312 27.1235 83.8397 24.541C83.9487 21.9584 81.9362 19.7692 79.3537 19.6605Z" fill="#FEEE00"/>
<path d="M79.3537 19.6605C81.9372 19.7693 83.9487 21.9573 83.8397 24.541C83.7687 26.2347 82.8082 27.6801 81.4237 28.4427C81.8907 27.7509 82.1752 26.9341 82.2132 26.0364C82.3217 23.4528 80.3107 21.2646 77.7267 21.1558C76.8292 21.118 75.9912 21.333 75.2627 21.7402C76.1392 20.4243 77.6597 19.5892 79.3537 19.6605Z" fill="#FFB403"/>
<path d="M81.8757 80.6865C79.9837 80.264 78.1012 81.459 77.6787 83.351C77.2562 85.243 78.4512 87.126 80.3432 87.5485C82.2352 87.971 84.1182 86.7755 84.5407 84.8835C84.9632 82.9915 83.7677 81.109 81.8757 80.6865Z" fill="#FEEE00"/>
<path d="M84.5407 84.8776C84.1182 86.7686 82.2342 87.9651 80.3432 87.5426C79.0087 87.2446 78.0142 86.2141 77.7002 84.9671C78.1127 85.3076 78.6022 85.5531 79.1587 85.6771C81.0497 86.0996 82.9342 84.9031 83.3562 83.0121C83.4807 82.4556 83.4667 81.9081 83.3342 81.3906C84.3292 82.2051 84.8387 83.5436 84.5407 84.8776Z" fill="#FFB403"/>
<path d="M47.0873 4.51634C45.8438 3.02934 43.6222 2.83154 42.1352 4.07534C40.6483 5.31914 40.4504 7.54064 41.6942 9.02764C42.9381 10.5146 45.1598 10.7124 46.6468 9.46864C48.1333 8.22479 48.3313 6.00334 47.0873 4.51634Z" fill="#FEEE00"/>
<path d="M46.6466 9.4681C45.1601 10.7112 42.9372 10.5132 41.6941 9.0271C40.8169 7.97835 40.6553 6.5553 41.1652 5.375C41.2852 5.89595 41.5243 6.3886 41.8902 6.82605C43.1333 8.31215 45.3561 8.5101 46.8421 7.267C47.2796 6.9011 47.6021 6.45845 47.8121 5.9669C48.1056 7.21875 47.6951 8.59085 46.6466 9.4681Z" fill="#FFB403"/>
<path d="M7.14363 54.4244C7.14363 52.5624 5.62823 51.0469 3.76593 51.0469C1.90358 51.0469 0.388184 52.5624 0.388184 54.4244C0.388184 56.2869 1.90358 57.8024 3.76593 57.8024C5.62823 57.8024 7.14363 56.2869 7.14363 54.4244Z" fill="#FEEE00"/>
<path d="M7.14358 54.4272C7.14358 56.2897 5.62843 57.8052 3.76583 57.8052C2.32788 57.8052 1.10218 56.9077 0.619629 55.6432C0.996029 55.7977 1.41103 55.8747 1.83568 55.8747C3.69823 55.8747 5.21343 54.3597 5.21343 52.4972C5.21343 52.0722 5.13623 51.6578 4.98183 51.2812C6.24608 51.7637 7.14358 52.9892 7.14358 54.4272Z" fill="#FFB403"/>
<path d="M70.1723 19.2031C68.8413 19.2031 67.7583 20.2861 67.7583 21.6169C67.7583 22.9477 68.8413 24.0307 70.1723 24.0307C71.5028 24.0307 72.5858 22.9477 72.5858 21.6169C72.5858 20.2861 71.5028 19.2031 70.1723 19.2031Z" fill="#FEEE00"/>
<path d="M72.5858 21.6154C72.5858 22.9464 71.5033 24.0292 70.1723 24.0292C69.1448 24.0292 68.2688 23.3879 67.9238 22.4844C68.1928 22.5948 68.4893 22.65 68.7928 22.65C70.1238 22.65 71.2068 21.5671 71.2068 20.2361C71.2068 19.9326 71.1518 19.6362 71.0413 19.3672C71.9448 19.712 72.5858 20.5878 72.5858 21.6154Z" fill="#FFB403"/>
<path d="M45.1722 84.5938C43.7091 84.5938 42.5186 85.7847 42.5186 87.2477C42.5186 88.7107 43.7091 89.9012 45.1722 89.9012C46.6352 89.9012 47.8257 88.7107 47.8257 87.2477C47.8257 85.7847 46.6352 84.5938 45.1722 84.5938Z" fill="#FEEE00"/>
<path d="M47.8256 87.2527C47.8256 88.7157 46.6351 89.9062 45.1721 89.9062C44.0421 89.9062 43.0795 89.2012 42.7004 88.2077C42.9962 88.3292 43.3221 88.3897 43.6557 88.3897C45.1191 88.3897 46.3091 87.1997 46.3091 85.7362C46.3091 85.4027 46.2486 85.0768 46.1276 84.7812C47.1206 85.1603 47.8256 86.1227 47.8256 87.2527Z" fill="#FFB403"/>
<path d="M64.8796 12.8031L64.9561 10.375" stroke="black" stroke-width="8.4375" stroke-linecap="round" stroke-linejoin="round"/>
<path d="M65.0603 7.07665L65.1363 4.65625" stroke="black" stroke-width="8.4375" stroke-linecap="round" stroke-linejoin="round"/>
<path d="M63.3596 8.67035L60.9321 8.59375" stroke="black" stroke-width="8.4375" stroke-linecap="round" stroke-linejoin="round"/>
<path d="M69.0758 8.84979L66.6558 8.77344" stroke="black" stroke-width="8.4375" stroke-linecap="round" stroke-linejoin="round"/>
<path d="M78.7782 45.1147C77.4352 47.2564 75.2157 48.5039 73.2647 49.5979C69.6152 51.6394 66.9847 53.1184 69.9862 59.1729C72.0322 63.2944 71.2422 67.8314 68.0272 70.4659C65.9972 72.1144 62.7192 73.0464 58.9357 71.4984C58.6197 71.3749 58.2957 71.2289 57.9637 71.0589C57.3792 70.7509 56.7792 70.3969 56.1787 69.9654C53.5797 68.1244 51.5417 67.3614 50.0882 67.6929C49.9777 67.7159 49.8752 67.7389 49.7727 67.7774C49.5907 67.8469 49.4092 67.9319 49.2432 68.0394C49.2432 68.0394 49.2432 68.0394 49.2432 68.0474C48.3112 68.6404 47.6237 69.8884 47.1422 71.8294C46.3127 75.2114 44.9222 80.8574 41.6047 82.7524C40.8306 83.1919 39.9932 83.4149 39.1085 83.4149C38.5793 83.4149 38.0343 83.3379 37.4735 83.1764C36.4466 82.8914 35.6645 82.3829 35.0958 81.7279C34.8352 81.4354 34.614 81.1039 34.4323 80.7499C32.9157 77.8304 33.8715 73.2004 34.4639 70.3429L34.5429 69.9574C34.7245 69.0949 34.6456 68.3089 34.3454 67.6854C34.1322 67.2074 33.7846 66.8299 33.3264 66.5914H33.3184C32.2126 66.0134 30.775 66.3909 29.5585 67.5774C26.77 70.2964 24.037 70.4044 22.2281 69.5569C22.0859 69.4954 21.9516 69.4184 21.8173 69.3414C21.6751 69.2644 21.5488 69.1719 21.4224 69.0794C19.4872 67.6389 18.5234 64.4884 20.4113 61.2529C21.4776 59.4429 21.5961 57.6014 20.7273 56.4539C19.7872 55.2059 17.7335 54.8514 14.953 55.4599C12.3779 56.0149 9.97648 55.3289 8.34928 53.5804C6.54033 51.6164 5.98743 48.7119 6.91953 45.9851C8.33343 41.8562 12.2672 41.2785 15.7429 40.7624C17.6466 40.485 19.4397 40.2232 20.6641 39.4297C21.5172 38.8751 22.0385 38.0123 22.1254 37.0032C22.2913 35.2546 21.1933 33.1747 19.0289 31.1411C16.3985 28.6684 15.5139 25.6642 16.525 22.6907C16.9278 21.4967 17.6388 20.4028 18.5471 19.463C18.8315 19.1703 19.1316 18.893 19.4554 18.6465C20.8772 17.5065 22.6151 16.7283 24.4398 16.5049C28.0261 16.0659 31.3674 17.7682 33.6108 21.1654C34.4797 22.4903 37.3233 23.4764 39.7563 22.8293C39.8116 22.8138 39.8748 22.7985 39.9301 22.7831C39.9854 22.7677 40.0327 22.7522 40.0881 22.7291C41.502 22.2592 43.1056 21.0345 43.0266 17.9532C42.9397 14.4945 44.9462 11.6981 48.1372 10.8122C48.8957 10.6043 49.7332 10.5119 50.5862 10.5735C51.6762 10.6428 52.7897 10.9433 53.8327 11.5441C54.9147 12.1603 55.9102 13.0924 56.6842 14.3942C58.2007 16.9286 57.4742 19.7865 56.8422 22.3132C56.2497 24.6472 55.7442 26.6654 56.9372 28.0058C58.5247 29.793 60.7207 29.508 63.7617 29.1151C66.3372 28.7761 69.2677 28.391 72.4902 29.2923C75.7292 30.2013 78.5017 32.6894 79.7497 35.7938C80.9662 38.852 80.6267 42.1567 78.7782 45.1147Z" fill="#A700F4"/>
<path d="M50.0887 67.6924C49.9782 67.7154 49.8752 67.7389 49.7727 67.7774C48.5717 68.2084 47.7107 69.5334 47.1422 71.8289C46.3127 75.2109 44.9222 80.8574 41.6048 82.7524C40.8307 83.1914 39.9934 83.4149 39.1087 83.4149C38.5794 83.4149 38.0345 83.3379 37.4736 83.1759C36.4467 82.8909 35.6647 82.3824 35.0959 81.7279C40.8939 82.2439 41.6838 79.1164 43.2162 71.6519C44.2827 66.4444 47.8767 66.8684 50.0887 67.6924Z" fill="#550082"/>
<path d="M40.0881 22.7297C37.5525 24.3936 32.4417 26.8279 28.9977 22.3523C25.5537 17.869 20.8536 18.6855 18.5471 19.4636C20.0874 17.8844 22.2044 16.7829 24.4398 16.5055C28.0261 16.0665 31.3674 17.7688 33.6108 21.166C34.5034 22.5217 37.4577 23.5232 39.9301 22.7837C39.9854 22.7683 40.0327 22.7528 40.0881 22.7297Z" fill="#550082"/>
<path d="M33.3185 66.5884C32.2127 66.0104 30.7751 66.3879 29.5586 67.5744C26.549 70.5094 23.6026 70.4014 21.8174 69.3384C23.6579 68.8454 25.1271 67.1659 27.4179 65.4869C29.8982 63.6764 32.3786 65.6564 33.3185 66.5884Z" fill="#550082"/>
<path d="M78.7782 45.1115C77.4352 47.253 75.2157 48.501 73.2647 49.595C69.6152 51.636 66.9847 53.115 69.9862 59.17C72.0322 63.291 71.2422 67.828 68.0272 70.463C65.8237 72.25 62.1502 73.1975 57.9637 71.056C68.2092 71.503 66.9137 64.7165 64.5437 57.7835C62.2407 51.046 67.7037 48.5395 70.8632 46.9988C74.0227 45.4582 76.3927 41.6066 74.8127 37.755C73.2327 33.9033 67.7817 33.133 63.7542 33.133C59.8042 33.133 55.0647 33.133 53.2797 30.7373C51.4942 28.3339 51.9052 27.7408 53.4852 20.0376C54.4882 15.1537 53.4852 11.564 50.5862 10.5703C52.8057 10.709 55.1677 11.8413 56.6842 14.391C58.2007 16.9255 57.4742 19.7833 56.8422 22.31C56.2497 24.644 55.7442 26.6622 56.9372 28.0027C58.5247 29.7898 60.7207 29.5048 63.7617 29.1119C66.3372 28.7729 69.2677 28.3879 72.4902 29.2891C75.7292 30.1981 78.5017 32.6862 79.7497 35.7906C80.9662 38.8488 80.6267 42.1535 78.7782 45.1115Z" fill="#550082"/>
<path d="M79.1907 76.2351L77.0997 58.3161C77.0707 58.0371 76.8882 57.7941 76.6342 57.6846L60.0677 50.5436C59.8147 50.4261 59.5182 50.4681 59.2937 50.6296L44.8197 61.4006C44.5942 61.5696 44.4817 61.8471 44.5112 62.1181L46.6027 80.0376C46.6392 80.3176 46.8142 80.5596 47.0682 80.6691L63.6337 87.8176C63.7092 87.8426 63.7772 87.8666 63.8467 87.8756C64.0487 87.9001 64.2517 87.8461 64.4087 87.7236L78.8827 76.9531C79.1077 76.7841 79.2277 76.5151 79.1907 76.2351ZM63.4122 82.6271L50.9802 77.2686L49.4182 63.8221L60.2887 55.7341L72.7222 61.0851L74.2837 74.5311L63.4122 82.6271Z" fill="#03D5DC"/>
<path d="M79.1907 76.2351L77.0997 58.3161C77.0707 58.0371 76.8882 57.7941 76.6342 57.6846L60.0677 50.5436C59.8147 50.4261 59.5182 50.4681 59.2937 50.6296L44.8197 61.4006C44.5942 61.5696 44.4817 61.8471 44.5112 62.1181L46.6027 80.0376C46.6392 80.3176 46.8142 80.5596 47.0682 80.6691L63.6337 87.8176C63.7092 87.8426 63.7772 87.8666 63.8467 87.8756C64.0487 87.9001 64.2517 87.8461 64.4087 87.7236L78.8827 76.9531C79.1077 76.7841 79.2277 76.5151 79.1907 76.2351ZM63.7092 85.2136L48.8927 78.8231L47.0262 62.7891L59.9847 53.1466L74.8097 59.5306L76.6757 75.5646L63.7092 85.2136Z" fill="#0195B7"/>
<path d="M62.3998 53.6701L60.3083 35.7506C60.2798 35.4716 60.0958 35.2366 59.8418 35.1267L43.2765 27.9782C43.0146 27.8673 42.7269 27.9029 42.5024 28.0643L28.0275 38.8428C27.803 39.0042 27.6826 39.2807 27.7191 39.5606L29.8104 57.4801C29.8392 57.7591 30.0228 57.9941 30.277 58.1041L46.8423 65.2521C46.9093 65.2841 46.9858 65.3016 47.0558 65.3101C47.2573 65.3346 47.4528 65.2801 47.6163 65.1661L62.0913 54.3876C62.3158 54.2261 62.4363 53.9501 62.3998 53.6701ZM46.6213 60.0616L34.1888 54.7031L32.6271 41.2568L43.4976 33.1688L55.9298 38.5272L57.4918 51.9736L46.6213 60.0616Z" fill="#0195B7"/>
<path d="M62.3998 53.6701L60.3083 35.7506C60.2798 35.4716 60.0958 35.2366 59.8418 35.1267L43.2765 27.9782C43.0146 27.8673 42.7269 27.9029 42.5024 28.0643L28.0275 38.8428C27.803 39.0042 27.6826 39.2807 27.7191 39.5606L29.8104 57.4801C29.8392 57.7591 30.0228 57.9941 30.277 58.1041L46.8423 65.2521C46.9093 65.2841 46.9858 65.3016 47.0558 65.3101C47.2573 65.3346 47.4528 65.2801 47.6163 65.1661L62.0913 54.3876C62.3158 54.2261 62.4363 53.9501 62.3998 53.6701ZM46.9218 62.6801L32.0752 56.2781L30.2051 40.212L43.197 30.5503L58.0433 36.9526L59.9138 53.0186L46.9218 62.6801Z" fill="#03D5DC"/>
<path d="M45.6073 31.1149L43.5159 13.1957C43.4793 12.9157 43.3043 12.6738 43.0503 12.5639L26.485 5.41554C26.2231 5.30464 25.9276 5.33919 25.71 5.50924L11.236 16.2801C11.0106 16.4492 10.8911 16.7179 10.9276 16.9979L13.0189 34.9172C13.0477 35.1962 13.2305 35.4389 13.4846 35.5488L30.0508 42.6895C30.1177 42.7213 30.1934 42.7465 30.2631 42.755C30.457 42.7788 30.6604 42.725 30.8248 42.6035L45.2988 31.8327C45.5243 31.6636 45.6368 31.3862 45.6073 31.1149ZM29.8297 37.4989L17.3965 32.1483L15.8348 18.7019L26.7061 10.6061L39.1384 15.9644L40.7001 29.411L29.8297 37.4989Z" fill="#03D5DC"/>
<path d="M45.6073 31.1149L43.5159 13.1957C43.4793 12.9157 43.3043 12.6738 43.0503 12.5639L26.485 5.41554C26.2231 5.30464 25.9276 5.33919 25.71 5.50924L11.236 16.2801C11.0106 16.4492 10.8911 16.7179 10.9276 16.9979L13.0189 34.9172C13.0477 35.1962 13.2305 35.4389 13.4846 35.5488L30.0508 42.6895C30.1177 42.7213 30.1934 42.7465 30.2631 42.755C30.457 42.7788 30.6604 42.725 30.8248 42.6035L45.2988 31.8327C45.5243 31.6636 45.6368 31.3862 45.6073 31.1149ZM30.1361 40.1341L15.2653 33.7366L13.3972 17.655L26.4007 7.96319L41.2695 14.3762L43.1377 30.4578L30.1361 40.1341Z" fill="#0195B7"/>
<path d="M29.2033 5.83537C27.9447 4.14537 25.5462 3.79292 23.8543 5.05137C23.0356 5.66097 22.5027 6.55307 22.3546 7.56357C22.2066 8.57367 22.4607 9.58117 23.0702 10.4003C23.7193 11.2715 24.6708 11.787 25.6727 11.9099C26.6138 12.0254 27.5998 11.7939 28.4192 11.1844C29.2387 10.5745 29.7709 9.68227 29.9189 8.67212C30.0669 7.66202 29.8129 6.65442 29.2033 5.83537Z" fill="#FBFAD4"/>
<path d="M29.9212 8.67198C29.767 9.67743 29.2419 10.5681 28.4192 11.1836C27.5975 11.7913 26.6147 12.0174 25.6738 11.9019C24.6721 11.779 23.7179 11.2692 23.0701 10.3963C22.7534 9.96463 22.5275 9.48253 22.4202 8.97638C22.8664 9.23143 23.3475 9.39058 23.8484 9.45203C24.7893 9.56743 25.7731 9.33378 26.5949 8.72598C27.409 8.11728 27.9417 7.22748 28.0892 6.21348C28.1631 5.73723 28.1449 5.25747 28.032 4.79688C28.4791 5.04428 28.883 5.39423 29.2064 5.83448C29.8151 6.64858 30.0687 7.65798 29.9212 8.67198Z" fill="#DDD685"/>
<path d="M44.5531 11.9339C43.9315 11.0991 43.0218 10.5558 41.9919 10.4049C40.9654 10.2444 39.9345 10.513 39.099 11.1349C37.3753 12.4186 37.017 14.865 38.3004 16.5882C38.9219 17.4237 39.8316 17.9668 40.8616 18.1177C40.8925 18.1222 40.9234 18.1264 40.9544 18.1302C41.9533 18.2528 42.9441 17.9909 43.7544 17.3877C45.4781 16.1047 45.8366 13.6579 44.5531 11.9339Z" fill="#FBFAD4"/>
<path d="M43.7518 17.3862C42.9467 17.9942 41.9563 18.2576 40.9505 18.1342L40.8576 18.1228C39.8323 17.9656 38.9241 17.4302 38.2966 16.5913C37.9669 16.1425 37.7443 15.6519 37.6262 15.1425C38.0444 15.3823 38.5031 15.5485 38.9974 15.617L39.0902 15.6284C40.0883 15.7508 41.0865 15.4886 41.8906 14.8882C43.1695 13.9377 43.6948 12.345 43.3637 10.8828C43.8265 11.1438 44.2306 11.4996 44.5536 11.9398C45.8346 13.6599 45.4796 16.106 43.7518 17.3862Z" fill="#DDD685"/>
<path d="M46.6791 27.8792C45.3971 26.1583 42.955 25.7993 41.2322 27.0808C40.3977 27.7018 39.8557 28.6105 39.705 29.6391C39.5542 30.6681 39.813 31.6936 40.4337 32.5277C41.0947 33.4149 42.0636 33.9402 43.0838 34.0654C44.0421 34.1829 45.0461 33.9468 45.8806 33.3262C46.7141 32.7054 47.2571 31.7968 47.4076 30.7678C47.5586 29.7392 47.2996 28.7133 46.6791 27.8792Z" fill="#FBFAD4"/>
<path d="M47.4067 30.7663C47.2567 31.7989 46.7142 32.705 45.8772 33.3239C45.0482 33.9438 44.0387 34.1807 43.0807 34.0632C42.0607 33.938 41.0977 33.412 40.4381 32.5232C40.1069 32.0904 39.8846 31.6004 39.7676 31.084C40.2143 31.3428 40.7119 31.5058 41.2219 31.5684C42.1801 31.6859 43.1896 31.449 44.0187 30.8291C44.8552 30.2102 45.3987 29.2964 45.5482 28.2715C45.6167 27.7779 45.5982 27.2893 45.4832 26.8203C45.9372 27.08 46.3497 27.4285 46.6787 27.8768C47.2977 28.7136 47.5562 29.7414 47.4067 30.7663Z" fill="#DDD685"/>
<path d="M60.0302 39.2481C59.4002 39.7136 58.6307 39.918 57.8557 39.8229L57.7837 39.8141C56.9807 39.6973 56.2762 39.2754 55.7942 38.6308C55.3072 37.9794 55.1062 37.1803 55.2282 36.3842C55.3102 35.8148 55.5442 35.3008 55.9072 34.8757C56.0512 34.6982 56.2232 34.5364 56.4117 34.3948C56.6662 34.2065 56.9407 34.0571 57.2342 33.9529L57.2402 33.9536C57.6867 33.795 58.1677 33.7503 58.6587 33.8228C59.4612 33.9456 60.1662 34.3615 60.6477 35.0121C61.6417 36.3538 61.3662 38.2532 60.0302 39.2481Z" fill="#FBFAD4"/>
<path d="M60.0302 39.2529C59.3997 39.7184 58.6307 39.9228 57.8557 39.8278L57.7837 39.8189C56.9807 39.7021 56.2762 39.2802 55.7942 38.6356C55.5427 38.2998 55.3637 37.9181 55.2727 37.5166C55.5982 37.6968 55.9547 37.8259 56.3322 37.8783L56.4042 37.8872C57.1857 37.983 57.9547 37.7785 58.5792 37.3123C59.5787 36.569 59.9867 35.3322 59.7177 34.1953C60.0772 34.398 60.3907 34.6744 60.6477 35.0169C61.6417 36.3586 61.3662 38.2581 60.0302 39.2529Z" fill="#DDD685"/>
<path d="M63.2937 50.5786C62.0852 48.9561 59.7827 48.6176 58.1582 49.8261C57.3717 50.4116 56.8602 51.2681 56.7182 52.2381C56.5757 53.2081 56.8197 54.1756 57.4052 54.9621C58.0282 55.7986 58.9417 56.2936 59.9037 56.4116C60.8077 56.5221 61.7542 56.3001 62.5412 55.7146C63.3272 55.1291 63.8387 54.2726 63.9807 53.3026C64.1227 52.3326 63.8792 51.3651 63.2937 50.5786Z" fill="#FBFAD4"/>
<path d="M63.9786 53.3064C63.8376 54.2729 63.3261 55.1269 62.5436 55.7189C61.7546 56.3024 60.8101 56.5269 59.9066 56.4159C58.9446 56.2979 58.0296 55.8009 57.4076 54.9629C57.0956 54.5549 56.8856 54.0929 56.7756 53.6059C57.1976 53.8429 57.6666 53.9964 58.1476 54.0554C59.0511 54.1664 60.0021 53.9504 60.7846 53.3584C61.5736 52.7749 62.0851 51.9204 62.2266 50.9469C62.2901 50.4889 62.2731 50.0284 62.1646 49.5859C62.5936 49.8234 62.9816 50.1594 63.2921 50.5819C63.8766 51.3639 64.1201 52.3329 63.9786 53.3064Z" fill="#DDD685"/>
<path d="M77.0078 62.0624C76.3128 62.5754 75.4648 62.8009 74.6098 62.6959L74.5303 62.6864C73.6453 62.5574 72.8683 62.0924 72.3373 61.3749C71.8068 60.6574 71.5843 59.7829 71.7133 58.8974C71.8128 58.1964 72.1328 57.5634 72.6108 57.0639C72.7348 56.9309 72.8703 56.8129 73.0183 56.7034C73.3213 56.4784 73.6588 56.3044 74.0083 56.1994C74.4848 56.0429 74.9878 55.9969 75.4958 56.0794C76.3813 56.2079 77.1578 56.6734 77.6888 57.3909C78.7923 58.8644 78.4818 60.9584 77.0078 62.0624Z" fill="#FBFAD4"/>
<path d="M77.0078 62.0684C76.3128 62.5819 75.4648 62.8074 74.6098 62.7024L74.5303 62.6929C73.6448 62.5639 72.8683 62.0989 72.3373 61.3814C72.0608 61.0044 71.8693 60.5909 71.7693 60.1479C72.1273 60.3534 72.5208 60.4889 72.9373 60.5469C72.9638 60.5504 72.9898 60.5599 73.0163 60.5634C73.8708 60.6679 74.7193 60.4424 75.4153 59.9229C76.5103 59.1089 76.9608 57.7384 76.6643 56.4844C77.0603 56.7079 77.4123 57.0204 77.6888 57.3974C78.7923 58.8709 78.4818 60.9649 77.0078 62.0684Z" fill="#DDD685"/>
<path d="M79.8033 73.3465C79.2743 72.636 78.5003 72.174 77.6238 72.0455C76.7523 71.912 75.8733 72.137 75.1628 72.666C73.6963 73.7575 73.3913 75.8395 74.4823 77.3065C75.0453 78.063 75.8708 78.51 76.7403 78.6165C77.5573 78.717 78.4128 78.5155 79.1228 77.987C79.8338 77.4575 80.2953 76.6835 80.4238 75.8075C80.5523 74.9305 80.3318 74.057 79.8033 73.3465Z" fill="#FBFAD4"/>
<path d="M80.4213 75.8068C80.2933 76.6868 79.8308 77.4583 79.1248 77.9868C78.4108 78.5203 77.5583 78.7168 76.7418 78.6163C75.8728 78.5098 75.0453 78.0678 74.4833 77.3103C74.2018 76.9348 74.0133 76.5108 73.9128 76.0778C74.2998 76.2988 74.7238 76.4378 75.1583 76.4908C75.9748 76.5913 76.8283 76.3883 77.5413 75.8613C78.2473 75.3333 78.7103 74.5548 78.8378 73.6813C78.8958 73.2608 78.8803 72.8448 78.7823 72.4453C79.1758 72.6673 79.5198 72.9698 79.8008 73.3453C80.3348 74.0588 80.5548 74.9348 80.4213 75.8068Z" fill="#DDD685"/>
<path d="M15.2566 18.8006C15.3703 18.0242 15.1751 17.2498 14.7065 16.6202C13.7384 15.3214 11.8955 15.0499 10.595 16.0175C9.96573 16.4861 9.55608 17.1718 9.44228 17.9485C9.32853 18.725 9.52378 19.4994 9.99233 20.129C10.4912 20.7987 11.2225 21.1952 11.9926 21.2896C12.716 21.3784 13.4739 21.2002 14.1038 20.7317C14.7331 20.2631 15.1427 19.5773 15.2566 18.8006Z" fill="#FBFAD4"/>
<path d="M15.2572 18.7989C15.1439 19.5784 14.7344 20.2622 14.1027 20.7295C13.4769 21.1974 12.7149 21.3763 11.9916 21.2875C11.2216 21.1931 10.489 20.7953 9.99037 20.1302C9.74692 19.7984 9.57912 19.4285 9.49072 19.0388C9.83372 19.2348 10.2036 19.3572 10.5886 19.4044C11.3118 19.4931 12.068 19.3135 12.6996 18.8463C13.3313 18.3792 13.7416 17.6894 13.8542 16.9158C13.9058 16.5432 13.8919 16.1744 13.8051 15.8203C14.1481 16.0163 14.4592 16.2795 14.7078 16.6179C15.175 17.2495 15.3699 18.0253 15.2572 18.7989Z" fill="#DDD685"/>
<path d="M15.6702 29.9993C14.6446 29.8371 13.6156 30.1073 12.7811 30.7283C11.0597 32.01 10.7019 34.4531 11.9828 36.1748C12.6035 37.0088 13.512 37.5512 14.5413 37.702C14.5722 37.7065 14.6031 37.7107 14.6341 37.7145C15.6317 37.8369 16.6212 37.5753 17.4296 36.9733C18.2633 36.3525 18.806 35.4439 18.9568 34.4149C19.1075 33.3863 18.8488 32.3604 18.2281 31.5263C17.6073 30.6926 16.6988 30.15 15.6702 29.9993Z" fill="#FBFAD4"/>
<path d="M18.9541 34.4224C18.8048 35.4473 18.2613 36.3611 17.4323 36.981C16.6215 37.5796 15.6324 37.8425 14.6356 37.7202L14.5428 37.7088C13.5102 37.5586 12.6042 37.016 11.9853 36.1793C11.6549 35.7388 11.4326 35.2488 11.3147 34.7402C11.7323 34.9797 12.1915 35.1379 12.6841 35.2141L12.7768 35.2254C13.7736 35.3477 14.7628 35.0848 15.5667 34.4775C16.4034 33.8586 16.946 32.9524 17.0962 31.9198C17.1646 31.4262 17.1462 30.9377 17.0312 30.4688C17.4934 30.7294 17.8959 31.0924 18.2261 31.5329C18.845 32.3696 19.1043 33.3898 18.9541 34.4224Z" fill="#DDD685"/>
<path d="M32.7609 40.9075C32.6448 41.7044 32.2222 42.4149 31.5776 42.8969C30.927 43.3781 30.1481 43.5631 29.4031 43.4717C28.61 43.3744 27.8552 42.9647 27.3423 42.2736C26.8604 41.629 26.6595 40.8298 26.7763 40.0269C26.8924 39.23 27.3143 38.5256 27.9596 38.0376C28.0473 37.9691 28.1395 37.9133 28.2378 37.8582L28.2445 37.853C28.402 37.7625 28.5639 37.6848 28.7297 37.6258C28.7424 37.6213 28.7553 37.6168 28.774 37.613C29.9909 37.1891 31.3883 37.58 32.1949 38.6608C32.6829 39.3062 32.8837 40.1054 32.7609 40.9075Z" fill="#FBFAD4"/>
<path d="M32.7608 40.9119C32.6448 41.7088 32.2221 42.4193 31.5775 42.9013C30.9269 43.3825 30.148 43.5675 29.403 43.4761C28.6099 43.3788 27.8552 42.969 27.3423 42.278C27.0907 41.9422 26.9179 41.5612 26.8269 41.1597C27.181 41.3556 27.5619 41.4816 27.9585 41.5303C28.7034 41.6217 29.4817 41.4427 30.1331 40.9554C30.7777 40.4735 31.1995 39.7689 31.3163 38.966C31.3687 38.5882 31.3544 38.2084 31.2649 37.8438C31.619 38.0396 31.9388 38.3167 32.1948 38.6653C32.6828 39.3106 32.8836 40.1098 32.7608 40.9119Z" fill="#DDD685"/>
<path d="M35.5266 56.9449C35.385 57.9184 34.8735 58.7724 34.0918 59.3569C33.3265 59.9289 32.3937 60.1769 31.4539 60.0614L31.3665 60.0509C30.3938 59.9019 29.5386 59.3974 28.955 58.6084C27.7559 56.9899 28.0811 54.6999 29.679 53.4909C29.6872 53.4844 29.6953 53.4779 29.7034 53.4719C29.9725 53.2679 30.2663 53.1044 30.5765 52.9874C31.1586 52.7629 31.7894 52.6849 32.4279 52.7854C33.4015 52.9269 34.2559 53.4384 34.8403 54.2204C35.4312 55.0104 35.6747 55.9794 35.5266 56.9449Z" fill="#FBFAD4"/>
<path d="M35.5267 56.9476C35.385 57.9211 34.8735 58.7751 34.0919 59.3596C33.3266 59.9316 32.3938 60.1796 31.454 60.0641L31.3666 60.0536C30.3939 59.9046 29.5387 59.4001 28.9551 58.6111C28.6437 58.1961 28.4413 57.7346 28.3301 57.2551C28.7239 57.4811 29.1567 57.6301 29.6149 57.6936L29.7023 57.7046C30.6423 57.8196 31.5748 57.5721 32.3393 57.0076C33.1209 56.4231 33.6325 55.5686 33.7741 54.5951C33.8386 54.1296 33.8212 53.6691 33.7127 53.2266C34.1485 53.4726 34.5363 53.8086 34.8404 54.2231C35.4313 55.0131 35.6747 55.9821 35.5267 56.9476Z" fill="#DDD685"/>
<path d="M49.8646 63.5154C49.9936 62.6334 49.7721 61.7534 49.2396 61.0384C48.1406 59.5629 46.0466 59.2554 44.5691 60.3539C43.8544 60.8859 43.3891 61.6649 43.2598 62.5474C43.1306 63.4294 43.3524 64.3089 43.8847 65.0244C44.4516 65.7849 45.2821 66.2349 46.1571 66.3424C46.9786 66.4429 47.8396 66.2409 48.5551 65.7089C49.2706 65.1764 49.7351 64.3974 49.8646 63.5154Z" fill="#FBFAD4"/>
<path d="M49.8677 63.5171C49.7322 64.4016 49.2737 65.1796 48.5562 65.7101C47.8382 66.2476 46.9797 66.4451 46.1582 66.3441C45.2837 66.2366 44.4507 65.7916 43.8849 65.0296C43.6083 64.6526 43.4177 64.2326 43.3174 63.7896C43.707 64.0126 44.1272 64.1511 44.5642 64.2051C45.3862 64.3056 46.2452 64.1016 46.9622 63.5711C47.6732 63.0396 48.1392 62.2561 48.2672 61.3771C48.3327 60.9546 48.3167 60.5361 48.2172 60.1406C48.6067 60.3631 48.9532 60.6676 49.2362 61.0456C49.7742 61.7571 49.9957 62.6386 49.8677 63.5171Z" fill="#DDD685"/>
<path d="M49.1727 75.6922C48.2982 75.5632 47.4222 75.7842 46.7112 76.3132C45.2447 77.4047 44.9397 79.4867 46.0317 80.9532C46.5607 81.6637 47.3347 82.1257 48.2107 82.2542C48.2372 82.2582 48.2632 82.2617 48.2897 82.2652C49.1397 82.3692 49.9827 82.1467 50.6722 81.6332C52.1387 80.5412 52.4437 78.4597 51.3517 76.9932C50.8227 76.2827 50.0487 75.8207 49.1727 75.6922Z" fill="#FBFAD4"/>
<path d="M50.6718 81.6342C49.9813 82.1442 49.1388 82.3682 48.2893 82.2642L48.2103 82.2542C47.3373 82.1272 46.5588 81.6642 46.0313 80.9512C45.7498 80.5762 45.5663 80.1657 45.4658 79.7327C45.8218 79.9367 46.2128 80.0712 46.6268 80.1287L46.7058 80.1387C47.5548 80.2427 48.3978 80.0188 49.0883 79.5088C50.1773 78.6933 50.6243 77.3383 50.3358 76.0938C50.7298 76.3158 51.0733 76.6182 51.3548 76.9937C52.4443 78.4637 52.1353 80.5442 50.6718 81.6342Z" fill="#DDD685"/>
<path d="M61.1526 82.6341C59.5211 83.8481 59.1811 86.1636 60.3956 87.7961C61.0221 88.6371 61.9411 89.1346 62.9071 89.2531C63.8161 89.3646 64.7671 89.1406 65.5576 88.5526C66.3476 87.9641 66.8621 87.1031 67.0051 86.1281C67.1476 85.1531 66.9026 84.1811 66.3146 83.3906C65.0991 81.7601 62.7851 81.4201 61.1526 82.6341Z" fill="#FBFAD4"/>
<path d="M67.0073 86.1301C66.8648 87.1091 66.3503 87.9676 65.5578 88.5541C64.7643 89.1406 63.8153 89.3661 62.9073 89.2546C61.9403 89.1361 61.0208 88.6366 60.3953 87.7946C60.0823 87.3771 59.8718 86.9126 59.7598 86.4306C60.1908 86.6766 60.6623 86.8311 61.1458 86.8906C62.0538 87.0016 63.0028 86.7761 63.7958 86.1896C64.5898 85.5961 65.0968 84.7366 65.2453 83.7661C65.3103 83.2981 65.2928 82.8351 65.1838 82.3906C65.6143 82.6371 65.9968 82.9736 66.3173 83.3921C66.9038 84.1851 67.1493 85.1516 67.0073 86.1301Z" fill="#DDD685"/>
</svg>
