<svg width="200" height="200" viewBox="0 0 200 200" fill="none" xmlns="http://www.w3.org/2000/svg">
<path d="M165.625 145.625C165.625 145.625 165.625 153.125 156.25 153.125C154.964 153.128 153.692 152.866 152.512 152.357C151.332 151.847 150.269 151.1 149.39 150.162C148.51 149.224 147.834 148.115 147.401 146.905C146.968 145.694 146.789 144.408 146.875 143.125C146.875 130.625 156.25 128.125 156.25 128.125V140.625C156.226 140.947 156.27 141.271 156.377 141.576C156.484 141.88 156.653 142.16 156.873 142.396C157.092 142.633 157.359 142.822 157.655 142.951C157.951 143.08 158.271 143.146 158.594 143.146C158.917 143.146 159.236 143.08 159.532 142.951C159.829 142.822 160.095 142.633 160.315 142.396C160.535 142.16 160.704 141.88 160.811 141.576C160.918 141.271 160.961 140.947 160.938 140.625V138.125C160.938 138.125 165.625 138.125 165.625 145.625Z" fill="#F7B255"/>
<path d="M106.25 96.875V190.625C106.245 192.281 105.585 193.868 104.414 195.039C103.243 196.21 101.656 196.87 100 196.875C98.3462 196.863 96.7636 196.2 95.5941 195.031C94.4247 193.861 93.7623 192.279 93.75 190.625V96.875H106.25ZM106.25 37.5V43.75H93.75V37.5C93.7549 35.8439 94.415 34.2571 95.586 33.086C96.7571 31.915 98.3439 31.2549 100 31.25C101.654 31.2623 103.236 31.9247 104.406 33.0941C105.575 34.2636 106.238 35.8462 106.25 37.5Z" fill="#AEB8C1"/>
<path d="M106.25 56.25H93.75V84.375H106.25V56.25Z" fill="#AEB8C1"/>
<path d="M184.375 171.875V190.625C184.37 192.281 183.71 193.868 182.539 195.039C181.368 196.21 179.781 196.87 178.125 196.875H134.375C132.719 196.87 131.132 196.21 129.961 195.039C128.79 193.868 128.13 192.281 128.125 190.625V171.875H184.375Z" fill="#80BEFF"/>
<path d="M109.375 50V56.25H106.25H93.75H90.625V43.75H93.75H106.25H109.375V50Z" fill="#0867D3"/>
<path d="M93.75 84.375H106.25H109.375V96.875H106.25H93.75H90.625V90.625V84.375H93.75Z" fill="#0867D3"/>
<path d="M175 87.4998H184.187C184.313 88.5367 184.376 89.5803 184.375 90.6248C184.375 98.084 181.412 105.238 176.137 110.512C170.863 115.787 163.709 118.75 156.25 118.75C148.791 118.75 141.637 115.787 136.363 110.512C131.088 105.238 128.125 98.084 128.125 90.6248H140.625C140.625 88.9672 141.283 87.3775 142.456 86.2054C143.628 85.0333 145.217 84.3748 146.875 84.3748C148.533 84.3748 150.122 85.0333 151.294 86.2054C152.467 87.3775 153.125 88.9672 153.125 90.6248H159.719C160.456 90.6232 161.162 90.3296 161.684 89.8084C162.205 89.2872 162.498 88.5807 162.5 87.8436C162.456 86.4781 162.848 85.1341 163.617 84.0052C164.386 82.8764 165.494 82.021 166.781 81.5623C167.721 81.2504 168.721 81.1663 169.7 81.3168C170.679 81.4672 171.607 81.8481 172.41 82.4279C173.213 83.0077 173.866 83.7699 174.316 84.6517C174.767 85.5335 175.001 86.5097 175 87.4998Z" fill="#0867D3"/>
<path d="M165.625 34.375V43.75H146.875V34.375H145.312C144.069 34.375 142.877 33.8811 141.998 33.0021C141.119 32.123 140.625 30.9307 140.625 29.6875C140.625 28.4443 141.119 27.252 141.998 26.3729C142.877 25.4939 144.069 25 145.312 25H167.188C168.431 25 169.623 25.4939 170.502 26.3729C171.381 27.252 171.875 28.4443 171.875 29.6875C171.875 30.9307 171.381 32.123 170.502 33.0021C169.623 33.8811 168.431 34.375 167.188 34.375H165.625ZM146.875 84.375C145.219 84.3799 143.632 85.04 142.461 86.211C141.29 87.3821 140.63 88.9689 140.625 90.625H128.125C128.128 84.8117 129.933 79.1423 133.291 74.3968C136.648 69.6513 141.394 66.0628 146.875 64.125V56.25H165.625V64.125C170.603 65.8839 174.984 69.0095 178.267 73.1437C181.55 77.2779 183.602 82.2534 184.187 87.5H175C175.001 86.5099 174.767 85.5337 174.316 84.6519C173.866 83.7701 173.213 83.0079 172.41 82.4281C171.607 81.8483 170.679 81.4674 169.7 81.3169C168.721 81.1664 167.721 81.2506 166.781 81.5625C165.494 82.0212 164.386 82.8766 163.617 84.0054C162.848 85.1343 162.456 86.4783 162.5 87.8438C162.498 88.5809 162.205 89.2873 161.684 89.8086C161.162 90.3298 160.456 90.6234 159.719 90.625H153.125C153.12 88.9689 152.46 87.3821 151.289 86.211C150.118 85.04 148.531 84.3799 146.875 84.375Z" fill="#E9EFFB"/>
<path d="M46.875 65.625H57.8125C59.0557 65.625 60.248 66.1189 61.1271 66.9979C62.0061 67.877 62.5 69.0693 62.5 70.3125C62.5 71.5557 62.0061 72.748 61.1271 73.6271C60.248 74.5061 59.0557 75 57.8125 75H56.25V84.375H37.5V75H35.9375C34.6943 75 33.502 74.5061 32.6229 73.6271C31.7439 72.748 31.25 71.5557 31.25 70.3125C31.25 69.0693 31.7439 67.877 32.6229 66.9979C33.502 66.1189 34.6943 65.625 35.9375 65.625H46.875Z" fill="#C3DDFF"/>
<path d="M37.5 110.594V96.875H56.25V110.594C65.3474 112.927 73.2348 118.596 78.3465 126.475C83.4583 134.354 85.4205 143.866 83.8437 153.125H9.90624C8.32948 143.866 10.2917 134.354 15.4034 126.475C20.5152 118.596 28.4026 112.927 37.5 110.594ZM46.875 143.75C48.5937 143.75 50 141.875 50 139.594C49.3563 136.679 48.3042 133.87 46.875 131.25C45.4457 133.87 44.3937 136.679 43.75 139.594C43.75 141.875 45.1562 143.75 46.875 143.75ZM50 117.719C49.3563 114.804 48.3042 111.995 46.875 109.375C45.4457 111.995 44.3937 114.804 43.75 117.719C43.75 120 45.1562 121.875 46.875 121.875C48.5937 121.875 50 120 50 117.719Z" fill="#E9EFFB"/>
<path d="M46.875 109.375C48.3042 111.995 49.3563 114.804 50 117.719C50 120 48.5938 121.875 46.875 121.875C45.1562 121.875 43.75 120 43.75 117.719C44.3937 114.804 45.4458 111.995 46.875 109.375ZM46.875 131.25C48.3042 133.87 49.3563 136.679 50 139.594C50 141.875 48.5938 143.75 46.875 143.75C45.1562 143.75 43.75 141.875 43.75 139.594C44.3937 136.679 45.4458 133.87 46.875 131.25ZM83.8438 153.125C82.3585 161.855 77.832 169.777 71.0657 175.489C64.2995 181.202 55.7301 184.335 46.875 184.335C38.0199 184.335 29.4505 181.202 22.6843 175.489C15.918 169.777 11.3915 161.855 9.90625 153.125H83.8438Z" fill="#9CC7FF"/>
<path d="M165.625 156.25H146.875C136.531 156.25 128.125 162.5 128.125 168.75V171.875H184.375V168.75C184.375 162.5 175.969 156.25 165.625 156.25Z" fill="#DBEAFF"/>
<path d="M137.5 46.875H109.375V53.125H137.5V46.875Z" fill="#8D949C"/>
<path d="M90.625 87.5H65.625V93.75H90.625V87.5Z" fill="#8D949C"/>
<path d="M50 65.6251H43.75V14.0626C43.7541 10.3343 45.237 6.75983 47.8734 4.1235C50.5097 1.48716 54.0842 0.00425413 57.8125 0.000118426C61.5383 0.0124761 65.108 1.49803 67.7425 4.13258C70.3771 6.76714 71.8626 10.3368 71.875 14.0626V18.7501C71.875 19.5789 72.2042 20.3738 72.7903 20.9598C73.3763 21.5459 74.1712 21.8751 75 21.8751C75.4035 21.8792 75.8037 21.8015 76.1764 21.6469C76.5491 21.4922 76.8867 21.2637 77.1688 20.9751C77.4719 20.6894 77.7132 20.3445 77.8777 19.9618C78.0422 19.5791 78.1264 19.1667 78.125 18.7501V9.37512C78.125 6.88871 79.1127 4.50415 80.8709 2.74599C82.629 0.987839 85.0136 0.000118426 87.5 0.000118426C88.738 -0.00616278 89.9645 0.23748 91.1061 0.716455C92.2477 1.19543 93.2809 1.89988 94.1437 2.78762C95.0168 3.64691 95.7084 4.67276 96.1775 5.80434C96.6467 6.93591 96.8839 8.15017 96.875 9.37512V18.7501C96.875 19.5789 97.2042 20.3738 97.7903 20.9598C98.3763 21.5459 99.1712 21.8751 100 21.8751C100.404 21.8792 100.804 21.8015 101.176 21.6469C101.549 21.4922 101.887 21.2637 102.169 20.9751C102.472 20.6894 102.713 20.3445 102.878 19.9618C103.042 19.5791 103.126 19.1667 103.125 18.7501V9.37512C103.125 6.88871 104.113 4.50415 105.871 2.74599C107.629 0.987839 110.014 0.000118426 112.5 0.000118426C113.738 -0.00616278 114.965 0.23748 116.106 0.716455C117.248 1.19543 118.281 1.89988 119.144 2.78762C120.017 3.64691 120.708 4.67276 121.178 5.80434C121.647 6.93591 121.884 8.15017 121.875 9.37512V18.7501C121.875 19.5789 122.204 20.3738 122.79 20.9598C123.376 21.5459 124.171 21.8751 125 21.8751C125.404 21.8792 125.804 21.8015 126.176 21.6469C126.549 21.4922 126.887 21.2637 127.169 20.9751C127.472 20.6894 127.713 20.3445 127.878 19.9618C128.042 19.5791 128.126 19.1667 128.125 18.7501V15.6251C128.125 11.4811 129.771 7.50683 132.701 4.57658C135.632 1.64632 139.606 0.000118426 143.75 0.000118426C147.894 0.000118426 151.868 1.64632 154.799 4.57658C157.729 7.50683 159.375 11.4811 159.375 15.6251V25.0001H153.125V15.6251C153.125 13.1387 152.137 10.7541 150.379 8.99599C148.621 7.23784 146.236 6.25012 143.75 6.25012C141.264 6.25012 138.879 7.23784 137.121 8.99599C135.363 10.7541 134.375 13.1387 134.375 15.6251V18.7501C134.363 21.2327 133.371 23.6101 131.616 25.3656C129.86 27.1211 127.483 28.1128 125 28.1251C122.514 28.1251 120.129 27.1374 118.371 25.3792C116.613 23.6211 115.625 21.2365 115.625 18.7501V9.37512C115.629 8.9716 115.551 8.57144 115.397 8.19872C115.242 7.826 115.014 7.48844 114.725 7.20637C114.439 6.9032 114.094 6.66191 113.712 6.49743C113.329 6.33294 112.917 6.24877 112.5 6.25012C111.671 6.25012 110.876 6.57936 110.29 7.16541C109.704 7.75146 109.375 8.54632 109.375 9.37512V18.7501C109.363 21.2327 108.371 23.6101 106.616 25.3656C104.86 27.1211 102.483 28.1128 100 28.1251C97.5136 28.1251 95.129 27.1374 93.3709 25.3792C91.6127 23.6211 90.625 21.2365 90.625 18.7501V9.37512C90.6291 8.9716 90.5514 8.57144 90.3968 8.19872C90.2421 7.826 90.0136 7.48844 89.725 7.20637C89.4393 6.9032 89.0944 6.66191 88.7117 6.49743C88.329 6.33294 87.9166 6.24877 87.5 6.25012C86.6712 6.25012 85.8763 6.57936 85.2903 7.16541C84.7042 7.75146 84.375 8.54632 84.375 9.37512V18.7501C84.3627 21.2327 83.371 23.6101 81.6155 25.3656C79.86 27.1211 77.4826 28.1128 75 28.1251C72.5136 28.1251 70.129 27.1374 68.3709 25.3792C66.6127 23.6211 65.625 21.2365 65.625 18.7501V14.0626C65.6119 11.9947 64.7846 10.0151 63.3223 8.55283C61.86 7.09054 59.8805 6.26323 57.8125 6.25012C55.7405 6.25012 53.7534 7.07322 52.2882 8.53835C50.8231 10.0035 50 11.9906 50 14.0626V65.6251Z" fill="#0867D3"/>
<path d="M50 75H43.75V84.375H50V75Z" fill="#143D73"/>
<path d="M175 43.75H137.5V56.25H175V43.75Z" fill="#AEB8C1"/>
<path d="M65.625 84.375H28.125V96.875H65.625V84.375Z" fill="#AEB8C1"/>
<path d="M93.75 96.875V190.625C93.7623 192.279 94.4247 193.861 95.5941 195.031C96.7636 196.2 98.3462 196.863 100 196.875C101.656 196.87 103.243 196.21 104.414 195.039C105.585 193.868 106.245 192.281 106.25 190.625V187.5C106.25 188.329 105.921 189.124 105.335 189.71C104.749 190.296 103.954 190.625 103.125 190.625C102.296 190.625 101.501 190.296 100.915 189.71C100.329 189.124 100 188.329 100 187.5V109.375C100 107.717 100.658 106.128 101.831 104.956C103.003 103.783 104.592 103.125 106.25 103.125V96.875H93.75ZM106.25 56.25H93.75V84.375H100V68.75C100 67.0924 100.658 65.5027 101.831 64.3306C103.003 63.1585 104.592 62.5 106.25 62.5V56.25ZM103.125 40.625C102.296 40.625 101.501 40.2958 100.915 39.7097C100.329 39.1237 100 38.3288 100 37.5V31.25C98.3439 31.2549 96.7571 31.915 95.586 33.086C94.415 34.2571 93.7549 35.8439 93.75 37.5V43.75H106.25V40.625H103.125Z" fill="#8D949C"/>
<path d="M37.5 84.375C37.5 86.0326 38.1585 87.6223 39.3306 88.7944C40.5027 89.9665 42.0924 90.625 43.75 90.625H65.625V96.875H28.125V84.375H37.5ZM146.875 43.75C146.875 45.4076 147.533 46.9973 148.706 48.1694C149.878 49.3415 151.467 50 153.125 50H175V56.25H137.5V43.75H146.875Z" fill="#98A0A8"/>
<path d="M157.759 169.129C157.795 168.995 157.812 168.857 157.812 168.719V153.044C157.293 153.098 156.772 153.125 156.25 153.125C155.725 153.109 155.203 153.049 154.687 152.947V168.594C154.672 168.654 154.659 168.707 154.65 168.763C154.507 169.674 154.308 170.576 154.053 171.463C154.019 171.591 153.972 171.738 153.931 171.875H157.169C157.466 170.769 157.65 169.779 157.759 169.129Z" fill="#0C62D9"/>
<path d="M175 185.938H148.438C147.609 185.938 146.814 185.608 146.228 185.022C145.642 184.436 145.312 183.641 145.312 182.812C145.312 181.984 145.642 181.189 146.228 180.603C146.814 180.017 147.609 179.688 148.438 179.688H150C153.256 179.688 155.769 177.059 157.062 172.312C157.106 172.153 157.128 172.028 157.169 171.875H153.931C153.359 173.794 152.163 176.562 150 176.562H148.438C146.78 176.562 145.19 177.221 144.018 178.393C142.846 179.565 142.188 181.155 142.188 182.812C142.188 184.47 142.846 186.06 144.018 187.232C145.19 188.404 146.78 189.062 148.438 189.062H175C175.414 189.062 175.812 188.898 176.105 188.605C176.398 188.312 176.562 187.914 176.562 187.5C176.562 187.086 176.398 186.688 176.105 186.395C175.812 186.102 175.414 185.938 175 185.938Z" fill="#143D73"/>
<path d="M157.812 156.25H154.688V159.375H157.812V156.25Z" fill="#DBEAFF"/>
<path d="M178.125 171.875H165.625V196.875H178.125V171.875Z" fill="#A0D3FF"/>
<path d="M165.625 168.75V171.875H178.125V168.75C178.125 165.435 176.808 162.255 174.464 159.911C172.12 157.567 168.94 156.25 165.625 156.25H153.125C156.44 156.25 159.62 157.567 161.964 159.911C164.308 162.255 165.625 165.435 165.625 168.75Z" fill="#EEF7FF"/>
<path d="M137.5 190.625V171.875H128.125V190.625C128.13 192.281 128.79 193.868 129.961 195.039C131.132 196.21 132.719 196.87 134.375 196.875H143.75C142.094 196.87 140.507 196.21 139.336 195.039C138.165 193.868 137.505 192.281 137.5 190.625Z" fill="#63A6EC"/>
<path d="M137.5 168.75C137.5 162.941 144.769 157.137 154.1 156.347C153.788 156.322 153.475 156.25 153.125 156.25H146.875C136.531 156.25 128.125 162.5 128.125 168.75V171.875H137.5V168.75Z" fill="#C3DDFF"/>
<path d="M175 185.938H165.625V189.062H175C175.414 189.062 175.812 188.898 176.105 188.605C176.398 188.312 176.562 187.914 176.562 187.5C176.562 187.086 176.398 186.688 176.105 186.395C175.812 186.102 175.414 185.938 175 185.938Z" fill="#0C62D9"/>
<path d="M162.5 148.438C162.247 146.276 161.428 144.221 160.125 142.478C159.717 142.882 159.168 143.114 158.594 143.125C157.953 143.101 157.347 142.824 156.908 142.356C156.47 141.888 156.233 141.266 156.25 140.625V137.5C156.25 137.5 150 144.122 150 148.438C149.943 149.481 150.214 150.516 150.775 151.397C152.414 152.448 154.304 153.045 156.25 153.125C157.718 153.153 159.179 152.922 160.566 152.441C161.249 152.041 161.798 151.447 162.143 150.734C162.487 150.021 162.611 149.221 162.5 148.438Z" fill="#EF7127"/>
<path d="M57.8125 65.625H35.9375C33.3487 65.625 31.25 67.7237 31.25 70.3125C31.25 72.9013 33.3487 75 35.9375 75H57.8125C60.4013 75 62.5 72.9013 62.5 70.3125C62.5 67.7237 60.4013 65.625 57.8125 65.625Z" fill="#E9EFFB"/>
<path d="M57.8125 71.875H35.9375C34.9715 71.871 34.0303 71.5686 33.2427 71.0092C32.4551 70.4499 31.8595 69.6608 31.5375 68.75C31.3525 69.2504 31.2552 69.779 31.25 70.3125C31.25 71.5557 31.7439 72.748 32.6229 73.6271C33.502 74.5061 34.6943 75 35.9375 75H57.8125C59.0557 75 60.248 74.5061 61.1271 73.6271C62.0061 72.748 62.5 71.5557 62.5 70.3125C62.4948 69.779 62.3976 69.2504 62.2125 68.75C61.8905 69.6608 61.295 70.4499 60.5074 71.0092C59.7197 71.5686 58.7785 71.871 57.8125 71.875ZM21.875 140.625C21.8746 134.862 23.2062 129.176 25.7659 124.012C28.3257 118.848 32.0442 114.346 36.6313 110.856C27.7435 113.358 20.0959 119.061 15.1616 126.865C10.2273 134.669 8.35532 144.023 9.90626 153.125H24.0625C22.6265 149.113 21.8867 144.886 21.875 140.625Z" fill="#C3DDFF"/>
<path d="M24.0625 153.125H9.90625C10.9765 159.492 13.6741 165.474 17.7374 170.491C21.8008 175.509 27.0919 179.39 33.0975 181.76C39.103 184.13 45.6192 184.907 52.0137 184.017C58.4082 183.127 64.4641 180.599 69.5938 176.678C60.4321 179.303 50.6137 178.326 42.149 173.947C33.6843 169.568 27.2139 162.119 24.0625 153.125Z" fill="#63A6EC"/>
<path d="M56.25 96.875H37.5V106.25H56.25V96.875Z" fill="#C3DDFF"/>
<path d="M50.9781 122.141C50.6674 122.446 50.4219 122.81 50.2564 123.212C50.091 123.615 50.009 124.047 50.0156 124.482C50.2004 125.263 50.6403 125.96 51.2656 126.463C55.9462 130.362 60.3778 134.55 64.5344 139.003C65.4392 140.321 66.5012 141.524 67.6969 142.585C68.3063 143.108 69.0399 143.466 69.8273 143.624C70.6148 143.782 71.4296 143.735 72.1938 143.488C73.0604 142.972 73.7729 142.233 74.257 141.348C74.7412 140.463 74.9794 139.465 74.9469 138.457C75.2924 133.839 73.8578 129.265 70.9375 125.672C66.1969 119.897 56.7438 115.366 50.9781 122.141Z" fill="white"/>
<path d="M90.625 43.75H96.875V53.125H109.375V56.25H90.625V43.75Z" fill="#0C428C"/>
<path d="M90.625 84.375H96.875V93.75H109.375V96.875H90.625V84.375Z" fill="#0C428C"/>
<path d="M167.188 25H145.312C142.724 25 140.625 27.0987 140.625 29.6875C140.625 32.2763 142.724 34.375 145.312 34.375H167.188C169.776 34.375 171.875 32.2763 171.875 29.6875C171.875 27.0987 169.776 25 167.188 25Z" fill="#E9EFFB"/>
<path d="M167.188 31.25H145.312C144.346 31.246 143.405 30.9436 142.618 30.3842C141.83 29.8249 141.235 29.0358 140.912 28.125C140.727 28.6254 140.63 29.154 140.625 29.6875C140.625 30.9307 141.119 32.123 141.998 33.0021C142.877 33.8811 144.069 34.375 145.312 34.375H167.188C168.431 34.375 169.623 33.8811 170.502 33.0021C171.381 32.123 171.875 30.9307 171.875 29.6875C171.87 29.154 171.773 28.6254 171.588 28.125C171.265 29.0358 170.67 29.8249 169.882 30.3842C169.095 30.9436 168.154 31.246 167.188 31.25ZM165.625 34.375H146.875V43.75H153.125V37.5H165.625V34.375Z" fill="#C3DDFF"/>
<path d="M138.125 90.625H128.125C128.12 95.4496 129.358 100.194 131.719 104.402C134.08 108.609 137.485 112.138 141.605 114.648C145.725 117.158 150.422 118.564 155.244 118.732C160.066 118.9 164.849 117.823 169.134 115.606C169.006 115.606 168.881 115.625 168.75 115.625C161.546 115.626 154.563 113.139 148.982 108.583C143.401 104.027 139.566 97.6835 138.125 90.625Z" fill="#0C428C"/>
<path d="M137.5 84.3752C137.498 77.4913 139.782 70.8018 143.994 65.3564C139.242 67.6522 135.233 71.2402 132.426 75.7093C129.62 80.1785 128.129 85.3479 128.125 90.6252H138.125C137.708 88.568 137.499 86.4742 137.5 84.3752Z" fill="#C3DDFF"/>
<path d="M165.625 56.25H146.875V62.5H165.625V56.25Z" fill="#C3DDFF"/>
<path d="M166.781 81.5627C167.721 81.2508 168.721 81.1666 169.7 81.3171C170.679 81.4676 171.607 81.8485 172.41 82.4283C173.213 83.0081 173.866 83.7703 174.316 84.6521C174.767 85.5339 175.001 86.5101 175 87.5002H181.178C181.293 83.2089 179.879 79.0165 177.187 75.6721C172.453 69.8971 163 65.3596 157.234 72.1408C156.924 72.4453 156.678 72.8099 156.513 73.2122C156.347 73.6146 156.265 74.0464 156.272 74.4814C156.457 75.2625 156.897 75.9596 157.522 76.4627C159.797 78.6971 162.284 80.7283 164.687 82.8346C165.282 82.2594 165.997 81.8248 166.781 81.5627Z" fill="white"/>
<path d="M170.784 89.0029C171.689 90.3207 172.751 91.5233 173.947 92.5842C174.556 93.1074 175.29 93.4652 176.077 93.6233C176.865 93.7815 177.68 93.7346 178.444 93.4873C179.311 92.9723 180.024 92.2336 180.508 91.3484C180.992 90.4632 181.229 89.4642 181.194 88.4561C181.222 88.1436 181.169 87.8311 181.178 87.4998H175C175.001 86.5097 174.767 85.5335 174.316 84.6517C173.866 83.7699 173.213 83.0077 172.41 82.4279C171.607 81.8481 170.679 81.4672 169.7 81.3168C168.721 81.1663 167.721 81.2504 166.781 81.5623C165.995 81.8236 165.277 82.2583 164.681 82.8342C166.9 84.6996 168.943 86.7645 170.784 89.0029Z" fill="#63A6EC"/>
<path d="M168.75 109.375C170.476 109.375 171.875 107.976 171.875 106.25C171.875 104.524 170.476 103.125 168.75 103.125C167.024 103.125 165.625 104.524 165.625 106.25C165.625 107.976 167.024 109.375 168.75 109.375Z" fill="#E9EFFB"/>
<path d="M146.875 81.25C148.601 81.25 150 79.8509 150 78.125C150 76.3991 148.601 75 146.875 75C145.149 75 143.75 76.3991 143.75 78.125C143.75 79.8509 145.149 81.25 146.875 81.25Z" fill="#0867D3"/>
<path d="M151.562 71.875C152.425 71.875 153.125 71.1754 153.125 70.3125C153.125 69.4496 152.425 68.75 151.562 68.75C150.7 68.75 150 69.4496 150 70.3125C150 71.1754 150.7 71.875 151.562 71.875Z" fill="#0867D3"/>
<path d="M75 24.9998C72.5136 24.9998 70.129 24.0121 68.3709 22.2539C66.6127 20.4958 65.625 18.1112 65.625 15.6248V18.7498C65.625 21.2362 66.6127 23.6208 68.3709 25.3789C70.129 27.1371 72.5136 28.1248 75 28.1248C77.4826 28.1125 79.86 27.1208 81.6155 25.3653C83.371 23.6098 84.3627 21.2324 84.375 18.7498V15.6248C84.3813 16.8628 84.1376 18.0893 83.6587 19.2309C83.1797 20.3725 82.4752 21.4056 81.5875 22.2685C80.7282 23.1416 79.7024 23.8332 78.5708 24.3023C77.4392 24.7715 76.2249 25.0087 75 24.9998ZM150.369 5.84978C149.056 4.54096 147.384 3.65078 145.566 3.29175C143.747 2.93273 141.862 3.12098 140.151 3.83272C138.439 4.54445 136.977 5.74772 135.949 7.2904C134.921 8.83309 134.373 10.6459 134.375 12.4998V15.6248C134.375 13.1384 135.363 10.7538 137.121 8.99566C138.879 7.2375 141.264 6.24978 143.75 6.24978C146.236 6.24978 148.621 7.2375 150.379 8.99566C152.137 10.7538 153.125 13.1384 153.125 15.6248V12.4998C153.122 10.0059 152.131 7.61485 150.369 5.84978ZM63.3375 5.44353C62.6189 4.70657 61.7595 4.12154 60.8104 3.72321C59.8613 3.32489 58.8418 3.12138 57.8125 3.12478C55.7405 3.12478 53.7534 3.94788 52.2882 5.41301C50.8231 6.87814 50 8.86528 50 10.9373V14.0623C50 11.9903 50.8231 10.0031 52.2882 8.53801C53.7534 7.07288 55.7405 6.24978 57.8125 6.24978C59.8805 6.26289 61.86 7.0902 63.3223 8.5525C64.7846 10.0148 65.6119 11.9943 65.625 14.0623V10.9373C65.6299 9.91521 65.43 8.90252 65.0371 7.95896C64.6442 7.01541 64.0663 6.1601 63.3375 5.44353ZM89.725 4.08103C89.4393 3.77787 89.0944 3.53657 88.7117 3.37209C88.329 3.2076 87.9166 3.12343 87.5 3.12478C86.6712 3.12478 85.8763 3.45402 85.2903 4.04007C84.7042 4.62612 84.375 5.42098 84.375 6.24978V9.37478C84.375 8.54598 84.7042 7.75112 85.2903 7.16507C85.8763 6.57902 86.6712 6.24978 87.5 6.24978C87.9166 6.24843 88.329 6.3326 88.7117 6.49709C89.0944 6.66157 89.4393 6.90287 89.725 7.20603C90.0136 7.48811 90.2421 7.82567 90.3968 8.19838C90.5514 8.5711 90.6291 8.97127 90.625 9.37478V6.24978C90.6291 5.84627 90.5514 5.4461 90.3968 5.07338C90.2421 4.70067 90.0136 4.36311 89.725 4.08103ZM100 24.9998C97.5136 24.9998 95.129 24.0121 93.3709 22.2539C91.6127 20.4958 90.625 18.1112 90.625 15.6248V18.7498C90.625 21.2362 91.6127 23.6208 93.3709 25.3789C95.129 27.1371 97.5136 28.1248 100 28.1248C102.483 28.1125 104.86 27.1208 106.616 25.3653C108.371 23.6098 109.363 21.2324 109.375 18.7498V15.6248C109.381 16.8628 109.138 18.0893 108.659 19.2309C108.18 20.3725 107.475 21.4056 106.588 22.2685C105.728 23.1416 104.702 23.8332 103.571 24.3023C102.439 24.7715 101.225 25.0087 100 24.9998ZM114.725 4.08103C114.439 3.77787 114.094 3.53657 113.712 3.37209C113.329 3.2076 112.917 3.12343 112.5 3.12478C111.671 3.12478 110.876 3.45402 110.29 4.04007C109.704 4.62612 109.375 5.42098 109.375 6.24978V9.37478C109.375 8.54598 109.704 7.75112 110.29 7.16507C110.876 6.57902 111.671 6.24978 112.5 6.24978C112.917 6.24843 113.329 6.3326 113.712 6.49709C114.094 6.66157 114.439 6.90287 114.725 7.20603C115.014 7.48811 115.242 7.82567 115.397 8.19838C115.551 8.5711 115.629 8.97127 115.625 9.37478V6.24978C115.629 5.84627 115.551 5.4461 115.397 5.07338C115.242 4.70067 115.014 4.36311 114.725 4.08103ZM125 24.9998C122.514 24.9998 120.129 24.0121 118.371 22.2539C116.613 20.4958 115.625 18.1112 115.625 15.6248V18.7498C115.625 21.2362 116.613 23.6208 118.371 25.3789C120.129 27.1371 122.514 28.1248 125 28.1248C127.483 28.1125 129.86 27.1208 131.616 25.3653C133.371 23.6098 134.363 21.2324 134.375 18.7498V15.6248C134.381 16.8628 134.138 18.0893 133.659 19.2309C133.18 20.3725 132.475 21.4056 131.588 22.2685C130.728 23.1416 129.702 23.8332 128.571 24.3023C127.439 24.7715 126.225 25.0087 125 24.9998Z" fill="#0C428C"/>
<path d="M50 59.375H43.75V65.625H50V59.375Z" fill="#0C428C"/>
<path d="M62.5 165.625C64.2259 165.625 65.625 164.226 65.625 162.5C65.625 160.774 64.2259 159.375 62.5 159.375C60.7741 159.375 59.375 160.774 59.375 162.5C59.375 164.226 60.7741 165.625 62.5 165.625Z" fill="#63A6EC"/>
<path d="M56.25 175C57.9759 175 59.375 173.601 59.375 171.875C59.375 170.149 57.9759 168.75 56.25 168.75C54.5241 168.75 53.125 170.149 53.125 171.875C53.125 173.601 54.5241 175 56.25 175Z" fill="#63A6EC"/>
</svg>
