<svg width="89" height="99" viewBox="0 0 89 99" fill="none" xmlns="http://www.w3.org/2000/svg">
<path d="M78.8125 72.8125C78.8125 72.8125 78.8125 76.5625 74.125 76.5625C73.482 76.564 72.846 76.433 72.256 76.1785C71.666 75.9235 71.1345 75.55 70.695 75.081C70.255 74.612 69.917 74.0575 69.7005 73.4525C69.484 72.847 69.3945 72.204 69.4375 71.5625C69.4375 65.3125 74.125 64.0625 74.125 64.0625V70.3125C74.113 70.4735 74.135 70.6355 74.1885 70.788C74.242 70.94 74.3265 71.08 74.4365 71.198C74.546 71.3165 74.6795 71.411 74.8275 71.4755C74.9755 71.54 75.1355 71.573 75.297 71.573C75.4585 71.573 75.618 71.54 75.766 71.4755C75.9145 71.411 76.0475 71.3165 76.1575 71.198C76.2675 71.08 76.352 70.94 76.4055 70.788C76.459 70.6355 76.4805 70.4735 76.4685 70.3125V69.0625C76.4685 69.0625 78.8125 69.0625 78.8125 72.8125Z" fill="#F7B255"/>
<path d="M49.125 48.4375V95.3125C49.1225 96.1405 48.7925 96.934 48.207 97.5195C47.6215 98.105 46.828 98.435 46 98.4375C45.1731 98.4315 44.3818 98.1 43.7971 97.5155C43.2124 96.9305 42.8811 96.1395 42.875 95.3125V48.4375H49.125ZM49.125 18.75V21.875H42.875V18.75C42.8775 17.9219 43.2075 17.1285 43.793 16.543C44.3785 15.9575 45.1719 15.6275 46 15.625C46.827 15.6311 47.618 15.9624 48.203 16.5471C48.7875 17.1318 49.119 17.9231 49.125 18.75Z" fill="#AEB8C1"/>
<path d="M49.125 28.125H42.875V42.1875H49.125V28.125Z" fill="#AEB8C1"/>
<path d="M88.1875 85.9375V95.3125C88.185 96.1405 87.855 96.934 87.2695 97.5195C86.684 98.105 85.8905 98.435 85.0625 98.4375H63.1875C62.3595 98.435 61.566 98.105 60.9805 97.5195C60.395 96.934 60.065 96.1405 60.0625 95.3125V85.9375H88.1875Z" fill="#80BEFF"/>
<path d="M50.6875 25V28.125H49.125H42.875H41.3125V21.875H42.875H49.125H50.6875V25Z" fill="#0867D3"/>
<path d="M42.875 42.1875H49.125H50.6875V48.4375H49.125H42.875H41.3125V45.3125V42.1875H42.875Z" fill="#0867D3"/>
<path d="M83.5 43.7528H88.0935C88.1565 44.2713 88.188 44.7931 88.1875 45.3153C88.1875 49.0449 86.706 52.6219 84.0685 55.2589C81.4315 57.8964 77.8545 59.3779 74.125 59.3779C70.3955 59.3779 66.8185 57.8964 64.1815 55.2589C61.544 52.6219 60.0625 49.0449 60.0625 45.3153H66.3125C66.3125 44.4865 66.6415 43.6917 67.228 43.1056C67.814 42.5196 68.6085 42.1903 69.4375 42.1903C70.2665 42.1903 71.061 42.5196 71.647 43.1056C72.2335 43.6917 72.5625 44.4865 72.5625 45.3153H75.8595C76.228 45.3145 76.581 45.1677 76.842 44.9071C77.1025 44.6465 77.249 44.2933 77.25 43.9247C77.228 43.242 77.424 42.57 77.8085 42.0055C78.193 41.4411 78.747 41.0134 79.3905 40.7841C79.8605 40.6281 80.3605 40.5861 80.85 40.6613C81.3395 40.7365 81.8035 40.927 82.205 41.2169C82.6065 41.5068 82.933 41.8879 83.158 42.3288C83.3835 42.7697 83.5005 43.2578 83.5 43.7528Z" fill="#0867D3"/>
<path d="M78.8125 17.1875V21.875H69.4375V17.1875H68.656C68.0345 17.1875 67.4385 16.9406 66.999 16.5011C66.5595 16.0615 66.3125 15.4653 66.3125 14.8438C66.3125 14.2222 66.5595 13.626 66.999 13.1865C67.4385 12.747 68.0345 12.5 68.656 12.5H79.594C80.2155 12.5 80.8115 12.747 81.251 13.1865C81.6905 13.626 81.9375 14.2222 81.9375 14.8438C81.9375 15.4653 81.6905 16.0615 81.251 16.5011C80.8115 16.9406 80.2155 17.1875 79.594 17.1875H78.8125ZM69.4375 42.1875C68.6095 42.19 67.816 42.52 67.2305 43.1055C66.645 43.691 66.315 44.4844 66.3125 45.3125H60.0625C60.064 42.4058 60.9665 39.5711 62.6455 37.1984C64.324 34.8256 66.697 33.0314 69.4375 32.0625V28.125H78.8125V32.0625C81.3015 32.942 83.492 34.5047 85.1335 36.5718C86.775 38.6389 87.801 41.1267 88.0935 43.75H83.5C83.5005 43.2549 83.3835 42.7669 83.158 42.326C82.933 41.8851 82.6065 41.504 82.205 41.2141C81.8035 40.9242 81.3395 40.7337 80.85 40.6585C80.3605 40.5832 79.8605 40.6253 79.3905 40.7812C78.747 41.0106 78.193 41.4383 77.8085 42.0027C77.424 42.5672 77.228 43.2392 77.25 43.9219C77.249 44.2905 77.1025 44.6437 76.842 44.9043C76.581 45.1649 76.228 45.3116 75.8595 45.3125H72.5625C72.56 44.4844 72.23 43.691 71.6445 43.1055C71.059 42.52 70.2655 42.19 69.4375 42.1875Z" fill="#E9EFFB"/>
<path d="M19.4375 32.8125H24.9062C25.5278 32.8125 26.124 33.0595 26.5636 33.499C27.0031 33.9385 27.25 34.5347 27.25 35.1562C27.25 35.7778 27.0031 36.374 26.5636 36.8135C26.124 37.253 25.5278 37.5 24.9062 37.5H24.125V42.1875H14.75V37.5H13.9688C13.3472 37.5 12.751 37.253 12.3114 36.8135C11.8719 36.374 11.625 35.7778 11.625 35.1562C11.625 34.5347 11.8719 33.9385 12.3114 33.499C12.751 33.0595 13.3472 32.8125 13.9688 32.8125H19.4375Z" fill="#C3DDFF"/>
<path d="M14.75 55.297V48.4375H24.125V55.297C28.6737 56.4635 32.6174 59.298 35.1733 63.2375C37.7291 67.177 38.7102 71.933 37.9219 76.5625H0.953131C0.164751 71.933 1.1459 67.177 3.70175 63.2375C6.2576 59.298 10.2013 56.4635 14.75 55.297ZM19.4375 71.875C20.2969 71.875 21 70.9375 21 69.797C20.6781 68.3395 20.1521 66.935 19.4375 65.625C18.7229 66.935 18.1968 68.3395 17.875 69.797C17.875 70.9375 18.5781 71.875 19.4375 71.875ZM21 58.8595C20.6781 57.402 20.1521 55.9975 19.4375 54.6875C18.7229 55.9975 18.1968 57.402 17.875 58.8595C17.875 60 18.5781 60.9375 19.4375 60.9375C20.2969 60.9375 21 60 21 58.8595Z" fill="#E9EFFB"/>
<path d="M19.4375 54.6875C20.1521 55.9975 20.6781 57.402 21 58.8595C21 60 20.2969 60.9375 19.4375 60.9375C18.5781 60.9375 17.875 60 17.875 58.8595C18.1969 57.402 18.7229 55.9975 19.4375 54.6875ZM19.4375 65.625C20.1521 66.935 20.6781 68.3395 21 69.797C21 70.9375 20.2969 71.875 19.4375 71.875C18.5781 71.875 17.875 70.9375 17.875 69.797C18.1969 68.3395 18.7229 66.935 19.4375 65.625ZM37.9218 76.5625C37.1792 80.9275 34.916 84.8885 31.5328 87.7445C28.1497 90.601 23.865 92.1675 19.4375 92.1675C15.01 92.1675 10.7252 90.601 7.34215 87.7445C3.959 84.8885 1.69575 80.9275 0.953125 76.5625H37.9218Z" fill="#9CC7FF"/>
<path d="M78.8125 78.125H69.4375C64.2655 78.125 60.0625 81.25 60.0625 84.375V85.9375H88.1875V84.375C88.1875 81.25 83.9845 78.125 78.8125 78.125Z" fill="#DBEAFF"/>
<path d="M64.75 23.4375H50.6875V26.5625H64.75V23.4375Z" fill="#8D949C"/>
<path d="M41.3125 43.75H28.8125V46.875H41.3125V43.75Z" fill="#8D949C"/>
<path d="M21 32.8125H17.875V7.0313C17.8771 5.16715 18.6185 3.37991 19.9367 2.06175C21.2549 0.74358 23.0421 0.00212706 24.9062 5.92128e-05C26.7692 0.00623805 28.554 0.749015 29.8713 2.06629C31.1886 3.38357 31.9313 5.1684 31.9375 7.0313V9.37505C31.9375 9.78945 32.1021 10.1869 32.3951 10.4799C32.6881 10.773 33.0856 10.9375 33.5 10.9375C33.7017 10.9396 33.9018 10.9008 34.0882 10.8235C34.2745 10.7461 34.4434 10.6318 34.5844 10.4875C34.736 10.3447 34.8566 10.1722 34.9389 9.9809C35.0211 9.78955 35.0632 9.58335 35.0625 9.37505V4.68756C35.0625 3.44436 35.5564 2.25208 36.4355 1.373C37.3145 0.493919 38.5068 5.92128e-05 39.75 5.92128e-05C40.369 -0.00308139 40.9823 0.11874 41.5531 0.358227C42.1239 0.597715 42.6404 0.94994 43.0718 1.39381C43.5084 1.82346 43.8542 2.33638 44.0887 2.90217C44.3233 3.46795 44.4419 4.07509 44.4375 4.68756V9.37505C44.4375 9.78945 44.6021 10.1869 44.8951 10.4799C45.1881 10.773 45.5856 10.9375 46 10.9375C46.202 10.9396 46.402 10.9008 46.588 10.8235C46.7745 10.7461 46.9435 10.6318 47.0845 10.4875C47.236 10.3447 47.3565 10.1722 47.439 9.9809C47.521 9.78955 47.563 9.58335 47.5625 9.37505V4.68756C47.5625 3.44436 48.0565 2.25208 48.9355 1.373C49.8145 0.493919 51.007 5.92128e-05 52.25 5.92128e-05C52.869 -0.00308139 53.4825 0.11874 54.053 0.358227C54.624 0.597715 55.1405 0.94994 55.572 1.39381C56.0085 1.82346 56.354 2.33638 56.589 2.90217C56.8235 3.46795 56.942 4.07509 56.9375 4.68756V9.37505C56.9375 9.78945 57.102 10.1869 57.395 10.4799C57.688 10.773 58.0855 10.9375 58.5 10.9375C58.702 10.9396 58.902 10.9008 59.088 10.8235C59.2745 10.7461 59.4435 10.6318 59.5845 10.4875C59.736 10.3447 59.8565 10.1722 59.939 9.9809C60.021 9.78955 60.063 9.58335 60.0625 9.37505V7.81255C60.0625 5.74055 60.8855 3.75341 62.3505 2.28829C63.816 0.82316 65.803 5.92128e-05 67.875 5.92128e-05C69.947 5.92128e-05 71.934 0.82316 73.3995 2.28829C74.8645 3.75341 75.6875 5.74055 75.6875 7.81255V12.5H72.5625V7.81255C72.5625 6.56935 72.0685 5.37705 71.1895 4.49799C70.3105 3.61892 69.118 3.12506 67.875 3.12506C66.632 3.12506 65.4395 3.61892 64.5605 4.49799C63.6815 5.37705 63.1875 6.56935 63.1875 7.81255V9.37505C63.1815 10.6163 62.6855 11.8051 61.808 12.6828C60.93 13.5606 59.7415 14.0564 58.5 14.0625C57.257 14.0625 56.0645 13.5687 55.1855 12.6896C54.3065 11.8105 53.8125 10.6182 53.8125 9.37505V4.68756C53.8145 4.4858 53.7755 4.28572 53.6985 4.09936C53.621 3.913 53.507 3.74422 53.3625 3.60318C53.2195 3.4516 53.047 3.33095 52.856 3.24871C52.6645 3.16647 52.4585 3.12439 52.25 3.12506C51.8355 3.12506 51.438 3.28968 51.145 3.58271C50.852 3.87573 50.6875 4.27316 50.6875 4.68756V9.37505C50.6815 10.6163 50.1855 11.8051 49.308 12.6828C48.43 13.5606 47.2415 14.0564 46 14.0625C44.7568 14.0625 43.5645 13.5687 42.6855 12.6896C41.8064 11.8105 41.3125 10.6182 41.3125 9.37505V4.68756C41.3146 4.4858 41.2757 4.28572 41.1983 4.09936C41.121 3.913 41.0068 3.74422 40.8625 3.60318C40.7196 3.4516 40.5472 3.33095 40.3559 3.24871C40.1645 3.16647 39.9583 3.12439 39.75 3.12506C39.3356 3.12506 38.9381 3.28968 38.6451 3.58271C38.3521 3.87573 38.1875 4.27316 38.1875 4.68756V9.37505C38.1814 10.6163 37.6855 11.8051 36.8078 12.6828C35.93 13.5606 34.7413 14.0564 33.5 14.0625C32.2568 14.0625 31.0645 13.5687 30.1855 12.6896C29.3064 11.8105 28.8125 10.6182 28.8125 9.37505V7.0313C28.8059 5.99735 28.3923 5.00755 27.6611 4.27641C26.93 3.54527 25.9403 3.13162 24.9062 3.12506C23.8702 3.12506 22.8767 3.53661 22.1441 4.26918C21.4116 5.00175 21 5.9953 21 7.0313V32.8125Z" fill="#0867D3"/>
<path d="M21 37.5H17.875V42.1875H21V37.5Z" fill="#143D73"/>
<path d="M83.5 21.875H64.75V28.125H83.5V21.875Z" fill="#AEB8C1"/>
<path d="M28.8125 42.1875H10.0625V48.4375H28.8125V42.1875Z" fill="#AEB8C1"/>
<path d="M42.875 48.4375V95.3125C42.8811 96.1395 43.2124 96.9305 43.7971 97.5155C44.3818 98.1 45.1731 98.4315 46 98.4375C46.828 98.435 47.6215 98.105 48.207 97.5195C48.7925 96.934 49.1225 96.1405 49.125 95.3125V93.75C49.125 94.1645 48.9605 94.562 48.6675 94.855C48.3745 95.148 47.977 95.3125 47.5625 95.3125C47.148 95.3125 46.7505 95.148 46.4575 94.855C46.1645 94.562 46 94.1645 46 93.75V54.6875C46 53.8585 46.329 53.064 46.9155 52.478C47.5015 51.8915 48.296 51.5625 49.125 51.5625V48.4375H42.875ZM49.125 28.125H42.875V42.1875H46V34.375C46 33.5462 46.329 32.7513 46.9155 32.1653C47.5015 31.5792 48.296 31.25 49.125 31.25V28.125ZM47.5625 20.3125C47.148 20.3125 46.7505 20.1479 46.4575 19.8549C46.1645 19.5619 46 19.1644 46 18.75V15.625C45.1719 15.6275 44.3785 15.9575 43.793 16.543C43.2075 17.1285 42.8775 17.9219 42.875 18.75V21.875H49.125V20.3125H47.5625Z" fill="#8D949C"/>
<path d="M14.75 42.1875C14.75 43.0163 15.0793 43.8112 15.6653 44.3972C16.2514 44.9833 17.0462 45.3125 17.875 45.3125H28.8125V48.4375H10.0625V42.1875H14.75ZM69.4375 21.875C69.4375 22.7038 69.7665 23.4986 70.353 24.0847C70.939 24.6707 71.7335 25 72.5625 25H83.5V28.125H64.75V21.875H69.4375Z" fill="#98A0A8"/>
<path d="M74.8796 84.5676C74.8976 84.5006 74.9061 84.4316 74.9066 84.3626V76.5251C74.6466 76.5521 74.3861 76.5656 74.1251 76.5656C73.8626 76.5576 73.6016 76.5276 73.3441 76.4766V84.3001C73.3361 84.3301 73.3296 84.3566 73.3251 84.3846C73.2541 84.8401 73.1541 85.2911 73.0266 85.7346C73.0096 85.7986 72.9861 85.8721 72.9656 85.9406H74.5846C74.7331 85.3876 74.8251 84.8926 74.8796 84.5676Z" fill="#0C62D9"/>
<path d="M83.5 92.969H70.219C69.8045 92.969 69.407 92.804 69.114 92.511C68.821 92.218 68.656 91.8205 68.656 91.406C68.656 90.992 68.821 90.5945 69.114 90.3015C69.407 90.0085 69.8045 89.844 70.219 89.844H71C72.628 89.844 73.8845 88.5295 74.531 86.156C74.553 86.0765 74.564 86.014 74.5845 85.9375H72.9655C72.6795 86.897 72.081 88.281 71 88.281H70.219C69.39 88.281 68.595 88.6105 68.009 89.1965C67.423 89.7825 67.094 90.5775 67.094 91.406C67.094 92.235 67.423 93.03 68.009 93.616C68.595 94.202 69.39 94.531 70.219 94.531H83.5C83.707 94.531 83.906 94.449 84.0525 94.3025C84.199 94.156 84.281 93.957 84.281 93.75C84.281 93.543 84.199 93.344 84.0525 93.1975C83.906 93.051 83.707 92.969 83.5 92.969Z" fill="#143D73"/>
<path d="M74.906 78.125H73.344V79.6875H74.906V78.125Z" fill="#DBEAFF"/>
<path d="M85.0625 85.9375H78.8125V98.4375H85.0625V85.9375Z" fill="#A0D3FF"/>
<path d="M78.8125 84.375V85.9375H85.0625V84.375C85.0625 82.7175 84.404 81.1275 83.232 79.9555C82.06 78.7835 80.47 78.125 78.8125 78.125H72.5625C74.22 78.125 75.81 78.7835 76.982 79.9555C78.154 81.1275 78.8125 82.7175 78.8125 84.375Z" fill="#EEF7FF"/>
<path d="M64.75 95.3125V85.9375H60.0625V95.3125C60.065 96.1405 60.395 96.934 60.9805 97.5195C61.566 98.105 62.3595 98.435 63.1875 98.4375H67.875C67.047 98.435 66.2535 98.105 65.668 97.5195C65.0825 96.934 64.7525 96.1405 64.75 95.3125Z" fill="#63A6EC"/>
<path d="M64.75 84.375C64.75 81.4705 68.3845 78.5685 73.05 78.1735C72.894 78.161 72.7375 78.125 72.5625 78.125H69.4375C64.2655 78.125 60.0625 81.25 60.0625 84.375V85.9375H64.75V84.375Z" fill="#C3DDFF"/>
<path d="M83.5 92.9688H78.8125V94.5307H83.5C83.707 94.5307 83.906 94.4487 84.0525 94.3022C84.199 94.1557 84.281 93.9567 84.281 93.7497C84.281 93.5427 84.199 93.3438 84.0525 93.1973C83.906 93.0508 83.707 92.9688 83.5 92.9688Z" fill="#0C62D9"/>
<path d="M77.2501 74.219C77.1236 73.138 76.7141 72.1105 76.0626 71.239C75.8586 71.441 75.5841 71.557 75.2971 71.5625C74.9766 71.5505 74.6736 71.412 74.4541 71.178C74.2351 70.944 74.1166 70.633 74.1251 70.3125V68.75C74.1251 68.75 71.0001 72.061 71.0001 74.219C70.9716 74.7405 71.1071 75.258 71.3876 75.6985C72.2076 76.224 73.1521 76.5225 74.1251 76.5625C74.8591 76.5765 75.5896 76.461 76.2831 76.2205C76.6246 76.0205 76.8991 75.7235 77.0716 75.367C77.2436 75.0105 77.3061 74.6105 77.2501 74.219Z" fill="#EF7127"/>
<path d="M24.9062 32.8125H13.9688C12.6744 32.8125 11.625 33.8619 11.625 35.1562C11.625 36.4506 12.6744 37.5 13.9688 37.5H24.9062C26.2006 37.5 27.25 36.4506 27.25 35.1562C27.25 33.8619 26.2006 32.8125 24.9062 32.8125Z" fill="#E9EFFB"/>
<path d="M24.9063 35.9375H13.9688C13.4858 35.9355 13.0152 35.7843 12.6214 35.5046C12.2276 35.225 11.9298 34.8304 11.7688 34.375C11.6763 34.6252 11.6276 34.8895 11.6251 35.1562C11.6251 35.7778 11.872 36.374 12.3115 36.8135C12.7511 37.253 13.3472 37.5 13.9688 37.5H24.9063C25.5279 37.5 26.124 37.253 26.5636 36.8135C27.0031 36.374 27.25 35.7778 27.25 35.1562C27.2475 34.8895 27.1988 34.6252 27.1063 34.375C26.9453 34.8304 26.6475 35.225 26.2537 35.5046C25.8599 35.7843 25.3893 35.9355 24.9063 35.9375ZM6.93756 70.3125C6.93731 67.431 7.60316 64.588 8.88301 62.006C10.1629 59.424 12.0221 57.173 14.3157 55.428C9.87176 56.679 6.04796 59.5305 3.58081 63.4325C1.11366 67.3345 0.177694 72.0115 0.953164 76.5625H8.03131C7.31326 74.5565 6.94336 72.443 6.93756 70.3125Z" fill="#C3DDFF"/>
<path d="M8.03125 76.5625H0.953125C1.48825 79.746 2.83705 82.737 4.8687 85.2455C6.9004 87.7545 9.54595 89.695 12.5487 90.88C15.5515 92.065 18.8096 92.4535 22.0068 92.0085C25.2041 91.5635 28.2321 90.2995 30.7969 88.339C26.2161 89.6515 21.3068 89.163 17.0745 86.9735C12.8421 84.784 9.60695 81.0595 8.03125 76.5625Z" fill="#63A6EC"/>
<path d="M24.125 48.4375H14.75V53.125H24.125V48.4375Z" fill="#C3DDFF"/>
<path d="M21.489 61.0705C21.3337 61.223 21.2109 61.405 21.1282 61.606C21.0455 61.8075 21.0045 62.0235 21.0078 62.241C21.1002 62.6315 21.3201 62.98 21.6328 63.2315C23.9731 65.181 26.1889 67.275 28.2672 69.5015C28.7196 70.1605 29.2506 70.762 29.8484 71.2925C30.1531 71.554 30.5199 71.733 30.9136 71.812C31.3074 71.891 31.7148 71.8675 32.0969 71.744C32.5302 71.486 32.8864 71.1165 33.1285 70.674C33.3706 70.2315 33.4897 69.7325 33.4734 69.2285C33.6462 66.9195 32.9289 64.6325 31.4687 62.836C29.0984 59.9485 24.3719 57.683 21.489 61.0705Z" fill="white"/>
<path d="M41.3125 21.875H44.4375V26.5625H50.6875V28.125H41.3125V21.875Z" fill="#0C428C"/>
<path d="M41.3125 42.1875H44.4375V46.875H50.6875V48.4375H41.3125V42.1875Z" fill="#0C428C"/>
<path d="M79.594 12.5H68.656C67.362 12.5 66.3125 13.5494 66.3125 14.8438C66.3125 16.1381 67.362 17.1875 68.656 17.1875H79.594C80.888 17.1875 81.9375 16.1381 81.9375 14.8438C81.9375 13.5494 80.888 12.5 79.594 12.5Z" fill="#E9EFFB"/>
<path d="M79.594 15.625H68.656C68.173 15.623 67.7025 15.4718 67.309 15.1921C66.915 14.9124 66.6175 14.5179 66.456 14.0625C66.3635 14.3127 66.315 14.577 66.3125 14.8438C66.3125 15.4653 66.5595 16.0615 66.999 16.5011C67.4385 16.9406 68.0345 17.1875 68.656 17.1875H79.594C80.2155 17.1875 80.8115 16.9406 81.251 16.5011C81.6905 16.0615 81.9375 15.4653 81.9375 14.8438C81.935 14.577 81.8865 14.3127 81.794 14.0625C81.6325 14.5179 81.335 14.9124 80.941 15.1921C80.5475 15.4718 80.077 15.623 79.594 15.625ZM78.8125 17.1875H69.4375V21.875H72.5625V18.75H78.8125V17.1875Z" fill="#C3DDFF"/>
<path d="M65.0625 45.3125H60.0625C60.06 47.7248 60.679 50.097 61.8595 52.201C63.04 54.3045 64.7425 56.069 66.8025 57.324C68.8625 58.579 71.211 59.282 73.622 59.366C76.033 59.45 78.4245 58.9115 80.567 57.803C80.503 57.803 80.4405 57.8125 80.375 57.8125C76.773 57.813 73.2815 56.5695 70.491 54.2915C67.7005 52.0135 65.783 48.8417 65.0625 45.3125Z" fill="#0C428C"/>
<path d="M64.75 42.1891C64.749 38.7471 65.891 35.4024 67.997 32.6797C65.621 33.8276 63.6165 35.6216 62.213 37.8561C60.81 40.0907 60.0645 42.6754 60.0625 45.3141H65.0625C64.854 44.2855 64.7495 43.2386 64.75 42.1891Z" fill="#C3DDFF"/>
<path d="M78.8125 28.125H69.4375V31.25H78.8125V28.125Z" fill="#C3DDFF"/>
<path d="M79.3905 40.7828C79.8604 40.6269 80.3604 40.5848 80.8499 40.66C81.3394 40.7353 81.8034 40.9257 82.2049 41.2156C82.6064 41.5055 82.9329 41.8866 83.1579 42.3275C83.3834 42.7684 83.5004 43.2565 83.4999 43.7516H86.5889C86.6464 41.6059 85.9394 39.5097 84.5934 37.8375C82.2264 34.95 77.4999 32.6813 74.6169 36.0719C74.4619 36.2241 74.3389 36.4064 74.2564 36.6076C74.1734 36.8088 74.1324 37.0247 74.1359 37.2422C74.2284 37.6327 74.4484 37.9813 74.7609 38.2328C75.8984 39.35 77.1419 40.3656 78.3434 41.4188C78.6409 41.1312 78.9985 40.9139 79.3905 40.7828Z" fill="white"/>
<path d="M81.3921 44.5044C81.8446 45.1633 82.3756 45.7646 82.9736 46.295C83.2781 46.5566 83.6451 46.7355 84.0386 46.8146C84.4326 46.8937 84.8401 46.8702 85.2221 46.7466C85.6556 46.4891 86.0121 46.1197 86.2541 45.6771C86.4961 45.2345 86.6146 44.735 86.5971 44.231C86.6111 44.0747 86.5846 43.9185 86.5891 43.7528H83.5001C83.5006 43.2578 83.3836 42.7697 83.1581 42.3288C82.9331 41.8879 82.6066 41.5068 82.2051 41.2169C81.8036 40.927 81.3396 40.7365 80.8501 40.6613C80.3606 40.5861 79.8606 40.6281 79.3906 40.7841C78.9976 40.9147 78.6386 41.1321 78.3406 41.42C79.4501 42.3527 80.4716 43.3852 81.3921 44.5044Z" fill="#63A6EC"/>
<path d="M80.375 54.6875C81.238 54.6875 81.9375 53.988 81.9375 53.125C81.9375 52.262 81.238 51.5625 80.375 51.5625C79.512 51.5625 78.8125 52.262 78.8125 53.125C78.8125 53.988 79.512 54.6875 80.375 54.6875Z" fill="#E9EFFB"/>
<path d="M69.4375 40.625C70.3005 40.625 71 39.9255 71 39.0625C71 38.1995 70.3005 37.5 69.4375 37.5C68.5745 37.5 67.875 38.1995 67.875 39.0625C67.875 39.9255 68.5745 40.625 69.4375 40.625Z" fill="#0867D3"/>
<path d="M71.781 35.9375C72.2125 35.9375 72.5625 35.5877 72.5625 35.1562C72.5625 34.7248 72.2125 34.375 71.781 34.375C71.35 34.375 71 34.7248 71 35.1562C71 35.5877 71.35 35.9375 71.781 35.9375Z" fill="#0867D3"/>
<path d="M33.5 12.4975C32.2568 12.4975 31.0645 12.0036 30.1855 11.1245C29.3064 10.2455 28.8125 9.05316 28.8125 7.80996V9.37246C28.8125 10.6157 29.3064 11.808 30.1855 12.687C31.0645 13.5661 32.2568 14.06 33.5 14.06C34.7413 14.0538 35.93 13.558 36.8078 12.6802C37.6855 11.8025 38.1814 10.6138 38.1875 9.37246V7.80996C38.1907 8.42896 38.0688 9.04221 37.8293 9.61301C37.5898 10.1838 37.2376 10.7004 36.7938 11.1318C36.3641 11.5684 35.8512 11.9142 35.2854 12.1487C34.7196 12.3833 34.1125 12.5019 33.5 12.4975ZM71.1845 2.92245C70.528 2.26804 69.692 1.82295 68.783 1.64343C67.8735 1.46392 66.931 1.55805 66.0755 1.91392C65.2195 2.26978 64.4885 2.87142 63.9745 3.64276C63.4605 4.4141 63.1865 5.32051 63.1875 6.24746V7.80996C63.1875 6.56676 63.6815 5.37446 64.5605 4.49539C65.4395 3.61631 66.632 3.12245 67.875 3.12245C69.118 3.12245 70.3105 3.61631 71.1895 4.49539C72.0685 5.37446 72.5625 6.56676 72.5625 7.80996V6.24746C72.561 5.00051 72.0655 3.80498 71.1845 2.92245ZM27.6688 2.71932C27.3095 2.35084 26.8797 2.05833 26.4052 1.85916C25.9306 1.66 25.4209 1.55825 24.9062 1.55995C23.8702 1.55995 22.8767 1.9715 22.1441 2.70406C21.4116 3.43663 21 4.4302 21 5.46621V7.02871C21 5.99271 21.4116 4.99911 22.1441 4.26656C22.8767 3.534 23.8702 3.12245 24.9062 3.12245C25.9403 3.129 26.93 3.54266 27.6611 4.27381C28.3923 5.00496 28.8059 5.99471 28.8125 7.02871V5.46621C28.815 4.95516 28.715 4.44882 28.5186 3.97704C28.3221 3.50526 28.0332 3.07761 27.6688 2.71932ZM40.8625 2.03807C40.7196 1.88649 40.5472 1.76584 40.3559 1.6836C40.1645 1.60136 39.9583 1.55927 39.75 1.55995C39.3356 1.55995 38.9381 1.72457 38.6451 2.01759C38.3521 2.31062 38.1875 2.70805 38.1875 3.12245V4.68495C38.1875 4.27055 38.3521 3.87312 38.6451 3.58009C38.9381 3.28707 39.3356 3.12245 39.75 3.12245C39.9583 3.12177 40.1645 3.16386 40.3559 3.2461C40.5472 3.32834 40.7196 3.44899 40.8625 3.60057C41.0068 3.74161 41.121 3.91039 41.1983 4.09675C41.2757 4.28311 41.3146 4.48319 41.3125 4.68495V3.12245C41.3146 2.92069 41.2757 2.72061 41.1983 2.53425C41.121 2.34789 41.0068 2.17911 40.8625 2.03807ZM46 12.4975C44.7568 12.4975 43.5645 12.0036 42.6855 11.1245C41.8064 10.2455 41.3125 9.05316 41.3125 7.80996V9.37246C41.3125 10.6157 41.8064 11.808 42.6855 12.687C43.5645 13.5661 44.7568 14.06 46 14.06C47.2415 14.0538 48.43 13.558 49.308 12.6802C50.1855 11.8025 50.6815 10.6138 50.6875 9.37246V7.80996C50.6905 8.42896 50.569 9.04221 50.3295 9.61301C50.09 10.1838 49.7375 10.7004 49.294 11.1318C48.864 11.5684 48.351 11.9142 47.7855 12.1487C47.2195 12.3833 46.6125 12.5019 46 12.4975ZM53.3625 2.03807C53.2195 1.88649 53.047 1.76584 52.856 1.6836C52.6645 1.60136 52.4585 1.55927 52.25 1.55995C51.8355 1.55995 51.438 1.72457 51.145 2.01759C50.852 2.31062 50.6875 2.70805 50.6875 3.12245V4.68495C50.6875 4.27055 50.852 3.87312 51.145 3.58009C51.438 3.28707 51.8355 3.12245 52.25 3.12245C52.4585 3.12177 52.6645 3.16386 52.856 3.2461C53.047 3.32834 53.2195 3.44899 53.3625 3.60057C53.507 3.74161 53.621 3.91039 53.6985 4.09675C53.7755 4.28311 53.8145 4.48319 53.8125 4.68495V3.12245C53.8145 2.92069 53.7755 2.72061 53.6985 2.53425C53.621 2.34789 53.507 2.17911 53.3625 2.03807ZM58.5 12.4975C57.257 12.4975 56.0645 12.0036 55.1855 11.1245C54.3065 10.2455 53.8125 9.05316 53.8125 7.80996V9.37246C53.8125 10.6157 54.3065 11.808 55.1855 12.687C56.0645 13.5661 57.257 14.06 58.5 14.06C59.7415 14.0538 60.93 13.558 61.808 12.6802C62.6855 11.8025 63.1815 10.6138 63.1875 9.37246V7.80996C63.1905 8.42896 63.069 9.04221 62.8295 9.61301C62.59 10.1838 62.2375 10.7004 61.794 11.1318C61.364 11.5684 60.851 11.9142 60.2855 12.1487C59.7195 12.3833 59.1125 12.5019 58.5 12.4975Z" fill="#0C428C"/>
<path d="M21 29.6875H17.875V32.8125H21V29.6875Z" fill="#0C428C"/>
<path d="M27.25 82.8125C28.113 82.8125 28.8125 82.113 28.8125 81.25C28.8125 80.387 28.113 79.6875 27.25 79.6875C26.387 79.6875 25.6875 80.387 25.6875 81.25C25.6875 82.113 26.387 82.8125 27.25 82.8125Z" fill="#63A6EC"/>
<path d="M24.125 87.5C24.988 87.5 25.6875 86.8005 25.6875 85.9375C25.6875 85.0745 24.988 84.375 24.125 84.375C23.262 84.375 22.5625 85.0745 22.5625 85.9375C22.5625 86.8005 23.262 87.5 24.125 87.5Z" fill="#63A6EC"/>
</svg>
