<svg width="159" height="200" viewBox="0 0 159 200" fill="none" xmlns="http://www.w3.org/2000/svg">
<path d="M143.4 144.461L139.648 144.708H139.605L139.277 144.751V144.996C139.482 147.923 139.606 151.264 139.483 154.811C139.483 155.099 139.482 155.429 139.442 155.759C139.442 155.964 139.442 156.212 139.4 156.417C139.4 157.12 139.4 157.82 139.317 158.561C139.317 159.099 139.278 159.634 139.193 160.212C139.153 160.913 139.113 161.613 139.03 162.354C138.988 162.726 138.947 163.097 138.905 163.469C138.74 164.705 138.574 165.942 138.369 167.18C137.503 172.251 136.101 177.363 133.876 182.064C132.185 185.692 130.206 188.453 127.897 190.432C126.206 191.918 124.309 192.989 122.33 193.567C121.217 193.897 120.103 194.062 118.99 194.062C118.99 194.062 118.99 194.062 118.95 194.062C117.341 194.062 115.735 193.69 114.249 192.989C113.879 192.824 113.508 192.659 113.178 192.454C113.714 191.794 114.166 191.053 114.619 190.31C116.022 187.753 116.888 184.867 117.053 181.898C117.341 178.228 116.558 174.435 114.704 171.22C113.178 168.498 110.25 165.819 106.703 166.52C103.488 167.138 101.345 170.438 101.097 175.054C100.932 178.146 101.179 182.268 102.828 186.309C103.366 187.63 104.023 188.949 104.889 190.227C105.507 191.175 106.208 192.001 106.951 192.784C104.849 194.308 102.375 195.299 99.778 195.669C96.974 196.124 94.088 195.834 91.489 194.803C88.397 193.525 85.842 191.215 84.151 188.413C82.955 186.434 82.172 184.208 81.965 181.939C81.882 181.281 81.883 180.58 81.925 179.877C81.925 179.837 81.925 179.837 81.925 179.797H81.882L77.802 179.549C77.76 180.042 77.76 180.538 77.802 181.033C77.802 182.024 77.925 182.97 78.09 183.92C78.132 184.29 78.214 184.621 78.337 184.991C78.297 185.031 78.296 185.074 78.377 185.116C78.419 185.444 78.502 185.734 78.627 186.062C78.873 186.887 79.162 187.713 79.573 188.536V188.578L79.616 188.619C81.72 193.032 85.387 196.742 89.965 198.596C92.272 199.546 94.746 199.999 97.261 199.999C101.138 199.999 105.054 198.886 108.354 196.824C109.012 196.411 109.631 195.959 110.251 195.464C111.199 196.082 112.187 196.577 113.178 196.99C115.032 197.773 116.971 198.143 118.95 198.185H118.99C123.073 198.185 127.153 196.534 130.618 193.567C133.38 191.175 135.647 188 137.626 183.837C140.265 178.228 141.832 172.086 142.657 166.107C142.862 164.788 143.028 163.509 143.153 162.231C143.316 160.788 143.4 159.346 143.481 157.943C143.523 157.407 143.523 156.873 143.523 156.335C143.565 155.924 143.565 155.511 143.565 155.139C143.605 154.316 143.606 153.49 143.606 152.707C143.689 149.74 143.565 146.978 143.4 144.461ZM109.921 189.939C109.343 189.319 108.807 188.661 108.312 187.96C105.467 183.672 105.055 178.683 105.22 175.261C105.343 173.117 106.086 170.848 107.489 170.56C107.612 170.56 107.694 170.52 107.817 170.52C109.013 170.52 110.373 171.879 111.116 173.282C114.043 178.394 113.509 185.238 109.921 189.939Z" fill="#095DA4"/>
<path d="M143.566 155.136C143.524 158.641 143.236 162.351 142.658 166.104C141.833 164.785 140.432 163.795 138.906 163.467C139.236 160.498 139.443 157.57 139.483 154.808C139.606 154.725 139.771 154.726 139.936 154.684C141.132 154.436 142.41 154.683 143.566 155.136Z" fill="black"/>
<path d="M81.9251 181.9C81.4701 182.353 81.1421 182.971 80.8941 183.591C80.4811 184.787 80.3591 186.063 80.0691 187.301C79.9461 187.754 79.7801 188.167 79.5731 188.58C78.2541 185.735 77.5971 182.643 77.7601 179.508L81.8831 179.756C81.8431 180.499 81.8421 181.199 81.9251 181.9Z" fill="black"/>
<path d="M117.011 181.853C116.846 181.811 116.723 181.729 116.558 181.646C115.65 181.11 115.033 180.163 114.62 179.172C114.209 178.141 114.002 177.111 113.714 176.08C113.136 173.853 112.065 171.669 110.209 170.35C109.343 169.73 108.27 169.277 107.199 169.442C105.921 169.607 104.849 170.515 104.189 171.586C103.158 173.317 102.91 175.421 102.993 177.44C103.076 179.461 103.406 181.481 103.281 183.46C103.241 184.408 103.116 185.356 102.788 186.264C101.139 182.223 100.892 178.101 101.055 175.009C101.305 170.391 103.446 167.092 106.663 166.472C110.208 165.771 113.136 168.453 114.662 171.173C116.516 174.39 117.301 178.183 117.011 181.853Z" fill="#28B6F4"/>
<path d="M138.618 171.426C138.413 173.612 137.792 175.714 137.174 177.776C136.266 180.868 135.36 183.96 133.834 186.805C132.308 189.65 130.124 192.207 127.237 193.65C125.959 194.268 124.475 194.681 123.156 194.103C122.826 193.98 122.579 193.772 122.331 193.567C124.31 192.989 126.206 191.919 127.897 190.433C130.206 188.454 132.185 185.692 133.876 182.064C136.101 177.363 137.504 172.251 138.37 167.18C138.7 168.539 138.741 170.025 138.618 171.426Z" fill="#28B6F4"/>
<path d="M99.7781 195.669C99.6951 195.794 99.5711 195.876 99.4881 195.959C98.3341 196.782 96.8511 196.99 95.4901 196.99C92.4381 196.948 89.3881 195.877 87.1611 193.815C85.6771 192.372 84.5631 190.433 84.1521 188.414C85.8431 191.216 88.3981 193.526 91.4901 194.804C94.0891 195.835 96.9741 196.124 99.7781 195.669Z" fill="#28B6F4"/>
<path d="M113.178 192.453C113.508 192.658 113.879 192.824 114.249 192.989C113.548 194.062 113.178 195.298 113.178 196.534V196.989C112.187 196.576 111.199 196.081 110.251 195.463" fill="black"/>
<g opacity="0.50075">
<path d="M127.574 75.6343C128.109 85.5563 123.208 96.3763 116.625 103.814C110.958 110.125 101.848 116.062 100.012 121.397C99.705 122.377 99.014 123.878 98.173 125.606C96.412 129.363 93.885 134.251 93.272 136.353C91.208 143.192 81.175 144.77 73.904 144.92C66.629 145.07 60.278 141.313 54.992 136.426C53.616 128.387 51.548 124.028 46.341 117.64C40.599 110.577 34.857 103.29 30.954 95.0233C23.679 79.5433 25.974 64.4403 35.395 50.4603C42.053 40.4693 52.849 33.5523 64.64 30.7743C72.831 28.8183 81.559 28.8193 89.675 31.2223C109.428 37.0123 126.423 55.4203 127.574 75.6343Z" fill="#FFD880"/>
<path d="M98.1909 125.605C96.4219 129.368 93.8779 134.251 93.2879 136.35C93.2879 136.422 93.2879 136.423 93.2159 136.495C91.0399 143.189 81.0879 144.781 73.8989 144.926C67.5959 145.036 61.9919 142.249 57.1629 138.304C56.4249 137.689 55.6889 137.075 54.9889 136.423C54.7299 134.941 54.4719 133.529 54.1029 132.262C53.8819 131.213 53.5509 130.236 53.2199 129.296C51.8559 125.171 49.7909 121.843 46.3259 117.645C40.6109 110.591 34.8619 103.281 30.9539 95.0314C23.6909 79.5464 25.9779 64.4224 35.4149 50.4564C42.0499 40.4694 52.8499 33.5594 64.6469 30.7734C61.5129 33.1244 59.0419 36.2004 55.9099 38.4444C52.7389 40.7584 49.8269 43.2204 47.2849 46.1864C42.1229 52.1564 38.5099 59.4294 36.9999 67.1004C34.5289 79.4374 37.3679 92.6434 44.4089 103.137C54.3629 118.007 71.9449 127.015 90.0449 125.967C92.6619 125.822 95.4999 125.46 98.1909 125.605Z" fill="#FFCA28"/>
<path d="M80.563 137.43C75.622 139.781 69.18 139.937 63.688 139.395C61.476 139.178 59.337 138.815 57.163 138.308C56.425 137.693 55.689 137.079 54.989 136.427C54.73 134.945 54.472 133.533 54.103 132.266C57.606 134.617 61.735 135.994 65.936 136.644C70.508 137.404 75.955 137.683 80.563 137.43Z" fill="black"/>
<path d="M97.179 127.565C99.828 119.723 106.265 113.879 112.217 108.127C117.286 103.229 121.159 98.1172 124.535 91.9772C127.806 86.0272 128.662 79.0512 127.838 72.3752C126.967 65.3232 123.338 59.0652 119.586 53.1172" stroke="black" stroke-width="0.825" stroke-linecap="round" stroke-linejoin="round"/>
<path d="M81.1928 61.0528C81.9708 61.5808 82.9258 62.0638 83.8148 61.7598C84.8308 61.4128 85.2598 60.2198 85.4168 59.1578C86.1888 53.9338 83.2518 48.3738 78.5018 46.0668C77.9268 45.7878 77.3058 45.5488 76.6688 45.5908C73.1098 45.8268 74.3658 51.0648 75.0048 53.1788C75.9938 56.4508 78.3978 59.1568 81.1928 61.0528Z" fill="#FFCA28"/>
<path d="M97.0868 63.8064C97.5348 64.1104 98.0848 64.3884 98.5978 64.2134C99.1838 64.0134 99.4308 63.3254 99.5208 62.7134C99.9658 59.7024 98.2738 56.4984 95.5358 55.1684C95.2048 55.0074 94.8458 54.8694 94.4788 54.8934C92.4268 55.0294 93.1518 58.0484 93.5198 59.2674C94.0898 61.1534 95.4758 62.7134 97.0868 63.8064Z" fill="#FFCA28"/>
<path d="M33.054 54.3492C36.883 48.0032 42.112 42.5072 48.26 38.3672" stroke="black" stroke-width="0.825" stroke-linecap="round" stroke-linejoin="round"/>
</g>
<g opacity="0.49925">
<path d="M127.574 75.6343C128.109 85.5563 123.208 96.3763 116.625 103.814C110.958 110.125 101.848 116.062 100.012 121.397C99.705 122.377 99.014 123.878 98.173 125.606C96.412 129.363 93.885 134.251 93.272 136.353C91.208 143.192 81.175 144.77 73.904 144.92C66.629 145.07 60.278 141.313 54.992 136.426C53.616 128.387 51.548 124.028 46.341 117.64C40.599 110.577 34.857 103.29 30.954 95.0233C23.679 79.5433 25.974 64.4403 35.395 50.4603C42.053 40.4693 52.849 33.5523 64.64 30.7743C72.831 28.8183 81.559 28.8193 89.675 31.2223C109.428 37.0123 126.423 55.4203 127.574 75.6343Z" fill="#D0DCEE"/>
<path d="M98.1909 125.605C96.4219 129.368 93.8779 134.251 93.2879 136.35C93.2879 136.422 93.2879 136.423 93.2159 136.495C91.0399 143.189 81.0879 144.781 73.8989 144.926C67.5959 145.036 61.9919 142.249 57.1629 138.304C56.4249 137.689 55.6889 137.075 54.9889 136.423C54.7299 134.941 54.4719 133.529 54.1029 132.262C53.8819 131.213 53.5509 130.236 53.2199 129.296C51.8559 125.171 49.7909 121.843 46.3259 117.645C40.6109 110.591 34.8619 103.281 30.9539 95.0314C23.6909 79.5464 25.9779 64.4224 35.4149 50.4564C42.0499 40.4694 52.8499 33.5594 64.6469 30.7734C61.5129 33.1244 59.0419 36.2004 55.9099 38.4444C52.7389 40.7584 49.8269 43.2204 47.2849 46.1864C42.1229 52.1564 38.5099 59.4294 36.9999 67.1004C34.5289 79.4374 37.3679 92.6434 44.4089 103.137C54.3629 118.007 71.9449 127.015 90.0449 125.967C92.6619 125.822 95.4999 125.46 98.1909 125.605Z" fill="#729BBF"/>
</g>
<path d="M84.5789 141.062C82.1069 131.061 80.6129 120.765 81.0789 110.484C81.5449 100.203 84.0259 89.9164 89.1239 80.9234C90.4019 78.6694 92.4859 76.2014 95.0709 76.6654C96.7819 76.9724 98.0239 78.6094 98.2339 80.3034C98.4439 81.9974 97.7889 83.6984 96.8399 85.1284C94.7389 88.2924 90.9859 89.7774 87.2599 90.7174C80.6949 92.3734 73.3059 92.4474 66.2889 89.9394C62.6739 88.6474 59.0059 86.9934 57.1419 83.6904C56.2989 82.1974 55.7709 80.4544 56.1039 78.7794C56.4369 77.1044 57.7949 75.5584 59.5239 75.3724C62.1359 75.0914 64.0349 77.7004 65.1449 80.0384C69.5739 89.3664 71.2959 99.8024 71.0099 110.089C70.7239 120.376 68.4819 130.541 65.2859 140.343" stroke="#095DA4" stroke-width="4.123" stroke-miterlimit="10"/>
<path d="M85.915 175.541C85.915 175.578 85.879 175.613 85.879 175.65C85.253 177.242 84 178.579 82.562 179.521C81.16 180.426 79.576 181.005 77.916 181.04C76.258 181.077 74.563 180.533 73.346 179.413C73.051 179.123 72.756 178.834 72.572 178.509C71.503 177.133 71.098 175.288 70.95 173.551L85.548 170.656C86.396 172.105 86.505 173.949 85.915 175.541Z" fill="#F72F43"/>
<path d="M85.915 175.54C84.036 175.36 82.119 175.36 80.238 175.65C77.511 176.01 74.82 176.952 72.572 178.508C71.503 177.132 71.098 175.288 70.95 173.551L85.548 170.656C86.396 172.105 86.505 173.948 85.915 175.54Z" fill="#E2212E"/>
<path d="M97.9979 163.731C96.8759 166.554 94.4389 168.66 91.8049 170.287C90.9759 170.766 90.1479 171.198 89.2689 171.532C81.5639 175.409 72.2979 175.935 64.1549 172.871C61.5709 171.962 59.1339 170.67 57.5239 168.564C55.8639 166.412 55.2309 163.298 56.5949 160.954C53.6209 158.273 52.7919 153.44 54.4019 149.752C54.8399 148.7 55.4759 147.646 56.3519 146.882C55.4259 146.162 54.5969 145.398 54.0109 144.585C53.2799 143.818 52.7449 142.956 52.3539 142.096C51.5729 140.133 51.6499 135.676 54.1519 135.856C67.5289 136.821 80.5379 139.279 94.0519 135.633C96.1179 135.075 97.3139 139.653 96.7309 141.759C96.3399 143.196 95.4619 144.536 94.1949 145.349C94.8279 145.59 95.3649 145.924 95.8529 146.354C96.8769 147.265 97.6079 148.556 97.8029 149.993C97.9509 150.806 97.8999 151.619 97.6569 152.386C97.3639 153.487 96.7319 154.539 95.9029 155.306L95.7069 155.497C96.2429 155.784 96.7319 156.215 97.0719 156.694C97.7049 157.461 98.0959 158.416 98.2409 159.47C98.6319 160.858 98.5839 162.389 97.9979 163.731Z" fill="#28B6F4"/>
<path d="M89.2929 171.55C81.5709 175.399 72.2919 175.949 64.1379 172.893C61.5839 171.977 59.1539 170.694 57.5369 168.554C55.8559 166.414 55.2329 163.3 56.6039 160.978C53.6119 158.289 52.8039 153.461 54.4239 149.734C54.8589 148.693 55.4819 147.654 56.3549 146.86C55.4189 146.189 54.6099 145.392 53.9899 144.598C53.3029 143.804 52.7429 142.947 52.3689 142.094C52.8679 142.58 53.3019 143.071 53.8009 143.56C57.2879 146.92 62.9519 148.447 67.6859 148.51C70.5499 148.57 73.4779 148.08 76.1529 147.042C77.0889 146.678 78.5179 146.371 78.9559 147.287C79.2659 147.839 78.9559 148.57 78.3969 148.937C77.8979 149.304 77.2109 149.426 76.5909 149.489C70.9849 150.283 65.3809 150.772 59.7779 151.076C58.4709 151.136 57.1639 151.199 56.0419 151.87C54.9839 152.544 54.2999 154.01 54.9839 155.111C55.5459 156.149 57.1029 156.454 57.4129 157.615C57.5979 158.594 56.7259 159.51 56.7259 160.548C56.7259 161.404 57.4729 162.199 58.2819 162.506C59.1549 162.81 60.0879 162.75 60.9609 162.75C68.3699 162.32 75.7819 160.978 82.8169 158.716C83.3759 158.534 83.9359 158.349 84.4979 158.471C85.0569 158.593 85.6169 159.02 85.5559 159.572C85.5559 160.121 85.0579 160.488 84.6229 160.733C78.5819 164.278 70.9839 162.932 64.0129 163.911C62.6419 164.093 61.1489 164.523 60.5869 165.743C59.9029 167.334 61.3949 169.044 62.8909 169.96C67.5609 172.893 73.3519 173.627 78.8309 173.26C82.3789 173.015 85.8059 172.344 89.2929 171.55Z" fill="#095DA4"/>
<path d="M94.0539 145.351C94.6179 145.565 95.0949 145.862 95.5289 146.245C92.9689 146.671 85.3759 148.263 87.8469 147.481C93.1149 145.814 92.2739 145.607 94.1829 144.159C94.6169 143.818 95.6159 142.668 96.3109 142.156C95.9629 143.435 95.1809 144.627 94.0539 145.351Z" fill="#095DA4"/>
<path d="M95.707 155.501C96.243 155.788 96.732 156.219 97.072 156.698C95.317 156.364 88.209 158.658 91.609 157.273C93.142 156.649 94.536 155.789 95.755 154.735C96.536 154.113 97.216 153.3 97.657 152.391C97.364 153.492 96.732 154.543 95.903 155.31L95.707 155.501Z" fill="#095DA4"/>
<path d="M148.484 125.473L149.767 111.911C149.823 111.318 150.711 110.808 151.665 110.899C152.498 110.978 153.274 111.645 153.218 112.238L151.935 125.799C151.872 126.473 150.991 126.902 150.159 126.823C149.204 126.732 148.421 126.147 148.484 125.473Z" fill="#E2212E"/>
<path d="M149.346 116.409L149.784 111.778C149.84 111.185 150.727 110.676 151.682 110.766C152.514 110.845 153.29 111.512 153.234 112.105L153.067 113.873C152.394 114.656 151.606 115.349 150.593 115.934C150.208 116.151 149.833 116.285 149.346 116.409Z" fill="#F72F43"/>
<path d="M138.689 155.572L144.613 156.133C145.567 156.223 146.268 157.069 146.177 158.023L145.894 161.017C145.804 161.97 144.958 162.67 144.004 162.579L138.08 162.019C137.126 161.928 136.425 161.082 136.516 160.128L136.799 157.135C136.889 156.181 137.735 155.482 138.689 155.572Z" fill="#F72F43"/>
<path d="M137.74 124.457L139.023 110.895C139.079 110.303 139.967 109.793 140.921 109.883C141.753 109.962 142.53 110.63 142.474 111.222L141.191 124.783C141.128 125.458 140.246 125.886 139.414 125.807C138.46 125.717 137.676 125.132 137.74 124.457Z" fill="#E2212E"/>
<path d="M131.092 124.714C131.109 123.607 131.465 122.537 132.12 121.919C132.698 121.21 133.589 120.784 134.588 120.966L154.264 123.25C156.285 123.441 157.364 125.499 156.82 127.659L150.601 152.06C149.536 156.122 144.954 158.751 140.252 158.132C138.314 157.948 136.602 157.193 135.171 156.124C133.016 154.646 131.616 152.389 131.604 149.835L131.092 124.714Z" fill="#00C6C5"/>
<path d="M132.119 121.919C132.696 121.21 133.589 120.785 134.588 120.966L154.265 123.25C156.285 123.442 157.363 125.5 156.819 127.66L150.6 152.06C149.535 156.122 144.954 158.752 140.252 158.132C138.314 157.949 136.602 157.193 135.171 156.124C140.314 155.677 145.233 153.079 148.185 148.856C151.527 144.071 151.988 137.4 148.979 132.354C146.135 127.412 140.698 124.686 135.248 122.983C134.178 122.625 133.099 122.351 132.119 121.919Z" fill="#018E9A"/>
<path d="M138.603 115.393L139.041 110.762C139.097 110.17 139.984 109.66 140.939 109.75C141.771 109.83 142.547 110.497 142.491 111.089L142.324 112.857C141.651 113.64 140.863 114.334 139.85 114.918C139.465 115.135 139.09 115.27 138.603 115.393Z" fill="#F72F43"/>
<path d="M139.904 142.356C140.043 142.723 140.227 143.121 140.59 143.269C141.086 143.47 141.634 143.091 141.934 142.647C142.501 141.806 142.575 140.694 142.283 139.721C141.99 138.748 141.367 137.902 140.641 137.193C140.348 136.908 139.985 136.625 139.58 136.67C139.195 136.713 138.897 137.056 138.786 137.427C138.383 138.781 139.423 141.094 139.904 142.356Z" fill="#018E9A"/>
<path d="M140.732 134.164C140.817 134.389 140.931 134.634 141.153 134.725C141.458 134.85 141.798 134.616 141.981 134.343C142.33 133.825 142.375 133.142 142.196 132.543C142.017 131.945 141.633 131.426 141.186 130.99C141.007 130.814 140.782 130.64 140.533 130.667C140.296 130.694 140.114 130.905 140.046 131.134C139.797 131.966 140.436 133.388 140.732 134.164Z" fill="#018E9A"/>
<path d="M131.074 124.82L131.603 149.831" stroke="black" stroke-width="0.907014" stroke-linecap="round" stroke-linejoin="round"/>
<g opacity="0.97169">
<path d="M82.8601 24.55C82.7201 24.55 82.5771 24.543 82.4351 24.527C80.4121 24.299 78.9601 22.504 79.1921 20.52C79.8451 14.936 80.1671 9.252 80.1491 3.629C80.1441 1.631 81.7891 0.00499916 83.8251 0C83.8291 0 83.8321 0 83.8361 0C85.8661 0 87.5171 1.613 87.5221 3.608C87.5401 9.512 87.2021 15.479 86.5181 21.343C86.3021 23.189 84.7071 24.55 82.8601 24.55Z" fill="#FFD880"/>
<path d="M117.4 37.8341C116.437 37.8341 115.476 37.4661 114.752 36.7331C113.335 35.2981 113.373 33.0071 114.835 31.6171L125.049 21.9021C126.512 20.5121 128.845 20.5481 130.262 21.9831C131.679 23.4181 131.641 25.7091 130.179 27.0991L119.965 36.8141C119.249 37.4941 118.323 37.8341 117.4 37.8341Z" fill="#FFD880"/>
<path d="M136.978 71.6511C134.989 71.6511 133.349 70.0951 133.295 68.1321C133.239 66.1341 134.845 64.4691 136.879 64.4161L148.026 64.1211C150.159 64.0271 151.755 65.6421 151.809 67.6401C151.863 69.6381 150.258 71.3011 148.224 71.3541L137.08 71.6491C137.046 71.6511 137.012 71.6511 136.978 71.6511Z" fill="#FFD880"/>
<path d="M43.935 30.0892C42.583 30.0892 41.282 29.3572 40.636 28.0922L34.977 17.0142C34.064 15.2282 34.8 13.0532 36.62 12.1572C38.443 11.2632 40.654 11.9842 41.568 13.7702L47.227 24.8492C48.14 26.6372 47.404 28.8092 45.584 29.7052C45.053 29.9652 44.489 30.0892 43.935 30.0892Z" fill="#FFD880"/>
<path d="M18.491 59.5824C17.991 59.5824 17.483 59.4814 16.997 59.2694C12.411 57.2714 7.64501 55.5484 2.83201 54.1514C0.879007 53.5844 -0.235993 51.5724 0.342006 49.6554C0.922007 47.7384 2.97401 46.6464 4.92301 47.2114C10.042 48.6994 15.111 50.5304 19.989 52.6554C21.85 53.4664 22.688 55.6034 21.862 57.4304C21.252 58.7804 19.904 59.5824 18.491 59.5824Z" fill="#FFD880"/>
<path d="M6.32207 95.3565C4.94007 95.3565 3.61307 94.5905 2.98507 93.2795C2.11707 91.4705 2.91007 89.3145 4.75107 88.4645C8.40307 86.7775 12.2291 85.3985 16.1261 84.3595C18.1011 83.8415 20.1171 84.9785 20.6501 86.9045C21.1831 88.8315 20.0221 90.8195 18.0561 91.3445C14.5751 92.2705 11.1531 93.5055 7.89007 95.0125C7.38207 95.2475 6.84807 95.3565 6.32207 95.3565Z" fill="#FFD880"/>
<path d="M145.941 103.479C145.349 103.479 144.75 103.339 144.192 103.044C140.689 101.185 137.006 99.5658 133.25 98.2318C131.335 97.5518 130.345 95.4758 131.038 93.5978C131.733 91.7178 133.851 90.7498 135.759 91.4268C139.857 92.8848 143.873 94.6488 147.698 96.6768C149.489 97.6268 150.155 99.8218 149.188 101.582C148.52 102.792 147.251 103.479 145.941 103.479Z" fill="#FFD880"/>
</g>
</svg>
