<svg width="213" height="168" viewBox="0 0 213 168" fill="none" xmlns="http://www.w3.org/2000/svg">
<path d="M126.169 87.8246C126.097 88.3321 126.356 88.8306 126.801 89.0462L128.699 89.972L127.628 90.2862C127.166 90.4208 126.844 90.8567 126.833 91.36C126.822 91.8634 127.125 92.32 127.58 92.4854L130.579 93.5775L129.944 93.9366C129.548 94.1615 129.325 94.6196 129.383 95.0922C129.441 95.5627 129.769 95.9501 130.208 96.0693L134.374 97.1857L133.915 97.7549C133.662 98.0709 133.59 98.5045 133.727 98.894C133.865 99.2835 134.188 99.5682 134.577 99.6392L139.642 100.568L139.499 101.724C139.46 102.036 139.545 102.351 139.732 102.598C139.902 102.822 140.143 102.97 140.409 103.019C140.437 103.024 140.464 103.028 140.492 103.029L145.911 103.581L146.689 105.397C146.842 105.755 147.153 106.003 147.511 106.068C147.568 106.078 147.627 106.085 147.685 106.085L152.953 106.159L154.948 108.309C155.113 108.486 155.327 108.604 155.554 108.645C155.647 108.662 155.741 108.666 155.836 108.658L160.576 108.235L163.733 110.451C163.864 110.542 164.009 110.603 164.16 110.631C164.299 110.656 164.442 110.654 164.582 110.621L168.497 109.733L172.637 111.834C172.731 111.882 172.83 111.915 172.93 111.933C173.136 111.971 173.351 111.947 173.547 111.859L176.394 110.59L181.263 112.435C181.323 112.459 181.387 112.475 181.45 112.487C181.75 112.541 182.06 112.464 182.304 112.268L187.098 108.393L195.717 108.921L201.773 109.604C202.213 109.654 202.635 109.423 202.845 109.019C203.056 108.615 203.017 108.115 202.743 107.751L202.319 107.185L205.788 107.279C206.262 107.292 206.69 106.981 206.845 106.513C207 106.042 206.85 105.521 206.472 105.215L205.696 104.59L208.044 104.417C208.53 104.38 208.934 104.014 209.034 103.512C209.133 103.011 208.906 102.499 208.474 102.253L207.031 101.434L208.45 101.143C208.928 101.046 209.283 100.629 209.324 100.12C209.367 99.6118 209.084 99.1329 208.632 98.9418L206.208 97.92L207.019 97.5886C207.455 97.4102 207.733 96.9599 207.711 96.4679C207.689 95.9759 207.371 95.5512 206.919 95.408L203.327 94.2792L203.855 93.8506C204.192 93.5761 204.345 93.1202 204.248 92.6839C204.15 92.2451 203.818 91.9048 203.4 91.8111L198.729 90.7607L199.09 89.9459C199.235 89.6146 199.222 89.2261 199.053 88.9046C198.89 88.5951 198.601 88.3796 198.271 88.3193C198.257 88.3168 198.245 88.3146 198.231 88.312L192.917 87.5521L192.67 86.0363C192.59 85.5466 192.223 85.1673 191.766 85.0838C191.723 85.0761 191.681 85.0705 191.638 85.0691L186.24 84.7494L184.861 82.7254C184.69 82.4729 184.432 82.3066 184.148 82.2547C184.074 82.2411 184 82.2363 183.923 82.2375L178.877 82.4113L176.284 80.2026C176.134 80.0754 175.958 79.9935 175.775 79.96C175.662 79.9395 175.545 79.9375 175.428 79.9552L171.066 80.6186L167.389 78.4417C167.277 78.3758 167.158 78.3323 167.035 78.3099C166.866 78.279 166.692 78.2906 166.527 78.3428L163.118 79.4383L158.578 77.451C158.501 77.4174 158.422 77.3921 158.342 77.3774C158.086 77.3307 157.821 77.38 157.596 77.521L155.352 78.9181L150.238 77.2447C150.191 77.2295 150.145 77.2169 150.099 77.2084C149.694 77.1345 149.278 77.3036 149.032 77.6556L148.038 79.0727L142.744 77.8218C142.726 77.8185 142.708 77.8152 142.69 77.8119C142.39 77.7571 142.081 77.8353 141.84 78.0276C141.584 78.2324 141.427 78.5443 141.412 78.8844L141.366 79.9107L136.434 79.151C136.026 79.0873 135.622 79.2695 135.384 79.6208C135.147 79.9722 135.119 80.4336 135.31 80.8175L135.626 81.4522L131.594 81.1672C131.133 81.1351 130.705 81.4061 130.521 81.8497C130.338 82.2912 130.438 82.8106 130.772 83.1471L131.339 83.717L128.442 83.7779C127.958 83.7871 127.541 84.1297 127.412 84.618C127.285 85.1068 127.479 85.6279 127.887 85.9021L128.953 86.6152L127.106 86.8634C126.621 86.9289 126.238 87.321 126.166 87.8285L126.169 87.8246ZM167.826 91.9372C167.982 91.9634 168.139 91.99 168.292 92.0179C173.13 92.9014 176.515 94.7427 177.358 96.1071C177.45 96.2562 177.551 96.4678 177.512 96.6254C177.29 97.5349 173.602 98.7616 167.633 97.7693C167.478 97.7431 167.323 97.7169 167.168 97.6885C162.329 96.8051 158.945 94.9638 158.1 93.5991C158.008 93.4499 157.906 93.2383 157.946 93.0807C158.168 92.1712 161.856 90.9446 167.824 91.9369L167.826 91.9372Z" fill="#DBE6FF"/>
<path d="M166.991 98.8227C167.15 98.8517 167.311 98.8811 167.473 98.9063C173.177 99.8547 178.075 98.9792 178.578 96.9214C179.12 94.7061 174.532 91.9898 168.471 90.8831C168.312 90.8541 168.151 90.8247 167.987 90.7991C162.283 89.8508 157.385 90.7263 156.882 92.7861C156.34 95.0015 160.928 97.7177 166.99 98.8248L166.991 98.8227ZM161.577 92.8322C163.318 92.6253 165.48 92.7119 167.664 93.0739C167.815 93.0994 167.964 93.1245 168.113 93.1517C170.352 93.5605 172.481 94.2313 174.108 95.0403C175.138 95.5536 175.759 96.0141 176.104 96.3373C175.687 96.5215 174.978 96.7369 173.886 96.8673C172.145 97.0742 169.983 96.9875 167.797 96.6252C167.648 96.6001 167.497 96.5746 167.348 96.5474C165.109 96.1386 162.98 95.4678 161.353 94.6588C160.323 94.1455 159.702 93.685 159.358 93.3618C159.774 93.1775 160.483 92.9622 161.575 92.8318L161.577 92.8322Z" fill="#452E63"/>
<path d="M125.08 87.6471C124.948 88.5946 125.389 89.5275 126.174 89.9985C125.906 90.3725 125.746 90.8314 125.735 91.3239C125.713 92.3306 126.317 93.2413 127.227 93.5746L128.456 94.0223C128.302 94.3933 128.242 94.8118 128.296 95.2337C128.414 96.1772 129.07 96.9522 129.949 97.1885L132.634 97.9086C132.524 98.357 132.541 98.8374 132.7 99.2873C132.975 100.066 133.623 100.634 134.401 100.778L138.42 101.516L138.411 101.569C138.336 102.19 138.503 102.822 138.88 103.314C139.219 103.76 139.702 104.06 140.236 104.158C140.29 104.168 140.344 104.178 140.402 104.182L145.18 104.668L145.694 105.866C146 106.579 146.621 107.076 147.34 107.208C147.455 107.229 147.571 107.241 147.689 107.241L152.5 107.31L154.175 109.115C154.504 109.47 154.931 109.704 155.386 109.787C155.572 109.821 155.761 109.83 155.95 109.814L160.305 109.428L163.139 111.416C163.401 111.598 163.69 111.72 163.992 111.775C164.27 111.826 164.554 111.822 164.834 111.758L168.379 110.952L172.176 112.877C172.364 112.972 172.561 113.039 172.76 113.075C173.173 113.15 173.601 113.101 173.993 112.927L176.446 111.835L180.909 113.526C181.032 113.573 181.155 113.608 181.281 113.631C181.881 113.741 182.503 113.585 182.991 113.191L187.462 109.578L195.646 110.079L201.676 110.759C202.553 110.859 203.398 110.399 203.822 109.591C204.018 109.217 204.106 108.804 204.089 108.395L205.783 108.44C206.734 108.466 207.587 107.848 207.897 106.909C208.04 106.475 208.054 106.015 207.95 105.589L208.143 105.574C209.117 105.502 209.923 104.765 210.123 103.764C210.263 103.057 210.077 102.337 209.651 101.804C210.09 101.424 210.381 100.866 210.432 100.24C210.516 99.2225 209.953 98.265 209.046 97.8824L208.54 97.6709C208.737 97.3034 208.839 96.8795 208.818 96.4354C208.773 95.451 208.136 94.5995 207.236 94.3179L205.275 93.7016C205.401 93.304 205.424 92.87 205.33 92.445C205.135 91.5678 204.472 90.8871 203.632 90.6968L200.257 89.9374C200.357 89.4091 200.279 88.8504 200.024 88.3657C199.698 87.7443 199.121 87.3158 198.461 87.1953C198.435 87.1905 198.406 87.1853 198.38 87.1805L193.875 86.5379L193.766 85.865C193.607 84.886 192.873 84.1295 191.957 83.9622C191.873 83.9468 191.789 83.9359 191.703 83.931L186.835 83.6429L185.766 82.0724C185.422 81.5694 184.908 81.2347 184.338 81.1306C184.191 81.1038 184.04 81.0913 183.887 81.0982L179.253 81.2584L176.982 79.3232C176.684 79.0693 176.331 78.9029 175.963 78.8356C175.735 78.7941 175.502 78.7904 175.271 78.8242L171.281 79.4296L167.933 77.4475C167.71 77.3155 167.471 77.2264 167.224 77.1812C166.885 77.1194 166.536 77.1403 166.204 77.2467L163.176 78.2206L159.002 76.3935C158.849 76.3265 158.689 76.2778 158.528 76.2484C158.019 76.1553 157.487 76.2535 157.035 76.5332L155.209 77.6682L150.563 76.1474C150.47 76.1174 150.376 76.0938 150.282 76.0765C149.47 75.9284 148.642 76.2673 148.148 76.971L147.576 77.7862L142.981 76.6999C142.945 76.6933 142.909 76.6845 142.875 76.6783C142.275 76.5687 141.66 76.7233 141.177 77.11C140.724 77.472 140.427 78.0033 140.342 78.5909L136.591 78.0143C135.776 77.8894 134.965 78.251 134.491 78.9541C134.242 79.325 134.108 79.756 134.093 80.1936L131.665 80.0214C130.743 79.9551 129.887 80.5014 129.52 81.3844C129.356 81.7775 129.306 82.2 129.357 82.6085L128.416 82.6275C127.448 82.648 126.613 83.3286 126.358 84.3057C126.221 84.8295 126.268 85.3738 126.468 85.8486C125.741 86.1366 125.201 86.8167 125.084 87.652L125.08 87.6471ZM132.101 87.3544L128.476 84.9289L134.012 84.8141L131.531 82.3178L137.502 82.7401L136.283 80.29L142.409 81.2328L142.509 78.9454L148.502 80.3628L149.916 78.3436L155.498 80.1699L158.16 78.513L163.068 80.6628L166.854 79.4475L170.858 81.8186L175.591 81.0995L178.507 83.5841L183.966 83.3966L185.654 85.8761L191.583 86.2278L191.967 88.5884L198.088 89.4633L197.15 91.5933L203.177 92.9498L200.958 94.7485L206.611 96.5246L203.217 97.9091L208.23 100.02L203.82 100.926L207.959 103.274L202.736 103.658L205.807 106.134L200.019 105.98L201.88 108.467L195.797 107.781L186.746 107.226L181.629 111.361L176.354 109.361L173.11 110.805L168.628 108.531L164.342 109.503L160.86 107.061L155.734 107.517L153.419 105.021L147.692 104.938L146.649 102.505L140.588 101.888L140.867 99.6312L134.757 98.509L136.345 96.5344L130.47 94.9585L133.294 93.357L127.929 91.4013L131.854 90.2483L127.251 88.0044L132.095 87.3554L132.101 87.3544Z" fill="#452E63"/>
<path d="M166.055 105.74C182.43 108.661 196.456 106.153 197.38 100.138C198.306 94.1254 185.779 86.8838 169.404 83.9629C153.028 81.042 139.002 83.55 138.079 89.5631C137.153 95.5758 149.679 102.817 166.055 105.738L166.055 105.74ZM168.371 90.6936C174.626 91.8099 179.41 94.5748 179.056 96.8723C178.701 99.1697 173.345 100.126 167.091 99.0126C160.836 97.8963 156.052 95.1313 156.406 92.8339C156.76 90.5365 162.117 89.5798 168.371 90.6936Z" fill="#B6CCF2"/>
<path d="M166.185 104.9C181.299 107.595 194.244 105.28 195.097 99.7313C195.95 94.1803 184.392 87.4973 169.277 84.8023C154.163 82.1074 141.218 84.4222 140.365 89.9711C139.512 95.5221 151.07 102.205 166.185 104.9ZM168.322 91.0115C174.094 92.0416 178.51 94.594 178.184 96.7143C177.857 98.8347 172.912 99.719 167.14 98.6888C161.368 97.6586 156.951 95.1059 157.277 92.9856C157.603 90.8653 162.548 89.981 168.32 91.0111L168.322 91.0115Z" fill="#DBE6FF"/>
<path d="M166.298 104.162C180.3 106.658 192.292 104.514 193.082 99.3722C193.873 94.2306 183.165 88.039 169.163 85.5428C155.16 83.0466 143.168 85.1906 142.378 90.3322C141.587 95.4739 152.295 101.665 166.298 104.162ZM168.278 91.2962C173.625 92.2488 177.716 94.6139 177.414 96.5783C177.112 98.5426 172.532 99.3611 167.182 98.4082C161.835 97.4556 157.745 95.0905 158.046 93.1262C158.348 91.1619 162.928 90.3433 168.278 91.2962Z" fill="#B6CCF2"/>
<path d="M168.722 89.2721C174.659 90.3564 180.73 93.2437 180.142 97.0644C179.945 98.3386 178.94 99.9986 175.261 100.656C172.922 101.075 169.942 101.004 166.868 100.456C166.826 100.448 166.783 100.44 166.739 100.432C160.802 99.3479 154.73 96.4606 155.318 92.6399C155.911 88.7896 162.615 88.1852 168.592 89.2507C168.635 89.2584 168.677 89.2661 168.721 89.2742L168.722 89.2721ZM177.056 96.5138C176.84 95.7652 173.956 93.538 168.222 92.4909C168.18 92.4832 168.139 92.4758 168.097 92.4681C162.279 91.4295 158.835 92.5511 158.405 93.1884C158.621 93.937 161.505 96.1642 167.239 97.2113C167.281 97.219 167.322 97.2264 167.364 97.2341C173.182 98.2727 176.626 97.1511 177.056 96.5138Z" fill="#452E63"/>
<path d="M71.0328 123.971L80.2308 121.014L83.2859 130.568L91.661 125.609L96.6051 134.253L103.765 127.523L110.367 134.852L115.979 126.668L123.932 132.339L127.732 123.084L136.663 126.83L138.474 116.936L147.966 118.584L147.705 108.512L157.313 107.986L154.989 98.2091L164.265 95.5318L159.989 86.5074L168.499 81.8049L162.47 73.9524L169.816 67.4451L162.317 61.1344L168.153 53.1259L159.533 48.65L163.591 39.5145L154.254 37.0852L156.341 27.2504L146.723 26.9788L146.741 16.9044L137.292 18.8034L135.241 8.96001L126.403 12.9418L122.38 3.78918L114.566 9.66784L108.758 1.63574L102.333 9.13536L95.0122 2.59805L90.2784 11.3679L81.787 6.63122L78.9646 16.2629L69.6992 13.5492L68.9191 23.5914L59.3126 23.0269L60.6135 33.0093L51.1152 34.6195L54.4338 44.0758L45.489 47.7861L50.6721 56.2737L42.6973 61.9107L49.5019 69.034L42.8709 76.3347L50.9784 81.76L46.0016 90.3823L55.0342 93.8552L51.9444 103.397L61.4773 104.755L60.4174 114.769L70.0076 113.95L71.0287 123.969L71.0328 123.971ZM94.0197 81.1035C87.2662 74.1855 87.1477 62.8431 93.7542 55.7733C100.361 48.7014 111.192 48.5773 117.944 55.4953C124.698 62.4132 124.816 73.7536 118.209 80.8255C111.603 87.8974 100.771 88.0214 94.0197 81.1035Z" fill="#FFAA71"/>
<path d="M110.368 136.481C109.941 136.481 109.53 136.297 109.234 135.97L103.675 129.8L97.6448 135.465C97.2976 135.79 96.832 135.938 96.3704 135.865C95.9109 135.792 95.5046 135.508 95.2656 135.091L91.1016 127.814L84.0499 131.99C83.6455 132.23 83.1574 132.268 82.7245 132.093C82.2895 131.917 81.9526 131.55 81.8055 131.088L79.2344 123.043L71.4904 125.534C71.0452 125.677 70.5632 125.605 70.1752 125.335C69.7872 125.068 69.534 124.632 69.4829 124.146L68.6231 115.71L60.5483 116.399C60.0868 116.439 59.6293 116.26 59.3046 115.909C58.9799 115.56 58.8227 115.077 58.8737 114.592L59.7661 106.16L51.7383 105.016C51.2768 104.949 50.8683 104.671 50.6232 104.256C50.3782 103.841 50.323 103.335 50.4721 102.873L53.0739 94.8385L45.4687 91.9131C45.0317 91.7441 44.6907 91.3806 44.5355 90.9208C44.3823 90.4611 44.4313 89.9521 44.6723 89.5351L48.8629 82.275L42.0358 77.7072C41.6437 77.4442 41.3844 77.0122 41.3272 76.5289C41.27 76.0456 41.4252 75.5602 41.7458 75.2073L47.3292 69.0592L41.5988 63.0608C41.27 62.7165 41.1046 62.2354 41.1495 61.7499C41.1945 61.2645 41.4436 60.8261 41.8296 60.5524L48.5443 55.805L44.1801 48.6582C43.9289 48.2476 43.8677 47.7408 44.0106 47.2768C44.1536 46.8127 44.4865 46.4406 44.9194 46.261L52.451 43.1367L49.6552 35.1751C49.4939 34.7175 49.5368 34.2086 49.7737 33.7894C50.0086 33.3681 50.4109 33.0794 50.8704 33.0025L58.8676 31.6467L57.773 23.2403C57.7097 22.757 57.8567 22.2695 58.1733 21.9123C58.4898 21.5552 58.9411 21.3628 59.4047 21.3906L67.4938 21.8674L68.1494 13.4119C68.1861 12.9265 68.4291 12.4838 68.811 12.2058C69.1929 11.9278 69.6728 11.8423 70.1221 11.9727L77.9233 14.2588L80.3004 6.14967C80.4372 5.68348 80.766 5.30711 81.1949 5.12106C81.6258 4.93501 82.1118 4.96068 82.5223 5.18949L89.672 9.17774L93.6584 1.79146C93.8871 1.36805 94.2854 1.07293 94.7428 0.987396C95.2003 0.901857 95.672 1.03658 96.0253 1.35307L102.189 6.8575L107.598 0.542597C107.909 0.179056 108.354 -0.0198212 108.824 0.00156356C109.289 0.0208098 109.72 0.258178 110.002 0.64738L114.893 7.41137L121.473 2.46081C121.851 2.17639 122.331 2.08443 122.78 2.20846C123.229 2.33249 123.603 2.66182 123.797 3.10448L127.185 10.8115L134.627 7.45841C135.054 7.26595 135.542 7.28306 135.956 7.50546C136.371 7.72786 136.667 8.13417 136.767 8.60891L138.493 16.8976L146.449 15.2981C146.907 15.2061 147.378 15.3323 147.738 15.6445C148.097 15.9567 148.303 16.4165 148.301 16.904L148.285 25.3874L156.384 25.6162C156.85 25.629 157.285 25.86 157.571 26.2428C157.857 26.6255 157.965 27.1259 157.863 27.6007L156.107 35.8808L163.969 37.9274C164.42 38.045 164.798 38.3679 164.998 38.8063C165.199 39.2468 165.203 39.7557 165.004 40.1984L161.588 47.8905L168.846 51.6585C169.262 51.8745 169.565 52.2744 169.671 52.7491C169.777 53.2238 169.675 53.7221 169.391 54.1113L164.476 60.8539L170.79 66.168C171.154 66.4738 171.366 66.9315 171.372 67.419C171.378 67.9066 171.176 68.3707 170.821 68.685L164.635 74.1638L169.712 80.7759C170.004 81.1566 170.118 81.6527 170.024 82.1296C169.93 82.6065 169.636 83.0149 169.226 83.2416L162.062 87.1999L165.662 94.8C165.868 95.2363 165.879 95.7474 165.689 96.1922C165.499 96.637 165.129 96.9706 164.68 97.0989L156.87 99.3528L158.827 107.586C158.939 108.059 158.843 108.559 158.567 108.95C158.29 109.342 157.861 109.583 157.395 109.609L149.306 110.052L149.527 118.531C149.539 119.018 149.343 119.484 148.992 119.805C148.64 120.126 148.173 120.263 147.713 120.186L139.722 118.798L138.197 127.129C138.109 127.608 137.821 128.021 137.412 128.254C137.004 128.487 136.518 128.517 136.085 128.338L128.566 125.181L125.366 132.974C125.182 133.421 124.816 133.761 124.369 133.896C123.922 134.03 123.44 133.951 123.056 133.677L116.359 128.902L111.634 135.792C111.362 136.188 110.935 136.436 110.472 136.468C110.437 136.47 110.402 136.472 110.368 136.472V136.481ZM103.765 125.889C104.18 125.889 104.592 126.06 104.899 126.4L110.204 132.287L114.713 125.712C115.206 124.993 116.157 124.816 116.856 125.314L123.246 129.871L126.299 122.433C126.634 121.621 127.526 121.234 128.31 121.563L135.487 124.574L136.943 116.623C137.102 115.753 137.894 115.175 138.728 115.321L146.355 116.647L146.145 108.555C146.122 107.669 146.778 106.927 147.621 106.88L155.343 106.457L153.476 98.6001C153.272 97.7404 153.76 96.8679 154.575 96.6327L162.029 94.4814L158.592 87.2298C158.216 86.4365 158.512 85.4742 159.26 85.0614L166.097 81.2827L161.253 74.9742C160.724 74.2835 160.816 73.2784 161.461 72.7053L167.363 67.4768L161.337 62.4065C160.677 61.8526 160.561 60.8475 161.073 60.1439L165.764 53.7093L158.837 50.1124C158.079 49.7189 157.759 48.7651 158.116 47.9611L161.376 40.6197L153.872 38.6673C153.052 38.4534 152.543 37.5938 152.727 36.7298L154.403 28.826L146.676 28.6079C145.83 28.5844 145.158 27.8594 145.158 26.9741L145.173 18.8779L137.58 20.4047C136.751 20.5715 135.944 20.0155 135.762 19.1494L134.114 11.2392L127.014 14.4384C126.235 14.7891 125.335 14.4256 124.982 13.6215L121.749 6.26728L115.471 10.9912C114.785 11.5065 113.829 11.3568 113.319 10.6512L108.652 4.19724L103.49 10.2235C102.924 10.8821 101.962 10.9505 101.319 10.3753L95.4351 5.12106L91.6305 12.1695C91.2139 12.9393 90.2867 13.2237 89.5413 12.8067L82.7184 9.00025L80.4495 16.7394C80.2003 17.5862 79.3549 18.0716 78.54 17.8321L71.0942 15.6509L70.4672 23.7193C70.3978 24.6025 69.6708 25.2655 68.8274 25.2163L61.1079 24.7629L62.1535 32.7843C62.2679 33.6611 61.694 34.4737 60.8587 34.6149L53.227 35.9086L55.8942 43.5066C56.1862 44.3385 55.7921 45.2602 55.0058 45.5874L47.8173 48.5684L51.9813 55.3901C52.4367 56.1365 52.2407 57.1266 51.5402 57.6227L45.1318 62.152L50.5987 67.8767C51.1971 68.5032 51.2094 69.5147 50.6253 70.1563L45.2972 76.0221L51.8118 80.3803C52.5245 80.8572 52.7431 81.8409 52.306 82.6L48.3074 89.5287L55.5654 92.3194C56.3598 92.6252 56.7764 93.5362 56.5048 94.3745L54.0215 102.041L61.6817 103.134C62.519 103.253 63.1133 104.051 63.0214 104.93L62.1698 112.977L69.875 112.318C70.7184 112.244 71.4618 112.891 71.5517 113.773L72.3726 121.822L79.7633 119.444C80.572 119.183 81.4297 119.647 81.6993 120.485L84.154 128.162L90.8831 124.176C91.6203 123.74 92.5536 123.999 92.9865 124.758L96.9586 131.704L102.713 126.298C103.012 126.017 103.383 125.881 103.755 125.881L103.765 125.889ZM105.979 87.8436C101.072 87.8436 96.446 85.8698 92.9314 82.2686C85.5754 74.7326 85.4447 62.3337 92.6414 54.6288C96.1274 50.8972 100.794 48.81 105.779 48.7523C110.774 48.6967 115.473 50.6748 119.037 54.3252C122.6 57.9755 124.594 62.8619 124.649 68.082C124.704 73.302 122.813 78.2333 119.327 81.9649C115.841 85.6965 111.174 87.7837 106.189 87.8414C106.12 87.8414 106.048 87.8414 105.979 87.8414V87.8436ZM105.989 52.0177C105.93 52.0177 105.873 52.0177 105.814 52.0177C101.662 52.0648 97.7734 53.8034 94.8694 56.9127C88.8735 63.3303 88.9818 73.657 95.1104 79.9355C98.0798 82.9764 102.005 84.6295 106.153 84.5781C110.306 84.5311 114.193 82.7925 117.097 79.6832C120.001 76.5738 121.575 72.468 121.53 68.1204C121.485 63.7729 119.825 59.7013 116.856 56.6604C113.929 53.6622 110.076 52.0177 105.987 52.0177H105.989Z" fill="#452E63"/>
<path d="M71.0328 123.971L80.2308 121.014L83.2859 130.568L91.661 125.609L96.6051 134.253L103.765 127.523L110.367 134.852L115.979 126.668L123.932 132.339L127.732 123.084L136.663 126.83L138.474 116.936L147.966 118.584L147.705 108.512L157.313 107.986L154.989 98.2091L164.265 95.5318L159.989 86.5074L168.499 81.8049L162.47 73.9524L169.816 67.4451L162.317 61.1344L168.153 53.1259L159.533 48.65L163.591 39.5145L154.254 37.0852L156.341 27.2504L146.723 26.9788L146.741 16.9044L137.292 18.8034L135.241 8.96001L126.403 12.9418L122.38 3.78918L114.566 9.66784L108.758 1.63574L102.333 9.13536L95.0122 2.59805L90.2784 11.3679L81.787 6.63122L78.9646 16.2629L69.6992 13.5492L68.9191 23.5914L59.3126 23.0269L60.6135 33.0093L51.1152 34.6195L54.4338 44.0758L45.489 47.7861L50.6721 56.2737L42.6973 61.9107L49.5019 69.034L42.8709 76.3347L50.9784 81.76L46.0016 90.3823L55.0342 93.8552L51.9444 103.397L61.4773 104.755L60.4174 114.769L70.0076 113.95L71.0287 123.969L71.0328 123.971ZM94.0197 81.1035C87.2662 74.1855 87.1477 62.8431 93.7542 55.7733C100.361 48.7014 111.192 48.5773 117.944 55.4953C124.698 62.4132 124.816 73.7536 118.209 80.8255C111.603 87.8974 100.771 88.0214 94.0197 81.1035Z" fill="#FFAA71"/>
<path d="M110.368 136.481C109.941 136.481 109.53 136.297 109.234 135.97L103.675 129.8L97.6448 135.465C97.2976 135.79 96.832 135.938 96.3704 135.865C95.9109 135.792 95.5046 135.508 95.2656 135.091L91.1016 127.814L84.0499 131.99C83.6455 132.23 83.1574 132.268 82.7245 132.093C82.2895 131.917 81.9526 131.55 81.8055 131.088L79.2344 123.043L71.4904 125.534C71.0452 125.677 70.5632 125.605 70.1752 125.335C69.7872 125.068 69.534 124.632 69.4829 124.146L68.6231 115.71L60.5483 116.399C60.0868 116.439 59.6293 116.26 59.3046 115.909C58.9799 115.56 58.8227 115.077 58.8737 114.592L59.7661 106.16L51.7383 105.016C51.2768 104.949 50.8683 104.671 50.6232 104.256C50.3782 103.841 50.323 103.335 50.4721 102.873L53.0739 94.8385L45.4687 91.9131C45.0317 91.7441 44.6907 91.3806 44.5355 90.9208C44.3823 90.4611 44.4313 89.9521 44.6723 89.5351L48.8629 82.275L42.0358 77.7072C41.6437 77.4442 41.3844 77.0122 41.3272 76.5289C41.27 76.0456 41.4252 75.5602 41.7458 75.2073L47.3292 69.0592L41.5988 63.0608C41.27 62.7165 41.1046 62.2354 41.1495 61.7499C41.1945 61.2645 41.4436 60.8261 41.8296 60.5524L48.5443 55.805L44.1801 48.6582C43.9289 48.2476 43.8677 47.7408 44.0106 47.2768C44.1536 46.8127 44.4865 46.4406 44.9194 46.261L52.451 43.1367L49.6552 35.1751C49.4939 34.7175 49.5368 34.2086 49.7737 33.7894C50.0086 33.3681 50.4109 33.0794 50.8704 33.0025L58.8676 31.6467L57.773 23.2403C57.7097 22.757 57.8567 22.2695 58.1733 21.9123C58.4898 21.5552 58.9411 21.3628 59.4047 21.3906L67.4938 21.8674L68.1494 13.4119C68.1861 12.9265 68.4291 12.4838 68.811 12.2058C69.1929 11.9278 69.6728 11.8423 70.1221 11.9727L77.9233 14.2588L80.3004 6.14967C80.4372 5.68348 80.766 5.30711 81.1949 5.12106C81.6258 4.93501 82.1118 4.96068 82.5223 5.18949L89.672 9.17774L93.6584 1.79146C93.8871 1.36805 94.2854 1.07293 94.7428 0.987396C95.2003 0.901857 95.672 1.03658 96.0253 1.35307L102.189 6.8575L107.598 0.542597C107.909 0.179056 108.354 -0.0198212 108.824 0.00156356C109.289 0.0208098 109.72 0.258178 110.002 0.64738L114.893 7.41137L121.473 2.46081C121.851 2.17639 122.331 2.08443 122.78 2.20846C123.229 2.33249 123.603 2.66182 123.797 3.10448L127.185 10.8115L134.627 7.45841C135.054 7.26595 135.542 7.28306 135.956 7.50546C136.371 7.72786 136.667 8.13417 136.767 8.60891L138.493 16.8976L146.449 15.2981C146.907 15.2061 147.378 15.3323 147.738 15.6445C148.097 15.9567 148.303 16.4165 148.301 16.904L148.285 25.3874L156.384 25.6162C156.85 25.629 157.285 25.86 157.571 26.2428C157.857 26.6255 157.965 27.1259 157.863 27.6007L156.107 35.8808L163.969 37.9274C164.42 38.045 164.798 38.3679 164.998 38.8063C165.199 39.2468 165.203 39.7557 165.004 40.1984L161.588 47.8905L168.846 51.6585C169.262 51.8745 169.565 52.2744 169.671 52.7491C169.777 53.2238 169.675 53.7221 169.391 54.1113L164.476 60.8539L170.79 66.168C171.154 66.4738 171.366 66.9315 171.372 67.419C171.378 67.9066 171.176 68.3707 170.821 68.685L164.635 74.1638L169.712 80.7759C170.004 81.1566 170.118 81.6527 170.024 82.1296C169.93 82.6065 169.636 83.0149 169.226 83.2416L162.062 87.1999L165.662 94.8C165.868 95.2363 165.879 95.7474 165.689 96.1922C165.499 96.637 165.129 96.9706 164.68 97.0989L156.87 99.3528L158.827 107.586C158.939 108.059 158.843 108.559 158.567 108.95C158.29 109.342 157.861 109.583 157.395 109.609L149.306 110.052L149.527 118.531C149.539 119.018 149.343 119.484 148.992 119.805C148.64 120.126 148.173 120.263 147.713 120.186L139.722 118.798L138.197 127.129C138.109 127.608 137.821 128.021 137.412 128.254C137.004 128.487 136.518 128.517 136.085 128.338L128.566 125.181L125.366 132.974C125.182 133.421 124.816 133.761 124.369 133.896C123.922 134.03 123.44 133.951 123.056 133.677L116.359 128.902L111.634 135.792C111.362 136.188 110.935 136.436 110.472 136.468C110.437 136.47 110.402 136.472 110.368 136.472V136.481ZM103.765 125.889C104.18 125.889 104.592 126.06 104.899 126.4L110.204 132.287L114.713 125.712C115.206 124.993 116.157 124.816 116.856 125.314L123.246 129.871L126.299 122.433C126.634 121.621 127.526 121.234 128.31 121.563L135.487 124.574L136.943 116.623C137.102 115.753 137.894 115.175 138.728 115.321L146.355 116.647L146.145 108.555C146.122 107.669 146.778 106.927 147.621 106.88L155.343 106.457L153.476 98.6001C153.272 97.7404 153.76 96.8679 154.575 96.6327L162.029 94.4814L158.592 87.2298C158.216 86.4365 158.512 85.4742 159.26 85.0614L166.097 81.2827L161.253 74.9742C160.724 74.2835 160.816 73.2784 161.461 72.7053L167.363 67.4768L161.337 62.4065C160.677 61.8526 160.561 60.8475 161.073 60.1439L165.764 53.7093L158.837 50.1124C158.079 49.7189 157.759 48.7651 158.116 47.9611L161.376 40.6197L153.872 38.6673C153.052 38.4534 152.543 37.5938 152.727 36.7298L154.403 28.826L146.676 28.6079C145.83 28.5844 145.158 27.8594 145.158 26.9741L145.173 18.8779L137.58 20.4047C136.751 20.5715 135.944 20.0155 135.762 19.1494L134.114 11.2392L127.014 14.4384C126.235 14.7891 125.335 14.4256 124.982 13.6215L121.749 6.26728L115.471 10.9912C114.785 11.5065 113.829 11.3568 113.319 10.6512L108.652 4.19724L103.49 10.2235C102.924 10.8821 101.962 10.9505 101.319 10.3753L95.4351 5.12106L91.6305 12.1695C91.2139 12.9393 90.2867 13.2237 89.5413 12.8067L82.7184 9.00025L80.4495 16.7394C80.2003 17.5862 79.3549 18.0716 78.54 17.8321L71.0942 15.6509L70.4672 23.7193C70.3978 24.6025 69.6708 25.2655 68.8274 25.2163L61.1079 24.7629L62.1535 32.7843C62.2679 33.6611 61.694 34.4737 60.8587 34.6149L53.227 35.9086L55.8942 43.5066C56.1862 44.3385 55.7921 45.2602 55.0058 45.5874L47.8173 48.5684L51.9813 55.3901C52.4367 56.1365 52.2407 57.1266 51.5402 57.6227L45.1318 62.152L50.5987 67.8767C51.1971 68.5032 51.2094 69.5147 50.6253 70.1563L45.2972 76.0221L51.8118 80.3803C52.5245 80.8572 52.7431 81.8409 52.306 82.6L48.3074 89.5287L55.5654 92.3194C56.3598 92.6252 56.7764 93.5362 56.5048 94.3745L54.0215 102.041L61.6817 103.134C62.519 103.253 63.1133 104.051 63.0214 104.93L62.1698 112.977L69.875 112.318C70.7184 112.244 71.4618 112.891 71.5517 113.773L72.3726 121.822L79.7633 119.444C80.572 119.183 81.4297 119.647 81.6993 120.485L84.154 128.162L90.8831 124.176C91.6203 123.74 92.5536 123.999 92.9865 124.758L96.9586 131.704L102.713 126.298C103.012 126.017 103.383 125.881 103.755 125.881L103.765 125.889ZM105.979 87.8436C101.072 87.8436 96.446 85.8698 92.9314 82.2686C85.5754 74.7326 85.4447 62.3337 92.6414 54.6288C96.1274 50.8972 100.794 48.81 105.779 48.7523C110.774 48.6967 115.473 50.6748 119.037 54.3252C122.6 57.9755 124.594 62.8619 124.649 68.082C124.704 73.302 122.813 78.2333 119.327 81.9649C115.841 85.6965 111.174 87.7837 106.189 87.8414C106.12 87.8414 106.048 87.8414 105.979 87.8414V87.8436ZM105.989 52.0177C105.93 52.0177 105.873 52.0177 105.814 52.0177C101.662 52.0648 97.7734 53.8034 94.8694 56.9127C88.8735 63.3303 88.9818 73.657 95.1104 79.9355C98.0798 82.9764 102.005 84.6295 106.153 84.5781C110.306 84.5311 114.193 82.7925 117.097 79.6832C120.001 76.5738 121.575 72.468 121.53 68.1204C121.485 63.7729 119.825 59.7013 116.856 56.6604C113.929 53.6622 110.076 52.0177 105.987 52.0177H105.989Z" fill="#452E63"/>
<path d="M73.3631 103.212C91.7776 122.077 121.31 121.737 139.326 102.455C157.342 83.1722 157.018 52.2478 138.603 33.3822C120.189 14.5166 90.6564 14.8566 72.6402 34.1392C54.624 53.4218 54.9487 84.3462 73.3631 103.212ZM93.5237 81.6325C86.4904 74.428 86.3658 62.6151 93.248 55.2502C100.128 47.8853 111.409 47.7548 118.443 54.9615C125.476 62.166 125.6 73.9789 118.718 81.3438C111.838 88.7087 100.557 88.8392 93.5237 81.6325Z" fill="#F29353"/>
<path d="M75.8771 100.524C92.8722 117.935 120.131 117.623 136.759 99.8247C153.387 82.0284 153.088 53.4841 136.091 36.0726C119.096 18.6612 91.8369 18.9734 75.2093 36.7719C58.5818 54.5683 58.8799 83.1126 75.8771 100.524ZM94.4835 80.6084C87.9914 73.9578 87.877 63.0559 94.2283 56.2577C100.579 49.4595 110.991 49.3397 117.483 55.9904C123.975 62.641 124.089 73.5429 117.738 80.3411C111.387 87.1393 100.976 87.2591 94.4835 80.6084Z" fill="#FFAA71"/>
<path d="M78.0927 98.1506C93.838 114.281 119.088 113.99 134.492 97.5027C149.896 81.0151 149.618 54.575 133.873 38.4445C118.128 22.314 92.8782 22.6049 77.4739 39.0925C62.0697 55.5801 62.3474 82.0202 78.0927 98.1506ZM93.9789 81.1477C87.2009 74.204 87.0824 62.8231 93.7134 55.7276C100.344 48.6322 111.213 48.506 117.989 55.4496C124.765 62.3933 124.885 73.7742 118.254 80.8697C111.623 87.9672 100.755 88.0913 93.9789 81.1477Z" fill="#F29353"/>
<path d="M105.977 87.8432C101.069 87.8432 96.4438 85.8694 92.9292 82.2682C85.5732 74.7323 85.4425 62.3334 92.6392 54.6285C96.1252 50.8968 100.792 48.8097 105.777 48.752C105.846 48.752 105.918 48.752 105.987 48.752C110.894 48.752 115.52 50.7258 119.035 54.327C122.598 57.9773 124.591 62.8637 124.647 68.0837C124.702 73.3038 122.811 78.2351 119.325 81.9667C115.839 85.6983 111.172 87.7855 106.187 87.8432C106.118 87.8432 106.046 87.8432 105.977 87.8432ZM105.987 52.0174C105.928 52.0174 105.871 52.0174 105.811 52.0174C101.66 52.0644 97.7712 53.803 94.8672 56.9124C88.8713 63.3299 88.9796 73.6566 95.1082 79.9351C98.0776 82.9761 101.994 84.6184 106.152 84.5778C110.304 84.5307 114.193 82.7921 117.097 79.6828C120.001 76.5735 121.575 72.4676 121.53 68.1201C121.485 63.7726 119.825 59.7009 116.856 56.66C113.929 53.6619 110.075 52.0174 105.987 52.0174Z" fill="#452E63"/>
<path d="M95.1982 13.849C93.6257 15.532 91.0465 15.5619 89.4392 13.9153C88.9205 13.385 88.5693 12.7456 88.3793 12.0655L89.5863 12.7391C90.2949 13.1348 91.1751 12.8675 91.5692 12.134L94.265 7.14062C94.5754 7.3224 94.8694 7.54694 95.1349 7.82066C96.7421 9.46729 96.7707 12.1682 95.1982 13.8512V13.849Z" fill="#C45A12"/>
<path d="M85.5897 34.9018C86.0342 33.1313 85.0239 31.3187 83.3332 30.8533C81.6424 30.3878 79.9115 31.4457 79.467 33.2162C79.0225 34.9866 80.0327 36.7992 81.7235 37.2647C83.4142 37.7301 85.1452 36.6722 85.5897 34.9018Z" fill="#C45A12"/>
<path d="M76.5569 17.1698C76.4058 17.5547 76.1852 17.9161 75.8911 18.2326C74.6679 19.5414 72.6645 19.5649 71.4146 18.2839C71.1961 18.0615 71.0184 17.8113 70.8755 17.5462L71.0307 15.5488L76.5589 17.1677L76.5569 17.1698Z" fill="#C45A12"/>
<path d="M118.498 20.5885C119.782 20.5737 120.812 19.4713 120.798 18.1261C120.784 16.781 119.731 15.7026 118.447 15.7174C117.162 15.7322 116.132 16.8346 116.146 18.1797C116.161 19.5248 117.213 20.6033 118.498 20.5885Z" fill="#C45A12"/>
<path d="M121.058 79.6821C126.35 72.0092 125.633 61.2014 118.981 54.3861C111.656 46.8822 99.8664 47.0169 92.7004 54.6876C89.437 58.1819 87.6868 62.6449 87.4397 67.1784C86.533 66.7679 85.6814 66.1819 84.9339 65.4142C81.8502 62.2557 81.6154 57.1982 84.2661 53.751C83.2818 48.5417 84.6868 42.9282 88.5016 38.8458C89.2409 38.0546 90.0394 37.3575 90.8787 36.7523C89.1551 33.9936 89.4268 30.2577 91.7181 27.8049C92.2858 27.1954 92.9332 26.7164 93.6255 26.3657C92.4533 24.4817 92.6391 21.9348 94.2014 20.2604C96.0108 18.3251 98.974 18.2908 100.824 20.1834C101.525 20.9019 101.964 21.7937 102.141 22.7303C104.655 21.5028 107.737 21.954 109.836 24.1053C112.544 26.8789 112.591 31.4253 109.943 34.261C109.25 35.0009 108.444 35.5483 107.582 35.9097C108.807 36.6197 109.963 37.5114 111.015 38.5871C111.127 38.7026 111.237 38.818 111.346 38.9356C111.568 38.6234 111.809 38.3219 112.077 38.0375C115.285 34.6031 120.546 34.5432 123.825 37.9028C124.561 38.6555 125.132 39.5195 125.545 40.4411C132.854 37.7595 141.305 39.4232 147.215 45.4794C155.514 53.9819 155.659 67.9205 147.539 76.6112C140.412 84.2392 129.288 85.2892 121.062 79.6842L121.058 79.6821Z" fill="#C45A12"/>
<path d="M86.8206 24.3158C88.7784 23.6815 89.8745 21.5055 89.2689 19.4554C88.6632 17.4053 86.5851 16.2575 84.6273 16.8917C82.6695 17.5259 81.5734 19.702 82.1791 21.7521C82.7847 23.8022 84.8628 24.95 86.8206 24.3158Z" fill="#C45A12"/>
<path d="M70.9124 39.9856C71.8314 40.9266 71.8477 42.4684 70.9491 43.4307C70.0506 44.393 68.5781 44.4101 67.6591 43.4692C66.7402 42.5283 66.7238 40.9864 67.6224 40.0241C68.521 39.0618 69.9934 39.0447 70.9124 39.9856Z" fill="#C45A12"/>
<path d="M79.1812 46.3343C80.1002 47.2752 80.1165 48.817 79.218 49.7793C78.3194 50.7417 76.847 50.7588 75.928 49.8178C75.009 48.8769 74.9927 47.3351 75.8913 46.3728C76.7898 45.4105 78.2622 45.3933 79.1812 46.3343Z" fill="#C45A12"/>
<path d="M85.7365 10.5913C85.5751 11.3355 85.2239 12.0433 84.6766 12.6292C83.7412 13.6322 82.4485 14.047 81.2171 13.8717L82.6793 8.88477L85.7385 10.5913H85.7365Z" fill="#C45A12"/>
<path d="M63.4157 136.532C63.1951 136.417 62.9582 136.361 62.7193 136.361C62.3864 136.361 62.0576 136.473 61.7819 136.689L56.0066 141.239H47.4089L40.9985 136.646C40.7351 136.455 40.4267 136.361 40.1183 136.361C39.8692 136.361 39.62 136.423 39.3913 136.55C38.8787 136.832 38.5601 137.388 38.5601 137.993V146.521C38.5601 146.964 38.7317 147.387 39.0339 147.693L44.6847 153.42C44.9746 153.715 45.3647 153.88 45.7691 153.88H57.0706C57.4749 153.88 57.8629 153.715 58.155 153.42L63.8057 147.693C64.11 147.385 64.2795 146.962 64.2795 146.521V137.993C64.2795 137.375 63.9446 136.808 63.4177 136.532H63.4157Z" fill="#F29353"/>
<path d="M57.6935 144.662H44.9522V153.406H57.6935V144.662Z" fill="#C45A12"/>
<path d="M64.1102 135.072C63.6691 134.841 63.1932 134.728 62.7195 134.728C62.0557 134.728 61.3961 134.95 60.8447 135.384L55.486 139.608H47.8911L41.8768 135.299C41.3479 134.92 40.7332 134.728 40.1165 134.728C39.6182 134.728 39.1199 134.852 38.6624 135.104C37.6393 135.668 37.0001 136.78 37.0001 137.991V146.519C37.0001 147.402 37.3432 148.249 37.9497 148.865L43.6004 154.592C44.1825 155.182 44.9585 155.511 45.7672 155.511H57.0687C57.8774 155.511 58.6555 155.182 59.2355 154.592L64.8862 148.865C65.4927 148.249 65.8358 147.404 65.8358 146.519V137.991C65.8358 136.753 65.168 135.624 64.1102 135.07V135.072ZM62.7195 146.521L57.0687 152.248H45.7672L40.1165 146.521V137.993L46.9251 142.873H56.5275L62.7195 137.993V146.521Z" fill="#452E63"/>
<path d="M45.7672 145.35C45.3629 145.35 44.9749 145.185 44.6828 144.89L39.0321 139.163C38.7278 138.855 38.5583 138.432 38.5583 137.991C38.5583 137.551 38.7298 137.125 39.0321 136.819L44.6828 131.093C44.9728 130.797 45.3629 130.633 45.7672 130.633H57.0687C57.4731 130.633 57.8611 130.797 58.1531 131.093L63.8039 136.819C64.1082 137.127 64.2777 137.551 64.2777 137.991C64.2777 138.432 64.1061 138.857 63.8039 139.163L58.1531 144.89C57.8631 145.185 57.4731 145.35 57.0687 145.35H45.7672ZM51.1116 136.753C49.049 136.753 47.9789 137.63 47.9197 137.908C47.9789 138.171 49.0511 139.048 51.1116 139.048C53.1722 139.048 54.2444 138.171 54.3036 137.893C54.2444 137.63 53.1743 136.753 51.1116 136.753Z" fill="#F29353"/>
<path d="M51.2064 135.002C48.5822 135.002 46.4562 136.247 46.4562 137.782C46.4562 139.317 48.5822 140.562 51.2064 140.562C53.8306 140.562 55.9565 139.317 55.9565 137.782C55.9565 136.247 53.8306 135.002 51.2064 135.002Z" fill="#452E63"/>
<path d="M64.8862 135.646L59.2354 129.92C58.6534 129.329 57.8773 129 57.0686 129H45.7671C44.9584 129 44.1804 129.329 43.6004 129.92L37.9496 135.646C37.3431 136.262 37 137.107 37 137.992C37 138.878 37.3431 139.722 37.9496 140.338L43.6004 146.065C44.1824 146.655 44.9584 146.985 45.7692 146.985H57.0707C57.8794 146.985 58.6575 146.655 59.2395 146.065L64.8902 140.338C65.4968 139.722 65.8399 138.878 65.8399 137.992C65.8399 137.107 65.4968 136.262 64.8902 135.646H64.8862ZM57.0686 143.719H45.7671L40.1164 137.992L45.7671 132.265H57.0686L62.7194 137.992L57.0686 143.719Z" fill="#452E63"/>
<path d="M177.592 122.813C177.371 122.697 177.134 122.642 176.895 122.642C176.562 122.642 176.234 122.753 175.958 122.969L170.183 127.52H161.585L155.175 122.924C154.911 122.736 154.603 122.64 154.294 122.64C154.045 122.64 153.796 122.702 153.567 122.828C153.057 123.11 152.736 123.666 152.736 124.271V132.8C152.736 133.242 152.908 133.666 153.21 133.971L158.861 139.698C159.151 139.993 159.541 140.158 159.945 140.158H171.247C171.651 140.158 172.039 139.993 172.331 139.698L177.982 133.971C178.286 133.663 178.456 133.24 178.456 132.8V124.271C178.456 123.653 178.121 123.087 177.594 122.811L177.592 122.813Z" fill="#B6CCF2"/>
<path d="M171.869 130.945H159.128V139.69H171.869V130.945Z" fill="#DBE6FF"/>
<path d="M178.288 121.355C177.847 121.124 177.371 121.011 176.897 121.011C176.234 121.011 175.574 121.233 175.023 121.667L169.664 125.891H162.069L156.055 121.582C155.526 121.203 154.911 121.011 154.294 121.011C153.796 121.011 153.298 121.135 152.84 121.387C151.817 121.952 151.178 123.064 151.178 124.274V132.802C151.178 133.685 151.521 134.532 152.128 135.148L157.778 140.875C158.36 141.465 159.136 141.795 159.947 141.795H171.249C172.057 141.795 172.835 141.465 173.417 140.875L179.068 135.148C179.675 134.532 180.018 133.688 180.018 132.802V124.274C180.018 123.036 179.35 121.907 178.292 121.353L178.288 121.355ZM176.897 132.804L171.247 138.531H159.945L154.294 132.804V124.276L161.103 129.156H170.703L176.895 124.276V132.804H176.897Z" fill="#452E63"/>
<path d="M177.98 123.101L172.329 117.374C172.039 117.079 171.649 116.914 171.245 116.914H159.943C159.539 116.914 159.151 117.079 158.859 117.374L153.208 123.101C152.904 123.409 152.734 123.832 152.734 124.273C152.734 124.713 152.906 125.139 153.208 125.444L158.859 131.171C159.149 131.466 159.539 131.631 159.943 131.631H171.245C171.649 131.631 172.037 131.466 172.329 131.171L177.98 125.444C178.284 125.136 178.453 124.713 178.453 124.273C178.453 123.832 178.282 123.406 177.98 123.101ZM165.287 125.331C163.225 125.331 162.155 124.454 162.095 124.191C162.155 123.913 163.227 123.037 165.287 123.037C167.348 123.037 168.42 123.913 168.479 124.176C168.42 124.454 167.35 125.331 165.287 125.331Z" fill="#B6CCF2"/>
<path d="M179.064 121.929L173.413 116.202C172.831 115.612 172.055 115.282 171.244 115.282H159.943C159.134 115.282 158.356 115.612 157.774 116.202L152.123 121.929C151.517 122.544 151.174 123.389 151.174 124.274C151.174 125.16 151.517 126.005 152.123 126.62L157.774 132.347C158.356 132.937 159.132 133.267 159.943 133.267H171.244C172.053 133.267 172.831 132.937 173.411 132.347L179.062 126.62C179.669 126.005 180.012 125.16 180.012 124.274C180.012 123.389 179.669 122.544 179.062 121.929H179.064ZM171.246 130.001H159.945L154.294 124.274L159.945 118.548H171.246L176.897 124.274L171.246 130.001Z" fill="#452E63"/>
<path d="M165.287 121.406C162.663 121.406 160.537 122.651 160.537 124.186C160.537 125.722 162.663 126.966 165.287 126.966C167.912 126.966 170.038 125.722 170.038 124.186C170.038 122.651 167.912 121.406 165.287 121.406Z" fill="#452E63"/>
<path d="M26.8554 91.7852H15.6662L10.0706 102.368L15.6662 112.952H26.8554L32.451 102.368L26.8554 91.7852ZM20.9575 107.338C18.3599 107.338 16.2544 105.039 16.2544 102.202C16.2544 99.3639 18.3599 97.065 20.9575 97.065C23.5552 97.065 25.6607 99.3639 25.6607 102.202C25.6607 105.039 23.5552 107.338 20.9575 107.338Z" fill="#DBE6FF"/>
<path d="M25.6587 102.204C25.6587 102.204 23.5532 107.341 20.9555 107.341C20.1631 107.341 19.4157 107.125 18.7622 106.748L15.5743 112.781L15.6662 112.954H26.8554L32.449 102.371L25.6587 102.206V102.204Z" fill="#B6CCF2"/>
<path d="M35.1773 100.79L29.5817 90.2064C29.0324 89.1671 27.9888 88.5234 26.8554 88.5234H15.6662C14.5328 88.5234 13.4872 89.1671 12.9399 90.2064L7.34427 100.79C6.82351 101.773 6.82351 102.969 7.34427 103.95L12.9399 114.534C13.4892 115.573 14.5328 116.217 15.6662 116.217H26.8554C27.9888 116.217 29.0324 115.573 29.5817 114.534L35.1773 103.95C35.6981 102.967 35.6981 101.771 35.1773 100.79ZM26.8554 112.953H15.6662L10.0706 102.37L15.6662 91.7867H26.8554L32.451 102.37L26.8554 112.953Z" fill="#452E63"/>
<path d="M20.9576 97.0664C18.3599 97.0664 16.2544 99.3653 16.2544 102.203C16.2544 105.041 18.3599 107.34 20.9576 107.34C23.5552 107.34 25.6607 105.041 25.6607 102.203C25.6607 99.3653 23.5552 97.0664 20.9576 97.0664ZM20.9576 104.074C20.0835 104.074 19.3708 103.234 19.3708 102.203C19.3708 101.172 20.0815 100.332 20.9576 100.332C21.8337 100.332 22.5443 101.172 22.5443 102.203C22.5443 103.234 21.8337 104.074 20.9576 104.074Z" fill="#452E63"/>
<path d="M19.9017 91.7852H8.71249L3.11688 102.368L8.71249 112.952H19.9017L25.4973 102.368L19.9017 91.7852ZM14.0038 107.338C11.4061 107.338 9.30064 105.039 9.30064 102.202C9.30064 99.3639 11.4061 97.065 14.0038 97.065C16.6015 97.065 18.707 99.3639 18.707 102.202C18.707 105.039 16.6015 107.338 14.0038 107.338Z" fill="#DBE6FF"/>
<path d="M19.7179 91.7852L16.5076 97.8563C17.8268 98.7651 18.705 100.371 18.705 102.202C18.705 105.037 16.5995 107.338 14.0018 107.338C13.2094 107.338 12.462 107.122 11.8085 106.746L8.62064 112.779L8.71252 112.952H19.9017L25.4953 102.368L19.9017 91.7852H19.7179Z" fill="#B6CCF2"/>
<path d="M14.0039 97.0654C11.4062 97.0654 9.30069 99.3643 9.30069 102.202C9.30069 105.04 11.4062 107.339 14.0039 107.339C16.6015 107.339 18.707 105.04 18.707 102.202C18.707 99.3643 16.6015 97.0654 14.0039 97.0654ZM14.0039 104.073C13.1298 104.073 12.4171 103.233 12.4171 102.202C12.4171 101.171 13.1278 100.331 14.0039 100.331C14.88 100.331 15.5907 101.171 15.5907 102.202C15.5907 103.233 14.88 104.073 14.0039 104.073Z" fill="#452E63"/>
<path d="M28.2236 100.789L22.628 90.2054C22.0787 89.1661 21.0351 88.5225 19.9017 88.5225H8.71251C7.57909 88.5225 6.53349 89.1661 5.98619 90.2054L0.39057 100.789C-0.13019 101.772 -0.13019 102.968 0.39057 103.949L5.98619 114.533C6.53554 115.572 7.57909 116.216 8.71251 116.216H19.9017C21.0351 116.216 22.0787 115.572 22.628 114.533L28.2236 103.949C28.7444 102.966 28.7444 101.77 28.2236 100.789ZM19.9017 112.952H8.71251L3.11691 102.369L8.71251 91.7858H19.9017L25.4973 102.369L19.9017 112.952Z" fill="#452E63"/>
<path d="M125.416 148.531C125.195 148.416 124.958 148.36 124.719 148.36C124.387 148.36 124.058 148.472 123.782 148.688L118.007 153.24H109.409L102.997 148.645C102.733 148.454 102.425 148.36 102.116 148.36C101.867 148.36 101.618 148.422 101.389 148.549C100.879 148.831 100.558 149.387 100.558 149.992V158.52C100.558 158.963 100.73 159.386 101.032 159.692L106.683 165.419C106.973 165.714 107.363 165.879 107.767 165.879H119.069C119.473 165.879 119.861 165.714 120.153 165.419L125.804 159.692C126.108 159.384 126.278 158.961 126.278 158.52V149.992C126.278 149.374 125.943 148.807 125.416 148.531Z" fill="#B6CCF2"/>
<path d="M119.694 156.663H106.953V165.407H119.694V156.663Z" fill="#DBE6FF"/>
<path d="M126.112 147.073C125.671 146.842 125.195 146.729 124.722 146.729C124.058 146.729 123.398 146.951 122.847 147.385L117.488 151.608H109.893L103.879 147.299C103.35 146.921 102.735 146.729 102.119 146.729C101.62 146.729 101.122 146.853 100.664 147.105C99.6413 147.669 99.0021 148.781 99.0021 149.992V158.52C99.0021 159.403 99.3452 160.25 99.9517 160.866L105.603 166.593C106.185 167.183 106.961 167.512 107.771 167.512H119.073C119.882 167.512 120.66 167.183 121.242 166.593L126.892 160.866C127.499 160.25 127.842 159.405 127.842 158.52V149.992C127.842 148.754 127.174 147.625 126.116 147.071L126.112 147.073ZM124.722 158.522L119.071 164.249H107.769L102.119 158.522V149.994L108.927 154.874H118.53L124.722 149.994V158.522Z" fill="#452E63"/>
<path d="M125.804 148.82L120.153 143.094C119.863 142.798 119.473 142.634 119.069 142.634H107.767C107.363 142.634 106.975 142.798 106.683 143.094L101.032 148.82C100.728 149.128 100.558 149.552 100.558 149.992C100.558 150.433 100.73 150.858 101.032 151.164L106.683 156.891C106.973 157.186 107.363 157.351 107.767 157.351H119.069C119.473 157.351 119.861 157.186 120.153 156.891L125.804 151.164C126.108 150.856 126.278 150.433 126.278 149.992C126.278 149.552 126.106 149.126 125.804 148.82ZM113.112 151.051C111.049 151.051 109.979 150.174 109.92 149.911C109.979 149.633 111.049 148.756 113.112 148.756C115.174 148.756 116.244 149.633 116.304 149.896C116.244 150.174 115.174 151.051 113.112 151.051Z" fill="#B6CCF2"/>
<path d="M126.888 147.646L121.237 141.92C120.655 141.329 119.879 141 119.071 141H107.769C106.96 141 106.182 141.329 105.6 141.92L99.9496 147.646C99.3431 148.262 99 149.107 99 149.992C99 150.878 99.3431 151.722 99.9496 152.338L105.6 158.065C106.182 158.655 106.958 158.985 107.769 158.985H119.071C119.879 158.985 120.657 158.655 121.239 158.065L126.89 152.338C127.497 151.722 127.84 150.878 127.84 149.992C127.84 149.107 127.497 148.262 126.89 147.646H126.888ZM119.071 155.719H107.769L102.118 149.992L107.769 144.265H119.071L124.721 149.992L119.071 155.719Z" fill="#452E63"/>
<path d="M113.112 152.682C115.735 152.682 117.862 151.437 117.862 149.902C117.862 148.367 115.735 147.122 113.112 147.122C110.488 147.122 108.362 148.367 108.362 149.902C108.362 151.437 110.488 152.682 113.112 152.682Z" fill="#452E63"/>
</svg>
