<svg width="99" height="80" viewBox="0 0 99 80" fill="none" xmlns="http://www.w3.org/2000/svg">
<path d="M59.2344 41.7968C59.2006 42.0351 59.3222 42.2691 59.5311 42.3704L60.4222 42.805L59.9193 42.9525C59.7024 43.0157 59.5513 43.2204 59.5461 43.4566C59.5409 43.693 59.6832 43.9074 59.8968 43.985L61.3048 44.4977L61.0067 44.6663C60.8208 44.7719 60.7161 44.987 60.7433 45.2089C60.7705 45.4297 60.9245 45.6116 61.1306 45.6676L63.0865 46.1917L62.871 46.4589C62.7522 46.6073 62.7184 46.8109 62.7827 46.9937C62.8475 47.1766 62.9992 47.3103 63.1818 47.3436L65.5597 47.7797L65.4926 48.3224C65.4743 48.4689 65.5142 48.6167 65.602 48.7327C65.6818 48.8379 65.7949 48.9073 65.9198 48.9304C65.933 48.9327 65.9456 48.9346 65.9588 48.9351L68.5029 49.1942L68.8682 50.0468C68.94 50.2149 69.086 50.3313 69.2541 50.3618C69.2808 50.3665 69.3085 50.3698 69.3358 50.3698L71.809 50.4045L72.7456 51.4139C72.8231 51.497 72.9236 51.5524 73.0301 51.5717C73.0738 51.5796 73.1179 51.5815 73.1625 51.5778L75.3879 51.3792L76.87 52.4196C76.9315 52.4623 76.9996 52.4909 77.0705 52.5041C77.1358 52.5158 77.2029 52.5149 77.2686 52.4994L79.1067 52.0825L81.0503 53.0689C81.0945 53.0914 81.1409 53.1069 81.1879 53.1153C81.2846 53.1332 81.3855 53.1219 81.4776 53.0806L82.8142 52.4848L85.1001 53.351C85.1283 53.3623 85.1583 53.3698 85.1879 53.3754C85.3287 53.4008 85.4743 53.3646 85.5888 53.2726L87.8395 51.4534L91.886 51.7012L94.7292 52.0219C94.9358 52.0454 95.1339 51.9369 95.2325 51.7473C95.3315 51.5576 95.3132 51.3228 95.1846 51.152L94.9855 50.8862L96.6142 50.9304C96.8367 50.9365 97.0377 50.7904 97.1104 50.5707C97.1832 50.3496 97.1128 50.105 96.9353 49.9613L96.571 49.6679L97.6733 49.5867C97.9015 49.5693 98.0912 49.3975 98.1381 49.1618C98.1846 48.9266 98.078 48.6862 97.8752 48.5707L97.1977 48.1862L97.8639 48.0496C98.0884 48.0041 98.255 47.8083 98.2743 47.5693C98.2945 47.3307 98.1616 47.1059 97.9494 47.0162L96.8114 46.5365L97.1921 46.3809C97.3968 46.2971 97.5273 46.0857 97.517 45.8547C97.5067 45.6237 97.3574 45.4243 97.1452 45.3571L95.4588 44.8272L95.7067 44.6259C95.8649 44.4971 95.9367 44.283 95.8912 44.0782C95.8452 43.8722 95.6893 43.7124 95.493 43.6684L93.3001 43.1753L93.4696 42.7928C93.5376 42.6372 93.5315 42.4548 93.4522 42.3039C93.3757 42.1586 93.24 42.0574 93.0851 42.0291C93.0785 42.0279 93.0729 42.0269 93.0663 42.0257L90.5715 41.6689L90.4555 40.9573C90.4179 40.7274 90.2456 40.5493 90.0311 40.5101C90.0109 40.5065 89.9912 40.5038 89.971 40.5032L87.4367 40.3531L86.7893 39.4028C86.709 39.2843 86.5879 39.2062 86.4546 39.1819C86.4198 39.1755 86.3851 39.1732 86.3489 39.1738L83.9799 39.2554L82.7625 38.2184C82.6921 38.1587 82.6095 38.1203 82.5236 38.1045C82.4705 38.0949 82.4156 38.094 82.3607 38.1023L80.3128 38.4137L78.5865 37.3917C78.5339 37.3608 78.478 37.3404 78.4203 37.3298C78.3409 37.3153 78.2592 37.3208 78.1818 37.3453L76.5813 37.8596L74.4499 36.9266C74.4137 36.9108 74.3766 36.8989 74.3391 36.892C74.2189 36.8701 74.0945 36.8933 73.9888 36.9595L72.9353 37.6154L70.5344 36.8297C70.5123 36.8226 70.4907 36.8167 70.4691 36.8127C70.279 36.778 70.0837 36.8574 69.9682 37.0227L69.5015 37.688L67.0161 37.1007C67.0076 37.0991 66.9992 37.0976 66.9907 37.096C66.8499 37.0703 66.7048 37.107 66.5916 37.1973C66.4715 37.2935 66.3977 37.4399 66.3907 37.5996L66.3691 38.0814L64.0536 37.7247C63.8621 37.6948 63.6724 37.7804 63.5607 37.9453C63.4494 38.1103 63.4362 38.3269 63.5259 38.5071L63.6743 38.8051L61.7813 38.6713C61.5649 38.6562 61.3639 38.7835 61.2776 38.9917C61.1916 39.199 61.2386 39.4428 61.3954 39.6008L61.6616 39.8684L60.3015 39.897C60.0743 39.9013 59.8785 40.0621 59.8179 40.2914C59.7583 40.5209 59.8494 40.7655 60.0409 40.8943L60.5414 41.229L59.6743 41.3456C59.4466 41.3763 59.2668 41.5604 59.233 41.7987L59.2344 41.7968ZM78.7916 43.7276C78.8649 43.7399 78.9386 43.7524 79.0104 43.7655C81.2818 44.1803 82.871 45.0448 83.2668 45.6853C83.31 45.7553 83.3574 45.8547 83.3391 45.9287C83.2348 46.3557 81.5034 46.9316 78.701 46.4657C78.6283 46.4534 78.5555 46.4411 78.4827 46.4278C76.2109 46.013 74.6222 45.1486 74.2254 44.5079C74.1823 44.4378 74.1344 44.3385 74.1531 44.2645C74.2574 43.8375 75.9888 43.2616 78.7907 43.7275L78.7916 43.7276Z" fill="#DBE6FF"/>
<path d="M78.3995 46.9619C78.4741 46.9755 78.5497 46.9893 78.6258 47.0011C81.3037 47.4464 83.6032 47.0353 83.8394 46.0692C84.0939 45.0292 81.9399 43.7539 79.0943 43.2344C79.0197 43.2207 78.9441 43.2069 78.8671 43.1949C76.1892 42.7497 73.8896 43.1607 73.6535 44.1278C73.399 45.1679 75.553 46.4431 78.399 46.9628L78.3995 46.9619ZM75.8577 44.1494C76.6751 44.0523 77.6901 44.0929 78.7155 44.2629C78.7863 44.2749 78.8563 44.2867 78.9263 44.2994C79.9774 44.4913 80.9774 44.8063 81.7408 45.1861C82.2244 45.4271 82.5159 45.6433 82.6779 45.795C82.4821 45.8815 82.1493 45.9826 81.6366 46.0438C80.8192 46.141 79.8047 46.1003 78.7779 45.9302C78.7079 45.9184 78.6371 45.9064 78.5671 45.8936C77.5159 45.7017 76.5164 45.3868 75.7525 45.007C75.269 44.766 74.9774 44.5498 74.8159 44.3981C75.0112 44.3115 75.3441 44.2105 75.8568 44.1492L75.8577 44.1494Z" fill="#452E63"/>
<path d="M58.723 41.7139C58.6611 42.1587 58.8681 42.5967 59.2367 42.8178C59.1108 42.9934 59.0357 43.2089 59.0305 43.4401C59.0202 43.9127 59.3038 44.3403 59.731 44.4968L60.308 44.7069C60.2357 44.8811 60.2075 45.0776 60.2329 45.2757C60.2883 45.7186 60.5963 46.0825 61.009 46.1934L62.2695 46.5315C62.2179 46.742 62.2259 46.9676 62.3005 47.1788C62.4296 47.5444 62.7338 47.811 63.0991 47.8786L64.9859 48.2251L64.9817 48.25C64.9465 48.5416 65.0249 48.8383 65.2019 49.0693C65.3611 49.2786 65.5878 49.4195 65.8385 49.4655C65.8639 49.4702 65.8892 49.4749 65.9165 49.4768L68.1597 49.7049L68.401 50.2674C68.5446 50.6021 68.8362 50.8354 69.1737 50.8974C69.2277 50.9073 69.2822 50.9129 69.3376 50.9129L71.5963 50.9453L72.3827 51.7927C72.5371 51.9594 72.7376 52.0693 72.9512 52.1082C73.0385 52.1242 73.1273 52.1284 73.216 52.1209L75.2606 51.9397L76.5911 52.873C76.7141 52.9585 76.8498 53.0157 76.9916 53.0416C77.1221 53.0655 77.2554 53.0636 77.3869 53.0336L79.0512 52.6552L80.8338 53.5589C80.9221 53.6035 81.0146 53.635 81.108 53.6519C81.3019 53.6871 81.5028 53.6641 81.6869 53.5824L82.8385 53.0697L84.9338 53.8636C84.9916 53.8857 85.0493 53.9021 85.1085 53.9129C85.3902 53.9646 85.6822 53.8913 85.9113 53.7063L88.0104 52.0101L91.8526 52.2453L94.6836 52.5646C95.0953 52.6115 95.4921 52.3955 95.6911 52.0162C95.7831 51.8406 95.8244 51.6467 95.8165 51.4547L96.6118 51.4758C97.0582 51.488 97.4587 51.1979 97.6043 50.757C97.6714 50.5533 97.678 50.3373 97.6291 50.1373L97.7198 50.1303C98.177 50.0965 98.5554 49.7505 98.6493 49.2805C98.7151 48.9486 98.6277 48.6106 98.4277 48.3603C98.6338 48.1819 98.7705 47.92 98.7944 47.6261C98.8338 47.1484 98.5695 46.6988 98.1437 46.5192L97.9061 46.4199C97.9986 46.2474 98.0465 46.0484 98.0366 45.8399C98.0155 45.3777 97.7165 44.9779 97.2939 44.8457L96.3733 44.5564C96.4324 44.3697 96.4432 44.166 96.3991 43.9664C96.3075 43.5546 95.9963 43.235 95.6019 43.1457L94.0174 42.7892C94.0644 42.5411 94.0277 42.2788 93.908 42.0513C93.755 41.7595 93.4841 41.5584 93.1742 41.5018C93.162 41.4995 93.1484 41.4971 93.1362 41.4948L91.0212 41.1931L90.97 40.8772C90.8953 40.4176 90.5507 40.0624 90.1207 39.9839C90.0813 39.9767 90.0418 39.9716 90.0014 39.9692L87.716 39.834L87.2141 39.0967C87.0526 38.8605 86.8113 38.7034 86.5437 38.6545C86.4747 38.6419 86.4038 38.6361 86.332 38.6393L84.1564 38.7145L83.0902 37.806C82.9503 37.6868 82.7845 37.6086 82.6118 37.577C82.5047 37.5576 82.3953 37.5558 82.2869 37.5717L80.4136 37.8559L78.8418 36.9254C78.7371 36.8634 78.6249 36.8215 78.5089 36.8003C78.3498 36.7713 78.1859 36.7811 78.0301 36.8311L76.6085 37.2883L74.6489 36.4305C74.577 36.3991 74.5019 36.3762 74.4263 36.3624C74.1874 36.3187 73.9376 36.3648 73.7254 36.4961L72.8681 37.029L70.6869 36.315C70.6432 36.3009 70.5991 36.2898 70.555 36.2817C70.1737 36.2122 69.785 36.3713 69.5531 36.7016L69.2845 37.0844L67.1273 36.5744C67.1104 36.5713 67.0935 36.5671 67.0775 36.5642C66.7958 36.5128 66.5071 36.5854 66.2803 36.7669C66.0676 36.9369 65.9282 37.1863 65.8883 37.4622L64.1273 37.1915C63.7446 37.1328 63.3639 37.3026 63.1413 37.6327C63.0244 37.8068 62.9615 38.0092 62.9545 38.2146L61.8146 38.1338C61.3817 38.1026 60.9798 38.3591 60.8075 38.7737C60.7305 38.9582 60.7071 39.1566 60.731 39.3484L60.2892 39.3573C59.8348 39.3669 59.4428 39.6864 59.323 40.1452C59.2587 40.3911 59.2808 40.6466 59.3747 40.8695C59.0334 41.0047 58.7798 41.324 58.7249 41.7162L58.723 41.7139ZM62.0193 41.5765L60.3174 40.4377L62.9165 40.3839L61.7517 39.2119L64.555 39.4101L63.9827 38.2599L66.8587 38.7025L66.9057 37.6286L69.7193 38.294L70.3831 37.3461L73.0038 38.2035L74.2536 37.4256L76.5578 38.4349L78.3352 37.8643L80.2151 38.9775L82.4371 38.6399L83.8061 39.8064L86.369 39.7184L87.1615 40.8824L89.9451 41.0476L90.1254 42.1558L92.9991 42.5666L92.5587 43.5666L95.3883 44.2034L94.3465 45.0479L97.0005 45.8817L95.4071 46.5317L97.7606 47.5228L95.6902 47.9481L97.6334 49.0505L95.1812 49.2308L96.623 50.3932L93.9057 50.3209L94.7794 51.4885L91.9235 51.1664L87.6742 50.9059L85.2719 52.8472L82.7953 51.9082L81.2723 52.5862L79.1681 51.5185L77.1559 51.9749L75.5212 50.8284L73.1146 51.0425L72.0277 49.8707L69.339 49.8317L68.8493 48.6894L66.0038 48.3998L66.1348 47.3402L63.2662 46.8134L64.0118 45.8863L61.2536 45.1465L62.5794 44.3946L60.0606 43.4764L61.9033 42.9351L59.7423 41.8816L62.0165 41.5769L62.0193 41.5765Z" fill="#452E63"/>
<path d="M77.9601 50.2104C85.6479 51.5817 92.2329 50.4043 92.6667 47.5803C93.1014 44.7575 87.2202 41.3577 79.5324 39.9864C71.8442 38.6151 65.2592 39.7925 64.8259 42.6156C64.3911 45.4385 70.2719 48.8381 77.9601 50.2094V50.2104ZM79.0475 43.1463C81.9841 43.6704 84.2301 44.9685 84.0639 46.0471C83.8972 47.1257 81.3827 47.5747 78.4465 47.052C75.5099 46.5279 73.2639 45.2298 73.4301 44.1512C73.5963 43.0726 76.1113 42.6234 79.0475 43.1463Z" fill="#B6CCF2"/>
<path d="M78.0211 49.8151C85.1168 51.0803 91.1943 49.9935 91.5948 47.3884C91.9952 44.7823 86.5689 41.6448 79.4727 40.3795C72.3769 39.1143 66.2995 40.2011 65.899 42.8062C65.4985 45.4123 70.9248 48.5498 78.0211 49.8151ZM79.0243 43.2946C81.7342 43.7783 83.8074 44.9766 83.6544 45.972C83.5009 46.9675 81.1793 47.3827 78.4694 46.899C75.7595 46.4153 73.6858 45.2169 73.8389 44.2214C73.9919 43.226 76.3135 42.8108 79.0234 43.2945L79.0243 43.2946Z" fill="#DBE6FF"/>
<path d="M78.0741 49.4648C84.6478 50.6366 90.2778 49.6301 90.6487 47.2161C91.0201 44.8022 85.9928 41.8953 79.4191 40.7234C72.845 39.5515 67.2149 40.558 66.844 42.9719C66.4727 45.3859 71.4999 48.2925 78.0741 49.4648ZM79.0036 43.4245C81.514 43.8718 83.4346 44.9821 83.2928 45.9044C83.1511 46.8266 81.0008 47.2109 78.4891 46.7635C75.9788 46.3163 74.0586 45.2059 74.1999 44.2837C74.3417 43.3615 76.4919 42.9772 79.0036 43.4245Z" fill="#B6CCF2"/>
<path d="M79.2122 42.4718C81.9996 42.9809 84.8503 44.3364 84.5737 46.1302C84.4812 46.7284 84.0094 47.5077 82.2822 47.8164C81.1841 48.0131 79.785 47.9797 78.3418 47.7225C78.3221 47.7187 78.3019 47.7149 78.2812 47.7112C75.4939 47.2022 72.6432 45.8467 72.9197 44.0529C73.1977 42.2453 76.3451 41.9615 79.1512 42.4618C79.1714 42.4654 79.1911 42.469 79.2118 42.4728L79.2122 42.4718ZM83.1249 45.8717C83.0235 45.5202 81.6695 44.4746 78.9775 43.983C78.9578 43.9794 78.9385 43.9759 78.9188 43.9723C76.1874 43.4847 74.5705 44.0112 74.3686 44.3104C74.47 44.6619 75.824 45.7075 78.516 46.1991C78.5357 46.2027 78.555 46.2062 78.5747 46.2098C81.3061 46.6974 82.923 46.1709 83.1249 45.8717Z" fill="#452E63"/>
<path d="M33.3487 58.7625L37.667 57.3743L39.1013 61.8597L43.0333 59.5315L45.3545 63.5897L48.7159 60.4301L51.8159 63.871L54.4502 60.0287L58.184 62.6912L59.968 58.3461L64.161 60.1048L65.0112 55.4597L69.4675 56.2334L69.345 51.5048L73.8558 51.2578L72.7647 46.6677L77.1196 45.4108L75.1121 41.174L79.1074 38.9662L76.2769 35.2796L79.7257 32.2245L76.2051 29.2618L78.945 25.5019L74.898 23.4005L76.8032 19.1116L72.4196 17.9711L73.3995 13.3538L68.884 13.2263L68.8924 8.49651L64.4563 9.38806L63.4933 4.76675L59.3441 6.63613L57.4553 2.33913L53.7868 5.09906L51.06 1.32812L48.0441 4.84907L44.6066 1.77991L42.3842 5.89721L38.3976 3.67342L37.0726 8.19534L32.7226 6.9213L32.3564 11.6359L27.8463 11.3709L28.457 16.0575L23.9977 16.8135L25.5557 21.253L21.3563 22.995L23.7897 26.9797L20.0457 29.6262L23.2403 32.9705L20.1272 36.3981L23.9335 38.9451L21.5969 42.9932L25.8376 44.6236L24.387 49.1034L28.8626 49.7409L28.365 54.4423L32.8673 54.0578L33.3467 58.7616L33.3487 58.7625ZM44.1406 38.6369C40.97 35.389 40.9144 30.064 44.016 26.7448C47.1178 23.4247 52.2032 23.3664 55.3727 26.6143C58.5436 29.8621 58.599 35.1863 55.4976 38.5064C52.3957 41.8266 47.3103 41.8848 44.1406 38.6369Z" fill="#FFAA71"/>
<path d="M51.816 64.6381C51.6155 64.6381 51.4225 64.5517 51.2836 64.3982L48.6737 61.5015L45.8426 64.1611C45.6796 64.3137 45.461 64.3832 45.2444 64.3489C45.0287 64.3146 44.8379 64.1813 44.7257 63.9855L42.7707 60.5691L39.4601 62.5296C39.2702 62.6423 39.0411 62.6602 38.8379 62.578C38.6336 62.4954 38.4754 62.3231 38.4064 62.1062L37.1993 58.3292L33.5636 59.4986C33.3546 59.5658 33.1283 59.532 32.9462 59.4052C32.764 59.2799 32.6451 59.0752 32.6211 58.847L32.2175 54.8864L28.4265 55.2099C28.2098 55.2287 27.995 55.1447 27.8426 54.9799C27.6902 54.816 27.6163 54.5893 27.6403 54.3616L28.0593 50.4029L24.2903 49.8658C24.0736 49.8343 23.8819 49.7038 23.7668 49.509C23.6518 49.3141 23.6259 49.0766 23.6959 48.8597L24.9173 45.0876L21.3469 43.7142C21.1417 43.6348 20.9816 43.4642 20.9087 43.2483C20.8368 43.0325 20.8598 42.7935 20.973 42.5978L22.9403 39.1893L19.7352 37.0448C19.5511 36.9213 19.4293 36.7185 19.4025 36.4916C19.3756 36.2647 19.4485 36.0368 19.599 35.8711L22.2203 32.9847L19.53 30.1685C19.3756 30.0069 19.298 29.781 19.3191 29.5531C19.3402 29.3252 19.4572 29.1194 19.6383 28.9909L22.7908 26.762L20.7419 23.4067C20.624 23.214 20.5952 22.976 20.6623 22.7582C20.7294 22.5403 20.8857 22.3656 21.089 22.2813L24.6249 20.8145L23.3124 17.0766C23.2366 16.8618 23.2568 16.6229 23.368 16.4261C23.4782 16.2283 23.6671 16.0927 23.8828 16.0566L27.6374 15.4201L27.1235 11.4734C27.0938 11.2465 27.1628 11.0177 27.3114 10.85C27.4601 10.6823 27.6719 10.592 27.8895 10.605L31.6873 10.8289L31.995 6.85917C32.0123 6.63128 32.1264 6.42344 32.3057 6.29292C32.485 6.16241 32.7103 6.12227 32.9212 6.18349L36.5838 7.25677L37.6998 3.44967C37.764 3.2308 37.9184 3.0541 38.1197 2.96675C38.322 2.87941 38.5502 2.89146 38.7429 2.99888L42.0996 4.8713L43.9711 1.40356C44.0785 1.20478 44.2655 1.06622 44.4802 1.02607C44.695 0.985907 44.9165 1.04916 45.0824 1.19774L47.9761 3.78198L50.5155 0.81724C50.6615 0.646564 50.8704 0.553194 51.0911 0.563234C51.3094 0.57227 51.5117 0.68371 51.6441 0.866434L53.9404 4.04202L57.0296 1.71781C57.2071 1.58428 57.4324 1.54111 57.6432 1.59934C57.854 1.65757 58.0296 1.81218 58.1207 2.02L59.7113 5.63832L63.2052 4.0641C63.4056 3.97374 63.6348 3.98178 63.8291 4.08619C64.024 4.1906 64.1629 4.38136 64.2099 4.60424L65.0202 8.49565L68.7554 7.74471C68.9704 7.70151 69.1916 7.76076 69.3606 7.90734C69.5291 8.05391 69.6258 8.26978 69.6249 8.49865L69.6174 12.4815L73.4197 12.5889C73.6385 12.5949 73.8427 12.7033 73.977 12.8831C74.1113 13.0627 74.162 13.2977 74.1141 13.5206L73.2897 17.4079L76.9808 18.3688C77.1925 18.424 77.37 18.5756 77.4639 18.7814C77.5582 18.9882 77.5601 19.2271 77.4672 19.435L75.8629 23.0463L79.2704 24.8153C79.4662 24.9167 79.608 25.1045 79.6578 25.3273C79.7075 25.5502 79.6596 25.7841 79.5263 25.9669L77.2188 29.1324L80.1831 31.6273C80.354 31.7709 80.4535 31.9857 80.4564 32.2146C80.4592 32.4435 80.3643 32.6614 80.1977 32.809L77.2934 35.3812L79.677 38.4855C79.8141 38.6642 79.8676 38.8971 79.8235 39.121C79.7794 39.3449 79.6413 39.5366 79.4488 39.6431L76.0855 41.5014L77.7756 45.0695C77.8723 45.2744 77.8775 45.5143 77.7883 45.7232C77.6991 45.932 77.5254 46.0886 77.3146 46.1488L73.6479 47.207L74.5667 51.0724C74.6193 51.2944 74.5742 51.5292 74.4451 51.7127C74.3146 51.8968 74.1132 52.0099 73.8944 52.0221L70.0967 52.2301L70.2005 56.2109C70.2061 56.4395 70.1141 56.6583 69.9493 56.809C69.7841 56.9597 69.5648 57.024 69.3488 56.9878L65.5972 56.3362L64.8812 60.2475C64.8399 60.4724 64.7047 60.6663 64.5127 60.7756C64.3211 60.885 64.093 60.8991 63.8897 60.8151L60.3596 59.3329L58.8573 62.9916C58.7709 63.2015 58.5991 63.3611 58.3892 63.4245C58.1794 63.4874 57.9531 63.4503 57.7728 63.3217L54.6287 61.0799L52.4103 64.3146C52.2826 64.5005 52.0822 64.617 51.8648 64.632C51.8484 64.6329 51.8319 64.6339 51.816 64.6339V64.6381ZM48.716 59.6653C48.9108 59.6653 49.1042 59.7456 49.2484 59.9052L51.739 62.6691L53.8559 59.5822C54.0873 59.2447 54.5338 59.1616 54.862 59.3954L57.862 61.5348L59.2953 58.0428C59.4526 57.6616 59.8714 57.4799 60.2394 57.6343L63.6089 59.0479L64.2925 55.3151C64.3671 54.9066 64.739 54.6353 65.1305 54.7038L68.7113 55.3263L68.6127 51.5273C68.6019 51.1113 68.9099 50.763 69.3056 50.7409L72.931 50.5423L72.0545 46.8536C71.9587 46.45 72.1878 46.0404 72.5704 45.93L76.07 44.92L74.4563 41.5155C74.2798 41.143 74.4188 40.6912 74.77 40.4974L77.9798 38.7234L75.7056 35.7617C75.4573 35.4374 75.5005 34.9655 75.8033 34.6964L78.5742 32.2417L75.7451 29.8613C75.4352 29.6013 75.3808 29.1294 75.6211 28.7991L77.8235 25.7781L74.5714 24.0894C74.2155 23.9047 74.0653 23.4569 74.2329 23.0794L75.7634 19.6328L72.2409 18.7162C71.8554 18.6157 71.6164 18.2122 71.7028 17.8065L72.4902 14.0958L68.862 13.9934C68.4648 13.9824 68.1498 13.642 68.1498 13.2264L68.1564 9.42536L64.5916 10.1422C64.2024 10.2205 63.8235 9.95945 63.738 9.55283L62.9643 5.83912L59.631 7.34109C59.2657 7.50574 58.8427 7.33508 58.677 6.95757L57.1592 3.50488L54.2117 5.72269C53.8897 5.96461 53.4409 5.89433 53.2014 5.56306L51.0103 2.53304L48.5869 5.36227C48.3211 5.67147 47.8695 5.70358 47.5676 5.43353L44.8053 2.96675L43.0191 6.27588C42.8235 6.63729 42.3882 6.77081 42.0382 6.57503L38.8349 4.78797L37.7698 8.42137C37.6528 8.81893 37.2558 9.04682 36.8733 8.93438L33.3776 7.91034L33.0833 11.6983C33.0507 12.113 32.7093 12.4242 32.3133 12.4011L28.6892 12.1883L29.1801 15.9542C29.2338 16.3658 28.9643 16.7473 28.5722 16.8136L24.9893 17.421L26.2414 20.9881C26.3786 21.3787 26.1935 21.8114 25.8244 21.965L22.4495 23.3646L24.4044 26.5672C24.6182 26.9177 24.5262 27.3825 24.1973 27.6154L21.1887 29.7418L23.7553 32.4295C24.0363 32.7236 24.042 33.1985 23.7678 33.4997L21.2664 36.2536L24.3249 38.2997C24.6595 38.5236 24.762 38.9855 24.5569 39.3418L22.6796 42.5948L26.0871 43.9049C26.46 44.0485 26.6556 44.4762 26.5281 44.8698L25.3622 48.4691L28.9586 48.9822C29.3517 49.0381 29.6307 49.4127 29.5876 49.8254L29.1878 53.6033L32.8052 53.294C33.2012 53.2592 33.5502 53.563 33.5924 53.9771L33.9778 57.7559L37.4476 56.6395C37.8273 56.517 38.23 56.7348 38.3565 57.1282L39.509 60.7325L42.6681 58.8611C43.0142 58.6564 43.4524 58.778 43.6557 59.1343L45.5205 62.3954L48.2225 59.8573C48.3625 59.7254 48.5366 59.6616 48.7113 59.6616L48.716 59.6653ZM49.7554 41.8036C47.4517 41.8036 45.2799 40.877 43.6298 39.1863C40.1763 35.6482 40.1149 29.8271 43.4936 26.2098C45.1303 24.4579 47.3211 23.478 49.6615 23.4509C52.0066 23.4248 54.2127 24.3535 55.8859 26.0673C57.5587 27.781 58.4948 30.0751 58.5207 32.5259C58.5465 34.9766 57.6587 37.2917 56.0221 39.0437C54.3855 40.7956 52.1944 41.7755 49.854 41.8026C49.8216 41.8026 49.7878 41.8026 49.7554 41.8026V41.8036ZM49.7601 24.984C49.7324 24.984 49.7056 24.984 49.6779 24.984C47.7287 25.0061 45.9031 25.8223 44.5397 27.2821C41.7247 30.295 41.7755 35.1433 44.6528 38.0909C46.0469 39.5186 47.8897 40.2947 49.8371 40.2705C51.7869 40.2485 53.6117 39.4322 54.9751 37.9725C56.3385 36.5126 57.0775 34.585 57.0563 32.5439C57.0352 30.5028 56.2559 28.5913 54.862 27.1636C53.4878 25.756 51.6789 24.984 49.7592 24.984H49.7601Z" fill="#452E63"/>
<path d="M33.3487 58.7625L37.667 57.3743L39.1013 61.8597L43.0333 59.5315L45.3545 63.5897L48.7159 60.4301L51.8159 63.871L54.4502 60.0287L58.184 62.6912L59.968 58.3461L64.161 60.1048L65.0112 55.4597L69.4675 56.2334L69.345 51.5048L73.8558 51.2578L72.7647 46.6677L77.1196 45.4108L75.1121 41.174L79.1074 38.9662L76.2769 35.2796L79.7257 32.2245L76.2051 29.2618L78.945 25.5019L74.898 23.4005L76.8032 19.1116L72.4196 17.9711L73.3995 13.3538L68.884 13.2263L68.8924 8.49651L64.4563 9.38806L63.4933 4.76675L59.3441 6.63613L57.4553 2.33913L53.7868 5.09906L51.06 1.32812L48.0441 4.84907L44.6066 1.77991L42.3842 5.89721L38.3976 3.67342L37.0726 8.19534L32.7226 6.9213L32.3564 11.6359L27.8463 11.3709L28.457 16.0575L23.9977 16.8135L25.5557 21.253L21.3563 22.995L23.7897 26.9797L20.0457 29.6262L23.2403 32.9705L20.1272 36.3981L23.9335 38.9451L21.5969 42.9932L25.8376 44.6236L24.387 49.1034L28.8626 49.7409L28.365 54.4423L32.8673 54.0578L33.3467 58.7616L33.3487 58.7625ZM44.1406 38.6369C40.97 35.389 40.9144 30.064 44.016 26.7448C47.1178 23.4247 52.2032 23.3664 55.3727 26.6143C58.5436 29.8621 58.599 35.1863 55.4976 38.5064C52.3957 41.8266 47.3103 41.8848 44.1406 38.6369Z" fill="#FFAA71"/>
<path d="M51.816 64.6381C51.6155 64.6381 51.4225 64.5517 51.2836 64.3982L48.6737 61.5015L45.8426 64.1611C45.6796 64.3137 45.461 64.3832 45.2444 64.3489C45.0287 64.3146 44.8379 64.1813 44.7257 63.9855L42.7707 60.5691L39.4601 62.5296C39.2702 62.6423 39.0411 62.6602 38.8379 62.578C38.6336 62.4954 38.4754 62.3231 38.4064 62.1062L37.1993 58.3292L33.5636 59.4986C33.3546 59.5658 33.1283 59.532 32.9462 59.4052C32.764 59.2799 32.6451 59.0752 32.6211 58.847L32.2175 54.8864L28.4265 55.2099C28.2098 55.2287 27.995 55.1447 27.8426 54.9799C27.6902 54.816 27.6163 54.5893 27.6403 54.3616L28.0593 50.4029L24.2903 49.8658C24.0736 49.8343 23.8819 49.7038 23.7668 49.509C23.6518 49.3141 23.6259 49.0766 23.6959 48.8597L24.9173 45.0876L21.3469 43.7142C21.1417 43.6348 20.9816 43.4642 20.9087 43.2483C20.8368 43.0325 20.8598 42.7935 20.973 42.5978L22.9403 39.1893L19.7352 37.0448C19.5511 36.9213 19.4293 36.7185 19.4025 36.4916C19.3756 36.2647 19.4485 36.0368 19.599 35.8711L22.2203 32.9847L19.53 30.1685C19.3756 30.0069 19.298 29.781 19.3191 29.5531C19.3402 29.3252 19.4572 29.1194 19.6383 28.9909L22.7908 26.762L20.7419 23.4067C20.624 23.214 20.5952 22.976 20.6623 22.7582C20.7294 22.5403 20.8857 22.3656 21.089 22.2813L24.6249 20.8145L23.3124 17.0766C23.2366 16.8618 23.2568 16.6229 23.368 16.4261C23.4782 16.2283 23.6671 16.0927 23.8828 16.0566L27.6374 15.4201L27.1235 11.4734C27.0938 11.2465 27.1628 11.0177 27.3114 10.85C27.4601 10.6823 27.6719 10.592 27.8895 10.605L31.6873 10.8289L31.995 6.85917C32.0123 6.63128 32.1264 6.42344 32.3057 6.29292C32.485 6.16241 32.7103 6.12227 32.9212 6.18349L36.5838 7.25677L37.6998 3.44967C37.764 3.2308 37.9184 3.0541 38.1197 2.96675C38.322 2.87941 38.5502 2.89146 38.7429 2.99888L42.0996 4.8713L43.9711 1.40356C44.0785 1.20478 44.2655 1.06622 44.4802 1.02607C44.695 0.985907 44.9165 1.04916 45.0824 1.19774L47.9761 3.78198L50.5155 0.81724C50.6615 0.646564 50.8704 0.553194 51.0911 0.563234C51.3094 0.57227 51.5117 0.68371 51.6441 0.866434L53.9404 4.04202L57.0296 1.71781C57.2071 1.58428 57.4324 1.54111 57.6432 1.59934C57.854 1.65757 58.0296 1.81218 58.1207 2.02L59.7113 5.63832L63.2052 4.0641C63.4056 3.97374 63.6348 3.98178 63.8291 4.08619C64.024 4.1906 64.1629 4.38136 64.2099 4.60424L65.0202 8.49565L68.7554 7.74471C68.9704 7.70151 69.1916 7.76076 69.3606 7.90734C69.5291 8.05391 69.6258 8.26978 69.6249 8.49865L69.6174 12.4815L73.4197 12.5889C73.6385 12.5949 73.8427 12.7033 73.977 12.8831C74.1113 13.0627 74.162 13.2977 74.1141 13.5206L73.2897 17.4079L76.9808 18.3688C77.1925 18.424 77.37 18.5756 77.4639 18.7814C77.5582 18.9882 77.5601 19.2271 77.4672 19.435L75.8629 23.0463L79.2704 24.8153C79.4662 24.9167 79.608 25.1045 79.6578 25.3273C79.7075 25.5502 79.6596 25.7841 79.5263 25.9669L77.2188 29.1324L80.1831 31.6273C80.354 31.7709 80.4535 31.9857 80.4564 32.2146C80.4592 32.4435 80.3643 32.6614 80.1977 32.809L77.2934 35.3812L79.677 38.4855C79.8141 38.6642 79.8676 38.8971 79.8235 39.121C79.7794 39.3449 79.6413 39.5366 79.4488 39.6431L76.0855 41.5014L77.7756 45.0695C77.8723 45.2744 77.8775 45.5143 77.7883 45.7232C77.6991 45.932 77.5254 46.0886 77.3146 46.1488L73.6479 47.207L74.5667 51.0724C74.6193 51.2944 74.5742 51.5292 74.4451 51.7127C74.3146 51.8968 74.1132 52.0099 73.8944 52.0221L70.0967 52.2301L70.2005 56.2109C70.2061 56.4395 70.1141 56.6583 69.9493 56.809C69.7841 56.9597 69.5648 57.024 69.3488 56.9878L65.5972 56.3362L64.8812 60.2475C64.8399 60.4724 64.7047 60.6663 64.5127 60.7756C64.3211 60.885 64.093 60.8991 63.8897 60.8151L60.3596 59.3329L58.8573 62.9916C58.7709 63.2015 58.5991 63.3611 58.3892 63.4245C58.1794 63.4874 57.9531 63.4503 57.7728 63.3217L54.6287 61.0799L52.4103 64.3146C52.2826 64.5005 52.0822 64.617 51.8648 64.632C51.8484 64.6329 51.8319 64.6339 51.816 64.6339V64.6381ZM48.716 59.6653C48.9108 59.6653 49.1042 59.7456 49.2484 59.9052L51.739 62.6691L53.8559 59.5822C54.0873 59.2447 54.5338 59.1616 54.862 59.3954L57.862 61.5348L59.2953 58.0428C59.4526 57.6616 59.8714 57.4799 60.2394 57.6343L63.6089 59.0479L64.2925 55.3151C64.3671 54.9066 64.739 54.6353 65.1305 54.7038L68.7113 55.3263L68.6127 51.5273C68.6019 51.1113 68.9099 50.763 69.3056 50.7409L72.931 50.5423L72.0545 46.8536C71.9587 46.45 72.1878 46.0404 72.5704 45.93L76.07 44.92L74.4563 41.5155C74.2798 41.143 74.4188 40.6912 74.77 40.4974L77.9798 38.7234L75.7056 35.7617C75.4573 35.4374 75.5005 34.9655 75.8033 34.6964L78.5742 32.2417L75.7451 29.8613C75.4352 29.6013 75.3808 29.1294 75.6211 28.7991L77.8235 25.7781L74.5714 24.0894C74.2155 23.9047 74.0653 23.4569 74.2329 23.0794L75.7634 19.6328L72.2409 18.7162C71.8554 18.6157 71.6164 18.2122 71.7028 17.8065L72.4902 14.0958L68.862 13.9934C68.4648 13.9824 68.1498 13.642 68.1498 13.2264L68.1564 9.42536L64.5916 10.1422C64.2024 10.2205 63.8235 9.95945 63.738 9.55283L62.9643 5.83912L59.631 7.34109C59.2657 7.50574 58.8427 7.33508 58.677 6.95757L57.1592 3.50488L54.2117 5.72269C53.8897 5.96461 53.4409 5.89433 53.2014 5.56306L51.0103 2.53304L48.5869 5.36227C48.3211 5.67147 47.8695 5.70358 47.5676 5.43353L44.8053 2.96675L43.0191 6.27588C42.8235 6.63729 42.3882 6.77081 42.0382 6.57503L38.8349 4.78797L37.7698 8.42137C37.6528 8.81893 37.2558 9.04682 36.8733 8.93438L33.3776 7.91034L33.0833 11.6983C33.0507 12.113 32.7093 12.4242 32.3133 12.4011L28.6892 12.1883L29.1801 15.9542C29.2338 16.3658 28.9643 16.7473 28.5722 16.8136L24.9893 17.421L26.2414 20.9881C26.3786 21.3787 26.1935 21.8114 25.8244 21.965L22.4495 23.3646L24.4044 26.5672C24.6182 26.9177 24.5262 27.3825 24.1973 27.6154L21.1887 29.7418L23.7553 32.4295C24.0363 32.7236 24.042 33.1985 23.7678 33.4997L21.2664 36.2536L24.3249 38.2997C24.6595 38.5236 24.762 38.9855 24.5569 39.3418L22.6796 42.5948L26.0871 43.9049C26.46 44.0485 26.6556 44.4762 26.5281 44.8698L25.3622 48.4691L28.9586 48.9822C29.3517 49.0381 29.6307 49.4127 29.5876 49.8254L29.1878 53.6033L32.8052 53.294C33.2012 53.2592 33.5502 53.563 33.5924 53.9771L33.9778 57.7559L37.4476 56.6395C37.8273 56.517 38.23 56.7348 38.3565 57.1282L39.509 60.7325L42.6681 58.8611C43.0142 58.6564 43.4524 58.778 43.6557 59.1343L45.5205 62.3954L48.2225 59.8573C48.3625 59.7254 48.5366 59.6616 48.7113 59.6616L48.716 59.6653ZM49.7554 41.8036C47.4517 41.8036 45.2799 40.877 43.6298 39.1863C40.1763 35.6482 40.1149 29.8271 43.4936 26.2098C45.1303 24.4579 47.3211 23.478 49.6615 23.4509C52.0066 23.4248 54.2127 24.3535 55.8859 26.0673C57.5587 27.781 58.4948 30.0751 58.5207 32.5259C58.5465 34.9766 57.6587 37.2917 56.0221 39.0437C54.3855 40.7956 52.1944 41.7755 49.854 41.8026C49.8216 41.8026 49.7878 41.8026 49.7554 41.8026V41.8036ZM49.7601 24.984C49.7324 24.984 49.7056 24.984 49.6779 24.984C47.7287 25.0061 45.9031 25.8223 44.5397 27.2821C41.7247 30.295 41.7755 35.1433 44.6528 38.0909C46.0469 39.5186 47.8897 40.2947 49.8371 40.2705C51.7869 40.2485 53.6117 39.4322 54.9751 37.9725C56.3385 36.5126 57.0775 34.585 57.0563 32.5439C57.0352 30.5028 56.2559 28.5913 54.862 27.1636C53.4878 25.756 51.6789 24.984 49.7592 24.984H49.7601Z" fill="#452E63"/>
<path d="M34.4428 49.0192C43.0881 57.876 56.953 57.7164 65.4113 48.6638C73.8695 39.6108 73.7174 25.0923 65.0718 16.2352C56.4267 7.37814 42.5617 7.53777 34.1034 16.5906C25.6451 25.6435 25.7975 40.162 34.4428 49.0192ZM43.9078 38.888C40.6058 35.5056 40.5474 29.9596 43.7784 26.5019C47.0084 23.0442 52.3047 22.9829 55.607 26.3664C58.9089 29.7488 58.9671 35.2947 55.7361 38.7524C52.5061 42.2101 47.2098 42.2714 43.9078 38.888Z" fill="#F29353"/>
<path d="M35.623 47.7559C43.6019 55.93 56.3999 55.7836 64.206 47.4275C72.0126 39.0725 71.8722 25.6714 63.8924 17.497C55.9135 9.32262 43.1158 9.46919 35.3095 17.8253C27.5031 26.1804 27.6431 39.5815 35.623 47.7559ZM44.3584 38.4058C41.3105 35.2835 41.2568 30.1652 44.2385 26.9736C47.2206 23.7819 52.1084 23.7257 55.1562 26.8481C58.2041 29.9704 58.2577 35.0887 55.276 38.2803C52.2943 41.472 47.4065 41.5282 44.3584 38.4058Z" fill="#FFAA71"/>
<path d="M36.6632 46.6462C44.0554 54.2191 55.9098 54.0825 63.1417 46.342C70.3736 38.6013 70.2436 26.1881 62.8511 18.6151C55.4591 11.0421 43.6048 11.1787 36.3727 18.9194C29.1406 26.66 29.271 39.0732 36.6632 46.6462ZM44.1215 38.6636C40.9393 35.4036 40.8837 30.0605 43.9969 26.7293C47.1098 23.3981 52.2126 23.3388 55.3938 26.5988C58.575 29.8587 58.6319 35.2019 55.5187 38.5331C52.4056 41.8652 47.3027 41.9235 44.1215 38.6636Z" fill="#F29353"/>
<path d="M49.7544 41.8058C47.4502 41.8058 45.2788 40.8791 43.6288 39.1884C40.1752 35.6505 40.1139 29.8294 43.4926 26.212C45.1293 24.4601 47.3202 23.4802 49.6605 23.4531C49.6929 23.4531 49.7267 23.4531 49.7591 23.4531C52.0634 23.4531 54.2347 24.3798 55.885 26.0705C57.5577 27.7843 58.4934 30.0783 58.5197 32.529C58.5455 34.9798 57.6577 37.295 56.0211 39.0469C54.3845 40.7988 52.1934 41.7787 49.853 41.8058C49.8206 41.8058 49.7868 41.8058 49.7544 41.8058ZM49.7591 24.9862C49.7314 24.9862 49.7047 24.9862 49.6765 24.9862C47.7277 25.0082 45.902 25.8245 44.5386 27.2843C41.7237 30.2972 41.7745 35.1454 44.6518 38.0931C46.0458 39.5208 47.885 40.2918 49.8371 40.2727C51.7859 40.2506 53.6117 39.4344 54.9751 37.9746C56.3385 36.5149 57.0774 34.5872 57.0563 32.5461C57.0352 30.5051 56.2558 28.5935 54.8619 27.1658C53.4878 25.7582 51.6788 24.9862 49.7591 24.9862Z" fill="#452E63"/>
<path d="M44.694 7.06354C43.9558 7.85368 42.7448 7.86772 41.9903 7.09466C41.7468 6.8457 41.5818 6.54551 41.4927 6.22621L42.0593 6.54246C42.392 6.72823 42.8053 6.60274 42.9903 6.25837L44.2559 3.91406C44.4016 3.99941 44.5397 4.10482 44.6643 4.23333C45.4189 5.0064 45.4323 6.27443 44.694 7.06457V7.06354Z" fill="#C45A12"/>
<path d="M40.183 16.9522C40.3917 16.121 39.9174 15.27 39.1236 15.0515C38.3298 14.833 37.5172 15.3297 37.3085 16.1609C37.0998 16.992 37.5741 17.843 38.3679 18.0616C39.1616 18.2801 39.9743 17.7834 40.183 16.9522Z" fill="#C45A12"/>
<path d="M35.9422 8.62822C35.8713 8.80892 35.7677 8.9786 35.6297 9.12719C35.0554 9.74165 34.1148 9.75268 33.528 9.15127C33.4254 9.04686 33.342 8.92939 33.2749 8.80493L33.3478 7.86719L35.9432 8.62723L35.9422 8.62822Z" fill="#C45A12"/>
<path d="M55.6329 10.2323C56.2362 10.2253 56.7197 9.70778 56.7127 9.07623C56.7061 8.44473 56.2118 7.93843 55.6089 7.94538C55.0057 7.95233 54.5221 8.46989 54.5291 9.10139C54.5357 9.7329 55.0296 10.2392 55.6329 10.2323Z" fill="#C45A12"/>
<path d="M56.8348 37.9725C59.3194 34.3702 58.9827 29.2961 55.8602 26.0964C52.4208 22.5735 46.8858 22.6367 43.5215 26.238C41.9894 27.8785 41.1677 29.9738 41.0517 32.1022C40.626 31.9095 40.2262 31.6343 39.8752 31.2739C38.4275 29.7911 38.3172 27.4166 39.5617 25.7982C39.0996 23.3526 39.7592 20.7171 41.5502 18.8005C41.8973 18.429 42.2722 18.1018 42.6663 17.8176C41.857 16.5225 41.9846 14.7685 43.0603 13.617C43.3269 13.3308 43.6308 13.1059 43.9558 12.9413C43.4055 12.0568 43.4927 10.8611 44.2262 10.075C45.0756 9.16636 46.4668 9.15026 47.3353 10.0388C47.6644 10.3761 47.8705 10.7948 47.9541 11.2345C49.1344 10.6582 50.5809 10.8701 51.5668 11.8801C52.8381 13.1822 52.8597 15.3167 51.6165 16.648C51.2912 16.9954 50.9128 17.2524 50.5081 17.422C51.0832 17.7554 51.6259 18.174 52.1198 18.679C52.1724 18.7333 52.2245 18.7874 52.2752 18.8427C52.3794 18.6961 52.4926 18.5545 52.6184 18.421C54.1245 16.8086 56.5945 16.7805 58.1344 18.3578C58.4794 18.7112 58.748 19.1168 58.9414 19.5495C62.3729 18.2905 66.3405 19.0716 69.1151 21.9149C73.0114 25.9066 73.0794 32.4506 69.2677 36.5307C65.9212 40.112 60.6987 40.6049 56.8367 37.9735L56.8348 37.9725Z" fill="#C45A12"/>
<path d="M40.7608 11.9815C41.68 11.6837 42.1946 10.6621 41.9103 9.69965C41.6259 8.73716 40.6503 8.19829 39.7311 8.49603C38.8119 8.79378 38.2973 9.81542 38.5817 10.7779C38.866 11.7404 39.8417 12.2793 40.7608 11.9815Z" fill="#C45A12"/>
<path d="M33.2923 19.3339C33.7237 19.7757 33.7314 20.4995 33.3096 20.9513C32.8877 21.4031 32.1964 21.4111 31.765 20.9694C31.3335 20.5277 31.3259 19.8038 31.7477 19.352C32.1696 18.9002 32.8609 18.8922 33.2923 19.3339Z" fill="#C45A12"/>
<path d="M37.1744 22.3183C37.6058 22.76 37.6135 23.4839 37.1916 23.9357C36.7698 24.3875 36.0785 24.3955 35.647 23.9538C35.2156 23.512 35.2079 22.7882 35.6298 22.3364C36.0516 21.8846 36.743 21.8765 37.1744 22.3183Z" fill="#C45A12"/>
<path d="M40.2519 5.53556C40.1761 5.88495 40.0112 6.21725 39.7543 6.49232C39.3151 6.96322 38.7082 7.15796 38.1301 7.07566L38.8166 4.73438L40.2529 5.53556H40.2519Z" fill="#C45A12"/>
<path d="M29.7725 64.6662C29.669 64.6122 29.5577 64.5859 29.4456 64.5859C29.2893 64.5859 29.1349 64.6385 29.0055 64.7399L26.2941 66.8761H22.2576L19.248 64.7197C19.1244 64.6301 18.9796 64.5859 18.8348 64.5859C18.7178 64.5859 18.6009 64.6151 18.4935 64.6747C18.2528 64.8071 18.1033 65.0681 18.1033 65.3521V69.3559C18.1033 69.5639 18.1838 69.7625 18.3257 69.9061L20.9786 72.5949C21.1148 72.7334 21.2979 72.8108 21.4877 72.8108H26.7936C26.9834 72.8108 27.1656 72.7334 27.3027 72.5949L29.9557 69.9061C30.0985 69.7615 30.1781 69.5629 30.1781 69.3559V65.3521C30.1781 65.062 30.0208 64.7958 29.7735 64.6662H29.7725Z" fill="#F29353"/>
<path d="M27.0861 68.4766H21.1042V72.5817H27.0861V68.4766Z" fill="#C45A12"/>
<path d="M30.0986 63.974C29.8915 63.8656 29.6681 63.8125 29.4457 63.8125C29.1341 63.8125 28.8244 63.9167 28.5655 64.1205L26.0497 66.1036H22.484L19.6604 64.0806C19.4121 63.9026 19.1235 63.8125 18.8339 63.8125C18.6 63.8125 18.3661 63.8707 18.1513 63.989C17.6709 64.2538 17.3708 64.7759 17.3708 65.3444V69.3482C17.3708 69.7627 17.5319 70.1604 17.8167 70.4496L20.4696 73.1383C20.7429 73.4153 21.1072 73.5698 21.4869 73.5698H26.7927C27.1724 73.5698 27.5377 73.4153 27.81 73.1383L30.463 70.4496C30.7477 70.1604 30.9088 69.7637 30.9088 69.3482V65.3444C30.9088 64.7632 30.5953 64.2332 30.0986 63.9731V63.974ZM29.4457 69.3491L26.7927 72.0379H21.4869L18.8339 69.3491V65.3454L22.0305 67.6364H26.5387L29.4457 65.3454V69.3491Z" fill="#452E63"/>
<path d="M21.487 68.8C21.2972 68.8 21.115 68.7226 20.9779 68.5841L18.325 65.8953C18.1821 65.7507 18.1025 65.5521 18.1025 65.3451C18.1025 65.1385 18.1831 64.9385 18.325 64.7949L20.9779 62.1066C21.1141 61.9676 21.2972 61.8906 21.487 61.8906H26.7929C26.9827 61.8906 27.1649 61.9676 27.302 62.1066L29.9549 64.7949C30.0978 64.9395 30.1774 65.1385 30.1774 65.3451C30.1774 65.5521 30.0969 65.7517 29.9549 65.8953L27.302 68.5841C27.1659 68.7226 26.9827 68.8 26.7929 68.8H21.487ZM23.9962 64.7639C23.0278 64.7639 22.5254 65.1756 22.4976 65.3061C22.5254 65.4296 23.0287 65.8413 23.9962 65.8413C24.9636 65.8413 25.4669 65.4296 25.4947 65.2991C25.4669 65.1756 24.9645 64.7639 23.9962 64.7639Z" fill="#F29353"/>
<path d="M24.0404 63.9453C22.8084 63.9453 21.8103 64.5298 21.8103 65.2505C21.8103 65.9711 22.8084 66.5556 24.0404 66.5556C25.2724 66.5556 26.2705 65.9711 26.2705 65.2505C26.2705 64.5298 25.2724 63.9453 24.0404 63.9453Z" fill="#452E63"/>
<path d="M30.463 64.2452L27.81 61.5569C27.5368 61.2795 27.1724 61.125 26.7927 61.125H21.4869C21.1072 61.125 20.7419 61.2795 20.4696 61.5569L17.8167 64.2452C17.5319 64.5344 17.3708 64.9311 17.3708 65.3466C17.3708 65.7626 17.5319 66.1588 17.8167 66.448L20.4696 69.1367C20.7429 69.4137 21.1072 69.5687 21.4878 69.5687H26.7937C27.1734 69.5687 27.5387 69.4137 27.8119 69.1367L30.4648 66.448C30.7496 66.1588 30.9107 65.7626 30.9107 65.3466C30.9107 64.9311 30.7496 64.5344 30.4648 64.2452H30.463ZM26.7927 68.0353H21.4869L18.8339 65.3466L21.4869 62.6579H26.7927L29.4457 65.3466L26.7927 68.0353Z" fill="#452E63"/>
<path d="M83.3765 58.2218C83.2728 58.1674 83.1615 58.1416 83.0493 58.1416C82.893 58.1416 82.739 58.1937 82.6094 58.2951L79.8981 60.4317H75.8615L72.8521 58.274C72.7282 58.1857 72.5836 58.1406 72.4385 58.1406C72.3216 58.1406 72.2047 58.1697 72.0972 58.2289C71.8577 58.3613 71.707 58.6223 71.707 58.9064V62.9106C71.707 63.1181 71.7878 63.3171 71.9296 63.4603L74.5826 66.1491C74.7188 66.2876 74.9019 66.365 75.0915 66.365H80.3976C80.5873 66.365 80.7695 66.2876 80.9066 66.1491L83.5596 63.4603C83.7023 63.3157 83.7821 63.1172 83.7821 62.9106V58.9064C83.7821 58.6162 83.6249 58.3505 83.3775 58.2209L83.3765 58.2218Z" fill="#B6CCF2"/>
<path d="M80.6897 62.0391H74.708V66.1447H80.6897V62.0391Z" fill="#DBE6FF"/>
<path d="M83.7033 57.5365C83.4962 57.4281 83.2728 57.375 83.0502 57.375C82.739 57.375 82.4291 57.4792 82.1704 57.683L79.6545 59.6661H76.0887L73.2653 57.6431C73.0169 57.4651 72.7282 57.375 72.4385 57.375C72.2047 57.375 71.9709 57.4332 71.7559 57.5515C71.2756 57.8168 70.9756 58.3388 70.9756 58.9069V62.9107C70.9756 63.3252 71.1366 63.7229 71.4216 64.0121L74.0742 66.7008C74.3474 66.9778 74.7117 67.1327 75.0925 67.1327H80.3986C80.7779 67.1327 81.1432 66.9778 81.4164 66.7008L84.0695 64.0121C84.3545 63.7229 84.5155 63.3266 84.5155 62.9107V58.9069C84.5155 58.3257 84.2019 57.7957 83.7052 57.5356L83.7033 57.5365ZM83.0502 62.9116L80.3977 65.6004H75.0916L72.4385 62.9116V58.9079L75.6352 61.1989H80.1423L83.0493 58.9079V62.9116H83.0502Z" fill="#452E63"/>
<path d="M83.5586 58.3578L80.9056 55.6691C80.7694 55.5306 80.5863 55.4531 80.3967 55.4531H75.0906C74.9009 55.4531 74.7187 55.5306 74.5816 55.6691L71.9286 58.3578C71.7859 58.5024 71.7061 58.701 71.7061 58.9081C71.7061 59.1146 71.7868 59.3146 71.9286 59.4578L74.5816 62.1466C74.7178 62.2851 74.9009 62.3625 75.0906 62.3625H80.3967C80.5863 62.3625 80.7685 62.2851 80.9056 62.1466L83.5586 59.4578C83.7014 59.3132 83.7812 59.1146 83.7812 58.9081C83.7812 58.701 83.7004 58.501 83.5586 58.3578ZM77.5995 59.4048C76.6314 59.4048 76.1291 58.993 76.1014 58.8696C76.1291 58.739 76.6324 58.3278 77.5995 58.3278C78.5671 58.3278 79.0704 58.739 79.0981 58.8625C79.0704 58.993 78.568 59.4048 77.5995 59.4048Z" fill="#B6CCF2"/>
<path d="M84.0675 57.8082L81.4145 55.1194C81.1412 54.8424 80.7769 54.6875 80.3966 54.6875H75.0905C74.7107 54.6875 74.3455 54.8424 74.0722 55.1194L71.4192 57.8082C71.1347 58.0969 70.9736 58.4936 70.9736 58.9091C70.9736 59.3251 71.1347 59.7218 71.4192 60.0105L74.0722 62.6992C74.3455 62.9762 74.7098 63.1312 75.0905 63.1312H80.3966C80.776 63.1312 81.1412 62.9762 81.4135 62.6992L84.0666 60.0105C84.3516 59.7218 84.5126 59.3251 84.5126 58.9091C84.5126 58.4936 84.3516 58.0969 84.0666 57.8082H84.0675ZM80.3976 61.5978H75.0915L72.4384 58.9091L75.0915 56.2208H80.3976L83.0502 58.9091L80.3976 61.5978Z" fill="#452E63"/>
<path d="M77.5994 57.5625C76.3675 57.5625 75.3694 58.147 75.3694 58.8677C75.3694 59.5888 76.3675 60.1728 77.5994 60.1728C78.8318 60.1728 79.8299 59.5888 79.8299 58.8677C79.8299 58.147 78.8318 57.5625 77.5994 57.5625Z" fill="#452E63"/>
<path d="M12.6082 43.6562H7.35507L4.72803 48.6247L7.35507 53.5937H12.6082L15.2353 48.6247L12.6082 43.6562ZM9.83925 50.958C8.61967 50.958 7.63117 49.8787 7.63117 48.5468C7.63117 47.2143 8.61967 46.135 9.83925 46.135C11.0588 46.135 12.0473 47.2143 12.0473 48.5468C12.0473 49.8787 11.0588 50.958 9.83925 50.958Z" fill="#DBE6FF"/>
<path d="M12.0462 48.5469C12.0462 48.5469 11.0577 50.9586 9.83815 50.9586C9.46613 50.9586 9.11524 50.8572 8.80843 50.6802L7.31177 53.5126L7.35491 53.5938H12.6081L15.2342 48.6253L12.0462 48.5478V48.5469Z" fill="#B6CCF2"/>
<path d="M16.5152 47.884L13.8881 42.9151C13.6302 42.4272 13.1403 42.125 12.6082 42.125H7.35501C6.82289 42.125 6.332 42.4272 6.07505 42.9151L3.44801 47.884C3.20353 48.3455 3.20353 48.907 3.44801 49.3675L6.07505 54.3365C6.33299 54.8243 6.82289 55.1267 7.35501 55.1267H12.6082C13.1403 55.1267 13.6302 54.8243 13.8881 54.3365L16.5152 49.3675C16.7597 48.906 16.7597 48.3445 16.5152 47.884ZM12.6082 53.5943H7.35501L4.72796 48.6258L7.35501 43.6571H12.6082L15.2352 48.6258L12.6082 53.5943Z" fill="#452E63"/>
<path d="M9.83918 46.1328C8.6196 46.1328 7.6311 47.2121 7.6311 48.5444C7.6311 49.8768 8.6196 50.9561 9.83918 50.9561C11.0587 50.9561 12.0472 49.8768 12.0472 48.5444C12.0472 47.2121 11.0587 46.1328 9.83918 46.1328ZM9.83918 49.4228C9.4288 49.4228 9.0942 49.0284 9.0942 48.5444C9.0942 48.0603 9.42786 47.666 9.83918 47.666C10.2505 47.666 10.5841 48.0603 10.5841 48.5444C10.5841 49.0284 10.2505 49.4228 9.83918 49.4228Z" fill="#452E63"/>
<path d="M9.34356 43.6562H4.09042L1.46338 48.6247L4.09042 53.5937H9.34356L11.9706 48.6247L9.34356 43.6562ZM6.57464 50.958C5.35506 50.958 4.36655 49.8787 4.36655 48.5468C4.36655 47.2143 5.35506 46.135 6.57464 46.135C7.79417 46.135 8.78266 47.2143 8.78266 48.5468C8.78266 49.8787 7.79417 50.958 6.57464 50.958Z" fill="#DBE6FF"/>
<path d="M9.25711 43.6562L7.74993 46.5065C8.36927 46.9332 8.78157 47.6871 8.78157 48.5468C8.78157 49.8778 7.79308 50.958 6.5735 50.958C6.20148 50.958 5.85059 50.8566 5.54378 50.6801L4.04712 53.5125L4.09026 53.5937H9.3434L11.9695 48.6247L9.3434 43.6562H9.25711Z" fill="#B6CCF2"/>
<path d="M6.5745 46.1328C5.35497 46.1328 4.36646 47.2121 4.36646 48.5444C4.36646 49.8768 5.35497 50.9561 6.5745 50.9561C7.79408 50.9561 8.78258 49.8768 8.78258 48.5444C8.78258 47.2121 7.79408 46.1328 6.5745 46.1328ZM6.5745 49.4228C6.16417 49.4228 5.82953 49.0284 5.82953 48.5444C5.82953 48.0603 6.16319 47.666 6.5745 47.666C6.98582 47.666 7.31948 48.0603 7.31948 48.5444C7.31948 49.0284 6.98582 49.4228 6.5745 49.4228Z" fill="#452E63"/>
<path d="M13.2505 47.8839L10.6235 42.9151C10.3656 42.4272 9.87563 42.125 9.34352 42.125H4.09038C3.55826 42.125 3.06737 42.4272 2.81042 42.9151L0.183366 47.8839C-0.0611221 48.3454 -0.0611221 48.9069 0.183366 49.3675L2.81042 54.3365C3.06833 54.8243 3.55826 55.1266 4.09038 55.1266H9.34352C9.87563 55.1266 10.3656 54.8243 10.6235 54.3365L13.2505 49.3675C13.495 48.906 13.495 48.3445 13.2505 47.8839ZM9.34352 53.5943H4.09038L1.46334 48.6257L4.09038 43.6571H9.34352L11.9706 48.6257L9.34352 53.5943Z" fill="#452E63"/>
<path d="M58.8809 70.299C58.7771 70.245 58.6659 70.2188 58.5536 70.2188C58.3978 70.2188 58.2433 70.2713 58.1137 70.3727L55.4025 72.5098H51.3658L48.3555 70.3526C48.2316 70.2629 48.087 70.2188 47.9419 70.2188C47.825 70.2188 47.7081 70.2479 47.6006 70.3075C47.3612 70.4399 47.2104 70.7009 47.2104 70.9849V74.9887C47.2104 75.1967 47.2912 75.3953 47.433 75.5389L50.086 78.2277C50.2222 78.3662 50.4053 78.4436 50.595 78.4436H55.9011C56.0907 78.4436 56.2729 78.3662 56.41 78.2277L59.063 75.5389C59.2058 75.3943 59.2856 75.1957 59.2856 74.9887V70.9849C59.2856 70.6948 59.1283 70.4286 58.8809 70.299Z" fill="#B6CCF2"/>
<path d="M56.1943 74.1172H50.2126V78.2224H56.1943V74.1172Z" fill="#DBE6FF"/>
<path d="M59.2076 69.6146C59.0006 69.5062 58.7771 69.4531 58.5546 69.4531C58.2433 69.4531 57.9335 69.5573 57.6748 69.7611L55.1588 71.7437H51.5931L48.7696 69.7207C48.5212 69.5433 48.2325 69.4531 47.9428 69.4531C47.709 69.4531 47.4752 69.5113 47.2602 69.6296C46.7801 69.8944 46.48 70.4165 46.48 70.9851V74.9888C46.48 75.4034 46.6411 75.801 46.9258 76.0902L49.5785 78.7789C49.8518 79.0559 50.2166 79.2104 50.5968 79.2104H55.9029C56.2823 79.2104 56.648 79.0559 56.9212 78.7789L59.5738 76.0902C59.8588 75.801 60.0198 75.4043 60.0198 74.9888V70.9851C60.0198 70.4038 59.7062 69.8738 59.2095 69.6137L59.2076 69.6146ZM58.5546 74.9897L55.902 77.6785H50.5959L47.9428 74.9897V70.986L51.1396 73.2771H55.648L58.5546 70.986V74.9897Z" fill="#452E63"/>
<path d="M59.063 70.4355L56.41 67.7472C56.2738 67.6082 56.0907 67.5312 55.9011 67.5312H50.595C50.4053 67.5312 50.2231 67.6082 50.086 67.7472L47.433 70.4355C47.2903 70.5801 47.2104 70.7791 47.2104 70.9857C47.2104 71.1928 47.2912 71.3923 47.433 71.5359L50.086 74.2247C50.2222 74.3632 50.4053 74.4406 50.595 74.4406H55.9011C56.0907 74.4406 56.2729 74.3632 56.41 74.2247L59.063 71.5359C59.2058 71.3913 59.2856 71.1928 59.2856 70.9857C59.2856 70.7791 59.2048 70.5791 59.063 70.4355ZM53.1043 71.4829C52.1358 71.4829 51.6335 71.0712 51.6058 70.9477C51.6335 70.8172 52.1358 70.4054 53.1043 70.4054C54.0724 70.4054 54.5748 70.8172 54.6029 70.9406C54.5748 71.0712 54.0724 71.4829 53.1043 71.4829Z" fill="#B6CCF2"/>
<path d="M59.5717 69.878L56.9187 67.1897C56.6454 66.9123 56.2811 66.7578 55.9018 66.7578H50.5957C50.2158 66.7578 49.8506 66.9123 49.5774 67.1897L46.9246 69.878C46.6398 70.1672 46.4788 70.5639 46.4788 70.9794C46.4788 71.3954 46.6398 71.7916 46.9246 72.0808L49.5774 74.7695C49.8506 75.0465 50.2149 75.2015 50.5957 75.2015H55.9018C56.2811 75.2015 56.6464 75.0465 56.9196 74.7695L59.5727 72.0808C59.8576 71.7916 60.0187 71.3954 60.0187 70.9794C60.0187 70.5639 59.8576 70.1672 59.5727 69.878H59.5717ZM55.9018 73.6681H50.5957L47.9426 70.9794L50.5957 68.2907H55.9018L58.5543 70.9794L55.9018 73.6681Z" fill="#452E63"/>
<path d="M53.1043 72.2431C54.3358 72.2431 55.3344 71.6586 55.3344 70.938C55.3344 70.2173 54.3358 69.6328 53.1043 69.6328C51.8724 69.6328 50.8743 70.2173 50.8743 70.938C50.8743 71.6586 51.8724 72.2431 53.1043 72.2431Z" fill="#452E63"/>
</svg>
