<svg width="200" height="200" viewBox="0 0 200 200" fill="none" xmlns="http://www.w3.org/2000/svg">
<mask id="mask0_202_220" style="mask-type:luminance" maskUnits="userSpaceOnUse" x="0" y="0" width="200" height="200">
<path d="M200 0H0V200H200V0Z" fill="white"/>
</mask>
<g mask="url(#mask0_202_220)">
<path d="M118.458 99.9603C118.458 110.129 110.183 118.405 100.014 118.405C89.8166 118.405 81.5411 110.129 81.5411 99.9603C81.5411 95.3351 83.2423 91.0729 86.084 87.8403C89.4549 83.9397 94.4423 81.4883 100.014 81.4883C109.181 81.4883 116.814 88.202 118.207 97.0066C118.375 97.982 118.458 98.9574 118.458 99.9603Z" fill="#F72F43"/>
<path d="M118.458 99.9598C118.458 110.129 110.183 118.404 100.014 118.404C89.8166 118.404 81.5411 110.129 81.5411 99.9598C81.5411 95.3347 83.2423 91.0724 86.084 87.8398C86.1114 92.2981 87.8389 96.7833 90.9594 99.9873C95.1103 104.251 101.519 106.173 107.313 104.836C111.8 103.804 115.756 100.879 118.207 97.0061C118.375 97.9816 118.458 98.957 118.458 99.9598Z" fill="#E2212E"/>
<path d="M104.276 96.6065C104.349 96.1911 104.276 95.7631 104.162 95.3562C103.764 93.9356 102.808 92.5442 101.529 91.7762C100.272 91.0213 98.5205 91.4968 98.4891 93.1979C98.4542 95.1014 103.734 99.6974 104.276 96.6065Z" fill="#E2212E"/>
<path d="M104.284 89.3811C104.338 89.0714 104.283 88.7531 104.199 88.4502C103.903 87.3925 103.191 86.3571 102.239 85.7851C101.303 85.2234 99.9988 85.5765 99.9754 86.8434C99.9491 88.2605 103.88 91.6822 104.284 89.3811Z" fill="#E2212E"/>
<path d="M149.27 134.085C151.153 131.343 152.815 128.466 154.201 125.442C154.651 124.507 155.048 123.563 155.438 122.595C156.514 119.977 157.368 117.301 158.045 114.553C160.48 104.565 160.322 93.8245 157.034 83.3212C153.103 70.7632 145.294 60.4711 135.346 53.3341C132.133 51.0085 128.666 49.0185 125.043 47.4355C123.639 46.7987 122.204 46.2236 120.766 45.7248C109.209 41.5512 96.2776 41.0118 83.6967 44.9497C73.0068 48.2958 63.9661 54.4562 57.114 62.3675C56.4108 63.1522 55.7392 63.9516 55.1047 64.7909C43.6895 79.4096 39.3946 99.2574 45.3488 118.28C51.9312 139.309 69.3742 154.018 89.5815 158.15C90.9758 158.43 92.3795 158.658 93.8226 158.847C96.6772 159.209 99.5688 159.355 102.501 159.308C107.849 159.198 113.287 158.315 118.655 156.635C131.586 152.588 142.132 144.443 149.27 134.085ZM95.2175 154.053C93.4657 153.858 91.7381 153.58 90.0352 153.215C87.4314 152.673 84.8911 151.929 82.4186 150.987C67.4674 145.389 55.1458 133.204 50.0171 116.818C46.2179 104.681 46.9729 92.1954 51.3216 81.1976C53.2552 76.2363 55.9466 71.5747 59.2577 67.4126C59.7884 66.7334 60.3419 66.0471 60.9345 65.4013C61.7964 64.3883 62.7264 63.4301 63.6879 62.4885C69.5413 56.7095 76.8017 52.2337 85.158 49.6181C94.564 46.6739 104.238 46.4653 113.226 48.5721C115.067 48.9693 116.898 49.4983 118.659 50.1261C120.204 50.6421 121.701 51.25 123.167 51.9187C136.653 57.9998 147.61 69.5873 152.366 84.7824C156.289 97.3153 155.356 110.217 150.623 121.463C150.267 122.291 149.911 123.12 149.525 123.933C143.331 136.892 131.945 147.35 117.194 151.967C109.864 154.261 102.397 154.882 95.2175 154.053Z" fill="#28B6F4"/>
<path d="M103.713 158.185C103.274 158.503 102.864 158.912 102.501 159.308C99.5688 159.355 96.6773 159.208 93.8227 158.847C93.5823 157.179 94.1877 155.427 95.2178 154.053C102.397 154.882 109.865 154.261 117.194 151.967C131.945 147.35 143.331 136.892 149.526 123.933C151.211 123.994 152.936 124.43 154.202 125.442C152.815 128.466 151.153 131.343 149.27 134.085C148.49 134.381 147.749 134.715 147.014 135.15C143.8 137.001 140.936 139.64 138.017 141.938C134.696 144.591 131.314 147.215 127.736 149.538C122.123 153.141 115.905 156.036 109.286 156.749C107.356 156.969 105.281 157.054 103.713 158.185Z" fill="#095DA4"/>
<path d="M89.4582 158.199C89.1813 158.132 88.9137 158.089 88.6369 158.022C86.0564 157.45 83.5255 156.71 81.0435 155.801L81.0206 155.808C64.506 149.736 50.888 136.345 45.2437 118.313C41.0194 104.817 41.9533 90.9075 46.9363 78.7459C48.0755 75.9369 49.4111 73.2708 50.9709 70.6622C52.1804 68.6481 53.5348 66.6929 54.9958 64.8296C55.6281 63.9928 56.2979 63.1958 56.9992 62.4147C58.434 63.1654 59.7503 64.1846 60.8061 65.4381C60.2168 66.0829 59.6637 66.7666 59.1348 67.4434C57.8715 69.0386 56.7071 70.7066 55.6348 72.4219C54.611 74.0447 53.6845 75.7395 52.8505 77.4826C52.2654 78.7134 51.7093 79.9602 51.2153 81.2386C50.2725 81.4066 49.322 81.9601 48.6829 82.6965C47.4622 84.1004 47.017 86.0269 46.668 87.849C45.9213 91.9909 45.3589 96.1524 45.1889 100.344C45.0203 104.051 45.4683 107.768 45.7014 111.45C46.2033 118.6 49.9363 125.632 53.9014 131.442C58.1293 137.604 63.349 143.098 69.2795 147.603C72.3679 149.958 76.006 152.115 79.825 151.583C80.6608 151.475 81.4818 151.243 82.3037 151.012C82.855 151.222 83.3986 151.41 83.9499 151.62C85.8963 152.288 87.8838 152.842 89.9275 153.25C90.1554 153.894 90.266 154.575 90.2536 155.268L90.2608 155.291C90.2414 156.294 89.9994 157.315 89.4582 158.199Z" fill="#095DA4"/>
<path d="M63.6905 62.4906C62.1044 64.0347 60.601 65.6806 59.2516 67.4065C57.8784 67.4269 56.4801 66.7145 55.6216 65.6048C55.4407 65.3546 55.2529 65.082 55.1115 64.793C62.1571 55.7153 71.9263 48.6474 83.7001 44.9621C93.6584 41.8451 103.829 41.5221 113.367 43.596C115.887 44.1348 118.364 44.8672 120.777 45.7212C120.806 47.1181 120.41 48.467 119.468 49.4531C119.215 49.7107 118.949 49.9205 118.653 50.1155C117.557 49.7178 116.423 49.3585 115.264 49.0825C114.588 48.8846 113.897 48.7172 113.214 48.5735C111.247 46.123 107.681 45.4255 104.5 45.2214C92.624 44.493 80.5385 47.5099 70.3993 53.7233C68.1986 55.102 65.9647 56.696 64.8268 59.0191C64.3055 60.1281 64.037 61.3094 63.6905 62.4906Z" fill="#095DA4"/>
<path d="M155.437 122.595C154.87 122.67 154.276 122.651 153.689 122.578C152.585 122.411 151.564 122.013 150.623 121.462C155.356 110.217 156.289 97.3149 152.366 84.7821C147.61 69.587 136.652 57.9991 123.166 51.918C123.427 50.2982 124.068 48.7402 125.043 47.4351C128.666 49.0182 132.133 51.0082 135.346 53.3338C135.232 54.1127 135.363 54.9426 135.667 55.6684C136.327 57.2036 137.582 58.3488 138.767 59.5157C144.976 65.5156 150.16 72.6588 153.478 80.6411C156.766 88.6065 158.151 97.4501 156.956 105.999C156.618 108.438 156.098 111.035 157.194 113.229C157.418 113.697 157.735 114.136 158.045 114.552C157.368 117.3 156.513 119.977 155.437 122.595Z" fill="#095DA4"/>
<path d="M49.7867 77.651C48.7876 77.8864 47.8625 78.2778 46.9364 78.7463C48.0756 75.9373 49.4112 73.2712 50.971 70.6626C51.9746 70.6044 52.982 70.723 53.9078 71.1494C54.5811 71.4241 55.1823 71.8742 55.6344 72.4225C54.6105 74.0453 53.684 75.7401 52.85 77.4832C51.8279 77.3177 50.7854 77.4145 49.7867 77.651Z" fill="black"/>
<path d="M57.9432 76.5636C57.5703 76.6803 57.1898 76.7742 56.8178 76.8133C53.0162 77.4399 49.2285 75.1659 48.0449 71.3846C46.7446 67.2305 49.0771 62.8102 53.2312 61.5099C55.3088 60.8596 57.4163 61.1223 59.2093 62.0211C61.018 62.9666 62.4498 64.5958 63.0997 66.6723C64.4004 70.8276 62.0984 75.2629 57.9432 76.5636Z" fill="#FFCA28"/>
<path d="M56.8177 76.814C53.016 77.4405 49.2282 75.166 48.0446 71.3847C46.7443 67.2306 49.0767 62.8103 53.2309 61.51C55.3085 60.8597 57.4154 61.1226 59.2084 62.0214C56.7647 63.71 54.7855 66.1491 54.1998 69.023C53.5987 71.8513 54.6222 75.0408 56.8177 76.814Z" fill="#FF9F1C"/>
<path d="M154.637 131.176C153.447 131.548 152.215 131.627 151.052 131.427C148.197 130.988 145.697 128.976 144.769 126.012C143.469 121.858 145.778 117.445 149.932 116.145C151.962 115.509 154.032 115.732 155.787 116.592C157.643 117.524 159.136 119.184 159.8 121.307C161.101 125.462 158.792 129.875 154.637 131.176Z" fill="#FFCA28"/>
<path d="M151.051 131.426C148.197 130.987 145.697 128.975 144.77 126.011C143.469 121.857 145.778 117.444 149.932 116.144C151.962 115.508 154.032 115.731 155.787 116.591C154.893 116.846 154.065 117.31 153.357 117.916C152.131 118.992 151.315 120.477 150.821 122.015C149.829 125.067 149.937 128.442 151.051 131.426Z" fill="#FF9F1C"/>
<path d="M156.84 117.227C158.2 118.197 159.267 119.602 159.8 121.306C161.101 125.462 158.792 129.875 154.637 131.175C153.447 131.548 152.215 131.626 151.052 131.427C148.197 130.988 145.697 128.976 144.769 126.011" stroke="black" stroke-width="0.42741" stroke-linecap="round" stroke-linejoin="round"/>
<path d="M88.9214 157.934C86.3409 157.362 83.81 156.621 81.3291 155.712C82.7131 154.665 83.7573 153.188 84.2355 151.531C86.182 152.199 88.1689 152.753 90.2126 153.161C90.4393 153.805 90.55 154.486 90.5376 155.18L90.5448 155.203C90.2794 156.231 89.7137 157.2 88.9214 157.934Z" fill="black"/>
<path d="M95.1255 161.437C93.4912 161.949 91.8134 161.91 90.2912 161.388C87.9776 160.626 86.0457 158.795 85.2567 156.274C83.9564 152.12 86.258 147.683 90.4132 146.383C93.284 145.484 96.2624 146.319 98.2609 148.283C99.1806 149.174 99.8863 150.286 100.288 151.569C101.589 155.724 99.2797 160.137 95.1255 161.437Z" fill="#FFCA28"/>
<path d="M90.2919 161.388C87.9783 160.626 86.0466 158.796 85.2575 156.275C83.9572 152.121 86.2587 147.684 90.4139 146.383C93.2847 145.484 96.2627 146.32 98.2612 148.284C96.2909 148.542 94.3898 149.264 92.7904 150.458C90.4373 152.271 88.8813 155.243 89.1672 158.203C89.2865 159.319 89.6835 160.425 90.2919 161.388Z" fill="#FF9F1C"/>
<path d="M93.1039 153.86C92.8118 154.067 92.5113 154.283 92.3311 154.591C92.1509 154.9 92.1261 155.331 92.3714 155.591C92.5628 155.794 92.875 155.847 93.1474 155.785C93.4197 155.724 93.6592 155.566 93.88 155.395C94.1867 155.157 94.4782 154.879 94.6324 154.522C94.7866 154.166 94.7763 153.717 94.522 153.424C94.2677 153.132 93.7462 153.083 93.5007 153.383" fill="#FF9F1C"/>
<path d="M96.8768 154.631C96.6928 154.761 96.504 154.896 96.3905 155.091C96.2771 155.285 96.2612 155.556 96.4156 155.72C96.5361 155.848 96.733 155.881 96.9045 155.843C97.076 155.804 97.2269 155.704 97.3656 155.596C97.5588 155.447 97.7426 155.272 97.8394 155.047C97.9361 154.823 97.9299 154.54 97.7697 154.356C97.6095 154.172 97.2814 154.141 97.127 154.33" fill="#FF9F1C"/>
<path d="M118.654 50.1145C117.558 49.7168 116.423 49.357 115.264 49.0809C115.241 48.6026 115.235 48.0932 115.074 47.6583C114.729 46.7187 114.158 45.876 113.751 44.9816C113.567 44.554 113.413 44.0657 113.367 43.5947C115.887 44.1334 118.364 44.8659 120.777 45.7198C120.806 47.1167 120.41 48.4656 119.467 49.4517C119.215 49.7094 118.949 49.9196 118.654 50.1145Z" fill="black"/>
<path d="M126.576 56.5908C125.572 56.905 124.526 57.0012 123.53 56.9288C120.449 56.6633 117.671 54.5856 116.685 51.4342C115.385 47.2801 117.716 42.859 121.871 41.5584C123.481 41.0543 125.137 41.1001 126.621 41.5844C128.981 42.3307 130.943 44.1785 131.739 46.7223C133.039 50.8764 130.73 55.2905 126.576 56.5908Z" fill="#FFCA28"/>
<path d="M123.53 56.9296C120.449 56.6641 117.671 54.5871 116.685 51.4358C115.384 47.2816 117.716 42.8604 121.871 41.5597C123.482 41.0557 125.137 41.1015 126.621 41.5858C124.752 43.1443 123.275 45.1445 122.459 47.4498C121.381 50.555 121.778 54.1972 123.53 56.9296Z" fill="#FF9F1C"/>
<path d="M125.719 47.7093C125.612 47.9876 125.516 48.3331 125.711 48.5581C125.934 48.8149 126.35 48.7097 126.656 48.5601C127.201 48.293 127.74 47.9071 127.936 47.3325C128.042 47.0225 128.012 46.3188 127.672 46.1301C126.852 45.6754 125.931 47.1576 125.719 47.7093Z" fill="#FF9F1C"/>
<path d="M126.715 50.1817C126.653 50.3421 126.598 50.5411 126.71 50.671C126.839 50.8192 127.08 50.7591 127.256 50.6727C127.571 50.5183 127.882 50.2956 127.995 49.9637C128.057 49.7849 128.039 49.3786 127.843 49.2694C127.369 49.0065 126.837 49.8629 126.715 50.1817Z" fill="#FF9F1C"/>
<path d="M62.2407 89.3749C62.0728 89.9115 61.9041 90.4485 61.783 90.9998C61.6807 91.3268 61.6011 91.6616 61.5303 91.9721C60.9775 94.3106 60.6567 96.6455 60.537 98.9907C60.4811 100.153 60.472 101.33 60.5475 102.481C60.5415 102.58 60.5358 102.681 60.5535 102.789C60.7366 106.871 61.6073 110.885 63.0695 114.649C67.1328 125.249 75.8329 133.97 87.5041 137.624C107.766 143.966 129.403 132.644 135.745 112.382C137.104 108.041 137.658 103.651 137.47 99.3392C137.438 98.457 137.383 97.5684 137.275 96.6886C137.089 94.9912 136.779 93.2799 136.346 91.6315C136.169 90.8839 135.947 90.1225 135.716 89.3844C135.584 88.9061 135.436 88.4763 135.274 88.0159C134.009 84.4413 132.215 81.0866 129.962 78.0485C125.295 71.6674 118.628 66.6846 110.504 64.142C90.2427 57.7999 68.5825 69.1142 62.2407 89.3749ZM125.467 80.2046C127.646 82.9875 129.367 86.0892 130.557 89.4103C130.64 89.6398 130.727 89.8481 130.809 90.0776C131.111 90.9935 131.368 91.8932 131.594 92.8097C132.035 94.4341 132.312 96.0843 132.475 97.7758C132.658 99.7288 132.656 101.701 132.468 103.694C132.303 106.103 131.829 108.517 131.077 110.921C125.538 128.615 106.635 138.486 88.9654 132.955C78.8113 129.777 71.2145 122.195 67.6723 112.962C66.3826 109.714 65.6382 106.278 65.4647 102.738C65.3927 102.229 65.3994 101.717 65.3824 101.199C65.3896 101.176 65.374 101.145 65.3812 101.123C65.3415 97.7277 65.8347 94.2677 66.9089 90.836C72.4396 73.1663 91.3494 63.2724 109.043 68.8107C115.79 70.9224 121.411 74.9879 125.467 80.2046Z" fill="#28B6F4"/>
<path d="M116.064 69.4706C119.358 71.4752 122.238 74.1449 125.599 76.0181C126.998 76.7887 128.489 77.4338 129.962 78.049C132.215 81.087 134.009 84.4418 135.274 88.0164C135.436 88.4767 135.584 88.9066 135.716 89.3849C136.464 91.745 137.004 94.1953 137.274 96.6891C136.024 97.324 134.623 97.7055 133.241 97.7846C132.978 97.8048 132.722 97.8021 132.475 97.7763C132.224 95.1347 131.644 92.5694 130.809 90.078C130.727 89.8485 130.64 89.6402 130.557 89.4107C129.367 86.0897 127.646 82.9879 125.467 80.2051C121.411 74.9884 115.79 70.9229 109.043 68.8112C91.3494 63.2729 72.4396 73.1668 66.9088 90.8365C65.8347 94.2681 65.3415 97.7282 65.3812 101.123C63.8811 101.986 62.2596 102.58 60.5535 102.789C60.4609 101.53 60.4757 100.253 60.5369 98.9911C60.6566 96.646 60.9775 94.311 61.5302 91.9726C61.601 91.6621 61.6807 91.3273 61.783 91.0003C62.7561 90.5113 63.6487 89.7909 64.3917 88.9721C65.6647 87.525 66.5441 85.7761 67.5046 84.1035C71.1895 77.5684 76.5731 70.3595 83.8023 67.6502C94.0136 63.8496 106.543 63.6972 116.064 69.4706Z" fill="#095DA4"/>
<path d="M136.344 91.6202C136.769 93.285 137.078 94.9922 137.286 96.6931C137.395 97.5692 137.449 98.456 137.481 99.3344C137.529 100.32 137.532 101.291 137.504 102.279C137.373 105.636 136.803 109.01 135.747 112.383C129.403 132.651 107.771 143.969 87.5037 137.625C76.6135 134.216 68.3032 126.402 63.9387 116.759C63.6405 116.078 63.3269 115.367 63.0669 114.646C62.0949 112.12 61.3666 109.464 60.9626 106.757C60.7374 105.435 60.6136 104.119 60.543 102.793C60.5255 102.686 60.5305 102.586 60.5368 102.486C61.6083 102.08 62.763 101.981 63.8855 102.154C64.435 102.275 64.9705 102.443 65.4617 102.75C65.5329 104.152 65.69 105.529 65.9542 106.889C66.172 108.234 66.4967 109.563 66.9297 110.874C67.1428 111.58 67.4098 112.276 67.6781 112.974C66.9849 113.88 66.7693 115.142 66.9984 116.286C67.2479 117.693 68.0272 118.958 68.8515 120.162C73.9442 127.479 81.2646 133.398 89.7654 136.111C98.2457 138.815 107.949 138.174 115.664 133.691C121.952 130.089 126.679 124.211 130.593 118.077C132.563 114.964 134.434 111.436 133.911 107.798C133.683 106.321 133.104 104.99 132.463 103.69C132.62 102.13 132.645 100.58 132.563 99.0472C132.548 98.6071 132.524 98.1922 132.478 97.7685C132.315 96.0817 132.039 94.4371 131.601 92.8175C132.806 91.6616 134.664 91.2728 136.344 91.6202Z" fill="#095DA4"/>
<path d="M136.344 91.6199C136.769 93.2848 137.078 94.9914 137.286 96.6923C137.395 97.5684 137.449 98.4552 137.481 99.3336C137.529 100.319 137.533 101.29 137.504 102.278C136.319 100.681 134.523 99.4798 132.563 99.0464C132.548 98.6063 132.525 98.1916 132.479 97.7678C132.316 96.0811 132.039 94.4368 131.6 92.8173C132.805 91.6613 134.664 91.2725 136.344 91.6199Z" fill="black"/>
<path d="M65.1601 106.489C65.4324 106.599 65.6974 106.733 65.9541 106.889C66.1719 108.235 66.4967 109.564 66.9296 110.875C65.8908 111.827 65.1189 113.068 64.7196 114.424C64.4957 115.223 64.3493 116.097 63.9384 116.76C63.6402 116.08 63.3268 115.367 63.0668 114.647C62.0948 112.121 61.3664 109.466 60.9623 106.758C61.0376 106.68 61.16 106.617 61.2585 106.545C62.441 105.868 63.9172 105.971 65.1601 106.489Z" fill="black"/>
<path d="M72.0919 120.801C74.7385 125.039 78.6726 128.288 83.0219 130.669C88.5591 133.701 94.941 134.868 101.208 134.3C104.349 134.015 107.449 133.31 110.419 132.252C118.198 129.48 124.339 124.533 128.426 117.305" stroke="black" stroke-width="0.42744" stroke-linecap="round" stroke-linejoin="round"/>
<path d="M76.6365 69.5137C79.4376 67.704 82.3036 65.946 85.4177 64.7229C89.3925 63.1615 93.638 62.3257 97.9043 62.204C102.587 62.0708 106.922 63.3034 111.454 64.34" stroke="black" stroke-width="0.42744" stroke-linecap="round" stroke-linejoin="round"/>
<path d="M134.451 81.9651C134.637 82.0236 134.801 82.0748 134.98 82.1573C138.79 83.658 140.856 87.8655 139.613 91.8343C138.313 95.9888 133.9 98.2979 129.745 96.9975C127.411 96.2668 125.647 94.5362 124.788 92.4475C124.123 90.8039 123.989 88.9421 124.559 87.1221C125.859 82.9665 130.295 80.6644 134.451 81.9651Z" fill="#FE8B2E"/>
<path d="M134.98 82.1583C138.79 83.6589 140.856 87.8672 139.614 91.836C138.313 95.9904 133.9 98.2996 129.746 96.9992C127.411 96.2685 125.647 94.5372 124.788 92.4485C126.847 93.4011 129.213 93.706 131.406 93.0845C133.992 92.3558 136.242 90.165 136.718 87.4958C137.062 85.5785 136.351 83.5097 134.98 82.1583Z" fill="#FB6822"/>
<path d="M131.777 85.1829C131.222 85.2183 130.158 85.6475 130.77 86.3567C131.223 86.88 132.103 86.4318 132.503 86.0906C132.616 85.9941 132.725 85.8774 132.748 85.7302C132.78 85.5181 132.612 85.3165 132.413 85.2364C132.214 85.1563 131.992 85.1689 131.777 85.1829Z" fill="#FB6822"/>
<path d="M129.999 87.8136C129.213 87.864 127.707 88.4708 128.574 89.4745C129.214 90.2156 130.46 89.5812 131.026 89.0985C131.186 88.962 131.341 88.7956 131.372 88.5875C131.417 88.2875 131.18 88.0027 130.899 87.8895C130.618 87.7763 130.303 87.7943 129.999 87.8136Z" fill="#FB6822"/>
<path d="M65.1221 95.07C65.823 95.2894 66.4707 95.5947 67.0652 95.9858C69.9617 97.8658 71.3677 101.484 70.286 104.94C68.9856 109.094 64.565 111.427 60.4094 110.126C58.496 109.527 56.9711 108.255 56.0141 106.648C54.9039 104.789 54.5522 102.475 55.2536 100.234C56.5543 96.0788 60.9676 93.7697 65.1221 95.07Z" fill="#FE8B2E"/>
<path d="M67.0652 95.9851C69.9617 97.8652 71.3677 101.483 70.286 104.939C68.9856 109.093 64.5648 111.427 60.4093 110.126C58.4958 109.527 56.9711 108.255 56.0141 106.647C57.5289 107.045 59.191 106.976 60.6579 106.384C63.1003 105.458 65.0045 103.388 66.1519 101.03C66.9212 99.4766 67.3594 97.665 67.0652 95.9851Z" fill="#FB6822"/>
</g>
</svg>
