<svg width="90" height="92" viewBox="0 0 90 92" fill="none" xmlns="http://www.w3.org/2000/svg">
<path d="M57.8437 44.9712C57.8437 52.5977 51.6374 58.8047 44.0107 58.8047C36.3626 58.8047 30.156 52.5977 30.156 44.9712C30.156 41.5023 31.4319 38.3056 33.5632 35.8812C36.0914 32.9557 39.8319 31.1172 44.0107 31.1172C50.8859 31.1172 56.6107 36.1525 57.6554 42.7559C57.7814 43.4875 57.8437 44.219 57.8437 44.9712Z" fill="#F72F43"/>
<path d="M57.8437 44.965C57.8437 52.5919 51.6374 58.7982 44.0107 58.7982C36.3626 58.7982 30.156 52.5919 30.156 44.965C30.156 41.4962 31.4319 38.2994 33.5632 35.875C33.5837 39.2187 34.8794 42.5826 37.2197 44.9856C40.3329 48.1834 45.1394 49.6249 49.4849 48.6222C52.8502 47.8482 55.8172 45.6544 57.6554 42.7497C57.7814 43.4814 57.8437 44.2129 57.8437 44.965Z" fill="#E2212E"/>
<path d="M47.2072 42.4537C47.262 42.1421 47.2073 41.8211 47.1218 41.5159C46.8233 40.4505 46.1062 39.4069 45.147 38.8309C44.2042 38.2648 42.8906 38.6214 42.8671 39.8972C42.8409 41.3248 46.8007 44.7718 47.2072 42.4537Z" fill="#E2212E"/>
<path d="M47.2132 37.0316C47.2537 36.7994 47.2125 36.5606 47.1495 36.3335C46.9275 35.5402 46.3935 34.7636 45.6795 34.3346C44.9775 33.9134 43.9993 34.1782 43.9818 35.1284C43.9621 36.1912 46.9102 38.7575 47.2132 37.0316Z" fill="#E2212E"/>
<path d="M80.9528 70.5602C82.365 68.5037 83.6115 66.346 84.651 64.078C84.9885 63.3767 85.2863 62.6687 85.5788 61.9427C86.3858 59.9792 87.0262 57.9722 87.534 55.9112C89.3602 48.4202 89.2417 40.3649 86.7757 32.4874C83.8275 23.0689 77.9707 15.3498 70.5097 9.99706C68.1 8.25286 65.4997 6.76043 62.7825 5.57311C61.7295 5.09551 60.6532 4.66418 59.5747 4.29008C50.907 1.15988 41.2084 0.755333 31.7728 3.70876C23.7553 6.21833 16.9748 10.8386 11.8357 16.7721C11.3083 17.3606 10.8046 17.9602 10.3288 18.5897C1.76737 29.5537 -1.4538 44.4395 3.01185 58.7065C7.94865 74.4782 21.0309 85.51 36.1864 88.609C37.2321 88.819 38.2849 88.99 39.3672 89.1317C41.5081 89.4032 43.6768 89.5127 45.876 89.4775C49.887 89.395 53.9655 88.7327 57.9915 87.4727C67.6897 84.4375 75.5993 78.3287 80.9528 70.5602ZM40.4134 85.5362C39.0995 85.39 37.8038 85.1815 36.5266 84.9077C34.5738 84.5012 32.6686 83.9432 30.8142 83.2367C19.6008 79.0382 10.3596 69.8995 6.51307 57.61C3.66367 48.5072 4.22992 39.143 7.49145 30.8947C8.94165 27.1737 10.9602 23.6775 13.4435 20.5559C13.8415 20.0465 14.2567 19.5318 14.7011 19.0475C15.3475 18.2877 16.045 17.5691 16.7662 16.8629C21.1562 12.5286 26.6015 9.17176 32.8687 7.21006C39.9232 5.00191 47.1787 4.84546 53.9197 6.42556C55.3005 6.72346 56.6737 7.12021 57.9945 7.59106C59.1532 7.97806 60.276 8.43398 61.3755 8.93551C71.49 13.4963 79.7077 22.187 83.2747 33.5833C86.217 42.983 85.5172 52.6592 81.9675 61.0937C81.7005 61.7147 81.4335 62.3365 81.144 62.9462C76.4985 72.6655 67.959 80.509 56.8957 83.9717C51.3982 85.6922 45.798 86.158 40.4134 85.5362Z" fill="#28B6F4"/>
<path d="M46.785 88.6343C46.4557 88.8728 46.1482 89.1796 45.876 89.4766C43.6768 89.5118 41.5082 89.4016 39.3673 89.1308C39.187 87.8798 39.641 86.5658 40.4136 85.5353C45.798 86.1571 51.399 85.6913 56.8957 83.9708C67.959 80.5081 76.4985 72.6646 81.1447 62.9453C82.4085 62.9911 83.7022 63.3181 84.6517 64.0771C83.6115 66.3451 82.365 68.5028 80.9528 70.5593C80.3678 70.7813 79.812 71.0318 79.2608 71.3581C76.8503 72.7463 74.7022 74.7256 72.513 76.4491C70.0222 78.4388 67.4857 80.4068 64.8022 82.1491C60.5925 84.8513 55.929 87.0226 50.9648 87.5573C49.5173 87.7223 47.961 87.7861 46.785 88.6343Z" fill="#095DA4"/>
<path d="M36.0939 88.6507C35.8862 88.6005 35.6855 88.5682 35.4779 88.518C33.5425 88.089 31.6443 87.534 29.7828 86.8522L29.7657 86.8575C17.3797 82.3035 7.16622 72.2602 2.93299 58.7362C-0.235232 48.6142 0.465193 38.1821 4.20244 29.0609C5.05684 26.9542 6.05855 24.9546 7.2284 22.9981C8.13552 21.4876 9.15132 20.0211 10.2471 18.6237C10.7213 17.9961 11.2236 17.3983 11.7496 16.8125C12.8257 17.3755 13.8129 18.1399 14.6048 19.0801C14.1628 19.5637 13.748 20.0764 13.3513 20.584C12.4038 21.7804 11.5305 23.0314 10.7263 24.3179C9.95847 25.535 9.26359 26.8061 8.63809 28.1134C8.19927 29.0365 7.7822 29.9716 7.4117 30.9304C6.7046 31.0564 5.99172 31.4716 5.51239 32.0239C4.59687 33.0768 4.26297 34.5216 4.00122 35.8882C3.44119 38.9946 3.01939 42.1158 2.89189 45.2595C2.76544 48.0397 3.10144 50.8275 3.27627 53.589C3.65269 58.9515 6.45245 64.2255 9.42627 68.583C12.5972 73.2045 16.512 77.325 20.9598 80.7037C23.2761 82.47 26.0047 84.0877 28.869 83.6887C29.4958 83.6077 30.1116 83.4337 30.728 83.2605C31.1415 83.418 31.5492 83.559 31.9626 83.7165C33.4224 84.2175 34.9131 84.633 36.4458 84.939C36.6168 85.422 36.6997 85.9327 36.6904 86.4525L36.6958 86.4697C36.6813 87.222 36.4998 87.9877 36.0939 88.6507Z" fill="#095DA4"/>
<path d="M16.768 16.8683C15.5784 18.0264 14.4509 19.2609 13.4388 20.5553C12.4089 20.5706 11.3602 20.0363 10.7163 19.204C10.5806 19.0163 10.4398 18.8119 10.3337 18.5951C15.6179 11.7869 22.9448 6.48595 31.7752 3.72197C39.2439 1.38422 46.8719 1.14197 54.0254 2.6974C55.9154 3.1015 57.7731 3.6508 59.5829 4.2913C59.6046 5.33897 59.3076 6.35065 58.6011 7.09022C58.4114 7.28342 58.2119 7.44077 57.9899 7.58702C57.1679 7.28875 56.3174 7.01927 55.4481 6.81227C54.9411 6.66385 54.4229 6.5383 53.9106 6.43052C52.4354 4.59265 49.7609 4.06952 47.3751 3.91645C38.4681 3.37015 29.404 5.63282 21.7996 10.2929C20.1491 11.3269 18.4736 12.5224 17.6202 14.2647C17.2292 15.0965 17.0279 15.9824 16.768 16.8683Z" fill="#095DA4"/>
<path d="M85.578 61.948C85.1528 62.0043 84.7073 61.99 84.267 61.9353C83.439 61.81 82.6733 61.5116 81.9675 61.0983C85.5173 52.6646 86.217 42.988 83.2748 33.5884C79.7078 22.192 71.4893 13.5011 61.3748 8.9403C61.5705 7.72545 62.0513 6.55695 62.7825 5.57812C65.4998 6.76545 68.1 8.25795 70.5098 10.0022C70.4243 10.5863 70.5225 11.2087 70.7505 11.7531C71.2455 12.9045 72.1868 13.7634 73.0755 14.6386C77.7323 19.1385 81.6203 24.4959 84.1088 30.4826C86.5748 36.4567 87.6135 43.0894 86.7173 49.501C86.4638 51.3303 86.0738 53.278 86.8958 54.9235C87.0638 55.2745 87.3015 55.6038 87.534 55.9158C87.0263 57.9768 86.385 59.9845 85.578 61.948Z" fill="#095DA4"/>
<path d="M6.34036 28.2361C5.59104 28.4126 4.89721 28.7062 4.20264 29.0575C5.05704 26.9508 6.05874 24.9512 7.22859 22.9947C7.98129 22.9511 8.73683 23.0401 9.43118 23.3599C9.93616 23.5659 10.3871 23.9035 10.7261 24.3147C9.95821 25.5318 9.26333 26.8029 8.63783 28.1102C7.87126 27.9861 7.08939 28.0587 6.34036 28.2361Z" fill="black"/>
<path d="M12.4576 27.4204C12.1779 27.508 11.8925 27.5784 11.6135 27.6077C8.76231 28.0777 5.92153 26.3722 5.03383 23.5362C4.05861 20.4206 5.80798 17.1054 8.92356 16.1302C10.4818 15.6424 12.0624 15.8395 13.4071 16.5136C14.7637 17.2227 15.8375 18.4446 16.3249 20.002C17.3005 23.1184 15.574 26.4449 12.4576 27.4204Z" fill="#FFCA28"/>
<path d="M11.6134 27.6081C8.76214 28.078 5.92129 26.3721 5.03359 23.5361C4.05837 20.4206 5.80767 17.1053 8.92332 16.1301C10.4815 15.6424 12.0617 15.8396 13.4064 16.5137C11.5737 17.7801 10.0893 19.6094 9.64999 21.7649C9.19917 23.8861 9.96679 26.2782 11.6134 27.6081Z" fill="#FF9F1C"/>
<path d="M84.9779 68.3832C84.0854 68.6622 83.1614 68.7214 82.2891 68.5714C80.1479 68.2422 78.2729 66.7332 77.5769 64.5102C76.6019 61.3947 78.3336 58.0849 81.4491 57.1099C82.9716 56.6329 84.5241 56.8002 85.8404 57.4452C87.2324 58.1442 88.3521 59.3892 88.8501 60.9814C89.8259 64.0977 88.0941 67.4074 84.9779 68.3832Z" fill="#FFCA28"/>
<path d="M82.2885 68.5714C80.148 68.2422 78.273 66.7332 77.5777 64.5102C76.602 61.3947 78.3337 58.0849 81.4492 57.1099C82.9717 56.6329 84.5242 56.8002 85.8405 57.4452C85.17 57.6364 84.549 57.9844 84.018 58.4389C83.0985 59.2459 82.4865 60.3597 82.116 61.5132C81.372 63.8022 81.453 66.3334 82.2885 68.5714Z" fill="#FF9F1C"/>
<path d="M86.6302 57.9219C87.6502 58.6494 88.4504 59.7031 88.8502 60.9811C89.8259 64.0981 88.0942 67.4079 84.9779 68.3829C84.0854 68.6626 83.1614 68.7211 82.2892 68.5719C80.1479 68.2426 78.2729 66.7336 77.5769 64.5099" stroke="black" stroke-width="0.320558" stroke-linecap="round" stroke-linejoin="round"/>
<path d="M35.6913 88.4507C33.7559 88.0217 31.8577 87.4659 29.9971 86.7842C31.0351 85.9989 31.8182 84.8912 32.1769 83.6484C33.6367 84.1494 35.1269 84.5649 36.6597 84.8709C36.8297 85.3539 36.9127 85.8647 36.9034 86.3852L36.9088 86.4024C36.7098 87.1734 36.2855 87.9002 35.6913 88.4507Z" fill="black"/>
<path d="M40.3443 91.0768C39.1186 91.4608 37.8602 91.4315 36.7186 91.04C34.9834 90.4685 33.5345 89.0953 32.9427 87.2045C31.9675 84.089 33.6937 80.7613 36.8101 79.7863C38.9632 79.112 41.197 79.7383 42.6959 81.2113C43.3857 81.8796 43.9149 82.7135 44.2162 83.6758C45.192 86.792 43.46 90.1018 40.3443 91.0768Z" fill="#FFCA28"/>
<path d="M36.7193 91.0399C34.9841 90.4684 33.5353 89.0959 32.9435 87.2052C31.9682 84.0897 33.6944 80.7619 36.8108 79.7862C38.9639 79.1119 41.1974 79.7389 42.6962 81.2119C41.2185 81.4054 39.7927 81.9469 38.5931 82.8424C36.8283 84.2022 35.6613 86.4312 35.8757 88.6512C35.9652 89.4882 36.263 90.3177 36.7193 91.0399Z" fill="#FF9F1C"/>
<path d="M38.8282 85.3926C38.6092 85.5479 38.3838 85.7099 38.2486 85.9409C38.1135 86.1727 38.0949 86.4959 38.2789 86.6909C38.4224 86.8432 38.6566 86.8829 38.8609 86.8364C39.0651 86.7907 39.2447 86.6722 39.4103 86.5439C39.6403 86.3654 39.859 86.1569 39.9746 85.8892C40.0903 85.6222 40.0825 85.2854 39.8918 85.0656C39.7011 84.8466 39.31 84.8099 39.1258 85.0349" fill="#FF9F1C"/>
<path d="M41.6577 85.9699C41.5197 86.0674 41.3781 86.1687 41.293 86.315C41.2079 86.4605 41.196 86.6637 41.3118 86.7867C41.4022 86.8827 41.5499 86.9075 41.6785 86.879C41.8071 86.8497 41.9203 86.7747 42.0243 86.6937C42.1692 86.5819 42.3071 86.4507 42.3797 86.2819C42.4522 86.1139 42.4475 85.9017 42.3274 85.7637C42.2072 85.6257 41.9612 85.6025 41.8454 85.7442" fill="#FF9F1C"/>
<path d="M57.9906 7.58516C57.1686 7.28689 56.3174 7.01704 55.4481 6.80996C55.4309 6.45124 55.4264 6.06919 55.3056 5.74301C55.0469 5.03831 54.6186 4.40629 54.3134 3.73549C54.1754 3.41479 54.0599 3.04856 54.0254 2.69531C55.9154 3.09934 57.7731 3.64871 59.5829 4.28914C59.6046 5.33681 59.3076 6.34849 58.6004 7.08806C58.4114 7.28134 58.2119 7.43899 57.9906 7.58516Z" fill="black"/>
<path d="M63.9323 12.4413C63.1793 12.677 62.3948 12.7491 61.6478 12.6948C59.3371 12.4957 57.2536 10.9374 56.5141 8.57389C55.5391 5.45832 57.2873 2.14249 60.4036 1.16704C61.6111 0.788966 62.8531 0.823317 63.9661 1.18654C65.7361 1.74627 67.2076 3.13212 67.8046 5.03997C68.7796 8.15554 67.0478 11.4661 63.9323 12.4413Z" fill="#FFCA28"/>
<path d="M61.6478 12.6944C59.3371 12.4953 57.2536 10.9375 56.5141 8.57405C55.5383 5.4584 57.2873 2.1425 60.4036 1.16698C61.6118 0.788977 62.8531 0.823327 63.9661 1.18655C62.5643 2.35543 61.4566 3.85558 60.8446 5.58455C60.0361 7.91345 60.3338 10.6451 61.6478 12.6944Z" fill="#FF9F1C"/>
<path d="M63.2896 5.77972C63.2093 5.98845 63.1373 6.24757 63.2836 6.41632C63.4508 6.60892 63.7628 6.53002 63.9923 6.41782C64.4011 6.2175 64.8053 5.92807 64.9523 5.49712C65.0318 5.26462 65.0093 4.73685 64.7543 4.59532C64.1393 4.2543 63.4486 5.36595 63.2896 5.77972Z" fill="#FF9F1C"/>
<path d="M64.0366 7.63535C63.9901 7.75565 63.9488 7.9049 64.0328 8.00233C64.1296 8.11348 64.3103 8.0684 64.4423 8.0036C64.6786 7.8878 64.9118 7.72078 64.9966 7.47185C65.0431 7.33775 65.0296 7.03303 64.8826 6.95113C64.5271 6.75395 64.1281 7.39625 64.0366 7.63535Z" fill="#FF9F1C"/>
<path d="M15.6807 37.0279C15.5547 37.4304 15.4282 37.8331 15.3374 38.2466C15.2607 38.4919 15.201 38.743 15.1479 38.9758C14.7333 40.7297 14.4927 42.4809 14.4029 44.2398C14.361 45.1115 14.3541 45.9943 14.4108 46.8575C14.4063 46.9318 14.402 47.0075 14.4153 47.0885C14.5526 50.15 15.2056 53.1605 16.3023 55.9835C19.3497 63.9335 25.8748 70.4743 34.6282 73.2148C49.8246 77.9713 66.0524 69.4798 70.8089 54.2833C71.8274 51.0275 72.2436 47.735 72.1026 44.5012C72.0786 43.8395 72.0374 43.1731 71.9564 42.5132C71.8169 41.2402 71.5844 39.9567 71.2596 38.7204C71.1269 38.1597 70.9604 37.5886 70.7871 37.0351C70.6881 36.6763 70.5771 36.354 70.4556 36.0087C69.5069 33.3277 68.1614 30.8117 66.4716 28.5331C62.9714 23.7473 57.9711 20.0102 51.8781 18.1033C36.6822 13.3467 20.437 21.8324 15.6807 37.0279ZM63.1004 30.1502C64.7346 32.2374 66.0254 34.5637 66.9179 37.0545C66.9801 37.2266 67.0454 37.3828 67.1069 37.555C67.3334 38.2419 67.5261 38.9167 67.6956 39.604C68.0264 40.8223 68.2341 42.06 68.3564 43.3286C68.4936 44.7934 68.4921 46.2725 68.3511 47.7673C68.2274 49.574 67.8719 51.3845 67.3079 53.1875C63.1536 66.458 48.9764 73.8613 35.7242 69.713C28.1086 67.3295 22.411 61.643 19.7544 54.7183C18.7871 52.2823 18.2288 49.7053 18.0987 47.0503C18.0447 46.6685 18.0497 46.2845 18.0369 45.896C18.0423 45.8788 18.0306 45.8555 18.036 45.839C18.0063 43.2925 18.3762 40.6975 19.1818 38.1238C23.3298 24.8715 37.5122 17.4511 50.7824 21.6048C55.8426 23.1886 60.0584 26.2377 63.1004 30.1502Z" fill="#28B6F4"/>
<path d="M56.0483 22.099C58.5188 23.6025 60.6788 25.6048 63.1996 27.0097C64.2488 27.5876 65.3671 28.0714 66.4718 28.5328C68.1616 30.8113 69.5071 33.3274 70.4558 36.0084C70.5773 36.3536 70.6883 36.676 70.7873 37.0348C71.3483 38.8048 71.7533 40.6426 71.9558 42.5129C71.0183 42.9891 69.9676 43.2752 68.9311 43.3345C68.7338 43.3497 68.5418 43.3477 68.3566 43.3283C68.1683 41.3471 67.7333 39.4231 67.1071 37.5546C67.0456 37.3825 66.9803 37.2262 66.9181 37.0541C66.0256 34.5634 64.7348 32.237 63.1006 30.1499C60.0586 26.2374 55.8428 23.1883 50.7826 21.6045C37.5124 17.4508 23.33 24.8712 19.1819 38.1235C18.3763 40.6972 18.0065 43.2922 18.0362 45.8383C16.9112 46.4856 15.695 46.9311 14.4155 47.0878C14.346 46.1436 14.3571 45.1858 14.403 44.2394C14.4928 42.4806 14.7335 40.7293 15.148 38.9755C15.2011 38.7427 15.2609 38.4916 15.3376 38.2463C16.0674 37.8796 16.7368 37.3393 17.2941 36.7252C18.2488 35.6398 18.9084 34.3282 19.6288 33.0737C22.3924 28.1724 26.4301 22.7657 31.852 20.7337C39.5105 17.8833 48.9076 17.769 56.0483 22.099Z" fill="#095DA4"/>
<path d="M71.2582 38.7169C71.577 39.9655 71.8087 41.2459 71.9647 42.5216C72.0465 43.1787 72.087 43.8438 72.111 44.5026C72.147 45.2418 72.1492 45.97 72.1282 46.711C72.03 49.2288 71.6025 51.7593 70.8105 54.289C66.0525 69.49 49.8285 77.9785 34.628 73.2205C26.4603 70.6638 20.2276 64.8033 16.9542 57.571C16.7306 57.0603 16.4954 56.527 16.3004 55.9863C15.5714 54.0918 15.0252 52.0998 14.7222 50.0695C14.5533 49.078 14.4604 48.091 14.4075 47.0965C14.3943 47.0163 14.3981 46.9413 14.4028 46.8663C15.2064 46.5618 16.0725 46.4875 16.9143 46.6173C17.3265 46.708 17.7281 46.834 18.0965 47.0643C18.1499 48.1158 18.2677 49.1485 18.4659 50.1685C18.6292 51.1773 18.8727 52.174 19.1975 53.1573C19.3573 53.6868 19.5576 54.2088 19.7588 54.7323C19.2389 55.4118 19.0772 56.3583 19.249 57.2163C19.4361 58.2715 20.0206 59.2203 20.6388 60.1233C24.4584 65.611 29.9487 70.0503 36.3243 72.085C42.6845 74.113 49.962 73.6323 55.7482 70.27C60.4642 67.5685 64.0095 63.16 66.945 58.5595C68.4225 56.2248 69.8257 53.5788 69.4335 50.8503C69.2625 49.7425 68.8282 48.7443 68.3475 47.7693C68.4652 46.5993 68.484 45.4368 68.4225 44.2872C68.4112 43.9571 68.3932 43.6459 68.3587 43.3281C68.2365 42.063 68.0295 40.8296 67.701 39.6149C68.6047 38.748 69.9982 38.4564 71.2582 38.7169Z" fill="#095DA4"/>
<path d="M71.2582 38.7169C71.5769 39.9656 71.8087 41.2455 71.9647 42.5212C72.0464 43.1783 72.0869 43.8434 72.1109 44.5022C72.1469 45.2412 72.1499 45.9695 72.1282 46.7105C71.2394 45.5127 69.8924 44.6118 68.4224 44.2868C68.4112 43.9567 68.3939 43.6457 68.3594 43.3278C68.2372 42.0628 68.0294 40.8296 67.7002 39.615C68.6039 38.748 69.9982 38.4564 71.2582 38.7169Z" fill="black"/>
<path d="M17.8703 49.8621C18.0745 49.9446 18.2733 50.0451 18.4658 50.1621C18.6291 51.1716 18.8727 52.1683 19.1974 53.1516C18.4183 53.8656 17.8394 54.7964 17.5399 55.8134C17.372 56.4126 17.2622 57.0681 16.954 57.5654C16.7303 57.0554 16.4953 56.5206 16.3003 55.9806C15.5713 54.0861 15.025 52.0949 14.7219 50.0639C14.7784 50.0054 14.8702 49.9581 14.9441 49.9041C15.8309 49.3963 16.9381 49.4736 17.8703 49.8621Z" fill="black"/>
<path d="M23.0691 60.5986C25.054 63.7771 28.0046 66.2138 31.2666 67.9996C35.4195 70.2736 40.2059 71.1488 44.9062 70.7228C47.2619 70.5091 49.5869 69.9803 51.8144 69.1868C57.6487 67.1078 62.2544 63.3976 65.3197 57.9766" stroke="black" stroke-width="0.32058" stroke-linecap="round" stroke-linejoin="round"/>
<path d="M26.4775 22.1304C28.5784 20.7731 30.7279 19.4546 33.0634 18.5373C36.0445 17.3662 39.2287 16.7393 42.4284 16.6481C45.9404 16.5482 49.1917 17.4726 52.5907 18.2501" stroke="black" stroke-width="0.32058" stroke-linecap="round" stroke-linejoin="round"/>
<path d="M69.8386 31.4755C69.9781 31.5194 70.1011 31.5578 70.2353 31.6197C73.0928 32.7452 74.6423 35.9008 73.7101 38.8774C72.7351 41.9933 69.4253 43.7251 66.3091 42.7498C64.5586 42.2018 63.2356 40.9039 62.5913 39.3373C62.0926 38.1046 61.9921 36.7083 62.4196 35.3433C63.3946 32.2266 66.7216 30.5 69.8386 31.4755Z" fill="#FE8B2E"/>
<path d="M70.2353 31.6172C73.0928 32.7426 74.6423 35.8989 73.7108 38.8755C72.7351 41.9913 69.4253 43.7232 66.3098 42.7479C64.5586 42.1998 63.2356 40.9014 62.5913 39.3348C64.1356 40.0493 65.9101 40.278 67.5548 39.8118C69.4943 39.2653 71.1818 37.6222 71.5388 35.6203C71.7968 34.1823 71.2636 32.6307 70.2353 31.6172Z" fill="#FB6822"/>
<path d="M67.833 33.8828C67.4167 33.9093 66.6188 34.2312 67.0778 34.7631C67.4175 35.1556 68.0775 34.8194 68.3775 34.5635C68.4623 34.4912 68.544 34.4036 68.5613 34.2932C68.5853 34.1342 68.4592 33.983 68.31 33.9229C68.1607 33.8628 67.9942 33.8723 67.833 33.8828Z" fill="#FB6822"/>
<path d="M66.4995 35.8623C65.91 35.9001 64.7806 36.3552 65.4308 37.108C65.9108 37.6638 66.8453 37.188 67.2698 36.826C67.3898 36.7236 67.506 36.5988 67.5293 36.4427C67.563 36.2177 67.3853 36.0041 67.1746 35.9192C66.9638 35.8343 66.7275 35.8478 66.4995 35.8623Z" fill="#FB6822"/>
<path d="M17.8419 41.303C18.3676 41.4676 18.8533 41.6966 19.2992 41.9899C21.4716 43.3999 22.5261 46.1135 21.7148 48.7055C20.7395 51.821 17.4241 53.5708 14.3074 52.595C12.8723 52.1458 11.7286 51.1918 11.0109 49.9865C10.1782 48.5923 9.91446 46.8568 10.4405 45.176C11.416 42.0596 14.726 40.3278 17.8419 41.303Z" fill="#FE8B2E"/>
<path d="M19.2991 41.9844C21.4714 43.3945 22.5259 46.1078 21.7147 48.6998C20.7394 51.8153 17.4238 53.5658 14.3071 52.59C12.872 52.1408 11.7285 51.1868 11.0107 49.9808C12.1468 50.2793 13.3934 50.2276 14.4936 49.7836C16.3254 49.0891 17.7535 47.5365 18.6141 45.768C19.1911 44.603 19.5197 43.2443 19.2991 41.9844Z" fill="#FB6822"/>
</svg>
